<?xml version="1.0" encoding="UTF-8" ?>
<!DOCTYPE svg PUBLIC "-//W3C//DTD SVG 1.1//EN" "http://www.w3.org/Graphics/SVG/1.1/DTD/svg11.dtd">
<svg width="577pt" height="612pt" viewBox="0 0 577 612" version="1.1" xmlns="http://www.w3.org/2000/svg">
<g id="#ffffffff">
<path fill="#ffffff" opacity="1.00" d=" M 0.00 0.00 L 282.55 0.00 C 239.02 1.56 195.84 13.37 157.91 34.86 C 105.03 64.55 62.50 112.27 39.32 168.33 C 25.80 200.76 18.75 235.86 18.61 271.00 C 18.58 290.33 18.59 309.66 18.60 328.99 C 18.67 364.39 25.81 399.76 39.53 432.39 C 56.07 471.95 82.19 507.42 114.88 535.15 C 140.33 556.77 169.75 573.72 201.28 584.75 C 240.46 598.53 282.84 603.04 324.06 597.97 C 362.53 593.33 399.93 580.20 432.93 559.89 C 483.50 528.97 523.55 481.19 544.96 425.90 C 553.82 403.17 559.57 379.22 562.00 354.94 C 564.07 335.36 563.21 315.65 563.39 296.00 C 563.40 275.44 563.87 254.77 560.78 234.38 C 555.30 194.81 540.78 156.55 518.79 123.21 C 493.10 84.12 457.23 51.80 415.67 30.32 C 379.84 11.64 339.79 1.49 299.45 0.00 L 577.00 0.00 L 577.00 612.00 L 0.00 612.00 L 0.00 0.00 Z" />
<path fill="#ffffff" opacity="1.00" d=" M 276.30 23.25 C 304.54 21.66 333.08 24.72 360.24 32.67 C 413.90 48.10 461.83 82.34 494.14 127.84 C 522.93 167.89 539.36 216.70 540.43 266.02 C 541.86 315.04 528.16 364.37 501.66 405.63 C 481.76 436.93 454.75 463.66 423.32 483.33 C 385.64 507.04 341.49 520.32 296.98 521.24 C 247.54 522.60 197.85 508.58 156.36 481.68 C 105.90 449.35 67.63 398.39 51.18 340.72 C 41.49 307.39 39.03 272.00 43.79 237.64 C 51.73 178.36 82.39 122.66 127.71 83.73 C 168.79 47.94 221.89 26.29 276.30 23.25 M 272.51 64.77 C 243.93 67.79 215.99 76.79 191.07 91.12 C 155.76 111.28 126.56 141.98 108.25 178.28 C 91.31 211.35 84.00 249.02 86.10 286.04 C 88.70 315.62 96.64 344.90 110.95 371.03 C 137.63 420.94 185.33 459.21 240.06 473.88 C 287.52 486.91 339.60 482.30 383.97 460.95 C 418.78 444.42 448.79 418.01 469.70 385.65 C 492.96 350.14 504.42 307.37 503.21 265.03 C 502.40 240.95 497.36 217.02 488.36 194.68 C 467.57 142.40 424.65 99.45 372.38 78.65 C 340.90 65.89 306.27 61.24 272.51 64.77 Z" />
<path fill="#ffffff" opacity="1.00" d=" M 281.30 95.25 C 314.92 92.93 349.20 99.46 379.28 114.75 C 409.38 129.85 435.22 153.28 453.29 181.69 C 473.16 212.58 483.38 249.38 483.00 286.07 C 480.07 323.76 465.71 360.52 442.00 390.01 C 418.54 419.54 386.09 441.88 350.03 452.98 C 301.98 468.05 247.97 462.56 203.92 438.17 C 170.28 419.78 142.43 390.99 125.29 356.69 C 112.77 332.04 106.22 304.57 105.08 277.00 C 106.03 245.53 115.20 214.35 131.34 187.32 C 151.15 153.90 181.53 126.86 217.06 111.12 C 237.31 102.08 259.17 96.69 281.30 95.25 M 215.55 177.97 C 215.56 244.71 215.50 311.46 215.58 378.21 C 212.47 378.51 208.88 378.04 206.46 380.47 C 202.70 383.40 202.82 388.69 203.56 392.94 C 204.93 396.79 208.73 400.01 212.98 399.60 C 262.66 399.60 312.34 399.61 362.02 399.59 C 367.44 399.91 372.32 394.33 371.69 389.00 C 372.20 385.29 369.99 381.93 367.09 379.85 C 364.68 377.93 361.41 378.71 358.63 377.87 C 358.77 337.69 358.78 297.50 358.62 257.32 C 361.61 256.37 364.75 257.45 367.51 258.63 C 375.78 262.64 380.84 271.92 380.52 281.00 C 380.52 304.00 380.49 327.00 380.53 350.00 C 381.05 356.61 383.94 363.62 389.93 367.06 C 394.95 370.52 402.04 370.50 407.06 367.05 C 412.75 363.85 415.86 357.33 416.46 351.03 C 416.57 327.22 416.42 303.41 416.53 279.59 C 418.48 279.56 420.43 279.56 422.39 279.51 C 422.47 271.23 422.33 262.95 422.47 254.67 C 425.10 253.47 426.65 251.07 427.74 248.49 C 430.65 248.57 433.56 248.56 436.48 248.58 C 436.35 240.43 436.51 232.27 436.41 224.12 C 436.44 222.85 435.17 222.07 434.60 221.06 C 434.61 218.97 434.64 216.87 434.63 214.79 C 432.21 215.61 429.90 216.70 427.64 217.88 C 427.23 215.39 426.92 212.11 424.01 211.33 C 422.35 211.59 420.82 212.30 419.24 212.81 C 419.49 208.14 420.55 203.58 421.24 198.97 C 421.69 194.90 421.99 190.78 422.93 186.79 C 424.26 184.48 426.36 182.74 428.11 180.76 C 426.75 178.33 424.51 176.61 422.21 175.14 C 419.48 178.55 415.39 181.40 414.81 186.05 C 413.24 196.46 412.30 206.96 410.30 217.30 C 407.38 218.98 402.84 219.41 401.64 222.98 C 401.44 231.66 401.65 240.36 401.55 249.05 C 401.33 250.88 402.12 252.57 402.76 254.24 C 404.59 254.71 406.99 254.30 408.26 256.01 C 408.40 286.68 408.26 317.37 408.33 348.04 C 408.41 351.14 407.50 354.29 405.64 356.78 C 402.86 360.68 396.80 361.89 392.89 359.00 C 390.11 356.88 388.08 353.54 388.27 349.96 C 388.24 327.31 388.27 304.65 388.26 281.99 C 387.94 276.82 387.75 271.44 385.34 266.72 C 380.89 256.04 370.42 247.16 358.46 247.31 C 358.22 223.87 358.47 200.41 358.33 176.97 C 357.79 168.58 351.01 159.84 342.02 160.24 C 305.34 160.24 268.65 160.24 231.97 160.25 C 222.62 159.75 215.39 169.14 215.55 177.97 Z" />
<path fill="#ffffff" opacity="1.00" d=" M 240.67 189.37 C 242.41 188.97 244.17 188.62 245.98 188.69 C 257.87 188.77 269.76 188.61 281.66 188.78 C 276.53 199.01 270.83 208.94 265.35 218.97 C 269.42 218.13 273.40 216.91 277.38 215.69 C 279.26 206.88 281.17 198.06 283.28 189.31 C 284.08 189.10 285.67 188.67 286.46 188.46 C 285.76 197.54 283.04 206.34 282.08 215.39 C 286.05 215.49 290.02 215.49 293.99 215.39 C 293.14 206.44 290.35 197.73 289.71 188.77 C 291.37 188.22 293.32 189.00 293.32 190.94 C 295.27 199.16 296.57 207.61 299.08 215.66 C 302.80 217.23 306.81 218.01 310.72 218.99 C 305.44 208.88 299.37 199.16 294.65 188.78 C 307.41 188.68 320.18 188.62 332.94 188.81 C 333.33 192.19 333.22 195.60 333.22 199.00 C 333.21 218.18 333.23 237.35 333.21 256.52 C 320.10 256.78 306.98 256.64 293.86 256.59 C 298.88 245.41 305.56 235.02 311.06 224.06 C 307.00 222.71 302.87 221.44 298.61 220.95 C 296.30 232.83 294.48 244.82 291.93 256.65 C 291.24 256.67 289.86 256.72 289.16 256.75 C 290.28 244.40 292.72 232.22 294.30 219.93 C 290.24 219.77 286.17 219.78 282.10 219.92 C 282.95 232.29 286.10 244.39 286.88 256.76 C 286.19 256.72 284.79 256.64 284.10 256.60 C 281.75 244.75 279.73 232.83 277.51 220.95 C 273.31 221.57 269.07 222.44 265.18 224.18 C 270.55 235.17 277.30 245.49 282.31 256.64 C 268.44 256.59 254.55 256.78 240.68 256.55 C 240.80 234.16 240.83 211.76 240.67 189.37 Z" />
<path fill="#ffffff" opacity="1.00" d=" M 54.17 406.01 C 58.20 412.88 62.70 419.46 67.06 426.11 C 67.36 429.53 67.23 432.99 66.99 436.41 C 61.82 426.70 57.56 416.48 54.17 406.01 Z" />
<path fill="#ffffff" opacity="1.00" d=" M 516.96 423.85 C 520.40 418.58 523.63 413.16 527.14 407.94 C 524.70 417.02 520.70 425.66 516.56 434.08 C 516.80 430.69 516.10 427.13 516.96 423.85 Z" />
<path fill="#ffffff" opacity="1.00" d=" M 488.93 458.95 C 492.08 455.72 494.97 452.26 497.94 448.88 C 498.05 453.60 497.97 458.33 498.02 463.05 C 497.93 464.77 498.33 466.75 497.08 468.17 C 493.93 472.68 490.82 477.24 487.22 481.41 C 487.17 474.94 487.15 468.47 487.20 462.00 C 487.01 460.67 488.17 459.82 488.93 458.95 Z" />
<path fill="#ffffff" opacity="1.00" d=" M 85.20 450.80 C 88.91 454.77 92.38 459.00 96.54 462.53 C 96.66 469.71 96.54 476.89 96.62 484.08 C 92.95 480.11 89.94 475.62 86.71 471.31 C 86.03 470.30 85.08 469.29 85.21 467.98 C 85.13 462.25 85.21 456.52 85.20 450.80 Z" />
<path fill="#ffffff" opacity="1.00" d=" M 446.25 495.38 C 453.85 489.83 461.40 484.19 468.65 478.19 C 468.54 486.35 468.58 494.52 468.63 502.70 C 461.46 509.94 453.97 516.89 445.86 523.08 C 445.79 514.09 445.70 505.09 445.88 496.10 L 446.25 495.38 Z" />
<path fill="#ffffff" opacity="1.00" d=" M 115.17 480.05 C 122.57 486.02 130.01 491.98 137.93 497.26 C 138.07 506.27 137.99 515.27 137.97 524.28 C 129.93 518.30 122.68 511.35 115.23 504.67 C 115.13 496.46 115.23 488.25 115.17 480.05 Z" />
<path fill="#ffffff" opacity="1.00" d=" M 404.33 519.42 C 412.41 515.79 420.24 511.63 427.81 507.04 C 427.72 516.88 427.92 526.72 427.71 536.56 C 420.05 541.58 412.11 546.16 403.85 550.11 C 403.80 540.11 403.70 530.10 403.88 520.10 L 404.33 519.42 Z" />
<path fill="#ffffff" opacity="1.00" d=" M 156.66 508.34 C 164.61 512.39 172.44 516.68 180.63 520.26 C 180.54 530.57 180.63 540.89 180.58 551.21 C 172.34 547.41 164.62 542.55 156.94 537.74 C 156.15 528.03 156.76 518.13 156.66 508.34 Z" />
<path fill="#ffffff" opacity="1.00" d=" M 355.23 536.34 C 365.39 534.06 375.32 530.92 385.14 527.50 C 385.16 537.91 385.31 548.33 385.07 558.75 C 375.40 562.75 365.37 565.75 355.38 568.82 C 354.96 558.00 355.25 547.16 355.23 536.34 Z" />
<path fill="#ffffff" opacity="1.00" d=" M 198.68 528.72 C 208.49 532.15 218.42 535.25 228.56 537.58 C 228.64 548.10 228.56 558.63 228.60 569.17 C 218.30 567.27 208.52 563.30 198.65 559.88 C 198.58 549.49 198.53 539.10 198.68 528.72 Z" />
<path fill="#ffffff" opacity="1.00" d=" M 301.19 544.18 C 313.06 543.72 324.85 542.16 336.64 540.77 C 336.56 551.49 336.57 562.20 336.63 572.92 C 324.99 575.48 313.07 576.61 301.18 577.13 C 301.20 566.15 301.18 555.16 301.19 544.18 Z" />
<path fill="#ffffff" opacity="1.00" d=" M 247.08 541.37 C 258.86 542.76 270.64 544.36 282.51 544.73 C 282.72 555.48 282.49 566.23 282.64 576.98 C 270.76 576.87 258.96 575.25 247.21 573.64 C 247.10 562.88 247.33 552.12 247.08 541.37 Z" />
</g>
<g id="#000000ff">
<path fill="#000000" opacity="1.00" d=" M 282.55 0.00 L 299.45 0.00 C 339.79 1.49 379.84 11.64 415.67 30.32 C 457.23 51.80 493.10 84.12 518.79 123.21 C 540.78 156.55 555.30 194.81 560.78 234.38 C 563.87 254.77 563.40 275.44 563.39 296.00 C 563.21 315.65 564.07 335.36 562.00 354.94 C 559.57 379.22 553.82 403.17 544.96 425.90 C 523.55 481.19 483.50 528.97 432.93 559.89 C 399.93 580.20 362.53 593.33 324.06 597.97 C 282.84 603.04 240.46 598.53 201.28 584.75 C 169.75 573.72 140.33 556.77 114.88 535.15 C 82.19 507.42 56.07 471.95 39.53 432.39 C 25.81 399.76 18.67 364.39 18.60 328.99 C 18.59 309.66 18.58 290.33 18.61 271.00 C 18.75 235.86 25.80 200.76 39.32 168.33 C 62.50 112.27 105.03 64.55 157.91 34.86 C 195.84 13.37 239.02 1.56 282.55 0.00 M 276.30 23.25 C 221.89 26.29 168.79 47.94 127.71 83.73 C 82.39 122.66 51.73 178.36 43.79 237.64 C 39.03 272.00 41.49 307.39 51.18 340.72 C 67.63 398.39 105.90 449.35 156.36 481.68 C 197.85 508.58 247.54 522.60 296.98 521.24 C 341.49 520.32 385.64 507.04 423.32 483.33 C 454.75 463.66 481.76 436.93 501.66 405.63 C 528.16 364.37 541.86 315.04 540.43 266.02 C 539.36 216.70 522.93 167.89 494.14 127.84 C 461.83 82.34 413.90 48.10 360.24 32.67 C 333.08 24.72 304.54 21.66 276.30 23.25 M 54.17 406.01 C 57.56 416.48 61.82 426.70 66.99 436.41 C 67.23 432.99 67.36 429.53 67.06 426.11 C 62.70 419.46 58.20 412.88 54.17 406.01 M 516.96 423.85 C 516.10 427.13 516.80 430.69 516.56 434.08 C 520.70 425.66 524.70 417.02 527.14 407.94 C 523.63 413.16 520.40 418.58 516.96 423.85 M 488.93 458.95 C 488.17 459.82 487.01 460.67 487.20 462.00 C 487.15 468.47 487.17 474.94 487.22 481.41 C 490.82 477.24 493.93 472.68 497.08 468.17 C 498.33 466.75 497.93 464.77 498.02 463.05 C 497.97 458.33 498.05 453.60 497.94 448.88 C 494.97 452.26 492.08 455.72 488.93 458.95 M 85.20 450.80 C 85.21 456.52 85.13 462.25 85.21 467.98 C 85.08 469.29 86.03 470.30 86.71 471.31 C 89.94 475.62 92.95 480.11 96.62 484.08 C 96.54 476.89 96.66 469.71 96.54 462.53 C 92.38 459.00 88.91 454.77 85.20 450.80 M 446.25 495.38 L 445.88 496.10 C 445.70 505.09 445.79 514.09 445.86 523.08 C 453.97 516.89 461.46 509.94 468.63 502.70 C 468.58 494.52 468.54 486.35 468.65 478.19 C 461.40 484.19 453.85 489.83 446.25 495.38 M 115.17 480.05 C 115.23 488.25 115.13 496.46 115.23 504.67 C 122.68 511.35 129.93 518.30 137.97 524.28 C 137.99 515.27 138.07 506.27 137.93 497.26 C 130.01 491.98 122.57 486.02 115.17 480.05 M 404.33 519.42 L 403.88 520.10 C 403.70 530.10 403.80 540.11 403.85 550.11 C 412.11 546.16 420.05 541.58 427.71 536.56 C 427.92 526.72 427.72 516.88 427.81 507.04 C 420.24 511.63 412.41 515.79 404.33 519.42 M 156.66 508.34 C 156.76 518.13 156.15 528.03 156.94 537.74 C 164.62 542.55 172.34 547.41 180.58 551.21 C 180.63 540.89 180.54 530.57 180.63 520.26 C 172.44 516.68 164.61 512.39 156.66 508.34 M 355.23 536.34 C 355.25 547.16 354.96 558.00 355.38 568.82 C 365.37 565.75 375.40 562.75 385.07 558.75 C 385.31 548.33 385.16 537.91 385.14 527.50 C 375.32 530.92 365.39 534.06 355.23 536.34 M 198.68 528.72 C 198.53 539.10 198.58 549.49 198.65 559.88 C 208.52 563.30 218.30 567.27 228.60 569.17 C 228.56 558.63 228.64 548.10 228.56 537.58 C 218.42 535.25 208.49 532.15 198.68 528.72 M 301.19 544.18 C 301.18 555.16 301.20 566.15 301.18 577.13 C 313.07 576.61 324.99 575.48 336.63 572.92 C 336.57 562.20 336.56 551.49 336.64 540.77 C 324.85 542.16 313.06 543.72 301.19 544.18 M 247.08 541.37 C 247.33 552.12 247.10 562.88 247.21 573.64 C 258.96 575.25 270.76 576.87 282.64 576.98 C 282.49 566.23 282.72 555.48 282.51 544.73 C 270.64 544.36 258.86 542.76 247.08 541.37 Z" />
<path fill="#000000" opacity="1.00" d=" M 272.51 64.77 C 306.27 61.24 340.90 65.89 372.38 78.65 C 424.65 99.45 467.57 142.40 488.36 194.68 C 497.36 217.02 502.40 240.95 503.21 265.03 C 504.42 307.37 492.96 350.14 469.70 385.65 C 448.79 418.01 418.78 444.42 383.97 460.95 C 339.60 482.30 287.52 486.91 240.06 473.88 C 185.33 459.21 137.63 420.94 110.95 371.03 C 96.64 344.90 88.70 315.62 86.10 286.04 C 84.00 249.02 91.31 211.35 108.25 178.28 C 126.56 141.98 155.76 111.28 191.07 91.12 C 215.99 76.79 243.93 67.79 272.51 64.77 M 281.30 95.25 C 259.17 96.69 237.31 102.08 217.06 111.12 C 181.53 126.86 151.15 153.90 131.34 187.32 C 115.20 214.35 106.03 245.53 105.08 277.00 C 106.22 304.57 112.77 332.04 125.29 356.69 C 142.43 390.99 170.28 419.78 203.92 438.17 C 247.97 462.56 301.98 468.05 350.03 452.98 C 386.09 441.88 418.54 419.54 442.00 390.01 C 465.71 360.52 480.07 323.76 483.00 286.07 C 483.38 249.38 473.16 212.58 453.29 181.69 C 435.22 153.28 409.38 129.85 379.28 114.75 C 349.20 99.46 314.92 92.93 281.30 95.25 Z" />
<path fill="#000000" opacity="1.00" d=" M 215.55 177.97 C 215.39 169.14 222.62 159.75 231.97 160.25 C 268.65 160.24 305.34 160.24 342.02 160.24 C 351.01 159.84 357.79 168.58 358.33 176.97 C 358.47 200.41 358.22 223.87 358.46 247.31 C 370.42 247.16 380.89 256.04 385.34 266.72 C 387.75 271.44 387.94 276.82 388.26 281.99 C 388.27 304.65 388.24 327.31 388.27 349.96 C 388.08 353.54 390.11 356.88 392.89 359.00 C 396.80 361.89 402.86 360.68 405.64 356.78 C 407.50 354.29 408.41 351.14 408.33 348.04 C 408.26 317.37 408.40 286.68 408.26 256.01 C 406.99 254.30 404.59 254.71 402.76 254.24 C 402.12 252.57 401.33 250.88 401.55 249.05 C 401.65 240.36 401.44 231.66 401.64 222.98 C 402.84 219.41 407.38 218.98 410.30 217.30 C 412.30 206.96 413.24 196.46 414.81 186.05 C 415.39 181.40 419.48 178.55 422.21 175.14 C 424.51 176.61 426.75 178.33 428.11 180.76 C 426.36 182.74 424.26 184.48 422.93 186.79 C 421.99 190.78 421.69 194.90 421.24 198.97 C 420.55 203.58 419.49 208.14 419.24 212.81 C 420.82 212.30 422.35 211.59 424.01 211.33 C 426.92 212.11 427.23 215.39 427.64 217.88 C 429.90 216.70 432.21 215.61 434.63 214.79 C 434.64 216.87 434.61 218.97 434.60 221.06 C 435.17 222.07 436.44 222.85 436.41 224.12 C 436.51 232.27 436.35 240.43 436.48 248.58 C 433.56 248.56 430.65 248.57 427.74 248.49 C 426.65 251.07 425.10 253.47 422.47 254.67 C 422.33 262.95 422.47 271.23 422.39 279.51 C 420.43 279.56 418.48 279.56 416.53 279.59 C 416.42 303.41 416.57 327.22 416.46 351.03 C 415.86 357.33 412.75 363.85 407.06 367.05 C 402.04 370.50 394.95 370.52 389.93 367.06 C 383.94 363.62 381.05 356.61 380.53 350.00 C 380.49 327.00 380.52 304.00 380.52 281.00 C 380.84 271.92 375.78 262.64 367.51 258.63 C 364.75 257.45 361.61 256.37 358.62 257.32 C 358.78 297.50 358.77 337.69 358.63 377.87 C 361.41 378.71 364.68 377.93 367.09 379.85 C 369.99 381.93 372.20 385.29 371.69 389.00 C 372.32 394.33 367.44 399.91 362.02 399.59 C 312.34 399.61 262.66 399.60 212.98 399.60 C 208.73 400.01 204.93 396.79 203.56 392.94 C 202.82 388.69 202.70 383.40 206.46 380.47 C 208.88 378.04 212.47 378.51 215.58 378.21 C 215.50 311.46 215.56 244.71 215.55 177.97 M 240.67 189.37 C 240.83 211.76 240.80 234.16 240.68 256.55 C 254.55 256.78 268.44 256.59 282.31 256.64 C 277.30 245.49 270.55 235.17 265.18 224.18 C 269.07 222.44 273.31 221.57 277.51 220.95 C 279.73 232.83 281.75 244.75 284.10 256.60 C 284.79 256.64 286.19 256.72 286.88 256.76 C 286.10 244.39 282.95 232.29 282.10 219.92 C 286.17 219.78 290.24 219.77 294.30 219.93 C 292.72 232.22 290.28 244.40 289.16 256.75 C 289.86 256.72 291.24 256.67 291.93 256.65 C 294.48 244.82 296.30 232.83 298.61 220.95 C 302.87 221.44 307.00 222.71 311.06 224.06 C 305.56 235.02 298.88 245.41 293.86 256.59 C 306.98 256.64 320.10 256.78 333.21 256.52 C 333.23 237.35 333.21 218.18 333.22 199.00 C 333.22 195.60 333.33 192.19 332.94 188.81 C 320.18 188.62 307.41 188.68 294.65 188.78 C 299.37 199.16 305.44 208.88 310.72 218.99 C 306.81 218.01 302.80 217.23 299.08 215.66 C 296.57 207.61 295.27 199.16 293.32 190.94 C 293.32 189.00 291.37 188.22 289.71 188.77 C 290.35 197.73 293.14 206.44 293.99 215.39 C 290.02 215.49 286.05 215.49 282.08 215.39 C 283.04 206.34 285.76 197.54 286.46 188.46 C 285.67 188.67 284.08 189.10 283.28 189.31 C 281.17 198.06 279.26 206.88 277.38 215.69 C 273.40 216.91 269.42 218.13 265.35 218.97 C 270.83 208.94 276.53 199.01 281.66 188.78 C 269.76 188.61 257.87 188.77 245.98 188.69 C 244.17 188.62 242.41 188.97 240.67 189.37 Z" />
</g>
</svg>
