<?xml version="1.0" encoding="UTF-8" ?>
<!DOCTYPE svg PUBLIC "-//W3C//DTD SVG 1.1//EN" "http://www.w3.org/Graphics/SVG/1.1/DTD/svg11.dtd">
<svg width="120pt" height="120pt" viewBox="0 0 120 120" version="1.1" xmlns="http://www.w3.org/2000/svg">
<g id="#585858ff">
<path fill="#585858" opacity="1.00" d=" M 25.88 10.81 C 38.99 1.71 56.06 -2.00 71.61 2.14 C 86.54 5.64 99.58 15.61 107.50 28.65 C 113.12 37.15 117.78 46.66 118.56 56.96 C 119.00 64.76 119.01 72.77 116.45 80.24 C 110.19 101.11 91.03 117.22 69.45 120.00 L 53.57 120.00 C 35.59 117.41 19.64 105.69 11.01 89.82 C 2.26 76.76 -0.88 60.22 2.64 44.88 C 5.94 31.22 14.28 18.78 25.88 10.81 M 51.33 3.22 C 34.94 5.23 19.78 15.13 11.32 29.31 C 3.80 41.60 1.51 56.90 4.98 70.87 C 8.25 84.48 17.03 96.63 28.83 104.12 C 38.07 110.04 49.11 113.09 60.08 112.69 C 77.11 112.34 93.65 103.37 103.35 89.38 C 112.50 76.54 115.64 59.65 111.72 44.38 C 108.34 30.56 99.25 18.34 87.16 10.89 C 76.57 4.33 63.68 1.60 51.33 3.22 Z" />
<path fill="#585858" opacity="1.00" d=" M 53.42 12.60 C 62.15 11.54 71.19 12.95 79.07 16.88 C 90.02 22.18 98.63 32.04 102.44 43.59 C 105.84 53.84 105.44 65.32 101.27 75.30 C 96.25 87.42 85.77 97.18 73.29 101.25 C 61.91 105.02 49.03 104.04 38.39 98.52 C 25.89 92.15 16.57 79.79 14.18 65.94 C 11.62 52.03 15.95 37.01 25.80 26.81 C 32.94 18.99 42.93 13.91 53.42 12.60 M 40.31 18.32 C 29.55 23.40 21.00 33.06 17.42 44.43 C 14.01 54.84 14.74 66.54 19.43 76.44 C 24.95 88.34 36.10 97.55 48.91 100.45 C 64.31 104.36 81.49 98.87 91.89 86.90 C 100.34 77.47 104.52 64.12 102.22 51.59 C 100.62 35.89 88.85 22.09 74.17 16.75 C 63.28 12.76 50.77 13.27 40.31 18.32 Z" />
<path fill="#585858" opacity="1.00" d=" M 41.28 32.31 C 42.52 28.60 47.18 27.68 50.58 28.53 C 54.33 29.35 56.70 32.61 59.09 35.32 C 61.58 32.44 64.19 28.99 68.24 28.40 C 71.47 27.79 75.71 28.77 76.88 32.22 C 77.74 35.12 75.03 37.02 73.27 38.81 C 77.24 38.54 81.23 38.52 85.20 38.84 C 85.60 43.83 85.72 48.85 85.35 53.84 C 81.53 57.66 82.82 63.14 82.68 68.00 C 82.55 72.73 83.16 77.53 82.16 82.20 C 66.21 82.27 50.22 82.72 34.29 81.95 C 33.83 74.31 34.34 66.64 34.07 58.99 C 34.38 56.45 31.16 55.41 31.31 52.93 C 31.10 48.32 31.22 43.69 31.41 39.07 C 35.82 38.31 40.32 38.60 44.78 38.80 C 43.18 36.96 40.48 35.12 41.28 32.31 M 43.15 32.28 C 42.90 33.55 43.09 34.99 44.29 35.72 C 48.23 38.72 53.55 38.45 58.24 38.27 C 56.66 35.22 54.68 32.02 51.33 30.71 C 48.64 29.70 45.00 29.77 43.15 32.28 M 60.12 38.29 C 65.07 38.35 71.33 38.88 74.85 34.68 C 76.30 32.13 73.23 30.07 70.94 30.14 C 65.83 29.56 61.84 33.92 60.12 38.29 M 33.22 40.43 C 33.06 45.00 33.09 49.57 33.18 54.15 C 39.40 54.33 45.63 54.32 51.86 54.15 C 51.94 49.58 51.96 45.01 51.80 40.44 C 45.61 40.48 39.42 40.44 33.22 40.43 M 54.03 40.48 C 53.60 45.03 53.71 49.60 53.86 54.17 C 57.26 54.30 60.66 54.30 64.05 54.16 C 64.18 49.60 64.26 45.03 63.89 40.47 C 60.60 40.45 57.31 40.46 54.03 40.48 M 66.14 40.44 C 65.78 45.00 65.81 49.59 66.02 54.16 C 71.90 54.29 77.78 54.41 83.65 54.05 C 83.69 49.52 83.71 44.98 83.61 40.45 C 77.78 40.42 71.96 40.48 66.14 40.44 M 36.03 56.32 C 35.77 64.39 35.68 72.48 36.09 80.55 C 41.33 80.52 46.57 80.52 51.81 80.54 C 51.96 72.47 51.91 64.39 51.84 56.32 C 46.57 56.29 41.30 56.29 36.03 56.32 M 53.95 56.32 C 53.68 64.39 53.57 72.48 54.01 80.54 C 57.31 80.56 60.61 80.56 63.91 80.55 C 64.28 72.48 64.22 64.39 63.94 56.32 C 60.61 56.27 57.28 56.28 53.95 56.32 M 66.09 56.33 C 65.80 64.39 65.74 72.48 66.13 80.54 C 71.02 80.53 75.91 80.53 80.80 80.54 C 80.93 72.47 80.91 64.39 80.81 56.32 C 75.91 56.28 71.00 56.28 66.09 56.33 Z" />
</g>
<g id="#efefefff">
<path fill="#efefef" opacity="1.00" d=" M 51.33 3.22 C 63.68 1.60 76.57 4.33 87.16 10.89 C 99.25 18.34 108.34 30.56 111.72 44.38 C 115.64 59.65 112.50 76.54 103.35 89.38 C 93.65 103.37 77.11 112.34 60.08 112.69 C 49.11 113.09 38.07 110.04 28.83 104.12 C 17.03 96.63 8.25 84.48 4.98 70.87 C 1.51 56.90 3.80 41.60 11.32 29.31 C 19.78 15.13 34.94 5.23 51.33 3.22 M 53.42 12.60 C 42.93 13.91 32.94 18.99 25.80 26.81 C 15.95 37.01 11.62 52.03 14.18 65.94 C 16.57 79.79 25.89 92.15 38.39 98.52 C 49.03 104.04 61.91 105.02 73.29 101.25 C 85.77 97.18 96.25 87.42 101.27 75.30 C 105.44 65.32 105.84 53.84 102.44 43.59 C 98.63 32.04 90.02 22.18 79.07 16.88 C 71.19 12.95 62.15 11.54 53.42 12.60 Z" />
<path fill="#efefef" opacity="1.00" d=" M 40.31 18.32 C 50.77 13.27 63.28 12.76 74.17 16.75 C 88.85 22.09 100.62 35.89 102.22 51.59 C 99.42 59.12 97.29 67.04 92.75 73.78 C 83.22 88.71 66.52 98.80 48.91 100.45 C 36.10 97.55 24.95 88.34 19.43 76.44 C 14.74 66.54 14.01 54.84 17.42 44.43 C 21.00 33.06 29.55 23.40 40.31 18.32 M 41.28 32.31 C 40.48 35.12 43.18 36.96 44.78 38.80 C 40.32 38.60 35.82 38.31 31.41 39.07 C 31.22 43.69 31.10 48.32 31.31 52.93 C 31.16 55.41 34.38 56.45 34.07 58.99 C 34.34 66.64 33.83 74.31 34.29 81.95 C 50.22 82.72 66.21 82.27 82.16 82.20 C 83.16 77.53 82.55 72.73 82.68 68.00 C 82.82 63.14 81.53 57.66 85.35 53.84 C 85.72 48.85 85.60 43.83 85.20 38.84 C 81.23 38.52 77.24 38.54 73.27 38.81 C 75.03 37.02 77.74 35.12 76.88 32.22 C 75.71 28.77 71.47 27.79 68.24 28.40 C 64.19 28.99 61.58 32.44 59.09 35.32 C 56.70 32.61 54.33 29.35 50.58 28.53 C 47.18 27.68 42.52 28.60 41.28 32.31 Z" />
<path fill="#efefef" opacity="1.00" d=" M 43.15 32.28 C 45.00 29.77 48.64 29.70 51.33 30.71 C 54.68 32.02 56.66 35.22 58.24 38.27 C 53.55 38.45 48.23 38.72 44.29 35.72 C 43.09 34.99 42.90 33.55 43.15 32.28 Z" />
<path fill="#efefef" opacity="1.00" d=" M 60.12 38.29 C 61.84 33.92 65.83 29.56 70.94 30.14 C 73.23 30.07 76.30 32.13 74.85 34.68 C 71.33 38.88 65.07 38.35 60.12 38.29 Z" />
<path fill="#efefef" opacity="1.00" d=" M 33.22 40.43 C 39.42 40.44 45.61 40.48 51.80 40.44 C 51.96 45.01 51.94 49.58 51.86 54.15 C 45.63 54.32 39.40 54.33 33.18 54.15 C 33.09 49.57 33.06 45.00 33.22 40.43 Z" />
<path fill="#efefef" opacity="1.00" d=" M 54.03 40.48 C 57.31 40.46 60.60 40.45 63.89 40.47 C 64.26 45.03 64.18 49.60 64.05 54.16 C 60.66 54.30 57.26 54.30 53.86 54.17 C 53.71 49.60 53.60 45.03 54.03 40.48 Z" />
<path fill="#efefef" opacity="1.00" d=" M 66.14 40.44 C 71.96 40.48 77.78 40.42 83.61 40.45 C 83.71 44.98 83.69 49.52 83.65 54.05 C 77.78 54.41 71.90 54.29 66.02 54.16 C 65.81 49.59 65.78 45.00 66.14 40.44 Z" />
<path fill="#efefef" opacity="1.00" d=" M 36.03 56.32 C 41.30 56.29 46.57 56.29 51.84 56.32 C 51.91 64.39 51.96 72.47 51.81 80.54 C 46.57 80.52 41.33 80.52 36.09 80.55 C 35.68 72.48 35.77 64.39 36.03 56.32 Z" />
<path fill="#efefef" opacity="1.00" d=" M 53.95 56.32 C 57.28 56.28 60.61 56.27 63.94 56.32 C 64.22 64.39 64.28 72.48 63.91 80.55 C 60.61 80.56 57.31 80.56 54.01 80.54 C 53.57 72.48 53.68 64.39 53.95 56.32 Z" />
<path fill="#efefef" opacity="1.00" d=" M 66.09 56.33 C 71.00 56.28 75.91 56.28 80.81 56.32 C 80.91 64.39 80.93 72.47 80.80 80.54 C 75.91 80.53 71.02 80.53 66.13 80.54 C 65.74 72.48 65.80 64.39 66.09 56.33 Z" />
</g>
<g id="#d1d1d1ff">
<path fill="#d1d1d1" opacity="1.00" d=" M 92.75 73.78 C 97.29 67.04 99.42 59.12 102.22 51.59 C 104.52 64.12 100.34 77.47 91.89 86.90 C 81.49 98.87 64.31 104.36 48.91 100.45 C 66.52 98.80 83.22 88.71 92.75 73.78 Z" />
</g>
</svg>
