<?xml version="1.0" encoding="UTF-8" ?>
<!DOCTYPE svg PUBLIC "-//W3C//DTD SVG 1.1//EN" "http://www.w3.org/Graphics/SVG/1.1/DTD/svg11.dtd">
<svg width="256pt" height="256pt" viewBox="0 0 256 256" version="1.1" xmlns="http://www.w3.org/2000/svg">
<g id="#ff5700ff">
<path fill="#ff5700" opacity="1.00" d=" M 120.55 0.00 L 135.43 0.00 C 155.44 1.63 175.24 7.19 192.55 17.49 C 214.14 30.29 232.03 49.37 243.06 71.95 C 250.62 87.08 254.53 103.76 256.00 120.55 L 256.00 135.44 C 254.38 155.20 248.94 174.77 238.87 191.93 C 226.70 212.74 208.70 230.13 187.37 241.39 C 171.36 249.95 153.47 254.46 135.45 256.00 L 120.56 256.00 C 100.80 254.37 81.23 248.95 64.07 238.88 C 42.41 226.20 24.43 207.21 13.26 184.72 C 5.52 169.40 1.48 152.48 0.00 135.45 L 0.00 120.57 C 0.94 113.20 1.57 105.78 3.44 98.57 C 10.33 68.58 28.81 41.61 53.84 23.82 C 73.16 9.59 96.74 1.89 120.55 0.00 M 117.83 49.81 C 94.41 90.40 71.03 131.02 47.60 171.60 C 46.98 172.73 46.44 173.89 45.93 175.07 C 60.42 167.41 74.37 158.72 88.70 150.74 C 90.94 149.38 93.68 148.36 94.88 145.84 C 103.96 129.97 113.06 114.09 122.15 98.23 C 123.32 96.37 122.96 94.08 123.05 92.00 C 122.88 75.20 123.24 58.39 122.87 41.60 C 120.87 44.13 119.42 47.02 117.83 49.81 M 132.18 41.62 C 131.84 59.09 132.15 76.58 132.02 94.06 C 131.70 97.07 133.76 99.47 135.11 101.94 C 143.73 116.67 152.29 131.43 160.85 146.20 C 162.03 148.35 164.44 149.29 166.43 150.53 C 180.80 158.56 194.79 167.28 209.31 175.03 C 208.78 173.79 208.23 172.58 207.59 171.40 C 184.38 131.27 161.19 91.14 137.98 51.01 C 136.12 47.84 134.50 44.50 132.18 41.62 M 92.30 159.25 C 78.47 167.53 64.25 175.20 50.65 183.85 C 73.09 184.19 95.55 183.89 118.00 183.99 C 147.11 183.89 176.24 184.19 205.35 183.84 C 202.24 181.43 198.66 179.74 195.31 177.70 C 183.55 170.81 171.74 163.98 159.99 157.07 C 158.52 156.10 156.80 155.62 155.04 155.73 C 137.02 155.76 118.99 155.76 100.97 155.73 C 97.64 155.42 95.05 157.79 92.30 159.25 Z" />
</g>
<g id="#ffffffff">
<path fill="#ffffff" opacity="1.00" d=" M 117.83 49.81 C 119.42 47.02 120.87 44.13 122.87 41.60 C 123.24 58.39 122.88 75.20 123.05 92.00 C 122.96 94.08 123.32 96.37 122.15 98.23 C 113.06 114.09 103.96 129.97 94.88 145.84 C 93.68 148.36 90.94 149.38 88.70 150.74 C 74.37 158.72 60.42 167.41 45.93 175.07 C 46.44 173.89 46.98 172.73 47.60 171.60 C 71.03 131.02 94.41 90.40 117.83 49.81 Z" />
<path fill="#ffffff" opacity="1.00" d=" M 132.18 41.62 C 134.50 44.50 136.12 47.84 137.98 51.01 C 161.19 91.14 184.38 131.27 207.59 171.40 C 208.23 172.58 208.78 173.79 209.31 175.03 C 194.79 167.28 180.80 158.56 166.43 150.53 C 164.44 149.29 162.03 148.35 160.85 146.20 C 152.29 131.43 143.73 116.67 135.11 101.94 C 133.76 99.47 131.70 97.07 132.02 94.06 C 132.15 76.58 131.84 59.09 132.18 41.62 Z" />
<path fill="#ffffff" opacity="1.00" d=" M 92.30 159.25 C 95.05 157.79 97.64 155.42 100.97 155.73 C 118.99 155.76 137.02 155.76 155.04 155.73 C 156.80 155.62 158.52 156.10 159.99 157.07 C 171.74 163.98 183.55 170.81 195.31 177.70 C 198.66 179.74 202.24 181.43 205.35 183.84 C 176.24 184.19 147.11 183.89 118.00 183.99 C 95.55 183.89 73.09 184.19 50.65 183.85 C 64.25 175.20 78.47 167.53 92.30 159.25 Z" />
</g>
</svg>
