<?xml version="1.0" encoding="UTF-8" ?>
<!DOCTYPE svg PUBLIC "-//W3C//DTD SVG 1.1//EN" "http://www.w3.org/Graphics/SVG/1.1/DTD/svg11.dtd">
<svg width="300pt" height="300pt" viewBox="0 0 300 300" version="1.1" xmlns="http://www.w3.org/2000/svg">
<g id="#fefefeff">
<path fill="#fefefe" opacity="1.00" d=" M 0.00 0.00 L 142.54 0.00 C 117.70 1.58 93.15 8.79 71.93 21.90 C 46.97 37.13 26.59 59.77 14.20 86.27 C 5.78 103.85 1.36 123.14 0.00 142.53 L 0.00 0.00 Z" />
<path fill="#fefefe" opacity="1.00" d=" M 157.46 0.00 L 300.00 0.00 L 300.00 142.56 C 298.88 128.83 296.69 115.12 292.13 102.08 C 281.26 69.40 258.55 40.87 229.33 22.69 C 207.82 9.10 182.79 1.62 157.46 0.00 Z" />
<path fill="#fefefe" opacity="1.00" d=" M 176.36 87.37 C 182.08 80.90 190.04 75.66 199.00 76.11 C 206.65 75.70 213.95 79.38 219.19 84.78 C 213.53 88.52 209.66 94.24 204.28 98.31 C 202.35 97.46 199.90 96.59 198.03 98.07 C 190.47 104.78 184.09 112.81 176.31 119.26 C 176.35 108.63 176.27 98.00 176.36 87.37 Z" />
<path fill="#fefefe" opacity="1.00" d=" M 148.38 115.39 C 155.16 109.11 161.35 102.23 168.10 95.92 C 168.45 105.96 168.19 116.01 168.25 126.05 C 168.49 127.78 167.04 128.91 166.01 130.04 C 160.05 136.00 154.14 142.00 148.20 147.98 C 148.37 137.11 148.02 126.24 148.38 115.39 Z" />
<path fill="#fefefe" opacity="1.00" d=" M 121.45 142.50 C 127.87 136.76 133.38 130.05 139.99 124.51 C 139.90 134.68 139.93 144.85 139.93 155.01 C 140.12 156.37 138.87 157.22 138.10 158.11 C 132.42 163.65 126.94 169.38 121.29 174.95 C 121.54 164.14 121.24 153.32 121.45 142.50 Z" />
<path fill="#fefefe" opacity="1.00" d=" M 99.16 165.15 C 103.95 160.69 108.14 155.57 113.29 151.52 C 113.46 161.97 113.56 172.46 113.26 182.90 C 107.91 188.86 102.15 194.49 96.32 199.98 C 96.61 189.72 96.33 179.45 96.45 169.19 C 96.34 167.37 98.14 166.38 99.16 165.15 Z" />
<path fill="#fefefe" opacity="1.00" d=" M 0.00 155.48 C 0.93 175.33 5.45 195.06 13.90 213.07 C 28.42 244.55 54.24 270.67 85.60 285.46 C 103.37 294.09 122.90 298.60 142.54 300.00 L 0.00 300.00 L 0.00 155.48 Z" />
<path fill="#fefefe" opacity="1.00" d=" M 285.77 213.73 C 294.20 196.15 298.62 176.86 300.00 157.47 L 300.00 300.00 L 157.44 300.00 C 177.34 298.58 197.12 293.96 215.07 285.13 C 245.90 270.39 271.30 244.69 285.77 213.73 Z" />
</g>
<g id="#3a3434ff">
<path fill="#3a3434" opacity="1.00" d=" M 142.54 0.00 L 157.46 0.00 C 182.79 1.62 207.82 9.10 229.33 22.69 C 258.55 40.87 281.26 69.40 292.13 102.08 C 296.69 115.12 298.88 128.83 300.00 142.56 L 300.00 157.47 C 298.62 176.86 294.20 196.15 285.77 213.73 C 271.30 244.69 245.90 270.39 215.07 285.13 C 197.12 293.96 177.34 298.58 157.44 300.00 L 142.54 300.00 C 122.90 298.60 103.37 294.09 85.60 285.46 C 54.24 270.67 28.42 244.55 13.90 213.07 C 5.45 195.06 0.93 175.33 0.00 155.48 L 0.00 142.53 C 1.36 123.14 5.78 103.85 14.20 86.27 C 26.59 59.77 46.97 37.13 71.93 21.90 C 93.15 8.79 117.70 1.58 142.54 0.00 M 141.36 13.45 C 96.14 15.81 53.37 42.88 31.27 82.31 C 8.78 121.07 7.48 171.18 27.94 211.05 C 43.86 243.24 73.13 268.33 107.17 279.64 C 125.83 285.53 145.72 287.92 165.19 285.56 C 195.97 282.42 225.32 267.99 247.06 246.05 C 268.89 224.20 282.88 194.73 286.03 164.01 C 287.97 143.87 285.87 123.21 278.93 104.15 C 268.48 74.48 247.35 48.76 220.36 32.62 C 196.81 18.30 168.85 11.65 141.36 13.45 Z" />
<path fill="#3a3434" opacity="1.00" d=" M 173.47 76.50 C 180.24 70.02 189.56 65.99 199.00 66.22 C 210.34 65.95 221.49 71.60 228.35 80.58 C 235.69 90.06 238.18 103.14 234.56 114.61 C 232.80 120.49 229.53 125.87 225.21 130.22 C 197.57 158.24 169.76 186.10 142.08 214.09 C 140.86 215.16 139.70 216.73 137.89 216.66 C 123.91 216.81 109.91 216.63 95.93 216.72 C 94.71 216.65 93.72 217.08 92.93 218.00 C 87.56 223.34 82.44 228.96 76.87 234.11 C 72.38 234.71 67.79 234.31 63.27 234.23 C 64.01 233.00 64.88 231.86 65.92 230.87 C 72.14 224.77 78.18 218.50 84.40 212.40 C 85.29 211.34 86.75 210.41 86.65 208.86 C 86.73 194.56 86.59 180.25 86.72 165.95 C 86.58 164.25 87.76 162.98 88.82 161.83 C 116.99 133.34 145.25 104.94 173.47 76.50 M 176.36 87.37 C 176.27 98.00 176.35 108.63 176.31 119.26 C 184.09 112.81 190.47 104.78 198.03 98.07 C 199.90 96.59 202.35 97.46 204.28 98.31 C 205.69 100.42 206.59 103.51 204.54 105.55 C 197.85 112.78 190.43 119.34 183.92 126.73 C 193.29 126.68 202.66 126.67 212.03 126.73 C 213.32 126.62 214.91 126.98 215.90 125.89 C 220.76 121.41 224.87 115.69 226.01 109.05 C 227.93 100.47 225.09 91.21 219.19 84.78 C 213.95 79.38 206.65 75.70 199.00 76.11 C 190.04 75.66 182.08 80.90 176.36 87.37 M 148.38 115.39 C 148.02 126.24 148.37 137.11 148.20 147.98 C 154.14 142.00 160.05 136.00 166.01 130.04 C 167.04 128.91 168.49 127.78 168.25 126.05 C 168.19 116.01 168.45 105.96 168.10 95.92 C 161.35 102.23 155.16 109.11 148.38 115.39 M 121.45 142.50 C 121.24 153.32 121.54 164.14 121.29 174.95 C 126.94 169.38 132.42 163.65 138.10 158.11 C 138.87 157.22 140.12 156.37 139.93 155.01 C 139.93 144.85 139.90 134.68 139.99 124.51 C 133.38 130.05 127.87 136.76 121.45 142.50 M 174.12 136.14 C 168.08 142.45 161.57 148.32 155.83 154.90 C 165.56 154.87 175.29 154.89 185.02 154.90 C 187.48 155.29 188.81 152.82 190.43 151.43 C 195.66 145.82 201.54 140.80 206.41 134.88 C 197.61 134.58 188.80 134.87 179.99 134.72 C 177.99 134.82 175.52 134.28 174.12 136.14 M 99.16 165.15 C 98.14 166.38 96.34 167.37 96.45 169.19 C 96.33 179.45 96.61 189.72 96.32 199.98 C 102.15 194.49 107.91 188.86 113.26 182.90 C 113.56 172.46 113.46 161.97 113.29 151.52 C 108.14 155.57 103.95 160.69 99.16 165.15 M 147.25 163.25 C 141.16 169.42 135.01 175.52 128.99 181.76 C 139.53 181.59 150.08 181.86 160.63 181.61 C 166.33 175.32 172.80 169.73 178.27 163.24 C 167.93 163.21 157.59 163.28 147.25 163.25 M 119.38 191.42 C 114.28 196.57 109.19 201.72 104.05 206.82 C 114.59 206.71 125.13 206.88 135.66 206.73 C 140.98 201.05 146.65 195.71 152.02 190.08 C 143.35 189.69 134.67 190.02 126.00 189.88 C 123.74 190.02 120.97 189.37 119.38 191.42 Z" />
</g>
<g id="#ece7e4ff">
<path fill="#ece7e4" opacity="1.00" d=" M 141.36 13.45 C 168.85 11.65 196.81 18.30 220.36 32.62 C 247.35 48.76 268.48 74.48 278.93 104.15 C 285.87 123.21 287.97 143.87 286.03 164.01 C 282.88 194.73 268.89 224.20 247.06 246.05 C 225.32 267.99 195.97 282.42 165.19 285.56 C 145.72 287.92 125.83 285.53 107.17 279.64 C 73.13 268.33 43.86 243.24 27.94 211.05 C 7.48 171.18 8.78 121.07 31.27 82.31 C 53.37 42.88 96.14 15.81 141.36 13.45 M 173.47 76.50 C 145.25 104.94 116.99 133.34 88.82 161.83 C 87.76 162.98 86.58 164.25 86.72 165.95 C 86.59 180.25 86.73 194.56 86.65 208.86 C 86.75 210.41 85.29 211.34 84.40 212.40 C 78.18 218.50 72.14 224.77 65.92 230.87 C 64.88 231.86 64.01 233.00 63.27 234.23 C 67.79 234.31 72.38 234.71 76.87 234.11 C 82.44 228.96 87.56 223.34 92.93 218.00 C 93.72 217.08 94.71 216.65 95.93 216.72 C 109.91 216.63 123.91 216.81 137.89 216.66 C 139.70 216.73 140.86 215.16 142.08 214.09 C 169.76 186.10 197.57 158.24 225.21 130.22 C 229.53 125.87 232.80 120.49 234.56 114.61 C 238.18 103.14 235.69 90.06 228.35 80.58 C 221.49 71.60 210.34 65.95 199.00 66.22 C 189.56 65.99 180.24 70.02 173.47 76.50 Z" />
<path fill="#ece7e4" opacity="1.00" d=" M 219.19 84.78 C 225.09 91.21 227.93 100.47 226.01 109.05 C 224.87 115.69 220.76 121.41 215.90 125.89 C 214.91 126.98 213.32 126.62 212.03 126.73 C 202.66 126.67 193.29 126.68 183.92 126.73 C 190.43 119.34 197.85 112.78 204.54 105.55 C 206.59 103.51 205.69 100.42 204.28 98.31 C 209.66 94.24 213.53 88.52 219.19 84.78 Z" />
<path fill="#ece7e4" opacity="1.00" d=" M 174.12 136.14 C 175.52 134.28 177.99 134.82 179.99 134.72 C 188.80 134.87 197.61 134.58 206.41 134.88 C 201.54 140.80 195.66 145.82 190.43 151.43 C 188.81 152.82 187.48 155.29 185.02 154.90 C 175.29 154.89 165.56 154.87 155.83 154.90 C 161.57 148.32 168.08 142.45 174.12 136.14 Z" />
<path fill="#ece7e4" opacity="1.00" d=" M 147.25 163.25 C 157.59 163.28 167.93 163.21 178.27 163.24 C 172.80 169.73 166.33 175.32 160.63 181.61 C 150.08 181.86 139.53 181.59 128.99 181.76 C 135.01 175.52 141.16 169.42 147.25 163.25 Z" />
<path fill="#ece7e4" opacity="1.00" d=" M 119.38 191.42 C 120.97 189.37 123.74 190.02 126.00 189.88 C 134.67 190.02 143.35 189.69 152.02 190.08 C 146.65 195.71 140.98 201.05 135.66 206.73 C 125.13 206.88 114.59 206.71 104.05 206.82 C 109.19 201.72 114.28 196.57 119.38 191.42 Z" />
</g>
</svg>
