<?xml version="1.0" encoding="UTF-8" ?>
<!DOCTYPE svg PUBLIC "-//W3C//DTD SVG 1.1//EN" "http://www.w3.org/Graphics/SVG/1.1/DTD/svg11.dtd">
<svg width="256pt" height="256pt" viewBox="0 0 256 256" version="1.1" xmlns="http://www.w3.org/2000/svg">
<g id="#fffffeff">
<path fill="#fffffe" opacity="1.00" d=" M 112.28 0.00 L 121.57 0.00 C 118.38 0.62 115.14 0.89 111.90 0.81 L 112.28 0.00 Z" />
<path fill="#fffffe" opacity="1.00" d=" M 135.44 0.00 L 143.65 0.00 L 144.20 0.86 C 141.25 0.89 138.32 0.61 135.44 0.00 Z" />
<path fill="#fffffe" opacity="1.00" d=" M 146.93 0.92 C 148.39 0.47 149.97 0.76 151.02 1.91 C 149.58 2.61 147.82 2.33 146.93 0.92 Z" />
<path fill="#fffffe" opacity="1.00" d=" M 165.02 4.94 C 165.56 5.18 166.64 5.66 167.17 5.89 C 166.64 5.66 165.56 5.18 165.02 4.94 Z" />
<path fill="#fffffe" opacity="1.00" d=" M 41.22 26.21 C 41.85 26.85 41.85 26.85 41.22 26.21 Z" />
<path fill="#fffffe" opacity="1.00" d=" M 41.66 32.82 C 43.06 31.09 44.86 29.75 46.72 28.55 C 45.77 30.73 43.84 32.05 41.66 32.82 Z" />
<path fill="#fffffe" opacity="1.00" d=" M 221.88 40.84 C 223.15 40.95 223.92 41.65 224.19 42.94 C 222.64 43.01 221.87 42.31 221.88 40.84 Z" />
<path fill="#fffffe" opacity="1.00" d=" M 107.82 52.78 C 131.79 50.60 156.83 51.23 179.40 60.46 C 184.56 62.53 189.78 64.57 194.58 67.40 C 194.72 99.13 194.72 130.89 194.57 162.62 C 176.56 175.98 157.94 188.56 139.80 201.78 C 135.83 204.37 132.27 207.62 128.03 209.78 C 124.08 207.58 120.65 204.57 116.88 202.10 C 98.59 188.67 79.81 175.91 61.52 162.51 C 61.46 130.84 61.43 99.16 61.51 67.49 C 75.94 59.91 91.58 54.59 107.82 52.78 M 91.32 89.32 C 91.23 89.99 91.07 91.32 90.99 91.98 C 91.18 111.65 90.67 131.33 91.01 151.00 C 90.89 152.72 92.66 153.36 93.77 154.24 C 98.58 157.37 102.99 161.13 108.01 163.91 C 108.57 155.66 107.96 147.38 108.27 139.12 C 110.36 138.20 112.78 138.80 115.00 138.64 C 125.95 138.89 136.97 138.23 147.87 138.96 C 148.43 147.27 147.85 155.61 148.14 163.93 C 153.23 161.30 157.57 157.46 162.43 154.44 C 163.61 153.42 165.75 152.71 165.61 150.83 C 165.56 130.35 165.61 109.87 165.58 89.40 C 157.47 87.61 149.27 86.13 141.04 84.93 C 133.73 84.26 126.36 84.46 119.03 84.65 C 109.68 85.41 100.51 87.56 91.32 89.32 Z" />
<path fill="#fffffe" opacity="1.00" d=" M 5.23 89.04 C 6.60 89.83 6.49 90.42 4.88 90.80 C 4.97 90.36 5.14 89.48 5.23 89.04 Z" />
<path fill="#fffffe" opacity="1.00" d=" M 108.63 102.65 C 121.53 100.36 134.74 100.89 147.70 102.47 C 148.41 108.49 148.28 114.64 147.75 120.68 C 134.60 120.65 121.45 120.67 108.31 120.67 C 108.34 114.69 107.68 108.52 108.63 102.65 Z" />
<path fill="#fffffe" opacity="1.00" d=" M 0.94 109.05 C 0.58 107.65 0.57 106.08 1.60 104.96 C 2.60 106.28 2.35 108.14 0.94 109.05 Z" />
<path fill="#fffffe" opacity="1.00" d=" M 0.00 112.33 L 0.86 111.82 C 0.89 114.76 0.62 117.69 0.00 120.56 L 0.00 112.33 Z" />
<path fill="#fffffe" opacity="1.00" d=" M 255.41 112.95 L 256.00 113.18 L 256.00 120.04 C 254.30 118.04 254.33 115.24 255.41 112.95 Z" />
<path fill="#fffffe" opacity="1.00" d=" M 0.00 135.42 C 0.62 138.30 0.88 141.25 0.84 144.20 L 0.00 143.61 L 0.00 135.42 Z" />
<path fill="#fffffe" opacity="1.00" d=" M 255.39 143.07 C 254.36 140.77 254.30 137.98 256.00 135.98 L 256.00 142.90 L 255.39 143.07 Z" />
<path fill="#fffffe" opacity="1.00" d=" M 0.93 146.92 C 2.26 147.91 2.57 149.70 1.75 151.14 C 0.60 150.02 0.55 148.38 0.93 146.92 Z" />
<path fill="#fffffe" opacity="1.00" d=" M 5.01 165.02 C 5.27 165.38 5.78 166.10 6.03 166.46 L 5.71 167.30 C 5.54 166.73 5.18 165.59 5.01 165.02 Z" />
<path fill="#fffffe" opacity="1.00" d=" M 7.25 171.30 C 7.31 171.44 7.42 171.73 7.47 171.88 C 7.42 171.73 7.31 171.44 7.25 171.30 Z" />
<path fill="#fffffe" opacity="1.00" d=" M 248.45 172.04 C 248.52 171.86 248.67 171.50 248.74 171.33 C 248.67 171.50 248.52 171.86 248.45 172.04 Z" />
<path fill="#fffffe" opacity="1.00" d=" M 8.03 173.54 C 10.41 178.40 13.07 183.17 14.72 188.33 C 13.55 186.59 12.36 184.85 10.67 183.57 C 11.71 179.93 7.52 177.29 8.03 173.54 Z" />
<path fill="#fffffe" opacity="1.00" d=" M 247.40 174.74 C 247.48 174.54 247.65 174.15 247.73 173.95 C 247.65 174.15 247.48 174.54 247.40 174.74 Z" />
<path fill="#fffffe" opacity="1.00" d=" M 246.44 177.25 C 246.61 176.79 246.94 175.86 247.11 175.40 C 248.20 176.58 247.98 177.20 246.44 177.25 Z" />
<path fill="#fffffe" opacity="1.00" d=" M 243.46 183.89 C 243.55 183.73 243.71 183.41 243.79 183.25 C 243.71 183.41 243.55 183.73 243.46 183.89 Z" />
<path fill="#fffffe" opacity="1.00" d=" M 245.19 183.19 C 245.84 183.85 245.84 183.85 245.19 183.19 Z" />
<path fill="#fffffe" opacity="1.00" d=" M 230.36 205.40 C 230.35 204.11 230.92 203.16 232.05 202.56 C 233.70 203.83 231.77 205.33 230.36 205.40 Z" />
<path fill="#fffffe" opacity="1.00" d=" M 37.05 218.50 C 37.17 218.62 37.41 218.87 37.53 218.99 C 37.41 218.87 37.17 218.62 37.05 218.50 Z" />
<path fill="#fffffe" opacity="1.00" d=" M 218.37 218.95 C 218.49 218.83 218.73 218.60 218.85 218.49 C 218.73 218.60 218.49 218.83 218.37 218.95 Z" />
<path fill="#fffffe" opacity="1.00" d=" M 216.39 221.02 C 216.54 220.86 216.86 220.54 217.01 220.39 C 216.86 220.54 216.54 220.86 216.39 221.02 Z" />
<path fill="#fffffe" opacity="1.00" d=" M 214.42 222.87 C 214.55 222.75 214.81 222.51 214.94 222.39 C 214.81 222.51 214.55 222.75 214.42 222.87 Z" />
<path fill="#fffffe" opacity="1.00" d=" M 60.77 237.85 C 61.58 236.27 63.64 237.43 63.19 238.98 C 62.58 238.70 61.37 238.13 60.77 237.85 Z" />
<path fill="#fffffe" opacity="1.00" d=" M 187.28 241.74 C 187.43 241.67 187.73 241.52 187.88 241.45 C 187.73 241.52 187.43 241.67 187.28 241.74 Z" />
<path fill="#fffffe" opacity="1.00" d=" M 179.14 245.64 C 179.31 245.58 179.65 245.44 179.82 245.37 C 179.65 245.44 179.31 245.58 179.14 245.64 Z" />
<path fill="#fffffe" opacity="1.00" d=" M 175.49 247.10 C 175.94 246.90 176.85 246.49 177.31 246.28 C 177.27 247.88 176.67 248.15 175.49 247.10 Z" />
<path fill="#fffffe" opacity="1.00" d=" M 81.30 247.68 C 81.49 247.72 81.86 247.80 82.04 247.83 C 81.86 247.80 81.49 247.72 81.30 247.68 Z" />
<path fill="#fffffe" opacity="1.00" d=" M 173.93 247.71 C 174.11 247.64 174.48 247.50 174.66 247.43 C 174.48 247.50 174.11 247.64 173.93 247.71 Z" />
<path fill="#fffffe" opacity="1.00" d=" M 84.04 248.45 C 84.21 248.52 84.55 248.65 84.71 248.71 C 84.55 248.65 84.21 248.52 84.04 248.45 Z" />
<path fill="#fffffe" opacity="1.00" d=" M 171.29 248.72 C 171.46 248.65 171.79 248.52 171.96 248.45 C 171.79 248.52 171.46 248.65 171.29 248.72 Z" />
<path fill="#fffffe" opacity="1.00" d=" M 90.07 250.54 C 90.23 250.60 90.56 250.71 90.72 250.76 C 90.56 250.71 90.23 250.60 90.07 250.54 Z" />
<path fill="#fffffe" opacity="1.00" d=" M 165.23 250.72 C 165.35 250.69 165.60 250.62 165.72 250.59 L 165.23 250.72 Z" />
<path fill="#fffffe" opacity="1.00" d=" M 105.87 254.16 C 107.17 253.55 108.23 253.84 109.06 255.02 C 107.73 255.55 106.66 255.26 105.87 254.16 Z" />
<path fill="#fffffe" opacity="1.00" d=" M 146.93 255.06 C 147.74 253.89 148.80 253.59 150.10 254.17 C 149.32 255.30 148.26 255.60 146.93 255.06 Z" />
<path fill="#fffffe" opacity="1.00" d=" M 112.90 255.38 C 115.21 254.38 118.00 254.30 120.02 256.00 L 113.09 256.00 L 112.90 255.38 Z" />
<path fill="#fffffe" opacity="1.00" d=" M 135.96 256.00 C 137.99 254.32 140.79 254.35 143.10 255.40 L 142.86 256.00 L 135.96 256.00 Z" />
</g>
<g id="#6e1ac4ff">
<path fill="#6e1ac4" opacity="1.00" d=" M 121.57 0.00 L 135.44 0.00 C 138.32 0.61 141.25 0.89 144.20 0.86 C 144.88 0.87 146.25 0.91 146.93 0.92 C 147.82 2.33 149.58 2.61 151.02 1.91 C 155.82 2.13 160.52 3.31 165.02 4.94 C 165.56 5.18 166.64 5.66 167.17 5.89 C 175.33 7.24 182.75 11.03 189.83 15.14 C 192.89 16.65 196.00 18.09 198.58 20.38 C 206.61 25.73 214.06 31.91 220.72 38.89 C 221.00 38.47 221.54 37.63 221.82 37.21 C 221.81 38.42 221.83 39.63 221.88 40.84 C 221.87 42.31 222.64 43.01 224.19 42.94 C 225.42 44.68 227.02 46.07 228.86 47.14 C 230.99 50.92 233.75 54.31 236.02 58.03 C 238.54 60.43 239.22 63.95 241.37 66.61 C 242.54 68.05 242.85 69.91 243.55 71.58 C 244.06 71.76 245.08 72.13 245.59 72.31 C 245.46 72.77 245.20 73.67 245.07 74.13 C 249.98 86.56 254.43 99.51 255.41 112.95 C 254.33 115.24 254.30 118.04 256.00 120.04 L 256.00 135.98 C 254.30 137.98 254.36 140.77 255.39 143.07 C 254.78 152.75 252.32 162.33 248.74 171.33 C 248.67 171.50 248.52 171.86 248.45 172.04 C 248.27 172.51 247.91 173.47 247.73 173.95 C 247.65 174.15 247.48 174.54 247.40 174.74 L 247.11 175.40 C 246.94 175.86 246.61 176.79 246.44 177.25 C 246.00 179.43 244.86 181.34 243.79 183.25 C 243.71 183.41 243.55 183.73 243.46 183.89 C 240.41 190.47 237.44 197.56 232.05 202.56 C 230.92 203.16 230.35 204.11 230.36 205.40 C 226.81 209.98 223.45 214.89 218.85 218.49 C 218.73 218.60 218.49 218.83 218.37 218.95 C 218.03 219.31 217.35 220.03 217.01 220.39 C 216.86 220.54 216.54 220.86 216.39 221.02 C 216.02 221.36 215.30 222.05 214.94 222.39 C 214.81 222.51 214.55 222.75 214.42 222.87 C 212.61 224.63 210.37 225.99 209.00 228.17 C 208.45 229.32 207.12 229.56 206.12 230.19 C 200.46 234.54 194.53 238.74 187.88 241.45 C 187.73 241.52 187.43 241.67 187.28 241.74 C 186.25 242.24 185.25 242.80 184.28 243.42 C 184.14 244.07 183.86 245.36 183.72 246.01 C 183.45 245.57 182.92 244.68 182.66 244.24 C 181.70 244.58 180.75 244.96 179.82 245.37 C 179.65 245.44 179.31 245.58 179.14 245.64 C 178.69 245.80 177.77 246.12 177.31 246.28 C 176.85 246.49 175.94 246.90 175.49 247.10 L 174.66 247.43 C 174.48 247.50 174.11 247.64 173.93 247.71 C 173.44 247.90 172.45 248.26 171.96 248.45 C 171.79 248.52 171.46 248.65 171.29 248.72 C 169.51 249.55 167.64 250.18 165.72 250.59 C 165.60 250.62 165.35 250.69 165.23 250.72 C 160.35 252.47 155.36 254.23 150.10 254.17 C 148.80 253.59 147.74 253.89 146.93 255.06 C 145.65 255.17 144.38 255.28 143.10 255.40 C 140.79 254.35 137.99 254.32 135.96 256.00 L 120.02 256.00 C 118.00 254.30 115.21 254.38 112.90 255.38 C 111.61 255.26 110.33 255.14 109.06 255.02 C 108.23 253.84 107.17 253.55 105.87 254.16 C 100.63 254.12 95.57 252.62 90.72 250.76 C 90.56 250.71 90.23 250.60 90.07 250.54 C 88.26 250.01 86.44 249.48 84.71 248.71 C 84.55 248.65 84.21 248.52 84.04 248.45 C 83.54 248.30 82.54 247.99 82.04 247.83 C 81.86 247.80 81.49 247.72 81.30 247.68 C 77.78 248.52 75.71 244.14 72.36 245.40 C 70.12 242.25 66.16 241.27 63.19 238.98 C 63.64 237.43 61.58 236.27 60.77 237.85 C 53.70 233.50 47.30 228.24 41.04 222.82 C 40.10 221.67 38.63 221.76 37.30 221.65 C 37.70 221.41 38.50 220.93 38.90 220.69 C 38.56 220.27 37.87 219.41 37.53 218.99 C 37.41 218.87 37.17 218.62 37.05 218.50 C 33.29 215.80 31.11 211.54 27.31 208.91 C 24.80 205.06 22.25 201.17 19.52 197.45 C 17.04 194.95 16.08 191.48 14.72 188.33 C 13.07 183.17 10.41 178.40 8.03 173.54 C 7.89 173.12 7.61 172.29 7.47 171.88 C 7.42 171.73 7.31 171.44 7.25 171.30 C 6.72 169.97 6.20 168.64 5.71 167.30 L 6.03 166.46 C 5.78 166.10 5.27 165.38 5.01 165.02 C 3.29 160.57 2.33 155.86 1.75 151.14 C 2.57 149.70 2.26 147.91 0.93 146.92 C 0.91 146.24 0.86 144.88 0.84 144.20 C 0.88 141.25 0.62 138.30 0.00 135.42 L 0.00 120.56 C 0.62 117.69 0.89 114.76 0.86 111.82 C 0.88 111.13 0.92 109.75 0.94 109.05 C 2.35 108.14 2.60 106.28 1.60 104.96 C 2.04 100.11 3.55 95.46 4.88 90.80 C 6.49 90.42 6.60 89.83 5.23 89.04 C 6.88 86.03 7.77 82.71 5.96 79.54 C 7.22 79.69 8.63 79.63 9.20 78.27 C 15.48 63.59 24.20 49.79 35.62 38.57 C 37.03 36.04 39.72 34.85 41.66 32.82 C 43.84 32.05 45.77 30.73 46.72 28.55 C 55.99 19.96 67.40 13.98 78.83 8.83 C 79.59 8.14 79.45 7.01 79.73 6.10 C 81.15 6.39 82.51 6.96 83.97 7.07 C 93.00 4.11 102.29 0.93 111.90 0.81 C 115.14 0.89 118.38 0.62 121.57 0.00 M 107.82 52.78 C 91.58 54.59 75.94 59.91 61.51 67.49 C 61.43 99.16 61.46 130.84 61.52 162.51 C 79.81 175.91 98.59 188.67 116.88 202.10 C 120.65 204.57 124.08 207.58 128.03 209.78 C 132.27 207.62 135.83 204.37 139.80 201.78 C 157.94 188.56 176.56 175.98 194.57 162.62 C 194.72 130.89 194.72 99.13 194.58 67.40 C 189.78 64.57 184.56 62.53 179.40 60.46 C 156.83 51.23 131.79 50.60 107.82 52.78 Z" />
<path fill="#6e1ac4" opacity="1.00" d=" M 178.18 7.24 C 178.73 7.82 178.73 7.82 178.18 7.24 Z" />
<path fill="#6e1ac4" opacity="1.00" d=" M 67.26 11.25 C 67.78 11.80 67.78 11.80 67.26 11.25 Z" />
<path fill="#6e1ac4" opacity="1.00" d=" M 91.32 89.32 C 100.51 87.56 109.68 85.41 119.03 84.65 C 126.36 84.46 133.73 84.26 141.04 84.93 C 149.27 86.13 157.47 87.61 165.58 89.40 C 165.61 109.87 165.56 130.35 165.61 150.83 C 165.75 152.71 163.61 153.42 162.43 154.44 C 157.57 157.46 153.23 161.30 148.14 163.93 C 147.85 155.61 148.43 147.27 147.87 138.96 C 136.97 138.23 125.95 138.89 115.00 138.64 C 112.78 138.80 110.36 138.20 108.27 139.12 C 107.96 147.38 108.57 155.66 108.01 163.91 C 102.99 161.13 98.58 157.37 93.77 154.24 C 92.66 153.36 90.89 152.72 91.01 151.00 C 90.67 131.33 91.18 111.65 90.99 91.98 C 91.07 91.32 91.23 89.99 91.32 89.32 M 108.63 102.65 C 107.68 108.52 108.34 114.69 108.31 120.67 C 121.45 120.67 134.60 120.65 147.75 120.68 C 148.28 114.64 148.41 108.49 147.70 102.47 C 134.74 100.89 121.53 100.36 108.63 102.65 Z" />
<path fill="#6e1ac4" opacity="1.00" d=" M 256.00 91.98 C 254.17 91.93 254.26 89.25 256.00 89.12 L 256.00 91.98 Z" />
<path fill="#6e1ac4" opacity="1.00" d=" M 256.00 165.87 C 254.42 165.25 254.42 164.64 256.00 164.03 L 256.00 165.87 Z" />
<path fill="#6e1ac4" opacity="1.00" d=" M 245.25 189.25 C 245.79 189.80 245.79 189.80 245.25 189.25 Z" />
<path fill="#6e1ac4" opacity="1.00" d=" M 224.25 219.26 C 224.80 219.79 224.80 219.79 224.25 219.26 Z" />
<path fill="#6e1ac4" opacity="1.00" d=" M 188.23 243.25 C 188.82 243.85 188.82 243.85 188.23 243.25 Z" />
</g>
</svg>
