<?xml version="1.0" encoding="UTF-8" ?>
<!DOCTYPE svg PUBLIC "-//W3C//DTD SVG 1.1//EN" "http://www.w3.org/Graphics/SVG/1.1/DTD/svg11.dtd">
<svg width="272pt" height="272pt" viewBox="0 0 272 272" version="1.1" xmlns="http://www.w3.org/2000/svg">
<g id="#ffffffff">
<path fill="#ffffff" opacity="1.00" d=" M 0.00 0.00 L 272.00 0.00 L 272.00 272.00 L 0.00 272.00 L 0.00 0.00 M 122.40 10.49 C 102.92 12.35 83.94 18.96 67.41 29.41 C 43.93 44.22 25.49 66.90 15.98 93.00 C 6.32 119.12 5.72 148.47 14.16 175.00 C 23.05 203.20 42.20 228.00 67.21 243.76 C 92.46 259.93 123.61 266.56 153.26 262.15 C 179.79 258.42 204.97 245.85 223.99 226.99 C 247.18 204.36 261.28 172.48 261.75 140.03 C 262.66 115.02 255.62 89.88 242.20 68.80 C 226.95 44.67 203.33 25.98 176.33 16.72 C 159.08 10.82 140.54 8.58 122.40 10.49 Z" />
</g>
<g id="#36322fff">
<path fill="#36322f" opacity="1.00" d=" M 122.40 10.49 C 140.54 8.58 159.08 10.82 176.33 16.72 C 203.33 25.98 226.95 44.67 242.20 68.80 C 255.62 89.88 262.66 115.02 261.75 140.03 C 261.28 172.48 247.18 204.36 223.99 226.99 C 204.97 245.85 179.79 258.42 153.26 262.15 C 123.61 266.56 92.46 259.93 67.21 243.76 C 42.20 228.00 23.05 203.20 14.16 175.00 C 5.72 148.47 6.32 119.12 15.98 93.00 C 25.49 66.90 43.93 44.22 67.41 29.41 C 83.94 18.96 102.92 12.35 122.40 10.49 M 119.96 21.19 C 92.27 24.72 66.11 38.75 47.74 59.73 C 29.59 80.25 18.88 107.34 18.69 134.77 C 20.64 134.72 22.58 134.69 24.53 134.65 C 30.70 123.44 37.31 112.47 43.45 101.24 C 52.53 101.08 61.61 101.13 70.69 101.22 C 73.83 111.79 77.10 122.33 80.24 132.91 C 80.78 134.04 80.83 135.68 82.11 136.26 C 89.13 135.14 95.79 132.43 102.80 131.33 C 106.81 132.71 110.29 135.29 114.16 137.01 C 119.10 131.41 123.48 125.36 128.18 119.56 C 134.80 123.09 141.25 127.52 148.80 128.72 C 150.89 128.05 152.76 126.85 154.67 125.79 C 150.15 123.58 145.39 121.75 141.34 118.69 C 128.20 109.24 121.25 91.99 124.32 76.08 C 126.59 62.95 135.34 51.15 147.23 45.13 C 159.64 38.61 175.27 38.77 187.57 45.48 C 199.73 51.90 208.39 64.42 210.09 78.07 C 211.36 86.72 209.47 95.50 205.93 103.40 C 207.85 103.92 210.43 103.48 211.62 105.43 C 216.55 112.02 221.24 118.79 226.09 125.45 C 229.73 124.91 233.38 124.34 237.01 123.68 C 241.95 128.97 246.64 134.49 251.55 139.80 C 251.81 127.47 250.19 115.12 246.65 103.30 C 238.68 76.50 220.64 52.90 196.94 38.07 C 174.30 23.68 146.55 17.64 119.96 21.19 M 143.58 60.57 C 133.59 70.37 131.17 86.81 137.89 99.08 C 142.80 108.63 152.58 115.05 163.10 116.68 C 171.31 108.48 178.92 99.70 187.10 91.47 C 189.74 94.73 192.21 98.13 194.93 101.34 C 199.02 94.70 200.94 86.71 199.70 78.96 C 197.99 66.07 187.86 54.91 175.26 51.79 C 164.13 48.65 151.62 52.39 143.58 60.57 M 171.83 123.34 C 176.61 122.22 180.66 119.22 183.23 115.05 C 185.90 118.74 189.43 121.85 193.86 123.19 C 201.37 125.70 208.76 130.67 211.43 138.46 C 212.57 141.24 212.54 144.87 215.30 146.68 C 218.73 149.14 223.00 150.06 226.48 152.47 C 232.99 156.59 237.72 164.10 237.20 171.96 C 236.20 177.43 230.67 180.39 225.74 181.66 C 221.68 182.82 216.49 183.04 214.20 187.21 C 211.16 193.13 213.93 200.08 212.22 206.29 C 210.38 209.80 204.65 209.62 203.02 206.02 C 201.28 200.06 203.91 193.43 201.33 187.65 C 198.90 182.84 193.01 182.61 188.42 181.37 C 188.40 187.93 188.58 194.49 188.42 201.05 C 188.51 205.10 185.40 208.31 182.00 210.00 C 175.22 213.42 167.45 213.80 160.00 213.86 C 152.12 213.86 143.90 213.74 136.61 210.38 C 132.91 208.72 129.32 205.39 129.39 201.04 C 129.21 193.11 134.39 185.95 141.03 182.04 C 144.72 179.72 149.07 178.84 152.91 176.84 C 155.70 175.41 157.46 172.73 159.12 170.18 C 162.79 177.49 171.26 179.11 178.01 182.32 C 178.14 176.89 178.39 171.45 178.00 166.03 C 177.85 162.17 174.92 158.72 171.19 157.83 C 165.62 156.40 159.22 155.44 155.46 150.59 C 152.48 146.93 154.16 142.03 154.87 137.89 C 152.24 138.82 149.47 140.74 146.63 139.46 C 141.27 137.61 135.94 135.64 130.83 133.20 C 121.34 144.83 112.22 156.77 102.81 168.46 C 99.96 166.52 97.26 164.39 94.70 162.09 C 98.81 156.49 103.33 151.21 107.52 145.68 C 104.98 144.25 102.39 141.62 99.23 142.80 C 90.90 144.79 82.71 147.40 74.29 148.99 C 70.39 136.48 66.76 123.88 62.79 111.39 C 58.67 111.43 54.53 111.08 50.43 111.53 C 47.90 113.35 46.93 116.72 45.24 119.28 C 40.28 127.68 35.81 136.40 30.55 144.61 C 26.84 145.68 22.90 145.25 19.09 145.41 C 19.32 153.18 20.98 160.80 22.98 168.29 C 25.14 168.02 28.64 169.17 29.17 166.13 C 33.60 153.29 37.59 140.28 42.39 127.58 C 47.29 138.78 50.30 150.71 54.66 162.14 C 58.14 154.20 60.15 145.72 63.42 137.70 C 68.00 148.24 70.83 159.44 74.95 170.16 C 86.79 171.13 98.70 172.50 110.16 175.75 C 115.79 177.50 121.75 179.70 125.55 184.46 C 128.77 188.41 128.45 194.43 125.50 198.44 C 119.51 207.01 108.66 210.33 102.51 218.77 C 108.23 220.80 114.22 221.84 120.17 222.95 C 129.85 224.70 139.42 227.04 149.09 228.88 C 162.01 231.53 175.13 233.75 187.43 238.70 C 189.78 240.01 192.03 238.07 194.05 237.04 C 222.76 220.13 243.77 190.58 249.62 157.71 C 249.81 156.57 249.88 155.42 249.83 154.27 C 247.70 150.81 244.65 148.05 242.02 144.99 C 239.10 141.89 236.66 138.32 233.43 135.53 C 229.44 134.87 225.42 136.45 221.43 136.81 C 215.80 129.14 210.40 121.30 204.65 113.73 C 201.49 115.54 198.63 117.82 195.83 120.13 C 192.47 116.20 189.54 111.93 186.44 107.79 C 181.15 112.54 176.23 117.75 171.83 123.34 M 176.07 133.04 C 170.35 134.58 165.22 138.83 163.91 144.80 C 169.92 147.44 176.53 147.90 183.00 148.05 C 189.64 147.98 196.39 147.41 202.62 144.94 C 201.81 142.45 201.03 139.78 199.04 137.95 C 193.10 132.10 183.87 130.99 176.07 133.04 M 188.23 170.11 C 192.60 171.91 197.26 172.90 201.97 173.21 C 210.44 173.75 219.27 173.42 227.17 170.01 C 224.99 161.68 216.10 157.31 208.01 157.39 C 199.78 157.16 190.17 161.35 188.23 170.11 M 39.50 168.30 C 41.51 168.35 43.52 168.39 45.53 168.40 C 44.67 165.48 43.74 162.58 42.63 159.75 C 41.29 162.48 40.34 165.38 39.50 168.30 M 63.43 169.85 C 62.23 172.97 61.18 176.15 60.19 179.34 C 62.43 179.41 64.67 179.41 66.90 179.32 C 65.93 176.10 64.83 172.91 63.43 169.85 M 26.52 178.59 C 41.78 219.27 81.63 249.38 125.01 252.63 C 142.02 254.17 159.44 251.88 175.42 245.79 C 168.74 243.26 161.66 242.16 154.72 240.62 C 140.25 237.85 125.90 234.51 111.40 231.87 C 105.57 230.51 99.12 229.64 94.46 225.54 C 90.80 222.33 91.00 216.48 93.80 212.78 C 98.57 206.16 105.71 201.91 112.16 197.16 C 114.47 195.53 116.26 193.32 117.82 190.99 C 113.03 186.97 106.84 185.46 100.88 184.14 C 93.46 182.58 85.94 181.50 78.37 180.99 C 76.75 184.62 74.07 187.99 70.05 189.00 C 64.25 190.52 57.33 190.42 52.44 186.53 C 50.09 184.78 49.50 181.79 48.79 179.14 C 41.34 180.14 33.98 177.89 26.52 178.59 M 150.10 189.14 C 145.07 190.97 140.31 195.00 139.80 200.65 C 152.09 204.67 165.85 204.67 178.14 200.60 C 177.48 197.99 176.66 195.27 174.56 193.43 C 168.20 187.35 158.18 186.12 150.10 189.14 Z" />
<path fill="#36322f" opacity="1.00" d=" M 79.46 42.69 C 94.32 37.90 111.71 47.15 116.03 62.14 C 120.80 76.18 113.04 92.79 99.29 98.25 C 86.32 104.01 69.74 98.63 62.64 86.36 C 57.33 77.82 56.92 66.50 61.57 57.58 C 65.12 50.41 71.81 44.97 79.46 42.69 M 83.35 52.45 C 73.68 54.61 66.86 65.13 69.13 74.84 C 70.83 83.91 79.79 90.82 89.01 90.14 C 99.16 89.72 107.70 80.16 106.93 70.02 C 106.71 58.53 94.46 49.29 83.35 52.45 Z" />
</g>
<g id="#d7d1c8ff">
<path fill="#d7d1c8" opacity="1.00" d=" M 119.96 21.19 C 146.55 17.64 174.30 23.68 196.94 38.07 C 220.64 52.90 238.68 76.50 246.65 103.30 C 250.19 115.12 251.81 127.47 251.55 139.80 C 246.64 134.49 241.95 128.97 237.01 123.68 C 233.38 124.34 229.73 124.91 226.09 125.45 C 221.24 118.79 216.55 112.02 211.62 105.43 C 210.43 103.48 207.85 103.92 205.93 103.40 C 209.47 95.50 211.36 86.72 210.09 78.07 C 208.39 64.42 199.73 51.90 187.57 45.48 C 175.27 38.77 159.64 38.61 147.23 45.13 C 135.34 51.15 126.59 62.95 124.32 76.08 C 121.25 91.99 128.20 109.24 141.34 118.69 C 145.39 121.75 150.15 123.58 154.67 125.79 C 152.76 126.85 150.89 128.05 148.80 128.72 C 141.25 127.52 134.80 123.09 128.18 119.56 C 123.48 125.36 119.10 131.41 114.16 137.01 C 110.29 135.29 106.81 132.71 102.80 131.33 C 95.79 132.43 89.13 135.14 82.11 136.26 C 80.83 135.68 80.78 134.04 80.24 132.91 C 77.10 122.33 73.83 111.79 70.69 101.22 C 61.61 101.13 52.53 101.08 43.45 101.24 C 37.31 112.47 30.70 123.44 24.53 134.65 C 22.58 134.69 20.64 134.72 18.69 134.77 C 18.88 107.34 29.59 80.25 47.74 59.73 C 66.11 38.75 92.27 24.72 119.96 21.19 M 79.46 42.69 C 71.81 44.97 65.12 50.41 61.57 57.58 C 56.92 66.50 57.33 77.82 62.64 86.36 C 69.74 98.63 86.32 104.01 99.29 98.25 C 113.04 92.79 120.80 76.18 116.03 62.14 C 111.71 47.15 94.32 37.90 79.46 42.69 Z" />
<path fill="#d7d1c8" opacity="1.00" d=" M 26.52 178.59 C 33.98 177.89 41.34 180.14 48.79 179.14 C 49.50 181.79 50.09 184.78 52.44 186.53 C 57.33 190.42 64.25 190.52 70.05 189.00 C 74.07 187.99 76.75 184.62 78.37 180.99 C 85.94 181.50 93.46 182.58 100.88 184.14 C 106.84 185.46 113.03 186.97 117.82 190.99 C 116.26 193.32 114.47 195.53 112.16 197.16 C 105.71 201.91 98.57 206.16 93.80 212.78 C 91.00 216.48 90.80 222.33 94.46 225.54 C 99.12 229.64 105.57 230.51 111.40 231.87 C 125.90 234.51 140.25 237.85 154.72 240.62 C 161.66 242.16 168.74 243.26 175.42 245.79 C 159.44 251.88 142.02 254.17 125.01 252.63 C 81.63 249.38 41.78 219.27 26.52 178.59 Z" />
</g>
<g id="#f37e33ff">
<path fill="#f37e33" opacity="1.00" d=" M 143.58 60.57 C 151.62 52.39 164.13 48.65 175.26 51.79 C 187.86 54.91 197.99 66.07 199.70 78.96 C 200.94 86.71 199.02 94.70 194.93 101.34 C 192.21 98.13 189.74 94.73 187.10 91.47 C 178.92 99.70 171.31 108.48 163.10 116.68 C 152.58 115.05 142.80 108.63 137.89 99.08 C 131.17 86.81 133.59 70.37 143.58 60.57 Z" />
<path fill="#f37e33" opacity="1.00" d=" M 83.35 52.45 C 94.46 49.29 106.71 58.53 106.93 70.02 C 107.70 80.16 99.16 89.72 89.01 90.14 C 79.79 90.82 70.83 83.91 69.13 74.84 C 66.86 65.13 73.68 54.61 83.35 52.45 Z" />
<path fill="#f37e33" opacity="1.00" d=" M 39.50 168.30 C 40.34 165.38 41.29 162.48 42.63 159.75 C 43.74 162.58 44.67 165.48 45.53 168.40 C 43.52 168.39 41.51 168.35 39.50 168.30 Z" />
<path fill="#f37e33" opacity="1.00" d=" M 63.43 169.85 C 64.83 172.91 65.93 176.10 66.90 179.32 C 64.67 179.41 62.43 179.41 60.19 179.34 C 61.18 176.15 62.23 172.97 63.43 169.85 Z" />
</g>
<g id="#beb5afff">
<path fill="#beb5af" opacity="1.00" d=" M 171.83 123.34 C 176.23 117.75 181.15 112.54 186.44 107.79 C 189.54 111.93 192.47 116.20 195.83 120.13 C 198.63 117.82 201.49 115.54 204.65 113.73 C 210.40 121.30 215.80 129.14 221.43 136.81 C 225.42 136.45 229.44 134.87 233.43 135.53 C 236.66 138.32 239.10 141.89 242.02 144.99 C 244.65 148.05 247.70 150.81 249.83 154.27 C 249.88 155.42 249.81 156.57 249.62 157.71 C 243.77 190.58 222.76 220.13 194.05 237.04 C 192.03 238.07 189.78 240.01 187.43 238.70 C 175.13 233.75 162.01 231.53 149.09 228.88 C 139.42 227.04 129.85 224.70 120.17 222.95 C 114.22 221.84 108.23 220.80 102.51 218.77 C 108.66 210.33 119.51 207.01 125.50 198.44 C 128.45 194.43 128.77 188.41 125.55 184.46 C 121.75 179.70 115.79 177.50 110.16 175.75 C 98.70 172.50 86.79 171.13 74.95 170.16 C 70.83 159.44 68.00 148.24 63.42 137.70 C 60.15 145.72 58.14 154.20 54.66 162.14 C 50.30 150.71 47.29 138.78 42.39 127.58 C 37.59 140.28 33.60 153.29 29.17 166.13 C 28.64 169.17 25.14 168.02 22.98 168.29 C 20.98 160.80 19.32 153.18 19.09 145.41 C 22.90 145.25 26.84 145.68 30.55 144.61 C 35.81 136.40 40.28 127.68 45.24 119.28 C 46.93 116.72 47.90 113.35 50.43 111.53 C 54.53 111.08 58.67 111.43 62.79 111.39 C 66.76 123.88 70.39 136.48 74.29 148.99 C 82.71 147.40 90.90 144.79 99.23 142.80 C 102.39 141.62 104.98 144.25 107.52 145.68 C 103.33 151.21 98.81 156.49 94.70 162.09 C 97.26 164.39 99.96 166.52 102.81 168.46 C 112.22 156.77 121.34 144.83 130.83 133.20 C 135.94 135.64 141.27 137.61 146.63 139.46 C 149.47 140.74 152.24 138.82 154.87 137.89 C 154.16 142.03 152.48 146.93 155.46 150.59 C 159.22 155.44 165.62 156.40 171.19 157.83 C 174.92 158.72 177.85 162.17 178.00 166.03 C 178.39 171.45 178.14 176.89 178.01 182.32 C 171.26 179.11 162.79 177.49 159.12 170.18 C 157.46 172.73 155.70 175.41 152.91 176.84 C 149.07 178.84 144.72 179.72 141.03 182.04 C 134.39 185.95 129.21 193.11 129.39 201.04 C 129.32 205.39 132.91 208.72 136.61 210.38 C 143.90 213.74 152.12 213.86 160.00 213.86 C 167.45 213.80 175.22 213.42 182.00 210.00 C 185.40 208.31 188.51 205.10 188.42 201.05 C 188.58 194.49 188.40 187.93 188.42 181.37 C 193.01 182.61 198.90 182.84 201.33 187.65 C 203.91 193.43 201.28 200.06 203.02 206.02 C 204.65 209.62 210.38 209.80 212.22 206.29 C 213.93 200.08 211.16 193.13 214.20 187.21 C 216.49 183.04 221.68 182.82 225.74 181.66 C 230.67 180.39 236.20 177.43 237.20 171.96 C 237.72 164.10 232.99 156.59 226.48 152.47 C 223.00 150.06 218.73 149.14 215.30 146.68 C 212.54 144.87 212.57 141.24 211.43 138.46 C 208.76 130.67 201.37 125.70 193.86 123.19 C 189.43 121.85 185.90 118.74 183.23 115.05 C 180.66 119.22 176.61 122.22 171.83 123.34 Z" />
</g>
<g id="#d7a880ff">
<path fill="#d7a880" opacity="1.00" d=" M 176.07 133.04 C 183.87 130.99 193.10 132.10 199.04 137.95 C 201.03 139.78 201.81 142.45 202.62 144.94 C 196.39 147.41 189.64 147.98 183.00 148.05 C 176.53 147.90 169.92 147.44 163.91 144.80 C 165.22 138.83 170.35 134.58 176.07 133.04 Z" />
<path fill="#d7a880" opacity="1.00" d=" M 188.23 170.11 C 190.17 161.35 199.78 157.16 208.01 157.39 C 216.10 157.31 224.99 161.68 227.17 170.01 C 219.27 173.42 210.44 173.75 201.97 173.21 C 197.26 172.90 192.60 171.91 188.23 170.11 Z" />
<path fill="#d7a880" opacity="1.00" d=" M 150.10 189.14 C 158.18 186.12 168.20 187.35 174.56 193.43 C 176.66 195.27 177.48 197.99 178.14 200.60 C 165.85 204.67 152.09 204.67 139.80 200.65 C 140.31 195.00 145.07 190.97 150.10 189.14 Z" />
</g>
</svg>
