<?xml version="1.0" encoding="UTF-8" ?>
<!DOCTYPE svg PUBLIC "-//W3C//DTD SVG 1.1//EN" "http://www.w3.org/Graphics/SVG/1.1/DTD/svg11.dtd">
<svg width="256pt" height="256pt" viewBox="0 0 256 256" version="1.1" xmlns="http://www.w3.org/2000/svg">
<g id="#ffffffff">
<path fill="#ffffff" opacity="1.00" d=" M 0.00 0.00 L 256.00 0.00 L 256.00 256.00 L 0.00 256.00 L 0.00 0.00 M 116.27 55.24 C 99.37 65.01 82.47 74.78 65.54 84.49 C 63.50 85.61 61.45 87.15 61.11 89.62 C 83.37 102.38 105.68 115.08 127.75 128.16 C 127.77 153.91 127.61 179.67 127.83 205.42 C 131.84 205.91 135.11 203.29 138.40 201.46 C 155.52 191.58 172.63 181.68 189.76 171.82 C 193.71 169.77 196.89 165.64 196.65 161.03 C 196.64 153.71 196.65 146.39 196.62 139.07 C 192.48 141.35 188.09 143.36 184.42 146.36 C 183.55 151.72 186.48 159.39 180.62 162.64 C 167.64 169.81 155.10 177.81 141.92 184.59 C 141.10 183.51 140.15 182.40 140.40 180.94 C 140.40 160.94 140.46 140.94 140.38 120.94 C 123.20 110.55 105.59 100.86 88.29 90.67 C 86.92 90.04 86.26 88.72 86.05 87.29 C 97.98 80.02 110.24 73.29 122.28 66.19 C 124.05 65.26 125.85 64.01 127.95 64.03 C 132.80 64.47 136.18 69.08 140.85 69.74 C 144.94 67.94 148.74 65.48 152.47 63.02 C 147.79 59.71 142.65 57.16 137.75 54.20 C 134.72 52.49 131.66 50.23 128.00 50.48 C 123.56 50.27 119.95 53.20 116.27 55.24 M 146.98 73.84 C 157.33 80.35 168.22 85.96 178.63 92.36 C 182.61 94.74 184.34 99.51 184.32 103.97 C 184.32 115.59 184.39 127.21 184.25 138.82 C 188.41 136.51 192.59 134.22 196.64 131.69 C 196.65 119.45 196.62 107.21 196.65 94.97 C 196.86 90.38 193.70 86.26 189.76 84.22 C 179.51 78.42 169.41 72.36 159.10 66.67 C 155.06 69.07 150.77 71.05 146.98 73.84 M 59.03 95.86 C 58.54 116.57 58.98 137.30 58.81 158.02 C 58.62 163.02 60.20 168.63 64.89 171.16 C 83.81 182.07 102.69 193.03 121.62 203.91 C 121.66 199.08 121.68 194.24 121.61 189.41 C 106.32 180.69 91.12 171.82 75.84 163.08 C 73.62 161.84 71.48 159.78 71.61 157.02 C 71.45 138.86 71.68 120.69 71.52 102.53 C 67.30 100.41 63.42 97.63 59.03 95.86 Z" />
</g>
<g id="#3281f7ff">
<path fill="#3281f7" opacity="1.00" d=" M 116.27 55.24 C 119.95 53.20 123.56 50.27 128.00 50.48 C 131.66 50.23 134.72 52.49 137.75 54.20 C 142.65 57.16 147.79 59.71 152.47 63.02 C 148.74 65.48 144.94 67.94 140.85 69.74 C 136.18 69.08 132.80 64.47 127.95 64.03 C 125.85 64.01 124.05 65.26 122.28 66.19 C 110.24 73.29 97.98 80.02 86.05 87.29 C 86.26 88.72 86.92 90.04 88.29 90.67 C 105.59 100.86 123.20 110.55 140.38 120.94 C 140.46 140.94 140.40 160.94 140.40 180.94 C 140.15 182.40 141.10 183.51 141.92 184.59 C 155.10 177.81 167.64 169.81 180.62 162.64 C 186.48 159.39 183.55 151.72 184.42 146.36 C 188.09 143.36 192.48 141.35 196.62 139.07 C 196.65 146.39 196.64 153.71 196.65 161.03 C 196.89 165.64 193.71 169.77 189.76 171.82 C 172.63 181.68 155.52 191.58 138.40 201.46 C 135.11 203.29 131.84 205.91 127.83 205.42 C 127.61 179.67 127.77 153.91 127.75 128.16 C 105.68 115.08 83.37 102.38 61.11 89.62 C 61.45 87.15 63.50 85.61 65.54 84.49 C 82.47 74.78 99.37 65.01 116.27 55.24 Z" />
<path fill="#3281f7" opacity="1.00" d=" M 146.98 73.84 C 150.77 71.05 155.06 69.07 159.10 66.67 C 169.41 72.36 179.51 78.42 189.76 84.22 C 193.70 86.26 196.86 90.38 196.65 94.97 C 196.62 107.21 196.65 119.45 196.64 131.69 C 192.59 134.22 188.41 136.51 184.25 138.82 C 184.39 127.21 184.32 115.59 184.32 103.97 C 184.34 99.51 182.61 94.74 178.63 92.36 C 168.22 85.96 157.33 80.35 146.98 73.84 Z" />
<path fill="#3281f7" opacity="1.00" d=" M 59.03 95.86 C 63.42 97.63 67.30 100.41 71.52 102.53 C 71.68 120.69 71.45 138.86 71.61 157.02 C 71.48 159.78 73.62 161.84 75.84 163.08 C 91.12 171.82 106.32 180.69 121.61 189.41 C 121.68 194.24 121.66 199.08 121.62 203.91 C 102.69 193.03 83.81 182.07 64.89 171.16 C 60.20 168.63 58.62 163.02 58.81 158.02 C 58.98 137.30 58.54 116.57 59.03 95.86 Z" />
</g>
</svg>
