<?xml version="1.0" encoding="UTF-8" ?>
<!DOCTYPE svg PUBLIC "-//W3C//DTD SVG 1.1//EN" "http://www.w3.org/Graphics/SVG/1.1/DTD/svg11.dtd">
<svg width="300pt" height="300pt" viewBox="0 0 300 300" version="1.1" xmlns="http://www.w3.org/2000/svg">
<g id="#612953ff">
<path fill="#612953" opacity="1.00" d=" M 147.33 40.37 C 150.67 39.20 154.81 40.14 156.91 43.10 C 158.92 45.87 160.36 49.00 162.07 51.95 C 188.32 99.03 214.54 146.13 240.83 193.19 C 242.53 196.49 245.28 199.80 244.59 203.76 C 244.18 206.74 241.90 208.98 239.40 210.40 C 211.84 226.83 184.30 243.29 156.80 259.80 C 153.48 262.27 148.87 263.20 145.29 260.68 C 116.94 243.68 88.51 226.79 60.17 209.77 C 56.07 207.56 54.68 201.94 57.07 197.99 C 84.95 147.91 112.92 97.88 140.78 47.79 C 142.40 44.93 143.97 41.50 147.33 40.37 M 141.02 65.00 C 119.18 104.18 97.33 143.37 75.48 182.55 C 73.26 186.59 70.89 190.55 68.91 194.71 C 78.49 189.21 88.33 183.77 99.05 180.87 C 109.19 179.69 118.39 185.99 125.82 192.20 C 131.54 197.84 139.09 201.42 147.09 202.27 C 145.30 204.84 143.28 207.24 141.58 209.86 C 134.70 208.80 128.30 205.42 122.95 201.05 C 117.49 196.30 111.52 191.81 104.55 189.60 C 100.53 188.25 96.66 190.67 92.99 191.98 C 84.66 195.67 76.41 199.73 68.87 204.86 C 94.41 220.49 120.23 235.70 145.96 251.04 C 146.12 240.36 145.87 229.67 146.05 218.99 C 146.19 214.10 149.34 209.95 152.85 206.82 C 159.17 200.72 168.33 198.80 174.43 192.42 C 178.03 188.98 180.67 184.63 182.43 179.99 C 184.61 182.42 186.22 185.30 187.90 188.10 C 186.05 192.98 182.19 196.88 178.40 200.37 C 172.49 205.86 164.33 207.95 158.37 213.37 C 156.48 215.09 154.48 217.22 154.63 219.97 C 154.59 230.19 154.49 240.41 154.71 250.63 C 157.22 249.65 159.53 248.25 161.81 246.82 C 184.71 233.03 207.72 219.41 230.61 205.63 C 230.62 205.33 230.64 204.73 230.66 204.43 C 219.95 199.16 209.12 194.07 198.65 188.34 C 189.24 181.90 185.75 170.16 183.47 159.56 C 180.20 145.77 167.57 135.68 153.74 133.89 C 155.42 131.31 157.34 128.91 159.12 126.42 C 175.26 129.43 188.77 142.87 192.12 158.91 C 193.53 165.69 195.64 172.54 199.92 178.10 C 202.35 181.25 206.20 182.65 209.61 184.44 C 217.04 188.08 224.26 192.19 231.95 195.28 C 230.58 192.32 228.96 189.49 227.35 186.66 C 205.05 146.65 182.74 106.64 160.44 66.63 C 158.67 63.54 157.22 60.24 154.86 57.54 C 154.25 74.01 154.77 90.52 154.60 107.00 C 154.35 112.76 155.70 119.16 152.27 124.26 C 148.19 130.56 141.57 134.63 134.93 137.79 C 127.37 141.16 121.56 147.79 118.42 155.37 C 115.35 162.44 115.55 170.39 117.08 177.81 C 113.95 176.63 110.85 175.39 107.69 174.29 C 105.58 159.24 111.99 143.32 124.22 134.23 C 130.60 129.10 139.46 127.36 144.42 120.46 C 146.40 118.10 145.97 114.86 146.03 112.00 C 145.87 93.57 146.21 75.14 145.86 56.72 C 144.03 59.35 142.55 62.20 141.02 65.00 Z" />
</g>
</svg>
