<?xml version="1.0" encoding="UTF-8" ?>
<!DOCTYPE svg PUBLIC "-//W3C//DTD SVG 1.1//EN" "http://www.w3.org/Graphics/SVG/1.1/DTD/svg11.dtd">
<svg width="300pt" height="300pt" viewBox="0 0 300 300" version="1.1" xmlns="http://www.w3.org/2000/svg">
<g id="#ffffffff">
<path fill="#ffffff" opacity="1.00" d=" M 0.00 0.00 L 300.00 0.00 L 300.00 300.00 L 0.00 300.00 L 0.00 0.00 M 138.32 13.18 C 113.66 15.11 89.64 24.09 69.64 38.61 C 45.58 55.98 27.27 81.26 18.66 109.69 C 12.24 130.72 10.90 153.30 14.94 174.92 C 19.87 202.34 33.54 228.08 53.44 247.56 C 72.43 266.52 97.16 279.71 123.54 284.72 C 143.20 288.64 163.71 288.11 183.16 283.27 C 214.88 275.56 243.38 255.82 262.16 229.17 C 278.16 206.81 286.91 179.46 287.30 151.99 C 287.57 131.23 283.24 110.34 274.32 91.57 C 261.05 63.30 237.81 39.86 209.69 26.30 C 187.67 15.58 162.70 11.04 138.32 13.18 Z" />
<path fill="#ffffff" opacity="1.00" d=" M 131.47 25.82 C 150.18 23.23 169.44 24.78 187.45 30.53 C 212.74 38.44 235.10 54.89 250.71 76.24 C 266.41 97.73 275.18 124.35 274.68 151.00 C 274.81 170.66 269.84 190.30 260.77 207.72 C 249.19 230.35 230.45 249.14 208.02 261.05 C 185.45 273.03 159.12 277.92 133.76 274.65 C 106.64 271.41 80.68 258.96 61.37 239.63 C 39.80 218.81 26.31 189.87 24.12 159.99 C 21.90 132.95 28.78 105.24 43.50 82.45 C 62.79 52.01 95.76 30.77 131.47 25.82 M 138.32 31.18 C 118.79 32.82 99.75 39.60 83.39 50.38 C 60.14 65.55 42.72 89.27 34.76 115.84 C 27.21 140.73 28.26 168.10 37.51 192.40 C 47.45 218.87 67.13 241.56 92.06 254.95 C 110.56 265.18 131.88 270.08 152.98 269.43 C 179.42 268.76 205.50 258.79 225.73 241.77 C 243.98 226.57 257.52 205.84 264.06 183.00 C 270.34 161.10 270.22 137.35 263.56 115.54 C 255.35 88.01 236.73 63.76 212.29 48.66 C 190.44 34.93 164.00 28.66 138.32 31.18 Z" />
<path fill="#ffffff" opacity="1.00" d=" M 144.75 57.60 C 153.27 55.63 163.21 56.98 169.56 63.45 C 175.93 69.33 178.53 77.83 181.31 85.76 C 184.99 95.46 188.20 105.34 192.17 114.91 C 201.46 115.38 210.76 114.95 220.05 114.90 C 222.58 114.83 225.73 116.17 225.69 119.12 C 225.71 122.92 227.12 128.67 222.59 130.47 C 214.43 131.20 206.20 130.35 198.01 130.87 C 198.57 133.19 199.37 135.44 200.25 137.65 C 207.45 138.10 214.69 137.33 221.86 138.08 C 224.67 138.35 225.63 141.57 225.56 143.97 C 225.65 147.28 226.14 151.85 222.34 153.33 C 217.05 154.11 211.65 153.39 206.33 153.76 C 210.71 167.40 216.13 180.69 220.84 194.23 C 223.19 201.10 226.44 207.75 227.41 215.02 C 228.11 222.15 223.04 229.01 216.45 231.34 C 213.10 232.09 209.58 231.95 206.19 231.58 C 200.44 230.36 195.66 225.81 193.86 220.25 C 191.30 212.75 189.16 205.09 186.41 197.65 C 185.14 196.78 183.48 197.26 182.04 197.13 C 160.79 197.39 139.52 196.79 118.27 197.30 C 115.39 204.95 113.13 212.82 110.38 220.52 C 108.49 226.05 103.58 230.50 97.83 231.66 C 93.28 232.14 88.35 232.14 84.29 229.73 C 79.28 227.08 75.79 221.69 75.48 216.03 C 75.63 212.56 76.59 209.18 77.80 205.94 C 83.11 191.85 88.36 177.74 93.58 163.62 C 94.85 160.45 96.11 157.25 96.90 153.92 C 91.44 153.52 85.89 154.32 80.48 153.40 C 77.34 151.87 77.69 147.88 77.69 144.95 C 77.54 142.36 78.40 139.05 81.28 138.37 C 88.39 137.51 95.59 138.53 102.72 137.85 C 104.68 136.43 104.64 133.35 105.33 131.13 C 97.35 130.40 89.31 131.38 81.34 130.61 C 77.32 129.23 78.17 124.27 78.16 120.95 C 77.90 118.15 80.10 115.20 83.04 115.31 C 92.42 115.15 101.80 115.29 111.18 115.30 C 111.70 114.39 112.18 113.47 112.62 112.52 C 117.33 100.18 121.74 87.72 126.51 75.40 C 129.92 67.47 136.04 59.80 144.75 57.60 M 145.30 112.42 C 140.00 129.40 134.00 146.16 128.98 163.21 C 144.15 163.60 159.36 163.42 174.54 163.30 C 167.21 140.14 159.30 117.16 151.60 94.12 C 148.99 100.04 147.45 106.34 145.30 112.42 Z" />
</g>
<g id="#008bb3ff">
<path fill="#008bb3" opacity="1.00" d=" M 138.32 13.18 C 162.70 11.04 187.67 15.58 209.69 26.30 C 237.81 39.86 261.05 63.30 274.32 91.57 C 283.24 110.34 287.57 131.23 287.30 151.99 C 286.91 179.46 278.16 206.81 262.16 229.17 C 243.38 255.82 214.88 275.56 183.16 283.27 C 163.71 288.11 143.20 288.64 123.54 284.72 C 97.16 279.71 72.43 266.52 53.44 247.56 C 33.54 228.08 19.87 202.34 14.94 174.92 C 10.90 153.30 12.24 130.72 18.66 109.69 C 27.27 81.26 45.58 55.98 69.64 38.61 C 89.64 24.09 113.66 15.11 138.32 13.18 M 131.47 25.82 C 95.76 30.77 62.79 52.01 43.50 82.45 C 28.78 105.24 21.90 132.95 24.12 159.99 C 26.31 189.87 39.80 218.81 61.37 239.63 C 80.68 258.96 106.64 271.41 133.76 274.65 C 159.12 277.92 185.45 273.03 208.02 261.05 C 230.45 249.14 249.19 230.35 260.77 207.72 C 269.84 190.30 274.81 170.66 274.68 151.00 C 275.18 124.35 266.41 97.73 250.71 76.24 C 235.10 54.89 212.74 38.44 187.45 30.53 C 169.44 24.78 150.18 23.23 131.47 25.82 Z" />
<path fill="#008bb3" opacity="1.00" d=" M 138.32 31.18 C 164.00 28.66 190.44 34.93 212.29 48.66 C 236.73 63.76 255.35 88.01 263.56 115.54 C 270.22 137.35 270.34 161.10 264.06 183.00 C 257.52 205.84 243.98 226.57 225.73 241.77 C 205.50 258.79 179.42 268.76 152.98 269.43 C 131.88 270.08 110.56 265.18 92.06 254.95 C 67.13 241.56 47.45 218.87 37.51 192.40 C 28.26 168.10 27.21 140.73 34.76 115.84 C 42.72 89.27 60.14 65.55 83.39 50.38 C 99.75 39.60 118.79 32.82 138.32 31.18 M 144.75 57.60 C 136.04 59.80 129.92 67.47 126.51 75.40 C 121.74 87.72 117.33 100.18 112.62 112.52 C 112.18 113.47 111.70 114.39 111.18 115.30 C 101.80 115.29 92.42 115.15 83.04 115.31 C 80.10 115.20 77.90 118.15 78.16 120.95 C 78.17 124.27 77.32 129.23 81.34 130.61 C 89.31 131.38 97.35 130.40 105.33 131.13 C 104.64 133.35 104.68 136.43 102.72 137.85 C 95.59 138.53 88.39 137.51 81.28 138.37 C 78.40 139.05 77.54 142.36 77.69 144.95 C 77.69 147.88 77.34 151.87 80.48 153.40 C 85.89 154.32 91.44 153.52 96.90 153.92 C 96.11 157.25 94.85 160.45 93.58 163.62 C 88.36 177.74 83.11 191.85 77.80 205.94 C 76.59 209.18 75.63 212.56 75.48 216.03 C 75.79 221.69 79.28 227.08 84.29 229.73 C 88.35 232.14 93.28 232.14 97.83 231.66 C 103.58 230.50 108.49 226.05 110.38 220.52 C 113.13 212.82 115.39 204.95 118.27 197.30 C 139.52 196.79 160.79 197.39 182.04 197.13 C 183.48 197.26 185.14 196.78 186.41 197.65 C 189.16 205.09 191.30 212.75 193.86 220.25 C 195.66 225.81 200.44 230.36 206.19 231.58 C 209.58 231.95 213.10 232.09 216.45 231.34 C 223.04 229.01 228.11 222.15 227.41 215.02 C 226.44 207.75 223.19 201.10 220.84 194.23 C 216.13 180.69 210.71 167.40 206.33 153.76 C 211.65 153.39 217.05 154.11 222.34 153.33 C 226.14 151.85 225.65 147.28 225.56 143.97 C 225.63 141.57 224.67 138.35 221.86 138.08 C 214.69 137.33 207.45 138.10 200.25 137.65 C 199.37 135.44 198.57 133.19 198.01 130.87 C 206.20 130.35 214.43 131.20 222.59 130.47 C 227.12 128.67 225.71 122.92 225.69 119.12 C 225.73 116.17 222.58 114.83 220.05 114.90 C 210.76 114.95 201.46 115.38 192.17 114.91 C 188.20 105.34 184.99 95.46 181.31 85.76 C 178.53 77.83 175.93 69.33 169.56 63.45 C 163.21 56.98 153.27 55.63 144.75 57.60 Z" />
<path fill="#008bb3" opacity="1.00" d=" M 145.30 112.42 C 147.45 106.34 148.99 100.04 151.60 94.12 C 159.30 117.16 167.21 140.14 174.54 163.30 C 159.36 163.42 144.15 163.60 128.98 163.21 C 134.00 146.16 140.00 129.40 145.30 112.42 Z" />
</g>
</svg>
