<?xml version="1.0" encoding="UTF-8" ?>
<!DOCTYPE svg PUBLIC "-//W3C//DTD SVG 1.1//EN" "http://www.w3.org/Graphics/SVG/1.1/DTD/svg11.dtd">
<svg width="300pt" height="300pt" viewBox="0 0 300 300" version="1.1" xmlns="http://www.w3.org/2000/svg">
<g id="#0b0f2cff">
<path fill="#0b0f2c" opacity="1.00" d=" M 0.00 0.00 L 300.00 0.00 L 300.00 300.00 L 0.00 300.00 L 0.00 0.00 M 93.03 77.15 C 109.55 86.92 126.34 96.25 142.94 105.91 C 159.48 96.20 176.28 86.90 192.81 77.15 C 176.20 67.60 159.55 58.14 142.99 48.51 C 126.30 57.99 109.70 67.62 93.03 77.15 M 85.54 92.01 C 85.42 111.08 85.59 130.14 85.46 149.21 C 102.07 158.96 118.82 168.47 135.53 178.02 C 135.44 158.91 135.61 139.79 135.45 120.67 C 118.83 111.08 102.13 101.65 85.54 92.01 M 150.41 120.60 C 150.25 139.73 150.35 158.87 150.36 178.01 C 166.58 168.69 182.84 159.43 199.03 150.07 C 199.32 149.79 199.91 149.23 200.20 148.95 C 200.35 130.00 200.31 111.04 200.22 92.09 C 183.59 101.54 167.05 111.16 150.41 120.60 M 150.30 193.20 C 150.38 212.61 150.30 232.02 150.35 251.43 C 171.28 239.80 191.89 227.60 212.73 215.82 C 213.70 215.12 215.43 214.56 215.15 213.03 C 215.14 194.00 215.22 174.98 215.11 155.95 C 193.46 168.28 171.76 180.54 150.30 193.20 M 85.57 164.71 C 85.43 184.13 85.51 203.54 85.53 222.96 C 102.18 232.47 118.81 242.02 135.43 251.59 C 135.63 232.20 135.44 212.81 135.53 193.43 C 118.95 183.74 102.23 174.28 85.57 164.71 Z" />
</g>
<g id="#fffffeff">
<path fill="#fffffe" opacity="1.00" d=" M 93.03 77.15 C 109.70 67.62 126.30 57.99 142.99 48.51 C 159.55 58.14 176.20 67.60 192.81 77.15 C 176.28 86.90 159.48 96.20 142.94 105.91 C 126.34 96.25 109.55 86.92 93.03 77.15 Z" />
<path fill="#fffffe" opacity="1.00" d=" M 85.54 92.01 C 102.13 101.65 118.83 111.08 135.45 120.67 C 135.61 139.79 135.44 158.91 135.53 178.02 C 118.82 168.47 102.07 158.96 85.46 149.21 C 85.59 130.14 85.42 111.08 85.54 92.01 Z" />
<path fill="#fffffe" opacity="1.00" d=" M 150.41 120.60 C 167.05 111.16 183.59 101.54 200.22 92.09 C 200.31 111.04 200.35 130.00 200.20 148.95 C 199.91 149.23 199.32 149.79 199.03 150.07 C 182.84 159.43 166.58 168.69 150.36 178.01 C 150.35 158.87 150.25 139.73 150.41 120.60 Z" />
<path fill="#fffffe" opacity="1.00" d=" M 150.30 193.20 C 171.76 180.54 193.46 168.28 215.11 155.95 C 215.22 174.98 215.14 194.00 215.15 213.03 C 215.43 214.56 213.70 215.12 212.73 215.82 C 191.89 227.60 171.28 239.80 150.35 251.43 C 150.30 232.02 150.38 212.61 150.30 193.20 Z" />
<path fill="#fffffe" opacity="1.00" d=" M 85.57 164.71 C 102.23 174.28 118.95 183.74 135.53 193.43 C 135.44 212.81 135.63 232.20 135.43 251.59 C 118.81 242.02 102.18 232.47 85.53 222.96 C 85.51 203.54 85.43 184.13 85.57 164.71 Z" />
</g>
</svg>
