<?xml version="1.0" encoding="UTF-8" ?>
<!DOCTYPE svg PUBLIC "-//W3C//DTD SVG 1.1//EN" "http://www.w3.org/Graphics/SVG/1.1/DTD/svg11.dtd">
<svg width="300pt" height="300pt" viewBox="0 0 300 300" version="1.1" xmlns="http://www.w3.org/2000/svg">
<g id="#ececeaff">
<path fill="#ececea" opacity="1.00" d=" M 136.42 18.59 C 144.52 18.18 152.65 18.34 160.75 18.51 C 165.32 19.53 170.01 19.80 174.60 20.66 C 182.80 22.80 191.10 24.72 198.87 28.18 C 219.50 37.12 238.74 50.75 251.55 69.46 C 264.04 83.98 271.59 102.19 276.09 120.67 C 277.28 125.45 277.50 130.32 278.56 135.09 C 278.62 144.06 278.59 153.04 278.58 162.01 C 276.33 181.24 270.31 200.46 259.95 217.02 C 254.86 225.06 248.74 232.36 242.48 239.47 C 227.17 255.28 207.82 267.17 186.77 273.59 C 179.62 275.80 172.22 277.10 164.91 278.52 C 153.97 278.66 143.03 278.68 132.09 278.50 C 121.71 276.32 111.23 274.22 101.24 270.54 C 90.93 266.00 80.87 260.83 71.77 254.13 C 58.74 244.34 47.51 232.14 38.46 218.60 C 30.24 206.21 25.16 192.04 21.55 177.69 C 20.01 172.45 19.96 166.95 18.54 161.71 C 18.39 153.81 18.43 145.90 18.49 137.99 C 21.42 114.46 28.95 90.69 43.83 71.77 C 48.81 65.49 53.49 58.88 59.48 53.49 C 69.45 44.41 80.57 36.46 92.86 30.84 C 106.36 23.82 121.50 20.84 136.42 18.59 M 129.84 54.93 C 119.47 74.44 124.86 100.99 142.57 114.39 C 143.79 134.56 143.39 154.79 143.27 174.98 C 142.83 189.00 142.15 203.00 141.12 216.99 C 140.02 224.95 140.33 233.08 138.69 240.96 C 138.53 244.97 138.51 249.00 138.72 253.02 C 139.14 256.64 141.93 260.65 145.95 260.42 C 150.26 260.72 156.42 260.90 157.92 255.74 C 159.59 248.97 158.79 241.79 157.77 234.96 C 156.02 215.01 154.40 195.04 154.18 175.01 C 153.08 154.84 154.27 134.65 154.45 114.48 C 162.56 109.21 167.64 100.44 170.56 91.41 C 175.72 76.09 171.94 58.53 162.06 45.93 C 157.97 41.15 151.96 35.80 145.17 38.22 C 137.96 41.28 133.16 48.09 129.84 54.93 Z" />
</g>
<g id="#0b0b0bff">
<path fill="#0b0b0b" opacity="1.00" d=" M 141.43 3.52 C 150.81 3.03 160.22 3.56 169.54 4.66 C 183.95 7.15 198.38 10.79 211.44 17.56 C 239.53 30.67 262.60 53.50 277.45 80.57 C 295.17 114.14 299.53 154.77 288.08 191.07 C 282.65 209.61 273.32 227.01 260.71 241.68 C 243.71 262.62 220.53 278.41 195.00 286.99 C 170.20 295.22 143.23 296.57 117.68 291.18 C 109.09 288.69 100.12 287.17 92.12 282.98 C 68.57 273.18 47.82 256.88 32.56 236.45 C 20.97 221.88 13.02 204.70 8.14 186.80 C -1.47 152.13 2.97 114.09 19.17 82.07 C 30.37 61.38 46.09 42.93 65.47 29.50 C 74.82 22.65 85.35 17.71 95.90 13.03 C 110.55 7.83 125.84 4.08 141.43 3.52 M 136.42 18.59 C 121.50 20.84 106.36 23.82 92.86 30.84 C 80.57 36.46 69.45 44.41 59.48 53.49 C 53.49 58.88 48.81 65.49 43.83 71.77 C 28.95 90.69 21.42 114.46 18.49 137.99 C 18.43 145.90 18.39 153.81 18.54 161.71 C 19.96 166.95 20.01 172.45 21.55 177.69 C 25.16 192.04 30.24 206.21 38.46 218.60 C 47.51 232.14 58.74 244.34 71.77 254.13 C 80.87 260.83 90.93 266.00 101.24 270.54 C 111.23 274.22 121.71 276.32 132.09 278.50 C 143.03 278.68 153.97 278.66 164.91 278.52 C 172.22 277.10 179.62 275.80 186.77 273.59 C 207.82 267.17 227.17 255.28 242.48 239.47 C 248.74 232.36 254.86 225.06 259.95 217.02 C 270.31 200.46 276.33 181.24 278.58 162.01 C 278.59 153.04 278.62 144.06 278.56 135.09 C 277.50 130.32 277.28 125.45 276.09 120.67 C 271.59 102.19 264.04 83.98 251.55 69.46 C 238.74 50.75 219.50 37.12 198.87 28.18 C 191.10 24.72 182.80 22.80 174.60 20.66 C 170.01 19.80 165.32 19.53 160.75 18.51 C 152.65 18.34 144.52 18.18 136.42 18.59 Z" />
<path fill="#0b0b0b" opacity="1.00" d=" M 129.84 54.93 C 133.16 48.09 137.96 41.28 145.17 38.22 C 151.96 35.80 157.97 41.15 162.06 45.93 C 171.94 58.53 175.72 76.09 170.56 91.41 C 167.64 100.44 162.56 109.21 154.45 114.48 C 154.27 134.65 153.08 154.84 154.18 175.01 C 154.40 195.04 156.02 215.01 157.77 234.96 C 158.79 241.79 159.59 248.97 157.92 255.74 C 156.42 260.90 150.26 260.72 145.95 260.42 C 141.93 260.65 139.14 256.64 138.72 253.02 C 138.51 249.00 138.53 244.97 138.69 240.96 C 140.33 233.08 140.02 224.95 141.12 216.99 C 142.15 203.00 142.83 189.00 143.27 174.98 C 143.39 154.79 143.79 134.56 142.57 114.39 C 124.86 100.99 119.47 74.44 129.84 54.93 Z" />
</g>
</svg>
