<?xml version="1.0" encoding="UTF-8" ?>
<!DOCTYPE svg PUBLIC "-//W3C//DTD SVG 1.1//EN" "http://www.w3.org/Graphics/SVG/1.1/DTD/svg11.dtd">
<svg width="230pt" height="230pt" viewBox="0 0 230 230" version="1.1" xmlns="http://www.w3.org/2000/svg">
<g id="#3200f6ff">
<path fill="#3200f6" opacity="1.00" d=" M 0.00 0.00 L 230.00 0.00 L 230.00 230.00 L 0.00 230.00 L 0.00 0.00 M 151.13 111.76 C 154.80 113.22 158.53 114.57 162.26 115.88 C 168.66 99.23 174.71 82.44 180.93 65.72 C 177.28 64.15 173.54 62.82 169.80 61.49 C 163.36 78.16 157.20 94.95 151.13 111.76 M 90.25 76.53 C 93.78 86.12 101.44 93.67 110.14 98.76 C 105.15 98.68 99.85 98.47 95.33 100.96 C 101.73 103.81 109.01 102.77 115.52 100.89 C 112.17 111.09 108.09 121.04 104.50 131.16 C 108.20 132.73 111.92 134.31 115.87 135.18 C 120.86 121.50 126.10 107.90 130.96 94.17 C 127.28 92.71 123.56 91.35 119.84 90.01 C 118.45 93.49 117.13 96.99 115.80 100.49 C 110.53 89.83 101.80 80.25 90.25 76.53 M 146.78 121.64 C 141.89 135.55 136.07 149.14 131.64 163.19 C 135.76 163.60 139.91 163.63 144.04 163.46 C 149.01 150.80 153.52 137.96 158.42 125.27 C 159.22 123.32 159.71 121.27 160.07 119.20 C 156.98 117.49 153.67 115.82 150.09 115.56 C 148.04 116.87 147.72 119.57 146.78 121.64 M 64.59 130.44 C 60.79 141.40 56.30 152.12 52.80 163.18 C 56.69 163.72 60.66 163.83 64.57 163.41 C 65.72 162.41 66.08 160.85 66.68 159.52 C 69.79 151.02 72.97 142.54 76.16 134.07 C 76.59 132.59 77.52 130.98 76.72 129.45 C 74.20 127.61 71.09 126.60 68.04 126.04 C 65.68 125.97 65.42 128.82 64.59 130.44 M 101.25 139.31 C 98.87 145.94 96.49 152.57 94.04 159.17 C 93.51 160.49 93.44 161.91 93.36 163.31 C 97.09 163.57 100.86 163.86 104.58 163.42 C 105.73 162.43 106.07 160.86 106.66 159.53 C 108.57 154.14 110.53 148.78 112.50 143.42 C 112.87 142.07 113.62 140.63 113.12 139.20 C 110.46 137.26 107.20 136.22 104.02 135.52 C 102.27 135.95 101.88 137.89 101.25 139.31 Z" />
</g>
<g id="#ffffffff">
<path fill="#ffffff" opacity="1.00" d=" M 151.13 111.76 C 157.20 94.95 163.36 78.16 169.80 61.49 C 173.54 62.82 177.28 64.15 180.93 65.72 C 174.71 82.44 168.66 99.23 162.26 115.88 C 158.53 114.57 154.80 113.22 151.13 111.76 Z" />
<path fill="#ffffff" opacity="1.00" d=" M 90.25 76.53 C 101.80 80.25 110.53 89.83 115.80 100.49 C 117.13 96.99 118.45 93.49 119.84 90.01 C 123.56 91.35 127.28 92.71 130.96 94.17 C 126.10 107.90 120.86 121.50 115.87 135.18 C 111.92 134.31 108.20 132.73 104.50 131.16 C 108.09 121.04 112.17 111.09 115.52 100.89 C 109.01 102.77 101.73 103.81 95.33 100.96 C 99.85 98.47 105.15 98.68 110.14 98.76 C 101.44 93.67 93.78 86.12 90.25 76.53 Z" />
<path fill="#ffffff" opacity="1.00" d=" M 146.78 121.64 C 147.72 119.57 148.04 116.87 150.09 115.56 C 153.67 115.82 156.98 117.49 160.07 119.20 C 159.71 121.27 159.22 123.32 158.42 125.27 C 153.52 137.96 149.01 150.80 144.04 163.46 C 139.91 163.63 135.76 163.60 131.64 163.19 C 136.07 149.14 141.89 135.55 146.78 121.64 Z" />
<path fill="#ffffff" opacity="1.00" d=" M 64.59 130.44 C 65.42 128.82 65.68 125.97 68.04 126.04 C 71.09 126.60 74.20 127.61 76.72 129.45 C 77.52 130.98 76.59 132.59 76.16 134.07 C 72.97 142.54 69.79 151.02 66.68 159.52 C 66.08 160.85 65.72 162.41 64.57 163.41 C 60.66 163.83 56.69 163.72 52.80 163.18 C 56.30 152.12 60.79 141.40 64.59 130.44 Z" />
<path fill="#ffffff" opacity="1.00" d=" M 101.25 139.31 C 101.88 137.89 102.27 135.95 104.02 135.52 C 107.20 136.22 110.46 137.26 113.12 139.20 C 113.62 140.63 112.87 142.07 112.50 143.42 C 110.53 148.78 108.57 154.14 106.66 159.53 C 106.07 160.86 105.73 162.43 104.58 163.42 C 100.86 163.86 97.09 163.57 93.36 163.31 C 93.44 161.91 93.51 160.49 94.04 159.17 C 96.49 152.57 98.87 145.94 101.25 139.31 Z" />
</g>
</svg>
