<?xml version="1.0" encoding="UTF-8" ?>
<!DOCTYPE svg PUBLIC "-//W3C//DTD SVG 1.1//EN" "http://www.w3.org/Graphics/SVG/1.1/DTD/svg11.dtd">
<svg width="300pt" height="300pt" viewBox="0 0 300 300" version="1.1" xmlns="http://www.w3.org/2000/svg">
<g id="#ffffffff">
<path fill="#ffffff" opacity="1.00" d=" M 0.00 0.00 L 300.00 0.00 L 300.00 300.00 L 0.00 300.00 L 0.00 0.00 M 100.77 31.57 C 121.04 40.72 140.79 52.54 154.92 70.08 C 166.69 84.63 174.56 103.21 173.37 122.17 C 184.77 122.34 196.18 122.36 207.58 122.16 C 208.77 88.77 193.59 56.15 169.82 33.16 C 168.95 32.39 168.06 31.40 166.78 31.56 C 144.78 31.56 122.77 31.52 100.77 31.57 M 125.05 92.27 C 125.27 126.64 125.07 161.02 125.16 195.40 C 139.34 186.37 153.52 177.35 167.62 168.20 C 154.08 144.09 140.78 119.85 127.33 95.69 C 126.65 94.50 125.86 93.37 125.05 92.27 M 98.59 211.73 C 98.65 224.94 98.47 238.16 98.68 251.37 C 99.20 251.32 100.25 251.23 100.77 251.19 C 100.86 245.18 100.74 239.18 100.80 233.17 C 102.71 233.17 104.63 233.17 106.54 233.22 C 108.51 239.10 110.14 245.10 112.38 250.88 C 112.98 251.10 114.19 251.53 114.79 251.74 C 113.20 245.42 110.71 239.36 108.80 233.13 C 111.22 231.49 113.33 229.10 113.42 226.02 C 113.66 221.57 114.25 215.84 110.25 212.80 C 106.64 211.01 102.46 211.95 98.59 211.73 M 127.45 212.32 C 124.42 225.32 121.74 238.41 119.01 251.47 C 119.53 251.44 120.55 251.39 121.07 251.36 C 122.83 247.71 122.75 243.39 123.75 239.47 C 126.80 239.44 129.86 239.47 132.91 239.40 C 134.04 243.35 134.10 247.64 135.79 251.40 C 136.31 251.42 137.36 251.46 137.89 251.47 C 135.27 239.00 132.67 226.51 130.02 214.04 C 129.99 212.69 128.70 210.25 127.45 212.32 M 142.11 211.77 C 142.19 224.89 142.04 238.02 142.17 251.14 C 142.71 251.26 143.78 251.50 144.32 251.63 C 144.40 238.34 144.32 225.05 144.36 211.76 C 143.80 211.76 142.67 211.77 142.11 211.77 M 152.27 211.79 C 152.32 224.96 152.39 238.14 152.24 251.31 C 156.89 251.22 163.20 252.84 166.12 248.07 C 168.53 242.75 167.32 236.66 167.67 231.00 C 167.34 225.66 168.49 219.87 166.02 214.91 C 163.00 210.35 156.87 211.96 152.27 211.79 M 173.84 211.77 C 173.85 224.98 173.82 238.19 173.85 251.40 C 178.07 251.29 182.33 251.73 186.52 251.18 C 186.65 250.75 186.90 249.87 187.03 249.44 C 183.41 249.29 179.79 249.37 176.17 249.34 C 176.20 243.77 176.19 238.20 176.17 232.64 C 179.03 232.59 181.90 232.76 184.75 232.56 C 184.98 232.09 185.44 231.17 185.67 230.71 C 182.52 230.55 179.36 230.61 176.20 230.64 C 176.17 225.01 176.18 219.39 176.20 213.76 C 179.71 213.72 183.22 213.76 186.74 213.72 C 186.74 213.24 186.74 212.27 186.74 211.79 C 182.44 211.74 178.14 211.76 173.84 211.77 M 192.27 211.58 C 192.27 224.77 192.23 237.96 192.28 251.16 C 192.82 251.21 193.89 251.33 194.42 251.39 C 194.75 240.51 194.37 229.63 194.58 218.75 C 198.14 227.58 200.89 236.73 204.12 245.69 C 205.13 248.00 205.22 251.47 208.32 251.92 C 208.90 238.69 208.54 225.41 208.53 212.17 C 208.01 211.98 206.99 211.59 206.48 211.39 C 206.22 222.34 206.56 233.30 206.32 244.24 C 201.97 233.71 198.94 222.66 194.73 212.08 C 194.12 211.95 192.88 211.70 192.27 211.58 Z" />
<path fill="#ffffff" opacity="1.00" d=" M 100.80 213.75 C 104.05 213.86 108.70 212.81 110.38 216.51 C 111.74 220.31 111.75 224.69 110.36 228.48 C 108.66 232.13 104.03 231.06 100.81 231.21 C 100.77 225.39 100.80 219.57 100.80 213.75 Z" />
<path fill="#ffffff" opacity="1.00" d=" M 154.53 213.72 C 157.86 213.87 162.62 212.83 164.36 216.60 C 166.02 221.20 165.17 226.22 165.44 231.01 C 165.19 236.13 166.01 241.45 164.43 246.41 C 162.76 250.33 157.89 249.22 154.53 249.36 C 154.51 237.48 154.50 225.60 154.53 213.72 Z" />
<path fill="#ffffff" opacity="1.00" d=" M 124.29 237.38 C 125.65 230.59 126.79 223.75 128.45 217.02 C 129.92 223.79 131.22 230.59 132.58 237.38 C 129.81 237.40 127.05 237.39 124.29 237.38 Z" />
</g>
<g id="#030708ff">
<path fill="#030708" opacity="1.00" d=" M 100.77 31.57 C 122.77 31.52 144.78 31.56 166.78 31.56 C 168.06 31.40 168.95 32.39 169.82 33.16 C 193.59 56.15 208.77 88.77 207.58 122.16 C 196.18 122.36 184.77 122.34 173.37 122.17 C 174.56 103.21 166.69 84.63 154.92 70.08 C 140.79 52.54 121.04 40.72 100.77 31.57 Z" />
<path fill="#030708" opacity="1.00" d=" M 125.05 92.27 C 125.86 93.37 126.65 94.50 127.33 95.69 C 140.78 119.85 154.08 144.09 167.62 168.20 C 153.52 177.35 139.34 186.37 125.16 195.40 C 125.07 161.02 125.27 126.64 125.05 92.27 Z" />
<path fill="#030708" opacity="1.00" d=" M 98.59 211.73 C 102.46 211.95 106.64 211.01 110.25 212.80 C 114.25 215.84 113.66 221.57 113.42 226.02 C 113.33 229.10 111.22 231.49 108.80 233.13 C 110.71 239.36 113.20 245.42 114.79 251.74 C 114.19 251.53 112.98 251.10 112.38 250.88 C 110.14 245.10 108.51 239.10 106.54 233.22 C 104.63 233.17 102.71 233.17 100.80 233.17 C 100.74 239.18 100.86 245.18 100.77 251.19 C 100.25 251.23 99.20 251.32 98.68 251.37 C 98.47 238.16 98.65 224.94 98.59 211.73 M 100.80 213.75 C 100.80 219.57 100.77 225.39 100.81 231.21 C 104.03 231.06 108.66 232.13 110.36 228.48 C 111.75 224.69 111.74 220.31 110.38 216.51 C 108.70 212.81 104.05 213.86 100.80 213.75 Z" />
<path fill="#030708" opacity="1.00" d=" M 127.45 212.32 C 128.70 210.25 129.99 212.69 130.02 214.04 C 132.67 226.51 135.27 239.00 137.89 251.47 C 137.36 251.46 136.31 251.42 135.79 251.40 C 134.10 247.64 134.04 243.35 132.91 239.40 C 129.86 239.47 126.80 239.44 123.75 239.47 C 122.75 243.39 122.83 247.71 121.07 251.36 C 120.55 251.39 119.53 251.44 119.01 251.47 C 121.74 238.41 124.42 225.32 127.45 212.32 M 124.29 237.38 C 127.05 237.39 129.81 237.40 132.58 237.38 C 131.22 230.59 129.92 223.79 128.45 217.02 C 126.79 223.75 125.65 230.59 124.29 237.38 Z" />
<path fill="#030708" opacity="1.00" d=" M 142.11 211.77 C 142.67 211.77 143.80 211.76 144.36 211.76 C 144.32 225.05 144.40 238.34 144.32 251.63 C 143.78 251.50 142.71 251.26 142.17 251.14 C 142.04 238.02 142.19 224.89 142.11 211.77 Z" />
<path fill="#030708" opacity="1.00" d=" M 152.27 211.79 C 156.87 211.96 163.00 210.35 166.02 214.91 C 168.49 219.87 167.34 225.66 167.67 231.00 C 167.32 236.66 168.53 242.75 166.12 248.07 C 163.20 252.84 156.89 251.22 152.24 251.31 C 152.39 238.14 152.32 224.96 152.27 211.79 M 154.53 213.72 C 154.50 225.60 154.51 237.48 154.53 249.36 C 157.89 249.22 162.76 250.33 164.43 246.41 C 166.01 241.45 165.19 236.13 165.44 231.01 C 165.17 226.22 166.02 221.20 164.36 216.60 C 162.62 212.83 157.86 213.87 154.53 213.72 Z" />
<path fill="#030708" opacity="1.00" d=" M 173.84 211.77 C 178.14 211.76 182.44 211.74 186.74 211.79 C 186.74 212.27 186.74 213.24 186.74 213.72 C 183.22 213.76 179.71 213.72 176.20 213.76 C 176.18 219.39 176.17 225.01 176.20 230.64 C 179.36 230.61 182.52 230.55 185.67 230.71 C 185.44 231.17 184.98 232.09 184.75 232.56 C 181.90 232.76 179.03 232.59 176.17 232.64 C 176.19 238.20 176.20 243.77 176.17 249.34 C 179.79 249.37 183.41 249.29 187.03 249.44 C 186.90 249.87 186.65 250.75 186.52 251.18 C 182.33 251.73 178.07 251.29 173.85 251.40 C 173.82 238.19 173.85 224.98 173.84 211.77 Z" />
<path fill="#030708" opacity="1.00" d=" M 192.27 211.58 C 192.88 211.70 194.12 211.95 194.73 212.08 C 198.94 222.66 201.97 233.71 206.32 244.24 C 206.56 233.30 206.22 222.34 206.48 211.39 C 206.99 211.59 208.01 211.98 208.53 212.17 C 208.54 225.41 208.90 238.69 208.32 251.92 C 205.22 251.47 205.13 248.00 204.12 245.69 C 200.89 236.73 198.14 227.58 194.58 218.75 C 194.37 229.63 194.75 240.51 194.42 251.39 C 193.89 251.33 192.82 251.21 192.28 251.16 C 192.23 237.96 192.27 224.77 192.27 211.58 Z" />
</g>
</svg>
