<?xml version="1.0" encoding="UTF-8" ?>
<!DOCTYPE svg PUBLIC "-//W3C//DTD SVG 1.1//EN" "http://www.w3.org/Graphics/SVG/1.1/DTD/svg11.dtd">
<svg width="300pt" height="300pt" viewBox="0 0 300 300" version="1.1" xmlns="http://www.w3.org/2000/svg">
<g id="#ffffffff">
<path fill="#ffffff" opacity="1.00" d=" M 0.00 0.00 L 300.00 0.00 L 300.00 300.00 L 0.00 300.00 L 0.00 0.00 M 22.12 153.76 C 26.25 157.33 30.31 160.97 34.60 164.34 C 61.15 185.35 93.49 198.88 127.05 203.23 C 163.82 208.10 202.05 202.02 235.33 185.56 C 252.31 177.57 267.77 166.54 281.54 153.82 C 280.74 152.82 279.95 151.83 279.07 150.91 C 262.74 134.58 246.20 118.47 229.99 102.01 C 228.83 100.85 227.66 99.64 226.13 98.98 C 225.37 97.74 224.49 96.57 223.44 95.56 C 199.48 71.87 175.93 47.77 151.86 24.19 C 108.84 67.60 65.18 110.38 22.12 153.76 M 199.89 217.93 C 198.51 218.51 197.15 219.13 195.82 219.83 C 170.65 233.39 142.20 240.60 113.65 241.18 C 114.35 242.19 115.12 243.16 116.02 244.02 C 128.09 255.78 139.76 267.96 151.95 279.60 C 166.51 265.61 180.45 251.00 194.94 236.93 C 196.42 235.48 197.86 233.96 199.19 232.37 C 205.76 226.87 211.15 220.13 216.68 213.63 C 219.26 210.35 222.13 207.27 224.23 203.63 C 216.08 208.31 207.90 213.04 199.89 217.93 Z" />
<path fill="#ffffff" opacity="1.00" d=" M 33.62 152.50 C 73.09 113.20 112.43 73.77 151.97 34.55 C 173.14 55.42 194.04 76.58 215.24 97.43 C 221.22 103.89 227.68 109.88 233.88 116.12 C 246.25 128.48 258.57 140.90 271.08 153.12 C 259.24 164.09 245.24 172.53 230.89 179.81 C 200.35 194.39 165.71 200.30 132.08 196.55 C 96.50 192.83 62.31 178.04 34.88 155.13 C 34.30 154.46 32.41 153.46 33.62 152.50 M 70.73 151.70 C 68.87 152.64 66.44 152.76 65.06 154.45 C 104.83 152.96 144.92 163.38 178.98 183.95 C 181.37 186.05 184.46 184.36 187.18 184.00 C 207.10 179.89 226.22 171.90 243.26 160.81 C 240.80 158.75 237.82 157.49 235.04 155.95 C 219.93 148.07 203.74 142.11 187.00 138.82 C 148.15 130.58 107.04 136.07 70.73 151.70 Z" />
<path fill="#ffffff" opacity="1.00" d=" M 117.40 145.25 C 140.64 140.88 164.70 141.38 187.81 146.28 C 201.81 149.72 215.76 154.07 228.45 161.00 C 215.88 168.34 201.94 172.89 187.95 176.67 C 186.12 176.97 184.23 177.67 182.37 177.31 C 179.67 176.22 177.29 174.50 174.73 173.16 C 152.13 160.69 127.16 152.65 101.64 149.01 C 106.67 146.97 112.11 146.34 117.40 145.25 Z" />
<path fill="#ffffff" opacity="1.00" d=" M 178.00 235.98 C 182.14 234.49 186.06 232.48 190.16 230.90 C 188.41 233.52 185.95 235.53 183.76 237.76 C 173.18 248.30 162.64 258.88 152.00 269.36 C 144.64 262.23 137.45 254.92 130.18 247.70 C 146.45 245.46 162.69 242.08 178.00 235.98 Z" />
</g>
<g id="#0061ffff">
<path fill="#0061ff" opacity="1.00" d=" M 22.12 153.76 C 65.18 110.38 108.84 67.60 151.86 24.19 C 175.93 47.77 199.48 71.87 223.44 95.56 C 224.49 96.57 225.37 97.74 226.13 98.98 C 220.66 96.84 217.81 91.29 213.14 88.02 C 212.84 88.52 212.24 89.53 211.94 90.03 C 213.24 92.38 215.62 94.52 215.24 97.43 C 194.04 76.58 173.14 55.42 151.97 34.55 C 112.43 73.77 73.09 113.20 33.62 152.50 C 32.41 153.46 34.30 154.46 34.88 155.13 C 62.31 178.04 96.50 192.83 132.08 196.55 C 165.71 200.30 200.35 194.39 230.89 179.81 C 231.01 180.28 231.25 181.21 231.37 181.68 C 230.12 182.76 228.91 183.89 227.76 185.08 C 230.19 186.63 233.32 183.53 235.33 185.56 C 202.05 202.02 163.82 208.10 127.05 203.23 C 93.49 198.88 61.15 185.35 34.60 164.34 C 30.31 160.97 26.25 157.33 22.12 153.76 Z" />
<path fill="#0061ff" opacity="1.00" d=" M 70.73 151.70 C 107.04 136.07 148.15 130.58 187.00 138.82 C 186.80 140.11 186.60 141.39 186.41 142.68 C 187.56 143.77 188.69 144.88 189.81 146.00 C 189.31 146.07 188.31 146.21 187.81 146.28 C 164.70 141.38 140.64 140.88 117.40 145.25 C 112.11 146.34 106.67 146.97 101.64 149.01 C 127.16 152.65 152.13 160.69 174.73 173.16 C 177.29 174.50 179.67 176.22 182.37 177.31 C 184.23 177.67 186.12 176.97 187.95 176.67 C 186.32 178.12 184.74 179.62 183.13 181.09 C 184.49 182.05 185.84 183.02 187.18 184.00 C 184.46 184.36 181.37 186.05 178.98 183.95 C 144.92 163.38 104.83 152.96 65.06 154.45 C 66.44 152.76 68.87 152.64 70.73 151.70 Z" />
<path fill="#0061ff" opacity="1.00" d=" M 195.82 219.83 C 197.15 219.13 198.51 218.51 199.89 217.93 C 198.23 219.95 196.46 221.96 195.36 224.37 C 194.45 227.07 194.94 229.97 195.06 232.76 C 196.44 232.63 197.82 232.52 199.19 232.37 C 197.86 233.96 196.42 235.48 194.94 236.93 C 180.45 251.00 166.51 265.61 151.95 279.60 C 139.76 267.96 128.09 255.78 116.02 244.02 C 115.12 243.16 114.35 242.19 113.65 241.18 C 142.20 240.60 170.65 233.39 195.82 219.83 M 178.00 235.98 C 162.69 242.08 146.45 245.46 130.18 247.70 C 137.45 254.92 144.64 262.23 152.00 269.36 C 162.64 258.88 173.18 248.30 183.76 237.76 C 185.95 235.53 188.41 233.52 190.16 230.90 C 186.06 232.48 182.14 234.49 178.00 235.98 Z" />
</g>
<g id="#009effff">
<path fill="#009eff" opacity="1.00" d=" M 213.14 88.02 C 217.81 91.29 220.66 96.84 226.13 98.98 C 227.66 99.64 228.83 100.85 229.99 102.01 C 246.20 118.47 262.74 134.58 279.07 150.91 C 279.95 151.83 280.74 152.82 281.54 153.82 C 267.77 166.54 252.31 177.57 235.33 185.56 C 233.32 183.53 230.19 186.63 227.76 185.08 C 228.91 183.89 230.12 182.76 231.37 181.68 C 231.25 181.21 231.01 180.28 230.89 179.81 C 245.24 172.53 259.24 164.09 271.08 153.12 C 258.57 140.90 246.25 128.48 233.88 116.12 C 227.68 109.88 221.22 103.89 215.24 97.43 C 215.62 94.52 213.24 92.38 211.94 90.03 C 212.24 89.53 212.84 88.52 213.14 88.02 Z" />
<path fill="#009eff" opacity="1.00" d=" M 187.00 138.82 C 203.74 142.11 219.93 148.07 235.04 155.95 C 237.82 157.49 240.80 158.75 243.26 160.81 C 226.22 171.90 207.10 179.89 187.18 184.00 C 185.84 183.02 184.49 182.05 183.13 181.09 C 184.74 179.62 186.32 178.12 187.95 176.67 C 201.94 172.89 215.88 168.34 228.45 161.00 C 215.76 154.07 201.81 149.72 187.81 146.28 C 188.31 146.21 189.31 146.07 189.81 146.00 C 188.69 144.88 187.56 143.77 186.41 142.68 C 186.60 141.39 186.80 140.11 187.00 138.82 Z" />
<path fill="#009eff" opacity="1.00" d=" M 199.89 217.93 C 207.90 213.04 216.08 208.31 224.23 203.63 C 222.13 207.27 219.26 210.35 216.68 213.63 C 211.15 220.13 205.76 226.87 199.19 232.37 C 197.82 232.52 196.44 232.63 195.06 232.76 C 194.94 229.97 194.45 227.07 195.36 224.37 C 196.46 221.96 198.23 219.95 199.89 217.93 Z" />
</g>
</svg>
