<?xml version="1.0" encoding="UTF-8" ?>
<!DOCTYPE svg PUBLIC "-//W3C//DTD SVG 1.1//EN" "http://www.w3.org/Graphics/SVG/1.1/DTD/svg11.dtd">
<svg width="211pt" height="238pt" viewBox="0 0 211 238" version="1.1" xmlns="http://www.w3.org/2000/svg">
<g id="#ffffffff">
<path fill="#ffffff" opacity="1.00" d=" M 0.00 0.00 L 211.00 0.00 L 211.00 65.81 C 202.19 58.87 193.73 51.43 184.40 45.20 C 182.07 47.83 179.98 50.66 178.17 53.67 C 184.94 59.87 192.69 64.91 199.01 71.63 C 198.96 83.67 198.91 95.72 199.02 107.77 C 199.15 112.41 199.12 117.06 198.76 121.69 C 191.79 126.48 184.38 130.60 177.38 135.35 C 169.90 140.34 161.93 144.59 154.72 149.97 C 156.35 153.11 158.24 156.12 160.26 159.03 C 167.90 154.94 174.99 149.93 182.43 145.50 C 191.96 139.56 201.56 133.72 211.00 127.63 L 211.00 238.00 L 0.00 238.00 L 0.00 175.92 C 8.69 182.20 17.51 188.31 26.28 194.48 C 28.88 191.91 31.09 188.99 32.97 185.87 C 26.15 180.26 18.54 175.71 11.44 170.47 C 11.03 164.02 11.24 157.56 11.25 151.11 C 11.31 143.34 11.41 135.57 11.32 127.81 C 11.35 125.39 11.45 122.97 11.54 120.55 C 21.31 116.15 30.76 111.09 40.39 106.42 C 43.24 105.04 45.91 103.18 48.98 102.34 C 53.78 103.10 57.97 105.79 62.44 107.53 C 70.31 110.66 77.83 114.64 85.89 117.29 C 86.04 113.99 86.08 110.68 86.05 107.38 C 86.05 105.55 86.06 103.73 86.07 101.90 C 86.11 98.21 86.11 94.52 86.07 90.84 C 85.61 90.85 84.69 90.86 84.23 90.87 C 72.84 90.46 61.45 90.78 50.06 90.56 C 46.38 90.28 43.21 92.39 40.10 94.05 C 31.92 98.66 23.39 102.60 15.18 107.15 C 10.33 109.75 5.14 111.74 0.65 114.99 C 0.44 120.24 0.50 125.50 0.51 130.76 C 0.45 137.71 0.50 144.66 0.00 151.59 L 0.00 94.58 C 3.69 94.62 7.37 94.63 11.06 94.69 C 11.43 84.33 11.38 73.95 11.12 63.58 C 24.77 54.91 38.63 46.55 52.46 38.17 C 55.58 36.25 58.71 34.35 61.96 32.64 C 66.66 34.98 71.22 37.59 75.81 40.14 C 84.82 45.18 93.52 50.79 102.81 55.31 C 104.65 52.29 106.35 49.18 107.91 46.00 C 101.58 41.83 94.68 38.64 88.18 34.76 C 83.36 31.89 78.47 29.15 73.58 26.41 C 69.72 24.27 66.12 21.54 61.93 20.07 C 60.45 20.28 59.19 21.17 57.92 21.88 C 50.54 26.50 42.95 30.80 35.66 35.57 C 23.94 42.60 12.22 49.69 0.66 56.99 C 0.60 59.00 0.54 61.01 0.52 63.03 C 0.40 72.82 0.69 82.62 0.00 92.40 L 0.00 0.00 M 98.31 3.24 C 91.41 7.08 84.21 10.46 77.72 14.97 C 80.88 17.29 84.17 19.69 87.96 20.82 C 93.02 18.90 97.32 15.42 102.40 13.52 C 103.58 12.84 104.74 13.93 105.77 14.40 C 116.19 20.72 126.73 26.84 137.28 32.95 C 142.54 35.30 146.82 39.73 152.56 40.91 C 152.38 45.50 152.40 50.09 152.53 54.67 C 152.42 66.42 152.45 78.17 152.49 89.92 C 142.72 91.14 132.80 89.77 122.98 90.61 C 122.91 94.08 122.92 97.56 123.01 101.03 C 122.99 102.99 123.00 104.94 123.01 106.90 C 122.93 110.54 122.90 114.19 123.04 117.83 C 130.58 114.86 138.29 112.18 145.48 108.43 C 148.15 108.39 150.53 106.84 152.98 105.92 C 156.36 104.23 160.22 103.60 163.36 101.42 C 163.20 86.01 163.35 70.59 163.24 55.17 C 163.27 48.81 163.57 42.43 163.12 36.08 C 158.66 31.32 151.89 29.53 146.66 25.69 C 138.48 21.11 130.61 16.00 122.39 11.48 C 116.64 8.32 111.28 4.47 105.37 1.61 C 102.92 0.17 100.50 2.30 98.31 3.24 M 64.15 126.09 C 72.20 134.30 79.74 142.99 87.92 151.08 C 90.91 154.49 94.76 157.19 97.13 161.11 C 97.77 171.38 96.66 181.75 97.62 191.99 C 110.31 201.38 122.78 211.07 135.26 220.74 C 136.20 221.33 137.42 222.73 138.57 221.66 C 150.00 213.77 161.20 205.52 172.54 197.49 C 179.73 192.09 187.36 187.31 194.42 181.74 C 195.94 180.85 197.39 179.86 198.82 178.84 C 199.26 169.16 199.67 159.47 199.99 149.78 C 195.98 149.56 191.97 149.47 187.97 149.61 C 187.70 157.33 188.44 165.09 187.75 172.78 C 185.36 175.86 180.74 176.79 178.59 180.33 C 177.44 180.11 176.58 181.24 175.63 181.70 C 163.54 190.23 151.68 199.09 139.50 207.49 C 137.82 209.13 135.99 207.36 134.61 206.30 C 129.11 201.83 123.39 197.63 117.77 193.30 C 114.26 190.60 110.11 188.43 107.82 184.47 C 108.70 176.51 107.42 168.42 108.58 160.51 C 111.27 157.63 114.12 154.90 116.58 151.81 C 124.94 143.81 132.74 135.21 140.57 126.67 C 138.48 125.84 136.21 125.94 134.00 125.94 C 110.72 126.12 87.43 125.81 64.15 126.09 M 44.13 151.23 C 43.80 155.39 43.68 159.59 44.08 163.75 C 43.65 178.54 44.13 193.33 43.84 208.12 L 44.39 207.67 C 50.13 211.52 56.60 214.07 62.65 217.37 C 75.07 223.64 87.45 230.00 99.91 236.20 C 102.63 237.96 105.64 236.19 108.30 235.26 C 113.47 233.14 118.67 231.10 123.78 228.86 C 122.59 225.45 121.25 222.09 119.84 218.77 C 114.15 220.79 108.72 223.45 102.96 225.25 C 93.03 220.52 83.34 215.32 73.42 210.55 C 69.33 208.70 65.60 205.87 61.25 204.73 C 59.51 203.44 57.56 202.48 55.76 201.28 C 54.78 200.14 55.19 198.45 55.00 197.07 C 54.98 187.99 55.01 178.91 54.98 169.83 C 55.18 163.62 54.59 157.38 55.40 151.20 C 51.64 151.25 47.88 151.14 44.13 151.23 Z" />
</g>
<g id="#f7df32ff">
<path fill="#f7df32" opacity="1.00" d=" M 98.31 3.24 C 100.50 2.30 102.92 0.17 105.37 1.61 C 111.28 4.47 116.64 8.32 122.39 11.48 C 130.61 16.00 138.48 21.11 146.66 25.69 C 146.15 27.55 145.67 29.41 145.18 31.28 C 144.28 29.91 143.38 28.54 142.49 27.17 C 140.15 28.50 137.76 30.09 137.28 32.95 C 126.73 26.84 116.19 20.72 105.77 14.40 C 104.74 13.93 103.58 12.84 102.40 13.52 C 97.32 15.42 93.02 18.90 87.96 20.82 C 84.17 19.69 80.88 17.29 77.72 14.97 C 84.21 10.46 91.41 7.08 98.31 3.24 Z" />
<path fill="#f7df32" opacity="1.00" d=" M 57.92 21.88 C 59.19 21.17 60.45 20.28 61.93 20.07 C 66.12 21.54 69.72 24.27 73.58 26.41 C 78.47 29.15 83.36 31.89 88.18 34.76 C 83.56 35.70 78.90 36.39 74.23 36.97 C 74.75 38.03 75.28 39.08 75.81 40.14 C 71.22 37.59 66.66 34.98 61.96 32.64 C 58.71 34.35 55.58 36.25 52.46 38.17 C 52.47 37.57 52.48 36.37 52.48 35.77 C 46.87 35.46 41.25 36.35 35.66 35.57 C 42.95 30.80 50.54 26.50 57.92 21.88 Z" />
<path fill="#f7df32" opacity="1.00" d=" M 184.40 45.20 C 193.73 51.43 202.19 58.87 211.00 65.81 L 211.00 69.43 C 206.97 69.96 202.95 70.60 199.01 71.63 C 192.69 64.91 184.94 59.87 178.17 53.67 C 179.98 50.66 182.07 47.83 184.40 45.20 Z" />
<path fill="#f7df32" opacity="1.00" d=" M 40.10 94.05 C 43.21 92.39 46.38 90.28 50.06 90.56 C 61.45 90.78 72.84 90.46 84.23 90.87 C 80.07 92.40 75.99 94.16 71.69 95.24 C 68.64 95.97 65.23 96.37 63.13 98.98 C 70.63 102.10 78.20 105.24 86.05 107.38 C 86.08 110.68 86.04 113.99 85.89 117.29 C 77.83 114.64 70.31 110.66 62.44 107.53 C 57.97 105.79 53.78 103.10 48.98 102.34 C 45.91 103.18 43.24 105.04 40.39 106.42 C 30.76 111.09 21.31 116.15 11.54 120.55 C 11.45 122.97 11.35 125.39 11.32 127.81 C 7.65 128.53 4.02 129.47 0.51 130.76 C 0.50 125.50 0.44 120.24 0.65 114.99 C 5.14 111.74 10.33 109.75 15.18 107.15 C 23.39 102.60 31.92 98.66 40.10 94.05 Z" />
<path fill="#f7df32" opacity="1.00" d=" M 122.98 90.61 C 134.22 93.32 145.30 96.67 156.34 100.10 C 155.59 100.82 154.85 101.54 154.10 102.27 C 144.06 98.98 133.35 101.25 123.01 101.03 C 122.92 97.56 122.91 94.08 122.98 90.61 Z" />
<path fill="#f7df32" opacity="1.00" d=" M 64.15 126.09 C 87.43 125.81 110.72 126.12 134.00 125.94 C 136.21 125.94 138.48 125.84 140.57 126.67 C 132.74 135.21 124.94 143.81 116.58 151.81 C 115.01 150.82 113.48 149.49 111.55 149.34 C 103.64 148.61 95.69 149.59 87.92 151.08 C 79.74 142.99 72.20 134.30 64.15 126.09 Z" />
<path fill="#f7df32" opacity="1.00" d=" M 44.13 151.23 C 47.88 151.14 51.64 151.25 55.40 151.20 C 54.59 157.38 55.18 163.62 54.98 169.83 C 52.52 169.24 50.03 168.77 47.53 168.41 C 47.23 170.33 46.92 172.24 46.60 174.16 C 45.41 170.79 44.49 167.31 44.08 163.75 C 43.68 159.59 43.80 155.39 44.13 151.23 Z" />
</g>
<g id="#f6be2fff">
<path fill="#f6be2f" opacity="1.00" d=" M 145.18 31.28 C 145.67 29.41 146.15 27.55 146.66 25.69 C 151.89 29.53 158.66 31.32 163.12 36.08 C 163.57 42.43 163.27 48.81 163.24 55.17 C 159.71 54.50 156.07 53.50 152.53 54.67 C 152.40 50.09 152.38 45.50 152.56 40.91 C 146.82 39.73 142.54 35.30 137.28 32.95 C 137.76 30.09 140.15 28.50 142.49 27.17 C 143.38 28.54 144.28 29.91 145.18 31.28 Z" />
<path fill="#f6be2f" opacity="1.00" d=" M 35.66 35.57 C 41.25 36.35 46.87 35.46 52.48 35.77 C 52.48 36.37 52.47 37.57 52.46 38.17 C 38.63 46.55 24.77 54.91 11.12 63.58 C 7.60 64.41 4.00 63.73 0.52 63.03 C 0.54 61.01 0.60 59.00 0.66 56.99 C 12.22 49.69 23.94 42.60 35.66 35.57 Z" />
<path fill="#f6be2f" opacity="1.00" d=" M 74.23 36.97 C 78.90 36.39 83.56 35.70 88.18 34.76 C 94.68 38.64 101.58 41.83 107.91 46.00 C 106.35 49.18 104.65 52.29 102.81 55.31 C 93.52 50.79 84.82 45.18 75.81 40.14 C 75.28 39.08 74.75 38.03 74.23 36.97 Z" />
<path fill="#f6be2f" opacity="1.00" d=" M 199.01 71.63 C 202.95 70.60 206.97 69.96 211.00 69.43 L 211.00 107.03 C 206.99 106.99 202.98 107.16 199.02 107.77 C 198.91 95.72 198.96 83.67 199.01 71.63 Z" />
<path fill="#f6be2f" opacity="1.00" d=" M 63.13 98.98 C 65.23 96.37 68.64 95.97 71.69 95.24 C 76.07 98.29 81.27 99.70 86.07 101.90 C 86.06 103.73 86.05 105.55 86.05 107.38 C 78.20 105.24 70.63 102.10 63.13 98.98 Z" />
<path fill="#f6be2f" opacity="1.00" d=" M 156.34 100.10 C 158.67 100.60 161.02 100.97 163.36 101.42 C 160.22 103.60 156.36 104.23 152.98 105.92 C 150.53 106.84 148.15 108.39 145.48 108.43 C 138.02 107.45 130.44 108.25 123.01 106.90 C 123.00 104.94 122.99 102.99 123.01 101.03 C 133.35 101.25 144.06 98.98 154.10 102.27 C 154.85 101.54 155.59 100.82 156.34 100.10 Z" />
<path fill="#f6be2f" opacity="1.00" d=" M 0.51 130.76 C 4.02 129.47 7.65 128.53 11.32 127.81 C 11.41 135.57 11.31 143.34 11.25 151.11 C 8.29 151.95 5.32 152.75 2.34 153.48 C 1.43 155.75 0.57 158.03 0.00 160.41 L 0.00 151.59 C 0.50 144.66 0.45 137.71 0.51 130.76 Z" />
<path fill="#f6be2f" opacity="1.00" d=" M 87.92 151.08 C 95.69 149.59 103.64 148.61 111.55 149.34 C 113.48 149.49 115.01 150.82 116.58 151.81 C 114.12 154.90 111.27 157.63 108.58 160.51 C 107.42 168.42 108.70 176.51 107.82 184.47 C 107.24 184.68 106.67 184.90 106.10 185.12 C 103.60 183.82 100.83 183.23 98.04 183.88 C 97.90 186.58 97.79 189.29 97.62 191.99 C 96.66 181.75 97.77 171.38 97.13 161.11 C 94.76 157.19 90.91 154.49 87.92 151.08 Z" />
<path fill="#f6be2f" opacity="1.00" d=" M 187.97 149.61 C 191.97 149.47 195.98 149.56 199.99 149.78 C 199.67 159.47 199.26 169.16 198.82 178.84 C 197.39 179.86 195.94 180.85 194.42 181.74 C 193.90 181.07 193.38 180.41 192.87 179.75 C 188.17 180.67 183.32 181.46 178.59 180.33 C 180.74 176.79 185.36 175.86 187.75 172.78 C 188.44 165.09 187.70 157.33 187.97 149.61 Z" />
<path fill="#f6be2f" opacity="1.00" d=" M 44.08 163.75 C 44.49 167.31 45.41 170.79 46.60 174.16 C 46.92 172.24 47.23 170.33 47.53 168.41 C 50.03 168.77 52.52 169.24 54.98 169.83 C 55.01 178.91 54.98 187.99 55.00 197.07 C 55.19 198.45 54.78 200.14 55.76 201.28 C 57.56 202.48 59.51 203.44 61.25 204.73 C 59.70 205.16 58.20 205.77 56.62 206.02 C 54.04 205.92 51.63 204.70 49.05 204.61 C 47.26 205.21 45.85 206.53 44.39 207.67 L 43.84 208.12 C 44.13 193.33 43.65 178.54 44.08 163.75 Z" />
</g>
<g id="#f2912dff">
<path fill="#f2912d" opacity="1.00" d=" M 152.53 54.67 C 156.07 53.50 159.71 54.50 163.24 55.17 C 163.35 70.59 163.20 86.01 163.36 101.42 C 161.02 100.97 158.67 100.60 156.34 100.10 C 145.30 96.67 134.22 93.32 122.98 90.61 C 132.80 89.77 142.72 91.14 152.49 89.92 C 152.45 78.17 152.42 66.42 152.53 54.67 Z" />
<path fill="#f2912d" opacity="1.00" d=" M 0.52 63.03 C 4.00 63.73 7.60 64.41 11.12 63.58 C 11.38 73.95 11.43 84.33 11.06 94.69 C 7.37 94.63 3.69 94.62 0.00 94.58 L 0.00 92.40 C 0.69 82.62 0.40 72.82 0.52 63.03 Z" />
<path fill="#f2912d" opacity="1.00" d=" M 84.23 90.87 C 84.69 90.86 85.61 90.85 86.07 90.84 C 86.11 94.52 86.11 98.21 86.07 101.90 C 81.27 99.70 76.07 98.29 71.69 95.24 C 75.99 94.16 80.07 92.40 84.23 90.87 Z" />
<path fill="#f2912d" opacity="1.00" d=" M 123.01 106.90 C 130.44 108.25 138.02 107.45 145.48 108.43 C 138.29 112.18 130.58 114.86 123.04 117.83 C 122.90 114.19 122.93 110.54 123.01 106.90 Z" />
<path fill="#f2912d" opacity="1.00" d=" M 199.02 107.77 C 202.98 107.16 206.99 106.99 211.00 107.03 L 211.00 127.63 C 201.56 133.72 191.96 139.56 182.43 145.50 C 174.99 149.93 167.90 154.94 160.26 159.03 C 158.24 156.12 156.35 153.11 154.72 149.97 C 161.93 144.59 169.90 140.34 177.38 135.35 C 184.38 130.60 191.79 126.48 198.76 121.69 C 199.12 117.06 199.15 112.41 199.02 107.77 Z" />
<path fill="#f2912d" opacity="1.00" d=" M 2.34 153.48 C 5.32 152.75 8.29 151.95 11.25 151.11 C 11.24 157.56 11.03 164.02 11.44 170.47 C 18.54 175.71 26.15 180.26 32.97 185.87 C 31.09 188.99 28.88 191.91 26.28 194.48 C 17.51 188.31 8.69 182.20 0.00 175.92 L 0.00 160.41 C 0.57 158.03 1.43 155.75 2.34 153.48 Z" />
<path fill="#f2912d" opacity="1.00" d=" M 178.59 180.33 C 183.32 181.46 188.17 180.67 192.87 179.75 C 193.38 180.41 193.90 181.07 194.42 181.74 C 187.36 187.31 179.73 192.09 172.54 197.49 C 161.20 205.52 150.00 213.77 138.57 221.66 C 137.42 222.73 136.20 221.33 135.26 220.74 C 122.78 211.07 110.31 201.38 97.62 191.99 C 97.79 189.29 97.90 186.58 98.04 183.88 C 100.83 183.23 103.60 183.82 106.10 185.12 C 106.67 184.90 107.24 184.68 107.82 184.47 C 110.11 188.43 114.26 190.60 117.77 193.30 C 123.39 197.63 129.11 201.83 134.61 206.30 C 135.99 207.36 137.82 209.13 139.50 207.49 C 151.68 199.09 163.54 190.23 175.63 181.70 C 176.58 181.24 177.44 180.11 178.59 180.33 Z" />
<path fill="#f2912d" opacity="1.00" d=" M 44.39 207.67 C 45.85 206.53 47.26 205.21 49.05 204.61 C 51.63 204.70 54.04 205.92 56.62 206.02 C 58.20 205.77 59.70 205.16 61.25 204.73 C 65.60 205.87 69.33 208.70 73.42 210.55 C 83.34 215.32 93.03 220.52 102.96 225.25 C 108.72 223.45 114.15 220.79 119.84 218.77 C 121.25 222.09 122.59 225.45 123.78 228.86 C 118.67 231.10 113.47 233.14 108.30 235.26 C 105.64 236.19 102.63 237.96 99.91 236.20 C 87.45 230.00 75.07 223.64 62.65 217.37 C 56.60 214.07 50.13 211.52 44.39 207.67 Z" />
</g>
</svg>
