<?xml version="1.0" encoding="UTF-8" ?>
<!DOCTYPE svg PUBLIC "-//W3C//DTD SVG 1.1//EN" "http://www.w3.org/Graphics/SVG/1.1/DTD/svg11.dtd">
<svg width="300pt" height="300pt" viewBox="0 0 300 300" version="1.1" xmlns="http://www.w3.org/2000/svg">
<g id="#ffffffff">
<path fill="#ffffff" opacity="1.00" d=" M 0.00 0.00 L 120.61 0.00 C 99.78 4.63 79.54 12.63 62.10 25.06 C 35.03 43.85 14.29 71.59 4.02 102.91 C 2.67 107.13 1.26 111.32 0.00 115.57 L 0.00 0.00 Z" />
<path fill="#ffffff" opacity="1.00" d=" M 178.44 0.00 L 300.00 0.00 L 300.00 118.61 C 295.59 102.39 290.00 86.31 281.06 71.97 C 264.35 44.13 238.64 21.83 208.66 9.35 C 198.94 5.20 188.68 2.51 178.44 0.00 Z" />
<path fill="#ffffff" opacity="1.00" d=" M 144.41 96.50 C 158.37 95.18 172.92 99.32 183.90 108.10 C 197.75 118.85 206.03 136.46 205.12 154.00 C 204.96 178.46 186.25 201.14 162.41 206.32 C 148.72 209.56 133.84 207.34 121.69 200.26 C 107.22 191.92 97.05 176.63 94.77 160.11 C 92.85 148.62 95.14 136.65 100.36 126.32 C 108.94 109.93 125.88 98.11 144.41 96.50 Z" />
<path fill="#ffffff" opacity="1.00" d=" M 294.31 203.31 C 296.44 197.09 298.21 190.75 300.00 184.43 L 300.00 300.00 L 0.00 300.00 L 0.00 187.40 C 2.81 196.56 5.41 205.84 9.48 214.55 C 17.93 233.73 30.61 250.88 45.82 265.23 C 47.36 266.67 49.10 267.89 50.92 268.95 C 55.50 265.57 59.17 261.12 63.85 257.85 C 88.52 239.67 119.67 231.91 150.00 231.91 C 179.55 232.07 209.83 239.54 234.10 256.91 C 239.24 260.38 243.27 265.17 248.19 268.90 C 252.37 267.17 255.16 263.39 258.34 260.35 C 274.42 244.35 286.64 224.62 294.31 203.31 Z" />
</g>
<g id="#ade0d1ff">
<path fill="#ade0d1" opacity="1.00" d=" M 120.61 0.00 L 178.44 0.00 C 188.68 2.51 198.94 5.20 208.66 9.35 C 238.64 21.83 264.35 44.13 281.06 71.97 C 290.00 86.31 295.59 102.39 300.00 118.61 L 300.00 184.43 C 298.21 190.75 296.44 197.09 294.31 203.31 C 286.64 224.62 274.42 244.35 258.34 260.35 C 255.16 263.39 252.37 267.17 248.19 268.90 C 243.27 265.17 239.24 260.38 234.10 256.91 C 209.83 239.54 179.55 232.07 150.00 231.91 C 119.67 231.91 88.52 239.67 63.85 257.85 C 59.17 261.12 55.50 265.57 50.92 268.95 C 49.10 267.89 47.36 266.67 45.82 265.23 C 30.61 250.88 17.93 233.73 9.48 214.55 C 5.41 205.84 2.81 196.56 0.00 187.40 L 0.00 115.57 C 1.26 111.32 2.67 107.13 4.02 102.91 C 14.29 71.59 35.03 43.85 62.10 25.06 C 79.54 12.63 99.78 4.63 120.61 0.00 M 144.41 96.50 C 125.88 98.11 108.94 109.93 100.36 126.32 C 95.14 136.65 92.85 148.62 94.77 160.11 C 97.05 176.63 107.22 191.92 121.69 200.26 C 133.84 207.34 148.72 209.56 162.41 206.32 C 186.25 201.14 204.96 178.46 205.12 154.00 C 206.03 136.46 197.75 118.85 183.90 108.10 C 172.92 99.32 158.37 95.18 144.41 96.50 Z" />
</g>
</svg>
