<?xml version="1.0" encoding="UTF-8" ?>
<!DOCTYPE svg PUBLIC "-//W3C//DTD SVG 1.1//EN" "http://www.w3.org/Graphics/SVG/1.1/DTD/svg11.dtd">
<svg width="256pt" height="256pt" viewBox="0 0 256 256" version="1.1" xmlns="http://www.w3.org/2000/svg">
<g id="#004531ff">
<path fill="#004531" opacity="1.00" d=" M 116.03 5.05 C 125.45 4.31 134.95 5.84 143.98 8.48 C 147.63 9.88 152.76 11.19 153.10 15.90 C 153.48 23.63 151.74 31.30 151.77 39.04 C 179.18 51.01 200.90 73.63 215.60 99.33 C 222.82 112.30 228.41 126.27 231.22 140.86 C 234.54 156.80 233.48 173.65 228.02 188.99 C 222.72 203.01 214.31 216.01 202.89 225.80 C 193.44 234.26 181.86 239.85 170.04 244.17 C 154.78 250.06 138.51 253.91 122.06 253.18 C 103.19 252.65 84.33 247.70 67.97 238.18 C 45.02 224.46 29.57 200.04 24.29 174.09 C 21.74 156.13 24.95 137.83 30.67 120.77 C 37.02 101.59 47.36 83.77 60.69 68.60 C 70.03 58.07 80.69 48.43 93.24 41.88 C 92.32 32.98 89.58 24.13 89.26 15.27 C 96.87 9.34 106.55 6.38 116.03 5.05 M 99.51 19.58 C 98.25 20.39 97.96 21.48 98.64 22.83 C 99.52 28.75 100.55 34.66 101.52 40.57 C 102.44 46.31 106.86 50.64 111.47 53.78 C 108.95 53.67 106.49 53.03 104.02 52.58 C 102.08 51.99 100.48 50.79 98.96 49.50 C 88.51 54.50 79.47 62.11 71.56 70.50 C 54.74 88.78 41.74 110.91 35.78 135.13 C 28.89 162.15 34.53 192.69 53.03 213.97 C 63.58 226.53 78.18 235.42 93.92 239.83 C 112.03 245.13 131.44 245.29 149.85 241.45 C 170.51 236.77 190.73 227.02 204.86 210.90 C 220.57 193.23 226.05 168.10 222.23 145.09 C 219.83 127.76 212.71 111.39 203.28 96.76 C 192.65 80.49 178.86 66.19 162.60 55.50 C 157.65 52.44 152.55 48.86 146.99 47.43 C 145.44 48.81 143.81 50.09 142.01 51.12 C 139.31 51.46 136.72 52.75 133.98 52.39 C 138.64 49.27 142.34 44.61 143.23 38.95 C 143.54 32.65 143.75 26.33 143.35 20.03 C 143.64 18.53 141.95 17.77 140.91 17.15 C 127.71 11.51 111.78 11.63 99.51 19.58 Z" />
</g>
<g id="#ebb749ff">
<path fill="#ebb749" opacity="1.00" d=" M 99.51 19.58 C 111.78 11.63 127.71 11.51 140.91 17.15 C 141.95 17.77 143.64 18.53 143.35 20.03 C 140.11 24.07 134.80 25.05 130.00 25.99 C 119.67 27.85 107.83 28.94 98.64 22.83 C 97.96 21.48 98.25 20.39 99.51 19.58 Z" />
</g>
<g id="#de8845ff">
<path fill="#de8845" opacity="1.00" d=" M 143.35 20.03 C 143.75 26.33 143.54 32.65 143.23 38.95 C 142.34 44.61 138.64 49.27 133.98 52.39 C 126.79 54.97 118.90 55.75 111.47 53.78 C 106.86 50.64 102.44 46.31 101.52 40.57 C 100.55 34.66 99.52 28.75 98.64 22.83 C 107.83 28.94 119.67 27.85 130.00 25.99 C 134.80 25.05 140.11 24.07 143.35 20.03 Z" />
</g>
<g id="#70b995ff">
<path fill="#70b995" opacity="1.00" d=" M 142.01 51.12 C 143.81 50.09 145.44 48.81 146.99 47.43 C 152.55 48.86 157.65 52.44 162.60 55.50 C 178.86 66.19 192.65 80.49 203.28 96.76 C 212.71 111.39 219.83 127.76 222.23 145.09 C 226.05 168.10 220.57 193.23 204.86 210.90 C 190.73 227.02 170.51 236.77 149.85 241.45 C 131.44 245.29 112.03 245.13 93.92 239.83 C 78.18 235.42 63.58 226.53 53.03 213.97 C 34.53 192.69 28.89 162.15 35.78 135.13 C 41.74 110.91 54.74 88.78 71.56 70.50 C 79.47 62.11 88.51 54.50 98.96 49.50 C 100.48 50.79 102.08 51.99 104.02 52.58 C 104.92 57.74 105.98 62.87 106.76 68.06 C 103.13 67.81 99.48 68.26 96.08 69.56 C 97.27 70.02 99.25 69.53 99.87 70.88 C 97.70 71.30 95.53 70.82 93.39 70.51 C 93.34 71.21 93.36 71.90 93.45 72.60 C 92.45 72.80 91.43 72.84 90.43 72.97 C 89.92 74.23 88.54 74.71 87.52 73.70 C 85.62 75.94 82.91 77.04 80.34 78.30 C 80.57 78.83 81.01 79.88 81.23 80.41 C 71.38 86.36 64.58 96.76 61.67 107.78 C 60.73 111.32 60.26 114.99 60.67 118.65 C 59.54 119.50 58.31 120.30 57.64 121.60 C 51.62 132.16 48.75 144.40 48.82 156.52 C 47.36 157.86 45.90 159.25 44.13 160.16 C 42.51 155.09 41.88 149.74 40.30 144.68 C 39.44 148.72 40.31 152.90 40.64 156.97 C 41.05 162.45 41.53 167.97 42.96 173.29 C 45.46 171.60 47.46 169.29 49.68 167.27 C 52.07 185.38 61.57 202.69 75.87 214.14 C 103.87 234.76 144.10 234.47 173.28 216.41 C 179.36 218.11 185.38 214.63 190.22 211.26 C 194.60 208.13 198.40 201.64 194.79 196.60 C 203.33 184.20 207.26 169.00 206.44 154.01 C 206.26 148.82 205.48 143.68 204.72 138.55 C 205.19 137.71 205.70 136.89 206.24 136.09 C 210.61 139.72 213.87 144.51 218.16 148.18 C 214.96 141.45 210.88 135.16 206.66 129.03 C 206.06 128.48 205.42 127.99 204.73 127.56 C 204.06 124.58 202.05 121.34 203.32 118.33 C 201.82 116.96 201.14 115.02 200.69 113.10 C 198.38 109.76 197.94 105.26 194.62 102.60 C 194.91 102.14 195.20 101.67 195.48 101.21 C 194.16 100.39 192.80 99.65 191.48 98.83 C 191.81 98.34 192.15 97.85 192.49 97.36 C 191.76 97.08 191.03 96.80 190.30 96.52 C 190.60 96.32 191.18 95.90 191.48 95.69 C 190.36 93.89 188.55 92.74 186.62 91.98 C 186.32 91.15 187.46 90.69 187.76 90.04 C 185.90 89.53 184.03 89.06 182.15 88.61 C 183.01 88.25 183.86 87.89 184.72 87.53 C 182.28 85.43 179.08 84.49 176.71 82.34 C 176.14 81.48 177.25 80.80 177.55 80.08 C 176.00 79.69 174.41 79.76 172.84 79.59 C 170.53 75.71 165.80 74.96 162.27 72.67 C 159.56 71.59 157.21 69.91 154.78 68.34 C 152.29 68.12 149.94 67.40 147.61 66.54 C 145.40 66.45 142.43 65.66 141.22 68.15 C 141.39 62.47 141.87 56.80 142.01 51.12 Z" />
</g>
<g id="#8cb973ff">
<path fill="#8cb973" opacity="1.00" d=" M 133.98 52.39 C 136.72 52.75 139.31 51.46 142.01 51.12 C 141.87 56.80 141.39 62.47 141.22 68.15 C 140.51 69.13 139.88 70.27 138.66 70.70 C 131.69 74.03 123.65 76.56 115.96 74.25 C 112.43 73.18 107.55 72.42 106.76 68.06 C 105.98 62.87 104.92 57.74 104.02 52.58 C 106.49 53.03 108.95 53.67 111.47 53.78 C 118.90 55.75 126.79 54.97 133.98 52.39 Z" />
</g>
<g id="#79b9a1ff">
<path fill="#79b9a1" opacity="1.00" d=" M 141.22 68.15 C 142.43 65.66 145.40 66.45 147.61 66.54 C 149.94 67.40 152.29 68.12 154.78 68.34 C 157.21 69.91 159.56 71.59 162.27 72.67 C 165.80 74.96 170.53 75.71 172.84 79.59 C 174.41 79.76 176.00 79.69 177.55 80.08 C 177.25 80.80 176.14 81.48 176.71 82.34 C 179.08 84.49 182.28 85.43 184.72 87.53 C 183.86 87.89 183.01 88.25 182.15 88.61 C 184.03 89.06 185.90 89.53 187.76 90.04 C 187.46 90.69 186.32 91.15 186.62 91.98 C 188.55 92.74 190.36 93.89 191.48 95.69 C 191.18 95.90 190.60 96.32 190.30 96.52 C 191.03 96.80 191.76 97.08 192.49 97.36 C 192.15 97.85 191.81 98.34 191.48 98.83 C 192.80 99.65 194.16 100.39 195.48 101.21 C 195.20 101.67 194.91 102.14 194.62 102.60 C 197.94 105.26 198.38 109.76 200.69 113.10 C 201.14 115.02 201.82 116.96 203.32 118.33 C 202.05 121.34 204.06 124.58 204.73 127.56 C 205.42 127.99 206.06 128.48 206.66 129.03 C 204.73 128.84 204.26 131.00 203.21 132.17 C 201.86 126.25 199.58 120.65 197.37 115.03 C 194.44 111.45 189.03 111.21 184.87 109.68 C 168.78 106.64 152.31 106.23 135.97 106.15 C 120.02 106.02 104.21 108.39 88.39 110.06 C 94.37 102.54 98.52 92.81 97.00 83.05 C 96.42 80.18 94.31 76.69 90.97 76.91 C 87.59 77.65 84.14 78.45 81.23 80.41 C 81.01 79.88 80.57 78.83 80.34 78.30 C 82.91 77.04 85.62 75.94 87.52 73.70 C 88.54 74.71 89.92 74.23 90.43 72.97 C 91.43 72.84 92.45 72.80 93.45 72.60 C 93.36 71.90 93.34 71.21 93.39 70.51 C 95.53 70.82 97.70 71.30 99.87 70.88 C 99.25 69.53 97.27 70.02 96.08 69.56 C 99.48 68.26 103.13 67.81 106.76 68.06 C 107.55 72.42 112.43 73.18 115.96 74.25 C 123.65 76.56 131.69 74.03 138.66 70.70 C 139.88 70.27 140.51 69.13 141.22 68.15 Z" />
</g>
<g id="#ffffffff">
<path fill="#ffffff" opacity="1.00" d=" M 81.23 80.41 C 84.14 78.45 87.59 77.65 90.97 76.91 C 94.31 76.69 96.42 80.18 97.00 83.05 C 98.52 92.81 94.37 102.54 88.39 110.06 C 83.18 115.69 78.00 122.66 70.05 124.27 C 65.93 125.16 61.92 122.60 60.67 118.65 C 60.26 114.99 60.73 111.32 61.67 107.78 C 64.58 96.76 71.38 86.36 81.23 80.41 Z" />
<path fill="#ffffff" opacity="1.00" d=" M 173.85 206.97 C 177.02 200.48 183.65 195.92 190.85 195.27 C 192.19 195.62 193.51 196.07 194.79 196.60 C 198.40 201.64 194.60 208.13 190.22 211.26 C 185.38 214.63 179.36 218.11 173.28 216.41 C 172.16 214.73 171.89 212.75 171.92 210.79 C 172.66 209.56 173.25 208.26 173.85 206.97 Z" />
</g>
<g id="#ffd3daff">
<path fill="#ffd3da" opacity="1.00" d=" M 88.39 110.06 C 104.21 108.39 120.02 106.02 135.97 106.15 C 152.31 106.23 168.78 106.64 184.87 109.68 C 189.03 111.21 194.44 111.45 197.37 115.03 C 197.64 117.40 195.84 119.06 193.78 119.77 C 179.83 125.38 164.80 127.49 149.94 129.03 C 129.03 131.30 107.90 130.56 87.04 128.16 C 77.12 127.04 66.41 126.89 57.64 121.60 C 58.31 120.30 59.54 119.50 60.67 118.65 C 61.92 122.60 65.93 125.16 70.05 124.27 C 78.00 122.66 83.18 115.69 88.39 110.06 Z" />
</g>
<g id="#ffafbcff">
<path fill="#ffafbc" opacity="1.00" d=" M 197.37 115.03 C 199.58 120.65 201.86 126.25 203.21 132.17 C 198.92 138.61 194.00 144.58 189.39 150.79 C 188.44 148.57 185.91 147.98 183.89 147.18 C 178.03 145.40 171.72 144.66 165.66 145.77 C 160.79 143.21 155.96 140.57 151.26 137.69 C 149.62 136.73 147.40 134.94 145.69 136.77 C 133.02 146.02 121.38 156.56 109.53 166.81 C 108.49 166.99 107.54 166.80 106.67 166.23 C 99.51 162.18 93.10 156.97 86.79 151.73 C 82.35 148.04 78.02 144.21 73.47 140.65 C 72.15 139.42 69.99 139.47 68.71 140.72 C 64.09 144.34 59.57 148.07 54.99 151.73 C 52.99 153.40 50.92 154.98 48.82 156.52 C 48.75 144.40 51.62 132.16 57.64 121.60 C 66.41 126.89 77.12 127.04 87.04 128.16 C 107.90 130.56 129.03 131.30 149.94 129.03 C 164.80 127.49 179.83 125.38 193.78 119.77 C 195.84 119.06 197.64 117.40 197.37 115.03 Z" />
<path fill="#ffafbc" opacity="1.00" d=" M 194.88 156.26 C 198.20 150.38 201.27 144.36 204.72 138.55 C 205.48 143.68 206.26 148.82 206.44 154.01 C 207.26 169.00 203.33 184.20 194.79 196.60 C 193.51 196.07 192.19 195.62 190.85 195.27 C 195.86 185.41 199.49 174.23 197.71 163.06 C 197.40 160.57 196.34 158.27 194.88 156.26 Z" />
<path fill="#ffafbc" opacity="1.00" d=" M 130.35 157.76 C 135.22 152.75 140.48 147.80 146.80 144.68 C 150.79 144.26 154.66 145.68 158.13 147.52 C 151.42 148.22 145.32 151.42 139.31 154.26 C 136.37 155.54 133.71 157.85 130.35 157.76 Z" />
<path fill="#ffafbc" opacity="1.00" d=" M 75.32 151.75 C 79.02 153.98 82.51 156.53 85.89 159.21 C 93.57 165.14 100.17 172.30 107.32 178.84 C 103.04 184.68 98.76 190.72 96.60 197.71 C 95.05 202.93 96.08 209.03 100.12 212.87 C 108.47 220.92 120.85 223.64 132.12 222.38 C 145.99 221.07 159.34 216.62 171.92 210.79 C 171.89 212.75 172.16 214.73 173.28 216.41 C 144.10 234.47 103.87 234.76 75.87 214.14 C 61.57 202.69 52.07 185.38 49.68 167.27 C 51.89 165.23 54.08 163.18 56.29 161.13 C 57.38 160.03 58.48 158.92 59.66 157.90 C 60.06 160.63 59.98 165.52 63.70 165.72 C 69.33 162.97 72.54 157.10 75.32 151.75 Z" />
</g>
<g id="#adf7e8ff">
<path fill="#adf7e8" opacity="1.00" d=" M 203.21 132.17 C 204.26 131.00 204.73 128.84 206.66 129.03 C 210.88 135.16 214.96 141.45 218.16 148.18 C 213.87 144.51 210.61 139.72 206.24 136.09 C 205.70 136.89 205.19 137.71 204.72 138.55 C 201.27 144.36 198.20 150.38 194.88 156.26 C 192.94 159.36 191.55 162.98 189.00 165.59 C 187.90 165.17 186.86 164.62 185.89 163.94 C 186.91 160.35 186.41 156.49 187.80 152.96 C 188.20 152.42 189.00 151.33 189.39 150.79 C 194.00 144.58 198.92 138.61 203.21 132.17 Z" />
</g>
<g id="#93f1c4ff">
<path fill="#93f1c4" opacity="1.00" d=" M 145.69 136.77 C 147.40 134.94 149.62 136.73 151.26 137.69 C 151.09 138.30 150.74 139.53 150.56 140.14 C 150.97 141.23 152.44 142.37 151.74 143.58 C 150.07 143.81 148.33 143.90 146.80 144.68 C 140.48 147.80 135.22 152.75 130.35 157.76 C 126.27 162.01 122.52 166.56 119.02 171.30 C 115.51 170.64 112.29 169.02 109.53 166.81 C 121.38 156.56 133.02 146.02 145.69 136.77 Z" />
</g>
<g id="#9df3d1ff">
<path fill="#9df3d1" opacity="1.00" d=" M 151.26 137.69 C 155.96 140.57 160.79 143.21 165.66 145.77 C 167.42 146.75 169.23 147.65 171.08 148.47 C 168.98 149.81 169.45 152.28 169.54 154.38 C 165.79 152.01 162.03 149.64 158.13 147.52 C 154.66 145.68 150.79 144.26 146.80 144.68 C 148.33 143.90 150.07 143.81 151.74 143.58 C 152.44 142.37 150.97 141.23 150.56 140.14 C 150.74 139.53 151.09 138.30 151.26 137.69 Z" />
</g>
<g id="#a7f6dfff">
<path fill="#a7f6df" opacity="1.00" d=" M 68.71 140.72 C 69.99 139.47 72.15 139.42 73.47 140.65 C 78.02 144.21 82.35 148.04 86.79 151.73 C 86.36 152.03 85.49 152.62 85.06 152.92 C 86.51 154.82 86.99 156.99 85.89 159.21 C 82.51 156.53 79.02 153.98 75.32 151.75 C 73.49 150.68 71.54 149.74 69.44 149.34 C 65.71 151.55 62.94 155.09 59.66 157.90 C 58.48 158.92 57.38 160.03 56.29 161.13 C 56.64 158.47 57.04 155.65 55.60 153.23 C 56.38 152.94 57.17 152.65 57.95 152.36 C 57.21 152.20 55.73 151.89 54.99 151.73 C 59.57 148.07 64.09 144.34 68.71 140.72 Z" />
</g>
<g id="#b3f8efff">
<path fill="#b3f8ef" opacity="1.00" d=" M 40.30 144.68 C 41.88 149.74 42.51 155.09 44.13 160.16 C 45.90 159.25 47.36 157.86 48.82 156.52 C 50.92 154.98 52.99 153.40 54.99 151.73 C 55.73 151.89 57.21 152.20 57.95 152.36 C 57.17 152.65 56.38 152.94 55.60 153.23 C 57.04 155.65 56.64 158.47 56.29 161.13 C 54.08 163.18 51.89 165.23 49.68 167.27 C 47.46 169.29 45.46 171.60 42.96 173.29 C 41.53 167.97 41.05 162.45 40.64 156.97 C 40.31 152.90 39.44 148.72 40.30 144.68 Z" />
</g>
<g id="#ff93a1ff">
<path fill="#ff93a1" opacity="1.00" d=" M 165.66 145.77 C 171.72 144.66 178.03 145.40 183.89 147.18 C 185.91 147.98 188.44 148.57 189.39 150.79 C 189.00 151.33 188.20 152.42 187.80 152.96 C 187.33 153.20 186.38 153.68 185.91 153.92 C 180.83 152.50 175.81 150.81 171.08 148.47 C 169.23 147.65 167.42 146.75 165.66 145.77 Z" />
<path fill="#ff93a1" opacity="1.00" d=" M 139.31 154.26 C 145.32 151.42 151.42 148.22 158.13 147.52 C 162.03 149.64 165.79 152.01 169.54 154.38 C 175.03 157.50 180.47 160.70 185.89 163.94 C 186.86 164.62 187.90 165.17 189.00 165.59 C 191.55 162.98 192.94 159.36 194.88 156.26 C 196.34 158.27 197.40 160.57 197.71 163.06 C 199.49 174.23 195.86 185.41 190.85 195.27 C 183.65 195.92 177.02 200.48 173.85 206.97 C 173.25 208.26 172.66 209.56 171.92 210.79 C 159.34 216.62 145.99 221.07 132.12 222.38 C 120.85 223.64 108.47 220.92 100.12 212.87 C 96.08 209.03 95.05 202.93 96.60 197.71 C 98.76 190.72 103.04 184.68 107.32 178.84 C 108.62 179.61 109.89 181.77 111.62 180.77 C 114.15 177.66 116.46 174.39 119.02 171.30 C 122.52 166.56 126.27 162.01 130.35 157.76 C 133.71 157.85 136.37 155.54 139.31 154.26 Z" />
<path fill="#ff93a1" opacity="1.00" d=" M 69.44 149.34 C 71.54 149.74 73.49 150.68 75.32 151.75 C 72.54 157.10 69.33 162.97 63.70 165.72 C 59.98 165.52 60.06 160.63 59.66 157.90 C 62.94 155.09 65.71 151.55 69.44 149.34 Z" />
</g>
<g id="#a6f5ddff">
<path fill="#a6f5dd" opacity="1.00" d=" M 169.54 154.38 C 169.45 152.28 168.98 149.81 171.08 148.47 C 175.81 150.81 180.83 152.50 185.91 153.92 C 186.38 153.68 187.33 153.20 187.80 152.96 C 186.41 156.49 186.91 160.35 185.89 163.94 C 180.47 160.70 175.03 157.50 169.54 154.38 Z" />
</g>
<g id="#9cf3cfff">
<path fill="#9cf3cf" opacity="1.00" d=" M 85.06 152.92 C 85.49 152.62 86.36 152.03 86.79 151.73 C 93.10 156.97 99.51 162.18 106.67 166.23 C 107.54 166.80 108.49 166.99 109.53 166.81 C 112.29 169.02 115.51 170.64 119.02 171.30 C 116.46 174.39 114.15 177.66 111.62 180.77 C 109.89 181.77 108.62 179.61 107.32 178.84 C 100.17 172.30 93.57 165.14 85.89 159.21 C 86.99 156.99 86.51 154.82 85.06 152.92 Z" />
</g>
</svg>
