<?xml version="1.0" encoding="UTF-8" ?>
<!DOCTYPE svg PUBLIC "-//W3C//DTD SVG 1.1//EN" "http://www.w3.org/Graphics/SVG/1.1/DTD/svg11.dtd">
<svg width="400pt" height="400pt" viewBox="0 0 400 400" version="1.1" xmlns="http://www.w3.org/2000/svg">
<g id="#ffffffff">
<path fill="#ffffff" opacity="1.00" d=" M 201.19 59.97 C 203.14 62.40 203.40 65.64 204.63 68.43 C 209.45 80.54 216.97 91.61 226.49 100.52 C 244.02 117.72 267.77 128.03 292.10 130.48 C 298.42 130.77 304.75 130.72 311.07 130.60 C 318.82 130.38 326.23 127.79 333.92 127.11 C 326.98 134.16 319.78 141.15 314.84 149.82 C 305.33 164.48 299.80 181.56 298.43 198.94 C 298.37 205.15 298.17 211.38 298.71 217.57 C 300.57 229.69 303.56 241.78 309.23 252.73 C 320.03 274.83 339.00 292.75 361.58 302.46 C 363.60 303.63 366.93 303.36 367.89 305.83 C 324.96 297.94 285.09 275.50 254.95 244.06 C 246.24 234.32 237.89 224.20 230.86 213.16 C 218.46 193.44 208.69 171.87 203.52 149.10 C 201.59 149.44 201.88 151.82 201.30 153.25 C 187.57 211.10 145.54 261.15 91.38 285.44 C 77.67 291.86 63.07 296.24 48.26 299.28 C 42.16 300.23 36.09 301.96 29.86 301.61 C 32.15 300.35 34.71 299.84 37.20 299.13 C 68.08 288.96 92.84 262.31 100.80 230.80 C 104.61 218.18 104.54 204.77 103.18 191.78 C 99.62 168.78 88.07 146.82 70.22 131.72 C 69.42 130.93 68.71 130.05 67.99 129.19 C 75.10 130.44 81.70 133.92 89.03 134.11 C 118.44 138.48 149.66 129.72 172.07 110.07 C 187.05 97.26 197.35 79.27 201.19 59.97 Z" />
</g>
<g id="#93ca76ff">
<path fill="#93ca76" opacity="1.00" d=" M 176.49 1.71 C 187.94 0.17 199.48 1.19 210.98 0.75 C 248.13 2.71 284.72 15.35 315.01 36.98 C 356.01 65.71 385.54 110.44 395.42 159.56 C 398.36 172.81 399.78 186.43 399.06 200.00 C 399.92 215.00 397.93 230.00 394.53 244.60 C 384.00 291.37 355.75 333.87 316.76 361.76 C 293.45 378.81 266.28 390.49 237.93 395.92 C 225.49 398.62 212.71 399.70 200.00 399.05 C 181.44 400.10 162.93 396.82 145.10 391.91 C 105.63 380.65 69.84 356.85 44.28 324.71 C 24.25 299.87 10.35 270.10 4.25 238.77 C 1.65 226.38 0.27 213.67 0.94 201.00 C -0.15 178.67 4.16 156.33 11.23 135.21 C 25.88 92.12 55.95 54.58 94.58 30.56 C 119.33 15.10 147.55 5.29 176.49 1.71 M 201.19 59.97 C 197.35 79.27 187.05 97.26 172.07 110.07 C 149.66 129.72 118.44 138.48 89.03 134.11 C 81.70 133.92 75.10 130.44 67.99 129.19 C 68.71 130.05 69.42 130.93 70.22 131.72 C 88.07 146.82 99.62 168.78 103.18 191.78 C 104.54 204.77 104.61 218.18 100.80 230.80 C 92.84 262.31 68.08 288.96 37.20 299.13 C 34.71 299.84 32.15 300.35 29.86 301.61 C 36.09 301.96 42.16 300.23 48.26 299.28 C 63.07 296.24 77.67 291.86 91.38 285.44 C 145.54 261.15 187.57 211.10 201.30 153.25 C 201.88 151.82 201.59 149.44 203.52 149.10 C 208.69 171.87 218.46 193.44 230.86 213.16 C 237.89 224.20 246.24 234.32 254.95 244.06 C 285.09 275.50 324.96 297.94 367.89 305.83 C 366.93 303.36 363.60 303.63 361.58 302.46 C 339.00 292.75 320.03 274.83 309.23 252.73 C 303.56 241.78 300.57 229.69 298.71 217.57 C 298.17 211.38 298.37 205.15 298.43 198.94 C 299.80 181.56 305.33 164.48 314.84 149.82 C 319.78 141.15 326.98 134.16 333.92 127.11 C 326.23 127.79 318.82 130.38 311.07 130.60 C 304.75 130.72 298.42 130.77 292.10 130.48 C 267.77 128.03 244.02 117.72 226.49 100.52 C 216.97 91.61 209.45 80.54 204.63 68.43 C 203.40 65.64 203.14 62.40 201.19 59.97 Z" />
</g>
</svg>
