<?xml version="1.0" encoding="UTF-8" ?>
<!DOCTYPE svg PUBLIC "-//W3C//DTD SVG 1.1//EN" "http://www.w3.org/Graphics/SVG/1.1/DTD/svg11.dtd">
<svg width="300pt" height="300pt" viewBox="0 0 300 300" version="1.1" xmlns="http://www.w3.org/2000/svg">
<g id="#ffffffff">
<path fill="#ffffff" opacity="1.00" d=" M 0.00 0.00 L 300.00 0.00 L 300.00 300.00 L 0.00 300.00 L 0.00 0.00 M 41.06 85.11 C 39.03 86.37 35.91 87.41 36.61 90.44 C 47.64 84.69 58.19 78.03 69.07 71.98 C 70.21 73.26 71.00 74.79 71.91 76.23 C 78.20 72.62 84.40 68.84 90.79 65.41 C 91.59 66.87 92.41 68.33 93.22 69.79 C 116.34 56.39 139.49 43.04 162.64 29.69 C 158.55 26.99 154.23 24.69 150.00 22.22 C 113.70 43.20 77.40 64.19 41.06 85.11 M 36.76 108.17 C 36.76 108.91 36.77 110.39 36.77 111.13 C 47.61 104.94 58.43 98.73 69.19 92.41 C 70.09 93.89 71.00 95.36 71.90 96.84 C 83.42 89.99 95.12 83.46 106.67 76.66 C 109.04 74.71 109.93 78.59 111.10 79.99 C 133.94 66.89 156.67 53.62 179.52 40.54 C 179.60 40.26 179.77 39.69 179.85 39.41 C 175.86 37.11 171.80 34.93 167.90 32.48 C 124.17 57.68 80.51 83.01 36.76 108.17 M 180.02 46.04 C 133.95 72.64 87.90 99.27 41.82 125.85 C 39.61 127.33 35.80 128.20 36.62 131.66 C 47.61 125.68 58.38 119.28 69.18 112.95 C 70.10 114.41 70.99 115.89 71.90 117.37 C 89.94 106.92 108.00 96.50 126.05 86.09 C 127.29 87.24 127.95 88.86 129.02 90.16 C 152.20 76.94 175.30 63.56 198.35 50.12 C 194.15 47.82 190.12 45.21 185.86 43.02 C 183.75 43.67 181.94 45.00 180.02 46.04 M 42.19 146.19 C 39.80 147.72 36.17 148.67 36.57 152.21 C 47.62 146.35 58.32 139.82 69.17 133.58 C 70.09 135.04 70.99 136.50 71.89 137.97 C 95.93 124.03 120.00 110.14 144.07 96.27 C 144.97 97.72 145.87 99.18 146.77 100.63 C 169.82 87.19 192.96 73.90 216.07 60.57 C 211.84 58.05 207.75 55.12 203.19 53.28 C 149.49 84.19 95.89 115.28 42.19 146.19 M 42.58 166.57 C 40.19 168.26 35.81 169.02 36.59 172.84 C 47.60 166.86 58.34 160.38 69.21 154.15 C 70.11 155.62 71.01 157.10 71.93 158.56 C 101.96 140.98 132.26 123.84 162.27 106.22 C 163.20 107.66 164.10 109.12 165.00 110.58 C 187.98 97.29 211.06 84.16 233.94 70.69 C 229.66 68.25 225.43 65.71 221.10 63.38 C 161.68 97.93 102.08 132.16 42.58 166.57 M 41.68 187.67 C 39.51 189.06 35.94 190.03 36.63 193.35 C 47.66 187.61 58.13 180.84 69.07 174.93 C 70.26 176.13 71.02 177.66 71.92 179.07 C 108.00 158.21 144.13 137.44 180.17 116.50 C 181.06 117.97 181.94 119.45 182.82 120.92 C 205.80 107.60 228.83 94.37 251.82 81.05 C 247.59 78.56 243.33 76.13 239.08 73.67 C 173.28 111.68 107.48 149.68 41.68 187.67 M 36.74 211.11 C 36.74 211.85 36.74 213.34 36.74 214.08 C 47.58 207.84 58.42 201.61 69.20 195.27 C 70.11 196.73 71.00 198.21 71.88 199.68 C 107.95 178.79 144.11 158.05 180.15 137.10 C 181.07 138.56 181.98 140.03 182.91 141.50 C 209.64 125.93 236.48 110.53 263.25 95.03 C 263.27 92.69 263.37 90.35 263.23 88.01 C 261.46 86.23 259.06 85.28 256.95 83.98 C 183.50 126.28 110.16 168.75 36.74 211.11 M 48.13 225.17 C 48.84 225.50 50.26 226.16 50.97 226.49 C 56.97 223.05 62.90 219.48 68.94 216.10 C 69.83 217.56 70.75 219.01 71.69 220.44 C 107.68 199.52 143.73 178.71 179.84 157.99 C 180.64 159.43 181.43 160.87 182.22 162.32 C 209.18 146.90 236.10 131.38 262.89 115.69 C 263.78 110.88 263.05 105.82 263.22 100.92 C 191.51 142.31 119.78 183.67 48.13 225.17 M 65.97 235.47 C 66.89 235.91 67.79 236.38 68.77 236.69 C 74.94 233.34 80.93 229.63 87.06 226.19 C 87.95 227.65 88.85 229.12 89.76 230.58 C 119.68 213.14 149.71 195.89 179.71 178.59 C 180.64 180.04 181.58 181.49 182.57 182.90 C 209.37 167.12 236.46 151.83 263.28 136.09 C 263.24 131.24 263.32 126.39 263.22 121.55 C 197.41 159.41 131.66 197.39 65.97 235.47 M 87.44 243.54 C 86.15 244.30 84.91 245.15 83.69 246.03 C 84.91 246.19 86.30 247.28 87.48 246.49 C 93.31 243.19 99.07 239.79 104.89 236.49 C 105.76 237.94 106.62 239.39 107.50 240.83 C 131.57 226.96 155.62 213.03 179.69 199.14 C 180.58 200.57 181.43 202.02 182.29 203.47 C 209.34 188.05 236.15 172.23 263.24 156.89 C 263.29 151.97 263.29 147.05 263.23 142.14 C 204.54 175.78 146.07 209.81 87.44 243.54 M 101.72 255.93 C 102.30 256.32 103.45 257.11 104.02 257.51 C 110.32 254.01 116.48 250.27 122.78 246.78 C 123.58 248.21 124.39 249.63 125.19 251.07 C 143.49 240.82 161.52 230.08 179.77 219.74 C 180.59 221.17 181.43 222.59 182.27 224.02 C 207.47 209.68 232.48 195.02 257.64 180.62 C 259.53 179.47 261.66 178.61 263.20 176.98 C 263.40 172.23 263.25 167.46 263.23 162.70 C 209.32 193.66 155.54 224.82 101.72 255.93 M 119.64 266.13 C 120.40 266.68 121.15 267.23 121.91 267.78 C 127.13 264.69 132.48 261.80 137.65 258.64 C 138.63 258.22 139.51 257.18 140.65 257.39 C 141.58 258.66 142.33 260.05 143.14 261.40 C 155.39 254.38 167.56 247.23 179.85 240.29 C 180.64 241.72 181.43 243.16 182.21 244.60 C 209.34 229.25 236.20 213.43 263.26 197.96 C 263.26 193.06 263.29 188.17 263.24 183.28 C 215.29 210.76 167.50 238.51 119.64 266.13 M 138.68 275.77 C 136.91 276.71 139.28 278.63 140.57 277.54 C 146.53 274.26 152.38 270.75 158.24 267.29 C 159.16 268.76 160.07 270.23 160.98 271.70 C 167.25 268.13 173.43 264.38 179.79 260.95 C 180.61 262.35 181.44 263.76 182.27 265.17 C 209.17 249.81 236.01 234.31 262.75 218.68 C 263.97 213.98 262.95 208.74 263.24 203.83 C 221.67 227.73 180.15 251.71 138.68 275.77 Z" />
</g>
<g id="#020202ff">
<path fill="#020202" opacity="1.00" d=" M 41.06 85.11 C 77.40 64.19 113.70 43.20 150.00 22.22 C 154.23 24.69 158.55 26.99 162.64 29.69 C 139.49 43.04 116.34 56.39 93.22 69.79 C 92.41 68.33 91.59 66.87 90.79 65.41 C 84.40 68.84 78.20 72.62 71.91 76.23 C 71.00 74.79 70.21 73.26 69.07 71.98 C 58.19 78.03 47.64 84.69 36.61 90.44 C 35.91 87.41 39.03 86.37 41.06 85.11 Z" />
<path fill="#020202" opacity="1.00" d=" M 36.76 108.17 C 80.51 83.01 124.17 57.68 167.90 32.48 C 171.80 34.93 175.86 37.11 179.85 39.41 C 179.77 39.69 179.60 40.26 179.52 40.54 C 156.67 53.62 133.94 66.89 111.10 79.99 C 109.93 78.59 109.04 74.71 106.67 76.66 C 95.12 83.46 83.42 89.99 71.90 96.84 C 71.00 95.36 70.09 93.89 69.19 92.41 C 58.43 98.73 47.61 104.94 36.77 111.13 C 36.77 110.39 36.76 108.91 36.76 108.17 Z" />
<path fill="#020202" opacity="1.00" d=" M 180.02 46.04 C 181.94 45.00 183.75 43.67 185.86 43.02 C 190.12 45.21 194.15 47.82 198.35 50.12 C 175.30 63.56 152.20 76.94 129.02 90.16 C 127.95 88.86 127.29 87.24 126.05 86.09 C 108.00 96.50 89.94 106.92 71.90 117.37 C 70.99 115.89 70.10 114.41 69.18 112.95 C 58.38 119.28 47.61 125.68 36.62 131.66 C 35.80 128.20 39.61 127.33 41.82 125.85 C 87.90 99.27 133.95 72.64 180.02 46.04 Z" />
<path fill="#020202" opacity="1.00" d=" M 42.19 146.19 C 95.89 115.28 149.49 84.19 203.19 53.28 C 207.75 55.12 211.84 58.05 216.07 60.57 C 192.96 73.90 169.82 87.19 146.77 100.63 C 145.87 99.18 144.97 97.72 144.07 96.27 C 120.00 110.14 95.93 124.03 71.89 137.97 C 70.99 136.50 70.09 135.04 69.17 133.58 C 58.32 139.82 47.62 146.35 36.57 152.21 C 36.17 148.67 39.80 147.72 42.19 146.19 Z" />
<path fill="#020202" opacity="1.00" d=" M 42.58 166.57 C 102.08 132.16 161.68 97.93 221.10 63.38 C 225.43 65.71 229.66 68.25 233.94 70.69 C 211.06 84.16 187.98 97.29 165.00 110.58 C 164.10 109.12 163.20 107.66 162.27 106.22 C 132.26 123.84 101.96 140.98 71.93 158.56 C 71.01 157.10 70.11 155.62 69.21 154.15 C 58.34 160.38 47.60 166.86 36.59 172.84 C 35.81 169.02 40.19 168.26 42.58 166.57 Z" />
<path fill="#020202" opacity="1.00" d=" M 41.68 187.67 C 107.48 149.68 173.28 111.68 239.08 73.67 C 243.33 76.13 247.59 78.56 251.82 81.05 C 228.83 94.37 205.80 107.60 182.82 120.92 C 181.94 119.45 181.06 117.97 180.17 116.50 C 144.13 137.44 108.00 158.21 71.92 179.07 C 71.02 177.66 70.26 176.13 69.07 174.93 C 58.13 180.84 47.66 187.61 36.63 193.35 C 35.94 190.03 39.51 189.06 41.68 187.67 Z" />
<path fill="#020202" opacity="1.00" d=" M 36.74 211.11 C 110.16 168.75 183.50 126.28 256.95 83.98 C 259.06 85.28 261.46 86.23 263.23 88.01 C 263.37 90.35 263.27 92.69 263.25 95.03 C 236.48 110.53 209.64 125.93 182.91 141.50 C 181.98 140.03 181.07 138.56 180.15 137.10 C 144.11 158.05 107.95 178.79 71.88 199.68 C 71.00 198.21 70.11 196.73 69.20 195.27 C 58.42 201.61 47.58 207.84 36.74 214.08 C 36.74 213.34 36.74 211.85 36.74 211.11 Z" />
<path fill="#020202" opacity="1.00" d=" M 48.13 225.17 C 119.78 183.67 191.51 142.31 263.22 100.92 C 263.05 105.82 263.78 110.88 262.89 115.69 C 236.10 131.38 209.18 146.90 182.22 162.32 C 181.43 160.87 180.64 159.43 179.84 157.99 C 143.73 178.71 107.68 199.52 71.69 220.44 C 70.75 219.01 69.83 217.56 68.94 216.10 C 62.90 219.48 56.97 223.05 50.97 226.49 C 50.26 226.16 48.84 225.50 48.13 225.17 Z" />
<path fill="#020202" opacity="1.00" d=" M 65.97 235.47 C 131.66 197.39 197.41 159.41 263.22 121.55 C 263.32 126.39 263.24 131.24 263.28 136.09 C 236.46 151.83 209.37 167.12 182.57 182.90 C 181.58 181.49 180.64 180.04 179.71 178.59 C 149.71 195.89 119.68 213.14 89.76 230.58 C 88.85 229.12 87.95 227.65 87.06 226.19 C 80.93 229.63 74.94 233.34 68.77 236.69 C 67.79 236.38 66.89 235.91 65.97 235.47 Z" />
<path fill="#020202" opacity="1.00" d=" M 87.44 243.54 C 146.07 209.81 204.54 175.78 263.23 142.14 C 263.29 147.05 263.29 151.97 263.24 156.89 C 236.15 172.23 209.34 188.05 182.29 203.47 C 181.43 202.02 180.58 200.57 179.69 199.14 C 155.62 213.03 131.57 226.96 107.50 240.83 C 106.62 239.39 105.76 237.94 104.89 236.49 C 99.07 239.79 93.31 243.19 87.48 246.49 C 86.30 247.28 84.91 246.19 83.69 246.03 C 84.91 245.15 86.15 244.30 87.44 243.54 Z" />
<path fill="#020202" opacity="1.00" d=" M 101.72 255.93 C 155.54 224.82 209.32 193.66 263.23 162.70 C 263.25 167.46 263.40 172.23 263.20 176.98 C 261.66 178.61 259.53 179.47 257.64 180.62 C 232.48 195.02 207.47 209.68 182.27 224.02 C 181.43 222.59 180.59 221.17 179.77 219.74 C 161.52 230.08 143.49 240.82 125.19 251.07 C 124.39 249.63 123.58 248.21 122.78 246.78 C 116.48 250.27 110.32 254.01 104.02 257.51 C 103.45 257.11 102.30 256.32 101.72 255.93 Z" />
<path fill="#020202" opacity="1.00" d=" M 119.64 266.13 C 167.50 238.51 215.29 210.76 263.24 183.28 C 263.29 188.17 263.26 193.06 263.26 197.96 C 236.20 213.43 209.34 229.25 182.21 244.60 C 181.43 243.16 180.64 241.72 179.85 240.29 C 167.56 247.23 155.39 254.38 143.14 261.40 C 142.33 260.05 141.58 258.66 140.65 257.39 C 139.51 257.18 138.63 258.22 137.65 258.64 C 132.48 261.80 127.13 264.69 121.91 267.78 C 121.15 267.23 120.40 266.68 119.64 266.13 Z" />
<path fill="#020202" opacity="1.00" d=" M 138.68 275.77 C 180.15 251.71 221.67 227.73 263.24 203.83 C 262.95 208.74 263.97 213.98 262.75 218.68 C 236.01 234.31 209.17 249.81 182.27 265.17 C 181.44 263.76 180.61 262.35 179.79 260.95 C 173.43 264.38 167.25 268.13 160.98 271.70 C 160.07 270.23 159.16 268.76 158.24 267.29 C 152.38 270.75 146.53 274.26 140.57 277.54 C 139.28 278.63 136.91 276.71 138.68 275.77 Z" />
</g>
</svg>
