<?xml version="1.0" encoding="UTF-8" ?>
<!DOCTYPE svg PUBLIC "-//W3C//DTD SVG 1.1//EN" "http://www.w3.org/Graphics/SVG/1.1/DTD/svg11.dtd">
<svg width="300pt" height="300pt" viewBox="0 0 300 300" version="1.1" xmlns="http://www.w3.org/2000/svg">
<g id="#ffffffff">
<path fill="#ffffff" opacity="1.00" d=" M 0.00 0.00 L 300.00 0.00 L 300.00 300.00 L 0.00 300.00 L 0.00 0.00 M 133.69 21.34 C 115.66 25.44 99.39 36.92 89.67 52.67 C 80.37 67.10 76.95 85.12 79.76 102.00 C 82.60 120.24 93.20 137.09 108.18 147.81 C 120.18 156.70 135.14 161.19 150.00 161.33 C 164.79 161.10 179.60 156.39 191.47 147.50 C 205.12 137.49 215.20 122.46 218.61 105.82 C 212.77 105.78 206.91 105.53 201.07 105.87 C 199.88 106.88 199.58 108.52 198.91 109.87 C 193.36 124.25 181.17 135.97 166.48 140.72 C 156.96 143.95 146.53 144.47 136.79 141.92 C 119.89 137.85 105.53 124.88 99.64 108.53 C 94.59 94.47 95.57 78.15 102.94 65.07 C 108.28 55.08 116.98 46.98 127.25 42.23 C 140.19 36.01 155.74 35.55 169.04 40.94 C 183.92 46.66 195.58 59.56 200.40 74.69 C 206.54 74.74 212.67 74.74 218.81 74.66 C 214.09 54.99 201.00 37.41 183.04 27.95 C 168.12 19.84 150.22 17.36 133.69 21.34 M 138.05 69.04 C 132.58 74.16 131.50 83.26 135.44 89.59 C 137.01 92.39 139.84 94.08 142.11 96.24 C 142.75 102.89 142.22 109.62 142.34 116.31 C 147.17 116.43 152.01 116.43 156.85 116.35 C 156.84 110.22 156.62 104.08 156.89 97.96 C 156.73 95.70 159.09 94.78 160.42 93.39 C 164.65 90.04 166.72 84.35 166.03 79.05 C 165.37 72.82 160.88 67.19 154.91 65.27 C 149.14 63.28 142.47 64.90 138.05 69.04 M 102.30 191.20 C 98.01 193.05 96.22 199.03 99.25 202.76 C 102.97 208.49 113.40 206.04 113.62 199.00 C 114.57 193.09 107.46 188.41 102.30 191.20 M 190.32 191.24 C 184.91 193.43 184.15 201.70 189.19 204.71 C 193.81 208.19 201.49 204.78 201.61 198.92 C 202.45 193.11 195.41 188.50 190.32 191.24 M 48.41 224.38 C 40.51 230.59 36.20 240.97 37.29 250.95 C 38.55 263.74 48.70 275.12 61.34 277.62 C 71.86 280.10 83.15 276.30 90.68 268.72 C 87.82 265.86 85.10 262.84 82.06 260.17 C 78.34 263.30 74.13 266.38 69.04 266.46 C 60.27 267.15 51.89 260.47 50.13 251.94 C 47.34 241.38 55.98 229.35 67.03 229.21 C 72.75 228.64 77.95 231.70 81.97 235.48 C 84.81 232.61 87.70 229.79 90.58 226.96 C 87.47 224.15 84.18 221.43 80.27 219.79 C 69.92 215.29 56.98 216.88 48.41 224.38 M 209.21 242.98 C 206.91 255.10 213.38 267.96 223.92 274.12 C 235.91 281.35 252.49 278.99 262.10 268.83 C 259.78 265.52 256.57 262.98 253.85 260.03 C 249.77 263.70 244.70 266.91 238.98 266.48 C 229.03 266.33 220.72 256.86 221.34 247.04 C 221.55 237.43 230.20 228.59 240.00 229.19 C 245.35 228.90 249.66 232.36 253.80 235.22 C 256.58 232.51 259.39 229.80 262.05 226.97 C 256.17 220.71 247.61 216.92 238.98 217.34 C 224.61 217.23 211.29 228.79 209.21 242.98 M 99.46 219.22 C 99.50 238.29 99.54 257.36 99.44 276.42 C 103.58 276.48 107.73 276.47 111.87 276.44 C 111.81 257.36 111.86 238.28 111.84 219.20 C 107.71 219.23 103.59 219.22 99.46 219.22 M 119.89 219.25 C 128.53 237.18 137.48 254.95 146.14 272.87 C 147.24 274.96 147.94 277.47 150.06 278.80 C 152.37 275.62 153.72 271.89 155.48 268.40 C 163.47 252.01 171.63 235.69 179.44 219.21 C 175.11 219.22 170.77 219.20 166.44 219.26 C 160.92 230.97 155.54 242.76 149.67 254.30 C 144.02 242.63 138.48 230.90 132.84 219.22 C 128.52 219.24 124.21 219.19 119.89 219.25 M 187.44 219.27 C 187.50 238.36 187.49 257.44 187.45 276.53 C 191.58 276.50 195.71 276.50 199.84 276.54 C 199.83 257.44 199.83 238.35 199.84 219.25 C 195.71 219.27 191.58 219.26 187.44 219.27 Z" />
</g>
<g id="#3ab03eff">
<path fill="#3ab03e" opacity="1.00" d=" M 133.69 21.34 C 150.22 17.36 168.12 19.84 183.04 27.95 C 201.00 37.41 214.09 54.99 218.81 74.66 C 212.67 74.74 206.54 74.74 200.40 74.69 C 195.58 59.56 183.92 46.66 169.04 40.94 C 155.74 35.55 140.19 36.01 127.25 42.23 C 116.98 46.98 108.28 55.08 102.94 65.07 C 95.57 78.15 94.59 94.47 99.64 108.53 C 105.53 124.88 119.89 137.85 136.79 141.92 C 146.53 144.47 156.96 143.95 166.48 140.72 C 181.17 135.97 193.36 124.25 198.91 109.87 C 199.58 108.52 199.88 106.88 201.07 105.87 C 206.91 105.53 212.77 105.78 218.61 105.82 C 215.20 122.46 205.12 137.49 191.47 147.50 C 179.60 156.39 164.79 161.10 150.00 161.33 C 135.14 161.19 120.18 156.70 108.18 147.81 C 93.20 137.09 82.60 120.24 79.76 102.00 C 76.95 85.12 80.37 67.10 89.67 52.67 C 99.39 36.92 115.66 25.44 133.69 21.34 Z" />
<path fill="#3ab03e" opacity="1.00" d=" M 138.05 69.04 C 142.47 64.90 149.14 63.28 154.91 65.27 C 160.88 67.19 165.37 72.82 166.03 79.05 C 166.72 84.35 164.65 90.04 160.42 93.39 C 159.09 94.78 156.73 95.70 156.89 97.96 C 156.62 104.08 156.84 110.22 156.85 116.35 C 152.01 116.43 147.17 116.43 142.34 116.31 C 142.22 109.62 142.75 102.89 142.11 96.24 C 139.84 94.08 137.01 92.39 135.44 89.59 C 131.50 83.26 132.58 74.16 138.05 69.04 Z" />
</g>
<g id="#202221ff">
<path fill="#202221" opacity="1.00" d=" M 102.30 191.20 C 107.46 188.41 114.57 193.09 113.62 199.00 C 113.40 206.04 102.97 208.49 99.25 202.76 C 96.22 199.03 98.01 193.05 102.30 191.20 Z" />
<path fill="#202221" opacity="1.00" d=" M 190.32 191.24 C 195.41 188.50 202.45 193.11 201.61 198.92 C 201.49 204.78 193.81 208.19 189.19 204.71 C 184.15 201.70 184.91 193.43 190.32 191.24 Z" />
<path fill="#202221" opacity="1.00" d=" M 48.41 224.38 C 56.98 216.88 69.92 215.29 80.27 219.79 C 84.18 221.43 87.47 224.15 90.58 226.96 C 87.70 229.79 84.81 232.61 81.97 235.48 C 77.95 231.70 72.75 228.64 67.03 229.21 C 55.98 229.35 47.34 241.38 50.13 251.94 C 51.89 260.47 60.27 267.15 69.04 266.46 C 74.13 266.38 78.34 263.30 82.06 260.17 C 85.10 262.84 87.82 265.86 90.68 268.72 C 83.15 276.30 71.86 280.10 61.34 277.62 C 48.70 275.12 38.55 263.74 37.29 250.95 C 36.20 240.97 40.51 230.59 48.41 224.38 Z" />
<path fill="#202221" opacity="1.00" d=" M 209.21 242.98 C 211.29 228.79 224.61 217.23 238.98 217.34 C 247.61 216.92 256.17 220.71 262.05 226.97 C 259.39 229.80 256.58 232.51 253.80 235.22 C 249.66 232.36 245.35 228.90 240.00 229.19 C 230.20 228.59 221.55 237.43 221.34 247.04 C 220.72 256.86 229.03 266.33 238.98 266.48 C 244.70 266.91 249.77 263.70 253.85 260.03 C 256.57 262.98 259.78 265.52 262.10 268.83 C 252.49 278.99 235.91 281.35 223.92 274.12 C 213.38 267.96 206.91 255.10 209.21 242.98 Z" />
<path fill="#202221" opacity="1.00" d=" M 99.46 219.22 C 103.59 219.22 107.71 219.23 111.84 219.20 C 111.86 238.28 111.81 257.36 111.87 276.44 C 107.73 276.47 103.58 276.48 99.44 276.42 C 99.54 257.36 99.50 238.29 99.46 219.22 Z" />
<path fill="#202221" opacity="1.00" d=" M 119.89 219.25 C 124.21 219.19 128.52 219.24 132.84 219.22 C 138.48 230.90 144.02 242.63 149.67 254.30 C 155.54 242.76 160.92 230.97 166.44 219.26 C 170.77 219.20 175.11 219.22 179.44 219.21 C 171.63 235.69 163.47 252.01 155.48 268.40 C 153.72 271.89 152.37 275.62 150.06 278.80 C 147.94 277.47 147.24 274.96 146.14 272.87 C 137.48 254.95 128.53 237.18 119.89 219.25 Z" />
<path fill="#202221" opacity="1.00" d=" M 187.44 219.27 C 191.58 219.26 195.71 219.27 199.84 219.25 C 199.83 238.35 199.83 257.44 199.84 276.54 C 195.71 276.50 191.58 276.50 187.45 276.53 C 187.49 257.44 187.50 238.36 187.44 219.27 Z" />
</g>
</svg>
