<?xml version="1.0" encoding="UTF-8" ?>
<!DOCTYPE svg PUBLIC "-//W3C//DTD SVG 1.1//EN" "http://www.w3.org/Graphics/SVG/1.1/DTD/svg11.dtd">
<svg width="256pt" height="256pt" viewBox="0 0 256 256" version="1.1" xmlns="http://www.w3.org/2000/svg">
<g id="#121e33ff">
<path fill="#121e33" opacity="1.00" d=" M 64.83 16.74 C 99.93 -3.49 144.79 -5.35 181.49 11.76 C 224.71 31.16 254.78 76.14 256.00 123.53 L 256.00 132.47 C 254.96 164.53 241.30 195.94 218.51 218.52 C 195.69 241.52 163.87 255.17 131.49 256.00 L 124.52 256.00 C 92.13 255.17 60.30 241.51 37.48 218.51 C 14.49 195.69 0.80 163.89 0.00 131.50 L 0.00 124.51 C 0.88 80.50 26.40 38.16 64.83 16.74 M 113.56 5.80 C 90.80 8.47 68.87 17.67 51.04 32.07 C 23.11 54.25 5.32 89.22 5.13 125.02 C 3.54 162.13 20.78 199.15 49.36 222.67 C 72.72 242.25 103.59 252.64 134.04 250.88 C 168.32 249.58 201.51 232.66 223.13 206.10 C 242.42 182.82 252.66 152.21 250.89 122.00 C 249.75 91.26 235.95 61.43 214.00 39.99 C 187.87 14.22 149.99 1.39 113.56 5.80 Z" />
<path fill="#121e33" opacity="1.00" d=" M 111.69 15.03 C 135.30 11.55 159.98 15.80 181.08 26.93 C 206.24 39.99 226.11 62.84 235.57 89.56 C 243.89 112.68 244.46 138.46 237.12 161.92 C 224.89 202.88 187.76 234.85 145.44 240.88 C 107.47 247.08 66.89 232.29 41.89 203.04 C 18.74 176.89 8.91 139.69 16.02 105.51 C 24.68 59.14 64.91 21.08 111.69 15.03 M 114.58 23.96 C 87.49 27.33 62.16 41.91 45.37 63.39 C 31.27 81.37 22.94 104.08 23.19 127.01 C 22.42 154.85 34.00 182.69 53.87 202.14 C 73.32 222.01 101.16 233.56 129.00 232.81 C 151.94 233.07 174.66 224.77 192.66 210.68 C 218.24 190.75 234.08 158.56 232.81 126.01 C 232.96 84.03 204.34 44.35 165.15 29.89 C 149.12 23.72 131.59 21.95 114.58 23.96 Z" />
<path fill="#121e33" opacity="1.00" d=" M 118.24 28.11 C 151.96 24.53 186.89 39.56 207.43 66.54 C 227.35 91.84 233.67 127.00 223.99 157.69 C 214.98 187.62 191.05 212.50 161.52 222.71 C 138.69 230.82 112.96 230.27 90.50 221.19 C 64.90 211.05 43.97 189.83 34.24 164.07 C 25.58 141.72 25.37 116.29 33.58 93.78 C 46.09 58.01 80.48 31.36 118.24 28.11 M 118.32 40.36 C 118.45 42.28 118.59 44.20 118.73 46.11 C 119.24 46.27 120.27 46.60 120.78 46.76 C 120.76 44.62 120.72 42.48 120.67 40.33 C 120.08 40.34 118.90 40.36 118.32 40.36 M 123.22 40.07 C 123.23 41.99 123.25 43.91 123.28 45.84 C 123.86 45.82 125.01 45.79 125.59 45.77 C 125.56 43.96 125.53 42.15 125.50 40.34 C 124.93 40.27 123.79 40.14 123.22 40.07 M 127.73 40.17 C 127.73 42.15 127.74 44.12 127.76 46.10 C 131.16 46.24 129.84 42.36 130.25 40.19 C 129.62 40.19 128.36 40.18 127.73 40.17 M 132.45 40.34 C 132.39 42.21 132.34 44.08 132.29 45.94 C 132.87 45.91 134.04 45.83 134.63 45.79 C 134.66 43.91 134.69 42.03 134.72 40.15 C 134.15 40.20 133.02 40.30 132.45 40.34 M 109.18 41.36 C 109.43 43.84 108.87 47.30 111.91 48.24 C 111.79 46.11 111.58 43.99 111.32 41.88 C 110.79 41.75 109.71 41.49 109.18 41.36 M 113.45 41.36 C 113.79 43.21 114.13 45.06 114.47 46.91 C 115.06 46.78 116.23 46.51 116.82 46.38 C 116.50 44.61 116.18 42.85 115.85 41.08 C 115.25 41.15 114.05 41.29 113.45 41.36 M 136.59 46.16 C 137.14 46.34 138.24 46.69 138.79 46.86 C 138.98 44.50 140.62 41.30 137.86 39.76 C 137.31 41.86 136.90 44.00 136.59 46.16 M 141.80 41.71 C 141.58 43.52 141.37 45.34 141.18 47.16 C 144.73 47.50 143.49 43.25 143.97 41.03 C 143.43 41.20 142.34 41.54 141.80 41.71 M 104.24 43.46 C 105.05 45.51 104.93 48.76 107.75 49.12 C 107.43 46.81 106.95 44.52 106.38 42.26 C 105.66 42.66 104.95 43.06 104.24 43.46 M 146.51 42.34 C 146.19 44.36 145.87 46.39 145.60 48.42 C 148.67 47.94 148.40 44.57 148.93 42.25 C 148.33 42.27 147.12 42.31 146.51 42.34 M 151.25 43.29 C 150.63 45.50 150.25 47.78 150.32 50.09 C 152.64 48.67 153.02 45.90 153.68 43.49 C 153.07 43.44 151.86 43.34 151.25 43.29 M 100.01 43.71 C 100.30 45.75 100.70 47.77 101.17 49.78 C 101.81 49.78 103.08 49.78 103.72 49.78 C 102.97 47.49 102.78 44.47 100.01 43.71 M 155.77 44.86 C 155.14 46.89 154.64 48.95 154.31 51.05 C 157.43 50.31 157.43 46.84 157.84 44.33 C 157.32 44.46 156.29 44.73 155.77 44.86 M 95.66 45.63 C 95.38 48.24 96.63 50.81 98.75 52.31 C 98.75 50.05 98.92 45.29 95.66 45.63 M 158.46 52.19 C 158.95 52.25 159.92 52.37 160.41 52.43 C 161.32 50.29 161.94 48.02 161.79 45.66 C 159.52 47.10 158.88 49.72 158.46 52.19 M 91.08 47.22 C 91.40 49.91 92.39 52.52 94.68 54.13 C 94.83 51.90 94.16 49.78 93.28 47.76 C 92.73 47.63 91.63 47.35 91.08 47.22 M 164.60 48.45 C 163.82 50.21 163.04 51.98 162.28 53.74 C 162.89 53.76 164.11 53.79 164.72 53.80 C 165.48 52.02 166.22 50.22 166.92 48.41 C 166.34 48.42 165.18 48.44 164.60 48.45 M 87.26 48.79 C 86.98 51.60 87.99 54.95 91.12 55.59 C 90.60 52.96 89.65 50.28 87.26 48.79 M 134.48 50.84 C 108.72 48.44 82.45 60.22 66.75 80.72 C 52.01 99.44 46.80 125.17 53.17 148.14 C 60.33 175.38 83.49 197.64 111.03 203.62 C 132.95 208.72 156.92 203.44 174.75 189.74 C 197.40 172.80 209.58 142.96 204.40 115.05 C 199.12 81.11 168.77 53.20 134.48 50.84 M 168.73 50.66 C 167.91 52.36 167.08 54.05 166.27 55.75 C 166.88 55.78 168.11 55.84 168.73 55.87 C 169.59 54.06 170.36 52.20 170.99 50.30 C 170.43 50.39 169.30 50.57 168.73 50.66 M 82.56 51.74 C 83.29 54.27 84.45 56.76 86.76 58.21 C 86.93 55.40 85.81 52.08 82.56 51.74 M 170.34 58.69 C 173.25 58.14 174.28 55.24 175.17 52.82 C 171.95 52.89 170.99 56.12 170.34 58.69 M 79.05 53.72 C 78.91 56.57 80.36 59.26 83.11 60.26 C 82.80 57.56 81.58 54.97 79.05 53.72 M 173.96 61.00 C 177.13 60.77 178.52 57.65 178.93 54.89 C 176.12 55.75 174.83 58.44 173.96 61.00 M 74.78 56.77 C 75.29 59.55 76.98 62.07 79.78 62.90 C 79.23 60.15 77.68 57.50 74.78 56.77 M 180.37 58.41 C 179.23 60.17 178.25 62.06 178.10 64.20 C 180.39 62.86 182.02 60.76 183.05 58.34 C 182.38 58.36 181.04 58.39 180.37 58.41 M 70.84 59.83 C 71.69 62.44 73.32 64.81 76.16 65.45 C 75.43 62.78 73.96 60.01 70.84 59.83 M 181.24 64.88 C 181.44 65.40 181.85 66.44 182.06 66.97 C 183.93 65.25 186.21 63.55 186.06 60.70 C 184.20 61.78 182.66 63.28 181.24 64.88 M 67.05 63.44 C 68.57 65.57 70.13 68.27 73.18 67.95 C 72.08 66.33 70.86 64.78 69.63 63.26 C 68.98 63.30 67.69 63.39 67.05 63.44 M 185.17 70.07 C 187.35 68.56 189.65 66.81 189.96 63.96 C 187.18 64.68 184.67 66.96 185.17 70.07 M 64.01 65.98 C 64.39 68.10 65.92 69.58 67.48 70.92 C 66.96 71.47 66.43 72.00 65.89 72.53 C 64.38 71.26 62.71 70.18 60.74 69.81 C 61.65 71.96 63.36 73.54 65.09 75.03 C 66.82 73.51 68.33 71.78 69.63 69.88 C 68.01 68.25 66.28 66.63 64.01 65.98 M 188.00 73.21 C 189.68 72.13 191.28 70.92 192.84 69.66 C 192.75 69.03 192.59 67.75 192.51 67.11 C 190.41 68.66 187.87 70.23 188.00 73.21 M 190.63 76.17 C 193.33 75.55 196.23 73.98 196.05 70.78 C 193.69 71.93 191.34 73.46 190.63 76.17 M 58.33 72.95 C 58.32 73.61 58.31 74.93 58.30 75.60 C 60.05 76.85 61.94 77.97 64.18 77.79 C 62.70 75.67 60.56 74.18 58.33 72.95 M 193.08 78.87 C 193.57 79.09 194.55 79.53 195.04 79.75 C 196.81 78.43 198.72 77.08 199.24 74.78 C 196.69 75.28 194.75 76.99 193.08 78.87 M 55.29 76.97 C 55.35 77.57 55.48 78.78 55.55 79.38 C 57.31 80.43 59.12 81.39 61.05 82.09 C 60.49 79.21 57.87 77.73 55.29 76.97 M 196.31 81.29 C 196.36 81.90 196.45 83.12 196.50 83.72 C 198.74 82.55 201.25 81.44 202.28 78.94 C 200.10 79.19 198.14 80.15 196.31 81.29 M 51.99 81.31 C 53.53 83.49 56.13 86.56 59.03 84.69 C 57.07 82.87 54.81 81.19 51.99 81.31 M 197.83 86.68 C 200.66 87.05 203.85 85.82 204.58 82.80 C 201.87 83.14 199.48 84.52 197.83 86.68 M 50.34 85.02 C 50.39 85.60 50.48 86.75 50.53 87.32 C 52.27 88.14 54.01 88.97 55.75 89.79 C 55.75 89.16 55.74 87.89 55.74 87.26 C 53.96 86.46 52.17 85.71 50.34 85.02 M 201.54 88.48 C 201.36 89.15 201.01 90.50 200.84 91.17 C 203.34 90.49 205.98 89.61 207.24 87.14 C 205.28 87.32 203.38 87.81 201.54 88.48 M 48.41 89.14 C 48.39 89.73 48.35 90.90 48.34 91.49 C 50.15 92.26 51.96 93.02 53.78 93.78 C 53.75 93.16 53.71 91.93 53.68 91.31 C 51.93 90.58 50.17 89.85 48.41 89.14 M 201.96 94.65 C 204.18 94.87 206.31 94.21 208.34 93.37 C 208.45 92.79 208.65 91.61 208.75 91.02 C 206.16 91.54 203.62 92.51 201.96 94.65 M 45.69 94.07 C 46.84 96.51 49.56 97.03 51.85 97.86 C 51.84 97.21 51.81 95.93 51.80 95.28 C 49.81 94.66 47.77 94.21 45.69 94.07 M 203.74 98.76 C 206.37 99.04 208.89 98.27 211.16 96.99 C 208.90 94.18 205.54 96.75 203.74 98.76 M 44.33 98.17 C 44.44 98.70 44.66 99.76 44.76 100.29 C 46.82 100.92 48.91 101.43 51.04 101.71 C 50.10 98.76 46.87 98.60 44.33 98.17 M 205.60 103.40 C 208.11 103.18 211.75 103.18 212.24 99.95 C 209.80 100.48 206.38 100.38 205.60 103.40 M 43.44 102.46 C 43.39 103.06 43.30 104.25 43.25 104.85 C 45.25 105.30 47.26 105.69 49.27 106.05 C 49.07 105.47 48.68 104.32 48.48 103.75 C 46.80 103.32 45.12 102.89 43.44 102.46 M 206.89 107.74 C 209.25 107.50 211.57 107.00 213.86 106.37 C 213.42 105.67 212.99 104.97 212.56 104.27 C 210.50 105.05 207.45 105.05 206.89 107.74 M 42.25 107.07 C 42.26 107.70 42.29 108.95 42.30 109.58 C 44.33 109.88 46.35 110.17 48.38 110.40 C 47.80 107.46 44.52 107.67 42.25 107.07 M 207.71 111.78 C 209.71 111.77 211.71 111.70 213.70 111.59 C 214.11 110.81 214.52 110.03 214.93 109.25 C 212.37 109.45 209.02 108.96 207.71 111.78 M 40.63 112.21 C 41.56 114.92 44.60 114.54 46.89 114.93 C 46.85 114.30 46.76 113.04 46.71 112.42 C 44.69 112.31 42.66 112.23 40.63 112.21 M 208.61 116.47 C 211.21 116.64 213.81 116.28 216.13 115.03 C 213.90 113.16 209.65 113.38 208.61 116.47 M 39.66 118.11 C 42.19 118.86 45.16 120.18 47.36 117.92 C 44.94 117.08 41.57 115.29 39.66 118.11 M 209.96 118.82 C 209.79 119.30 209.43 120.27 209.26 120.76 C 211.41 120.77 213.56 120.76 215.72 120.73 C 215.70 120.13 215.67 118.93 215.66 118.33 C 213.76 118.49 211.86 118.65 209.96 118.82 M 40.15 121.28 C 40.18 121.87 40.24 123.03 40.27 123.61 C 42.15 123.65 44.03 123.69 45.92 123.73 C 45.86 123.15 45.75 122.01 45.70 121.44 C 43.85 121.38 42.00 121.33 40.15 121.28 M 210.21 123.33 C 210.22 123.90 210.25 125.04 210.27 125.61 C 212.08 125.58 213.89 125.56 215.70 125.54 C 215.76 124.96 215.89 123.81 215.95 123.23 C 214.03 123.26 212.12 123.29 210.21 123.33 M 39.41 126.27 C 39.55 126.76 39.81 127.74 39.95 128.22 C 41.81 128.30 43.68 128.36 45.54 128.43 C 45.63 127.84 45.81 126.66 45.90 126.07 C 43.74 126.05 41.57 126.11 39.41 126.27 M 210.56 127.79 C 208.90 131.30 215.36 130.75 216.85 128.99 C 215.15 127.32 212.72 127.58 210.56 127.79 M 40.39 130.55 C 40.28 131.12 40.06 132.25 39.94 132.82 C 41.91 132.80 43.87 132.77 45.83 132.73 C 45.81 132.16 45.76 131.03 45.73 130.46 C 43.95 130.49 42.17 130.52 40.39 130.55 M 210.13 132.32 C 210.15 132.89 210.20 134.05 210.22 134.63 C 212.11 134.68 214.01 134.72 215.92 134.76 C 215.85 134.18 215.72 133.04 215.66 132.46 C 213.82 132.41 211.97 132.36 210.13 132.32 M 40.32 135.33 C 40.31 135.93 40.31 137.14 40.31 137.74 C 42.23 137.59 44.16 137.43 46.08 137.27 C 46.25 136.77 46.57 135.77 46.74 135.27 C 44.60 135.27 42.46 135.30 40.32 135.33 M 208.61 138.07 C 210.77 139.17 213.16 139.56 215.55 139.70 C 215.57 139.12 215.61 137.97 215.63 137.39 C 213.24 137.07 210.66 136.31 208.61 138.07 M 40.22 140.55 C 40.63 141.21 41.04 141.87 41.45 142.53 C 43.27 142.22 45.08 141.90 46.90 141.59 C 46.76 140.98 46.49 139.77 46.35 139.17 C 44.30 139.61 42.26 140.07 40.22 140.55 M 209.09 141.13 C 209.13 141.72 209.21 142.90 209.25 143.49 C 211.03 143.79 212.82 144.10 214.61 144.42 C 214.67 143.84 214.80 142.68 214.86 142.10 C 212.95 141.73 211.02 141.42 209.09 141.13 M 41.85 144.66 C 41.70 145.20 41.41 146.29 41.26 146.84 C 43.80 146.62 47.15 147.12 48.25 144.16 C 46.11 144.25 43.98 144.43 41.85 144.66 M 207.69 145.63 C 208.04 148.79 211.55 148.40 213.85 148.96 C 213.79 148.34 213.69 147.10 213.63 146.48 C 211.65 146.18 209.67 145.88 207.69 145.63 M 42.19 149.67 C 42.60 150.38 43.01 151.10 43.42 151.82 C 45.52 151.09 48.45 150.99 49.18 148.39 C 46.81 148.56 44.48 149.05 42.19 149.67 M 206.69 149.98 C 207.07 152.94 210.34 152.95 212.54 153.74 C 212.59 153.12 212.70 151.88 212.75 151.26 C 210.75 150.77 208.73 150.34 206.69 149.98 M 43.76 156.09 C 45.78 155.75 47.78 155.31 49.77 154.81 C 49.76 154.18 49.75 152.92 49.74 152.29 C 47.52 153.13 44.27 153.17 43.76 156.09 M 205.41 154.16 C 205.43 154.73 205.47 155.86 205.50 156.43 C 207.66 157.11 209.87 157.63 212.15 157.74 C 210.86 155.15 207.98 154.64 205.41 154.16 M 44.96 158.90 C 45.60 159.55 46.24 160.19 46.89 160.84 C 48.72 159.89 50.53 158.91 52.31 157.85 C 49.81 156.46 47.29 157.97 44.96 158.90 M 204.12 158.23 C 204.16 158.85 204.23 160.08 204.27 160.69 C 206.00 161.34 207.74 161.99 209.47 162.63 C 209.53 162.05 209.65 160.89 209.71 160.31 C 207.85 159.61 205.99 158.91 204.12 158.23 M 46.62 164.26 C 49.60 165.45 52.21 163.48 54.08 161.38 C 51.19 160.91 48.57 162.17 46.62 164.26 M 202.28 162.30 C 202.28 162.91 202.28 164.13 202.28 164.74 C 204.06 165.49 205.84 166.23 207.64 166.94 C 207.64 166.35 207.63 165.17 207.63 164.58 C 205.84 163.81 204.06 163.05 202.28 162.30 M 48.73 168.81 C 51.50 168.96 54.88 168.15 55.33 164.91 C 52.78 165.51 50.13 166.41 48.73 168.81 M 200.30 166.28 C 200.28 166.90 200.23 168.14 200.21 168.76 C 202.02 169.58 203.86 170.34 205.73 171.02 C 205.65 170.44 205.49 169.28 205.41 168.70 C 203.71 167.89 202.01 167.08 200.30 166.28 M 51.06 172.12 C 53.70 174.61 56.44 171.20 58.17 169.28 C 55.41 168.98 53.12 170.50 51.06 172.12 M 197.18 171.89 C 199.25 173.34 201.43 174.90 204.10 174.68 C 202.71 172.86 200.85 171.50 198.95 170.25 C 198.35 170.80 197.76 171.35 197.18 171.89 M 53.72 177.01 C 56.55 177.05 59.17 175.63 60.26 172.95 C 57.54 173.18 54.86 174.38 53.72 177.01 M 195.34 173.96 C 195.38 174.57 195.45 175.79 195.49 176.40 C 197.23 177.53 199.07 178.53 201.12 178.99 C 200.41 176.20 197.76 174.97 195.34 173.96 M 56.73 181.30 C 59.01 180.65 60.98 179.33 62.82 177.88 C 62.24 177.31 61.66 176.74 61.08 176.18 C 59.28 177.57 57.39 179.00 56.73 181.30 M 191.83 178.22 C 193.28 180.33 195.32 181.90 197.50 183.21 C 198.67 179.79 194.57 178.04 191.83 178.22 M 59.80 185.18 C 62.36 184.28 64.83 182.72 65.32 179.83 C 62.70 180.63 59.96 182.09 59.80 185.18 M 189.13 182.14 C 190.75 183.90 192.53 185.50 194.49 186.87 C 194.55 186.27 194.67 185.05 194.72 184.45 C 193.50 183.39 192.28 182.33 191.07 181.28 C 190.58 181.49 189.61 181.93 189.13 182.14 M 63.21 186.37 C 63.27 187.02 63.37 188.31 63.42 188.96 C 65.54 187.44 68.24 185.89 67.93 182.85 C 66.30 183.94 64.75 185.14 63.21 186.37 M 186.06 185.46 C 187.67 187.44 189.37 189.60 192.08 190.00 C 191.49 188.05 190.23 186.47 188.83 185.05 C 188.14 185.16 186.75 185.36 186.06 185.46 M 65.99 192.02 C 68.36 191.46 70.04 189.68 71.63 187.97 C 71.09 187.39 70.55 186.82 70.01 186.25 C 68.31 187.90 66.55 189.63 65.99 192.02 M 182.82 188.08 C 183.92 189.72 185.13 191.27 186.37 192.81 C 187.02 192.74 188.33 192.60 188.98 192.53 C 187.40 190.46 185.85 187.75 182.82 188.08 M 69.83 195.29 C 71.82 194.33 73.38 192.76 74.81 191.12 C 74.57 190.64 74.09 189.68 73.85 189.20 C 71.98 190.84 69.93 192.58 69.83 195.29 M 179.78 190.81 C 180.61 193.39 182.14 196.10 185.22 196.13 C 184.14 193.74 182.74 191.07 179.78 190.81 M 72.94 197.77 C 73.62 197.74 74.98 197.67 75.65 197.64 C 76.81 195.88 77.82 194.01 77.85 191.85 C 75.60 193.24 74.06 195.41 72.94 197.77 M 177.51 193.23 C 177.18 193.67 176.53 194.55 176.20 194.99 C 177.58 196.77 179.02 198.61 181.28 199.30 C 180.74 196.88 179.28 194.90 177.51 193.23 M 79.62 195.51 C 78.50 197.25 77.49 199.07 77.00 201.10 C 79.84 200.47 81.07 197.77 82.03 195.32 C 81.43 195.37 80.22 195.46 79.62 195.51 M 172.98 195.74 C 173.12 198.49 174.38 201.16 177.02 202.29 C 177.05 199.46 175.61 196.88 172.98 195.74 M 81.32 203.89 C 83.16 202.65 84.85 201.04 85.55 198.88 C 83.60 195.14 80.95 202.01 81.32 203.89 M 169.30 197.84 C 169.07 200.32 170.24 202.50 171.54 204.51 C 172.03 204.39 173.00 204.14 173.48 204.02 C 172.76 201.56 171.32 199.41 169.30 197.84 M 87.25 200.25 C 86.43 202.04 85.67 203.86 84.99 205.72 C 85.57 205.65 86.73 205.50 87.32 205.43 C 88.12 203.71 88.94 202.00 89.74 200.28 C 89.12 200.27 87.87 200.25 87.25 200.25 M 164.90 200.70 C 165.50 203.23 166.40 205.88 168.79 207.27 C 168.99 204.50 168.11 201.15 164.90 200.70 M 91.28 202.29 C 90.53 204.06 89.80 205.84 89.09 207.63 C 89.68 207.64 90.86 207.67 91.45 207.68 C 92.21 205.87 92.97 204.06 93.72 202.25 C 93.11 202.26 91.89 202.28 91.28 202.29 M 161.35 201.96 C 161.25 204.43 161.53 207.55 163.98 208.85 C 166.13 206.91 163.13 203.51 161.35 201.96 M 95.42 204.22 C 94.79 205.78 94.16 207.34 93.53 208.90 C 93.97 209.21 94.84 209.84 95.28 210.16 C 96.23 208.20 97.07 206.19 97.83 204.15 C 97.23 204.17 96.02 204.21 95.42 204.22 M 157.27 203.76 C 156.98 206.36 157.81 208.83 158.97 211.12 C 162.03 209.20 159.30 205.39 157.27 203.76 M 99.59 205.56 C 98.97 207.66 98.48 209.79 98.31 211.98 C 101.11 210.91 101.31 207.84 101.85 205.34 C 101.29 205.40 100.15 205.51 99.59 205.56 M 152.29 206.22 C 153.10 208.49 153.15 211.69 156.06 212.29 C 155.71 210.25 155.26 208.24 154.74 206.25 C 154.13 206.24 152.90 206.23 152.29 206.22 M 102.29 212.49 C 102.92 212.56 104.19 212.71 104.82 212.79 C 105.28 210.75 105.69 208.71 106.01 206.65 C 103.15 207.14 103.08 210.29 102.29 212.49 M 148.13 207.40 C 148.69 209.79 148.61 212.96 151.47 213.86 C 151.26 211.68 150.90 209.52 150.48 207.37 C 149.89 207.38 148.71 207.40 148.13 207.40 M 107.06 214.06 C 110.59 214.28 109.91 209.97 110.42 207.66 C 107.19 208.07 107.61 211.70 107.06 214.06 M 144.09 208.07 C 144.24 210.66 143.84 213.89 146.66 215.18 C 146.63 213.05 146.49 210.92 146.29 208.80 C 145.74 208.62 144.64 208.25 144.09 208.07 M 112.37 209.31 C 112.28 211.32 112.21 213.34 112.20 215.37 C 114.90 214.41 114.50 211.37 114.91 209.10 C 114.28 209.15 113.00 209.25 112.37 209.31 M 137.67 216.07 C 137.68 213.46 137.50 210.75 135.83 208.62 C 135.39 211.21 133.68 215.67 137.67 216.07 M 116.31 215.49 C 116.89 215.54 118.05 215.64 118.63 215.69 C 118.96 213.28 119.79 210.64 117.90 208.63 C 116.94 210.80 116.51 213.14 116.31 215.49 M 121.39 210.26 C 121.34 212.13 121.30 214.01 121.26 215.88 C 121.84 215.84 123.00 215.74 123.58 215.70 C 123.62 213.84 123.67 211.99 123.71 210.13 C 123.13 210.17 121.97 210.23 121.39 210.26 M 130.43 210.25 C 130.45 212.05 130.48 213.84 130.51 215.64 C 131.08 215.74 132.22 215.92 132.79 216.02 C 132.77 214.08 132.74 212.14 132.71 210.21 C 132.14 210.22 131.00 210.24 130.43 210.25 M 139.39 208.93 C 139.61 211.18 139.94 213.43 140.36 215.65 C 140.88 215.49 141.91 215.17 142.43 215.01 C 141.92 212.84 142.62 208.93 139.39 208.93 M 125.95 210.54 C 126.01 212.72 124.88 216.63 128.27 216.49 C 127.86 214.41 129.86 209.03 125.95 210.54 Z" />
<path fill="#121e33" opacity="1.00" d=" M 122.86 77.10 C 130.32 73.83 126.51 65.76 128.07 59.84 C 129.07 65.86 125.84 73.83 133.12 76.97 C 133.33 71.38 133.88 65.70 132.60 60.19 C 133.12 60.55 133.64 60.92 134.16 61.28 C 133.33 66.75 133.68 72.30 133.50 77.81 C 134.83 79.15 136.16 80.51 137.48 81.87 C 138.16 82.58 138.84 83.28 139.54 83.98 C 140.99 85.42 142.56 86.73 144.14 88.03 C 144.57 79.44 144.51 70.82 143.63 62.26 C 143.92 62.46 144.51 62.85 144.80 63.04 C 144.22 71.59 144.96 80.20 144.51 88.78 C 145.45 89.78 146.39 90.78 147.33 91.78 C 153.98 85.44 160.30 78.76 166.85 72.33 L 166.38 72.94 C 165.84 73.65 165.29 74.34 164.72 75.02 C 159.18 80.86 153.11 86.19 147.84 92.27 L 149.04 93.57 C 149.73 94.28 150.44 94.97 151.17 95.65 C 154.89 98.72 157.72 102.80 161.92 105.27 C 165.14 101.84 168.60 98.63 171.82 95.18 C 172.34 90.76 170.69 86.11 172.12 81.83 C 172.82 86.25 172.24 90.82 171.96 95.25 C 169.05 99.23 165.02 102.23 161.74 105.89 C 163.53 107.78 165.34 109.65 167.16 111.51 C 171.45 111.12 176.85 112.73 180.08 109.07 C 183.02 106.06 186.46 103.35 188.28 99.46 C 188.67 99.89 189.06 100.33 189.46 100.77 C 185.30 103.74 182.28 107.97 178.25 111.06 C 174.97 112.13 171.40 111.62 168.00 111.92 C 172.71 117.55 178.47 122.16 183.32 127.66 C 186.92 124.20 191.11 121.08 193.30 116.46 C 193.69 116.89 194.08 117.32 194.47 117.76 C 187.21 123.78 181.23 131.15 174.27 137.49 C 173.48 138.24 172.70 139.02 171.93 139.80 C 170.43 141.33 168.91 142.85 167.39 144.36 C 167.00 144.74 166.62 145.13 166.24 145.52 C 165.41 146.36 164.60 147.21 163.79 148.07 C 163.47 147.79 162.81 147.22 162.48 146.94 C 161.57 146.14 160.66 145.34 159.78 144.52 C 159.53 144.28 159.03 143.80 158.78 143.56 C 150.72 135.33 142.49 127.27 134.32 119.16 C 133.88 118.71 133.44 118.27 133.01 117.82 C 131.82 116.58 130.62 115.33 129.40 114.11 C 128.96 113.66 128.51 113.21 128.06 112.76 C 127.58 113.22 127.09 113.69 126.61 114.16 C 124.24 116.44 121.89 118.76 119.53 121.06 C 121.45 122.84 122.71 125.12 123.48 127.62 C 124.79 126.33 126.11 125.05 127.52 123.86 C 127.75 123.87 128.22 123.87 128.45 123.87 C 136.02 130.26 142.79 137.54 149.58 144.74 C 150.11 145.28 150.65 145.82 151.19 146.35 C 152.10 147.23 153.02 148.11 153.95 148.98 C 155.43 150.52 156.83 152.14 158.24 153.74 C 153.97 157.94 149.75 162.18 145.47 166.37 C 145.02 166.80 144.59 167.24 144.15 167.67 C 142.63 169.18 141.07 170.65 139.53 172.13 C 138.72 172.91 137.92 173.71 137.14 174.52 C 136.03 175.68 134.94 176.86 133.85 178.04 C 137.66 181.83 141.29 185.81 145.49 189.18 C 145.30 189.55 145.12 189.92 144.94 190.29 C 141.49 185.93 137.43 182.12 133.37 178.34 C 131.71 180.03 130.03 181.71 128.34 183.38 C 131.90 187.46 136.00 191.00 139.76 194.89 C 132.21 188.74 125.65 181.35 118.76 174.44 C 117.99 173.64 117.21 172.86 116.42 172.09 C 114.94 170.65 113.40 169.26 111.84 167.90 C 111.71 176.32 111.23 184.79 111.94 193.19 C 111.58 193.32 110.86 193.58 110.50 193.71 C 111.92 184.98 111.39 176.03 111.23 167.24 C 105.30 161.05 99.08 155.11 93.13 148.92 C 91.03 147.08 89.22 143.99 86.01 144.51 C 78.10 144.96 70.10 143.93 62.29 145.50 C 62.42 145.14 62.67 144.43 62.80 144.07 C 71.20 144.78 79.66 144.30 88.08 144.17 C 86.74 142.62 85.39 141.09 83.96 139.63 C 83.26 138.92 82.57 138.22 81.86 137.53 C 76.84 130.67 67.39 134.15 60.24 134.47 C 60.41 134.13 60.75 133.45 60.93 133.12 C 66.31 133.71 71.73 133.32 77.12 133.14 C 75.54 131.35 73.87 129.65 72.13 128.03 C 69.85 128.27 67.57 128.51 65.31 128.85 C 65.81 128.39 66.31 127.94 66.81 127.48 C 68.59 127.64 70.36 127.80 72.14 127.97 C 74.15 126.27 75.98 124.36 77.43 122.15 C 75.31 120.12 73.16 118.13 71.16 115.99 C 73.68 117.71 75.82 119.91 77.92 122.10 C 78.53 121.57 79.74 120.52 80.35 119.99 C 81.61 118.86 82.82 117.69 84.01 116.49 C 84.41 116.07 85.22 115.23 85.63 114.82 C 86.03 114.40 86.43 113.98 86.83 113.56 C 88.47 111.85 90.09 110.13 91.69 108.39 C 88.76 105.60 85.97 102.57 82.37 100.60 C 82.78 100.27 83.15 99.87 83.65 99.66 C 86.32 102.61 88.97 105.58 91.98 108.20 C 94.51 105.77 96.99 103.30 99.50 100.85 C 99.91 100.45 100.32 100.05 100.73 99.65 C 101.15 99.24 101.99 98.42 102.41 98.01 C 103.58 96.87 104.73 95.72 105.89 94.56 C 106.33 94.11 107.23 93.21 107.68 92.76 C 108.10 92.33 108.52 91.91 108.94 91.48 C 109.33 91.09 110.10 90.31 110.48 89.92 C 110.89 89.50 111.30 89.08 111.71 88.67 C 115.23 84.99 118.88 81.44 122.46 77.83 C 122.40 72.35 122.64 66.83 121.60 61.42 C 122.00 61.42 122.80 61.42 123.20 61.42 C 121.99 66.56 122.81 71.88 122.86 77.10 M 112.17 128.54 C 111.97 128.71 111.77 128.89 111.57 129.06 C 110.05 130.60 108.54 132.14 107.03 133.69 L 106.57 133.17 L 107.04 133.99 C 106.05 134.80 105.05 135.62 104.06 136.44 C 103.83 136.73 103.60 137.02 103.38 137.31 C 102.83 137.84 101.75 138.90 101.20 139.43 C 100.96 139.64 100.72 139.84 100.48 140.05 C 99.95 140.63 98.91 141.79 98.39 142.37 C 98.09 142.59 97.80 142.82 97.52 143.05 C 95.94 144.71 94.37 146.37 92.82 148.05 C 94.52 149.75 96.23 151.44 97.97 153.11 C 99.58 151.55 101.19 149.98 102.81 148.42 C 108.22 143.42 113.27 138.05 118.45 132.82 C 122.54 130.33 124.70 124.02 119.16 121.78 C 116.76 123.97 114.41 126.20 112.17 128.54 M 109.07 153.18 C 115.13 159.78 121.67 165.94 128.00 172.29 C 134.37 165.96 140.91 159.79 146.96 153.16 C 140.52 147.04 134.39 140.60 128.01 134.42 C 121.66 140.63 115.48 147.03 109.07 153.18 Z" />
</g>
<g id="#c19f5bff">
<path fill="#c19f5b" opacity="1.00" d=" M 113.56 5.80 C 149.99 1.39 187.87 14.22 214.00 39.99 C 235.95 61.43 249.75 91.26 250.89 122.00 C 252.66 152.21 242.42 182.82 223.13 206.10 C 201.51 232.66 168.32 249.58 134.04 250.88 C 103.59 252.64 72.72 242.25 49.36 222.67 C 20.78 199.15 3.54 162.13 5.13 125.02 C 5.32 89.22 23.11 54.25 51.04 32.07 C 68.87 17.67 90.80 8.47 113.56 5.80 M 111.69 15.03 C 64.91 21.08 24.68 59.14 16.02 105.51 C 8.91 139.69 18.74 176.89 41.89 203.04 C 66.89 232.29 107.47 247.08 145.44 240.88 C 187.76 234.85 224.89 202.88 237.12 161.92 C 244.46 138.46 243.89 112.68 235.57 89.56 C 226.11 62.84 206.24 39.99 181.08 26.93 C 159.98 15.80 135.30 11.55 111.69 15.03 Z" />
<path fill="#c19f5b" opacity="1.00" d=" M 114.58 23.96 C 131.59 21.95 149.12 23.72 165.15 29.89 C 204.34 44.35 232.96 84.03 232.81 126.01 C 234.08 158.56 218.24 190.75 192.66 210.68 C 174.66 224.77 151.94 233.07 129.00 232.81 C 101.16 233.56 73.32 222.01 53.87 202.14 C 34.00 182.69 22.42 154.85 23.19 127.01 C 22.94 104.08 31.27 81.37 45.37 63.39 C 62.16 41.91 87.49 27.33 114.58 23.96 M 118.24 28.11 C 80.48 31.36 46.09 58.01 33.58 93.78 C 25.37 116.29 25.58 141.72 34.24 164.07 C 43.97 189.83 64.90 211.05 90.50 221.19 C 112.96 230.27 138.69 230.82 161.52 222.71 C 191.05 212.50 214.98 187.62 223.99 157.69 C 233.67 127.00 227.35 91.84 207.43 66.54 C 186.89 39.56 151.96 24.53 118.24 28.11 Z" />
<path fill="#c19f5b" opacity="1.00" d=" M 118.32 40.36 C 118.90 40.36 120.08 40.34 120.67 40.33 C 120.72 42.48 120.76 44.62 120.78 46.76 C 120.27 46.60 119.24 46.27 118.73 46.11 C 118.59 44.20 118.45 42.28 118.32 40.36 Z" />
<path fill="#c19f5b" opacity="1.00" d=" M 123.22 40.07 C 123.79 40.14 124.93 40.27 125.50 40.34 C 125.53 42.15 125.56 43.96 125.59 45.77 C 125.01 45.79 123.86 45.82 123.28 45.84 C 123.25 43.91 123.23 41.99 123.22 40.07 Z" />
<path fill="#c19f5b" opacity="1.00" d=" M 127.73 40.17 C 128.36 40.18 129.62 40.19 130.25 40.19 C 129.84 42.36 131.16 46.24 127.76 46.10 C 127.74 44.12 127.73 42.15 127.73 40.17 Z" />
<path fill="#c19f5b" opacity="1.00" d=" M 132.45 40.34 C 133.02 40.30 134.15 40.20 134.72 40.15 C 134.69 42.03 134.66 43.91 134.63 45.79 C 134.04 45.83 132.87 45.91 132.29 45.94 C 132.34 44.08 132.39 42.21 132.45 40.34 Z" />
<path fill="#c19f5b" opacity="1.00" d=" M 109.18 41.36 C 109.71 41.49 110.79 41.75 111.32 41.88 C 111.58 43.99 111.79 46.11 111.91 48.24 C 108.87 47.30 109.43 43.84 109.18 41.36 Z" />
<path fill="#c19f5b" opacity="1.00" d=" M 113.45 41.36 C 114.05 41.29 115.25 41.15 115.85 41.08 C 116.18 42.85 116.50 44.61 116.82 46.38 C 116.23 46.51 115.06 46.78 114.47 46.91 C 114.13 45.06 113.79 43.21 113.45 41.36 Z" />
<path fill="#c19f5b" opacity="1.00" d=" M 136.59 46.16 C 136.90 44.00 137.31 41.86 137.86 39.76 C 140.62 41.30 138.98 44.50 138.79 46.86 C 138.24 46.69 137.14 46.34 136.59 46.16 Z" />
<path fill="#c19f5b" opacity="1.00" d=" M 141.80 41.71 C 142.34 41.54 143.43 41.20 143.97 41.03 C 143.49 43.25 144.73 47.50 141.18 47.16 C 141.37 45.34 141.58 43.52 141.80 41.71 Z" />
<path fill="#c19f5b" opacity="1.00" d=" M 104.24 43.46 C 104.95 43.06 105.66 42.66 106.38 42.26 C 106.95 44.52 107.43 46.81 107.75 49.12 C 104.93 48.76 105.05 45.51 104.24 43.46 Z" />
<path fill="#c19f5b" opacity="1.00" d=" M 146.51 42.34 C 147.12 42.31 148.33 42.27 148.93 42.25 C 148.40 44.57 148.67 47.94 145.60 48.42 C 145.87 46.39 146.19 44.36 146.51 42.34 Z" />
<path fill="#c19f5b" opacity="1.00" d=" M 151.25 43.29 C 151.86 43.34 153.07 43.44 153.68 43.49 C 153.02 45.90 152.64 48.67 150.32 50.09 C 150.25 47.78 150.63 45.50 151.25 43.29 Z" />
<path fill="#c19f5b" opacity="1.00" d=" M 100.01 43.71 C 102.78 44.47 102.97 47.49 103.72 49.78 C 103.08 49.78 101.81 49.78 101.17 49.78 C 100.70 47.77 100.30 45.75 100.01 43.71 Z" />
<path fill="#c19f5b" opacity="1.00" d=" M 155.77 44.86 C 156.29 44.73 157.32 44.46 157.84 44.33 C 157.43 46.84 157.43 50.31 154.31 51.05 C 154.64 48.95 155.14 46.89 155.77 44.86 Z" />
<path fill="#c19f5b" opacity="1.00" d=" M 95.66 45.63 C 98.92 45.29 98.75 50.05 98.75 52.31 C 96.63 50.81 95.38 48.24 95.66 45.63 Z" />
<path fill="#c19f5b" opacity="1.00" d=" M 158.46 52.19 C 158.88 49.72 159.52 47.10 161.79 45.66 C 161.94 48.02 161.32 50.29 160.41 52.43 C 159.92 52.37 158.95 52.25 158.46 52.19 Z" />
<path fill="#c19f5b" opacity="1.00" d=" M 91.08 47.22 C 91.63 47.35 92.73 47.63 93.28 47.76 C 94.16 49.78 94.83 51.90 94.68 54.13 C 92.39 52.52 91.40 49.91 91.08 47.22 Z" />
<path fill="#c19f5b" opacity="1.00" d=" M 164.60 48.45 C 165.18 48.44 166.34 48.42 166.92 48.41 C 166.22 50.22 165.48 52.02 164.72 53.80 C 164.11 53.79 162.89 53.76 162.28 53.74 C 163.04 51.98 163.82 50.21 164.60 48.45 Z" />
<path fill="#c19f5b" opacity="1.00" d=" M 87.26 48.79 C 89.65 50.28 90.60 52.96 91.12 55.59 C 87.99 54.95 86.98 51.60 87.26 48.79 Z" />
<path fill="#c19f5b" opacity="1.00" d=" M 134.48 50.84 C 168.77 53.20 199.12 81.11 204.40 115.05 C 209.58 142.96 197.40 172.80 174.75 189.74 C 156.92 203.44 132.95 208.72 111.03 203.62 C 83.49 197.64 60.33 175.38 53.17 148.14 C 46.80 125.17 52.01 99.44 66.75 80.72 C 82.45 60.22 108.72 48.44 134.48 50.84 M 122.86 77.10 C 122.81 71.88 121.99 66.56 123.20 61.42 C 122.80 61.42 122.00 61.42 121.60 61.42 C 122.64 66.83 122.40 72.35 122.46 77.83 C 118.88 81.44 115.23 84.99 111.71 88.67 C 105.08 83.17 98.58 77.23 93.70 70.08 C 92.07 71.39 88.96 72.01 88.54 74.18 C 95.88 79.23 102.18 85.77 107.68 92.76 C 107.23 93.21 106.33 94.11 105.89 94.56 C 104.08 92.73 102.48 90.71 101.05 88.58 C 100.47 88.45 99.29 88.18 98.70 88.05 C 99.11 91.74 106.44 93.27 103.20 96.86 C 96.07 90.64 89.68 83.64 83.28 76.71 C 82.96 77.54 82.65 78.38 82.34 79.21 C 90.18 84.10 95.97 91.52 102.41 98.01 C 101.99 98.42 101.15 99.24 100.73 99.65 C 96.56 96.96 93.11 93.35 90.42 89.19 C 89.72 87.49 88.14 88.91 87.02 89.29 C 91.71 92.55 95.74 96.59 99.50 100.85 C 96.99 103.30 94.51 105.77 91.98 108.20 C 88.97 105.58 86.32 102.61 83.65 99.66 C 83.15 99.87 82.78 100.27 82.37 100.60 C 85.97 102.57 88.76 105.60 91.69 108.39 C 90.09 110.13 88.47 111.85 86.83 113.56 C 83.55 110.90 80.71 107.73 78.39 104.20 C 77.66 104.94 76.94 105.69 76.21 106.43 C 80.07 108.32 83.43 111.09 85.63 114.82 C 85.22 115.23 84.41 116.07 84.01 116.49 C 78.41 111.18 72.32 106.19 68.08 99.66 C 67.62 99.54 66.69 99.28 66.23 99.15 C 66.28 99.73 66.40 100.88 66.45 101.45 C 72.19 106.03 77.62 111.15 82.21 116.87 C 81.96 117.38 81.47 118.40 81.22 118.91 C 75.78 114.33 70.96 109.09 66.37 103.70 C 65.12 102.38 63.42 104.93 65.04 105.70 C 70.99 109.49 75.46 115.00 80.35 119.99 C 79.74 120.52 78.53 121.57 77.92 122.10 C 75.82 119.91 73.68 117.71 71.16 115.99 C 73.16 118.13 75.31 120.12 77.43 122.15 C 75.98 124.36 74.15 126.27 72.14 127.97 C 70.36 127.80 68.59 127.64 66.81 127.48 C 66.31 127.94 65.81 128.39 65.31 128.85 C 67.57 128.51 69.85 128.27 72.13 128.03 C 73.87 129.65 75.54 131.35 77.12 133.14 C 71.73 133.32 66.31 133.71 60.93 133.12 C 60.75 133.45 60.41 134.13 60.24 134.47 C 67.39 134.15 76.84 130.67 81.86 137.53 C 78.29 138.54 74.57 138.52 70.90 138.30 C 71.28 139.06 71.66 139.81 72.04 140.57 C 75.95 139.67 79.96 139.39 83.96 139.63 C 85.39 141.09 86.74 142.62 88.08 144.17 C 79.66 144.30 71.20 144.78 62.80 144.07 C 62.67 144.43 62.42 145.14 62.29 145.50 C 70.10 143.93 78.10 144.96 86.01 144.51 C 89.22 143.99 91.03 147.08 93.13 148.92 C 99.08 155.11 105.30 161.05 111.23 167.24 C 111.39 176.03 111.92 184.98 110.50 193.71 C 110.86 193.58 111.58 193.32 111.94 193.19 C 111.23 184.79 111.71 176.32 111.84 167.90 C 113.40 169.26 114.94 170.65 116.42 172.09 C 116.12 174.32 115.80 176.55 115.49 178.78 C 115.96 179.10 116.90 179.73 117.37 180.04 C 118.21 178.28 118.56 176.36 118.76 174.44 C 125.65 181.35 132.21 188.74 139.76 194.89 C 136.00 191.00 131.90 187.46 128.34 183.38 C 130.03 181.71 131.71 180.03 133.37 178.34 C 137.43 182.12 141.49 185.93 144.94 190.29 C 145.12 189.92 145.30 189.55 145.49 189.18 C 141.29 185.81 137.66 181.83 133.85 178.04 C 134.94 176.86 136.03 175.68 137.14 174.52 C 140.60 181.36 147.18 185.81 151.45 192.11 C 151.84 191.59 152.61 190.54 153.00 190.02 C 147.72 184.93 138.52 180.65 139.53 172.13 C 141.07 170.65 142.63 169.18 144.15 167.67 C 151.32 173.18 156.46 181.25 163.84 186.21 C 163.74 185.64 163.54 184.50 163.43 183.93 C 156.48 179.24 150.62 172.95 145.47 166.37 C 149.75 162.18 153.97 157.94 158.24 153.74 C 160.51 152.30 162.52 150.47 163.79 148.07 C 164.60 147.21 165.41 146.36 166.24 145.52 C 172.08 151.78 180.07 156.71 183.57 164.71 C 176.60 161.59 172.67 154.44 166.74 149.84 C 162.36 153.05 158.77 157.16 155.02 161.04 C 158.63 165.16 163.02 168.62 165.85 173.38 C 166.35 173.51 167.36 173.78 167.86 173.91 C 167.77 173.34 167.60 172.19 167.51 171.61 C 163.35 168.59 159.61 165.03 156.37 161.04 C 159.49 157.50 162.85 154.19 166.30 150.98 C 172.21 155.90 177.78 161.36 182.23 167.66 C 185.19 163.71 187.79 159.47 189.73 154.92 C 186.19 152.92 182.92 150.34 180.96 146.70 C 185.17 145.30 189.63 145.36 194.00 145.65 C 193.61 144.93 193.23 144.21 192.85 143.49 C 189.46 144.26 185.98 144.31 182.58 143.60 C 182.07 145.08 178.75 148.05 178.74 145.09 C 183.53 138.66 189.78 133.31 195.86 128.08 C 195.57 127.56 194.99 126.53 194.70 126.02 C 189.54 133.00 182.90 138.61 177.07 144.97 C 180.63 149.14 185.91 152.19 187.39 157.79 C 182.75 156.02 180.18 151.61 177.13 148.00 C 176.79 148.85 176.46 149.70 176.13 150.55 C 180.06 153.35 184.86 156.21 185.60 161.46 C 178.16 157.63 172.91 150.50 167.39 144.36 C 168.91 142.85 170.43 141.33 171.93 139.80 C 180.25 140.63 184.32 131.76 190.28 127.51 C 189.83 127.22 188.93 126.63 188.48 126.34 C 185.32 130.89 181.50 134.94 177.22 138.46 C 176.48 138.21 175.01 137.73 174.27 137.49 C 181.23 131.15 187.21 123.78 194.47 117.76 C 194.08 117.32 193.69 116.89 193.30 116.46 C 191.11 121.08 186.92 124.20 183.32 127.66 C 178.47 122.16 172.71 117.55 168.00 111.92 C 171.40 111.62 174.97 112.13 178.25 111.06 C 182.28 107.97 185.30 103.74 189.46 100.77 C 189.06 100.33 188.67 99.89 188.28 99.46 C 186.46 103.35 183.02 106.06 180.08 109.07 C 176.85 112.73 171.45 111.12 167.16 111.51 C 165.34 109.65 163.53 107.78 161.74 105.89 C 165.02 102.23 169.05 99.23 171.96 95.25 C 172.24 90.82 172.82 86.25 172.12 81.83 C 170.69 86.11 172.34 90.76 171.82 95.18 C 168.60 98.63 165.14 101.84 161.92 105.27 C 157.72 102.80 154.89 98.72 151.17 95.65 C 156.99 89.02 162.69 81.23 170.68 77.30 C 168.83 83.35 162.55 85.98 158.79 90.61 C 159.48 90.63 160.85 90.67 161.53 90.69 C 164.78 85.91 168.91 81.80 173.76 78.66 C 171.54 76.47 169.08 74.53 166.38 72.94 L 166.85 72.33 C 160.30 78.76 153.98 85.44 147.33 91.78 C 146.39 90.78 145.45 89.78 144.51 88.78 C 144.96 80.20 144.22 71.59 144.80 63.04 C 144.51 62.85 143.92 62.46 143.63 62.26 C 144.51 70.82 144.57 79.44 144.14 88.03 C 142.56 86.73 140.99 85.42 139.54 83.98 C 139.39 80.05 139.67 76.12 140.38 72.25 C 140.04 71.96 139.36 71.37 139.01 71.07 C 138.65 71.36 137.92 71.94 137.56 72.23 C 138.30 75.42 138.62 78.73 137.48 81.87 C 136.16 80.51 134.83 79.15 133.50 77.81 C 133.68 72.30 133.33 66.75 134.16 61.28 C 133.64 60.92 133.12 60.55 132.60 60.19 C 133.88 65.70 133.33 71.38 133.12 76.97 C 125.84 73.83 129.07 65.86 128.07 59.84 C 126.51 65.76 130.32 73.83 122.86 77.10 M 116.40 68.00 C 117.66 72.27 114.11 75.31 111.12 77.62 C 107.25 74.34 103.63 70.68 101.16 66.20 C 100.28 66.79 98.16 67.15 99.70 68.35 C 103.55 71.80 107.48 75.19 111.05 78.96 C 117.36 75.46 118.98 67.89 117.76 61.33 C 113.92 61.01 116.59 65.90 116.40 68.00 M 110.80 61.95 C 110.25 66.31 110.26 70.72 110.79 75.09 C 111.24 74.77 112.12 74.15 112.56 73.83 C 111.77 70.31 111.76 66.67 112.55 63.15 C 112.11 62.85 111.24 62.25 110.80 61.95 M 151.38 64.25 C 149.60 66.17 147.81 68.09 146.02 70.00 C 146.52 70.26 147.51 70.76 148.01 71.02 C 149.68 69.35 151.34 67.67 153.00 65.98 C 152.46 65.40 151.92 64.82 151.38 64.25 M 157.64 69.21 C 155.39 72.81 152.40 75.85 148.66 77.92 C 148.54 78.37 148.29 79.28 148.16 79.73 C 148.75 79.72 149.93 79.69 150.52 79.68 C 153.21 75.47 156.92 72.12 161.01 69.31 C 159.89 68.98 158.32 67.52 157.64 69.21 M 116.57 77.16 C 114.68 79.79 112.39 82.09 109.82 84.05 C 110.13 84.53 110.76 85.48 111.08 85.96 C 113.35 82.99 116.01 80.35 118.96 78.05 C 118.16 77.75 117.37 77.46 116.57 77.16 M 148.06 84.10 C 148.70 84.73 149.35 85.36 149.99 86.00 C 151.65 83.27 153.67 80.76 156.44 79.10 C 156.53 78.51 156.71 77.32 156.80 76.73 C 153.45 78.62 151.09 81.77 148.06 84.10 M 77.14 82.77 C 77.16 83.49 77.21 84.91 77.24 85.62 C 79.06 85.32 80.88 85.02 82.70 84.73 C 82.98 92.58 91.40 95.69 94.48 102.21 C 95.19 101.69 96.14 101.37 96.55 100.53 C 91.13 95.85 83.54 91.57 83.31 83.51 C 81.29 82.99 79.22 82.62 77.14 82.77 M 165.85 88.55 C 163.32 92.48 159.84 95.62 156.95 99.26 C 160.87 95.77 165.60 92.80 168.25 88.18 C 167.65 88.27 166.45 88.46 165.85 88.55 M 70.78 95.69 C 71.55 96.02 72.33 96.35 73.10 96.67 C 74.42 94.34 75.98 92.15 77.84 90.22 C 82.81 93.52 85.43 99.66 90.83 102.17 C 90.72 101.60 90.52 100.45 90.41 99.88 C 85.62 97.16 82.17 92.80 78.15 89.14 C 75.52 91.12 72.86 93.11 70.78 95.69 M 165.35 105.52 C 165.33 106.10 165.28 107.26 165.26 107.84 C 165.72 107.73 166.63 107.49 167.09 107.38 C 171.58 101.24 176.72 94.89 183.57 91.37 C 181.96 98.07 175.54 102.20 170.10 105.74 C 170.70 106.73 171.66 108.49 172.79 106.97 C 176.62 102.03 181.01 97.56 186.03 93.82 C 184.89 92.03 183.65 90.30 182.30 88.65 C 177.33 94.89 171.78 100.76 165.35 105.52 M 166.74 92.98 C 164.57 96.09 161.91 98.79 158.86 101.02 C 159.70 101.30 160.54 101.57 161.39 101.84 C 162.46 98.44 169.38 96.81 166.74 92.98 M 71.24 99.46 C 71.24 100.00 71.24 101.06 71.24 101.59 C 74.17 101.53 77.10 101.53 80.04 101.56 C 79.69 100.87 79.34 100.17 79.00 99.48 C 76.41 99.52 73.83 99.51 71.24 99.46 M 188.45 104.31 C 185.84 108.01 182.92 111.55 179.25 114.25 C 177.50 115.49 174.35 118.08 178.03 118.83 C 180.52 112.97 186.22 109.92 190.28 105.45 C 189.82 105.17 188.91 104.59 188.45 104.31 M 187.93 110.56 C 186.37 113.41 183.84 115.47 181.07 117.08 C 181.69 117.70 182.30 118.33 182.92 118.95 C 185.25 115.93 188.54 113.66 190.25 110.18 C 189.67 110.28 188.51 110.46 187.93 110.56 M 67.10 115.22 C 66.48 115.96 65.87 116.71 65.25 117.47 C 67.98 118.85 70.44 120.74 71.93 123.48 C 72.53 123.59 73.74 123.81 74.34 123.92 C 72.54 120.54 69.33 118.27 67.10 115.22 M 61.30 115.81 C 61.33 116.46 61.40 117.75 61.43 118.39 C 63.22 120.07 64.96 121.81 66.62 123.62 C 67.27 123.65 68.56 123.70 69.20 123.73 C 66.85 120.82 64.15 118.22 61.30 115.81 M 187.41 138.64 C 187.42 139.12 187.44 140.09 187.45 140.58 C 187.86 140.56 188.70 140.51 189.12 140.49 C 190.54 138.07 192.52 136.08 194.86 134.55 C 194.81 133.88 194.70 132.55 194.64 131.88 C 192.29 134.19 189.94 136.51 187.41 138.64 M 60.61 140.03 C 63.44 140.15 68.04 141.96 69.14 138.16 C 66.29 138.08 61.68 136.14 60.61 140.03 M 70.71 148.99 C 75.24 153.85 80.23 158.35 84.75 163.27 C 84.73 162.59 84.70 161.21 84.68 160.52 C 79.02 157.86 76.56 150.63 70.71 148.99 M 76.17 150.19 C 80.86 153.23 84.30 157.70 88.58 161.18 C 92.70 161.77 96.92 161.62 100.99 162.59 C 101.35 161.81 101.70 161.03 102.05 160.26 C 98.03 160.37 93.99 160.90 89.98 160.39 C 85.22 157.38 81.84 152.68 78.06 148.60 C 77.59 149.00 76.64 149.79 76.17 150.19 M 81.71 149.01 C 84.48 151.99 87.03 156.29 91.29 157.00 C 88.42 154.12 86.01 149.55 81.71 149.01 M 65.70 156.55 C 70.49 155.64 75.12 157.25 77.34 161.77 C 75.29 163.10 73.13 164.42 71.76 166.51 C 72.22 166.82 73.13 167.43 73.59 167.73 C 75.23 165.58 76.88 163.45 78.57 161.35 C 76.47 157.37 68.89 151.45 65.70 156.55 M 166.57 155.51 C 164.16 157.49 161.67 159.35 159.09 161.11 C 159.44 161.61 160.15 162.60 160.50 163.10 C 162.60 161.15 164.44 158.96 166.18 156.69 C 171.88 160.73 175.79 166.63 180.91 171.27 C 180.95 170.72 181.03 169.63 181.07 169.08 C 175.91 164.91 171.44 160.00 166.57 155.51 M 165.07 159.71 C 165.19 160.30 165.43 161.49 165.55 162.09 C 167.91 163.74 172.21 165.30 171.18 168.93 C 170.72 170.66 170.25 175.64 173.14 173.18 C 174.01 167.81 170.05 161.83 165.07 159.71 M 76.98 171.80 C 78.04 173.73 79.42 175.44 80.97 177.00 C 83.76 173.72 86.04 169.65 90.00 167.65 C 95.09 167.04 100.25 167.28 105.36 167.65 C 105.39 175.70 106.14 183.86 104.41 191.79 C 105.00 191.82 106.18 191.88 106.78 191.91 C 106.26 183.47 106.70 175.01 106.38 166.57 C 101.58 166.34 96.77 166.20 91.96 166.35 C 86.41 165.94 84.56 172.83 79.41 173.74 C 79.54 169.60 85.24 168.82 84.98 164.72 C 82.09 166.82 79.89 169.71 76.98 171.80 M 154.29 164.71 C 154.33 165.38 154.41 166.72 154.45 167.40 C 159.96 171.51 164.67 176.56 168.93 181.94 C 169.44 181.61 170.45 180.97 170.96 180.64 C 164.54 176.23 159.76 170.09 154.29 164.71 M 88.06 171.20 C 88.07 171.81 88.10 173.02 88.12 173.62 C 92.50 172.58 97.03 172.66 101.44 173.56 C 101.55 172.97 101.77 171.79 101.88 171.21 C 97.31 172.04 92.63 172.08 88.06 171.20 M 142.69 170.83 C 145.77 176.05 152.16 178.61 154.82 184.40 C 155.33 184.52 156.36 184.76 156.87 184.88 C 156.77 184.32 156.56 183.21 156.46 182.65 C 150.98 179.71 148.38 173.05 142.69 170.83 M 88.04 176.40 C 88.07 177.07 88.12 178.42 88.14 179.09 C 92.77 178.67 97.42 178.42 102.06 178.72 C 101.69 177.94 101.32 177.17 100.95 176.40 C 96.72 177.65 92.28 177.58 88.04 176.40 M 90.08 182.24 C 90.09 182.83 90.12 184.03 90.13 184.62 C 93.72 183.85 97.42 183.79 101.02 184.60 C 101.35 183.82 101.69 183.04 102.02 182.26 C 98.06 182.89 94.03 182.95 90.08 182.24 M 116.56 183.22 C 116.46 187.13 116.04 191.01 115.46 194.87 C 121.12 194.67 116.02 187.07 117.56 183.63 C 125.52 182.82 128.29 191.83 133.49 196.08 C 133.85 195.55 134.58 194.51 134.94 193.98 C 128.62 190.45 125.04 181.07 116.56 183.22 M 121.44 186.97 C 121.44 189.99 121.43 193.02 121.41 196.04 C 122.11 195.68 122.81 195.31 123.51 194.95 C 123.48 192.65 123.47 190.35 123.49 188.05 C 122.81 187.69 122.12 187.33 121.44 186.97 Z" />
<path fill="#c19f5b" opacity="1.00" d=" M 168.73 50.66 C 169.30 50.57 170.43 50.39 170.99 50.30 C 170.36 52.20 169.59 54.06 168.73 55.87 C 168.11 55.84 166.88 55.78 166.27 55.75 C 167.08 54.05 167.91 52.36 168.73 50.66 Z" />
<path fill="#c19f5b" opacity="1.00" d=" M 82.56 51.74 C 85.81 52.08 86.93 55.40 86.76 58.21 C 84.45 56.76 83.29 54.27 82.56 51.74 Z" />
<path fill="#c19f5b" opacity="1.00" d=" M 170.34 58.69 C 170.99 56.12 171.95 52.89 175.17 52.82 C 174.28 55.24 173.25 58.14 170.34 58.69 Z" />
<path fill="#c19f5b" opacity="1.00" d=" M 79.05 53.72 C 81.58 54.97 82.80 57.56 83.11 60.26 C 80.36 59.26 78.91 56.57 79.05 53.72 Z" />
<path fill="#c19f5b" opacity="1.00" d=" M 173.96 61.00 C 174.83 58.44 176.12 55.75 178.93 54.89 C 178.52 57.65 177.13 60.77 173.96 61.00 Z" />
<path fill="#c19f5b" opacity="1.00" d=" M 74.78 56.77 C 77.68 57.50 79.23 60.15 79.78 62.90 C 76.98 62.07 75.29 59.55 74.78 56.77 Z" />
<path fill="#c19f5b" opacity="1.00" d=" M 180.37 58.41 C 181.04 58.39 182.38 58.36 183.05 58.34 C 182.02 60.76 180.39 62.86 178.10 64.20 C 178.25 62.06 179.23 60.17 180.37 58.41 Z" />
<path fill="#c19f5b" opacity="1.00" d=" M 70.84 59.83 C 73.96 60.01 75.43 62.78 76.16 65.45 C 73.32 64.81 71.69 62.44 70.84 59.83 Z" />
<path fill="#c19f5b" opacity="1.00" d=" M 181.24 64.88 C 182.66 63.28 184.20 61.78 186.06 60.70 C 186.21 63.55 183.93 65.25 182.06 66.97 C 181.85 66.44 181.44 65.40 181.24 64.88 Z" />
<path fill="#c19f5b" opacity="1.00" d=" M 67.05 63.44 C 67.69 63.39 68.98 63.30 69.63 63.26 C 70.86 64.78 72.08 66.33 73.18 67.95 C 70.13 68.27 68.57 65.57 67.05 63.44 Z" />
<path fill="#c19f5b" opacity="1.00" d=" M 185.17 70.07 C 184.67 66.96 187.18 64.68 189.96 63.96 C 189.65 66.81 187.35 68.56 185.17 70.07 Z" />
<path fill="#c19f5b" opacity="1.00" d=" M 64.01 65.98 C 66.28 66.63 68.01 68.25 69.63 69.88 C 68.33 71.78 66.82 73.51 65.09 75.03 C 63.36 73.54 61.65 71.96 60.74 69.81 C 62.71 70.18 64.38 71.26 65.89 72.53 C 66.43 72.00 66.96 71.47 67.48 70.92 C 65.92 69.58 64.39 68.10 64.01 65.98 Z" />
<path fill="#c19f5b" opacity="1.00" d=" M 188.00 73.21 C 187.87 70.23 190.41 68.66 192.51 67.11 C 192.59 67.75 192.75 69.03 192.84 69.66 C 191.28 70.92 189.68 72.13 188.00 73.21 Z" />
<path fill="#c19f5b" opacity="1.00" d=" M 190.63 76.17 C 191.34 73.46 193.69 71.93 196.05 70.78 C 196.23 73.98 193.33 75.55 190.63 76.17 Z" />
<path fill="#c19f5b" opacity="1.00" d=" M 58.33 72.95 C 60.56 74.18 62.70 75.67 64.18 77.79 C 61.94 77.97 60.05 76.85 58.30 75.60 C 58.31 74.93 58.32 73.61 58.33 72.95 Z" />
<path fill="#c19f5b" opacity="1.00" d=" M 91.20 72.40 C 99.23 76.11 104.38 83.80 110.48 89.92 C 110.10 90.31 109.33 91.09 108.94 91.48 C 102.82 85.36 95.49 80.06 91.20 72.40 Z" />
<path fill="#c19f5b" opacity="1.00" d=" M 193.08 78.87 C 194.75 76.99 196.69 75.28 199.24 74.78 C 198.72 77.08 196.81 78.43 195.04 79.75 C 194.55 79.53 193.57 79.09 193.08 78.87 Z" />
<path fill="#c19f5b" opacity="1.00" d=" M 147.84 92.27 C 153.11 86.19 159.18 80.86 164.72 75.02 C 165.40 75.26 166.76 75.75 167.44 76.00 C 161.91 82.38 156.34 89.15 149.04 93.57 L 147.84 92.27 Z" />
<path fill="#c19f5b" opacity="1.00" d=" M 55.29 76.97 C 57.87 77.73 60.49 79.21 61.05 82.09 C 59.12 81.39 57.31 80.43 55.55 79.38 C 55.48 78.78 55.35 77.57 55.29 76.97 Z" />
<path fill="#c19f5b" opacity="1.00" d=" M 196.31 81.29 C 198.14 80.15 200.10 79.19 202.28 78.94 C 201.25 81.44 198.74 82.55 196.50 83.72 C 196.45 83.12 196.36 81.90 196.31 81.29 Z" />
<path fill="#c19f5b" opacity="1.00" d=" M 51.99 81.31 C 54.81 81.19 57.07 82.87 59.03 84.69 C 56.13 86.56 53.53 83.49 51.99 81.31 Z" />
<path fill="#c19f5b" opacity="1.00" d=" M 197.83 86.68 C 199.48 84.52 201.87 83.14 204.58 82.80 C 203.85 85.82 200.66 87.05 197.83 86.68 Z" />
<path fill="#c19f5b" opacity="1.00" d=" M 50.34 85.02 C 52.17 85.71 53.96 86.46 55.74 87.26 C 55.74 87.89 55.75 89.16 55.75 89.79 C 54.01 88.97 52.27 88.14 50.53 87.32 C 50.48 86.75 50.39 85.60 50.34 85.02 Z" />
<path fill="#c19f5b" opacity="1.00" d=" M 201.54 88.48 C 203.38 87.81 205.28 87.32 207.24 87.14 C 205.98 89.61 203.34 90.49 200.84 91.17 C 201.01 90.50 201.36 89.15 201.54 88.48 Z" />
<path fill="#c19f5b" opacity="1.00" d=" M 48.41 89.14 C 50.17 89.85 51.93 90.58 53.68 91.31 C 53.71 91.93 53.75 93.16 53.78 93.78 C 51.96 93.02 50.15 92.26 48.34 91.49 C 48.35 90.90 48.39 89.73 48.41 89.14 Z" />
<path fill="#c19f5b" opacity="1.00" d=" M 201.96 94.65 C 203.62 92.51 206.16 91.54 208.75 91.02 C 208.65 91.61 208.45 92.79 208.34 93.37 C 206.31 94.21 204.18 94.87 201.96 94.65 Z" />
<path fill="#c19f5b" opacity="1.00" d=" M 45.69 94.07 C 47.77 94.21 49.81 94.66 51.80 95.28 C 51.81 95.93 51.84 97.21 51.85 97.86 C 49.56 97.03 46.84 96.51 45.69 94.07 Z" />
<path fill="#c19f5b" opacity="1.00" d=" M 203.74 98.76 C 205.54 96.75 208.90 94.18 211.16 96.99 C 208.89 98.27 206.37 99.04 203.74 98.76 Z" />
<path fill="#c19f5b" opacity="1.00" d=" M 44.33 98.17 C 46.87 98.60 50.10 98.76 51.04 101.71 C 48.91 101.43 46.82 100.92 44.76 100.29 C 44.66 99.76 44.44 98.70 44.33 98.17 Z" />
<path fill="#c19f5b" opacity="1.00" d=" M 205.60 103.40 C 206.38 100.38 209.80 100.48 212.24 99.95 C 211.75 103.18 208.11 103.18 205.60 103.40 Z" />
<path fill="#c19f5b" opacity="1.00" d=" M 43.44 102.46 C 45.12 102.89 46.80 103.32 48.48 103.75 C 48.68 104.32 49.07 105.47 49.27 106.05 C 47.26 105.69 45.25 105.30 43.25 104.85 C 43.30 104.25 43.39 103.06 43.44 102.46 Z" />
<path fill="#c19f5b" opacity="1.00" d=" M 206.89 107.74 C 207.45 105.05 210.50 105.05 212.56 104.27 C 212.99 104.97 213.42 105.67 213.86 106.37 C 211.57 107.00 209.25 107.50 206.89 107.74 Z" />
<path fill="#c19f5b" opacity="1.00" d=" M 42.25 107.07 C 44.52 107.67 47.80 107.46 48.38 110.40 C 46.35 110.17 44.33 109.88 42.30 109.58 C 42.29 108.95 42.26 107.70 42.25 107.07 Z" />
<path fill="#c19f5b" opacity="1.00" d=" M 207.71 111.78 C 209.02 108.96 212.37 109.45 214.93 109.25 C 214.52 110.03 214.11 110.81 213.70 111.59 C 211.71 111.70 209.71 111.77 207.71 111.78 Z" />
<path fill="#c19f5b" opacity="1.00" d=" M 40.63 112.21 C 42.66 112.23 44.69 112.31 46.71 112.42 C 46.76 113.04 46.85 114.30 46.89 114.93 C 44.60 114.54 41.56 114.92 40.63 112.21 Z" />
<path fill="#c19f5b" opacity="1.00" d=" M 208.61 116.47 C 209.65 113.38 213.90 113.16 216.13 115.03 C 213.81 116.28 211.21 116.64 208.61 116.47 Z" />
<path fill="#c19f5b" opacity="1.00" d=" M 119.53 121.06 C 121.89 118.76 124.24 116.44 126.61 114.16 C 127.14 117.37 127.43 120.61 127.52 123.86 C 126.11 125.05 124.79 126.33 123.48 127.62 C 122.71 125.12 121.45 122.84 119.53 121.06 Z" />
<path fill="#c19f5b" opacity="1.00" d=" M 128.45 123.87 C 128.52 120.60 128.82 117.33 129.40 114.11 C 130.62 115.33 131.82 116.58 133.01 117.82 C 133.16 125.66 140.30 131.44 146.39 135.27 C 143.21 129.24 133.73 127.02 134.32 119.16 C 142.49 127.27 150.72 135.33 158.78 143.56 C 155.72 144.05 152.65 144.42 149.58 144.74 C 142.79 137.54 136.02 130.26 128.45 123.87 Z" />
<path fill="#c19f5b" opacity="1.00" d=" M 39.66 118.11 C 41.57 115.29 44.94 117.08 47.36 117.92 C 45.16 120.18 42.19 118.86 39.66 118.11 Z" />
<path fill="#c19f5b" opacity="1.00" d=" M 209.96 118.82 C 211.86 118.65 213.76 118.49 215.66 118.33 C 215.67 118.93 215.70 120.13 215.72 120.73 C 213.56 120.76 211.41 120.77 209.26 120.76 C 209.43 120.27 209.79 119.30 209.96 118.82 Z" />
<path fill="#c19f5b" opacity="1.00" d=" M 40.15 121.28 C 42.00 121.33 43.85 121.38 45.70 121.44 C 45.75 122.01 45.86 123.15 45.92 123.73 C 44.03 123.69 42.15 123.65 40.27 123.61 C 40.24 123.03 40.18 121.87 40.15 121.28 Z" />
<path fill="#c19f5b" opacity="1.00" d=" M 112.17 128.54 C 114.41 126.20 116.76 123.97 119.16 121.78 C 124.70 124.02 122.54 130.33 118.45 132.82 C 116.30 131.47 114.20 130.05 112.17 128.54 Z" />
<path fill="#c19f5b" opacity="1.00" d=" M 210.21 123.33 C 212.12 123.29 214.03 123.26 215.95 123.23 C 215.89 123.81 215.76 124.96 215.70 125.54 C 213.89 125.56 212.08 125.58 210.27 125.61 C 210.25 125.04 210.22 123.90 210.21 123.33 Z" />
<path fill="#c19f5b" opacity="1.00" d=" M 39.41 126.27 C 41.57 126.11 43.74 126.05 45.90 126.07 C 45.81 126.66 45.63 127.84 45.54 128.43 C 43.68 128.36 41.81 128.30 39.95 128.22 C 39.81 127.74 39.55 126.76 39.41 126.27 Z" />
<path fill="#c19f5b" opacity="1.00" d=" M 210.56 127.79 C 212.72 127.58 215.15 127.32 216.85 128.99 C 215.36 130.75 208.90 131.30 210.56 127.79 Z" />
<path fill="#c19f5b" opacity="1.00" d=" M 40.39 130.55 C 42.17 130.52 43.95 130.49 45.73 130.46 C 45.76 131.03 45.81 132.16 45.83 132.73 C 43.87 132.77 41.91 132.80 39.94 132.82 C 40.06 132.25 40.28 131.12 40.39 130.55 Z" />
<path fill="#c19f5b" opacity="1.00" d=" M 107.03 133.69 C 108.54 132.14 110.05 130.60 111.57 129.06 C 113.10 130.72 115.13 132.31 115.02 134.81 C 113.20 134.03 111.45 133.10 109.76 132.07 C 110.70 133.89 112.01 135.52 112.70 137.46 C 110.22 137.42 108.55 135.36 107.03 133.69 Z" />
<path fill="#c19f5b" opacity="1.00" d=" M 210.13 132.32 C 211.97 132.36 213.82 132.41 215.66 132.46 C 215.72 133.04 215.85 134.18 215.92 134.76 C 214.01 134.72 212.11 134.68 210.22 134.63 C 210.20 134.05 210.15 132.89 210.13 132.32 Z" />
<path fill="#c19f5b" opacity="1.00" d=" M 104.06 136.44 C 105.05 135.62 106.05 134.80 107.04 133.99 C 108.14 136.16 109.91 138.52 109.01 141.07 C 107.04 139.91 105.57 138.12 104.06 136.44 Z" />
<path fill="#c19f5b" opacity="1.00" d=" M 40.32 135.33 C 42.46 135.30 44.60 135.27 46.74 135.27 C 46.57 135.77 46.25 136.77 46.08 137.27 C 44.16 137.43 42.23 137.59 40.31 137.74 C 40.31 137.14 40.31 135.93 40.32 135.33 Z" />
<path fill="#c19f5b" opacity="1.00" d=" M 109.07 153.18 C 115.48 147.03 121.66 140.63 128.01 134.42 C 134.39 140.60 140.52 147.04 146.96 153.16 C 140.91 159.79 134.37 165.96 128.00 172.29 C 121.67 165.94 115.13 159.78 109.07 153.18 Z" />
<path fill="#c19f5b" opacity="1.00" d=" M 208.61 138.07 C 210.66 136.31 213.24 137.07 215.63 137.39 C 215.61 137.97 215.57 139.12 215.55 139.70 C 213.16 139.56 210.77 139.17 208.61 138.07 Z" />
<path fill="#c19f5b" opacity="1.00" d=" M 101.20 139.43 C 101.75 138.90 102.83 137.84 103.38 137.31 C 104.71 138.78 106.05 140.23 107.27 141.80 C 105.50 144.99 103.08 140.44 101.20 139.43 Z" />
<path fill="#c19f5b" opacity="1.00" d=" M 40.22 140.55 C 42.26 140.07 44.30 139.61 46.35 139.17 C 46.49 139.77 46.76 140.98 46.90 141.59 C 45.08 141.90 43.27 142.22 41.45 142.53 C 41.04 141.87 40.63 141.21 40.22 140.55 Z" />
<path fill="#c19f5b" opacity="1.00" d=" M 98.39 142.37 C 98.91 141.79 99.95 140.63 100.48 140.05 C 101.90 141.49 103.32 142.95 104.52 144.58 C 102.67 148.20 100.31 143.68 98.39 142.37 Z" />
<path fill="#c19f5b" opacity="1.00" d=" M 209.09 141.13 C 211.02 141.42 212.95 141.73 214.86 142.10 C 214.80 142.68 214.67 143.84 214.61 144.42 C 212.82 144.10 211.03 143.79 209.25 143.49 C 209.21 142.90 209.13 141.72 209.09 141.13 Z" />
<path fill="#c19f5b" opacity="1.00" d=" M 41.85 144.66 C 43.98 144.43 46.11 144.25 48.25 144.16 C 47.15 147.12 43.80 146.62 41.26 146.84 C 41.41 146.29 41.70 145.20 41.85 144.66 Z" />
<path fill="#c19f5b" opacity="1.00" d=" M 92.82 148.05 C 94.37 146.37 95.94 144.71 97.52 143.05 C 99.31 144.81 101.07 146.60 102.81 148.42 C 101.19 149.98 99.58 151.55 97.97 153.11 C 96.23 151.44 94.52 149.75 92.82 148.05 Z" />
<path fill="#c19f5b" opacity="1.00" d=" M 151.19 146.35 C 154.03 145.63 156.90 145.06 159.78 144.52 C 160.66 145.34 161.57 146.14 162.48 146.94 C 161.18 148.52 159.88 150.09 158.59 151.67 C 157.03 150.79 155.47 149.92 153.95 148.98 C 153.02 148.11 152.10 147.23 151.19 146.35 Z" />
<path fill="#c19f5b" opacity="1.00" d=" M 207.69 145.63 C 209.67 145.88 211.65 146.18 213.63 146.48 C 213.69 147.10 213.79 148.34 213.85 148.96 C 211.55 148.40 208.04 148.79 207.69 145.63 Z" />
<path fill="#c19f5b" opacity="1.00" d=" M 42.19 149.67 C 44.48 149.05 46.81 148.56 49.18 148.39 C 48.45 150.99 45.52 151.09 43.42 151.82 C 43.01 151.10 42.60 150.38 42.19 149.67 Z" />
<path fill="#c19f5b" opacity="1.00" d=" M 206.69 149.98 C 208.73 150.34 210.75 150.77 212.75 151.26 C 212.70 151.88 212.59 153.12 212.54 153.74 C 210.34 152.95 207.07 152.94 206.69 149.98 Z" />
<path fill="#c19f5b" opacity="1.00" d=" M 43.76 156.09 C 44.27 153.17 47.52 153.13 49.74 152.29 C 49.75 152.92 49.76 154.18 49.77 154.81 C 47.78 155.31 45.78 155.75 43.76 156.09 Z" />
<path fill="#c19f5b" opacity="1.00" d=" M 205.41 154.16 C 207.98 154.64 210.86 155.15 212.15 157.74 C 209.87 157.63 207.66 157.11 205.50 156.43 C 205.47 155.86 205.43 154.73 205.41 154.16 Z" />
<path fill="#c19f5b" opacity="1.00" d=" M 44.96 158.90 C 47.29 157.97 49.81 156.46 52.31 157.85 C 50.53 158.91 48.72 159.89 46.89 160.84 C 46.24 160.19 45.60 159.55 44.96 158.90 Z" />
<path fill="#c19f5b" opacity="1.00" d=" M 204.12 158.23 C 205.99 158.91 207.85 159.61 209.71 160.31 C 209.65 160.89 209.53 162.05 209.47 162.63 C 207.74 161.99 206.00 161.34 204.27 160.69 C 204.23 160.08 204.16 158.85 204.12 158.23 Z" />
<path fill="#c19f5b" opacity="1.00" d=" M 46.62 164.26 C 48.57 162.17 51.19 160.91 54.08 161.38 C 52.21 163.48 49.60 165.45 46.62 164.26 Z" />
<path fill="#c19f5b" opacity="1.00" d=" M 202.28 162.30 C 204.06 163.05 205.84 163.81 207.63 164.58 C 207.63 165.17 207.64 166.35 207.64 166.94 C 205.84 166.23 204.06 165.49 202.28 164.74 C 202.28 164.13 202.28 162.91 202.28 162.30 Z" />
<path fill="#c19f5b" opacity="1.00" d=" M 48.73 168.81 C 50.13 166.41 52.78 165.51 55.33 164.91 C 54.88 168.15 51.50 168.96 48.73 168.81 Z" />
<path fill="#c19f5b" opacity="1.00" d=" M 200.30 166.28 C 202.01 167.08 203.71 167.89 205.41 168.70 C 205.49 169.28 205.65 170.44 205.73 171.02 C 203.86 170.34 202.02 169.58 200.21 168.76 C 200.23 168.14 200.28 166.90 200.30 166.28 Z" />
<path fill="#c19f5b" opacity="1.00" d=" M 51.06 172.12 C 53.12 170.50 55.41 168.98 58.17 169.28 C 56.44 171.20 53.70 174.61 51.06 172.12 Z" />
<path fill="#c19f5b" opacity="1.00" d=" M 197.18 171.89 C 197.76 171.35 198.35 170.80 198.95 170.25 C 200.85 171.50 202.71 172.86 204.10 174.68 C 201.43 174.90 199.25 173.34 197.18 171.89 Z" />
<path fill="#c19f5b" opacity="1.00" d=" M 53.72 177.01 C 54.86 174.38 57.54 173.18 60.26 172.95 C 59.17 175.63 56.55 177.05 53.72 177.01 Z" />
<path fill="#c19f5b" opacity="1.00" d=" M 195.34 173.96 C 197.76 174.97 200.41 176.20 201.12 178.99 C 199.07 178.53 197.23 177.53 195.49 176.40 C 195.45 175.79 195.38 174.57 195.34 173.96 Z" />
<path fill="#c19f5b" opacity="1.00" d=" M 56.73 181.30 C 57.39 179.00 59.28 177.57 61.08 176.18 C 61.66 176.74 62.24 177.31 62.82 177.88 C 60.98 179.33 59.01 180.65 56.73 181.30 Z" />
<path fill="#c19f5b" opacity="1.00" d=" M 191.83 178.22 C 194.57 178.04 198.67 179.79 197.50 183.21 C 195.32 181.90 193.28 180.33 191.83 178.22 Z" />
<path fill="#c19f5b" opacity="1.00" d=" M 59.80 185.18 C 59.96 182.09 62.70 180.63 65.32 179.83 C 64.83 182.72 62.36 184.28 59.80 185.18 Z" />
<path fill="#c19f5b" opacity="1.00" d=" M 189.13 182.14 C 189.61 181.93 190.58 181.49 191.07 181.28 C 192.28 182.33 193.50 183.39 194.72 184.45 C 194.67 185.05 194.55 186.27 194.49 186.87 C 192.53 185.50 190.75 183.90 189.13 182.14 Z" />
<path fill="#c19f5b" opacity="1.00" d=" M 63.21 186.37 C 64.75 185.14 66.30 183.94 67.93 182.85 C 68.24 185.89 65.54 187.44 63.42 188.96 C 63.37 188.31 63.27 187.02 63.21 186.37 Z" />
<path fill="#c19f5b" opacity="1.00" d=" M 186.06 185.46 C 186.75 185.36 188.14 185.16 188.83 185.05 C 190.23 186.47 191.49 188.05 192.08 190.00 C 189.37 189.60 187.67 187.44 186.06 185.46 Z" />
<path fill="#c19f5b" opacity="1.00" d=" M 65.99 192.02 C 66.55 189.63 68.31 187.90 70.01 186.25 C 70.55 186.82 71.09 187.39 71.63 187.97 C 70.04 189.68 68.36 191.46 65.99 192.02 Z" />
<path fill="#c19f5b" opacity="1.00" d=" M 182.82 188.08 C 185.85 187.75 187.40 190.46 188.98 192.53 C 188.33 192.60 187.02 192.74 186.37 192.81 C 185.13 191.27 183.92 189.72 182.82 188.08 Z" />
<path fill="#c19f5b" opacity="1.00" d=" M 69.83 195.29 C 69.93 192.58 71.98 190.84 73.85 189.20 C 74.09 189.68 74.57 190.64 74.81 191.12 C 73.38 192.76 71.82 194.33 69.83 195.29 Z" />
<path fill="#c19f5b" opacity="1.00" d=" M 179.78 190.81 C 182.74 191.07 184.14 193.74 185.22 196.13 C 182.14 196.10 180.61 193.39 179.78 190.81 Z" />
<path fill="#c19f5b" opacity="1.00" d=" M 72.94 197.77 C 74.06 195.41 75.60 193.24 77.85 191.85 C 77.82 194.01 76.81 195.88 75.65 197.64 C 74.98 197.67 73.62 197.74 72.94 197.77 Z" />
<path fill="#c19f5b" opacity="1.00" d=" M 177.51 193.23 C 179.28 194.90 180.74 196.88 181.28 199.30 C 179.02 198.61 177.58 196.77 176.20 194.99 C 176.53 194.55 177.18 193.67 177.51 193.23 Z" />
<path fill="#c19f5b" opacity="1.00" d=" M 79.62 195.51 C 80.22 195.46 81.43 195.37 82.03 195.32 C 81.07 197.77 79.84 200.47 77.00 201.10 C 77.49 199.07 78.50 197.25 79.62 195.51 Z" />
<path fill="#c19f5b" opacity="1.00" d=" M 172.98 195.74 C 175.61 196.88 177.05 199.46 177.02 202.29 C 174.38 201.16 173.12 198.49 172.98 195.74 Z" />
<path fill="#c19f5b" opacity="1.00" d=" M 81.32 203.89 C 80.95 202.01 83.60 195.14 85.55 198.88 C 84.85 201.04 83.16 202.65 81.32 203.89 Z" />
<path fill="#c19f5b" opacity="1.00" d=" M 169.30 197.84 C 171.32 199.41 172.76 201.56 173.48 204.02 C 173.00 204.14 172.03 204.39 171.54 204.51 C 170.24 202.50 169.07 200.32 169.30 197.84 Z" />
<path fill="#c19f5b" opacity="1.00" d=" M 87.25 200.25 C 87.87 200.25 89.12 200.27 89.74 200.28 C 88.94 202.00 88.12 203.71 87.32 205.43 C 86.73 205.50 85.57 205.65 84.99 205.72 C 85.67 203.86 86.43 202.04 87.25 200.25 Z" />
<path fill="#c19f5b" opacity="1.00" d=" M 164.90 200.70 C 168.11 201.15 168.99 204.50 168.79 207.27 C 166.40 205.88 165.50 203.23 164.90 200.70 Z" />
<path fill="#c19f5b" opacity="1.00" d=" M 91.28 202.29 C 91.89 202.28 93.11 202.26 93.72 202.25 C 92.97 204.06 92.21 205.87 91.45 207.68 C 90.86 207.67 89.68 207.64 89.09 207.63 C 89.80 205.84 90.53 204.06 91.28 202.29 Z" />
<path fill="#c19f5b" opacity="1.00" d=" M 161.35 201.96 C 163.13 203.51 166.13 206.91 163.98 208.85 C 161.53 207.55 161.25 204.43 161.35 201.96 Z" />
<path fill="#c19f5b" opacity="1.00" d=" M 95.42 204.22 C 96.02 204.21 97.23 204.17 97.83 204.15 C 97.07 206.19 96.23 208.20 95.28 210.16 C 94.84 209.84 93.97 209.21 93.53 208.90 C 94.16 207.34 94.79 205.78 95.42 204.22 Z" />
<path fill="#c19f5b" opacity="1.00" d=" M 157.27 203.76 C 159.30 205.39 162.03 209.20 158.97 211.12 C 157.81 208.83 156.98 206.36 157.27 203.76 Z" />
<path fill="#c19f5b" opacity="1.00" d=" M 99.59 205.56 C 100.15 205.51 101.29 205.40 101.85 205.34 C 101.31 207.84 101.11 210.91 98.31 211.98 C 98.48 209.79 98.97 207.66 99.59 205.56 Z" />
<path fill="#c19f5b" opacity="1.00" d=" M 152.29 206.22 C 152.90 206.23 154.13 206.24 154.74 206.25 C 155.26 208.24 155.71 210.25 156.06 212.29 C 153.15 211.69 153.10 208.49 152.29 206.22 Z" />
<path fill="#c19f5b" opacity="1.00" d=" M 102.29 212.49 C 103.08 210.29 103.15 207.14 106.01 206.65 C 105.69 208.71 105.28 210.75 104.82 212.79 C 104.19 212.71 102.92 212.56 102.29 212.49 Z" />
<path fill="#c19f5b" opacity="1.00" d=" M 148.13 207.40 C 148.71 207.40 149.89 207.38 150.48 207.37 C 150.90 209.52 151.26 211.68 151.47 213.86 C 148.61 212.96 148.69 209.79 148.13 207.40 Z" />
<path fill="#c19f5b" opacity="1.00" d=" M 107.06 214.06 C 107.61 211.70 107.19 208.07 110.42 207.66 C 109.91 209.97 110.59 214.28 107.06 214.06 Z" />
<path fill="#c19f5b" opacity="1.00" d=" M 144.09 208.07 C 144.64 208.25 145.74 208.62 146.29 208.80 C 146.49 210.92 146.63 213.05 146.66 215.18 C 143.84 213.89 144.24 210.66 144.09 208.07 Z" />
<path fill="#c19f5b" opacity="1.00" d=" M 112.37 209.31 C 113.00 209.25 114.28 209.15 114.91 209.10 C 114.50 211.37 114.90 214.41 112.20 215.37 C 112.21 213.34 112.28 211.32 112.37 209.31 Z" />
<path fill="#c19f5b" opacity="1.00" d=" M 137.67 216.07 C 133.68 215.67 135.39 211.21 135.83 208.62 C 137.50 210.75 137.68 213.46 137.67 216.07 Z" />
<path fill="#c19f5b" opacity="1.00" d=" M 116.31 215.49 C 116.51 213.14 116.94 210.80 117.90 208.63 C 119.79 210.64 118.96 213.28 118.63 215.69 C 118.05 215.64 116.89 215.54 116.31 215.49 Z" />
<path fill="#c19f5b" opacity="1.00" d=" M 121.39 210.26 C 121.97 210.23 123.13 210.17 123.71 210.13 C 123.67 211.99 123.62 213.84 123.58 215.70 C 123.00 215.74 121.84 215.84 121.26 215.88 C 121.30 214.01 121.34 212.13 121.39 210.26 Z" />
<path fill="#c19f5b" opacity="1.00" d=" M 130.43 210.25 C 131.00 210.24 132.14 210.22 132.71 210.21 C 132.74 212.14 132.77 214.08 132.79 216.02 C 132.22 215.92 131.08 215.74 130.51 215.64 C 130.48 213.84 130.45 212.05 130.43 210.25 Z" />
<path fill="#c19f5b" opacity="1.00" d=" M 139.39 208.93 C 142.62 208.93 141.92 212.84 142.43 215.01 C 141.91 215.17 140.88 215.49 140.36 215.65 C 139.94 213.43 139.61 211.18 139.39 208.93 Z" />
<path fill="#c19f5b" opacity="1.00" d=" M 125.95 210.54 C 129.86 209.03 127.86 214.41 128.27 216.49 C 124.88 216.63 126.01 212.72 125.95 210.54 Z" />
</g>
<g id="#736149ff">
<path fill="#736149" opacity="1.00" d=" M 116.40 68.00 C 116.59 65.90 113.92 61.01 117.76 61.33 C 118.98 67.89 117.36 75.46 111.05 78.96 C 107.48 75.19 103.55 71.80 99.70 68.35 C 98.16 67.15 100.28 66.79 101.16 66.20 C 103.63 70.68 107.25 74.34 111.12 77.62 C 114.11 75.31 117.66 72.27 116.40 68.00 Z" />
<path fill="#736149" opacity="1.00" d=" M 110.80 61.95 C 111.24 62.25 112.11 62.85 112.55 63.15 C 111.76 66.67 111.77 70.31 112.56 73.83 C 112.12 74.15 111.24 74.77 110.79 75.09 C 110.26 70.72 110.25 66.31 110.80 61.95 Z" />
<path fill="#736149" opacity="1.00" d=" M 151.38 64.25 C 151.92 64.82 152.46 65.40 153.00 65.98 C 151.34 67.67 149.68 69.35 148.01 71.02 C 147.51 70.76 146.52 70.26 146.02 70.00 C 147.81 68.09 149.60 66.17 151.38 64.25 Z" />
<path fill="#736149" opacity="1.00" d=" M 157.64 69.21 C 158.32 67.52 159.89 68.98 161.01 69.31 C 156.92 72.12 153.21 75.47 150.52 79.68 C 149.93 79.69 148.75 79.72 148.16 79.73 C 148.29 79.28 148.54 78.37 148.66 77.92 C 152.40 75.85 155.39 72.81 157.64 69.21 Z" />
<path fill="#736149" opacity="1.00" d=" M 88.54 74.18 C 88.96 72.01 92.07 71.39 93.70 70.08 C 98.58 77.23 105.08 83.17 111.71 88.67 C 111.30 89.08 110.89 89.50 110.48 89.92 C 104.38 83.80 99.23 76.11 91.20 72.40 C 95.49 80.06 102.82 85.36 108.94 91.48 C 108.52 91.91 108.10 92.33 107.68 92.76 C 102.18 85.77 95.88 79.23 88.54 74.18 Z" />
<path fill="#736149" opacity="1.00" d=" M 137.56 72.23 C 137.92 71.94 138.65 71.36 139.01 71.07 C 139.36 71.37 140.04 71.96 140.38 72.25 C 139.67 76.12 139.39 80.05 139.54 83.98 C 138.84 83.28 138.16 82.58 137.48 81.87 C 138.62 78.73 138.30 75.42 137.56 72.23 Z" />
<path fill="#736149" opacity="1.00" d=" M 166.38 72.94 C 169.08 74.53 171.54 76.47 173.76 78.66 C 168.91 81.80 164.78 85.91 161.53 90.69 C 160.85 90.67 159.48 90.63 158.79 90.61 C 162.55 85.98 168.83 83.35 170.68 77.30 C 162.69 81.23 156.99 89.02 151.17 95.65 C 150.44 94.97 149.73 94.28 149.04 93.57 C 156.34 89.15 161.91 82.38 167.44 76.00 C 166.76 75.75 165.40 75.26 164.72 75.02 C 165.29 74.34 165.84 73.65 166.38 72.94 Z" />
<path fill="#736149" opacity="1.00" d=" M 83.28 76.71 C 89.68 83.64 96.07 90.64 103.20 96.86 C 106.44 93.27 99.11 91.74 98.70 88.05 C 99.29 88.18 100.47 88.45 101.05 88.58 C 102.48 90.71 104.08 92.73 105.89 94.56 C 104.73 95.72 103.58 96.87 102.41 98.01 C 95.97 91.52 90.18 84.10 82.34 79.21 C 82.65 78.38 82.96 77.54 83.28 76.71 Z" />
<path fill="#736149" opacity="1.00" d=" M 116.57 77.16 C 117.37 77.46 118.16 77.75 118.96 78.05 C 116.01 80.35 113.35 82.99 111.08 85.96 C 110.76 85.48 110.13 84.53 109.82 84.05 C 112.39 82.09 114.68 79.79 116.57 77.16 Z" />
<path fill="#736149" opacity="1.00" d=" M 148.06 84.10 C 151.09 81.77 153.45 78.62 156.80 76.73 C 156.71 77.32 156.53 78.51 156.44 79.10 C 153.67 80.76 151.65 83.27 149.99 86.00 C 149.35 85.36 148.70 84.73 148.06 84.10 Z" />
<path fill="#736149" opacity="1.00" d=" M 77.14 82.77 C 79.22 82.62 81.29 82.99 83.31 83.51 C 83.54 91.57 91.13 95.85 96.55 100.53 C 96.14 101.37 95.19 101.69 94.48 102.21 C 91.40 95.69 82.98 92.58 82.70 84.73 C 80.88 85.02 79.06 85.32 77.24 85.62 C 77.21 84.91 77.16 83.49 77.14 82.77 Z" />
<path fill="#736149" opacity="1.00" d=" M 87.02 89.29 C 88.14 88.91 89.72 87.49 90.42 89.19 C 93.11 93.35 96.56 96.96 100.73 99.65 C 100.32 100.05 99.91 100.45 99.50 100.85 C 95.74 96.59 91.71 92.55 87.02 89.29 Z" />
<path fill="#736149" opacity="1.00" d=" M 165.85 88.55 C 166.45 88.46 167.65 88.27 168.25 88.18 C 165.60 92.80 160.87 95.77 156.95 99.26 C 159.84 95.62 163.32 92.48 165.85 88.55 Z" />
<path fill="#736149" opacity="1.00" d=" M 70.78 95.69 C 72.86 93.11 75.52 91.12 78.15 89.14 C 82.17 92.80 85.62 97.16 90.41 99.88 C 90.52 100.45 90.72 101.60 90.83 102.17 C 85.43 99.66 82.81 93.52 77.84 90.22 C 75.98 92.15 74.42 94.34 73.10 96.67 C 72.33 96.35 71.55 96.02 70.78 95.69 Z" />
<path fill="#736149" opacity="1.00" d=" M 165.35 105.52 C 171.78 100.76 177.33 94.89 182.30 88.65 C 183.65 90.30 184.89 92.03 186.03 93.82 C 181.01 97.56 176.62 102.03 172.79 106.97 C 171.66 108.49 170.70 106.73 170.10 105.74 C 175.54 102.20 181.96 98.07 183.57 91.37 C 176.72 94.89 171.58 101.24 167.09 107.38 C 166.63 107.49 165.72 107.73 165.26 107.84 C 165.28 107.26 165.33 106.10 165.35 105.52 Z" />
<path fill="#736149" opacity="1.00" d=" M 166.74 92.98 C 169.38 96.81 162.46 98.44 161.39 101.84 C 160.54 101.57 159.70 101.30 158.86 101.02 C 161.91 98.79 164.57 96.09 166.74 92.98 Z" />
<path fill="#736149" opacity="1.00" d=" M 66.23 99.15 C 66.69 99.28 67.62 99.54 68.08 99.66 C 72.32 106.19 78.41 111.18 84.01 116.49 C 82.82 117.69 81.61 118.86 80.35 119.99 C 75.46 115.00 70.99 109.49 65.04 105.70 C 63.42 104.93 65.12 102.38 66.37 103.70 C 70.96 109.09 75.78 114.33 81.22 118.91 C 81.47 118.40 81.96 117.38 82.21 116.87 C 77.62 111.15 72.19 106.03 66.45 101.45 C 66.40 100.88 66.28 99.73 66.23 99.15 Z" />
<path fill="#736149" opacity="1.00" d=" M 71.24 99.46 C 73.83 99.51 76.41 99.52 79.00 99.48 C 79.34 100.17 79.69 100.87 80.04 101.56 C 77.10 101.53 74.17 101.53 71.24 101.59 C 71.24 101.06 71.24 100.00 71.24 99.46 Z" />
<path fill="#736149" opacity="1.00" d=" M 76.21 106.43 C 76.94 105.69 77.66 104.94 78.39 104.20 C 80.71 107.73 83.55 110.90 86.83 113.56 C 86.43 113.98 86.03 114.40 85.63 114.82 C 83.43 111.09 80.07 108.32 76.21 106.43 Z" />
<path fill="#736149" opacity="1.00" d=" M 188.45 104.31 C 188.91 104.59 189.82 105.17 190.28 105.45 C 186.22 109.92 180.52 112.97 178.03 118.83 C 174.35 118.08 177.50 115.49 179.25 114.25 C 182.92 111.55 185.84 108.01 188.45 104.31 Z" />
<path fill="#736149" opacity="1.00" d=" M 187.93 110.56 C 188.51 110.46 189.67 110.28 190.25 110.18 C 188.54 113.66 185.25 115.93 182.92 118.95 C 182.30 118.33 181.69 117.70 181.07 117.08 C 183.84 115.47 186.37 113.41 187.93 110.56 Z" />
<path fill="#736149" opacity="1.00" d=" M 126.61 114.16 C 127.09 113.69 127.58 113.22 128.06 112.76 C 128.51 113.21 128.96 113.66 129.40 114.11 C 128.82 117.33 128.52 120.60 128.45 123.87 C 128.22 123.87 127.75 123.87 127.52 123.86 C 127.43 120.61 127.14 117.37 126.61 114.16 Z" />
<path fill="#736149" opacity="1.00" d=" M 67.10 115.22 C 69.33 118.27 72.54 120.54 74.34 123.92 C 73.74 123.81 72.53 123.59 71.93 123.48 C 70.44 120.74 67.98 118.85 65.25 117.47 C 65.87 116.71 66.48 115.96 67.10 115.22 Z" />
<path fill="#736149" opacity="1.00" d=" M 61.30 115.81 C 64.15 118.22 66.85 120.82 69.20 123.73 C 68.56 123.70 67.27 123.65 66.62 123.62 C 64.96 121.81 63.22 120.07 61.43 118.39 C 61.40 117.75 61.33 116.46 61.30 115.81 Z" />
<path fill="#736149" opacity="1.00" d=" M 133.01 117.82 C 133.44 118.27 133.88 118.71 134.32 119.16 C 133.73 127.02 143.21 129.24 146.39 135.27 C 140.30 131.44 133.16 125.66 133.01 117.82 Z" />
<path fill="#736149" opacity="1.00" d=" M 188.48 126.34 C 188.93 126.63 189.83 127.22 190.28 127.51 C 184.32 131.76 180.25 140.63 171.93 139.80 C 172.70 139.02 173.48 138.24 174.27 137.49 C 175.01 137.73 176.48 138.21 177.22 138.46 C 181.50 134.94 185.32 130.89 188.48 126.34 Z" />
<path fill="#736149" opacity="1.00" d=" M 177.07 144.97 C 182.90 138.61 189.54 133.00 194.70 126.02 C 194.99 126.53 195.57 127.56 195.86 128.08 C 189.78 133.31 183.53 138.66 178.74 145.09 C 178.75 148.05 182.07 145.08 182.58 143.60 C 185.98 144.31 189.46 144.26 192.85 143.49 C 193.23 144.21 193.61 144.93 194.00 145.65 C 189.63 145.36 185.17 145.30 180.96 146.70 C 182.92 150.34 186.19 152.92 189.73 154.92 C 187.79 159.47 185.19 163.71 182.23 167.66 C 177.78 161.36 172.21 155.90 166.30 150.98 C 162.85 154.19 159.49 157.50 156.37 161.04 C 159.61 165.03 163.35 168.59 167.51 171.61 C 167.60 172.19 167.77 173.34 167.86 173.91 C 167.36 173.78 166.35 173.51 165.85 173.38 C 163.02 168.62 158.63 165.16 155.02 161.04 C 158.77 157.16 162.36 153.05 166.74 149.84 C 172.67 154.44 176.60 161.59 183.57 164.71 C 180.07 156.71 172.08 151.78 166.24 145.52 C 166.62 145.13 167.00 144.74 167.39 144.36 C 172.91 150.50 178.16 157.63 185.60 161.46 C 184.86 156.21 180.06 153.35 176.13 150.55 C 176.46 149.70 176.79 148.85 177.13 148.00 C 180.18 151.61 182.75 156.02 187.39 157.79 C 185.91 152.19 180.63 149.14 177.07 144.97 Z" />
<path fill="#736149" opacity="1.00" d=" M 111.57 129.06 C 111.77 128.89 111.97 128.71 112.17 128.54 C 114.20 130.05 116.30 131.47 118.45 132.82 C 113.27 138.05 108.22 143.42 102.81 148.42 C 101.07 146.60 99.31 144.81 97.52 143.05 C 97.80 142.82 98.09 142.59 98.39 142.37 C 100.31 143.68 102.67 148.20 104.52 144.58 C 103.32 142.95 101.90 141.49 100.48 140.05 C 100.72 139.84 100.96 139.64 101.20 139.43 C 103.08 140.44 105.50 144.99 107.27 141.80 C 106.05 140.23 104.71 138.78 103.38 137.31 C 103.60 137.02 103.83 136.73 104.06 136.44 C 105.57 138.12 107.04 139.91 109.01 141.07 C 109.91 138.52 108.14 136.16 107.04 133.99 L 106.57 133.17 L 107.03 133.69 C 108.55 135.36 110.22 137.42 112.70 137.46 C 112.01 135.52 110.70 133.89 109.76 132.07 C 111.45 133.10 113.20 134.03 115.02 134.81 C 115.13 132.31 113.10 130.72 111.57 129.06 Z" />
<path fill="#736149" opacity="1.00" d=" M 187.41 138.64 C 189.94 136.51 192.29 134.19 194.64 131.88 C 194.70 132.55 194.81 133.88 194.86 134.55 C 192.52 136.08 190.54 138.07 189.12 140.49 C 188.70 140.51 187.86 140.56 187.45 140.58 C 187.44 140.09 187.42 139.12 187.41 138.64 Z" />
<path fill="#736149" opacity="1.00" d=" M 60.61 140.03 C 61.68 136.14 66.29 138.08 69.14 138.16 C 68.04 141.96 63.44 140.15 60.61 140.03 Z" />
<path fill="#736149" opacity="1.00" d=" M 81.86 137.53 C 82.57 138.22 83.26 138.92 83.96 139.63 C 79.96 139.39 75.95 139.67 72.04 140.57 C 71.66 139.81 71.28 139.06 70.90 138.30 C 74.57 138.52 78.29 138.54 81.86 137.53 Z" />
<path fill="#736149" opacity="1.00" d=" M 158.78 143.56 C 159.03 143.80 159.53 144.28 159.78 144.52 C 156.90 145.06 154.03 145.63 151.19 146.35 C 150.65 145.82 150.11 145.28 149.58 144.74 C 152.65 144.42 155.72 144.05 158.78 143.56 Z" />
<path fill="#736149" opacity="1.00" d=" M 162.48 146.94 C 162.81 147.22 163.47 147.79 163.79 148.07 C 162.52 150.47 160.51 152.30 158.24 153.74 C 156.83 152.14 155.43 150.52 153.95 148.98 C 155.47 149.92 157.03 150.79 158.59 151.67 C 159.88 150.09 161.18 148.52 162.48 146.94 Z" />
<path fill="#736149" opacity="1.00" d=" M 70.71 148.99 C 76.56 150.63 79.02 157.86 84.68 160.52 C 84.70 161.21 84.73 162.59 84.75 163.27 C 80.23 158.35 75.24 153.85 70.71 148.99 Z" />
<path fill="#736149" opacity="1.00" d=" M 76.17 150.19 C 76.64 149.79 77.59 149.00 78.06 148.60 C 81.84 152.68 85.22 157.38 89.98 160.39 C 93.99 160.90 98.03 160.37 102.05 160.26 C 101.70 161.03 101.35 161.81 100.99 162.59 C 96.92 161.62 92.70 161.77 88.58 161.18 C 84.30 157.70 80.86 153.23 76.17 150.19 Z" />
<path fill="#736149" opacity="1.00" d=" M 81.71 149.01 C 86.01 149.55 88.42 154.12 91.29 157.00 C 87.03 156.29 84.48 151.99 81.71 149.01 Z" />
<path fill="#736149" opacity="1.00" d=" M 65.70 156.55 C 68.89 151.45 76.47 157.37 78.57 161.35 C 76.88 163.45 75.23 165.58 73.59 167.73 C 73.13 167.43 72.22 166.82 71.76 166.51 C 73.13 164.42 75.29 163.10 77.34 161.77 C 75.12 157.25 70.49 155.64 65.70 156.55 Z" />
<path fill="#736149" opacity="1.00" d=" M 166.57 155.51 C 171.44 160.00 175.91 164.91 181.07 169.08 C 181.03 169.63 180.95 170.72 180.91 171.27 C 175.79 166.63 171.88 160.73 166.18 156.69 C 164.44 158.96 162.60 161.15 160.50 163.10 C 160.15 162.60 159.44 161.61 159.09 161.11 C 161.67 159.35 164.16 157.49 166.57 155.51 Z" />
<path fill="#736149" opacity="1.00" d=" M 165.07 159.71 C 170.05 161.83 174.01 167.81 173.14 173.18 C 170.25 175.64 170.72 170.66 171.18 168.93 C 172.21 165.30 167.91 163.74 165.55 162.09 C 165.43 161.49 165.19 160.30 165.07 159.71 Z" />
<path fill="#736149" opacity="1.00" d=" M 76.98 171.80 C 79.89 169.71 82.09 166.82 84.98 164.72 C 85.24 168.82 79.54 169.60 79.41 173.74 C 84.56 172.83 86.41 165.94 91.96 166.35 C 96.77 166.20 101.58 166.34 106.38 166.57 C 106.70 175.01 106.26 183.47 106.78 191.91 C 106.18 191.88 105.00 191.82 104.41 191.79 C 106.14 183.86 105.39 175.70 105.36 167.65 C 100.25 167.28 95.09 167.04 90.00 167.65 C 86.04 169.65 83.76 173.72 80.97 177.00 C 79.42 175.44 78.04 173.73 76.98 171.80 Z" />
<path fill="#736149" opacity="1.00" d=" M 154.29 164.71 C 159.76 170.09 164.54 176.23 170.96 180.64 C 170.45 180.97 169.44 181.61 168.93 181.94 C 164.67 176.56 159.96 171.51 154.45 167.40 C 154.41 166.72 154.33 165.38 154.29 164.71 Z" />
<path fill="#736149" opacity="1.00" d=" M 144.15 167.67 C 144.59 167.24 145.02 166.80 145.47 166.37 C 150.62 172.95 156.48 179.24 163.43 183.93 C 163.54 184.50 163.74 185.64 163.84 186.21 C 156.46 181.25 151.32 173.18 144.15 167.67 Z" />
<path fill="#736149" opacity="1.00" d=" M 88.06 171.20 C 92.63 172.08 97.31 172.04 101.88 171.21 C 101.77 171.79 101.55 172.97 101.44 173.56 C 97.03 172.66 92.50 172.58 88.12 173.62 C 88.10 173.02 88.07 171.81 88.06 171.20 Z" />
<path fill="#736149" opacity="1.00" d=" M 142.69 170.83 C 148.38 173.05 150.98 179.71 156.46 182.65 C 156.56 183.21 156.77 184.32 156.87 184.88 C 156.36 184.76 155.33 184.52 154.82 184.40 C 152.16 178.61 145.77 176.05 142.69 170.83 Z" />
<path fill="#736149" opacity="1.00" d=" M 116.42 172.09 C 117.21 172.86 117.99 173.64 118.76 174.44 C 118.56 176.36 118.21 178.28 117.37 180.04 C 116.90 179.73 115.96 179.10 115.49 178.78 C 115.80 176.55 116.12 174.32 116.42 172.09 Z" />
<path fill="#736149" opacity="1.00" d=" M 137.14 174.52 C 137.92 173.71 138.72 172.91 139.53 172.13 C 138.52 180.65 147.72 184.93 153.00 190.02 C 152.61 190.54 151.84 191.59 151.45 192.11 C 147.18 185.81 140.60 181.36 137.14 174.52 Z" />
<path fill="#736149" opacity="1.00" d=" M 88.04 176.40 C 92.28 177.58 96.72 177.65 100.95 176.40 C 101.32 177.17 101.69 177.94 102.06 178.72 C 97.42 178.42 92.77 178.67 88.14 179.09 C 88.12 178.42 88.07 177.07 88.04 176.40 Z" />
<path fill="#736149" opacity="1.00" d=" M 90.08 182.24 C 94.03 182.95 98.06 182.89 102.02 182.26 C 101.69 183.04 101.35 183.82 101.02 184.60 C 97.42 183.79 93.72 183.85 90.13 184.62 C 90.12 184.03 90.09 182.83 90.08 182.24 Z" />
<path fill="#736149" opacity="1.00" d=" M 116.56 183.22 C 125.04 181.07 128.62 190.45 134.94 193.98 C 134.58 194.51 133.85 195.55 133.49 196.08 C 128.29 191.83 125.52 182.82 117.56 183.63 C 116.02 187.07 121.12 194.67 115.46 194.87 C 116.04 191.01 116.46 187.13 116.56 183.22 Z" />
<path fill="#736149" opacity="1.00" d=" M 121.44 186.97 C 122.12 187.33 122.81 187.69 123.49 188.05 C 123.47 190.35 123.48 192.65 123.51 194.95 C 122.81 195.31 122.11 195.68 121.41 196.04 C 121.43 193.02 121.44 189.99 121.44 186.97 Z" />
</g>
</svg>
