<?xml version="1.0" encoding="UTF-8" ?>
<!DOCTYPE svg PUBLIC "-//W3C//DTD SVG 1.1//EN" "http://www.w3.org/Graphics/SVG/1.1/DTD/svg11.dtd">
<svg width="128pt" height="128pt" viewBox="0 0 128 128" version="1.1" xmlns="http://www.w3.org/2000/svg">
<g id="#f9fbfbff">
<path fill="#f9fbfb" opacity="1.00" d=" M 62.08 0.00 L 63.46 0.00 C 58.23 3.18 53.07 6.56 47.39 8.89 C 52.18 5.74 57.38 3.29 62.08 0.00 Z" />
<path fill="#f9fbfb" opacity="1.00" d=" M 63.90 0.00 L 65.20 0.00 C 70.11 3.11 75.33 5.71 80.16 8.94 C 74.41 6.59 69.35 2.92 63.90 0.00 Z" />
<path fill="#f9fbfb" opacity="1.00" d=" M 56.92 6.89 C 59.24 5.59 61.43 4.00 63.97 3.15 C 80.41 12.23 96.50 22.01 112.86 31.27 C 114.18 32.23 116.49 32.93 116.28 34.95 C 116.34 54.67 116.25 74.39 116.32 94.11 C 98.81 104.19 81.31 114.30 63.86 124.47 C 46.29 114.56 29.00 104.18 11.41 94.32 C 11.33 74.86 11.42 55.39 11.36 35.93 C 11.45 34.74 11.10 33.16 12.54 32.64 C 27.30 24.01 42.13 15.48 56.92 6.89 M 47.40 18.44 C 47.51 21.47 51.89 22.50 54.49 22.51 C 54.81 22.20 55.44 21.58 55.76 21.27 C 54.49 21.28 53.22 21.30 51.95 21.32 C 50.91 20.54 49.86 19.76 48.81 18.98 C 51.16 17.67 53.33 15.85 55.97 15.17 C 57.90 15.49 60.22 16.54 59.72 18.91 C 60.16 18.76 61.02 18.45 61.46 18.30 C 61.48 17.83 61.51 16.89 61.53 16.42 C 59.76 15.35 57.88 14.47 55.95 13.72 C 52.92 14.91 49.95 16.38 47.40 18.44 M 59.37 22.55 C 58.10 23.37 56.33 23.94 56.16 25.70 C 58.65 24.40 61.13 23.07 63.88 22.42 C 64.81 23.24 65.77 24.03 66.74 24.80 C 64.75 25.81 62.80 26.92 61.03 28.30 C 64.05 28.54 66.34 26.21 68.68 24.68 C 67.44 23.13 65.80 22.13 63.79 21.99 C 64.86 21.07 65.91 20.12 66.92 19.13 C 64.07 19.38 61.81 21.26 59.37 22.55 M 32.24 28.04 C 34.29 29.27 36.37 30.48 38.46 31.67 C 38.43 31.25 38.39 30.40 38.37 29.98 C 37.16 29.36 35.97 28.72 34.78 28.07 C 37.36 25.94 41.63 25.34 43.01 22.05 C 39.18 23.59 35.80 25.99 32.24 28.04 M 72.15 26.25 C 72.76 28.12 74.63 29.06 75.93 30.40 C 72.47 30.02 69.44 26.99 65.83 28.90 C 66.37 31.52 68.99 32.57 71.15 33.59 C 73.62 32.97 75.61 31.19 77.73 29.85 C 76.19 28.21 74.27 26.98 72.15 26.25 M 50.59 27.63 C 50.60 28.07 50.61 28.96 50.62 29.41 C 51.08 29.41 52.00 29.42 52.47 29.43 C 52.47 28.98 52.48 28.07 52.48 27.62 C 52.01 27.62 51.06 27.62 50.59 27.63 M 46.85 28.37 C 46.78 29.05 46.63 30.40 46.56 31.08 C 44.58 32.14 42.44 32.66 40.20 32.41 C 41.58 33.34 42.97 34.25 44.35 35.18 C 44.63 32.23 47.94 31.59 49.95 30.07 C 48.92 29.51 47.89 28.94 46.85 28.37 M 84.45 30.16 C 83.27 31.51 85.49 33.54 86.58 31.95 C 87.68 30.61 85.52 28.53 84.45 30.16 M 80.83 31.04 C 81.27 33.55 78.65 34.22 77.05 35.39 C 76.08 35.08 75.12 34.79 74.15 34.52 C 75.21 36.00 76.76 36.96 78.29 37.90 C 78.42 34.90 81.81 34.36 83.72 32.70 C 82.77 32.12 81.80 31.58 80.83 31.04 M 46.87 36.95 C 48.82 36.85 50.50 35.86 52.09 34.82 C 52.87 34.74 54.44 34.57 55.23 34.48 C 55.89 34.89 57.21 35.72 57.87 36.13 C 56.01 37.34 54.01 38.41 52.54 40.09 C 55.43 39.75 57.79 37.94 59.86 36.03 C 57.95 34.69 55.56 34.09 53.90 32.39 C 51.42 33.68 48.85 34.94 46.87 36.95 M 80.99 39.99 C 84.22 38.29 87.61 36.34 91.34 37.92 C 90.47 40.36 87.74 41.00 85.94 42.58 C 88.52 42.81 90.69 41.13 92.62 39.65 C 93.88 37.34 90.38 36.75 88.89 36.19 C 88.63 35.94 88.11 35.46 87.85 35.22 C 85.40 36.34 81.99 37.21 80.99 39.99 M 56.05 42.35 C 57.97 42.14 59.86 41.76 61.77 41.43 C 61.70 42.27 61.57 43.96 61.50 44.81 C 61.94 44.80 62.83 44.78 63.27 44.76 C 63.37 44.00 63.55 42.46 63.65 41.69 C 65.47 41.67 67.30 41.65 69.12 41.53 C 66.94 39.41 63.36 41.34 60.75 40.73 C 62.91 39.20 65.65 38.29 67.25 36.06 C 63.10 37.23 59.44 39.76 56.05 42.35 M 16.49 49.03 C 17.29 50.13 17.56 51.89 18.95 52.38 C 21.26 51.95 22.91 53.94 24.83 54.85 C 25.01 52.95 23.19 52.22 21.87 51.36 C 21.15 51.29 19.70 51.16 18.97 51.09 C 18.88 50.33 18.69 48.82 18.59 48.07 C 17.89 48.39 17.19 48.71 16.49 49.03 M 26.18 52.69 C 26.57 53.27 27.36 54.42 27.75 55.00 C 27.36 55.49 26.57 56.47 26.18 56.96 C 26.90 56.85 28.34 56.63 29.05 56.52 C 28.38 55.04 27.55 53.62 26.18 52.69 M 16.67 54.45 C 17.27 56.38 19.10 57.26 20.71 58.19 C 28.14 62.35 35.43 66.74 42.86 70.91 C 42.78 68.73 40.48 68.12 38.98 67.11 C 31.47 63.03 24.26 58.39 16.67 54.45 M 16.89 60.16 C 17.09 61.45 17.90 62.43 19.07 62.98 C 28.99 68.68 38.90 74.42 48.81 80.15 C 51.53 81.68 54.13 83.70 57.33 84.10 C 55.17 82.09 52.52 80.75 49.98 79.30 C 38.96 72.91 27.93 66.52 16.89 60.16 M 92.48 60.65 C 85.18 64.48 81.25 72.99 81.63 81.05 C 80.63 82.59 79.16 84.04 79.17 86.01 C 78.97 91.82 79.12 97.64 79.18 103.45 C 80.42 103.51 81.74 103.55 82.79 102.77 C 88.30 99.59 93.79 96.37 99.33 93.22 C 101.32 92.11 103.59 90.46 103.48 87.90 C 103.55 82.61 103.58 77.32 103.46 72.03 C 103.51 70.54 101.70 70.10 100.82 69.22 C 100.60 66.71 101.26 63.73 99.33 61.72 C 97.81 59.53 94.68 60.12 92.48 60.65 M 16.75 66.00 C 17.17 67.19 17.89 68.24 19.07 68.77 C 30.52 75.32 41.94 81.92 53.33 88.58 C 54.54 89.30 55.91 89.70 57.27 90.06 C 54.96 87.40 51.62 86.09 48.69 84.31 C 38.02 78.24 27.52 71.88 16.75 66.00 M 16.56 71.33 C 17.97 74.36 21.43 75.26 24.02 76.97 C 27.37 78.64 30.29 81.41 34.13 81.90 C 28.81 77.60 22.52 74.64 16.56 71.33 M 16.75 75.98 C 17.20 78.15 19.41 78.88 21.07 79.91 C 30.66 85.22 39.94 91.10 49.66 96.17 C 49.23 94.15 47.12 93.47 45.60 92.48 C 35.93 87.07 26.50 81.25 16.75 75.98 M 16.31 80.91 C 19.16 84.13 23.37 85.63 26.97 87.83 C 26.74 86.67 26.10 85.70 25.00 85.20 C 22.23 83.53 19.48 81.72 16.31 80.91 M 17.78 91.42 C 19.65 92.47 21.71 93.47 22.08 90.15 C 22.86 91.49 24.32 92.73 23.36 94.54 C 25.41 94.04 24.41 92.01 24.38 90.54 C 22.39 89.42 20.37 88.72 19.89 91.95 C 18.75 90.50 18.18 88.85 18.53 86.99 C 16.20 87.74 17.17 89.76 17.78 91.42 Z" />
<path fill="#f9fbfb" opacity="1.00" d=" M 80.30 9.02 C 85.69 11.78 90.85 14.94 96.08 18.00 C 90.44 15.78 85.15 12.63 80.30 9.02 Z" />
<path fill="#f9fbfb" opacity="1.00" d=" M 8.10 32.02 C 10.00 29.81 12.95 28.95 15.37 27.46 C 13.28 29.23 10.97 30.73 8.58 32.07 C 8.37 53.16 8.58 74.24 8.48 95.33 C 16.28 100.63 25.11 104.29 32.68 109.95 C 24.36 105.60 16.42 100.58 8.19 96.07 C 7.76 91.05 7.97 86.01 7.93 80.97 C 8.05 64.66 7.69 48.32 8.10 32.02 Z" />
<path fill="#f9fbfb" opacity="1.00" d=" M 67.94 28.91 C 69.59 29.42 71.18 30.09 72.77 30.76 L 72.29 32.58 C 70.64 31.63 68.04 31.29 67.94 28.91 Z" />
<path fill="#f9fbfb" opacity="1.00" d=" M 115.97 29.40 C 117.16 30.14 118.35 30.89 119.55 31.64 C 119.47 52.12 119.51 72.60 119.53 93.08 C 119.36 94.14 119.79 95.72 118.64 96.35 C 100.56 106.97 82.27 117.22 64.26 127.95 L 65.79 128.00 L 63.43 128.00 C 53.33 121.89 42.87 116.38 32.89 110.07 C 43.60 115.16 53.49 121.82 63.88 127.52 C 81.53 116.92 99.52 106.87 117.31 96.50 C 119.12 95.72 118.61 93.51 118.77 91.96 C 118.71 74.97 118.73 57.98 118.75 41.00 C 118.59 37.00 119.88 32.03 115.97 29.40 Z" />
<path fill="#f9fbfb" opacity="1.00" d=" M 87.54 70.61 C 88.90 67.93 91.64 65.01 94.95 65.88 C 97.35 67.28 96.31 70.50 96.71 72.78 C 93.28 74.91 89.74 76.86 86.26 78.92 C 86.27 76.12 85.97 73.09 87.54 70.61 Z" />
</g>
<g id="#1da8fcff">
<path fill="#1da8fc" opacity="1.00" d=" M 63.46 0.00 L 63.90 0.00 C 69.35 2.92 74.41 6.59 80.16 8.94 L 80.30 9.02 C 85.15 12.63 90.44 15.78 96.08 18.00 C 102.80 21.63 109.30 25.67 115.97 29.40 C 119.88 32.03 118.59 37.00 118.75 41.00 C 118.73 57.98 118.71 74.97 118.77 91.96 C 118.61 93.51 119.12 95.72 117.31 96.50 C 99.52 106.87 81.53 116.92 63.88 127.52 C 53.49 121.82 43.60 115.16 32.89 110.07 L 32.68 109.95 C 25.11 104.29 16.28 100.63 8.48 95.33 C 8.58 74.24 8.37 53.16 8.58 32.07 C 10.97 30.73 13.28 29.23 15.37 27.46 C 25.88 21.01 36.56 14.79 47.39 8.89 C 53.07 6.56 58.23 3.18 63.46 0.00 M 56.92 6.89 C 42.13 15.48 27.30 24.01 12.54 32.64 C 11.10 33.16 11.45 34.74 11.36 35.93 C 11.42 55.39 11.33 74.86 11.41 94.32 C 29.00 104.18 46.29 114.56 63.86 124.47 C 81.31 114.30 98.81 104.19 116.32 94.11 C 116.25 74.39 116.34 54.67 116.28 34.95 C 116.49 32.93 114.18 32.23 112.86 31.27 C 96.50 22.01 80.41 12.23 63.97 3.15 C 61.43 4.00 59.24 5.59 56.92 6.89 Z" />
<path fill="#1da8fc" opacity="1.00" d=" M 16.67 54.45 C 24.26 58.39 31.47 63.03 38.98 67.11 C 40.48 68.12 42.78 68.73 42.86 70.91 C 35.43 66.74 28.14 62.35 20.71 58.19 C 19.10 57.26 17.27 56.38 16.67 54.45 Z" />
<path fill="#1da8fc" opacity="1.00" d=" M 16.89 60.16 C 27.93 66.52 38.96 72.91 49.98 79.30 C 52.52 80.75 55.17 82.09 57.33 84.10 C 54.13 83.70 51.53 81.68 48.81 80.15 C 38.90 74.42 28.99 68.68 19.07 62.98 C 17.90 62.43 17.09 61.45 16.89 60.16 Z" />
<path fill="#1da8fc" opacity="1.00" d=" M 92.48 60.65 C 94.68 60.12 97.81 59.53 99.33 61.72 C 101.26 63.73 100.60 66.71 100.82 69.22 C 101.70 70.10 103.51 70.54 103.46 72.03 C 103.58 77.32 103.55 82.61 103.48 87.90 C 103.59 90.46 101.32 92.11 99.33 93.22 C 93.79 96.37 88.30 99.59 82.79 102.77 C 81.74 103.55 80.42 103.51 79.18 103.45 C 79.12 97.64 78.97 91.82 79.17 86.01 C 79.16 84.04 80.63 82.59 81.63 81.05 C 81.25 72.99 85.18 64.48 92.48 60.65 M 87.54 70.61 C 85.97 73.09 86.27 76.12 86.26 78.92 C 89.74 76.86 93.28 74.91 96.71 72.78 C 96.31 70.50 97.35 67.28 94.95 65.88 C 91.64 65.01 88.90 67.93 87.54 70.61 M 89.38 85.23 C 89.42 87.93 90.08 90.57 90.56 93.21 C 93.56 90.81 92.19 86.13 93.93 82.88 C 92.00 82.25 90.09 83.41 89.38 85.23 Z" />
<path fill="#1da8fc" opacity="1.00" d=" M 16.75 66.00 C 27.52 71.88 38.02 78.24 48.69 84.31 C 51.62 86.09 54.96 87.40 57.27 90.06 C 55.91 89.70 54.54 89.30 53.33 88.58 C 41.94 81.92 30.52 75.32 19.07 68.77 C 17.89 68.24 17.17 67.19 16.75 66.00 Z" />
<path fill="#1da8fc" opacity="1.00" d=" M 16.56 71.33 C 22.52 74.64 28.81 77.60 34.13 81.90 C 30.29 81.41 27.37 78.64 24.02 76.97 C 21.43 75.26 17.97 74.36 16.56 71.33 Z" />
<path fill="#1da8fc" opacity="1.00" d=" M 16.75 75.98 C 26.50 81.25 35.93 87.07 45.60 92.48 C 47.12 93.47 49.23 94.15 49.66 96.17 C 39.94 91.10 30.66 85.22 21.07 79.91 C 19.41 78.88 17.20 78.15 16.75 75.98 Z" />
<path fill="#1da8fc" opacity="1.00" d=" M 16.31 80.91 C 19.48 81.72 22.23 83.53 25.00 85.20 C 26.10 85.70 26.74 86.67 26.97 87.83 C 23.37 85.63 19.16 84.13 16.31 80.91 Z" />
</g>
<g id="#1b1b1bff">
<path fill="#1b1b1b" opacity="1.00" d=" M 47.40 18.44 C 49.95 16.38 52.92 14.91 55.95 13.72 C 57.88 14.47 59.76 15.35 61.53 16.42 C 61.51 16.89 61.48 17.83 61.46 18.30 C 61.02 18.45 60.16 18.76 59.72 18.91 C 60.22 16.54 57.90 15.49 55.97 15.17 C 53.33 15.85 51.16 17.67 48.81 18.98 C 49.86 19.76 50.91 20.54 51.95 21.32 C 53.22 21.30 54.49 21.28 55.76 21.27 C 55.44 21.58 54.81 22.20 54.49 22.51 C 51.89 22.50 47.51 21.47 47.40 18.44 Z" />
<path fill="#1b1b1b" opacity="1.00" d=" M 59.37 22.55 C 61.81 21.26 64.07 19.38 66.92 19.13 C 65.91 20.12 64.86 21.07 63.79 21.99 C 65.80 22.13 67.44 23.13 68.68 24.68 C 66.34 26.21 64.05 28.54 61.03 28.30 C 62.80 26.92 64.75 25.81 66.74 24.80 C 65.77 24.03 64.81 23.24 63.88 22.42 C 61.13 23.07 58.65 24.40 56.16 25.70 C 56.33 23.94 58.10 23.37 59.37 22.55 Z" />
<path fill="#1b1b1b" opacity="1.00" d=" M 32.24 28.04 C 35.80 25.99 39.18 23.59 43.01 22.05 C 41.63 25.34 37.36 25.94 34.78 28.07 C 35.97 28.72 37.16 29.36 38.37 29.98 C 38.39 30.40 38.43 31.25 38.46 31.67 C 36.37 30.48 34.29 29.27 32.24 28.04 Z" />
<path fill="#1b1b1b" opacity="1.00" d=" M 72.15 26.25 C 74.27 26.98 76.19 28.21 77.73 29.85 C 75.61 31.19 73.62 32.97 71.15 33.59 C 68.99 32.57 66.37 31.52 65.83 28.90 C 69.44 26.99 72.47 30.02 75.93 30.40 C 74.63 29.06 72.76 28.12 72.15 26.25 M 67.94 28.91 C 68.04 31.29 70.64 31.63 72.29 32.58 L 72.77 30.76 C 71.18 30.09 69.59 29.42 67.94 28.91 Z" />
<path fill="#1b1b1b" opacity="1.00" d=" M 50.59 27.63 C 51.06 27.62 52.01 27.62 52.48 27.62 C 52.48 28.07 52.47 28.98 52.47 29.43 C 52.00 29.42 51.08 29.41 50.62 29.41 C 50.61 28.96 50.60 28.07 50.59 27.63 Z" />
<path fill="#1b1b1b" opacity="1.00" d=" M 46.85 28.37 C 47.89 28.94 48.92 29.51 49.95 30.07 C 47.94 31.59 44.63 32.23 44.35 35.18 C 42.97 34.25 41.58 33.34 40.20 32.41 C 42.44 32.66 44.58 32.14 46.56 31.08 C 46.63 30.40 46.78 29.05 46.85 28.37 Z" />
<path fill="#1b1b1b" opacity="1.00" d=" M 84.45 30.16 C 85.52 28.53 87.68 30.61 86.58 31.95 C 85.49 33.54 83.27 31.51 84.45 30.16 Z" />
<path fill="#1b1b1b" opacity="1.00" d=" M 80.83 31.04 C 81.80 31.58 82.77 32.12 83.72 32.70 C 81.81 34.36 78.42 34.90 78.29 37.90 C 76.76 36.96 75.21 36.00 74.15 34.52 C 75.12 34.79 76.08 35.08 77.05 35.39 C 78.65 34.22 81.27 33.55 80.83 31.04 Z" />
<path fill="#1b1b1b" opacity="1.00" d=" M 46.87 36.95 C 48.85 34.94 51.42 33.68 53.90 32.39 C 55.56 34.09 57.95 34.69 59.86 36.03 C 57.79 37.94 55.43 39.75 52.54 40.09 C 54.01 38.41 56.01 37.34 57.87 36.13 C 57.21 35.72 55.89 34.89 55.23 34.48 C 54.44 34.57 52.87 34.74 52.09 34.82 C 50.50 35.86 48.82 36.85 46.87 36.95 Z" />
<path fill="#1b1b1b" opacity="1.00" d=" M 80.99 39.99 C 81.99 37.21 85.40 36.34 87.85 35.22 C 88.11 35.46 88.63 35.94 88.89 36.19 C 90.38 36.75 93.88 37.34 92.62 39.65 C 90.69 41.13 88.52 42.81 85.94 42.58 C 87.74 41.00 90.47 40.36 91.34 37.92 C 87.61 36.34 84.22 38.29 80.99 39.99 Z" />
<path fill="#1b1b1b" opacity="1.00" d=" M 56.05 42.35 C 59.44 39.76 63.10 37.23 67.25 36.06 C 65.65 38.29 62.91 39.20 60.75 40.73 C 63.36 41.34 66.94 39.41 69.12 41.53 C 67.30 41.65 65.47 41.67 63.65 41.69 C 63.55 42.46 63.37 44.00 63.27 44.76 C 62.83 44.78 61.94 44.80 61.50 44.81 C 61.57 43.96 61.70 42.27 61.77 41.43 C 59.86 41.76 57.97 42.14 56.05 42.35 Z" />
<path fill="#1b1b1b" opacity="1.00" d=" M 16.49 49.03 C 17.19 48.71 17.89 48.39 18.59 48.07 C 18.69 48.82 18.88 50.33 18.97 51.09 C 19.70 51.16 21.15 51.29 21.87 51.36 C 23.19 52.22 25.01 52.95 24.83 54.85 C 22.91 53.94 21.26 51.95 18.95 52.38 C 17.56 51.89 17.29 50.13 16.49 49.03 Z" />
<path fill="#1b1b1b" opacity="1.00" d=" M 26.18 52.69 C 27.55 53.62 28.38 55.04 29.05 56.52 C 28.34 56.63 26.90 56.85 26.18 56.96 C 26.57 56.47 27.36 55.49 27.75 55.00 C 27.36 54.42 26.57 53.27 26.18 52.69 Z" />
<path fill="#1b1b1b" opacity="1.00" d=" M 17.78 91.42 C 17.17 89.76 16.20 87.74 18.53 86.99 C 18.18 88.85 18.75 90.50 19.89 91.95 C 20.37 88.72 22.39 89.42 24.38 90.54 C 24.41 92.01 25.41 94.04 23.36 94.54 C 24.32 92.73 22.86 91.49 22.08 90.15 C 21.71 93.47 19.65 92.47 17.78 91.42 Z" />
</g>
<g id="#1376eeff">
<path fill="#1376ee" opacity="1.00" d=" M 89.38 85.23 C 90.09 83.41 92.00 82.25 93.93 82.88 C 92.19 86.13 93.56 90.81 90.56 93.21 C 90.08 90.57 89.42 87.93 89.38 85.23 Z" />
</g>
</svg>
