<?xml version="1.0" encoding="UTF-8" ?>
<!DOCTYPE svg PUBLIC "-//W3C//DTD SVG 1.1//EN" "http://www.w3.org/Graphics/SVG/1.1/DTD/svg11.dtd">
<svg width="300pt" height="300pt" viewBox="0 0 300 300" version="1.1" xmlns="http://www.w3.org/2000/svg">
<g id="#18578cff">
<path fill="#18578c" opacity="1.00" d=" M 0.00 0.00 L 300.00 0.00 L 300.00 300.00 L 0.00 300.00 L 0.00 0.00 M 145.37 62.41 C 139.36 64.42 134.91 70.61 135.43 77.01 C 135.31 85.40 143.76 92.43 151.97 91.18 C 159.25 90.33 165.49 83.55 164.90 76.08 C 165.23 66.45 154.31 58.86 145.37 62.41 M 94.41 83.63 C 88.02 85.16 82.94 91.34 83.18 98.00 C 82.82 105.92 90.07 113.19 98.00 112.83 C 106.27 113.16 113.65 105.26 112.72 97.02 C 112.52 88.12 102.94 81.29 94.41 83.63 M 198.43 83.70 C 190.88 85.71 185.75 94.27 188.05 101.85 C 189.69 108.40 196.20 113.41 203.02 112.82 C 211.82 112.90 219.03 103.54 216.91 95.04 C 215.44 86.88 206.37 81.41 198.43 83.70 M 145.72 100.08 C 145.52 106.51 145.62 112.95 145.66 119.39 C 148.51 118.95 152.24 120.40 154.55 118.74 C 154.80 112.56 154.49 106.36 154.67 100.17 C 151.69 100.07 148.70 100.07 145.72 100.08 M 106.35 123.08 C 111.14 128.28 116.30 133.11 121.24 138.17 C 123.33 135.28 124.86 131.97 127.38 129.39 C 130.32 126.06 134.14 123.71 138.05 121.68 C 133.36 116.29 128.11 111.42 123.00 106.44 C 117.33 111.86 111.79 117.42 106.35 123.08 M 162.18 121.64 C 169.65 124.87 175.31 131.03 178.94 138.20 C 184.07 133.24 189.13 128.19 194.06 123.04 C 188.45 117.51 183.07 111.73 177.23 106.43 C 172.22 111.51 167.01 116.39 162.18 121.64 M 145.37 128.58 C 137.33 130.26 130.56 136.78 128.64 144.77 C 127.39 150.74 128.06 157.31 131.57 162.42 C 136.69 170.51 147.33 174.49 156.48 171.58 C 167.54 168.57 174.76 156.15 171.80 145.05 C 169.29 133.59 156.79 125.81 145.37 128.58 M 71.33 136.29 C 64.33 138.72 59.93 146.76 61.95 153.95 C 63.74 161.80 72.79 167.03 80.47 164.49 C 88.40 162.44 93.27 153.07 90.38 145.40 C 87.95 137.73 78.80 133.55 71.33 136.29 M 218.40 136.53 C 212.75 138.80 208.70 144.83 209.23 150.98 C 209.32 159.38 217.76 166.43 226.05 164.97 C 233.99 164.07 240.07 155.93 238.69 148.06 C 237.66 138.85 226.86 132.80 218.40 136.53 M 99.88 145.80 C 99.78 148.78 99.78 151.76 100.04 154.73 C 106.41 154.72 112.78 154.64 119.16 154.79 C 119.45 151.79 119.35 148.78 119.31 145.77 C 112.84 145.69 106.36 145.63 99.88 145.80 M 181.04 145.79 C 181.13 148.78 181.13 151.76 181.10 154.75 C 187.45 154.70 193.80 154.64 200.15 154.78 C 200.64 151.80 200.47 148.77 200.33 145.77 C 193.90 145.68 187.47 145.66 181.04 145.79 M 106.41 177.22 C 111.62 183.14 117.48 188.47 123.00 194.11 C 128.15 189.18 133.17 184.09 138.17 179.01 C 130.88 175.51 124.75 169.72 121.55 162.23 C 116.35 167.06 111.50 172.26 106.41 177.22 M 162.26 179.02 C 167.07 184.18 172.21 189.01 177.13 194.06 C 183.04 188.77 188.68 183.10 194.00 177.21 C 188.90 172.34 184.08 167.19 178.95 162.34 C 175.38 169.59 169.53 175.47 162.26 179.02 M 145.71 181.09 C 145.55 187.50 145.58 193.91 145.68 200.32 C 148.69 200.43 151.75 200.73 154.72 200.05 C 154.54 193.76 154.60 187.47 154.66 181.18 C 151.68 181.21 148.69 181.20 145.71 181.09 M 94.30 188.13 C 87.73 189.71 82.63 196.18 83.18 203.01 C 83.06 211.82 92.35 219.05 100.87 217.04 C 107.74 215.75 113.22 209.08 112.74 202.03 C 112.86 192.93 103.02 185.48 94.30 188.13 M 197.40 188.50 C 190.14 190.92 185.72 199.52 188.18 206.81 C 190.35 214.43 199.24 219.32 206.80 216.65 C 214.33 214.46 219.15 205.71 216.59 198.20 C 214.48 190.28 205.01 185.52 197.40 188.50 M 146.43 209.71 C 140.12 211.31 135.21 217.43 135.41 224.01 C 135.00 231.87 142.11 239.14 149.99 238.87 C 158.37 239.36 165.93 231.34 164.90 222.99 C 164.62 214.04 154.98 207.22 146.43 209.71 Z" />
</g>
<g id="#fefefdff">
<path fill="#fefefd" opacity="1.00" d=" M 145.37 62.41 C 154.31 58.86 165.23 66.45 164.90 76.08 C 165.49 83.55 159.25 90.33 151.97 91.18 C 143.76 92.43 135.31 85.40 135.43 77.01 C 134.91 70.61 139.36 64.42 145.37 62.41 Z" />
<path fill="#fefefd" opacity="1.00" d=" M 94.41 83.63 C 102.94 81.29 112.52 88.12 112.72 97.02 C 113.65 105.26 106.27 113.16 98.00 112.83 C 90.07 113.19 82.82 105.92 83.18 98.00 C 82.94 91.34 88.02 85.16 94.41 83.63 Z" />
<path fill="#fefefd" opacity="1.00" d=" M 198.43 83.70 C 206.37 81.41 215.44 86.88 216.91 95.04 C 219.03 103.54 211.82 112.90 203.02 112.82 C 196.20 113.41 189.69 108.40 188.05 101.85 C 185.75 94.27 190.88 85.71 198.43 83.70 Z" />
<path fill="#fefefd" opacity="1.00" d=" M 145.72 100.08 C 148.70 100.07 151.69 100.07 154.67 100.17 C 154.49 106.36 154.80 112.56 154.55 118.74 C 152.24 120.40 148.51 118.95 145.66 119.39 C 145.62 112.95 145.52 106.51 145.72 100.08 Z" />
<path fill="#fefefd" opacity="1.00" d=" M 106.35 123.08 C 111.79 117.42 117.33 111.86 123.00 106.44 C 128.11 111.42 133.36 116.29 138.05 121.68 C 134.14 123.71 130.32 126.06 127.38 129.39 C 124.86 131.97 123.33 135.28 121.24 138.17 C 116.30 133.11 111.14 128.28 106.35 123.08 Z" />
<path fill="#fefefd" opacity="1.00" d=" M 162.18 121.64 C 167.01 116.39 172.22 111.51 177.23 106.43 C 183.07 111.73 188.45 117.51 194.06 123.04 C 189.13 128.19 184.07 133.24 178.94 138.20 C 175.31 131.03 169.65 124.87 162.18 121.64 Z" />
<path fill="#fefefd" opacity="1.00" d=" M 145.37 128.58 C 156.79 125.81 169.29 133.59 171.80 145.05 C 174.76 156.15 167.54 168.57 156.48 171.58 C 147.33 174.49 136.69 170.51 131.57 162.42 C 128.06 157.31 127.39 150.74 128.64 144.77 C 130.56 136.78 137.33 130.26 145.37 128.58 Z" />
<path fill="#fefefd" opacity="1.00" d=" M 71.33 136.29 C 78.80 133.55 87.95 137.73 90.38 145.40 C 93.27 153.07 88.40 162.44 80.47 164.49 C 72.79 167.03 63.74 161.80 61.95 153.95 C 59.93 146.76 64.33 138.72 71.33 136.29 Z" />
<path fill="#fefefd" opacity="1.00" d=" M 218.40 136.53 C 226.86 132.80 237.66 138.85 238.69 148.06 C 240.07 155.93 233.99 164.07 226.05 164.97 C 217.76 166.43 209.32 159.38 209.23 150.98 C 208.70 144.83 212.75 138.80 218.40 136.53 Z" />
<path fill="#fefefd" opacity="1.00" d=" M 99.88 145.80 C 106.36 145.63 112.84 145.69 119.31 145.77 C 119.35 148.78 119.45 151.79 119.16 154.79 C 112.78 154.64 106.41 154.72 100.04 154.73 C 99.78 151.76 99.78 148.78 99.88 145.80 Z" />
<path fill="#fefefd" opacity="1.00" d=" M 181.04 145.79 C 187.47 145.66 193.90 145.68 200.33 145.77 C 200.47 148.77 200.64 151.80 200.15 154.78 C 193.80 154.64 187.45 154.70 181.10 154.75 C 181.13 151.76 181.13 148.78 181.04 145.79 Z" />
<path fill="#fefefd" opacity="1.00" d=" M 106.41 177.22 C 111.50 172.26 116.35 167.06 121.55 162.23 C 124.75 169.72 130.88 175.51 138.17 179.01 C 133.17 184.09 128.15 189.18 123.00 194.11 C 117.48 188.47 111.62 183.14 106.41 177.22 Z" />
<path fill="#fefefd" opacity="1.00" d=" M 162.26 179.02 C 169.53 175.47 175.38 169.59 178.95 162.34 C 184.08 167.19 188.90 172.34 194.00 177.21 C 188.68 183.10 183.04 188.77 177.13 194.06 C 172.21 189.01 167.07 184.18 162.26 179.02 Z" />
<path fill="#fefefd" opacity="1.00" d=" M 145.71 181.09 C 148.69 181.20 151.68 181.21 154.66 181.18 C 154.60 187.47 154.54 193.76 154.72 200.05 C 151.75 200.73 148.69 200.43 145.68 200.32 C 145.58 193.91 145.55 187.50 145.71 181.09 Z" />
<path fill="#fefefd" opacity="1.00" d=" M 94.30 188.13 C 103.02 185.48 112.86 192.93 112.74 202.03 C 113.22 209.08 107.74 215.75 100.87 217.04 C 92.35 219.05 83.06 211.82 83.18 203.01 C 82.63 196.18 87.73 189.71 94.30 188.13 Z" />
<path fill="#fefefd" opacity="1.00" d=" M 197.40 188.50 C 205.01 185.52 214.48 190.28 216.59 198.20 C 219.15 205.71 214.33 214.46 206.80 216.65 C 199.24 219.32 190.35 214.43 188.18 206.81 C 185.72 199.52 190.14 190.92 197.40 188.50 Z" />
<path fill="#fefefd" opacity="1.00" d=" M 146.43 209.71 C 154.98 207.22 164.62 214.04 164.90 222.99 C 165.93 231.34 158.37 239.36 149.99 238.87 C 142.11 239.14 135.00 231.87 135.41 224.01 C 135.21 217.43 140.12 211.31 146.43 209.71 Z" />
</g>
</svg>
