<?xml version="1.0" encoding="UTF-8" ?>
<!DOCTYPE svg PUBLIC "-//W3C//DTD SVG 1.1//EN" "http://www.w3.org/Graphics/SVG/1.1/DTD/svg11.dtd">
<svg width="300pt" height="300pt" viewBox="0 0 300 300" version="1.1" xmlns="http://www.w3.org/2000/svg">
<g id="#fefffeff">
<path fill="#fefffe" opacity="1.00" d=" M 0.00 0.00 L 300.00 0.00 L 300.00 300.00 L 0.00 300.00 L 0.00 0.00 M 145.72 25.72 C 138.19 33.40 130.46 40.87 122.94 48.56 C 110.39 46.25 98.44 41.46 85.85 39.37 C 82.81 49.54 79.97 59.77 77.36 70.05 C 76.84 71.86 76.45 73.75 75.47 75.38 C 68.38 78.09 60.88 79.51 53.57 81.53 C 48.84 82.67 44.19 84.20 39.35 84.89 C 38.38 88.77 39.91 92.61 40.87 96.33 C 43.17 103.48 44.97 110.78 46.96 118.02 C 47.39 120.14 48.58 122.91 46.59 124.61 C 38.90 132.58 30.73 140.09 23.09 148.11 C 21.28 149.53 23.10 151.58 24.22 152.76 C 31.43 160.22 38.95 167.39 46.26 174.75 C 47.48 175.75 48.00 177.19 47.56 178.73 C 45.11 190.65 40.68 202.08 38.46 214.05 C 50.77 217.91 63.48 220.37 75.79 224.28 C 79.06 236.04 82.05 247.88 85.56 259.56 C 89.72 260.62 93.91 258.58 97.94 257.66 C 104.92 255.60 111.94 253.67 118.99 251.87 C 120.79 251.48 123.07 250.85 124.40 252.58 C 130.66 259.00 137.04 265.29 143.40 271.61 C 145.53 273.66 147.37 276.11 150.00 277.57 C 151.80 277.09 152.99 275.49 154.34 274.31 C 161.95 266.52 169.86 259.02 177.41 251.17 C 189.78 253.36 201.56 258.06 213.91 260.32 C 216.34 256.75 216.62 252.21 218.01 248.20 C 220.44 240.41 221.96 232.34 224.63 224.65 C 235.71 220.24 247.67 218.43 259.10 215.04 C 260.15 214.61 261.96 214.27 261.66 212.72 C 261.29 207.12 258.62 202.00 257.39 196.58 C 255.85 190.03 253.68 183.62 252.50 176.99 C 255.67 172.42 260.21 169.04 263.97 164.98 C 268.32 160.32 273.16 156.13 277.41 151.38 C 278.60 150.14 277.58 148.41 276.55 147.47 C 268.58 139.22 260.20 131.37 252.28 123.06 C 253.76 116.45 255.69 109.96 257.33 103.39 C 258.74 97.40 261.54 91.72 261.77 85.49 C 249.41 81.99 236.87 79.17 224.59 75.40 C 221.18 63.35 218.26 51.15 214.31 39.26 C 202.07 41.73 190.29 46.10 178.03 48.50 C 168.56 40.56 160.57 30.89 151.32 22.68 C 149.06 21.42 147.31 24.52 145.72 25.72 Z" />
<path fill="#fefffe" opacity="1.00" d=" M 127.66 49.96 C 134.19 43.00 140.79 36.05 148.00 29.82 C 148.54 38.33 148.25 46.87 148.22 55.40 C 141.29 53.89 134.48 51.92 127.66 49.96 Z" />
<path fill="#fefffe" opacity="1.00" d=" M 152.47 29.77 C 159.55 36.00 165.84 43.08 172.70 49.55 C 166.14 52.17 159.23 53.83 152.31 55.20 C 152.36 46.72 152.16 38.24 152.47 29.77 Z" />
<path fill="#fefffe" opacity="1.00" d=" M 181.38 52.12 C 190.36 49.35 199.57 47.40 208.66 45.01 C 204.64 52.40 200.15 59.51 195.99 66.83 C 190.95 62.10 186.03 57.23 181.38 52.12 Z" />
<path fill="#fefffe" opacity="1.00" d=" M 98.95 47.11 C 105.74 48.39 112.44 50.11 119.07 52.07 C 117.18 53.81 115.56 57.80 112.44 56.54 C 107.64 53.88 103.42 50.28 98.95 47.11 Z" />
<path fill="#fefffe" opacity="1.00" d=" M 88.01 47.64 C 92.90 54.42 96.33 62.11 100.95 69.08 C 94.16 70.70 87.51 72.97 80.58 73.99 C 82.94 65.17 85.18 56.32 88.01 47.64 Z" />
<path fill="#fefffe" opacity="1.00" d=" M 94.81 49.74 C 100.34 53.02 105.66 56.70 110.60 60.80 C 108.84 62.64 107.27 64.80 104.96 66.00 C 103.11 65.70 102.60 63.67 101.68 62.33 C 99.51 58.06 96.55 54.22 94.81 49.74 Z" />
<path fill="#fefffe" opacity="1.00" d=" M 199.84 69.36 C 202.59 63.22 206.32 57.58 209.70 51.77 C 209.80 58.24 208.47 64.59 208.27 71.04 C 205.43 70.60 202.63 69.99 199.84 69.36 Z" />
<path fill="#fefffe" opacity="1.00" d=" M 117.26 59.98 C 119.40 57.69 121.64 55.52 123.96 53.42 C 129.69 55.05 135.53 56.25 141.23 57.98 C 134.97 60.20 128.53 61.99 122.04 63.40 C 120.34 62.41 118.83 61.15 117.26 59.98 Z" />
<path fill="#fefffe" opacity="1.00" d=" M 158.85 57.95 C 164.58 56.37 170.40 55.12 176.10 53.39 C 180.74 57.20 184.72 61.71 188.94 65.96 C 178.79 63.79 168.70 61.21 158.85 57.95 Z" />
<path fill="#fefffe" opacity="1.00" d=" M 214.20 54.76 C 216.57 61.08 218.14 67.66 219.83 74.18 C 217.34 73.62 214.86 73.04 212.39 72.39 C 213.26 66.54 213.39 60.62 214.20 54.76 Z" />
<path fill="#fefffe" opacity="1.00" d=" M 126.79 66.59 C 133.50 64.40 140.48 63.19 147.20 61.02 C 151.52 59.52 155.71 62.11 159.89 62.96 C 170.95 65.61 181.94 68.51 192.87 71.64 C 189.79 78.40 185.58 84.53 182.04 91.03 C 180.13 94.37 178.51 97.97 175.79 100.75 C 172.05 99.29 169.07 96.47 165.83 94.20 C 156.62 87.73 147.34 81.36 138.22 74.78 C 134.29 72.22 130.39 69.61 126.79 66.59 Z" />
<path fill="#fefffe" opacity="1.00" d=" M 112.86 63.33 C 114.25 63.80 115.67 64.22 117.10 64.59 C 115.47 65.03 113.86 65.49 112.25 65.96 C 112.40 65.30 112.71 63.99 112.86 63.33 Z" />
<path fill="#fefffe" opacity="1.00" d=" M 107.87 71.59 C 112.21 70.52 116.43 68.79 120.87 68.24 C 128.25 72.19 134.68 77.76 141.70 82.33 C 152.40 89.95 163.24 97.37 173.87 105.09 C 171.93 108.33 170.36 111.89 167.69 114.61 C 156.74 115.00 145.76 114.71 134.80 114.65 C 137.84 107.81 142.95 102.04 145.40 94.93 C 145.07 94.54 144.42 93.77 144.09 93.38 C 137.46 95.46 131.35 98.91 124.86 101.38 C 120.74 96.16 118.06 90.04 114.55 84.43 C 111.97 80.35 109.59 76.12 107.87 71.59 Z" />
<path fill="#fefffe" opacity="1.00" d=" M 79.38 79.40 C 84.92 76.77 91.12 76.05 96.91 74.16 C 89.86 81.74 82.34 88.87 74.97 96.14 C 76.13 90.50 77.20 84.73 79.38 79.40 Z" />
<path fill="#fefffe" opacity="1.00" d=" M 103.28 73.87 C 106.20 78.03 108.75 82.44 111.18 86.90 C 114.23 92.53 118.16 97.70 120.39 103.76 C 102.20 111.63 84.49 120.61 66.10 128.02 C 67.06 122.93 68.75 118.02 69.92 112.99 C 70.83 109.76 71.14 106.12 73.57 103.58 C 83.41 93.61 93.48 83.87 103.28 73.87 Z" />
<path fill="#fefffe" opacity="1.00" d=" M 196.97 73.87 C 200.14 77.36 204.19 80.25 206.71 84.22 C 205.73 105.42 202.97 126.54 201.10 147.69 C 197.29 147.72 193.48 147.78 189.67 147.66 C 184.58 137.86 178.06 128.84 173.47 118.79 C 180.94 118.41 188.44 118.87 195.92 118.52 C 195.90 117.27 196.39 115.72 194.99 115.02 C 190.22 111.03 184.64 108.05 180.02 103.89 C 181.01 100.03 183.56 96.85 185.40 93.38 C 189.47 87.00 192.71 80.13 196.97 73.87 Z" />
<path fill="#fefffe" opacity="1.00" d=" M 203.83 74.40 C 205.12 74.69 206.41 74.99 207.70 75.28 C 207.64 76.04 207.51 77.56 207.45 78.32 C 206.29 76.96 205.09 75.65 203.83 74.40 Z" />
<path fill="#fefffe" opacity="1.00" d=" M 211.63 81.92 C 211.63 80.24 210.95 77.50 212.86 76.66 C 215.76 77.37 218.57 78.42 221.39 79.42 C 222.84 85.25 224.46 91.03 225.92 96.85 C 221.27 91.77 215.67 87.54 211.63 81.92 Z" />
<path fill="#fefffe" opacity="1.00" d=" M 226.05 80.33 C 235.45 82.83 244.94 85.00 254.23 87.89 C 246.61 91.91 239.36 96.60 231.73 100.62 C 229.57 93.94 227.55 87.19 226.05 80.33 Z" />
<path fill="#fefffe" opacity="1.00" d=" M 46.66 87.99 C 55.57 85.00 64.70 82.33 74.02 81.01 C 72.62 87.60 70.76 94.07 68.96 100.56 C 61.20 96.97 54.15 92.08 46.66 87.99 Z" />
<path fill="#fefffe" opacity="1.00" d=" M 210.87 87.93 C 215.40 91.79 219.27 96.33 223.60 100.41 C 225.78 102.66 228.55 104.75 229.20 108.02 C 232.49 121.31 236.53 134.41 239.82 147.71 C 229.88 147.81 219.93 147.74 209.98 147.78 C 208.50 147.60 206.77 148.06 205.50 147.11 C 207.13 127.37 209.00 107.65 210.87 87.93 Z" />
<path fill="#fefffe" opacity="1.00" d=" M 44.30 91.91 C 49.32 93.83 53.59 97.17 58.38 99.56 C 61.25 101.00 63.93 102.79 66.44 104.79 C 61.63 109.56 57.02 114.54 51.88 118.97 C 48.58 110.19 46.58 100.99 44.30 91.91 Z" />
<path fill="#fefffe" opacity="1.00" d=" M 234.00 104.38 C 241.05 99.78 248.56 95.92 255.91 91.81 C 254.02 100.94 251.84 110.10 248.32 118.76 C 243.21 114.33 238.25 109.66 234.00 104.38 Z" />
<path fill="#fefffe" opacity="1.00" d=" M 126.91 105.31 C 130.29 103.65 133.68 101.99 137.27 100.82 C 135.64 104.95 133.33 108.77 130.86 112.44 C 129.42 110.14 128.10 107.76 126.91 105.31 Z" />
<path fill="#fefffe" opacity="1.00" d=" M 103.75 115.81 C 110.31 113.40 116.23 109.17 123.01 107.51 C 125.02 110.36 127.20 113.39 127.84 116.88 C 127.27 119.34 125.86 121.48 124.65 123.66 C 120.33 130.83 116.30 138.17 111.79 145.22 C 107.34 139.27 104.65 132.19 100.01 126.40 C 96.88 126.29 97.12 129.84 96.75 132.01 C 96.39 137.26 95.71 142.48 95.42 147.73 C 83.94 147.69 72.47 147.78 61.00 147.66 C 61.85 142.98 62.42 138.03 64.74 133.82 C 77.56 127.45 90.80 121.94 103.75 115.81 Z" />
<path fill="#fefffe" opacity="1.00" d=" M 176.59 108.43 C 177.52 108.04 178.39 108.13 179.22 108.71 C 182.05 110.40 184.52 112.61 187.08 114.67 C 182.44 114.74 177.79 114.75 173.15 114.70 C 174.25 112.59 175.26 110.41 176.59 108.43 Z" />
<path fill="#fefffe" opacity="1.00" d=" M 55.03 122.02 C 58.56 118.29 62.40 114.87 65.96 111.16 C 64.42 117.22 62.90 123.29 61.20 129.31 C 60.68 132.12 57.41 132.15 55.26 133.06 C 54.70 129.52 51.55 124.92 55.03 122.02 Z" />
<path fill="#fefffe" opacity="1.00" d=" M 234.37 111.75 C 238.53 115.17 242.47 118.90 246.03 122.95 C 247.23 124.18 246.72 126.03 246.56 127.55 C 245.66 132.19 244.31 136.76 242.53 141.15 C 239.45 131.45 237.28 121.49 234.37 111.75 Z" />
<path fill="#fefffe" opacity="1.00" d=" M 129.40 123.41 C 130.72 121.35 131.92 118.17 134.95 118.67 C 145.91 118.78 156.91 118.40 167.86 118.83 C 172.15 124.23 174.66 130.77 178.49 136.48 C 180.98 140.90 184.09 145.10 185.66 149.97 C 184.36 153.91 181.87 157.31 179.89 160.92 C 175.86 167.38 172.22 174.08 168.44 180.69 C 156.36 180.88 144.27 180.76 132.18 180.73 C 126.13 170.52 119.95 160.35 114.44 149.86 C 118.96 140.79 124.66 132.36 129.40 123.41 Z" />
<path fill="#fefffe" opacity="1.00" d=" M 34.12 142.96 C 39.09 137.83 44.21 132.85 49.29 127.83 C 50.16 130.19 50.98 132.57 51.73 134.97 C 45.95 137.84 40.03 140.38 34.12 142.96 Z" />
<path fill="#fefffe" opacity="1.00" d=" M 250.84 127.78 C 257.50 134.31 264.35 140.67 270.54 147.64 C 262.34 147.88 254.14 147.75 245.95 147.68 C 246.82 140.89 249.00 134.36 250.84 127.78 Z" />
<path fill="#fefffe" opacity="1.00" d=" M 56.38 136.86 C 57.07 136.73 58.47 136.49 59.17 136.36 C 58.70 138.04 58.12 139.67 57.39 141.25 C 57.03 139.79 56.68 138.33 56.38 136.86 Z" />
<path fill="#fefffe" opacity="1.00" d=" M 100.73 135.71 C 103.34 139.57 105.76 143.57 108.00 147.66 C 105.37 147.70 102.74 147.71 100.11 147.73 C 100.28 143.72 100.41 139.71 100.73 135.71 Z" />
<path fill="#fefffe" opacity="1.00" d=" M 34.85 147.57 C 40.66 144.62 46.43 141.36 52.81 139.83 C 53.54 142.43 54.26 145.05 54.93 147.67 C 48.24 147.72 41.54 147.81 34.85 147.57 Z" />
<path fill="#fefffe" opacity="1.00" d=" M 29.78 151.70 C 38.15 151.56 46.51 151.75 54.87 151.57 C 53.31 158.35 51.96 165.24 49.36 171.72 C 46.24 168.82 43.08 165.95 40.14 162.87 C 36.67 159.16 32.57 156.01 29.78 151.70 Z" />
<path fill="#fefffe" opacity="1.00" d=" M 61.03 151.78 C 72.29 151.54 83.56 151.59 94.82 151.75 C 93.81 168.83 91.81 185.83 90.40 202.87 C 90.21 205.72 89.71 208.54 89.35 211.37 C 83.95 207.24 79.68 201.88 74.64 197.34 C 71.37 194.54 70.82 190.11 69.78 186.19 C 67.00 174.69 62.76 163.52 61.03 151.78 Z" />
<path fill="#fefffe" opacity="1.00" d=" M 99.29 151.94 C 102.82 151.67 106.39 151.38 109.92 151.80 C 113.83 156.83 116.65 162.61 119.91 168.07 C 122.29 172.30 124.94 176.39 127.06 180.77 C 119.51 181.04 111.92 180.17 104.42 181.41 C 104.37 182.04 104.26 183.30 104.20 183.93 C 109.66 188.01 115.28 191.84 120.80 195.85 C 118.87 199.49 116.92 203.13 114.74 206.64 C 110.75 212.89 107.78 219.77 103.32 225.73 C 100.18 222.39 96.50 219.54 93.73 215.86 C 92.99 211.93 94.25 207.95 94.42 204.01 C 95.82 186.63 97.42 169.27 99.29 151.94 Z" />
<path fill="#fefffe" opacity="1.00" d=" M 192.62 151.81 C 195.24 151.70 197.85 151.68 200.47 151.67 C 200.49 155.84 200.03 159.98 199.51 164.11 C 197.04 160.11 194.37 156.20 192.62 151.81 Z" />
<path fill="#fefffe" opacity="1.00" d=" M 205.19 152.01 C 216.66 151.35 228.17 151.77 239.66 151.76 C 238.62 156.26 237.96 160.92 236.20 165.21 C 234.61 166.82 232.38 167.51 230.39 168.46 C 212.87 176.56 195.25 184.44 177.75 192.62 C 175.78 189.78 173.76 186.91 172.46 183.69 C 171.94 182.51 172.98 181.38 173.35 180.32 C 176.39 174.49 180.19 169.11 183.24 163.29 C 184.81 160.22 186.72 157.34 188.86 154.64 C 192.41 160.32 195.59 166.22 199.14 171.90 C 199.73 173.31 201.31 173.20 202.58 173.44 C 203.82 166.34 204.23 159.14 205.19 152.01 Z" />
<path fill="#fefffe" opacity="1.00" d=" M 245.60 151.75 C 251.92 151.76 258.27 151.31 264.56 152.14 C 259.46 155.82 253.54 158.25 247.55 160.06 C 246.87 157.30 246.22 154.53 245.60 151.75 Z" />
<path fill="#fefffe" opacity="1.00" d=" M 249.10 164.60 C 254.59 161.84 260.20 159.35 265.89 157.05 C 260.89 162.16 255.90 167.29 250.64 172.14 C 250.07 169.63 249.51 167.13 249.10 164.60 Z" />
<path fill="#fefffe" opacity="1.00" d=" M 53.13 175.68 C 54.30 169.87 55.67 164.08 57.86 158.56 C 61.01 168.50 63.38 178.69 65.98 188.79 C 61.90 184.22 57.29 180.17 53.13 175.68 Z" />
<path fill="#fefffe" opacity="1.00" d=" M 240.88 162.60 C 241.55 161.28 242.21 159.96 242.88 158.64 C 243.25 159.98 243.61 161.33 243.98 162.68 C 243.20 162.66 241.66 162.62 240.88 162.60 Z" />
<path fill="#fefffe" opacity="1.00" d=" M 239.69 168.68 C 241.50 168.00 243.32 167.33 245.14 166.66 C 245.83 170.30 248.61 175.14 245.03 178.07 C 241.82 181.32 238.60 184.63 234.88 187.33 C 236.16 181.04 238.03 174.88 239.69 168.68 Z" />
<path fill="#fefffe" opacity="1.00" d=" M 179.82 196.12 C 198.13 187.81 216.38 179.37 234.72 171.12 C 232.59 178.02 231.10 185.10 229.10 192.04 C 228.38 194.96 226.01 196.95 224.00 199.00 C 214.91 207.90 206.08 217.06 196.95 225.92 C 190.99 216.14 185.14 206.27 179.82 196.12 Z" />
<path fill="#fefffe" opacity="1.00" d=" M 51.68 180.83 C 57.18 185.01 61.78 190.17 66.54 195.13 C 59.53 199.82 52.10 203.92 44.54 207.67 C 46.45 198.61 48.71 189.60 51.68 180.83 Z" />
<path fill="#fefffe" opacity="1.00" d=" M 234.17 195.02 C 238.68 189.96 243.43 185.06 248.71 180.80 C 251.34 189.82 254.26 198.79 255.93 208.05 C 250.93 205.46 246.29 202.25 241.25 199.74 C 238.82 198.31 235.99 197.28 234.17 195.02 Z" />
<path fill="#fefffe" opacity="1.00" d=" M 113.71 184.96 C 118.16 184.65 122.61 184.75 127.06 184.82 C 125.99 187.29 124.82 189.72 123.62 192.14 C 119.83 190.50 116.52 187.96 113.71 184.96 Z" />
<path fill="#fefffe" opacity="1.00" d=" M 132.08 185.07 C 143.19 184.57 154.38 184.49 165.50 185.14 C 162.49 192.44 156.16 198.36 155.08 206.39 C 162.30 205.10 168.56 200.92 175.31 198.24 C 177.48 200.98 179.50 203.84 181.07 206.97 C 184.72 214.14 189.56 220.65 192.86 228.01 C 188.24 229.13 183.80 231.22 179.03 231.58 C 166.53 222.91 154.06 214.16 141.65 205.36 C 136.96 201.61 131.39 199.02 127.04 194.85 C 127.91 191.23 130.23 188.22 132.08 185.07 Z" />
<path fill="#fefffe" opacity="1.00" d=" M 162.14 199.78 C 164.44 195.63 166.77 191.49 169.22 187.43 C 170.82 189.58 172.30 191.82 173.72 194.10 C 169.93 196.13 166.10 198.09 162.14 199.78 Z" />
<path fill="#fefffe" opacity="1.00" d=" M 46.14 211.73 C 53.98 207.90 61.13 202.84 68.97 199.03 C 70.65 205.68 72.80 212.22 74.04 218.98 C 64.59 217.23 55.31 214.60 46.14 211.73 Z" />
<path fill="#fefffe" opacity="1.00" d=" M 119.54 206.57 C 121.06 203.76 122.85 201.11 124.77 198.55 C 140.95 210.20 157.58 221.23 173.55 233.16 C 165.74 235.32 157.93 237.61 150.02 239.28 C 135.89 235.55 121.61 232.28 107.61 228.03 C 110.93 220.52 115.60 213.74 119.54 206.57 Z" />
<path fill="#fefffe" opacity="1.00" d=" M 225.96 219.56 C 227.67 212.70 229.51 205.87 231.63 199.13 C 239.36 203.04 246.69 207.67 254.17 212.02 C 244.78 214.60 235.32 216.90 225.96 219.56 Z" />
<path fill="#fefffe" opacity="1.00" d=" M 204.09 224.98 C 211.08 217.44 218.51 210.32 225.86 203.13 C 224.45 208.90 222.81 214.61 221.34 220.38 C 215.72 222.36 209.99 224.09 204.09 224.98 Z" />
<path fill="#fefffe" opacity="1.00" d=" M 74.96 203.71 C 79.19 207.56 83.47 211.41 87.25 215.72 C 89.22 217.61 88.36 220.52 88.57 222.94 C 85.42 222.43 82.34 221.60 79.30 220.67 C 77.59 215.09 76.00 209.46 74.96 203.71 Z" />
<path fill="#fefffe" opacity="1.00" d=" M 92.51 224.25 C 92.47 223.16 92.68 222.11 93.34 221.22 C 94.17 222.48 95.00 223.74 95.85 225.00 C 94.74 224.74 93.62 224.49 92.51 224.25 Z" />
<path fill="#fefffe" opacity="1.00" d=" M 80.83 226.01 C 83.11 226.28 85.38 226.59 87.65 226.96 C 87.61 233.11 87.09 239.24 86.16 245.32 C 84.22 238.93 82.23 232.55 80.83 226.01 Z" />
<path fill="#fefffe" opacity="1.00" d=" M 199.87 230.53 C 206.45 228.77 213.06 227.13 219.68 225.52 C 217.57 234.49 215.01 243.35 212.64 252.25 C 207.69 245.47 203.67 238.01 199.87 230.53 Z" />
<path fill="#fefffe" opacity="1.00" d=" M 92.26 228.44 C 95.12 229.14 97.96 229.88 100.78 230.75 C 97.21 236.51 94.12 242.55 90.48 248.26 C 90.29 241.60 91.68 235.05 92.26 228.44 Z" />
<path fill="#fefffe" opacity="1.00" d=" M 104.22 232.96 C 109.60 237.38 114.38 242.51 119.04 247.67 C 110.22 249.89 101.50 252.77 92.46 253.99 C 95.76 246.64 100.50 240.09 104.22 232.96 Z" />
<path fill="#fefffe" opacity="1.00" d=" M 189.77 239.07 C 191.79 236.90 193.89 234.81 196.09 232.81 C 199.17 238.95 203.27 244.53 206.22 250.74 C 200.69 246.91 195.17 243.07 189.77 239.07 Z" />
<path fill="#fefffe" opacity="1.00" d=" M 111.90 234.02 C 116.38 234.62 120.75 235.77 125.08 237.02 C 130.46 238.58 136.00 239.66 141.19 241.81 C 136.05 243.10 130.98 244.80 125.74 245.67 C 123.36 246.32 121.77 244.19 120.22 242.78 C 117.39 239.91 114.65 236.97 111.90 234.02 Z" />
<path fill="#fefffe" opacity="1.00" d=" M 183.65 234.65 C 185.44 234.49 187.23 234.39 189.03 234.31 C 188.02 235.06 187.04 235.85 185.98 236.51 C 185.16 235.95 184.41 235.28 183.65 234.65 Z" />
<path fill="#fefffe" opacity="1.00" d=" M 158.88 241.57 C 164.58 239.81 170.39 238.37 176.14 236.76 C 178.76 235.58 181.59 237.66 182.66 239.94 C 181.18 242.30 178.98 244.21 176.62 245.66 C 170.52 245.57 164.72 243.12 158.88 241.57 Z" />
<path fill="#fefffe" opacity="1.00" d=" M 181.59 247.62 C 183.13 245.61 184.90 243.80 186.81 242.15 C 191.32 245.39 196.07 248.32 200.25 252.01 C 193.87 251.39 187.68 249.56 181.59 247.62 Z" />
<path fill="#fefffe" opacity="1.00" d=" M 152.31 244.20 C 159.13 245.98 165.97 247.74 172.70 249.86 C 166.19 256.85 159.48 263.67 152.42 270.09 C 152.22 261.46 152.29 252.83 152.31 244.20 Z" />
<path fill="#fefffe" opacity="1.00" d=" M 127.69 249.94 C 134.42 247.69 141.26 245.77 148.22 244.38 C 148.02 252.86 149.06 261.47 147.51 269.86 C 140.89 263.23 134.16 256.72 127.69 249.94 Z" />
</g>
<g id="#10b8a7ff">
<path fill="#10b8a7" opacity="1.00" d=" M 145.72 25.72 C 147.31 24.52 149.06 21.42 151.32 22.68 C 160.57 30.89 168.56 40.56 178.03 48.50 C 190.29 46.10 202.07 41.73 214.31 39.26 C 218.26 51.15 221.18 63.35 224.59 75.40 C 236.87 79.17 249.41 81.99 261.77 85.49 C 261.54 91.72 258.74 97.40 257.33 103.39 C 255.69 109.96 253.76 116.45 252.28 123.06 C 260.20 131.37 268.58 139.22 276.55 147.47 C 277.58 148.41 278.60 150.14 277.41 151.38 C 273.16 156.13 268.32 160.32 263.97 164.98 C 260.21 169.04 255.67 172.42 252.50 176.99 C 253.68 183.62 255.85 190.03 257.39 196.58 C 258.62 202.00 261.29 207.12 261.66 212.72 C 261.96 214.27 260.15 214.61 259.10 215.04 C 247.67 218.43 235.71 220.24 224.63 224.65 C 221.96 232.34 220.44 240.41 218.01 248.20 C 216.62 252.21 216.34 256.75 213.91 260.32 C 201.56 258.06 189.78 253.36 177.41 251.17 C 169.86 259.02 161.95 266.52 154.34 274.31 C 152.99 275.49 151.80 277.09 150.00 277.57 C 147.37 276.11 145.53 273.66 143.40 271.61 C 137.04 265.29 130.66 259.00 124.40 252.58 C 123.07 250.85 120.79 251.48 118.99 251.87 C 111.94 253.67 104.92 255.60 97.94 257.66 C 93.91 258.58 89.72 260.62 85.56 259.56 C 82.05 247.88 79.06 236.04 75.79 224.28 C 63.48 220.37 50.77 217.91 38.46 214.05 C 40.68 202.08 45.11 190.65 47.56 178.73 C 48.00 177.19 47.48 175.75 46.26 174.75 C 38.95 167.39 31.43 160.22 24.22 152.76 C 23.10 151.58 21.28 149.53 23.09 148.11 C 30.73 140.09 38.90 132.58 46.59 124.61 C 48.58 122.91 47.39 120.14 46.96 118.02 C 44.97 110.78 43.17 103.48 40.87 96.33 C 39.91 92.61 38.38 88.77 39.35 84.89 C 44.19 84.20 48.84 82.67 53.57 81.53 C 60.88 79.51 68.38 78.09 75.47 75.38 C 76.45 73.75 76.84 71.86 77.36 70.05 C 79.97 59.77 82.81 49.54 85.85 39.37 C 98.44 41.46 110.39 46.25 122.94 48.56 C 130.46 40.87 138.19 33.40 145.72 25.72 M 127.66 49.96 C 134.48 51.92 141.29 53.89 148.22 55.40 C 148.25 46.87 148.54 38.33 148.00 29.82 C 140.79 36.05 134.19 43.00 127.66 49.96 M 152.47 29.77 C 152.16 38.24 152.36 46.72 152.31 55.20 C 159.23 53.83 166.14 52.17 172.70 49.55 C 165.84 43.08 159.55 36.00 152.47 29.77 M 181.38 52.12 C 186.03 57.23 190.95 62.10 195.99 66.83 C 200.15 59.51 204.64 52.40 208.66 45.01 C 199.57 47.40 190.36 49.35 181.38 52.12 M 98.95 47.11 C 103.42 50.28 107.64 53.88 112.44 56.54 C 115.56 57.80 117.18 53.81 119.07 52.07 C 112.44 50.11 105.74 48.39 98.95 47.11 M 88.01 47.64 C 85.18 56.32 82.94 65.17 80.58 73.99 C 87.51 72.97 94.16 70.70 100.95 69.08 C 96.33 62.11 92.90 54.42 88.01 47.64 M 94.81 49.74 C 96.55 54.22 99.51 58.06 101.68 62.33 C 102.60 63.67 103.11 65.70 104.96 66.00 C 107.27 64.80 108.84 62.64 110.60 60.80 C 105.66 56.70 100.34 53.02 94.81 49.74 M 199.84 69.36 C 202.63 69.99 205.43 70.60 208.27 71.04 C 208.47 64.59 209.80 58.24 209.70 51.77 C 206.32 57.58 202.59 63.22 199.84 69.36 M 117.26 59.98 C 118.83 61.15 120.34 62.41 122.04 63.40 C 128.53 61.99 134.97 60.20 141.23 57.98 C 135.53 56.25 129.69 55.05 123.96 53.42 C 121.64 55.52 119.40 57.69 117.26 59.98 M 158.85 57.95 C 168.70 61.21 178.79 63.79 188.94 65.96 C 184.72 61.71 180.74 57.20 176.10 53.39 C 170.40 55.12 164.58 56.37 158.85 57.95 M 214.20 54.76 C 213.39 60.62 213.26 66.54 212.39 72.39 C 214.86 73.04 217.34 73.62 219.83 74.18 C 218.14 67.66 216.57 61.08 214.20 54.76 M 126.79 66.59 C 130.39 69.61 134.29 72.22 138.22 74.78 C 147.34 81.36 156.62 87.73 165.83 94.20 C 169.07 96.47 172.05 99.29 175.79 100.75 C 178.51 97.97 180.13 94.37 182.04 91.03 C 185.58 84.53 189.79 78.40 192.87 71.64 C 181.94 68.51 170.95 65.61 159.89 62.96 C 155.71 62.11 151.52 59.52 147.20 61.02 C 140.48 63.19 133.50 64.40 126.79 66.59 M 112.86 63.33 C 112.71 63.99 112.40 65.30 112.25 65.96 C 113.86 65.49 115.47 65.03 117.10 64.59 C 115.67 64.22 114.25 63.80 112.86 63.33 M 107.87 71.59 C 109.59 76.12 111.97 80.35 114.55 84.43 C 118.06 90.04 120.74 96.16 124.86 101.38 C 131.35 98.91 137.46 95.46 144.09 93.38 C 144.42 93.77 145.07 94.54 145.40 94.93 C 142.95 102.04 137.84 107.81 134.80 114.65 C 145.76 114.71 156.74 115.00 167.69 114.61 C 170.36 111.89 171.93 108.33 173.87 105.09 C 163.24 97.37 152.40 89.95 141.70 82.33 C 134.68 77.76 128.25 72.19 120.87 68.24 C 116.43 68.79 112.21 70.52 107.87 71.59 M 79.38 79.40 C 77.20 84.73 76.13 90.50 74.97 96.14 C 82.34 88.87 89.86 81.74 96.91 74.16 C 91.12 76.05 84.92 76.77 79.38 79.40 M 103.28 73.87 C 93.48 83.87 83.41 93.61 73.57 103.58 C 71.14 106.12 70.83 109.76 69.92 112.99 C 68.75 118.02 67.06 122.93 66.10 128.02 C 84.49 120.61 102.20 111.63 120.39 103.76 C 118.16 97.70 114.23 92.53 111.18 86.90 C 108.75 82.44 106.20 78.03 103.28 73.87 M 196.97 73.87 C 192.71 80.13 189.47 87.00 185.40 93.38 C 183.56 96.85 181.01 100.03 180.02 103.89 C 184.64 108.05 190.22 111.03 194.99 115.02 C 196.39 115.72 195.90 117.27 195.92 118.52 C 188.44 118.87 180.94 118.41 173.47 118.79 C 178.06 128.84 184.58 137.86 189.67 147.66 C 193.48 147.78 197.29 147.72 201.10 147.69 C 202.97 126.54 205.73 105.42 206.71 84.22 C 204.19 80.25 200.14 77.36 196.97 73.87 M 203.83 74.40 C 205.09 75.65 206.29 76.96 207.45 78.32 C 207.51 77.56 207.64 76.04 207.70 75.28 C 206.41 74.99 205.12 74.69 203.83 74.40 M 211.63 81.92 C 215.67 87.54 221.27 91.77 225.92 96.85 C 224.46 91.03 222.84 85.25 221.39 79.42 C 218.57 78.42 215.76 77.37 212.86 76.66 C 210.95 77.50 211.63 80.24 211.63 81.92 M 226.05 80.33 C 227.55 87.19 229.57 93.94 231.73 100.62 C 239.36 96.60 246.61 91.91 254.23 87.89 C 244.94 85.00 235.45 82.83 226.05 80.33 M 46.66 87.99 C 54.15 92.08 61.20 96.97 68.96 100.56 C 70.76 94.07 72.62 87.60 74.02 81.01 C 64.70 82.33 55.57 85.00 46.66 87.99 M 210.87 87.93 C 209.00 107.65 207.13 127.37 205.50 147.11 C 206.77 148.06 208.50 147.60 209.98 147.78 C 219.93 147.74 229.88 147.81 239.82 147.71 C 236.53 134.41 232.49 121.31 229.20 108.02 C 228.55 104.75 225.78 102.66 223.60 100.41 C 219.27 96.33 215.40 91.79 210.87 87.93 M 44.30 91.91 C 46.58 100.99 48.58 110.19 51.88 118.97 C 57.02 114.54 61.63 109.56 66.44 104.79 C 63.93 102.79 61.25 101.00 58.38 99.56 C 53.59 97.17 49.32 93.83 44.30 91.91 M 234.00 104.38 C 238.25 109.66 243.21 114.33 248.32 118.76 C 251.84 110.10 254.02 100.94 255.91 91.81 C 248.56 95.92 241.05 99.78 234.00 104.38 M 126.91 105.31 C 128.10 107.76 129.42 110.14 130.86 112.44 C 133.33 108.77 135.64 104.95 137.27 100.82 C 133.68 101.99 130.29 103.65 126.91 105.31 M 103.75 115.81 C 90.80 121.94 77.56 127.45 64.74 133.82 C 62.42 138.03 61.85 142.98 61.00 147.66 C 72.47 147.78 83.94 147.69 95.42 147.73 C 95.71 142.48 96.39 137.26 96.75 132.01 C 97.12 129.84 96.88 126.29 100.01 126.40 C 104.65 132.19 107.34 139.27 111.79 145.22 C 116.30 138.17 120.33 130.83 124.65 123.66 C 125.86 121.48 127.27 119.34 127.84 116.88 C 127.20 113.39 125.02 110.36 123.01 107.51 C 116.23 109.17 110.31 113.40 103.75 115.81 M 176.59 108.43 C 175.26 110.41 174.25 112.59 173.15 114.70 C 177.79 114.75 182.44 114.74 187.08 114.67 C 184.52 112.61 182.05 110.40 179.22 108.71 C 178.39 108.13 177.52 108.04 176.59 108.43 M 55.03 122.02 C 51.55 124.92 54.70 129.52 55.26 133.06 C 57.41 132.15 60.68 132.12 61.20 129.31 C 62.90 123.29 64.42 117.22 65.96 111.16 C 62.40 114.87 58.56 118.29 55.03 122.02 M 234.37 111.75 C 237.28 121.49 239.45 131.45 242.53 141.15 C 244.31 136.76 245.66 132.19 246.56 127.55 C 246.72 126.03 247.23 124.18 246.03 122.95 C 242.47 118.90 238.53 115.17 234.37 111.75 M 129.40 123.41 C 124.66 132.36 118.96 140.79 114.44 149.86 C 119.95 160.35 126.13 170.52 132.18 180.73 C 144.27 180.76 156.36 180.88 168.44 180.69 C 172.22 174.08 175.86 167.38 179.89 160.92 C 181.87 157.31 184.36 153.91 185.66 149.97 C 184.09 145.10 180.98 140.90 178.49 136.48 C 174.66 130.77 172.15 124.23 167.86 118.83 C 156.91 118.40 145.91 118.78 134.95 118.67 C 131.92 118.17 130.72 121.35 129.40 123.41 M 34.12 142.96 C 40.03 140.38 45.95 137.84 51.73 134.97 C 50.98 132.57 50.16 130.19 49.29 127.83 C 44.21 132.85 39.09 137.83 34.12 142.96 M 250.84 127.78 C 249.00 134.36 246.82 140.89 245.95 147.68 C 254.14 147.75 262.34 147.88 270.54 147.64 C 264.35 140.67 257.50 134.31 250.84 127.78 M 56.38 136.86 C 56.68 138.33 57.03 139.79 57.39 141.25 C 58.12 139.67 58.70 138.04 59.17 136.36 C 58.47 136.49 57.07 136.73 56.38 136.86 M 100.73 135.71 C 100.41 139.71 100.28 143.72 100.11 147.73 C 102.74 147.71 105.37 147.70 108.00 147.66 C 105.76 143.57 103.34 139.57 100.73 135.71 M 34.85 147.57 C 41.54 147.81 48.24 147.72 54.93 147.67 C 54.26 145.05 53.54 142.43 52.81 139.83 C 46.43 141.36 40.66 144.62 34.85 147.57 M 29.78 151.70 C 32.57 156.01 36.67 159.16 40.14 162.87 C 43.08 165.95 46.24 168.82 49.36 171.72 C 51.96 165.24 53.31 158.35 54.87 151.57 C 46.51 151.75 38.15 151.56 29.78 151.70 M 61.03 151.78 C 62.76 163.52 67.00 174.69 69.78 186.19 C 70.82 190.11 71.37 194.54 74.64 197.34 C 79.68 201.88 83.95 207.24 89.35 211.37 C 89.71 208.54 90.21 205.72 90.40 202.87 C 91.81 185.83 93.81 168.83 94.82 151.75 C 83.56 151.59 72.29 151.54 61.03 151.78 M 99.29 151.94 C 97.42 169.27 95.82 186.63 94.42 204.01 C 94.25 207.95 92.99 211.93 93.73 215.86 C 96.50 219.54 100.18 222.39 103.32 225.73 C 107.78 219.77 110.75 212.89 114.74 206.64 C 116.92 203.13 118.87 199.49 120.80 195.85 C 115.28 191.84 109.66 188.01 104.20 183.93 C 104.26 183.30 104.37 182.04 104.42 181.41 C 111.92 180.17 119.51 181.04 127.06 180.77 C 124.94 176.39 122.29 172.30 119.91 168.07 C 116.65 162.61 113.83 156.83 109.92 151.80 C 106.39 151.38 102.82 151.67 99.29 151.94 M 192.62 151.81 C 194.37 156.20 197.04 160.11 199.51 164.11 C 200.03 159.98 200.49 155.84 200.47 151.67 C 197.85 151.68 195.24 151.70 192.62 151.81 M 205.19 152.01 C 204.23 159.14 203.82 166.34 202.58 173.44 C 201.31 173.20 199.73 173.31 199.14 171.90 C 195.59 166.22 192.41 160.32 188.86 154.64 C 186.72 157.34 184.81 160.22 183.24 163.29 C 180.19 169.11 176.39 174.49 173.35 180.32 C 172.98 181.38 171.94 182.51 172.46 183.69 C 173.76 186.91 175.78 189.78 177.75 192.62 C 195.25 184.44 212.87 176.56 230.39 168.46 C 232.38 167.51 234.61 166.82 236.20 165.21 C 237.96 160.92 238.62 156.26 239.66 151.76 C 228.17 151.77 216.66 151.35 205.19 152.01 M 245.60 151.75 C 246.22 154.53 246.87 157.30 247.55 160.06 C 253.54 158.25 259.46 155.82 264.56 152.14 C 258.27 151.31 251.92 151.76 245.60 151.75 M 249.10 164.60 C 249.51 167.13 250.07 169.63 250.64 172.14 C 255.90 167.29 260.89 162.16 265.89 157.05 C 260.20 159.35 254.59 161.84 249.10 164.60 M 53.13 175.68 C 57.29 180.17 61.90 184.22 65.98 188.79 C 63.38 178.69 61.01 168.50 57.86 158.56 C 55.67 164.08 54.30 169.87 53.13 175.68 M 240.88 162.60 C 241.66 162.62 243.20 162.66 243.98 162.68 C 243.61 161.33 243.25 159.98 242.88 158.64 C 242.21 159.96 241.55 161.28 240.88 162.60 M 239.69 168.68 C 238.03 174.88 236.16 181.04 234.88 187.33 C 238.60 184.63 241.82 181.32 245.03 178.07 C 248.61 175.14 245.83 170.30 245.14 166.66 C 243.32 167.33 241.50 168.00 239.69 168.68 M 179.82 196.12 C 185.14 206.27 190.99 216.14 196.95 225.92 C 206.08 217.06 214.91 207.90 224.00 199.00 C 226.01 196.95 228.38 194.96 229.10 192.04 C 231.10 185.10 232.59 178.02 234.72 171.12 C 216.38 179.37 198.13 187.81 179.82 196.12 M 51.68 180.83 C 48.71 189.60 46.45 198.61 44.54 207.67 C 52.10 203.92 59.53 199.82 66.54 195.13 C 61.78 190.17 57.18 185.01 51.68 180.83 M 234.17 195.02 C 235.99 197.28 238.82 198.31 241.25 199.74 C 246.29 202.25 250.93 205.46 255.93 208.05 C 254.26 198.79 251.34 189.82 248.71 180.80 C 243.43 185.06 238.68 189.96 234.17 195.02 M 113.71 184.96 C 116.52 187.96 119.83 190.50 123.62 192.14 C 124.82 189.72 125.99 187.29 127.06 184.82 C 122.61 184.75 118.16 184.65 113.71 184.96 M 132.08 185.07 C 130.23 188.22 127.91 191.23 127.04 194.85 C 131.39 199.02 136.96 201.61 141.65 205.36 C 154.06 214.16 166.53 222.91 179.03 231.58 C 183.80 231.22 188.24 229.13 192.86 228.01 C 189.56 220.65 184.72 214.14 181.07 206.97 C 179.50 203.84 177.48 200.98 175.31 198.24 C 168.56 200.92 162.30 205.10 155.08 206.39 C 156.16 198.36 162.49 192.44 165.50 185.14 C 154.38 184.49 143.19 184.57 132.08 185.07 M 162.14 199.78 C 166.10 198.09 169.93 196.13 173.72 194.10 C 172.30 191.82 170.82 189.58 169.22 187.43 C 166.77 191.49 164.44 195.63 162.14 199.78 M 46.14 211.73 C 55.31 214.60 64.59 217.23 74.04 218.98 C 72.80 212.22 70.65 205.68 68.97 199.03 C 61.13 202.84 53.98 207.90 46.14 211.73 M 119.54 206.57 C 115.60 213.74 110.93 220.52 107.61 228.03 C 121.61 232.28 135.89 235.55 150.02 239.28 C 157.93 237.61 165.74 235.32 173.55 233.16 C 157.58 221.23 140.95 210.20 124.77 198.55 C 122.85 201.11 121.06 203.76 119.54 206.57 M 225.96 219.56 C 235.32 216.90 244.78 214.60 254.17 212.02 C 246.69 207.67 239.36 203.04 231.63 199.13 C 229.51 205.87 227.67 212.70 225.96 219.56 M 204.09 224.98 C 209.99 224.09 215.72 222.36 221.34 220.38 C 222.81 214.61 224.45 208.90 225.86 203.13 C 218.51 210.32 211.08 217.44 204.09 224.98 M 74.96 203.71 C 76.00 209.46 77.59 215.09 79.30 220.67 C 82.34 221.60 85.42 222.43 88.57 222.94 C 88.36 220.52 89.22 217.61 87.25 215.72 C 83.47 211.41 79.19 207.56 74.96 203.71 M 92.51 224.25 C 93.62 224.49 94.74 224.74 95.85 225.00 C 95.00 223.74 94.17 222.48 93.34 221.22 C 92.68 222.11 92.47 223.16 92.51 224.25 M 80.83 226.01 C 82.23 232.55 84.22 238.93 86.16 245.32 C 87.09 239.24 87.61 233.11 87.65 226.96 C 85.38 226.59 83.11 226.28 80.83 226.01 M 199.87 230.53 C 203.67 238.01 207.69 245.47 212.64 252.25 C 215.01 243.35 217.57 234.49 219.68 225.52 C 213.06 227.13 206.45 228.77 199.87 230.53 M 92.26 228.44 C 91.68 235.05 90.29 241.60 90.48 248.26 C 94.12 242.55 97.21 236.51 100.78 230.75 C 97.96 229.88 95.12 229.14 92.26 228.44 M 104.22 232.96 C 100.50 240.09 95.76 246.64 92.46 253.99 C 101.50 252.77 110.22 249.89 119.04 247.67 C 114.38 242.51 109.60 237.38 104.22 232.96 M 189.77 239.07 C 195.17 243.07 200.69 246.91 206.22 250.74 C 203.27 244.53 199.17 238.95 196.09 232.81 C 193.89 234.81 191.79 236.90 189.77 239.07 M 111.90 234.02 C 114.65 236.97 117.39 239.91 120.22 242.78 C 121.77 244.19 123.36 246.32 125.74 245.67 C 130.98 244.80 136.05 243.10 141.19 241.81 C 136.00 239.66 130.46 238.58 125.08 237.02 C 120.75 235.77 116.38 234.62 111.90 234.02 M 183.65 234.65 C 184.41 235.28 185.16 235.95 185.98 236.51 C 187.04 235.85 188.02 235.06 189.03 234.31 C 187.23 234.39 185.44 234.49 183.65 234.65 M 158.88 241.57 C 164.72 243.12 170.52 245.57 176.62 245.66 C 178.98 244.21 181.18 242.30 182.66 239.94 C 181.59 237.66 178.76 235.58 176.14 236.76 C 170.39 238.37 164.58 239.81 158.88 241.57 M 181.59 247.62 C 187.68 249.56 193.87 251.39 200.25 252.01 C 196.07 248.32 191.32 245.39 186.81 242.15 C 184.90 243.80 183.13 245.61 181.59 247.62 M 152.31 244.20 C 152.29 252.83 152.22 261.46 152.42 270.09 C 159.48 263.67 166.19 256.85 172.70 249.86 C 165.97 247.74 159.13 245.98 152.31 244.20 M 127.69 249.94 C 134.16 256.72 140.89 263.23 147.51 269.86 C 149.06 261.47 148.02 252.86 148.22 244.38 C 141.26 245.77 134.42 247.69 127.69 249.94 Z" />
</g>
</svg>
