<?xml version="1.0" encoding="UTF-8" ?>
<!DOCTYPE svg PUBLIC "-//W3C//DTD SVG 1.1//EN" "http://www.w3.org/Graphics/SVG/1.1/DTD/svg11.dtd">
<svg width="300pt" height="300pt" viewBox="0 0 300 300" version="1.1" xmlns="http://www.w3.org/2000/svg">
<g id="#fefdfeff">
<path fill="#fefdfe" opacity="1.00" d=" M 0.00 0.00 L 300.00 0.00 L 300.00 300.00 L 0.00 300.00 L 0.00 0.00 M 98.38 40.26 C 75.30 46.71 57.96 69.94 59.10 93.99 C 58.78 106.56 63.85 118.83 71.64 128.52 C 60.85 141.47 56.64 159.30 60.20 175.74 C 63.50 190.85 73.41 204.52 87.00 211.99 C 95.20 216.54 104.56 219.36 114.00 218.82 C 126.76 219.65 139.25 214.41 149.17 206.66 C 150.67 207.47 152.17 208.31 153.64 209.19 C 158.55 213.25 164.69 215.40 170.68 217.29 C 177.26 219.45 184.27 218.72 191.07 218.75 C 210.47 216.88 228.13 203.62 235.70 185.70 C 240.21 176.21 240.44 165.45 239.54 155.18 C 237.95 145.45 233.67 136.12 227.35 128.56 C 238.45 115.74 242.20 97.67 238.91 81.23 C 235.50 65.86 225.27 52.10 211.36 44.67 C 199.18 37.96 184.34 35.89 170.91 39.76 C 163.20 41.61 156.30 45.67 149.90 50.21 C 146.55 49.18 143.93 46.30 140.68 44.84 C 128.03 37.59 112.29 35.88 98.38 40.26 M 104.32 236.27 C 104.42 245.55 104.37 254.83 104.35 264.11 C 110.36 264.29 116.38 264.18 122.39 264.19 C 122.11 262.31 123.22 259.85 121.87 258.34 C 118.33 258.22 114.78 258.41 111.25 258.21 C 111.26 256.56 111.28 254.91 111.29 253.27 C 114.47 253.27 117.65 253.29 120.82 253.22 C 120.83 251.20 120.84 249.18 120.88 247.16 C 117.68 247.22 114.48 247.22 111.28 247.11 C 111.28 245.53 111.28 243.96 111.30 242.38 C 115.02 242.40 118.74 242.40 122.45 242.40 C 122.45 240.33 122.43 238.27 122.36 236.21 C 116.35 236.31 110.33 236.22 104.32 236.27 M 138.27 236.28 C 138.36 245.56 138.31 254.84 138.29 264.13 C 140.62 264.20 142.96 264.19 145.29 264.20 C 145.34 260.31 145.23 256.41 145.51 252.53 C 146.92 252.45 148.32 252.40 149.73 252.37 C 150.41 256.28 150.14 260.26 150.17 264.21 C 152.30 264.19 154.42 264.17 156.55 264.09 C 156.37 259.57 156.83 255.00 156.31 250.50 C 154.91 245.62 148.81 245.70 145.20 247.97 C 145.39 244.06 145.34 240.14 145.27 236.22 C 142.93 236.27 140.60 236.26 138.27 236.28 M 127.23 240.41 C 127.20 242.37 127.19 244.33 127.17 246.29 C 125.98 246.42 124.79 246.60 123.61 246.81 C 123.67 248.45 123.72 250.09 123.79 251.73 C 124.64 251.78 126.35 251.87 127.20 251.92 C 127.19 256.00 127.19 260.09 127.21 264.18 C 129.37 264.19 131.52 264.18 133.68 264.13 C 133.61 260.08 133.61 256.03 133.66 251.98 C 134.42 251.89 135.94 251.71 136.70 251.62 C 136.65 249.94 136.63 248.27 136.63 246.61 C 135.89 246.56 134.40 246.46 133.65 246.41 C 133.65 244.41 133.65 242.43 133.65 240.44 C 131.51 240.45 129.37 240.44 127.23 240.41 M 163.36 247.29 C 158.67 249.46 156.77 255.98 159.70 260.29 C 162.71 265.14 170.06 266.06 174.31 262.29 C 178.10 259.11 178.46 252.61 174.85 249.16 C 172.03 245.96 167.06 245.77 163.36 247.29 M 178.75 253.31 C 179.76 257.09 184.45 257.01 187.43 258.35 C 187.56 258.78 187.82 259.63 187.94 260.06 C 185.24 259.89 182.64 259.12 180.06 258.37 C 179.36 259.80 178.66 261.23 178.02 262.69 C 182.57 264.45 188.38 266.16 192.59 262.69 C 194.78 261.21 194.38 258.39 194.09 256.12 C 191.96 252.50 186.86 253.76 184.41 250.72 C 186.91 250.26 189.33 251.05 191.70 251.76 C 192.44 250.47 193.19 249.18 193.94 247.90 C 190.50 246.43 186.71 246.15 183.02 246.67 C 180.27 247.33 177.57 250.40 178.75 253.31 Z" />
<path fill="#fefdfe" opacity="1.00" d=" M 102.18 83.17 C 106.65 77.67 114.69 76.40 121.07 79.07 C 124.78 81.52 128.27 84.95 129.16 89.47 C 129.81 93.30 129.60 97.34 131.18 100.97 C 134.41 108.22 142.02 113.33 150.01 113.20 C 157.84 112.82 165.46 107.69 168.18 100.23 C 169.86 95.71 168.88 90.58 171.12 86.22 C 174.65 78.59 185.14 75.21 192.40 79.58 C 200.76 83.71 203.10 95.95 196.93 102.93 C 193.64 107.38 187.96 108.63 182.73 108.87 C 177.20 109.17 172.11 112.47 168.81 116.80 C 165.35 121.31 164.73 127.30 165.54 132.76 C 166.60 138.54 170.83 143.31 175.79 146.22 C 180.73 149.14 186.96 147.27 191.94 150.08 C 198.47 153.34 202.34 161.66 199.72 168.64 C 197.86 174.58 192.11 178.78 186.04 179.50 C 181.68 179.77 177.49 177.84 174.10 175.22 C 171.44 172.08 169.29 168.28 169.45 164.03 C 169.51 157.21 165.90 150.47 160.02 146.96 C 155.73 144.13 150.34 143.79 145.38 144.50 C 137.70 145.85 131.34 152.44 130.04 160.10 C 129.31 163.71 129.95 167.68 127.97 170.97 C 124.73 177.15 117.03 181.09 110.20 178.89 C 102.40 176.89 96.90 168.17 99.12 160.29 C 100.32 154.25 105.68 150.16 111.27 148.39 C 116.52 148.49 122.12 147.87 126.22 144.23 C 132.27 139.63 135.71 131.24 133.41 123.82 C 131.64 115.60 123.97 109.06 115.55 108.74 C 111.28 108.43 106.67 107.69 103.55 104.47 C 97.59 99.15 97.13 89.26 102.18 83.17 Z" />
<path fill="#fefdfe" opacity="1.00" d=" M 165.35 257.53 C 163.25 255.28 165.71 251.22 168.70 252.21 C 171.56 252.82 170.88 256.30 170.38 258.38 C 168.70 258.51 166.41 259.40 165.35 257.53 Z" />
</g>
<g id="#01febdff">
<path fill="#01febd" opacity="1.00" d=" M 98.38 40.26 C 112.29 35.88 128.03 37.59 140.68 44.84 C 136.85 50.26 131.91 54.88 128.71 60.75 C 125.21 66.43 123.89 73.07 121.07 79.07 C 114.69 76.40 106.65 77.67 102.18 83.17 C 97.13 89.26 97.59 99.15 103.55 104.47 C 106.67 107.69 111.28 108.43 115.55 108.74 C 123.97 109.06 131.64 115.60 133.41 123.82 C 135.71 131.24 132.27 139.63 126.22 144.23 C 122.12 147.87 116.52 148.49 111.27 148.39 C 101.91 147.10 92.44 144.76 84.47 139.50 C 79.79 136.35 75.42 132.71 71.64 128.52 C 63.85 118.83 58.78 106.56 59.10 93.99 C 57.96 69.94 75.30 46.71 98.38 40.26 Z" />
<path fill="#01febd" opacity="1.00" d=" M 168.81 116.80 C 172.11 112.47 177.20 109.17 182.73 108.87 C 187.20 108.99 191.68 109.24 196.08 110.03 C 208.25 112.52 218.95 119.58 227.35 128.56 C 233.67 136.12 237.95 145.45 239.54 155.18 C 240.44 165.45 240.21 176.21 235.70 185.70 C 228.13 203.62 210.47 216.88 191.07 218.75 C 184.27 218.72 177.26 219.45 170.68 217.29 C 164.69 215.40 158.55 213.25 153.64 209.19 C 157.77 205.12 162.50 201.54 165.66 196.59 C 169.88 190.11 171.90 182.55 174.10 175.22 C 177.49 177.84 181.68 179.77 186.04 179.50 C 192.11 178.78 197.86 174.58 199.72 168.64 C 202.34 161.66 198.47 153.34 191.94 150.08 C 186.96 147.27 180.73 149.14 175.79 146.22 C 170.83 143.31 166.60 138.54 165.54 132.76 C 164.73 127.30 165.35 121.31 168.81 116.80 Z" />
</g>
<g id="#01ceaaff">
<path fill="#01ceaa" opacity="1.00" d=" M 170.91 39.76 C 184.34 35.89 199.18 37.96 211.36 44.67 C 225.27 52.10 235.50 65.86 238.91 81.23 C 242.20 97.67 238.45 115.74 227.35 128.56 C 218.95 119.58 208.25 112.52 196.08 110.03 C 191.68 109.24 187.20 108.99 182.73 108.87 C 187.96 108.63 193.64 107.38 196.93 102.93 C 203.10 95.95 200.76 83.71 192.40 79.58 C 185.14 75.21 174.65 78.59 171.12 86.22 C 168.88 90.58 169.86 95.71 168.18 100.23 C 165.46 107.69 157.84 112.82 150.01 113.20 C 142.02 113.33 134.41 108.22 131.18 100.97 C 129.60 97.34 129.81 93.30 129.16 89.47 C 128.27 84.95 124.78 81.52 121.07 79.07 C 123.89 73.07 125.21 66.43 128.71 60.75 C 131.91 54.88 136.85 50.26 140.68 44.84 C 143.93 46.30 146.55 49.18 149.90 50.21 C 156.30 45.67 163.20 41.61 170.91 39.76 Z" />
<path fill="#01ceaa" opacity="1.00" d=" M 71.64 128.52 C 75.42 132.71 79.79 136.35 84.47 139.50 C 92.44 144.76 101.91 147.10 111.27 148.39 C 105.68 150.16 100.32 154.25 99.12 160.29 C 96.90 168.17 102.40 176.89 110.20 178.89 C 117.03 181.09 124.73 177.15 127.97 170.97 C 129.95 167.68 129.31 163.71 130.04 160.10 C 131.34 152.44 137.70 145.85 145.38 144.50 C 150.34 143.79 155.73 144.13 160.02 146.96 C 165.90 150.47 169.51 157.21 169.45 164.03 C 169.29 168.28 171.44 172.08 174.10 175.22 C 171.90 182.55 169.88 190.11 165.66 196.59 C 162.50 201.54 157.77 205.12 153.64 209.19 C 152.17 208.31 150.67 207.47 149.17 206.66 C 139.25 214.41 126.76 219.65 114.00 218.82 C 104.56 219.36 95.20 216.54 87.00 211.99 C 73.41 204.52 63.50 190.85 60.20 175.74 C 56.64 159.30 60.85 141.47 71.64 128.52 Z" />
</g>
<g id="#010101ff">
<path fill="#010101" opacity="1.00" d=" M 104.32 236.27 C 110.33 236.22 116.35 236.31 122.36 236.21 C 122.43 238.27 122.45 240.33 122.45 242.40 C 118.74 242.40 115.02 242.40 111.30 242.38 C 111.28 243.96 111.28 245.53 111.28 247.11 C 114.48 247.22 117.68 247.22 120.88 247.16 C 120.84 249.18 120.83 251.20 120.82 253.22 C 117.65 253.29 114.47 253.27 111.29 253.27 C 111.28 254.91 111.26 256.56 111.25 258.21 C 114.78 258.41 118.33 258.22 121.87 258.34 C 123.22 259.85 122.11 262.31 122.39 264.19 C 116.38 264.18 110.36 264.29 104.35 264.11 C 104.37 254.83 104.42 245.55 104.32 236.27 Z" />
<path fill="#010101" opacity="1.00" d=" M 138.27 236.28 C 140.60 236.26 142.93 236.27 145.27 236.22 C 145.34 240.14 145.39 244.06 145.20 247.97 C 148.81 245.70 154.91 245.62 156.31 250.50 C 156.83 255.00 156.37 259.57 156.55 264.09 C 154.42 264.17 152.30 264.19 150.17 264.21 C 150.14 260.26 150.41 256.28 149.73 252.37 C 148.32 252.40 146.92 252.45 145.51 252.53 C 145.23 256.41 145.34 260.31 145.29 264.20 C 142.96 264.19 140.62 264.20 138.29 264.13 C 138.31 254.84 138.36 245.56 138.27 236.28 Z" />
<path fill="#010101" opacity="1.00" d=" M 127.23 240.41 C 129.37 240.44 131.51 240.45 133.65 240.44 C 133.65 242.43 133.65 244.41 133.65 246.41 C 134.40 246.46 135.89 246.56 136.63 246.61 C 136.63 248.27 136.65 249.94 136.70 251.62 C 135.94 251.71 134.42 251.89 133.66 251.98 C 133.61 256.03 133.61 260.08 133.68 264.13 C 131.52 264.18 129.37 264.19 127.21 264.18 C 127.19 260.09 127.19 256.00 127.20 251.92 C 126.35 251.87 124.64 251.78 123.79 251.73 C 123.72 250.09 123.67 248.45 123.61 246.81 C 124.79 246.60 125.98 246.42 127.17 246.29 C 127.19 244.33 127.20 242.37 127.23 240.41 Z" />
<path fill="#010101" opacity="1.00" d=" M 163.36 247.29 C 167.06 245.77 172.03 245.96 174.85 249.16 C 178.46 252.61 178.10 259.11 174.31 262.29 C 170.06 266.06 162.71 265.14 159.70 260.29 C 156.77 255.98 158.67 249.46 163.36 247.29 M 165.35 257.53 C 166.41 259.40 168.70 258.51 170.38 258.38 C 170.88 256.30 171.56 252.82 168.70 252.21 C 165.71 251.22 163.25 255.28 165.35 257.53 Z" />
<path fill="#010101" opacity="1.00" d=" M 178.75 253.31 C 177.57 250.40 180.27 247.33 183.02 246.67 C 186.71 246.15 190.50 246.43 193.94 247.90 C 193.19 249.18 192.44 250.47 191.70 251.76 C 189.33 251.05 186.91 250.26 184.41 250.72 C 186.86 253.76 191.96 252.50 194.09 256.12 C 194.38 258.39 194.78 261.21 192.59 262.69 C 188.38 266.16 182.57 264.45 178.02 262.69 C 178.66 261.23 179.36 259.80 180.06 258.37 C 182.64 259.12 185.24 259.89 187.94 260.06 C 187.82 259.63 187.56 258.78 187.43 258.35 C 184.45 257.01 179.76 257.09 178.75 253.31 Z" />
</g>
</svg>
