<?xml version="1.0" encoding="UTF-8" ?>
<!DOCTYPE svg PUBLIC "-//W3C//DTD SVG 1.1//EN" "http://www.w3.org/Graphics/SVG/1.1/DTD/svg11.dtd">
<svg width="128pt" height="128pt" viewBox="0 0 128 128" version="1.1" xmlns="http://www.w3.org/2000/svg">
<g id="#2b48a9ff">
<path fill="#2b48a9" opacity="1.00" d=" M 63.46 0.00 L 64.48 0.00 C 65.99 1.65 67.47 3.34 69.05 4.94 C 85.24 21.09 101.39 37.27 117.57 53.43 C 120.98 56.82 124.24 60.38 128.00 63.38 L 128.00 63.85 C 119.82 71.59 112.13 79.83 103.94 87.55 C 100.32 84.65 96.83 81.55 92.82 79.18 C 80.58 71.67 65.38 69.40 51.40 72.54 C 41.03 74.70 31.97 80.58 24.07 87.41 C 16.09 79.67 8.22 71.81 0.49 63.82 C 1.63 62.52 2.77 61.22 3.98 59.97 C 22.01 42.01 39.93 23.92 57.95 5.95 C 59.87 4.05 61.72 2.07 63.46 0.00 Z" />
</g>
<g id="#2aa6f4ff">
<path fill="#2aa6f4" opacity="1.00" d=" M 31.11 94.71 C 39.59 85.93 51.77 80.78 64.00 81.09 C 76.22 80.81 88.51 85.87 96.92 94.74 C 85.90 105.61 75.13 116.73 64.00 127.49 C 52.90 116.71 42.10 105.61 31.11 94.71 Z" />
</g>
</svg>
