<?xml version="1.0" encoding="UTF-8" ?>
<!DOCTYPE svg PUBLIC "-//W3C//DTD SVG 1.1//EN" "http://www.w3.org/Graphics/SVG/1.1/DTD/svg11.dtd">
<svg width="300pt" height="300pt" viewBox="0 0 300 300" version="1.1" xmlns="http://www.w3.org/2000/svg">
<g id="#020003ff">
<path fill="#020003" opacity="1.00" d=" M 0.00 0.00 L 300.00 0.00 L 300.00 300.00 L 0.00 300.00 L 0.00 0.00 M 117.39 59.47 C 112.54 61.36 108.69 65.97 108.24 71.23 C 107.18 79.09 113.79 87.39 121.99 86.89 C 130.11 87.85 137.51 79.98 136.53 71.98 C 136.66 62.73 125.80 55.76 117.39 59.47 M 147.40 77.50 C 141.92 79.50 137.93 85.12 138.26 91.01 C 138.56 93.70 137.05 96.45 134.49 97.40 C 132.01 98.44 129.79 96.40 127.55 95.64 C 119.54 91.81 109.24 98.31 108.54 106.98 C 107.80 112.40 110.44 118.03 115.04 120.96 C 118.40 123.36 122.80 123.03 126.67 122.51 C 131.10 121.30 134.54 117.50 136.12 113.28 C 136.97 109.67 135.67 104.70 139.72 102.67 C 144.06 101.00 147.60 105.64 152.00 104.90 C 160.44 105.91 167.68 97.37 166.57 89.25 C 165.74 80.55 155.59 73.87 147.40 77.50 M 177.40 95.51 C 173.33 97.00 170.06 100.46 168.74 104.58 C 168.28 106.97 168.52 109.45 167.91 111.81 C 167.42 114.11 165.05 115.24 162.98 115.77 C 159.57 115.02 156.65 112.48 153.03 112.58 C 145.16 112.01 137.81 119.10 138.27 127.00 C 138.92 130.91 134.67 135.25 130.83 133.15 C 127.02 131.13 122.54 129.64 118.30 131.28 C 110.41 133.49 105.92 143.11 109.47 150.56 C 112.85 159.63 126.40 161.93 132.66 154.64 C 135.56 151.91 136.73 147.95 136.50 144.04 C 136.28 140.49 140.05 137.16 143.55 138.50 C 146.83 139.89 150.24 141.59 153.94 140.97 C 159.76 140.67 164.72 136.03 166.31 130.58 C 166.98 127.54 165.80 123.76 168.54 121.50 C 170.42 119.53 173.43 120.19 175.56 121.36 C 178.66 123.17 182.37 123.05 185.82 122.66 C 193.40 121.08 198.29 112.41 196.07 105.06 C 194.12 97.33 184.84 92.30 177.40 95.51 M 75.26 192.11 C 70.58 194.11 70.61 201.79 75.40 203.60 C 79.20 205.82 84.81 202.41 84.45 197.99 C 85.00 193.30 79.26 189.93 75.26 192.11 M 100.34 192.07 C 99.93 207.69 100.26 223.33 100.17 238.95 C 99.86 240.72 101.06 242.60 103.00 242.43 C 112.30 242.41 121.62 242.64 130.91 242.31 C 133.94 240.58 132.16 236.41 132.40 233.57 C 125.33 233.01 118.24 233.58 111.16 233.21 C 111.28 228.43 111.25 223.64 111.19 218.85 C 116.56 218.39 122.09 219.35 127.37 218.36 C 128.72 216.06 128.40 212.93 127.48 210.51 C 122.08 209.87 116.62 210.51 111.20 210.14 C 111.26 207.01 111.26 203.88 111.13 200.75 C 117.86 200.29 124.67 201.11 131.35 200.36 C 133.75 198.34 132.31 194.43 132.17 191.68 C 121.57 191.85 110.89 191.08 100.34 192.07 M 64.09 210.28 C 63.88 213.04 63.11 216.11 64.34 218.70 C 67.21 220.09 70.78 219.06 73.92 219.28 C 74.23 223.95 74.07 228.64 74.10 233.33 C 70.80 233.35 67.50 233.38 64.19 233.39 C 63.91 235.24 63.69 237.11 63.75 238.99 C 63.68 240.38 64.06 242.79 66.01 242.44 C 74.64 242.42 83.29 242.59 91.92 242.36 C 95.31 241.02 93.58 236.34 93.40 233.56 C 90.20 233.36 86.99 233.30 83.78 233.33 C 83.75 226.58 83.84 219.84 83.77 213.10 C 83.93 211.46 82.51 210.08 80.88 210.23 C 75.29 210.09 69.68 210.13 64.09 210.28 M 140.16 210.42 C 140.02 210.82 139.72 211.62 139.57 212.02 C 142.08 216.78 145.64 221.01 147.82 225.91 C 145.08 231.36 140.41 235.93 138.94 241.93 C 141.79 242.44 144.98 243.01 147.75 242.00 C 149.71 239.27 151.19 236.25 153.01 233.43 C 155.24 236.23 156.20 240.17 159.05 242.36 C 161.75 242.18 165.50 243.63 167.28 240.96 C 164.72 235.69 161.09 231.02 158.25 225.91 C 160.31 220.63 164.83 216.45 166.60 211.07 C 164.03 209.35 160.41 210.55 157.42 210.38 C 156.11 212.85 154.60 215.21 153.02 217.52 C 151.48 215.18 149.95 212.82 148.61 210.34 C 145.80 210.26 142.97 210.08 140.16 210.42 M 178.14 212.15 C 170.61 217.20 169.03 228.66 174.02 236.00 C 179.91 244.18 193.65 244.68 199.96 236.81 C 200.30 234.31 197.46 233.00 195.91 231.55 C 193.09 231.88 191.06 235.03 187.92 234.66 C 184.04 235.31 181.00 232.17 180.10 228.65 C 186.70 227.90 193.37 228.68 199.99 228.27 C 202.06 228.02 201.20 225.33 201.36 223.95 C 200.84 218.72 197.94 213.31 192.97 211.09 C 188.20 209.33 182.54 209.44 178.14 212.15 M 210.83 215.86 C 205.73 222.56 206.48 233.43 213.25 238.77 C 220.12 244.49 232.08 243.57 237.17 235.97 C 235.98 233.76 233.96 232.12 231.96 230.67 C 228.86 232.11 225.94 235.34 222.16 233.87 C 215.20 232.27 214.83 220.94 221.46 218.59 C 224.97 216.89 228.48 219.36 231.11 221.52 C 233.20 219.89 235.05 218.00 236.78 215.99 C 230.77 207.81 216.96 207.87 210.83 215.86 Z" />
<path fill="#020003" opacity="1.00" d=" M 180.53 223.10 C 180.70 220.15 182.71 216.86 186.05 217.20 C 189.42 216.54 191.70 219.83 191.99 222.81 C 188.19 223.33 184.35 223.18 180.53 223.10 Z" />
</g>
<g id="#fde102ff">
<path fill="#fde102" opacity="1.00" d=" M 117.39 59.47 C 125.80 55.76 136.66 62.73 136.53 71.98 C 137.51 79.98 130.11 87.85 121.99 86.89 C 113.79 87.39 107.18 79.09 108.24 71.23 C 108.69 65.97 112.54 61.36 117.39 59.47 Z" />
<path fill="#fde102" opacity="1.00" d=" M 147.40 77.50 C 155.59 73.87 165.74 80.55 166.57 89.25 C 167.68 97.37 160.44 105.91 152.00 104.90 C 147.60 105.64 144.06 101.00 139.72 102.67 C 135.67 104.70 136.97 109.67 136.12 113.28 C 134.54 117.50 131.10 121.30 126.67 122.51 C 122.80 123.03 118.40 123.36 115.04 120.96 C 110.44 118.03 107.80 112.40 108.54 106.98 C 109.24 98.31 119.54 91.81 127.55 95.64 C 129.79 96.40 132.01 98.44 134.49 97.40 C 137.05 96.45 138.56 93.70 138.26 91.01 C 137.93 85.12 141.92 79.50 147.40 77.50 Z" />
<path fill="#fde102" opacity="1.00" d=" M 177.40 95.51 C 184.84 92.30 194.12 97.33 196.07 105.06 C 198.29 112.41 193.40 121.08 185.82 122.66 C 182.37 123.05 178.66 123.17 175.56 121.36 C 173.43 120.19 170.42 119.53 168.54 121.50 C 165.80 123.76 166.98 127.54 166.31 130.58 C 164.72 136.03 159.76 140.67 153.94 140.97 C 150.24 141.59 146.83 139.89 143.55 138.50 C 140.05 137.16 136.28 140.49 136.50 144.04 C 136.73 147.95 135.56 151.91 132.66 154.64 C 126.40 161.93 112.85 159.63 109.47 150.56 C 105.92 143.11 110.41 133.49 118.30 131.28 C 122.54 129.64 127.02 131.13 130.83 133.15 C 134.67 135.25 138.92 130.91 138.27 127.00 C 137.81 119.10 145.16 112.01 153.03 112.58 C 156.65 112.48 159.57 115.02 162.98 115.77 C 165.05 115.24 167.42 114.11 167.91 111.81 C 168.52 109.45 168.28 106.97 168.74 104.58 C 170.06 100.46 173.33 97.00 177.40 95.51 Z" />
</g>
<g id="#f6f4f7ff">
<path fill="#f6f4f7" opacity="1.00" d=" M 75.26 192.11 C 79.26 189.93 85.00 193.30 84.45 197.99 C 84.81 202.41 79.20 205.82 75.40 203.60 C 70.61 201.79 70.58 194.11 75.26 192.11 Z" />
<path fill="#f6f4f7" opacity="1.00" d=" M 100.34 192.07 C 110.89 191.08 121.57 191.85 132.17 191.68 C 132.31 194.43 133.75 198.34 131.35 200.36 C 124.67 201.11 117.86 200.29 111.13 200.75 C 111.26 203.88 111.26 207.01 111.20 210.14 C 116.62 210.51 122.08 209.87 127.48 210.51 C 128.40 212.93 128.72 216.06 127.37 218.36 C 122.09 219.35 116.56 218.39 111.19 218.85 C 111.25 223.64 111.28 228.43 111.16 233.21 C 118.24 233.58 125.33 233.01 132.40 233.57 C 132.16 236.41 133.94 240.58 130.91 242.31 C 121.62 242.64 112.30 242.41 103.00 242.43 C 101.06 242.60 99.86 240.72 100.17 238.95 C 100.26 223.33 99.93 207.69 100.34 192.07 Z" />
<path fill="#f6f4f7" opacity="1.00" d=" M 64.09 210.28 C 69.68 210.13 75.29 210.09 80.88 210.23 C 82.51 210.08 83.93 211.46 83.77 213.10 C 83.84 219.84 83.75 226.58 83.78 233.33 C 86.99 233.30 90.20 233.36 93.40 233.56 C 93.58 236.34 95.31 241.02 91.92 242.36 C 83.29 242.59 74.64 242.42 66.01 242.44 C 64.06 242.79 63.68 240.38 63.75 238.99 C 63.69 237.11 63.91 235.24 64.19 233.39 C 67.50 233.38 70.80 233.35 74.10 233.33 C 74.07 228.64 74.23 223.95 73.92 219.28 C 70.78 219.06 67.21 220.09 64.34 218.70 C 63.11 216.11 63.88 213.04 64.09 210.28 Z" />
<path fill="#f6f4f7" opacity="1.00" d=" M 140.16 210.42 C 142.97 210.08 145.80 210.26 148.61 210.34 C 149.95 212.82 151.48 215.18 153.02 217.52 C 154.60 215.21 156.11 212.85 157.42 210.38 C 160.41 210.55 164.03 209.35 166.60 211.07 C 164.83 216.45 160.31 220.63 158.25 225.91 C 161.09 231.02 164.72 235.69 167.28 240.96 C 165.50 243.63 161.75 242.18 159.05 242.36 C 156.20 240.17 155.24 236.23 153.01 233.43 C 151.19 236.25 149.71 239.27 147.75 242.00 C 144.98 243.01 141.79 242.44 138.94 241.93 C 140.41 235.93 145.08 231.36 147.82 225.91 C 145.64 221.01 142.08 216.78 139.57 212.02 C 139.72 211.62 140.02 210.82 140.16 210.42 Z" />
<path fill="#f6f4f7" opacity="1.00" d=" M 178.14 212.15 C 182.54 209.44 188.20 209.33 192.97 211.09 C 197.94 213.31 200.84 218.72 201.36 223.95 C 201.20 225.33 202.06 228.02 199.99 228.27 C 193.37 228.68 186.70 227.90 180.10 228.65 C 181.00 232.17 184.04 235.31 187.92 234.66 C 191.06 235.03 193.09 231.88 195.91 231.55 C 197.46 233.00 200.30 234.31 199.96 236.81 C 193.65 244.68 179.91 244.18 174.02 236.00 C 169.03 228.66 170.61 217.20 178.14 212.15 M 180.53 223.10 C 184.35 223.18 188.19 223.33 191.99 222.81 C 191.70 219.83 189.42 216.54 186.05 217.20 C 182.71 216.86 180.70 220.15 180.53 223.10 Z" />
<path fill="#f6f4f7" opacity="1.00" d=" M 210.83 215.86 C 216.96 207.87 230.77 207.81 236.78 215.99 C 235.05 218.00 233.20 219.89 231.11 221.52 C 228.48 219.36 224.97 216.89 221.46 218.59 C 214.83 220.94 215.20 232.27 222.16 233.87 C 225.94 235.34 228.86 232.11 231.96 230.67 C 233.96 232.12 235.98 233.76 237.17 235.97 C 232.08 243.57 220.12 244.49 213.25 238.77 C 206.48 233.43 205.73 222.56 210.83 215.86 Z" />
</g>
</svg>
