<?xml version="1.0" encoding="UTF-8" ?>
<!DOCTYPE svg PUBLIC "-//W3C//DTD SVG 1.1//EN" "http://www.w3.org/Graphics/SVG/1.1/DTD/svg11.dtd">
<svg width="300pt" height="300pt" viewBox="0 0 300 300" version="1.1" xmlns="http://www.w3.org/2000/svg">
<g id="#00a6c4ff">
<path fill="#00a6c4" opacity="1.00" d=" M 101.57 113.94 C 112.82 100.96 129.80 93.25 146.98 93.43 C 164.00 93.80 180.79 101.69 191.59 114.93 C 176.77 129.84 161.68 144.48 146.96 159.49 C 131.74 144.39 116.72 129.10 101.57 113.94 M 109.02 113.94 C 121.68 126.58 134.28 139.27 146.92 151.93 C 157.36 141.37 167.97 130.97 178.46 120.46 C 180.35 118.45 182.72 116.82 184.07 114.37 C 175.65 106.47 164.98 100.94 153.49 99.37 C 137.47 97.01 120.61 102.70 109.02 113.94 Z" />
<path fill="#00a6c4" opacity="1.00" d=" M 92.36 144.05 C 93.72 136.19 96.34 128.39 100.95 121.83 C 102.65 123.43 104.30 125.08 105.84 126.85 C 102.75 131.96 101.07 138.26 102.99 144.11 C 105.41 153.22 114.52 160.17 124.02 159.52 C 128.01 159.72 131.59 157.79 135.08 156.14 C 139.20 159.76 142.66 164.05 146.82 167.62 C 151.20 163.24 155.46 158.73 159.97 154.48 C 164.50 157.04 169.89 158.33 175.04 157.21 C 182.53 155.97 188.71 149.97 190.89 142.80 C 192.35 137.12 191.44 131.00 188.37 126.01 C 189.69 124.69 190.99 123.34 192.26 121.98 C 206.25 141.43 203.99 170.34 188.03 188.05 C 177.89 199.74 162.56 207.10 147.00 206.78 C 131.86 207.28 116.85 200.49 106.58 189.47 C 95.34 177.52 89.80 160.30 92.36 144.05 Z" />
<path fill="#00a6c4" opacity="1.00" d=" M 166.68 147.97 C 171.90 142.55 177.03 136.94 182.81 132.10 C 184.83 136.61 185.00 142.54 181.17 146.16 C 177.52 150.23 171.31 150.26 166.68 147.97 Z" />
<path fill="#00a6c4" opacity="1.00" d=" M 111.01 145.02 C 108.66 141.21 109.51 136.41 111.93 132.87 C 117.19 137.93 122.21 143.24 127.54 148.24 C 123.17 153.63 113.75 150.86 111.01 145.02 Z" />
<path fill="#00a6c4" opacity="1.00" d=" M 2.47 138.00 C 29.74 137.94 57.01 137.94 84.28 138.00 C 83.24 147.72 82.97 157.78 86.04 167.19 C 88.05 174.96 92.32 181.82 96.71 188.43 C 77.11 188.03 57.34 184.50 39.27 176.72 C 26.17 170.89 13.86 161.98 6.57 149.39 C 4.59 145.86 2.97 142.05 2.47 138.00 Z" />
<path fill="#00a6c4" opacity="1.00" d=" M 208.84 138.04 C 236.06 137.88 263.29 137.99 290.51 137.98 C 290.40 142.62 288.05 146.85 285.81 150.80 C 277.04 165.00 262.07 174.09 246.69 179.66 C 230.58 185.25 213.51 188.15 196.47 188.45 C 202.87 179.04 208.11 168.49 209.15 157.00 C 209.93 150.69 209.36 144.34 208.84 138.04 Z" />
</g>
</svg>
