<?xml version="1.0" encoding="UTF-8" ?>
<!DOCTYPE svg PUBLIC "-//W3C//DTD SVG 1.1//EN" "http://www.w3.org/Graphics/SVG/1.1/DTD/svg11.dtd">
<svg width="300pt" height="300pt" viewBox="0 0 300 300" version="1.1" xmlns="http://www.w3.org/2000/svg">
<g id="#ffffffff">
<path fill="#ffffff" opacity="1.00" d=" M 0.00 0.00 L 300.00 0.00 L 300.00 300.00 L 0.00 300.00 L 0.00 0.00 M 101.01 76.62 C 97.46 77.99 94.32 80.16 91.05 82.06 C 85.40 85.49 79.49 88.52 73.99 92.18 C 73.38 96.10 73.72 100.06 73.66 104.00 C 73.66 135.00 73.67 166.00 73.66 197.00 C 73.70 200.31 73.45 203.64 73.86 206.93 C 74.66 208.52 76.51 209.16 77.91 210.11 C 84.92 213.93 91.59 218.35 98.70 221.99 C 107.65 227.42 116.74 232.68 126.00 237.57 C 129.68 235.83 133.10 233.62 136.65 231.62 C 163.26 216.21 189.93 200.90 216.55 185.50 C 219.66 183.64 222.95 182.06 225.83 179.84 C 225.67 170.20 226.36 160.59 226.19 150.95 C 226.45 141.63 226.29 132.29 226.16 122.96 C 226.67 118.76 221.80 117.74 219.08 115.87 C 189.56 98.70 159.90 81.77 130.36 64.64 C 128.96 63.85 127.48 63.21 126.01 62.57 C 117.39 66.71 109.33 71.91 101.01 76.62 Z" />
<path fill="#ffffff" opacity="1.00" d=" M 117.97 71.95 C 120.57 70.35 123.23 68.86 126.00 67.59 C 132.98 70.82 139.33 75.23 146.09 78.87 C 170.32 93.08 194.90 106.70 218.98 121.16 C 212.54 125.40 205.81 129.22 198.94 132.71 C 195.57 131.38 192.54 129.38 189.45 127.54 C 168.89 115.72 148.42 103.75 127.79 92.06 C 120.79 87.74 113.59 83.77 106.54 79.55 C 109.61 76.02 114.08 74.35 117.97 71.95 Z" />
<path fill="#ffffff" opacity="1.00" d=" M 78.22 97.24 C 84.95 101.35 91.96 105.03 98.56 109.37 C 98.90 136.32 98.52 163.28 98.75 190.23 C 98.66 199.19 98.64 208.14 98.65 217.10 C 92.02 212.74 84.71 209.46 78.28 204.79 C 78.12 168.94 78.25 133.09 78.22 97.24 Z" />
<path fill="#ffffff" opacity="1.00" d=" M 103.31 109.30 C 109.97 105.06 116.89 101.24 123.72 97.27 C 123.77 123.57 123.37 149.88 123.92 176.17 C 117.07 180.24 110.22 184.30 103.22 188.11 C 103.24 161.84 103.04 135.56 103.31 109.30 Z" />
<path fill="#ffffff" opacity="1.00" d=" M 128.08 97.69 C 146.60 107.74 164.69 118.56 182.98 129.02 C 187.45 131.87 192.48 133.86 196.56 137.31 C 196.69 144.88 196.74 152.45 196.56 160.02 C 192.21 158.48 188.45 155.76 184.46 153.51 C 171.97 146.34 159.50 139.14 147.00 131.99 C 140.72 128.60 134.88 124.39 128.22 121.74 C 128.01 113.72 128.23 105.70 128.08 97.69 Z" />
<path fill="#ffffff" opacity="1.00" d=" M 128.18 126.03 C 141.66 134.38 155.64 141.90 169.30 149.94 C 155.86 157.96 142.18 165.60 128.67 173.52 C 127.95 169.39 128.05 165.18 128.11 161.00 C 128.17 149.34 128.04 137.69 128.18 126.03 Z" />
<path fill="#ffffff" opacity="1.00" d=" M 106.44 191.43 C 128.82 178.48 151.30 165.68 173.58 152.54 C 180.53 156.38 187.43 160.33 194.27 164.38 C 171.55 177.54 148.88 190.78 126.04 203.72 C 119.44 200.11 112.95 196.30 106.42 192.58 C 106.42 192.29 106.43 191.72 106.44 191.43 Z" />
<path fill="#ffffff" opacity="1.00" d=" M 198.66 167.02 C 206.43 162.86 214.05 158.41 221.65 153.95 C 221.57 161.79 221.67 169.64 221.47 177.48 C 194.50 193.23 167.38 208.72 140.35 224.38 C 136.34 226.68 132.43 229.14 128.26 231.15 C 128.27 223.28 128.02 215.40 128.44 207.55 C 151.85 194.05 175.26 180.54 198.66 167.02 Z" />
</g>
<g id="#70d462ff">
<path fill="#70d462" opacity="1.00" d=" M 101.01 76.62 C 109.33 71.91 117.39 66.71 126.01 62.57 C 127.48 63.21 128.96 63.85 130.36 64.64 C 159.90 81.77 189.56 98.70 219.08 115.87 C 221.80 117.74 226.67 118.76 226.16 122.96 C 226.29 132.29 226.45 141.63 226.19 150.95 C 224.68 151.96 223.18 152.98 221.65 153.95 C 214.05 158.41 206.43 162.86 198.66 167.02 C 197.20 166.12 195.73 165.25 194.27 164.38 C 187.43 160.33 180.53 156.38 173.58 152.54 C 172.14 151.68 170.73 150.79 169.30 149.94 C 155.64 141.90 141.66 134.38 128.18 126.03 C 128.21 124.60 128.22 123.17 128.22 121.74 C 134.88 124.39 140.72 128.60 147.00 131.99 C 159.50 139.14 171.97 146.34 184.46 153.51 C 188.45 155.76 192.21 158.48 196.56 160.02 C 196.74 152.45 196.69 144.88 196.56 137.31 C 192.48 133.86 187.45 131.87 182.98 129.02 C 164.69 118.56 146.60 107.74 128.08 97.69 C 128.00 95.81 127.87 93.93 127.79 92.06 C 148.42 103.75 168.89 115.72 189.45 127.54 C 192.54 129.38 195.57 131.38 198.94 132.71 C 205.81 129.22 212.54 125.40 218.98 121.16 C 194.90 106.70 170.32 93.08 146.09 78.87 C 139.33 75.23 132.98 70.82 126.00 67.59 C 123.23 68.86 120.57 70.35 117.97 71.95 C 114.08 74.35 109.61 76.02 106.54 79.55 C 104.72 78.53 102.85 77.59 101.01 76.62 Z" />
</g>
<g id="#2570d5ff">
<path fill="#2570d5" opacity="1.00" d=" M 91.05 82.06 C 94.32 80.16 97.46 77.99 101.01 76.62 C 102.85 77.59 104.72 78.53 106.54 79.55 C 113.59 83.77 120.79 87.74 127.79 92.06 C 127.87 93.93 128.00 95.81 128.08 97.69 C 128.23 105.70 128.01 113.72 128.22 121.74 C 128.22 123.17 128.21 124.60 128.18 126.03 C 128.04 137.69 128.17 149.34 128.11 161.00 C 128.05 165.18 127.95 169.39 128.67 173.52 C 127.09 174.41 125.49 175.26 123.92 176.17 C 123.37 149.88 123.77 123.57 123.72 97.27 C 116.89 101.24 109.97 105.06 103.31 109.30 C 103.04 135.56 103.24 161.84 103.22 188.11 C 101.74 188.85 100.24 189.54 98.75 190.23 C 98.52 163.28 98.90 136.32 98.56 109.37 C 91.96 105.03 84.95 101.35 78.22 97.24 C 78.25 133.09 78.12 168.94 78.28 204.79 C 84.71 209.46 92.02 212.74 98.65 217.10 C 98.67 218.73 98.69 220.36 98.70 221.99 C 91.59 218.35 84.92 213.93 77.91 210.11 C 76.51 209.16 74.66 208.52 73.86 206.93 C 73.45 203.64 73.70 200.31 73.66 197.00 C 73.67 166.00 73.66 135.00 73.66 104.00 C 73.72 100.06 73.38 96.10 73.99 92.18 C 79.49 88.52 85.40 85.49 91.05 82.06 Z" />
</g>
<g id="#202545ff">
<path fill="#202545" opacity="1.00" d=" M 128.67 173.52 C 142.18 165.60 155.86 157.96 169.30 149.94 C 170.73 150.79 172.14 151.68 173.58 152.54 C 151.30 165.68 128.82 178.48 106.44 191.43 C 106.43 191.72 106.42 192.29 106.42 192.58 C 112.95 196.30 119.44 200.11 126.04 203.72 C 148.88 190.78 171.55 177.54 194.27 164.38 C 195.73 165.25 197.20 166.12 198.66 167.02 C 175.26 180.54 151.85 194.05 128.44 207.55 C 128.02 215.40 128.27 223.28 128.26 231.15 C 132.43 229.14 136.34 226.68 140.35 224.38 C 167.38 208.72 194.50 193.23 221.47 177.48 C 221.67 169.64 221.57 161.79 221.65 153.95 C 223.18 152.98 224.68 151.96 226.19 150.95 C 226.36 160.59 225.67 170.20 225.83 179.84 C 222.95 182.06 219.66 183.64 216.55 185.50 C 189.93 200.90 163.26 216.21 136.65 231.62 C 133.10 233.62 129.68 235.83 126.00 237.57 C 116.74 232.68 107.65 227.42 98.70 221.99 C 98.69 220.36 98.67 218.73 98.65 217.10 C 98.64 208.14 98.66 199.19 98.75 190.23 C 100.24 189.54 101.74 188.85 103.22 188.11 C 110.22 184.30 117.07 180.24 123.92 176.17 C 125.49 175.26 127.09 174.41 128.67 173.52 Z" />
</g>
</svg>
