<?xml version="1.0" encoding="UTF-8" ?>
<!DOCTYPE svg PUBLIC "-//W3C//DTD SVG 1.1//EN" "http://www.w3.org/Graphics/SVG/1.1/DTD/svg11.dtd">
<svg width="300pt" height="300pt" viewBox="0 0 300 300" version="1.1" xmlns="http://www.w3.org/2000/svg">
<g id="#4360dfff">
<path fill="#4360df" opacity="1.00" d=" M 80.60 0.00 L 220.38 0.00 C 230.59 0.40 240.93 0.55 250.86 3.26 C 269.23 7.65 284.90 21.15 292.90 38.13 C 298.20 49.56 299.30 62.28 300.00 74.69 L 300.00 222.37 C 299.55 232.54 299.31 242.86 296.49 252.72 C 292.28 269.54 280.43 284.02 265.28 292.26 C 257.26 296.59 248.27 298.72 239.31 300.00 L 59.80 300.00 C 51.42 298.48 42.96 296.63 35.38 292.61 C 19.91 284.44 7.78 269.78 3.51 252.72 C 0.69 242.86 0.45 232.55 0.00 222.38 L 0.00 74.71 C 0.67 63.23 1.60 51.56 5.95 40.78 C 13.17 22.88 29.00 8.54 47.73 3.62 C 58.39 0.49 69.58 0.38 80.60 0.00 M 130.92 92.90 C 117.28 105.86 108.37 123.75 106.41 142.48 C 120.21 140.50 134.24 141.18 147.99 143.10 C 162.27 144.97 176.80 146.63 191.14 144.46 C 200.59 143.06 210.15 139.86 217.32 133.33 C 228.83 122.99 230.18 105.09 224.50 91.41 C 220.70 82.27 212.17 75.80 202.81 73.14 C 177.60 66.36 149.53 74.97 130.92 92.90 M 108.89 155.66 C 99.70 157.07 90.39 160.04 83.31 166.28 C 71.87 175.90 69.97 192.88 74.58 206.39 C 77.31 214.47 83.55 221.18 91.28 224.73 C 100.51 229.02 111.00 229.88 121.04 229.04 C 138.70 227.52 155.78 219.88 168.63 207.65 C 182.51 194.65 191.65 176.58 193.56 157.63 C 180.10 159.65 166.38 158.97 152.93 157.16 C 138.37 155.25 123.53 153.47 108.89 155.66 Z" />
</g>
<g id="#ffffffff">
<path fill="#ffffff" opacity="1.00" d=" M 130.92 92.90 C 149.53 74.97 177.60 66.36 202.81 73.14 C 212.17 75.80 220.70 82.27 224.50 91.41 C 230.18 105.09 228.83 122.99 217.32 133.33 C 210.15 139.86 200.59 143.06 191.14 144.46 C 176.80 146.63 162.27 144.97 147.99 143.10 C 134.24 141.18 120.21 140.50 106.41 142.48 C 108.37 123.75 117.28 105.86 130.92 92.90 Z" />
<path fill="#ffffff" opacity="1.00" d=" M 108.89 155.66 C 123.53 153.47 138.37 155.25 152.93 157.16 C 166.38 158.97 180.10 159.65 193.56 157.63 C 191.65 176.58 182.51 194.65 168.63 207.65 C 155.78 219.88 138.70 227.52 121.04 229.04 C 111.00 229.88 100.51 229.02 91.28 224.73 C 83.55 221.18 77.31 214.47 74.58 206.39 C 69.97 192.88 71.87 175.90 83.31 166.28 C 90.39 160.04 99.70 157.07 108.89 155.66 Z" />
</g>
</svg>
