<?xml version="1.0" encoding="UTF-8" ?>
<!DOCTYPE svg PUBLIC "-//W3C//DTD SVG 1.1//EN" "http://www.w3.org/Graphics/SVG/1.1/DTD/svg11.dtd">
<svg width="300pt" height="300pt" viewBox="0 0 300 300" version="1.1" xmlns="http://www.w3.org/2000/svg">
<g id="#ffffffff">
<path fill="#ffffff" opacity="1.00" d=" M 0.00 0.00 L 300.00 0.00 L 300.00 300.00 L 0.00 300.00 L 0.00 0.00 M 132.44 30.72 C 112.38 33.70 93.02 41.58 76.84 53.86 C 53.74 71.08 37.23 96.89 31.27 125.08 C 26.05 149.07 28.47 174.59 37.89 197.25 C 46.06 216.73 59.40 233.99 76.22 246.79 C 96.90 262.64 122.90 271.66 149.00 271.46 C 181.39 271.99 213.58 258.30 236.10 235.10 C 255.05 215.81 267.17 189.97 269.87 163.06 C 271.96 142.50 268.91 121.35 260.54 102.42 C 249.14 75.85 227.78 53.70 201.64 41.35 C 180.29 31.05 155.89 27.48 132.44 30.72 Z" />
<path fill="#ffffff" opacity="1.00" d=" M 138.73 112.06 C 155.09 95.61 171.41 79.12 187.98 62.89 C 192.89 67.82 198.16 72.43 202.55 77.84 C 191.20 89.31 179.62 100.56 168.37 112.14 C 179.36 124.13 191.53 135.00 202.56 146.95 C 197.87 151.95 192.96 156.73 188.01 161.47 C 175.08 149.26 162.81 136.35 150.11 123.89 C 146.32 119.94 142.17 116.33 138.73 112.06 Z" />
<path fill="#ffffff" opacity="1.00" d=" M 117.63 133.16 C 122.40 128.25 127.22 123.38 132.15 118.63 C 144.59 130.24 156.27 142.66 168.43 154.57 C 172.79 159.01 177.38 163.24 181.53 167.89 C 176.83 172.94 171.93 177.80 166.89 182.51 C 151.70 167.91 137.08 152.72 122.05 137.95 C 120.49 136.43 119.06 134.79 117.63 133.16 Z" />
<path fill="#ffffff" opacity="1.00" d=" M 96.55 154.15 C 101.29 149.22 106.20 144.47 111.04 139.65 C 115.62 143.50 119.57 147.99 123.88 152.11 C 136.02 164.47 148.57 176.44 160.50 189.00 C 145.23 204.57 129.62 219.79 114.34 235.34 C 113.29 236.33 112.17 237.26 111.06 238.19 C 106.66 233.84 102.22 229.51 97.93 225.05 C 96.81 224.21 96.81 222.77 97.96 221.97 C 108.83 210.85 120.03 200.04 130.87 188.89 C 119.60 177.14 107.67 166.03 96.55 154.15 Z" />
</g>
<g id="#0e9ec9ff">
<path fill="#0e9ec9" opacity="1.00" d=" M 132.44 30.72 C 155.89 27.48 180.29 31.05 201.64 41.35 C 227.78 53.70 249.14 75.85 260.54 102.42 C 268.91 121.35 271.96 142.50 269.87 163.06 C 267.17 189.97 255.05 215.81 236.10 235.10 C 213.58 258.30 181.39 271.99 149.00 271.46 C 122.90 271.66 96.90 262.64 76.22 246.79 C 59.40 233.99 46.06 216.73 37.89 197.25 C 28.47 174.59 26.05 149.07 31.27 125.08 C 37.23 96.89 53.74 71.08 76.84 53.86 C 93.02 41.58 112.38 33.70 132.44 30.72 M 138.73 112.06 C 142.17 116.33 146.32 119.94 150.11 123.89 C 162.81 136.35 175.08 149.26 188.01 161.47 C 192.96 156.73 197.87 151.95 202.56 146.95 C 191.53 135.00 179.36 124.13 168.37 112.14 C 179.62 100.56 191.20 89.31 202.55 77.84 C 198.16 72.43 192.89 67.82 187.98 62.89 C 171.41 79.12 155.09 95.61 138.73 112.06 M 117.63 133.16 C 119.06 134.79 120.49 136.43 122.05 137.95 C 137.08 152.72 151.70 167.91 166.89 182.51 C 171.93 177.80 176.83 172.94 181.53 167.89 C 177.38 163.24 172.79 159.01 168.43 154.57 C 156.27 142.66 144.59 130.24 132.15 118.63 C 127.22 123.38 122.40 128.25 117.63 133.16 M 96.55 154.15 C 107.67 166.03 119.60 177.14 130.87 188.89 C 120.03 200.04 108.83 210.85 97.96 221.97 C 96.81 222.77 96.81 224.21 97.93 225.05 C 102.22 229.51 106.66 233.84 111.06 238.19 C 112.17 237.26 113.29 236.33 114.34 235.34 C 129.62 219.79 145.23 204.57 160.50 189.00 C 148.57 176.44 136.02 164.47 123.88 152.11 C 119.57 147.99 115.62 143.50 111.04 139.65 C 106.20 144.47 101.29 149.22 96.55 154.15 Z" />
</g>
</svg>
