<?xml version="1.0" encoding="UTF-8" ?>
<!DOCTYPE svg PUBLIC "-//W3C//DTD SVG 1.1//EN" "http://www.w3.org/Graphics/SVG/1.1/DTD/svg11.dtd">
<svg width="300pt" height="300pt" viewBox="0 0 300 300" version="1.1" xmlns="http://www.w3.org/2000/svg">
<g id="#fefffeff">
<path fill="#fefffe" opacity="1.00" d=" M 0.00 0.00 L 129.74 0.00 C 105.28 3.78 81.47 12.69 61.45 27.40 C 36.03 45.65 16.61 72.06 6.70 101.74 C 3.55 111.15 1.51 120.90 0.00 130.69 L 0.00 0.00 Z" />
<path fill="#fefffe" opacity="1.00" d=" M 167.33 0.00 L 300.00 0.00 L 300.00 142.63 C 299.30 132.79 298.04 122.96 295.64 113.39 C 288.26 82.98 270.95 55.13 247.09 34.91 C 224.72 15.73 196.60 3.44 167.33 0.00 Z" />
<path fill="#fefffe" opacity="1.00" d=" M 175.41 62.96 C 175.23 57.11 180.37 52.31 186.00 51.77 C 192.67 50.58 200.01 55.95 199.76 62.97 C 199.84 100.66 199.82 138.36 199.77 176.05 C 199.62 196.76 188.99 217.11 171.99 228.96 C 147.54 246.39 111.12 244.41 88.88 224.14 C 74.82 211.63 66.97 192.76 67.28 174.01 C 66.88 155.86 73.53 137.36 86.47 124.46 C 97.46 113.15 113.25 106.81 129.00 107.21 C 141.89 106.89 154.70 111.33 164.98 119.04 C 168.69 121.80 171.82 125.22 175.23 128.33 C 175.54 106.54 175.13 84.75 175.41 62.96 M 125.40 129.53 C 111.27 132.07 99.14 142.65 94.03 155.97 C 90.14 165.92 89.89 177.10 92.58 187.39 C 95.41 198.02 102.38 207.50 111.73 213.29 C 122.07 219.29 134.93 220.80 146.37 217.30 C 157.13 214.17 166.13 206.09 171.18 196.18 C 180.42 178.13 177.51 153.67 162.15 139.83 C 152.49 130.76 138.35 126.91 125.40 129.53 Z" />
<path fill="#fefffe" opacity="1.00" d=" M 288.77 206.73 C 295.32 191.07 298.70 174.25 300.00 157.36 L 300.00 300.00 L 157.34 300.00 C 182.67 298.33 207.71 290.83 229.22 277.22 C 255.76 260.67 276.90 235.67 288.77 206.73 Z" />
<path fill="#fefffe" opacity="1.00" d=" M 0.00 168.28 C 1.46 177.83 3.45 187.32 6.46 196.52 C 16.32 226.74 36.14 253.57 62.03 272.02 C 85.45 288.91 113.82 298.49 142.62 300.00 L 0.00 300.00 L 0.00 168.28 Z" />
</g>
<g id="#2c9cdbff">
<path fill="#2c9cdb" opacity="1.00" d=" M 129.74 0.00 L 167.33 0.00 C 196.60 3.44 224.72 15.73 247.09 34.91 C 270.95 55.13 288.26 82.98 295.64 113.39 C 298.04 122.96 299.30 132.79 300.00 142.63 L 300.00 157.36 C 298.70 174.25 295.32 191.07 288.77 206.73 C 276.90 235.67 255.76 260.67 229.22 277.22 C 207.71 290.83 182.67 298.33 157.34 300.00 L 142.62 300.00 C 113.82 298.49 85.45 288.91 62.03 272.02 C 36.14 253.57 16.32 226.74 6.46 196.52 C 3.45 187.32 1.46 177.83 0.00 168.28 L 0.00 130.69 C 1.51 120.90 3.55 111.15 6.70 101.74 C 16.61 72.06 36.03 45.65 61.45 27.40 C 81.47 12.69 105.28 3.78 129.74 0.00 M 175.41 62.96 C 175.13 84.75 175.54 106.54 175.23 128.33 C 171.82 125.22 168.69 121.80 164.98 119.04 C 154.70 111.33 141.89 106.89 129.00 107.21 C 113.25 106.81 97.46 113.15 86.47 124.46 C 73.53 137.36 66.88 155.86 67.28 174.01 C 66.97 192.76 74.82 211.63 88.88 224.14 C 111.12 244.41 147.54 246.39 171.99 228.96 C 188.99 217.11 199.62 196.76 199.77 176.05 C 199.82 138.36 199.84 100.66 199.76 62.97 C 200.01 55.95 192.67 50.58 186.00 51.77 C 180.37 52.31 175.23 57.11 175.41 62.96 Z" />
<path fill="#2c9cdb" opacity="1.00" d=" M 125.40 129.53 C 138.35 126.91 152.49 130.76 162.15 139.83 C 177.51 153.67 180.42 178.13 171.18 196.18 C 166.13 206.09 157.13 214.17 146.37 217.30 C 134.93 220.80 122.07 219.29 111.73 213.29 C 102.38 207.50 95.41 198.02 92.58 187.39 C 89.89 177.10 90.14 165.92 94.03 155.97 C 99.14 142.65 111.27 132.07 125.40 129.53 Z" />
</g>
</svg>
