<?xml version="1.0" encoding="UTF-8" ?>
<!DOCTYPE svg PUBLIC "-//W3C//DTD SVG 1.1//EN" "http://www.w3.org/Graphics/SVG/1.1/DTD/svg11.dtd">
<svg width="480pt" height="480pt" viewBox="0 0 480 480" version="1.1" xmlns="http://www.w3.org/2000/svg">
<g id="#ffffffff">
<path fill="#ffffff" opacity="1.00" d=" M 0.00 0.00 L 0.26 0.00 C 0.19 0.06 0.06 0.19 0.00 0.26 L 0.00 0.00 Z" />
<path fill="#ffffff" opacity="1.00" d=" M 220.80 146.29 C 223.83 144.86 226.95 143.54 230.23 142.83 C 234.12 143.23 237.94 144.24 241.84 144.70 C 247.82 145.42 252.34 149.74 256.70 153.50 C 256.75 154.67 256.85 155.84 257.01 157.00 C 255.73 157.80 254.47 158.62 253.22 159.47 C 252.26 157.15 250.90 154.96 248.67 153.68 C 245.63 151.68 242.52 148.93 238.63 149.33 C 234.63 149.18 231.37 152.02 228.46 154.41 C 224.90 157.37 224.37 162.26 223.42 166.50 C 221.90 166.87 220.23 167.99 218.71 167.03 C 215.64 165.29 211.14 163.23 211.67 158.98 C 211.18 153.03 216.46 149.23 220.80 146.29 Z" />
<path fill="#ffffff" opacity="1.00" d=" M 93.60 199.88 C 98.47 197.42 103.98 195.00 109.54 196.19 C 112.74 196.78 116.70 197.61 117.56 201.30 C 114.03 201.52 110.12 200.67 106.99 202.73 C 104.88 204.01 102.79 205.57 101.53 207.73 C 101.15 212.97 100.70 218.83 104.22 223.20 C 104.45 223.52 104.91 224.16 105.14 224.47 C 103.53 223.35 101.85 222.33 100.13 221.39 C 97.82 223.12 95.75 225.32 93.08 226.48 C 89.77 225.09 87.25 221.82 87.26 218.13 C 86.03 214.08 88.53 210.36 90.29 206.90 C 89.79 205.54 89.30 204.18 88.78 202.83 C 90.39 201.85 91.95 200.80 93.60 199.88 Z" />
</g>
<g id="#f8bb00ff">
<path fill="#f8bb00" opacity="1.00" d=" M 0.26 0.00 L 480.00 0.00 L 480.00 480.00 L 409.54 480.00 C 408.38 476.16 406.96 472.24 407.19 468.17 C 407.39 463.94 408.28 459.67 407.44 455.45 C 406.61 451.32 404.38 447.69 402.74 443.86 C 399.93 437.77 403.11 431.28 402.48 424.99 C 401.24 419.54 397.96 414.81 394.41 410.60 C 391.07 406.91 391.38 401.61 390.87 396.99 C 391.05 391.94 393.29 387.13 392.88 382.05 C 392.22 378.57 389.47 376.03 387.89 372.97 C 386.56 371.24 388.21 369.24 388.74 367.52 C 389.83 365.35 390.87 362.90 389.61 360.56 C 387.61 355.84 387.25 350.74 386.73 345.71 C 388.74 345.54 390.76 345.41 392.78 345.32 C 392.95 347.64 393.15 349.96 393.36 352.29 C 396.76 351.55 401.66 350.18 401.67 345.90 C 401.88 340.43 404.33 335.47 405.25 330.14 C 406.12 324.98 409.72 320.42 409.00 314.99 C 408.91 310.01 404.39 307.01 401.30 303.72 C 399.43 300.35 398.36 296.56 398.16 292.72 C 397.83 289.34 397.53 285.96 397.04 282.61 C 399.93 280.57 403.19 279.11 406.03 277.01 C 406.94 275.56 406.57 273.68 406.80 272.05 C 406.83 266.91 407.94 261.89 409.17 256.93 C 410.46 253.80 412.28 250.87 413.08 247.56 C 413.27 244.28 412.21 241.08 411.98 237.82 C 413.44 232.07 414.22 225.95 412.85 220.11 C 411.52 215.67 409.66 211.38 409.02 206.76 C 411.49 205.50 416.33 204.89 415.60 201.09 C 414.23 193.13 413.48 185.05 410.95 177.33 C 410.15 175.09 409.38 172.82 408.17 170.77 C 404.93 168.70 399.66 169.86 397.84 165.84 C 397.34 163.16 397.49 160.42 397.39 157.72 C 394.47 155.49 391.33 153.47 388.85 150.73 C 388.66 143.37 389.06 135.93 387.44 128.66 C 385.40 128.33 383.36 127.98 381.33 127.61 C 380.84 125.06 380.74 122.40 379.89 119.94 C 378.71 117.87 376.25 117.08 374.35 115.85 C 374.49 113.18 374.57 110.52 374.57 107.85 C 372.31 107.41 369.95 107.23 367.84 106.25 C 365.46 103.53 363.75 100.30 361.41 97.54 C 357.11 91.75 350.51 88.51 344.89 84.23 C 340.67 81.89 336.59 79.09 333.91 74.97 C 331.50 72.04 331.20 68.17 329.97 64.73 C 328.73 61.56 325.43 60.11 323.06 57.94 C 321.79 56.31 321.05 54.34 320.10 52.52 C 314.88 52.47 309.09 54.93 304.35 51.80 C 301.75 50.40 299.87 48.04 298.54 45.47 C 295.93 40.20 291.04 36.57 288.38 31.33 C 282.30 30.96 276.20 31.30 270.12 31.09 C 266.92 29.09 264.38 25.98 260.62 24.99 C 254.68 22.63 248.22 23.39 242.00 23.38 C 234.84 23.75 228.11 20.51 220.92 21.10 C 220.75 19.47 220.60 17.84 220.44 16.22 C 215.79 16.33 211.06 15.66 206.45 16.44 C 204.25 17.93 202.57 20.32 199.85 20.91 C 196.64 21.67 193.57 23.05 190.28 23.43 C 178.06 23.66 165.79 22.63 153.62 24.09 C 150.08 23.96 146.59 23.03 143.03 23.37 C 140.24 23.42 138.31 25.78 135.98 26.98 C 132.92 28.99 129.07 27.94 125.70 28.82 C 119.85 32.41 114.20 36.47 109.47 41.48 C 107.01 44.35 105.13 47.71 102.20 50.18 C 98.05 53.41 99.03 59.70 95.20 63.16 C 91.17 66.00 86.16 67.84 83.16 71.91 C 81.36 76.20 78.81 80.25 78.03 84.90 C 77.71 87.47 75.66 89.20 74.44 91.33 C 73.06 93.72 72.17 96.37 71.65 99.07 C 71.29 104.15 70.44 109.15 69.45 114.14 C 69.69 121.97 68.33 129.68 67.56 137.44 C 65.24 140.96 65.07 145.19 64.36 149.21 C 63.64 154.34 58.78 157.51 57.63 162.48 C 56.91 165.61 58.65 168.59 58.60 171.69 C 58.02 175.01 56.28 178.00 55.55 181.28 C 55.20 184.88 58.06 188.20 57.20 191.80 C 55.28 195.23 52.08 198.00 51.28 202.01 C 50.34 206.45 48.33 210.62 47.63 215.11 C 47.95 216.95 48.85 218.63 49.55 220.36 C 51.13 227.52 49.81 234.82 49.34 242.02 C 49.08 244.63 51.38 246.38 52.84 248.22 C 52.63 257.35 56.00 265.98 57.39 274.89 C 57.55 278.83 61.93 279.91 64.72 281.61 C 70.02 283.84 72.52 289.35 76.99 292.63 C 78.53 293.93 80.02 295.29 81.41 296.75 C 84.23 303.20 87.07 309.64 89.93 316.06 C 92.10 324.10 95.57 331.73 97.23 339.91 C 97.85 343.15 99.35 346.13 101.22 348.82 C 103.34 351.88 104.38 355.51 106.32 358.67 C 114.59 370.67 118.76 385.32 129.01 395.98 C 131.78 399.23 134.01 402.92 137.07 405.92 C 141.45 410.23 145.70 414.70 149.46 419.56 C 152.70 423.72 153.08 429.42 156.64 433.38 C 159.20 436.21 161.68 439.13 163.64 442.42 C 166.17 446.75 170.42 449.58 173.57 453.39 C 179.86 460.77 182.55 470.53 183.52 480.00 L 0.00 480.00 L 0.00 0.26 C 0.06 0.19 0.19 0.06 0.26 0.00 Z" />
</g>
<g id="#231c0fff">
<path fill="#231c0f" opacity="1.00" d=" M 199.85 20.91 C 202.57 20.32 204.25 17.93 206.45 16.44 C 211.06 15.66 215.79 16.33 220.44 16.22 C 220.60 17.84 220.75 19.47 220.92 21.10 C 228.11 20.51 234.84 23.75 242.00 23.38 C 248.22 23.39 254.68 22.63 260.62 24.99 C 264.38 25.98 266.92 29.09 270.12 31.09 C 274.75 32.94 280.01 31.03 284.53 33.28 C 289.80 35.76 294.73 39.53 297.30 44.88 C 299.39 49.32 303.25 53.21 308.18 54.21 C 312.21 54.41 316.19 53.37 320.10 52.52 C 321.05 54.34 321.79 56.31 323.06 57.94 C 325.43 60.11 328.73 61.56 329.97 64.73 C 331.20 68.17 331.50 72.04 333.91 74.97 C 336.59 79.09 340.67 81.89 344.89 84.23 C 350.51 88.51 357.11 91.75 361.41 97.54 C 363.75 100.30 365.46 103.53 367.84 106.25 C 369.95 107.23 372.31 107.41 374.57 107.85 C 374.57 110.52 374.49 113.18 374.35 115.85 C 376.25 117.08 378.71 117.87 379.89 119.94 C 380.74 122.40 380.84 125.06 381.33 127.61 C 383.36 127.98 385.40 128.33 387.44 128.66 C 389.06 135.93 388.66 143.37 388.85 150.73 C 391.33 153.47 394.47 155.49 397.39 157.72 C 397.49 160.42 397.34 163.16 397.84 165.84 C 399.66 169.86 404.93 168.70 408.17 170.77 C 409.38 172.82 410.15 175.09 410.95 177.33 C 409.63 177.47 408.32 177.59 407.01 177.72 C 410.29 183.95 414.78 190.45 413.51 197.87 C 411.53 200.46 408.23 201.75 405.62 203.66 C 407.42 207.33 409.55 210.98 410.21 215.08 C 410.58 217.85 407.72 220.35 405.06 220.02 C 402.38 219.19 399.93 217.55 397.05 217.45 C 393.24 217.00 389.17 217.28 385.66 215.50 C 383.95 213.86 383.45 211.37 382.50 209.26 C 381.83 210.37 381.17 211.49 380.51 212.61 C 377.97 213.23 375.44 213.84 372.91 214.46 C 372.92 216.39 372.93 218.32 372.98 220.26 C 372.08 220.28 370.28 220.32 369.37 220.34 C 369.84 216.55 370.74 212.83 372.05 209.24 C 370.33 210.48 368.59 211.70 366.85 212.92 C 366.61 215.29 366.34 217.67 365.95 220.02 C 363.08 218.49 362.85 215.09 362.08 212.28 C 359.75 214.08 357.36 215.79 354.94 217.46 C 354.03 216.42 353.14 215.38 352.25 214.34 C 352.16 216.59 352.54 219.05 351.36 221.09 C 347.96 222.88 343.27 223.71 340.07 221.06 C 338.12 219.58 337.82 216.95 336.97 214.81 C 335.82 214.60 334.68 214.40 333.54 214.20 C 332.18 211.43 330.57 208.79 328.89 206.20 C 327.01 201.93 325.16 197.64 323.16 193.43 C 323.94 185.72 320.58 178.07 315.81 172.17 C 313.56 169.44 313.00 165.32 309.76 163.50 C 303.78 160.25 300.54 153.83 298.00 147.80 C 296.95 145.12 294.25 143.66 292.78 141.27 C 288.86 133.98 281.58 129.44 274.70 125.29 C 272.34 124.13 271.92 121.34 271.00 119.15 C 268.05 118.72 265.08 118.06 262.08 118.27 C 259.42 118.77 257.02 120.15 254.54 121.18 C 254.04 119.80 253.53 118.42 253.03 117.05 C 251.04 118.58 249.20 120.45 246.84 121.40 C 242.36 121.83 237.96 120.36 233.48 120.42 C 228.30 120.14 223.72 123.20 218.59 123.33 C 212.30 123.51 206.11 124.66 199.90 125.54 C 197.75 125.80 195.71 126.55 193.74 127.41 C 192.88 126.69 192.03 125.97 191.19 125.25 C 190.33 126.55 189.47 127.85 188.62 129.15 C 187.34 128.50 185.82 128.19 184.83 127.10 C 184.04 125.23 183.82 123.19 183.46 121.21 C 186.13 120.77 189.06 120.89 191.38 119.30 C 195.11 116.78 199.39 115.30 203.46 113.43 C 206.73 111.99 210.43 112.12 213.73 110.77 C 218.81 108.74 224.07 106.93 229.55 106.39 C 231.56 106.14 233.08 107.77 234.71 108.67 C 234.53 107.51 234.37 106.34 234.20 105.18 C 236.29 105.36 238.73 104.92 240.40 106.51 C 243.50 109.52 248.14 109.61 251.45 112.34 C 253.53 114.21 256.27 113.06 258.68 112.70 C 261.22 112.10 263.78 112.79 266.27 113.30 C 265.18 109.04 263.32 104.98 260.35 101.70 C 255.12 95.73 251.62 88.52 246.44 82.52 C 242.76 78.24 240.78 72.88 237.74 68.20 C 235.24 64.24 230.18 63.29 227.13 59.91 C 224.82 57.61 223.18 54.44 220.04 53.14 C 211.23 49.65 201.75 47.93 192.26 48.16 C 193.29 50.26 194.29 52.38 195.24 54.52 C 192.74 54.11 189.99 53.87 188.12 51.94 C 185.35 49.83 182.95 46.12 179.01 46.63 C 167.09 47.72 154.98 51.08 145.32 58.39 C 139.71 62.67 132.31 64.17 127.55 69.64 C 124.52 73.01 120.66 77.60 122.57 82.42 C 123.08 84.21 123.64 85.99 124.16 87.79 C 121.83 86.30 119.73 84.49 117.96 82.37 C 116.50 86.36 115.64 90.70 113.17 94.22 C 110.75 94.84 108.23 94.64 105.75 94.70 C 103.99 97.26 102.52 100.19 99.91 102.00 C 96.23 103.07 91.58 102.54 89.03 106.01 C 87.21 108.89 86.51 112.30 85.31 115.46 C 84.12 115.22 82.93 114.98 81.74 114.74 C 81.93 118.49 81.40 122.23 79.79 125.65 C 77.72 130.18 79.08 135.42 76.97 139.94 C 74.70 144.98 74.93 150.60 73.71 155.89 C 73.04 159.02 72.30 162.20 72.60 165.43 C 72.76 168.39 73.80 171.33 73.31 174.31 C 72.13 178.78 68.95 182.47 67.96 187.01 C 66.97 192.51 68.11 198.19 66.84 203.66 C 66.21 206.26 64.13 208.14 63.04 210.53 C 63.26 214.24 63.94 218.00 62.88 221.67 C 64.56 223.35 67.17 224.56 67.74 227.02 C 67.05 229.06 65.25 230.86 63.06 231.13 C 59.06 231.01 56.77 227.37 53.80 225.25 C 51.98 224.01 50.42 222.41 49.55 220.36 C 48.85 218.63 47.95 216.95 47.63 215.11 C 48.33 210.62 50.34 206.45 51.28 202.01 C 52.08 198.00 55.28 195.23 57.20 191.80 C 58.06 188.20 55.20 184.88 55.55 181.28 C 56.28 178.00 58.02 175.01 58.60 171.69 C 58.65 168.59 56.91 165.61 57.63 162.48 C 58.78 157.51 63.64 154.34 64.36 149.21 C 65.07 145.19 65.24 140.96 67.56 137.44 C 70.20 131.57 70.21 124.87 73.04 119.05 C 73.86 116.90 75.72 114.37 73.84 112.24 C 70.91 108.43 71.45 103.56 71.65 99.07 C 72.17 96.37 73.06 93.72 74.44 91.33 C 75.66 89.20 77.71 87.47 78.03 84.90 C 78.81 80.25 81.36 76.20 83.16 71.91 C 86.16 67.84 91.17 66.00 95.20 63.16 C 99.03 59.70 98.05 53.41 102.20 50.18 C 105.13 47.71 107.01 44.35 109.47 41.48 C 114.20 36.47 119.85 32.41 125.70 28.82 C 129.07 27.94 132.92 28.99 135.98 26.98 C 138.31 25.78 140.24 23.42 143.03 23.37 C 146.59 23.03 150.08 23.96 153.62 24.09 C 165.79 22.63 178.06 23.66 190.28 23.43 C 193.57 23.05 196.64 21.67 199.85 20.91 Z" />
<path fill="#231c0f" opacity="1.00" d=" M 238.63 149.33 C 242.52 148.93 245.63 151.68 248.67 153.68 C 248.33 157.31 249.92 160.65 251.43 163.84 C 249.63 165.81 248.12 168.18 245.80 169.58 C 243.26 170.51 240.36 170.46 238.14 172.18 C 234.98 174.90 230.55 172.54 227.56 170.67 C 226.15 169.31 224.81 167.88 223.42 166.50 C 224.37 162.26 224.90 157.37 228.46 154.41 C 231.37 152.02 234.63 149.18 238.63 149.33 Z" />
<path fill="#231c0f" opacity="1.00" d=" M 106.99 202.73 C 110.12 200.67 114.03 201.52 117.56 201.30 C 120.89 203.98 124.60 206.32 126.98 209.98 C 125.77 213.31 125.81 217.08 124.13 220.21 C 117.94 222.96 110.98 225.10 104.22 223.20 C 100.70 218.83 101.15 212.97 101.53 207.73 C 102.79 205.57 104.88 204.01 106.99 202.73 Z" />
<path fill="#231c0f" opacity="1.00" d=" M 51.77 230.77 C 56.31 232.24 60.80 233.86 65.16 235.81 C 64.81 237.78 64.60 239.81 63.88 241.70 C 62.79 243.74 61.00 245.30 59.92 247.34 C 59.57 248.94 59.66 250.60 59.58 252.23 C 58.43 252.25 57.27 252.27 56.12 252.30 C 55.03 250.93 53.95 249.56 52.84 248.22 C 54.88 242.44 52.94 236.49 51.77 230.77 Z" />
<path fill="#231c0f" opacity="1.00" d=" M 386.06 292.65 C 389.92 291.46 394.51 290.28 398.16 292.72 C 398.36 296.56 399.43 300.35 401.30 303.72 C 400.54 305.83 399.80 307.95 399.11 310.08 C 400.70 310.43 402.30 310.80 403.89 311.18 C 403.09 312.56 402.29 313.93 401.50 315.31 C 403.02 315.88 404.55 316.44 406.09 317.02 C 404.36 319.54 402.32 322.31 403.47 325.54 C 401.98 326.47 400.48 327.37 398.98 328.27 C 399.80 330.39 401.33 332.67 400.34 335.00 C 399.44 336.92 397.35 337.85 395.75 339.09 C 395.76 341.00 395.81 342.91 395.88 344.83 C 395.10 344.95 393.55 345.20 392.78 345.32 C 391.50 343.35 389.46 341.42 389.85 338.86 C 390.21 334.14 391.23 329.50 392.46 324.94 C 392.06 324.39 391.67 323.85 391.28 323.32 C 389.62 325.36 387.55 327.31 384.71 326.46 C 384.55 323.93 384.46 321.24 382.90 319.12 C 380.00 315.03 379.26 310.00 377.41 305.45 C 376.03 302.16 375.68 298.57 375.70 295.03 C 379.22 294.59 382.70 293.84 386.06 292.65 Z" />
</g>
<g id="#a54b39ff">
<path fill="#a54b39" opacity="1.00" d=" M 270.12 31.09 C 276.20 31.30 282.30 30.96 288.38 31.33 C 291.04 36.57 295.93 40.20 298.54 45.47 C 299.87 48.04 301.75 50.40 304.35 51.80 C 309.09 54.93 314.88 52.47 320.10 52.52 C 316.19 53.37 312.21 54.41 308.18 54.21 C 303.25 53.21 299.39 49.32 297.30 44.88 C 294.73 39.53 289.80 35.76 284.53 33.28 C 280.01 31.03 274.75 32.94 270.12 31.09 Z" />
<path fill="#a54b39" opacity="1.00" d=" M 145.32 58.39 C 154.98 51.08 167.09 47.72 179.01 46.63 C 182.95 46.12 185.35 49.83 188.12 51.94 C 189.99 53.87 192.74 54.11 195.24 54.52 C 194.29 52.38 193.29 50.26 192.26 48.16 C 201.75 47.93 211.23 49.65 220.04 53.14 C 223.18 54.44 224.82 57.61 227.13 59.91 C 230.18 63.29 235.24 64.24 237.74 68.20 C 240.78 72.88 242.76 78.24 246.44 82.52 C 251.62 88.52 255.12 95.73 260.35 101.70 C 263.32 104.98 265.18 109.04 266.27 113.30 C 263.78 112.79 261.22 112.10 258.68 112.70 C 256.27 113.06 253.53 114.21 251.45 112.34 C 248.14 109.61 243.50 109.52 240.40 106.51 C 238.73 104.92 236.29 105.36 234.20 105.18 C 234.37 106.34 234.53 107.51 234.71 108.67 C 233.08 107.77 231.56 106.14 229.55 106.39 C 224.07 106.93 218.81 108.74 213.73 110.77 C 210.43 112.12 206.73 111.99 203.46 113.43 C 199.39 115.30 195.11 116.78 191.38 119.30 C 189.06 120.89 186.13 120.77 183.46 121.21 C 183.82 123.19 184.04 125.23 184.83 127.10 C 185.82 128.19 187.34 128.50 188.62 129.15 C 189.47 127.85 190.33 126.55 191.19 125.25 C 192.03 125.97 192.88 126.69 193.74 127.41 C 195.71 126.55 197.75 125.80 199.90 125.54 C 206.11 124.66 212.30 123.51 218.59 123.33 C 223.72 123.20 228.30 120.14 233.48 120.42 C 237.96 120.36 242.36 121.83 246.84 121.40 C 249.20 120.45 251.04 118.58 253.03 117.05 C 253.53 118.42 254.04 119.80 254.54 121.18 C 257.02 120.15 259.42 118.77 262.08 118.27 C 265.08 118.06 268.05 118.72 271.00 119.15 C 271.92 121.34 272.34 124.13 274.70 125.29 C 281.58 129.44 288.86 133.98 292.78 141.27 C 294.25 143.66 296.95 145.12 298.00 147.80 C 300.54 153.83 303.78 160.25 309.76 163.50 C 313.00 165.32 313.56 169.44 315.81 172.17 C 320.58 178.07 323.94 185.72 323.16 193.43 C 318.08 191.84 316.08 186.63 313.49 182.51 C 310.34 177.65 309.96 171.43 306.07 166.99 C 302.72 162.95 299.53 158.80 296.83 154.30 C 294.58 150.33 290.28 148.08 288.14 144.06 C 286.89 141.98 285.81 139.64 283.72 138.26 C 277.27 133.92 270.30 129.47 262.22 129.53 C 262.42 130.63 262.63 131.73 262.84 132.83 C 260.55 130.48 258.19 127.97 254.98 126.91 C 248.48 124.59 241.50 124.38 234.75 123.18 C 231.04 122.49 227.50 124.11 223.91 124.79 C 219.77 125.63 215.35 125.41 211.48 127.32 C 207.44 129.27 203.84 132.11 199.56 133.56 C 196.13 134.82 192.43 134.99 188.96 136.09 C 186.44 136.72 185.81 139.53 184.77 141.55 C 181.23 140.13 177.46 140.51 173.76 140.62 C 171.48 139.40 170.19 136.67 170.45 134.13 C 170.47 125.88 176.28 119.01 182.26 113.97 L 182.96 113.82 C 186.10 113.17 189.33 112.69 192.27 111.32 C 196.09 109.59 199.42 106.76 203.57 105.77 C 207.05 104.98 210.66 105.00 214.14 104.17 C 219.47 103.01 224.41 100.01 230.01 100.16 C 233.71 100.20 237.08 102.65 240.84 101.91 C 245.91 100.25 249.60 105.40 254.58 105.42 C 254.10 100.44 249.86 97.28 247.64 93.09 C 246.02 89.72 242.15 89.07 239.05 87.71 C 236.08 86.59 234.62 83.55 232.48 81.42 C 229.05 77.69 223.88 76.66 219.24 75.24 C 214.75 73.97 211.53 70.27 207.29 68.50 C 205.34 67.52 203.28 68.83 201.36 69.24 C 201.12 68.74 200.88 68.23 200.64 67.73 C 201.48 67.05 202.32 66.36 203.16 65.68 C 197.83 63.53 192.34 61.64 187.44 58.58 C 185.54 57.16 183.12 57.92 180.95 57.85 C 177.68 58.31 176.10 53.18 172.79 54.64 C 168.65 56.10 164.71 58.12 160.44 59.21 C 156.48 60.24 153.08 62.59 149.37 64.23 C 147.19 65.32 144.66 66.13 143.20 68.22 C 140.02 72.82 137.78 78.42 138.84 84.09 C 136.64 86.44 134.96 89.31 132.40 91.29 C 128.82 92.90 124.76 93.20 121.28 95.09 C 117.42 97.14 115.44 101.45 111.65 103.58 C 105.73 106.30 99.17 107.01 93.03 109.03 C 91.71 111.04 91.17 113.42 90.27 115.62 C 88.88 119.43 86.49 122.82 85.44 126.77 C 84.32 130.69 84.33 134.91 82.58 138.64 C 80.99 142.12 78.69 145.39 78.23 149.29 C 77.70 153.63 77.36 158.02 76.12 162.25 C 79.50 161.28 82.91 160.41 86.30 159.48 C 88.12 156.71 90.11 153.65 93.52 152.72 C 97.66 151.50 101.60 149.57 105.78 148.57 C 110.93 149.50 115.23 152.76 119.13 156.06 C 118.80 157.91 119.36 160.32 117.60 161.56 C 114.16 164.16 110.23 166.10 107.25 169.29 C 104.39 172.46 99.96 173.09 96.61 175.54 C 92.26 178.66 86.80 180.10 83.28 184.34 C 77.62 189.00 71.97 194.05 68.78 200.79 C 68.39 201.92 68.54 203.13 68.62 204.29 C 69.33 210.40 70.06 216.63 72.77 222.24 C 74.64 229.16 75.59 236.29 77.59 243.18 C 79.70 251.06 80.51 259.54 78.40 267.51 C 77.47 270.89 77.81 274.50 76.74 277.84 C 73.57 280.84 68.74 280.61 64.72 281.61 C 61.93 279.91 57.55 278.83 57.39 274.89 C 56.00 265.98 52.63 257.35 52.84 248.22 C 53.95 249.56 55.03 250.93 56.12 252.30 C 57.27 252.27 58.43 252.25 59.58 252.23 C 59.66 250.60 59.57 248.94 59.92 247.34 C 61.00 245.30 62.79 243.74 63.88 241.70 C 64.60 239.81 64.81 237.78 65.16 235.81 C 60.80 233.86 56.31 232.24 51.77 230.77 C 52.94 236.49 54.88 242.44 52.84 248.22 C 51.38 246.38 49.08 244.63 49.34 242.02 C 49.81 234.82 51.13 227.52 49.55 220.36 C 50.42 222.41 51.98 224.01 53.80 225.25 C 56.77 227.37 59.06 231.01 63.06 231.13 C 65.25 230.86 67.05 229.06 67.74 227.02 C 67.17 224.56 64.56 223.35 62.88 221.67 C 63.94 218.00 63.26 214.24 63.04 210.53 C 64.13 208.14 66.21 206.26 66.84 203.66 C 68.11 198.19 66.97 192.51 67.96 187.01 C 68.95 182.47 72.13 178.78 73.31 174.31 C 73.80 171.33 72.76 168.39 72.60 165.43 C 72.30 162.20 73.04 159.02 73.71 155.89 C 74.93 150.60 74.70 144.98 76.97 139.94 C 79.08 135.42 77.72 130.18 79.79 125.65 C 81.40 122.23 81.93 118.49 81.74 114.74 C 82.93 114.98 84.12 115.22 85.31 115.46 C 86.51 112.30 87.21 108.89 89.03 106.01 C 91.58 102.54 96.23 103.07 99.91 102.00 C 102.52 100.19 103.99 97.26 105.75 94.70 C 108.23 94.64 110.75 94.84 113.17 94.22 C 115.64 90.70 116.50 86.36 117.96 82.37 C 119.73 84.49 121.83 86.30 124.16 87.79 C 123.64 85.99 123.08 84.21 122.57 82.42 C 120.66 77.60 124.52 73.01 127.55 69.64 C 132.31 64.17 139.71 62.67 145.32 58.39 Z" />
<path fill="#a54b39" opacity="1.00" d=" M 69.45 114.14 C 70.44 109.15 71.29 104.15 71.65 99.07 C 71.45 103.56 70.91 108.43 73.84 112.24 C 75.72 114.37 73.86 116.90 73.04 119.05 C 70.21 124.87 70.20 131.57 67.56 137.44 C 68.33 129.68 69.69 121.97 69.45 114.14 Z" />
<path fill="#a54b39" opacity="1.00" d=" M 228.44 134.62 C 234.19 134.25 240.11 132.33 245.77 134.28 C 250.93 135.93 256.15 138.03 260.15 141.80 C 263.93 145.37 268.55 148.07 271.71 152.27 C 272.73 153.43 272.40 155.05 272.55 156.47 C 269.99 156.51 267.44 156.35 264.91 156.05 C 264.87 157.27 264.83 158.49 264.79 159.71 C 262.54 157.10 259.68 155.17 256.70 153.50 C 252.34 149.74 247.82 145.42 241.84 144.70 C 237.94 144.24 234.12 143.23 230.23 142.83 C 226.95 143.54 223.83 144.86 220.80 146.29 C 219.30 145.68 217.80 145.09 216.30 144.51 C 214.88 144.15 214.53 142.60 213.88 141.50 C 216.86 141.35 219.87 141.48 222.83 141.01 C 225.14 139.31 226.64 136.80 228.44 134.62 Z" />
<path fill="#a54b39" opacity="1.00" d=" M 191.18 162.13 C 196.60 157.99 200.89 152.51 206.69 148.80 C 206.78 152.63 204.98 155.98 201.89 158.18 C 205.32 162.84 205.44 168.61 205.50 174.14 C 204.04 173.08 202.69 171.88 201.40 170.63 C 199.22 172.67 197.36 175.08 194.86 176.76 C 193.42 173.99 191.35 171.62 189.80 168.93 C 189.68 166.63 189.96 164.11 191.18 162.13 Z" />
<path fill="#a54b39" opacity="1.00" d=" M 407.01 177.72 C 408.32 177.59 409.63 177.47 410.95 177.33 C 413.48 185.05 414.23 193.13 415.60 201.09 C 416.33 204.89 411.49 205.50 409.02 206.76 C 409.66 211.38 411.52 215.67 412.85 220.11 C 414.22 225.95 413.44 232.07 411.98 237.82 C 411.57 238.52 411.15 239.22 410.73 239.91 C 406.77 240.53 402.45 240.54 398.92 242.59 C 396.45 245.67 395.38 249.71 392.49 252.48 C 390.92 253.76 388.81 254.00 386.93 254.60 C 380.76 255.94 376.32 260.80 371.65 264.70 C 369.15 263.35 365.55 262.19 365.30 258.86 C 365.08 253.94 369.52 250.53 370.47 245.95 C 370.56 243.01 368.47 240.17 365.76 239.15 C 360.61 239.23 355.46 241.47 350.31 240.13 C 346.93 238.92 345.38 235.39 343.51 232.62 C 341.54 229.32 338.38 226.85 336.89 223.26 C 334.38 217.49 330.80 212.23 328.89 206.20 C 330.57 208.79 332.18 211.43 333.54 214.20 C 334.68 214.40 335.82 214.60 336.97 214.81 C 337.82 216.95 338.12 219.58 340.07 221.06 C 343.27 223.71 347.96 222.88 351.36 221.09 C 352.54 219.05 352.16 216.59 352.25 214.34 C 353.14 215.38 354.03 216.42 354.94 217.46 C 357.36 215.79 359.75 214.08 362.08 212.28 C 362.85 215.09 363.08 218.49 365.95 220.02 C 366.34 217.67 366.61 215.29 366.85 212.92 C 368.59 211.70 370.33 210.48 372.05 209.24 C 370.74 212.83 369.84 216.55 369.37 220.34 C 370.28 220.32 372.08 220.28 372.98 220.26 C 372.93 218.32 372.92 216.39 372.91 214.46 C 375.44 213.84 377.97 213.23 380.51 212.61 C 381.17 211.49 381.83 210.37 382.50 209.26 C 383.45 211.37 383.95 213.86 385.66 215.50 C 389.17 217.28 393.24 217.00 397.05 217.45 C 399.93 217.55 402.38 219.19 405.06 220.02 C 407.72 220.35 410.58 217.85 410.21 215.08 C 409.55 210.98 407.42 207.33 405.62 203.66 C 408.23 201.75 411.53 200.46 413.51 197.87 C 414.78 190.45 410.29 183.95 407.01 177.72 Z" />
<path fill="#a54b39" opacity="1.00" d=" M 167.51 247.00 C 175.37 245.80 183.15 248.84 189.17 253.80 C 190.98 256.25 191.12 259.46 191.53 262.38 C 186.59 263.06 181.67 262.13 176.82 261.33 C 176.19 260.15 175.56 258.98 174.93 257.81 C 171.40 257.70 167.87 257.60 164.35 257.58 C 163.38 255.87 162.45 254.15 161.55 252.41 C 163.47 250.55 165.15 248.32 167.51 247.00 Z" />
<path fill="#a54b39" opacity="1.00" d=" M 396.36 283.05 L 397.04 282.61 C 397.53 285.96 397.83 289.34 398.16 292.72 C 394.51 290.28 389.92 291.46 386.06 292.65 C 382.70 293.84 379.22 294.59 375.70 295.03 C 375.68 298.57 376.03 302.16 377.41 305.45 C 379.26 310.00 380.00 315.03 382.90 319.12 C 384.46 321.24 384.55 323.93 384.71 326.46 C 387.55 327.31 389.62 325.36 391.28 323.32 C 391.67 323.85 392.06 324.39 392.46 324.94 C 391.23 329.50 390.21 334.14 389.85 338.86 C 389.46 341.42 391.50 343.35 392.78 345.32 C 390.76 345.41 388.74 345.54 386.73 345.71 C 385.27 341.55 382.94 337.67 382.29 333.25 C 381.82 330.18 381.09 327.16 380.06 324.24 C 378.45 319.81 379.00 314.96 377.56 310.50 C 375.73 305.61 371.83 301.70 370.57 296.56 C 370.03 294.56 370.22 292.24 371.64 290.63 C 376.01 288.68 381.04 289.94 385.58 288.58 C 389.46 287.37 392.94 285.19 396.36 283.05 Z" />
<path fill="#a54b39" opacity="1.00" d=" M 401.30 303.72 C 404.39 307.01 408.91 310.01 409.00 314.99 C 409.72 320.42 406.12 324.98 405.25 330.14 C 404.33 335.47 401.88 340.43 401.67 345.90 C 401.66 350.18 396.76 351.55 393.36 352.29 C 393.15 349.96 392.95 347.64 392.78 345.32 C 393.55 345.20 395.10 344.95 395.88 344.83 C 395.81 342.91 395.76 341.00 395.75 339.09 C 397.35 337.85 399.44 336.92 400.34 335.00 C 401.33 332.67 399.80 330.39 398.98 328.27 C 400.48 327.37 401.98 326.47 403.47 325.54 C 402.32 322.31 404.36 319.54 406.09 317.02 C 404.55 316.44 403.02 315.88 401.50 315.31 C 402.29 313.93 403.09 312.56 403.89 311.18 C 402.30 310.80 400.70 310.43 399.11 310.08 C 399.80 307.95 400.54 305.83 401.30 303.72 Z" />
<path fill="#a54b39" opacity="1.00" d=" M 231.55 308.35 C 235.48 309.48 238.73 304.97 242.64 306.41 C 244.74 307.34 246.78 306.49 248.61 305.39 C 249.86 308.30 252.03 312.46 249.20 315.08 C 246.00 318.12 242.36 321.45 237.66 321.42 C 237.77 320.27 237.89 319.12 238.01 317.98 C 233.74 317.96 229.51 319.03 225.26 318.88 C 219.36 316.81 213.18 319.24 207.30 320.23 C 202.04 323.15 196.23 325.08 191.35 328.65 C 192.39 325.98 190.77 324.03 188.70 322.52 C 190.97 319.51 193.47 316.45 197.21 315.27 C 201.16 313.92 203.65 310.33 207.25 308.47 C 209.04 308.74 210.73 309.60 212.56 309.65 C 213.82 308.76 214.92 307.67 216.20 306.82 C 218.73 307.21 221.18 308.46 223.79 307.96 C 226.39 307.52 229.00 307.74 231.55 308.35 Z" />
<path fill="#a54b39" opacity="1.00" d=" M 300.34 373.75 C 302.94 372.81 305.52 371.79 307.99 370.55 C 311.80 373.34 315.93 375.67 319.65 378.57 C 318.90 383.03 315.11 386.03 312.22 389.20 C 314.63 390.82 316.77 392.79 318.60 395.05 C 322.29 392.52 322.03 387.12 326.33 385.07 C 327.24 389.67 322.94 392.61 321.22 396.39 C 319.81 399.42 318.98 403.36 320.86 406.37 C 323.55 408.52 326.76 406.83 328.51 404.41 C 326.66 404.00 324.81 403.60 322.97 403.21 C 324.03 400.69 325.27 398.25 326.71 395.92 C 328.54 397.99 330.20 400.25 332.40 401.96 C 334.27 403.10 336.44 401.79 338.34 401.35 C 337.73 399.45 337.14 397.55 336.54 395.65 C 340.02 395.09 343.65 395.04 346.78 396.89 C 345.38 401.23 343.07 405.18 341.40 409.40 C 340.28 413.17 339.43 417.04 337.70 420.60 C 339.19 420.68 340.87 421.37 342.24 420.45 C 345.50 417.94 346.70 413.46 350.38 411.40 C 353.36 409.44 357.00 409.24 360.46 409.20 C 360.99 411.75 361.53 414.30 362.08 416.86 C 360.97 415.47 359.87 414.08 358.77 412.70 C 358.60 415.13 358.44 417.56 358.30 419.99 C 356.81 420.15 355.32 420.31 353.84 420.48 C 353.88 421.00 353.97 422.05 354.01 422.58 C 355.69 422.85 357.38 423.14 359.07 423.43 C 358.30 424.41 357.55 425.40 356.79 426.40 C 355.76 425.67 354.73 424.96 353.69 424.25 C 352.66 425.71 351.74 427.28 350.45 428.54 C 347.99 430.14 344.82 430.08 342.34 431.64 C 340.29 433.70 341.83 436.42 342.75 438.60 C 340.98 437.92 339.19 437.27 337.41 436.64 C 337.24 438.56 337.08 440.50 336.93 442.43 C 334.81 441.65 332.53 441.17 330.65 439.89 C 329.22 437.66 329.36 434.62 327.47 432.67 C 325.11 432.39 322.65 432.76 320.51 433.79 C 318.56 436.03 318.81 439.18 320.45 441.50 C 322.01 443.70 321.07 446.59 319.65 448.60 C 316.35 450.80 312.19 451.45 309.10 454.03 C 307.03 455.64 306.22 458.24 305.18 460.55 C 303.78 458.77 302.35 457.02 300.92 455.28 C 298.41 458.67 295.80 462.00 292.87 465.05 C 292.48 463.70 292.09 462.36 291.71 461.02 C 290.93 460.89 289.39 460.62 288.62 460.49 C 288.11 463.99 288.05 467.54 288.24 471.08 C 282.93 470.64 277.02 468.82 272.24 472.13 C 269.03 473.71 267.52 477.07 265.83 480.00 L 232.56 480.00 C 233.71 479.67 234.86 479.34 236.01 479.00 C 235.58 477.52 235.15 476.05 234.73 474.59 C 237.20 473.96 239.69 473.42 242.20 472.96 C 242.59 468.94 243.32 464.90 245.29 461.32 C 245.84 461.42 246.94 461.61 247.48 461.70 C 247.80 463.34 248.13 464.97 248.50 466.62 C 251.44 465.36 250.49 462.42 249.72 460.06 C 251.42 459.59 253.12 459.11 254.82 458.63 C 255.24 454.30 256.42 449.97 259.77 446.95 C 257.06 443.74 254.69 440.12 254.33 435.82 C 253.64 435.51 252.96 435.21 252.29 434.92 C 251.99 433.93 251.70 432.94 251.42 431.95 C 249.99 432.47 248.57 433.00 247.15 433.54 C 246.33 432.31 245.52 431.09 244.71 429.87 C 242.98 431.12 241.36 432.65 239.32 433.38 C 237.31 432.44 234.69 429.71 236.56 427.54 C 238.86 423.92 242.49 421.43 245.06 418.03 C 246.63 415.06 245.53 411.08 247.82 408.43 C 249.60 407.74 251.58 407.85 253.46 407.62 C 252.39 406.05 251.33 404.48 250.26 402.92 C 252.60 403.58 254.93 404.24 257.27 404.93 C 256.49 403.62 255.62 402.36 255.07 400.94 C 255.60 399.38 256.56 398.01 257.37 396.60 C 259.06 397.97 260.39 399.69 261.56 401.52 C 263.23 397.03 263.35 392.16 262.90 387.45 C 264.92 388.84 266.98 390.18 269.06 391.50 C 269.59 389.56 270.12 387.63 270.64 385.70 C 273.28 386.34 275.92 386.95 278.57 387.53 C 278.39 385.37 277.81 383.18 278.28 381.03 C 278.97 380.12 280.26 380.22 281.27 380.08 C 283.84 379.96 287.08 379.66 288.43 382.41 C 290.30 385.80 293.96 386.91 297.58 387.25 C 296.25 385.32 294.87 383.43 293.44 381.57 C 295.37 378.73 296.71 374.79 300.34 373.75 Z" />
<path fill="#a54b39" opacity="1.00" d=" M 391.38 435.57 C 392.32 436.68 393.25 437.79 394.20 438.90 C 395.34 437.56 396.49 436.21 397.65 434.89 C 398.47 437.42 398.57 440.08 397.74 442.62 C 395.19 441.44 392.71 440.14 390.23 438.84 C 390.13 440.32 389.89 441.83 390.14 443.32 C 391.31 444.12 392.60 444.73 393.88 445.37 C 393.67 450.18 390.28 455.29 393.91 459.60 C 395.04 459.10 396.17 458.59 397.30 458.10 C 396.83 456.33 396.37 454.58 395.92 452.83 C 399.59 451.08 401.88 447.78 402.74 443.86 C 404.38 447.69 406.61 451.32 407.44 455.45 C 408.28 459.67 407.39 463.94 407.19 468.17 C 406.96 472.24 408.38 476.16 409.54 480.00 L 386.83 480.00 C 388.11 478.74 389.33 477.42 390.56 476.11 C 390.14 475.47 389.31 474.18 388.89 473.54 C 386.57 474.40 384.27 475.30 382.00 476.28 C 381.69 473.70 381.40 471.12 381.20 468.54 C 382.59 468.96 383.98 469.40 385.38 469.83 C 385.65 469.05 385.92 468.27 386.19 467.50 C 384.47 466.28 382.69 465.13 381.14 463.71 C 381.89 460.57 385.41 462.66 387.21 463.55 C 387.79 463.39 388.94 463.08 389.52 462.92 C 389.52 459.18 386.75 456.72 383.97 454.70 C 381.78 457.35 379.47 459.91 376.88 462.18 C 375.94 458.20 377.27 454.32 379.15 450.85 C 381.21 450.90 383.32 451.07 385.35 450.55 C 386.22 447.20 385.97 443.67 386.91 440.34 C 387.82 438.31 389.83 437.08 391.38 435.57 Z" />
</g>
<g id="#b24c3fff">
<path fill="#b24c3f" opacity="1.00" d=" M 172.79 54.64 C 176.10 53.18 177.68 58.31 180.95 57.85 C 183.12 57.92 185.54 57.16 187.44 58.58 C 192.34 61.64 197.83 63.53 203.16 65.68 C 202.32 66.36 201.48 67.05 200.64 67.73 C 200.88 68.23 201.12 68.74 201.36 69.24 C 203.28 68.83 205.34 67.52 207.29 68.50 C 211.53 70.27 214.75 73.97 219.24 75.24 C 223.88 76.66 229.05 77.69 232.48 81.42 C 234.62 83.55 236.08 86.59 239.05 87.71 C 242.15 89.07 246.02 89.72 247.64 93.09 C 249.86 97.28 254.10 100.44 254.58 105.42 C 249.60 105.40 245.91 100.25 240.84 101.91 C 237.08 102.65 233.71 100.20 230.01 100.16 C 224.41 100.01 219.47 103.01 214.14 104.17 C 210.66 105.00 207.05 104.98 203.57 105.77 C 199.42 106.76 196.09 109.59 192.27 111.32 C 189.33 112.69 186.10 113.17 182.96 113.82 C 182.73 111.66 182.40 109.48 182.64 107.31 C 183.86 106.34 185.46 106.16 186.91 105.72 C 187.48 107.15 188.06 108.59 188.64 110.02 C 189.56 107.88 190.46 105.73 191.37 103.59 C 195.52 103.23 199.69 103.24 203.85 103.07 C 207.05 103.02 209.23 100.18 212.23 99.45 C 214.29 98.94 216.43 98.79 218.50 98.25 C 220.69 96.90 220.06 92.99 217.55 92.42 C 214.90 92.29 212.42 93.48 209.94 94.27 C 209.35 92.78 208.76 91.29 208.16 89.80 C 202.89 90.54 197.64 89.09 192.47 88.25 C 188.33 86.65 184.51 84.33 180.53 82.38 C 178.74 81.78 179.08 79.68 178.62 78.22 C 181.31 78.42 184.00 79.11 186.71 78.81 C 189.40 77.92 191.81 76.35 194.41 75.21 C 193.37 74.23 192.34 73.24 191.32 72.25 C 192.06 69.72 195.15 66.10 191.96 64.12 C 189.04 61.49 185.42 63.16 182.28 64.22 C 179.67 62.65 178.52 58.40 174.90 58.74 C 170.56 59.07 169.02 63.80 167.13 66.99 C 165.99 66.12 164.85 65.25 163.71 64.37 C 160.17 67.01 156.74 69.83 152.84 71.91 C 149.10 73.93 143.82 73.52 141.76 77.93 C 143.09 78.23 144.41 78.52 145.74 78.81 C 144.77 82.30 144.18 86.04 142.12 89.10 C 139.24 92.97 134.47 94.72 131.22 98.21 C 129.41 100.08 128.03 102.34 126.08 104.09 C 123.65 105.51 120.35 105.11 118.36 107.36 C 115.63 110.67 111.02 108.63 107.40 109.42 C 104.97 109.39 103.53 111.53 101.97 113.06 C 98.32 111.83 95.46 114.85 94.32 118.05 C 91.93 125.24 88.61 132.06 86.25 139.26 C 84.21 143.61 82.83 148.29 83.28 153.14 C 89.23 152.09 93.67 147.40 99.60 146.31 C 102.93 145.64 106.26 144.44 109.69 144.63 C 113.57 146.15 116.97 148.69 120.86 150.21 C 120.08 152.09 119.28 154.01 119.13 156.06 C 115.23 152.76 110.93 149.50 105.78 148.57 C 101.60 149.57 97.66 151.50 93.52 152.72 C 90.11 153.65 88.12 156.71 86.30 159.48 C 82.91 160.41 79.50 161.28 76.12 162.25 C 77.36 158.02 77.70 153.63 78.23 149.29 C 78.69 145.39 80.99 142.12 82.58 138.64 C 84.33 134.91 84.32 130.69 85.44 126.77 C 86.49 122.82 88.88 119.43 90.27 115.62 C 91.17 113.42 91.71 111.04 93.03 109.03 C 99.17 107.01 105.73 106.30 111.65 103.58 C 115.44 101.45 117.42 97.14 121.28 95.09 C 124.76 93.20 128.82 92.90 132.40 91.29 C 134.96 89.31 136.64 86.44 138.84 84.09 C 137.78 78.42 140.02 72.82 143.20 68.22 C 144.66 66.13 147.19 65.32 149.37 64.23 C 153.08 62.59 156.48 60.24 160.44 59.21 C 164.71 58.12 168.65 56.10 172.79 54.64 Z" />
<path fill="#b24c3f" opacity="1.00" d=" M 174.58 116.46 C 176.83 114.89 179.66 114.61 182.26 113.97 C 176.28 119.01 170.47 125.88 170.45 134.13 C 170.19 136.67 171.48 139.40 173.76 140.62 C 177.46 140.51 181.23 140.13 184.77 141.55 C 185.81 139.53 186.44 136.72 188.96 136.09 C 192.43 134.99 196.13 134.82 199.56 133.56 C 203.84 132.11 207.44 129.27 211.48 127.32 C 215.35 125.41 219.77 125.63 223.91 124.79 C 227.50 124.11 231.04 122.49 234.75 123.18 C 241.50 124.38 248.48 124.59 254.98 126.91 C 258.19 127.97 260.55 130.48 262.84 132.83 C 262.63 131.73 262.42 130.63 262.22 129.53 C 270.30 129.47 277.27 133.92 283.72 138.26 C 285.81 139.64 286.89 141.98 288.14 144.06 C 290.28 148.08 294.58 150.33 296.83 154.30 C 299.53 158.80 302.72 162.95 306.07 166.99 C 309.96 171.43 310.34 177.65 313.49 182.51 C 316.08 186.63 318.08 191.84 323.16 193.43 C 325.16 197.64 327.01 201.93 328.89 206.20 C 330.80 212.23 334.38 217.49 336.89 223.26 C 338.38 226.85 341.54 229.32 343.51 232.62 C 345.38 235.39 346.93 238.92 350.31 240.13 C 355.46 241.47 360.61 239.23 365.76 239.15 C 368.47 240.17 370.56 243.01 370.47 245.95 C 369.52 250.53 365.08 253.94 365.30 258.86 C 365.55 262.19 369.15 263.35 371.65 264.70 C 376.32 260.80 380.76 255.94 386.93 254.60 C 388.81 254.00 390.92 253.76 392.49 252.48 C 395.38 249.71 396.45 245.67 398.92 242.59 C 402.45 240.54 406.77 240.53 410.73 239.91 C 411.15 239.22 411.57 238.52 411.98 237.82 C 412.21 241.08 413.27 244.28 413.08 247.56 C 412.28 250.87 410.46 253.80 409.17 256.93 C 404.59 258.09 404.00 263.24 401.06 266.15 C 397.67 267.71 393.94 266.34 390.65 265.21 C 387.69 264.01 384.46 264.43 381.37 263.90 C 377.89 267.14 375.61 271.32 373.34 275.42 C 372.12 278.36 368.09 277.65 365.99 276.15 C 363.52 271.54 360.99 266.89 359.44 261.87 C 354.72 263.67 352.26 268.43 347.86 270.73 C 347.10 268.08 346.22 265.39 346.27 262.60 C 346.29 258.46 347.32 254.18 345.87 250.16 C 344.83 246.30 342.26 243.18 339.94 240.02 C 337.55 236.85 337.32 232.76 336.57 229.01 C 334.58 228.60 332.49 228.39 330.65 227.48 C 329.89 225.15 329.94 222.57 328.66 220.42 C 327.24 217.96 325.54 215.69 324.03 213.29 C 324.15 215.48 324.15 217.67 324.07 219.87 C 320.45 218.16 316.46 215.86 315.11 211.86 C 314.35 207.34 314.80 202.74 314.80 198.18 C 313.33 199.52 311.86 200.85 310.40 202.19 C 311.17 198.88 311.76 195.42 310.67 192.11 C 309.31 191.83 307.96 191.55 306.62 191.26 C 306.09 187.31 304.64 183.57 302.66 180.12 C 302.02 181.61 301.37 183.10 300.73 184.59 C 298.50 180.56 298.25 175.95 298.63 171.45 C 296.44 170.60 294.21 169.82 292.12 168.75 C 289.46 167.56 288.42 164.63 287.02 162.30 C 286.69 166.39 286.12 170.46 285.43 174.51 C 282.90 172.08 280.61 169.34 277.64 167.43 C 275.00 167.49 274.08 170.77 272.51 172.47 C 271.15 175.03 268.61 176.39 266.07 177.51 C 264.12 178.27 263.34 180.33 262.26 181.95 C 259.47 182.86 256.78 184.01 254.12 185.26 C 250.48 187.04 246.32 186.54 242.39 186.64 C 241.18 188.05 240.16 189.83 238.37 190.59 C 235.80 191.69 234.37 187.39 231.75 188.65 C 229.68 189.17 229.80 191.65 229.24 193.29 C 221.66 193.03 214.09 195.80 206.54 194.38 C 206.88 195.64 207.21 196.90 207.54 198.16 C 207.18 198.37 206.46 198.80 206.10 199.02 C 204.72 198.42 203.36 197.75 201.92 197.32 C 199.22 196.58 196.15 198.24 193.70 196.49 C 191.60 195.25 189.67 193.76 187.71 192.33 C 186.50 193.53 185.30 194.74 184.10 195.96 C 182.68 194.45 181.40 192.74 179.65 191.60 C 177.76 190.69 175.63 190.50 173.61 190.06 C 174.71 187.75 175.81 185.44 176.91 183.13 C 175.53 184.04 174.16 184.95 172.79 185.86 C 171.64 184.06 170.47 182.28 169.39 180.44 C 166.27 175.52 165.93 169.29 166.83 163.68 C 167.53 160.62 170.86 162.13 172.97 162.39 C 174.35 158.78 176.66 154.80 175.18 150.88 C 174.04 147.75 170.54 146.99 168.02 145.36 C 167.73 143.64 167.97 141.90 167.95 140.17 C 168.27 136.81 165.58 134.30 164.05 131.59 C 166.17 129.54 168.37 127.46 169.65 124.74 C 171.19 121.94 172.16 118.67 174.58 116.46 M 228.44 134.62 C 226.64 136.80 225.14 139.31 222.83 141.01 C 219.87 141.48 216.86 141.35 213.88 141.50 C 214.53 142.60 214.88 144.15 216.30 144.51 C 213.20 146.25 211.67 149.75 209.65 152.54 C 207.11 156.07 208.92 160.52 209.55 164.38 C 210.16 168.59 213.96 171.04 216.90 173.64 C 218.19 172.85 219.49 172.06 220.79 171.27 C 221.12 172.50 221.45 173.74 221.78 174.97 C 224.17 174.25 226.00 172.55 227.56 170.67 C 230.55 172.54 234.98 174.90 238.14 172.18 C 240.36 170.46 243.26 170.51 245.80 169.58 C 248.12 168.18 249.63 165.81 251.43 163.84 C 249.92 160.65 248.33 157.31 248.67 153.68 C 250.90 154.96 252.26 157.15 253.22 159.47 C 254.47 158.62 255.73 157.80 257.01 157.00 C 256.85 155.84 256.75 154.67 256.70 153.50 C 259.68 155.17 262.54 157.10 264.79 159.71 C 264.83 158.49 264.87 157.27 264.91 156.05 C 267.44 156.35 269.99 156.51 272.55 156.47 C 272.40 155.05 272.73 153.43 271.71 152.27 C 268.55 148.07 263.93 145.37 260.15 141.80 C 256.15 138.03 250.93 135.93 245.77 134.28 C 240.11 132.33 234.19 134.25 228.44 134.62 M 191.18 162.13 C 189.96 164.11 189.68 166.63 189.80 168.93 C 191.35 171.62 193.42 173.99 194.86 176.76 C 197.36 175.08 199.22 172.67 201.40 170.63 C 202.69 171.88 204.04 173.08 205.50 174.14 C 205.44 168.61 205.32 162.84 201.89 158.18 C 204.98 155.98 206.78 152.63 206.69 148.80 C 200.89 152.51 196.60 157.99 191.18 162.13 Z" />
<path fill="#b24c3f" opacity="1.00" d=" M 107.60 184.94 C 111.34 181.18 117.04 181.05 121.91 182.11 C 126.61 182.90 131.81 182.30 136.02 184.87 C 138.87 186.74 138.52 190.49 137.57 193.32 C 136.14 197.71 134.89 202.16 133.82 206.66 C 133.25 209.65 130.58 211.42 128.53 213.38 C 128.99 220.35 126.66 227.61 121.03 232.03 C 118.12 234.32 114.21 233.82 110.84 233.13 C 111.18 229.05 107.10 227.41 105.14 224.47 C 104.91 224.16 104.45 223.52 104.22 223.20 C 110.98 225.10 117.94 222.96 124.13 220.21 C 125.81 217.08 125.77 213.31 126.98 209.98 C 128.09 206.65 129.12 203.29 129.74 199.84 C 121.08 196.67 112.74 192.77 104.16 189.40 C 100.71 191.81 97.25 194.21 93.81 196.64 C 93.75 197.45 93.65 199.07 93.60 199.88 C 90.56 199.65 87.53 199.26 84.58 198.46 C 88.91 195.11 90.97 188.84 96.71 187.56 C 100.25 186.36 103.76 184.66 107.60 184.94 Z" />
<path fill="#b24c3f" opacity="1.00" d=" M 203.14 244.67 C 201.00 240.54 199.11 235.51 201.91 231.17 C 204.31 236.82 207.01 242.34 209.15 248.10 C 211.26 251.75 215.68 254.32 215.34 259.09 C 213.60 257.93 211.93 256.69 210.33 255.36 C 211.33 262.43 206.57 268.16 205.39 274.80 C 203.76 274.77 202.13 274.73 200.50 274.67 C 199.67 272.68 198.69 270.75 197.46 268.98 C 196.26 271.19 195.12 273.43 193.96 275.66 C 188.82 273.61 185.26 269.22 180.73 266.24 C 178.15 264.39 174.98 266.39 172.20 266.70 C 170.41 265.49 168.47 264.54 166.42 263.88 C 166.82 265.26 167.25 266.65 167.68 268.03 C 167.27 268.35 166.45 268.97 166.04 269.29 C 164.24 267.72 162.58 265.91 162.06 263.51 C 160.65 258.64 156.15 254.27 157.60 248.90 C 158.79 245.09 163.25 244.92 166.51 244.23 C 166.93 243.16 167.36 242.09 167.78 241.02 C 170.51 241.37 173.18 242.11 175.71 243.21 C 179.74 244.90 184.17 245.62 187.92 247.96 C 191.17 249.96 193.91 252.64 197.04 254.81 C 198.95 255.99 199.65 258.23 200.71 260.08 C 202.03 257.42 200.91 254.54 201.02 251.76 C 202.10 249.54 204.70 247.32 203.14 244.67 M 167.51 247.00 C 165.15 248.32 163.47 250.55 161.55 252.41 C 162.45 254.15 163.38 255.87 164.35 257.58 C 167.87 257.60 171.40 257.70 174.93 257.81 C 175.56 258.98 176.19 260.15 176.82 261.33 C 181.67 262.13 186.59 263.06 191.53 262.38 C 191.12 259.46 190.98 256.25 189.17 253.80 C 183.15 248.84 175.37 245.80 167.51 247.00 Z" />
<path fill="#b24c3f" opacity="1.00" d=" M 137.89 263.86 C 142.05 262.46 146.75 264.31 149.53 267.52 C 150.15 271.41 147.03 274.64 143.97 276.55 C 139.10 274.32 139.08 268.35 137.89 263.86 Z" />
<path fill="#b24c3f" opacity="1.00" d=" M 379.46 287.15 C 384.29 286.60 388.66 284.30 392.73 281.78 C 393.94 282.20 395.14 282.62 396.36 283.05 C 392.94 285.19 389.46 287.37 385.58 288.58 C 381.04 289.94 376.01 288.68 371.64 290.63 C 370.22 292.24 370.03 294.56 370.57 296.56 C 371.83 301.70 375.73 305.61 377.56 310.50 C 379.00 314.96 378.45 319.81 380.06 324.24 C 381.09 327.16 381.82 330.18 382.29 333.25 C 382.94 337.67 385.27 341.55 386.73 345.71 C 387.25 350.74 387.61 355.84 389.61 360.56 C 390.87 362.90 389.83 365.35 388.74 367.52 C 384.10 364.02 386.80 358.00 384.74 353.35 C 383.35 349.51 382.04 345.62 381.45 341.57 C 380.44 334.86 378.08 328.46 376.96 321.78 C 376.57 317.84 372.10 315.91 371.98 311.89 C 371.57 306.96 369.27 302.57 367.74 297.95 C 366.21 292.96 369.67 288.52 371.98 284.44 C 374.33 285.62 376.67 287.51 379.46 287.15 Z" />
<path fill="#b24c3f" opacity="1.00" d=" M 240.85 298.18 C 241.48 297.15 242.10 296.12 242.72 295.08 C 243.40 297.36 244.21 299.61 245.22 301.77 C 245.77 301.71 246.87 301.60 247.42 301.54 C 248.45 299.99 249.49 298.45 250.55 296.91 C 252.28 299.39 254.36 301.63 255.91 304.24 C 256.51 306.74 256.36 309.36 257.02 311.84 C 258.59 312.70 260.42 312.89 262.14 313.35 C 261.84 315.52 261.45 317.67 260.96 319.81 C 258.24 320.32 255.17 320.16 252.86 321.91 C 251.30 322.98 249.89 324.28 248.23 325.21 C 245.87 326.09 243.27 326.01 240.93 326.95 C 238.26 328.52 236.79 331.53 234.03 333.00 C 231.10 334.51 228.13 336.31 224.75 336.51 C 223.42 336.68 221.84 336.69 221.07 338.01 C 218.09 341.78 215.38 345.79 211.89 349.14 C 211.04 348.41 210.19 347.68 209.34 346.96 C 209.84 345.83 210.33 344.70 210.83 343.58 C 208.55 343.59 206.28 343.61 204.02 343.68 C 203.20 345.70 202.43 350.89 199.32 348.78 C 198.28 346.71 198.04 344.37 197.59 342.13 C 198.57 341.49 199.54 340.85 200.52 340.22 C 200.48 339.76 200.38 338.83 200.33 338.37 C 196.57 338.08 193.38 340.25 189.90 341.25 C 187.46 341.99 186.00 339.46 184.58 337.99 C 188.69 336.52 193.39 336.57 196.99 333.83 C 196.31 332.32 195.62 330.82 194.93 329.32 C 189.73 330.45 185.33 334.03 179.87 334.13 C 177.18 334.16 174.76 335.28 172.74 337.01 C 170.42 336.36 167.93 334.32 165.48 335.55 C 164.23 336.09 163.01 336.70 161.78 337.31 C 161.02 331.51 164.72 326.34 168.21 322.08 C 167.95 321.08 167.68 320.08 167.42 319.09 C 171.26 317.47 172.99 313.67 175.51 310.68 C 176.58 310.69 177.65 310.85 178.71 311.00 C 180.08 308.42 180.91 305.17 183.65 303.69 C 186.42 302.19 189.15 300.59 192.04 299.35 C 195.05 299.51 196.96 302.65 199.88 303.19 C 203.42 303.43 207.05 303.44 210.48 302.40 C 214.02 301.01 217.27 304.35 220.84 303.55 C 223.68 303.01 226.52 302.42 229.42 302.30 C 231.15 300.33 232.82 297.96 235.54 297.34 C 237.35 296.68 239.13 297.71 240.85 298.18 M 231.55 308.35 C 229.00 307.74 226.39 307.52 223.79 307.96 C 221.18 308.46 218.73 307.21 216.20 306.82 C 214.92 307.67 213.82 308.76 212.56 309.65 C 210.73 309.60 209.04 308.74 207.25 308.47 C 203.65 310.33 201.16 313.92 197.21 315.27 C 193.47 316.45 190.97 319.51 188.70 322.52 C 190.77 324.03 192.39 325.98 191.35 328.65 C 196.23 325.08 202.04 323.15 207.30 320.23 C 213.18 319.24 219.36 316.81 225.26 318.88 C 229.51 319.03 233.74 317.96 238.01 317.98 C 237.89 319.12 237.77 320.27 237.66 321.42 C 242.36 321.45 246.00 318.12 249.20 315.08 C 252.03 312.46 249.86 308.30 248.61 305.39 C 246.78 306.49 244.74 307.34 242.64 306.41 C 238.73 304.97 235.48 309.48 231.55 308.35 Z" />
<path fill="#b24c3f" opacity="1.00" d=" M 271.36 351.79 C 274.39 347.95 276.50 343.07 281.16 340.88 C 281.56 345.11 282.17 349.35 283.71 353.34 C 286.28 359.70 285.27 366.91 288.45 373.08 C 289.60 371.11 290.69 369.11 291.75 367.09 C 290.66 366.87 289.58 366.66 288.50 366.46 C 288.05 361.76 286.83 356.94 287.97 352.26 C 290.20 348.20 294.54 345.94 297.94 342.98 C 297.88 346.33 297.90 350.01 300.75 352.33 C 301.26 348.67 301.77 345.01 302.64 341.42 C 306.61 344.10 310.54 346.91 314.96 348.85 C 315.52 347.11 315.80 345.20 316.89 343.69 C 320.05 342.06 323.78 342.14 327.25 342.13 C 330.28 341.93 332.20 344.60 334.28 346.36 C 335.93 345.68 337.58 344.98 339.23 344.28 C 341.61 345.77 343.90 347.40 346.10 349.14 C 345.28 352.36 344.90 355.94 342.41 358.40 C 339.83 360.96 339.42 364.85 339.78 368.30 C 340.76 372.77 345.51 375.38 346.15 380.02 C 346.57 382.59 347.43 385.07 349.03 387.16 C 351.83 385.45 354.54 383.60 357.13 381.59 C 359.23 382.84 361.33 384.10 363.42 385.36 C 361.91 387.77 360.45 390.22 359.06 392.71 C 362.35 393.47 366.10 396.25 369.38 394.55 C 371.00 390.98 371.50 387.04 372.38 383.26 C 373.57 383.22 374.76 383.19 375.96 383.16 C 375.75 387.01 373.28 391.49 376.09 394.89 C 378.82 391.15 383.56 391.54 387.65 391.35 C 386.90 392.95 386.07 394.52 385.60 396.23 C 385.89 397.43 386.85 398.29 387.51 399.30 C 388.63 398.52 389.75 397.75 390.87 396.99 C 391.38 401.61 391.07 406.91 394.41 410.60 C 397.96 414.81 401.24 419.54 402.48 424.99 C 403.11 431.28 399.93 437.77 402.74 443.86 C 401.88 447.78 399.59 451.08 395.92 452.83 C 396.37 454.58 396.83 456.33 397.30 458.10 C 396.17 458.59 395.04 459.10 393.91 459.60 C 390.28 455.29 393.67 450.18 393.88 445.37 C 392.60 444.73 391.31 444.12 390.14 443.32 C 389.89 441.83 390.13 440.32 390.23 438.84 C 392.71 440.14 395.19 441.44 397.74 442.62 C 398.57 440.08 398.47 437.42 397.65 434.89 C 396.49 436.21 395.34 437.56 394.20 438.90 C 393.25 437.79 392.32 436.68 391.38 435.57 C 389.83 437.08 387.82 438.31 386.91 440.34 C 385.97 443.67 386.22 447.20 385.35 450.55 C 383.32 451.07 381.21 450.90 379.15 450.85 C 377.27 454.32 375.94 458.20 376.88 462.18 C 379.47 459.91 381.78 457.35 383.97 454.70 C 386.75 456.72 389.52 459.18 389.52 462.92 C 388.94 463.08 387.79 463.39 387.21 463.55 C 385.41 462.66 381.89 460.57 381.14 463.71 C 382.69 465.13 384.47 466.28 386.19 467.50 C 385.92 468.27 385.65 469.05 385.38 469.83 C 383.98 469.40 382.59 468.96 381.20 468.54 C 381.40 471.12 381.69 473.70 382.00 476.28 C 384.27 475.30 386.57 474.40 388.89 473.54 C 389.31 474.18 390.14 475.47 390.56 476.11 C 389.33 477.42 388.11 478.74 386.83 480.00 L 380.54 480.00 C 380.63 477.80 380.73 475.60 380.83 473.41 C 379.47 473.43 378.12 473.47 376.76 473.51 C 376.42 474.81 376.08 476.11 375.74 477.41 C 374.48 474.95 373.26 472.49 372.04 470.02 C 370.21 469.05 366.64 469.57 366.23 467.17 C 367.60 465.32 369.41 463.83 370.58 461.84 C 370.40 459.25 369.55 456.35 367.51 454.63 C 364.94 454.03 362.33 454.98 359.81 455.47 C 359.48 453.89 359.12 452.32 358.76 450.76 C 357.33 452.49 356.05 454.35 355.11 456.40 C 353.94 459.22 350.88 460.75 350.18 463.86 C 349.77 461.10 350.45 457.06 347.46 455.60 C 344.24 455.40 341.08 456.30 337.93 456.85 C 337.03 459.46 336.34 462.33 334.35 464.37 C 332.82 465.63 330.89 466.23 329.10 467.01 C 328.18 464.06 326.74 460.86 328.12 457.80 C 329.39 459.59 330.60 461.42 331.87 463.22 C 332.60 460.88 332.91 458.44 333.00 456.01 C 329.06 455.87 325.09 456.08 321.19 455.41 C 322.05 456.83 322.90 458.27 323.75 459.71 C 321.61 460.63 318.35 460.68 317.49 463.24 C 317.68 467.48 321.47 470.29 324.02 473.28 C 322.55 474.55 321.19 476.00 319.46 476.92 C 317.36 477.08 315.37 476.01 313.37 475.47 C 312.98 476.98 312.60 478.50 312.15 480.00 L 265.83 480.00 C 267.52 477.07 269.03 473.71 272.24 472.13 C 277.02 468.82 282.93 470.64 288.24 471.08 C 288.05 467.54 288.11 463.99 288.62 460.49 C 289.39 460.62 290.93 460.89 291.71 461.02 C 292.09 462.36 292.48 463.70 292.87 465.05 C 295.80 462.00 298.41 458.67 300.92 455.28 C 302.35 457.02 303.78 458.77 305.18 460.55 C 306.22 458.24 307.03 455.64 309.10 454.03 C 312.19 451.45 316.35 450.80 319.65 448.60 C 321.07 446.59 322.01 443.70 320.45 441.50 C 318.81 439.18 318.56 436.03 320.51 433.79 C 322.65 432.76 325.11 432.39 327.47 432.67 C 329.36 434.62 329.22 437.66 330.65 439.89 C 332.53 441.17 334.81 441.65 336.93 442.43 C 337.08 440.50 337.24 438.56 337.41 436.64 C 339.19 437.27 340.98 437.92 342.75 438.60 C 341.83 436.42 340.29 433.70 342.34 431.64 C 344.82 430.08 347.99 430.14 350.45 428.54 C 351.74 427.28 352.66 425.71 353.69 424.25 C 354.73 424.96 355.76 425.67 356.79 426.40 C 357.55 425.40 358.30 424.41 359.07 423.43 C 357.38 423.14 355.69 422.85 354.01 422.58 C 353.97 422.05 353.88 421.00 353.84 420.48 C 355.32 420.31 356.81 420.15 358.30 419.99 C 358.44 417.56 358.60 415.13 358.77 412.70 C 359.87 414.08 360.97 415.47 362.08 416.86 C 361.53 414.30 360.99 411.75 360.46 409.20 C 357.00 409.24 353.36 409.44 350.38 411.40 C 346.70 413.46 345.50 417.94 342.24 420.45 C 340.87 421.37 339.19 420.68 337.70 420.60 C 339.43 417.04 340.28 413.17 341.40 409.40 C 343.07 405.18 345.38 401.23 346.78 396.89 C 343.65 395.04 340.02 395.09 336.54 395.65 C 337.14 397.55 337.73 399.45 338.34 401.35 C 336.44 401.79 334.27 403.10 332.40 401.96 C 330.20 400.25 328.54 397.99 326.71 395.92 C 325.27 398.25 324.03 400.69 322.97 403.21 C 324.81 403.60 326.66 404.00 328.51 404.41 C 326.76 406.83 323.55 408.52 320.86 406.37 C 318.98 403.36 319.81 399.42 321.22 396.39 C 322.94 392.61 327.24 389.67 326.33 385.07 C 322.03 387.12 322.29 392.52 318.60 395.05 C 316.77 392.79 314.63 390.82 312.22 389.20 C 315.11 386.03 318.90 383.03 319.65 378.57 C 315.93 375.67 311.80 373.34 307.99 370.55 C 305.52 371.79 302.94 372.81 300.34 373.75 C 296.71 374.79 295.37 378.73 293.44 381.57 C 294.87 383.43 296.25 385.32 297.58 387.25 C 293.96 386.91 290.30 385.80 288.43 382.41 C 287.08 379.66 283.84 379.96 281.27 380.08 C 280.26 380.22 278.97 380.12 278.28 381.03 C 277.81 383.18 278.39 385.37 278.57 387.53 C 275.92 386.95 273.28 386.34 270.64 385.70 C 270.12 387.63 269.59 389.56 269.06 391.50 C 266.98 390.18 264.92 388.84 262.90 387.45 C 263.35 392.16 263.23 397.03 261.56 401.52 C 260.39 399.69 259.06 397.97 257.37 396.60 C 256.56 398.01 255.60 399.38 255.07 400.94 C 255.62 402.36 256.49 403.62 257.27 404.93 C 254.93 404.24 252.60 403.58 250.26 402.92 C 251.33 404.48 252.39 406.05 253.46 407.62 C 251.58 407.85 249.60 407.74 247.82 408.43 C 245.53 411.08 246.63 415.06 245.06 418.03 C 242.49 421.43 238.86 423.92 236.56 427.54 C 234.69 429.71 237.31 432.44 239.32 433.38 C 241.36 432.65 242.98 431.12 244.71 429.87 C 245.52 431.09 246.33 432.31 247.15 433.54 C 248.57 433.00 249.99 432.47 251.42 431.95 C 251.70 432.94 251.99 433.93 252.29 434.92 C 252.96 435.21 253.64 435.51 254.33 435.82 C 254.69 440.12 257.06 443.74 259.77 446.95 C 256.42 449.97 255.24 454.30 254.82 458.63 C 253.12 459.11 251.42 459.59 249.72 460.06 C 250.49 462.42 251.44 465.36 248.50 466.62 C 248.13 464.97 247.80 463.34 247.48 461.70 C 246.94 461.61 245.84 461.42 245.29 461.32 C 246.30 458.87 247.40 456.21 246.97 453.51 C 244.79 450.55 241.55 448.43 239.89 445.04 C 237.86 441.10 234.53 438.02 232.45 434.14 C 232.20 430.97 233.45 427.90 233.86 424.79 C 234.47 420.57 235.81 416.50 237.87 412.77 C 236.32 412.63 234.76 412.49 233.22 412.37 C 233.08 410.99 232.97 409.63 232.95 408.26 C 232.78 404.46 237.49 403.92 239.60 401.63 C 242.31 398.87 245.97 397.71 249.74 397.33 C 249.75 396.79 249.78 395.71 249.79 395.17 C 247.19 395.28 244.59 395.41 242.00 395.59 C 244.45 391.43 244.83 386.56 245.97 381.98 C 247.54 384.65 248.32 387.66 248.69 390.72 C 252.43 389.09 256.23 387.62 260.02 386.13 C 257.73 384.97 255.32 383.98 253.27 382.42 C 251.60 379.18 251.88 375.24 253.87 372.20 C 254.70 374.14 255.48 376.11 256.24 378.09 C 258.89 376.63 261.07 374.51 262.85 372.09 C 259.48 369.79 255.83 367.84 251.80 366.99 C 251.21 371.34 250.37 375.75 247.98 379.53 C 246.44 377.93 244.02 376.62 243.79 374.20 C 244.71 372.41 246.44 371.08 247.05 369.14 C 247.42 365.63 246.67 362.12 246.27 358.65 C 241.91 360.65 244.19 365.95 244.03 369.64 C 241.81 370.81 239.39 371.73 237.48 373.40 C 236.44 375.51 236.10 377.86 235.48 380.12 C 234.40 379.00 233.25 377.94 232.36 376.66 C 232.00 373.76 233.04 370.94 233.77 368.18 C 235.98 367.18 238.16 366.11 240.30 364.97 C 238.75 363.10 237.32 361.04 235.22 359.75 C 233.03 358.55 230.44 358.69 228.03 358.45 C 228.03 357.26 228.03 356.08 228.03 354.90 C 231.54 355.04 235.05 355.28 238.55 355.62 C 239.07 351.91 239.49 348.19 239.90 344.47 C 243.85 349.00 246.35 354.49 249.39 359.62 C 251.27 359.08 253.16 358.55 255.05 358.02 C 256.91 361.03 258.67 364.11 260.34 367.24 C 263.36 364.88 265.52 361.33 265.99 357.51 C 265.88 354.28 265.05 351.12 264.65 347.92 C 265.48 347.86 267.13 347.72 267.96 347.65 C 269.09 349.03 270.22 350.41 271.36 351.79 Z" />
<path fill="#b24c3f" opacity="1.00" d=" M 140.79 343.64 C 143.22 341.50 146.82 341.18 149.88 341.81 C 152.72 342.12 152.78 345.70 152.18 347.83 C 151.31 351.79 147.11 353.14 143.96 354.83 C 142.46 354.00 140.96 353.17 139.46 352.34 C 140.19 349.49 140.21 346.52 140.79 343.64 Z" />
</g>
<g id="#cf8569ff">
<path fill="#cf8569" opacity="1.00" d=" M 167.13 66.99 C 169.02 63.80 170.56 59.07 174.90 58.74 C 178.52 58.40 179.67 62.65 182.28 64.22 C 185.42 63.16 189.04 61.49 191.96 64.12 C 195.15 66.10 192.06 69.72 191.32 72.25 C 192.34 73.24 193.37 74.23 194.41 75.21 C 191.81 76.35 189.40 77.92 186.71 78.81 C 184.00 79.11 181.31 78.42 178.62 78.22 C 179.08 79.68 178.74 81.78 180.53 82.38 C 184.51 84.33 188.33 86.65 192.47 88.25 C 197.64 89.09 202.89 90.54 208.16 89.80 C 208.76 91.29 209.35 92.78 209.94 94.27 C 212.42 93.48 214.90 92.29 217.55 92.42 C 220.06 92.99 220.69 96.90 218.50 98.25 C 216.43 98.79 214.29 98.94 212.23 99.45 C 209.23 100.18 207.05 103.02 203.85 103.07 C 199.69 103.24 195.52 103.23 191.37 103.59 C 190.46 105.73 189.56 107.88 188.64 110.02 C 188.06 108.59 187.48 107.15 186.91 105.72 C 185.46 106.16 183.86 106.34 182.64 107.31 C 182.40 109.48 182.73 111.66 182.96 113.82 L 182.26 113.97 C 179.66 114.61 176.83 114.89 174.58 116.46 C 172.16 118.67 171.19 121.94 169.65 124.74 C 168.37 127.46 166.17 129.54 164.05 131.59 C 165.58 134.30 168.27 136.81 167.95 140.17 C 167.97 141.90 167.73 143.64 168.02 145.36 C 170.54 146.99 174.04 147.75 175.18 150.88 C 176.66 154.80 174.35 158.78 172.97 162.39 C 170.86 162.13 167.53 160.62 166.83 163.68 C 165.93 169.29 166.27 175.52 169.39 180.44 C 170.47 182.28 171.64 184.06 172.79 185.86 C 174.16 184.95 175.53 184.04 176.91 183.13 C 175.81 185.44 174.71 187.75 173.61 190.06 C 175.63 190.50 177.76 190.69 179.65 191.60 C 181.40 192.74 182.68 194.45 184.10 195.96 C 185.30 194.74 186.50 193.53 187.71 192.33 C 189.67 193.76 191.60 195.25 193.70 196.49 C 196.15 198.24 199.22 196.58 201.92 197.32 C 203.36 197.75 204.72 198.42 206.10 199.02 C 206.46 198.80 207.18 198.37 207.54 198.16 C 207.21 196.90 206.88 195.64 206.54 194.38 C 214.09 195.80 221.66 193.03 229.24 193.29 C 229.80 191.65 229.68 189.17 231.75 188.65 C 234.37 187.39 235.80 191.69 238.37 190.59 C 240.16 189.83 241.18 188.05 242.39 186.64 C 246.32 186.54 250.48 187.04 254.12 185.26 C 256.78 184.01 259.47 182.86 262.26 181.95 C 263.34 180.33 264.12 178.27 266.07 177.51 C 268.61 176.39 271.15 175.03 272.51 172.47 C 274.08 170.77 275.00 167.49 277.64 167.43 C 280.61 169.34 282.90 172.08 285.43 174.51 C 286.12 170.46 286.69 166.39 287.02 162.30 C 288.42 164.63 289.46 167.56 292.12 168.75 C 294.21 169.82 296.44 170.60 298.63 171.45 C 298.25 175.95 298.50 180.56 300.73 184.59 C 301.37 183.10 302.02 181.61 302.66 180.12 C 304.64 183.57 306.09 187.31 306.62 191.26 C 307.96 191.55 309.31 191.83 310.67 192.11 C 311.76 195.42 311.17 198.88 310.40 202.19 C 311.86 200.85 313.33 199.52 314.80 198.18 C 314.80 202.74 314.35 207.34 315.11 211.86 C 316.46 215.86 320.45 218.16 324.07 219.87 C 324.15 217.67 324.15 215.48 324.03 213.29 C 325.54 215.69 327.24 217.96 328.66 220.42 C 329.94 222.57 329.89 225.15 330.65 227.48 C 332.49 228.39 334.58 228.60 336.57 229.01 C 337.32 232.76 337.55 236.85 339.94 240.02 C 342.26 243.18 344.83 246.30 345.87 250.16 C 347.32 254.18 346.29 258.46 346.27 262.60 C 346.22 265.39 347.10 268.08 347.86 270.73 C 352.26 268.43 354.72 263.67 359.44 261.87 C 360.99 266.89 363.52 271.54 365.99 276.15 C 368.09 277.65 372.12 278.36 373.34 275.42 C 375.61 271.32 377.89 267.14 381.37 263.90 C 384.46 264.43 387.69 264.01 390.65 265.21 C 393.94 266.34 397.67 267.71 401.06 266.15 C 404.00 263.24 404.59 258.09 409.17 256.93 C 407.94 261.89 406.83 266.91 406.80 272.05 C 406.57 273.68 406.94 275.56 406.03 277.01 C 403.19 279.11 399.93 280.57 397.04 282.61 L 396.36 283.05 C 395.14 282.62 393.94 282.20 392.73 281.78 C 388.66 284.30 384.29 286.60 379.46 287.15 C 376.67 287.51 374.33 285.62 371.98 284.44 C 369.67 288.52 366.21 292.96 367.74 297.95 C 369.27 302.57 371.57 306.96 371.98 311.89 C 372.10 315.91 376.57 317.84 376.96 321.78 C 378.08 328.46 380.44 334.86 381.45 341.57 C 382.04 345.62 383.35 349.51 384.74 353.35 C 386.80 358.00 384.10 364.02 388.74 367.52 C 388.21 369.24 386.56 371.24 387.89 372.97 C 389.47 376.03 392.22 378.57 392.88 382.05 C 393.29 387.13 391.05 391.94 390.87 396.99 C 389.75 397.75 388.63 398.52 387.51 399.30 C 386.85 398.29 385.89 397.43 385.60 396.23 C 386.07 394.52 386.90 392.95 387.65 391.35 C 383.56 391.54 378.82 391.15 376.09 394.89 C 373.28 391.49 375.75 387.01 375.96 383.16 C 374.76 383.19 373.57 383.22 372.38 383.26 C 371.50 387.04 371.00 390.98 369.38 394.55 C 366.10 396.25 362.35 393.47 359.06 392.71 C 360.45 390.22 361.91 387.77 363.42 385.36 C 361.33 384.10 359.23 382.84 357.13 381.59 C 354.54 383.60 351.83 385.45 349.03 387.16 C 347.43 385.07 346.57 382.59 346.15 380.02 C 345.51 375.38 340.76 372.77 339.78 368.30 C 339.42 364.85 339.83 360.96 342.41 358.40 C 344.90 355.94 345.28 352.36 346.10 349.14 C 343.90 347.40 341.61 345.77 339.23 344.28 C 337.58 344.98 335.93 345.68 334.28 346.36 C 332.20 344.60 330.28 341.93 327.25 342.13 C 323.78 342.14 320.05 342.06 316.89 343.69 C 315.80 345.20 315.52 347.11 314.96 348.85 C 310.54 346.91 306.61 344.10 302.64 341.42 C 301.77 345.01 301.26 348.67 300.75 352.33 C 297.90 350.01 297.88 346.33 297.94 342.98 C 294.54 345.94 290.20 348.20 287.97 352.26 C 286.83 356.94 288.05 361.76 288.50 366.46 C 289.58 366.66 290.66 366.87 291.75 367.09 C 290.69 369.11 289.60 371.11 288.45 373.08 C 285.27 366.91 286.28 359.70 283.71 353.34 C 282.17 349.35 281.56 345.11 281.16 340.88 C 276.50 343.07 274.39 347.95 271.36 351.79 C 270.22 350.41 269.09 349.03 267.96 347.65 C 267.13 347.72 265.48 347.86 264.65 347.92 C 265.05 351.12 265.88 354.28 265.99 357.51 C 265.52 361.33 263.36 364.88 260.34 367.24 C 258.67 364.11 256.91 361.03 255.05 358.02 C 253.16 358.55 251.27 359.08 249.39 359.62 C 246.35 354.49 243.85 349.00 239.90 344.47 C 239.49 348.19 239.07 351.91 238.55 355.62 C 235.05 355.28 231.54 355.04 228.03 354.90 C 228.03 356.08 228.03 357.26 228.03 358.45 C 230.44 358.69 233.03 358.55 235.22 359.75 C 237.32 361.04 238.75 363.10 240.30 364.97 C 238.16 366.11 235.98 367.18 233.77 368.18 C 233.04 370.94 232.00 373.76 232.36 376.66 C 233.25 377.94 234.40 379.00 235.48 380.12 C 236.10 377.86 236.44 375.51 237.48 373.40 C 239.39 371.73 241.81 370.81 244.03 369.64 C 244.19 365.95 241.91 360.65 246.27 358.65 C 246.67 362.12 247.42 365.63 247.05 369.14 C 246.44 371.08 244.71 372.41 243.79 374.20 C 244.02 376.62 246.44 377.93 247.98 379.53 C 250.37 375.75 251.21 371.34 251.80 366.99 C 255.83 367.84 259.48 369.79 262.85 372.09 C 261.07 374.51 258.89 376.63 256.24 378.09 C 255.48 376.11 254.70 374.14 253.87 372.20 C 251.88 375.24 251.60 379.18 253.27 382.42 C 255.32 383.98 257.73 384.97 260.02 386.13 C 256.23 387.62 252.43 389.09 248.69 390.72 C 248.32 387.66 247.54 384.65 245.97 381.98 C 244.83 386.56 244.45 391.43 242.00 395.59 C 244.59 395.41 247.19 395.28 249.79 395.17 C 249.78 395.71 249.75 396.79 249.74 397.33 C 245.97 397.71 242.31 398.87 239.60 401.63 C 237.49 403.92 232.78 404.46 232.95 408.26 C 232.97 409.63 233.08 410.99 233.22 412.37 C 234.76 412.49 236.32 412.63 237.87 412.77 C 235.81 416.50 234.47 420.57 233.86 424.79 C 233.45 427.90 232.20 430.97 232.45 434.14 C 234.53 438.02 237.86 441.10 239.89 445.04 C 241.55 448.43 244.79 450.55 246.97 453.51 C 247.40 456.21 246.30 458.87 245.29 461.32 C 243.32 464.90 242.59 468.94 242.20 472.96 C 239.69 473.42 237.20 473.96 234.73 474.59 C 235.15 476.05 235.58 477.52 236.01 479.00 C 234.86 479.34 233.71 479.67 232.56 480.00 L 211.15 480.00 C 209.64 476.98 207.41 473.99 207.66 470.45 C 207.80 467.09 208.37 463.77 208.62 460.42 C 206.82 458.15 206.10 455.35 206.09 452.49 C 204.07 451.35 201.85 450.46 200.15 448.85 C 199.39 447.02 199.14 445.03 198.34 443.23 C 196.77 441.23 194.41 440.03 192.75 438.12 C 192.13 435.77 192.36 433.27 191.61 430.95 C 190.64 428.87 189.15 427.09 187.84 425.22 C 189.44 423.31 191.05 421.40 192.69 419.52 C 191.33 419.20 189.96 418.88 188.60 418.57 C 190.24 413.60 191.70 408.55 191.92 403.29 C 193.41 403.20 194.91 403.11 196.41 403.01 C 195.47 401.11 194.15 399.46 192.62 398.02 C 190.49 396.02 189.31 392.93 186.41 391.87 C 181.04 389.50 175.60 386.57 171.95 381.83 C 174.27 375.44 177.82 368.74 176.13 361.72 C 174.14 357.02 168.15 358.36 164.09 357.86 C 159.93 357.91 154.14 356.09 151.61 360.57 C 150.70 365.48 153.67 370.01 154.04 374.83 C 153.08 377.43 150.88 379.29 149.09 381.32 C 148.26 380.51 147.43 379.70 146.60 378.90 C 147.54 377.92 148.47 376.95 149.40 375.99 C 149.14 375.36 148.88 374.73 148.61 374.11 C 146.93 375.18 145.26 376.26 143.60 377.35 C 134.74 369.39 132.01 357.40 126.62 347.24 C 124.51 343.45 126.80 338.89 124.91 335.04 C 123.45 332.43 121.18 330.42 119.19 328.24 C 121.61 324.64 123.36 320.63 124.18 316.36 C 122.85 315.01 121.53 313.65 120.22 312.29 C 123.19 308.12 126.08 303.80 127.74 298.92 C 128.80 296.60 126.92 294.45 126.08 292.38 C 124.74 293.93 123.34 295.42 121.82 296.79 C 121.40 294.33 122.13 291.69 121.35 289.31 C 118.52 285.91 115.14 283.00 112.20 279.69 C 112.73 278.27 113.25 276.85 113.78 275.44 C 112.33 275.02 110.89 274.44 109.37 274.40 C 106.56 276.25 104.44 278.91 102.08 281.27 C 98.98 278.25 96.26 273.33 91.23 274.12 C 90.49 273.20 89.75 272.27 89.02 271.35 C 85.37 273.29 82.66 276.69 82.02 280.84 C 80.95 286.06 81.04 291.45 81.41 296.75 C 80.02 295.29 78.53 293.93 76.99 292.63 C 78.21 287.77 78.29 282.72 79.46 277.86 C 81.05 270.91 82.26 263.72 81.25 256.59 C 80.58 251.95 79.88 247.31 79.82 242.62 C 83.35 245.97 84.21 250.70 83.96 255.36 C 85.02 252.95 85.80 250.36 85.48 247.70 C 84.84 239.92 84.55 232.09 83.26 224.38 C 82.64 220.43 80.39 216.97 79.74 213.03 C 79.15 209.32 78.95 205.55 78.41 201.83 C 75.94 202.58 73.32 203.89 72.81 206.70 C 71.97 211.83 73.07 217.06 72.77 222.24 C 70.06 216.63 69.33 210.40 68.62 204.29 C 68.54 203.13 68.39 201.92 68.78 200.79 C 71.97 194.05 77.62 189.00 83.28 184.34 C 86.80 180.10 92.26 178.66 96.61 175.54 C 99.96 173.09 104.39 172.46 107.25 169.29 C 110.23 166.10 114.16 164.16 117.60 161.56 C 119.36 160.32 118.80 157.91 119.13 156.06 C 119.28 154.01 120.08 152.09 120.86 150.21 C 116.97 148.69 113.57 146.15 109.69 144.63 C 106.26 144.44 102.93 145.64 99.60 146.31 C 93.67 147.40 89.23 152.09 83.28 153.14 C 82.83 148.29 84.21 143.61 86.25 139.26 C 88.61 132.06 91.93 125.24 94.32 118.05 C 95.46 114.85 98.32 111.83 101.97 113.06 C 103.53 111.53 104.97 109.39 107.40 109.42 C 111.02 108.63 115.63 110.67 118.36 107.36 C 120.35 105.11 123.65 105.51 126.08 104.09 C 128.03 102.34 129.41 100.08 131.22 98.21 C 134.47 94.72 139.24 92.97 142.12 89.10 C 144.18 86.04 144.77 82.30 145.74 78.81 C 144.41 78.52 143.09 78.23 141.76 77.93 C 143.82 73.52 149.10 73.93 152.84 71.91 C 156.74 69.83 160.17 67.01 163.71 64.37 C 164.85 65.25 165.99 66.12 167.13 66.99 M 107.60 184.94 C 103.76 184.66 100.25 186.36 96.71 187.56 C 90.97 188.84 88.91 195.11 84.58 198.46 C 87.53 199.26 90.56 199.65 93.60 199.88 C 91.95 200.80 90.39 201.85 88.78 202.83 C 89.30 204.18 89.79 205.54 90.29 206.90 C 88.53 210.36 86.03 214.08 87.26 218.13 C 87.25 221.82 89.77 225.09 93.08 226.48 C 95.75 225.32 97.82 223.12 100.13 221.39 C 101.85 222.33 103.53 223.35 105.14 224.47 C 107.10 227.41 111.18 229.05 110.84 233.13 C 114.21 233.82 118.12 234.32 121.03 232.03 C 126.66 227.61 128.99 220.35 128.53 213.38 C 130.58 211.42 133.25 209.65 133.82 206.66 C 134.89 202.16 136.14 197.71 137.57 193.32 C 138.52 190.49 138.87 186.74 136.02 184.87 C 131.81 182.30 126.61 182.90 121.91 182.11 C 117.04 181.05 111.34 181.18 107.60 184.94 M 203.14 244.67 C 204.70 247.32 202.10 249.54 201.02 251.76 C 200.91 254.54 202.03 257.42 200.71 260.08 C 199.65 258.23 198.95 255.99 197.04 254.81 C 193.91 252.64 191.17 249.96 187.92 247.96 C 184.17 245.62 179.74 244.90 175.71 243.21 C 173.18 242.11 170.51 241.37 167.78 241.02 C 167.36 242.09 166.93 243.16 166.51 244.23 C 163.25 244.92 158.79 245.09 157.60 248.90 C 156.15 254.27 160.65 258.64 162.06 263.51 C 162.58 265.91 164.24 267.72 166.04 269.29 C 166.45 268.97 167.27 268.35 167.68 268.03 C 167.25 266.65 166.82 265.26 166.42 263.88 C 168.47 264.54 170.41 265.49 172.20 266.70 C 174.98 266.39 178.15 264.39 180.73 266.24 C 185.26 269.22 188.82 273.61 193.96 275.66 C 195.12 273.43 196.26 271.19 197.46 268.98 C 198.69 270.75 199.67 272.68 200.50 274.67 C 202.13 274.73 203.76 274.77 205.39 274.80 C 206.57 268.16 211.33 262.43 210.33 255.36 C 211.93 256.69 213.60 257.93 215.34 259.09 C 215.68 254.32 211.26 251.75 209.15 248.10 C 207.01 242.34 204.31 236.82 201.91 231.17 C 199.11 235.51 201.00 240.54 203.14 244.67 M 124.77 245.56 C 124.09 248.67 123.80 251.89 123.91 255.07 C 124.53 258.43 126.08 261.57 126.33 265.01 C 126.51 269.12 129.62 272.08 131.63 275.40 C 132.10 275.52 133.04 275.76 133.51 275.88 C 133.95 272.11 133.71 268.26 134.47 264.54 C 136.51 260.68 141.50 261.95 145.06 261.47 C 144.25 254.60 135.54 253.91 132.56 248.48 C 131.60 246.22 130.81 243.84 129.16 241.96 C 127.68 243.11 125.68 243.86 124.77 245.56 M 137.89 263.86 C 139.08 268.35 139.10 274.32 143.97 276.55 C 147.03 274.64 150.15 271.41 149.53 267.52 C 146.75 264.31 142.05 262.46 137.89 263.86 M 240.85 298.18 C 239.13 297.71 237.35 296.68 235.54 297.34 C 232.82 297.96 231.15 300.33 229.42 302.30 C 226.52 302.42 223.68 303.01 220.84 303.55 C 217.27 304.35 214.02 301.01 210.48 302.40 C 207.05 303.44 203.42 303.43 199.88 303.19 C 196.96 302.65 195.05 299.51 192.04 299.35 C 189.15 300.59 186.42 302.19 183.65 303.69 C 180.91 305.17 180.08 308.42 178.71 311.00 C 177.65 310.85 176.58 310.69 175.51 310.68 C 172.99 313.67 171.26 317.47 167.42 319.09 C 167.68 320.08 167.95 321.08 168.21 322.08 C 164.72 326.34 161.02 331.51 161.78 337.31 C 163.01 336.70 164.23 336.09 165.48 335.55 C 167.93 334.32 170.42 336.36 172.74 337.01 C 174.76 335.28 177.18 334.16 179.87 334.13 C 185.33 334.03 189.73 330.45 194.93 329.32 C 195.62 330.82 196.31 332.32 196.99 333.83 C 193.39 336.57 188.69 336.52 184.58 337.99 C 186.00 339.46 187.46 341.99 189.90 341.25 C 193.38 340.25 196.57 338.08 200.33 338.37 C 200.38 338.83 200.48 339.76 200.52 340.22 C 199.54 340.85 198.57 341.49 197.59 342.13 C 198.04 344.37 198.28 346.71 199.32 348.78 C 202.43 350.89 203.20 345.70 204.02 343.68 C 206.28 343.61 208.55 343.59 210.83 343.58 C 210.33 344.70 209.84 345.83 209.34 346.96 C 210.19 347.68 211.04 348.41 211.89 349.14 C 215.38 345.79 218.09 341.78 221.07 338.01 C 221.84 336.69 223.42 336.68 224.75 336.51 C 228.13 336.31 231.10 334.51 234.03 333.00 C 236.79 331.53 238.26 328.52 240.93 326.95 C 243.27 326.01 245.87 326.09 248.23 325.21 C 249.89 324.28 251.30 322.98 252.86 321.91 C 255.17 320.16 258.24 320.32 260.96 319.81 C 261.45 317.67 261.84 315.52 262.14 313.35 C 260.42 312.89 258.59 312.70 257.02 311.84 C 256.36 309.36 256.51 306.74 255.91 304.24 C 254.36 301.63 252.28 299.39 250.55 296.91 C 249.49 298.45 248.45 299.99 247.42 301.54 C 246.87 301.60 245.77 301.71 245.22 301.77 C 244.21 299.61 243.40 297.36 242.72 295.08 C 242.10 296.12 241.48 297.15 240.85 298.18 M 140.79 343.64 C 140.21 346.52 140.19 349.49 139.46 352.34 C 140.96 353.17 142.46 354.00 143.96 354.83 C 147.11 353.14 151.31 351.79 152.18 347.83 C 152.78 345.70 152.72 342.12 149.88 341.81 C 146.82 341.18 143.22 341.50 140.79 343.64 Z" />
<path fill="#cf8569" opacity="1.00" d=" M 209.65 152.54 C 211.67 149.75 213.20 146.25 216.30 144.51 C 217.80 145.09 219.30 145.68 220.80 146.29 C 216.46 149.23 211.18 153.03 211.67 158.98 C 211.14 163.23 215.64 165.29 218.71 167.03 C 220.23 167.99 221.90 166.87 223.42 166.50 C 224.81 167.88 226.15 169.31 227.56 170.67 C 226.00 172.55 224.17 174.25 221.78 174.97 C 221.45 173.74 221.12 172.50 220.79 171.27 C 219.49 172.06 218.19 172.85 216.90 173.64 C 213.96 171.04 210.16 168.59 209.55 164.38 C 208.92 160.52 207.11 156.07 209.65 152.54 Z" />
<path fill="#cf8569" opacity="1.00" d=" M 93.81 196.64 C 97.25 194.21 100.71 191.81 104.16 189.40 C 112.74 192.77 121.08 196.67 129.74 199.84 C 129.12 203.29 128.09 206.65 126.98 209.98 C 124.60 206.32 120.89 203.98 117.56 201.30 C 116.70 197.61 112.74 196.78 109.54 196.19 C 103.98 195.00 98.47 197.42 93.60 199.88 C 93.65 199.07 93.75 197.45 93.81 196.64 Z" />
<path fill="#cf8569" opacity="1.00" d=" M 355.11 456.40 C 356.05 454.35 357.33 452.49 358.76 450.76 C 359.12 452.32 359.48 453.89 359.81 455.47 C 362.33 454.98 364.94 454.03 367.51 454.63 C 369.55 456.35 370.40 459.25 370.58 461.84 C 369.41 463.83 367.60 465.32 366.23 467.17 C 366.64 469.57 370.21 469.05 372.04 470.02 C 373.26 472.49 374.48 474.95 375.74 477.41 C 376.08 476.11 376.42 474.81 376.76 473.51 C 378.12 473.47 379.47 473.43 380.83 473.41 C 380.73 475.60 380.63 477.80 380.54 480.00 L 312.15 480.00 C 312.60 478.50 312.98 476.98 313.37 475.47 C 315.37 476.01 317.36 477.08 319.46 476.92 C 321.19 476.00 322.55 474.55 324.02 473.28 C 321.47 470.29 317.68 467.48 317.49 463.24 C 318.35 460.68 321.61 460.63 323.75 459.71 C 322.90 458.27 322.05 456.83 321.19 455.41 C 325.09 456.08 329.06 455.87 333.00 456.01 C 332.91 458.44 332.60 460.88 331.87 463.22 C 330.60 461.42 329.39 459.59 328.12 457.80 C 326.74 460.86 328.18 464.06 329.10 467.01 C 330.89 466.23 332.82 465.63 334.35 464.37 C 336.34 462.33 337.03 459.46 337.93 456.85 C 341.08 456.30 344.24 455.40 347.46 455.60 C 350.45 457.06 349.77 461.10 350.18 463.86 C 350.88 460.75 353.94 459.22 355.11 456.40 Z" />
</g>
<g id="#b5a086ff">
<path fill="#b5a086" opacity="1.00" d=" M 72.81 206.70 C 73.32 203.89 75.94 202.58 78.41 201.83 C 78.95 205.55 79.15 209.32 79.74 213.03 C 80.39 216.97 82.64 220.43 83.26 224.38 C 84.55 232.09 84.84 239.92 85.48 247.70 C 85.80 250.36 85.02 252.95 83.96 255.36 C 84.21 250.70 83.35 245.97 79.82 242.62 C 79.88 247.31 80.58 251.95 81.25 256.59 C 82.26 263.72 81.05 270.91 79.46 277.86 C 78.29 282.72 78.21 287.77 76.99 292.63 C 72.52 289.35 70.02 283.84 64.72 281.61 C 68.74 280.61 73.57 280.84 76.74 277.84 C 77.81 274.50 77.47 270.89 78.40 267.51 C 80.51 259.54 79.70 251.06 77.59 243.18 C 75.59 236.29 74.64 229.16 72.77 222.24 C 73.07 217.06 71.97 211.83 72.81 206.70 Z" />
<path fill="#b5a086" opacity="1.00" d=" M 124.77 245.56 C 125.68 243.86 127.68 243.11 129.16 241.96 C 130.81 243.84 131.60 246.22 132.56 248.48 C 135.54 253.91 144.25 254.60 145.06 261.47 C 141.50 261.95 136.51 260.68 134.47 264.54 C 133.71 268.26 133.95 272.11 133.51 275.88 C 133.04 275.76 132.10 275.52 131.63 275.40 C 129.62 272.08 126.51 269.12 126.33 265.01 C 126.08 261.57 124.53 258.43 123.91 255.07 C 123.80 251.89 124.09 248.67 124.77 245.56 Z" />
<path fill="#b5a086" opacity="1.00" d=" M 82.02 280.84 C 82.66 276.69 85.37 273.29 89.02 271.35 C 89.75 272.27 90.49 273.20 91.23 274.12 C 96.26 273.33 98.98 278.25 102.08 281.27 C 104.44 278.91 106.56 276.25 109.37 274.40 C 110.89 274.44 112.33 275.02 113.78 275.44 C 113.25 276.85 112.73 278.27 112.20 279.69 C 115.14 283.00 118.52 285.91 121.35 289.31 C 122.13 291.69 121.40 294.33 121.82 296.79 C 123.34 295.42 124.74 293.93 126.08 292.38 C 126.92 294.45 128.80 296.60 127.74 298.92 C 126.08 303.80 123.19 308.12 120.22 312.29 C 121.53 313.65 122.85 315.01 124.18 316.36 C 123.36 320.63 121.61 324.64 119.19 328.24 C 121.18 330.42 123.45 332.43 124.91 335.04 C 126.80 338.89 124.51 343.45 126.62 347.24 C 132.01 357.40 134.74 369.39 143.60 377.35 C 145.26 376.26 146.93 375.18 148.61 374.11 C 148.88 374.73 149.14 375.36 149.40 375.99 C 148.47 376.95 147.54 377.92 146.60 378.90 C 147.43 379.70 148.26 380.51 149.09 381.32 C 150.88 379.29 153.08 377.43 154.04 374.83 C 153.67 370.01 150.70 365.48 151.61 360.57 C 154.14 356.09 159.93 357.91 164.09 357.86 C 168.15 358.36 174.14 357.02 176.13 361.72 C 177.82 368.74 174.27 375.44 171.95 381.83 C 175.60 386.57 181.04 389.50 186.41 391.87 C 189.31 392.93 190.49 396.02 192.62 398.02 C 194.15 399.46 195.47 401.11 196.41 403.01 C 194.91 403.11 193.41 403.20 191.92 403.29 C 191.70 408.55 190.24 413.60 188.60 418.57 C 189.96 418.88 191.33 419.20 192.69 419.52 C 191.05 421.40 189.44 423.31 187.84 425.22 C 189.15 427.09 190.64 428.87 191.61 430.95 C 192.36 433.27 192.13 435.77 192.75 438.12 C 194.41 440.03 196.77 441.23 198.34 443.23 C 199.14 445.03 199.39 447.02 200.15 448.85 C 201.85 450.46 204.07 451.35 206.09 452.49 C 206.10 455.35 206.82 458.15 208.62 460.42 C 208.37 463.77 207.80 467.09 207.66 470.45 C 207.41 473.99 209.64 476.98 211.15 480.00 L 183.52 480.00 C 182.55 470.53 179.86 460.77 173.57 453.39 C 170.42 449.58 166.17 446.75 163.64 442.42 C 161.68 439.13 159.20 436.21 156.64 433.38 C 153.08 429.42 152.70 423.72 149.46 419.56 C 145.70 414.70 141.45 410.23 137.07 405.92 C 134.01 402.92 131.78 399.23 129.01 395.98 C 118.76 385.32 114.59 370.67 106.32 358.67 C 104.38 355.51 103.34 351.88 101.22 348.82 C 99.35 346.13 97.85 343.15 97.23 339.91 C 95.57 331.73 92.10 324.10 89.93 316.06 C 87.07 309.64 84.23 303.20 81.41 296.75 C 81.04 291.45 80.95 286.06 82.02 280.84 Z" />
</g>
</svg>
