<?xml version="1.0" encoding="UTF-8" ?>
<!DOCTYPE svg PUBLIC "-//W3C//DTD SVG 1.1//EN" "http://www.w3.org/Graphics/SVG/1.1/DTD/svg11.dtd">
<svg width="128pt" height="128pt" viewBox="0 0 128 128" version="1.1" xmlns="http://www.w3.org/2000/svg">
<g id="#9ce3e5ff">
<path fill="#9ce3e5" opacity="1.00" d=" M 20.37 20.37 C 31.96 8.61 48.49 1.83 65.01 2.27 C 80.20 2.27 95.20 8.38 106.31 18.69 C 118.84 30.20 126.33 47.08 126.09 64.12 C 124.39 64.14 122.70 64.16 121.01 64.18 C 121.01 59.40 120.34 54.61 119.05 50.01 C 115.65 35.15 105.38 22.26 92.20 14.79 C 77.11 6.11 57.94 5.04 41.96 11.92 C 26.41 18.55 13.73 32.40 9.69 48.95 C 8.12 53.84 7.45 58.97 7.30 64.09 C 5.80 64.06 4.30 64.02 2.81 63.98 C 2.67 61.95 2.53 59.92 2.52 57.89 C 3.89 43.83 10.30 30.29 20.37 20.37 Z" />
</g>
<g id="#3ab1d3ff">
<path fill="#3ab1d3" opacity="1.00" d=" M 41.96 11.92 C 57.94 5.04 77.11 6.11 92.20 14.79 C 105.38 22.26 115.65 35.15 119.05 50.01 C 115.01 44.05 111.68 37.55 106.73 32.26 C 95.91 20.75 80.76 13.01 64.86 12.30 C 47.85 12.30 31.65 20.97 20.56 33.58 C 16.24 38.20 13.60 44.02 9.69 48.95 C 13.73 32.40 26.41 18.55 41.96 11.92 Z" />
</g>
<g id="#36c7ceff">
<path fill="#36c7ce" opacity="1.00" d=" M 20.56 33.58 C 31.65 20.97 47.85 12.30 64.86 12.30 C 80.76 13.01 95.91 20.75 106.73 32.26 C 111.68 37.55 115.01 44.05 119.05 50.01 C 120.34 54.61 121.01 59.40 121.01 64.18 C 120.94 64.86 120.79 66.23 120.72 66.91 C 111.00 57.84 101.93 48.09 92.37 38.84 C 91.65 38.17 90.92 37.52 90.17 36.88 C 85.89 36.33 81.55 36.46 77.27 36.96 C 72.26 44.23 68.26 52.14 63.03 59.26 C 57.89 52.06 53.85 44.15 48.79 36.89 C 44.49 36.43 40.16 36.46 35.85 36.83 C 35.42 43.49 35.83 50.15 35.67 56.81 C 31.37 56.96 27.06 57.00 22.76 57.08 C 22.76 58.70 22.76 60.31 22.76 61.93 C 27.14 62.03 31.52 62.03 35.90 62.18 C 35.83 64.00 35.76 65.82 35.70 67.64 C 31.39 67.66 27.08 67.67 22.78 67.84 C 22.74 69.61 22.70 71.39 22.66 73.16 C 26.70 75.32 31.38 74.79 35.78 74.96 C 35.78 80.36 35.34 85.78 35.95 91.17 C 45.42 101.37 55.88 110.63 65.17 121.01 C 47.28 121.11 29.35 112.76 18.77 98.20 C 11.38 88.42 7.67 76.27 7.30 64.09 C 7.45 58.97 8.12 53.84 9.69 48.95 C 13.60 44.02 16.24 38.20 20.56 33.58 Z" />
</g>
<g id="#ebffffff">
<path fill="#ebffff" opacity="1.00" d=" M 35.85 36.83 C 40.16 36.46 44.49 36.43 48.79 36.89 C 53.85 44.15 57.89 52.06 63.03 59.26 C 68.26 52.14 72.26 44.23 77.27 36.96 C 81.55 36.46 85.89 36.33 90.17 36.88 C 90.54 43.54 90.01 50.21 90.41 56.86 C 90.87 56.88 91.79 56.92 92.25 56.94 C 95.89 57.00 99.54 56.96 103.18 57.05 C 103.17 58.72 103.17 60.38 103.17 62.04 C 98.82 62.16 94.47 62.14 90.13 62.25 C 90.13 64.06 90.14 65.87 90.16 67.68 C 94.50 67.68 98.84 67.65 103.17 67.82 C 103.17 69.51 103.16 71.21 103.15 72.90 C 98.84 72.95 94.53 72.98 90.22 73.10 C 90.12 79.14 90.41 85.18 90.07 91.21 C 86.18 91.54 82.25 91.57 78.37 91.02 C 78.35 81.89 78.42 72.76 78.35 63.63 C 78.42 61.23 78.46 58.82 78.35 56.42 C 72.81 63.48 68.15 71.21 63.40 78.81 C 60.96 77.12 59.55 74.43 57.94 72.03 C 55.53 68.14 52.87 64.41 50.40 60.56 C 49.43 59.00 48.48 57.43 47.49 55.89 C 47.27 67.73 47.78 79.58 47.22 91.41 C 43.46 91.28 39.70 91.41 35.95 91.17 C 35.34 85.78 35.78 80.36 35.78 74.96 C 35.77 74.50 35.75 73.58 35.74 73.12 C 31.39 72.84 27.01 72.87 22.66 73.16 C 22.70 71.39 22.74 69.61 22.78 67.84 C 27.08 67.67 31.39 67.66 35.70 67.64 C 35.76 65.82 35.83 64.00 35.90 62.18 C 31.52 62.03 27.14 62.03 22.76 61.93 C 22.76 60.31 22.76 58.70 22.76 57.08 C 27.06 57.00 31.37 56.96 35.67 56.81 C 35.83 50.15 35.42 43.49 35.85 36.83 Z" />
</g>
<g id="#1d7987ff">
<path fill="#1d7987" opacity="1.00" d=" M 90.17 36.88 C 90.92 37.52 91.65 38.17 92.37 38.84 C 92.37 44.87 92.43 50.91 92.25 56.94 C 91.79 56.92 90.87 56.88 90.41 56.86 C 90.01 50.21 90.54 43.54 90.17 36.88 Z" />
<path fill="#1d7987" opacity="1.00" d=" M 47.49 55.89 C 48.48 57.43 49.43 59.00 50.40 60.56 C 49.16 71.16 49.94 81.85 49.86 92.49 C 48.98 92.11 48.11 91.74 47.22 91.41 C 47.78 79.58 47.27 67.73 47.49 55.89 Z" />
<path fill="#1d7987" opacity="1.00" d=" M 63.40 78.81 C 68.15 71.21 72.81 63.48 78.35 56.42 C 78.46 58.82 78.42 61.23 78.35 63.63 C 72.70 68.01 70.53 75.20 65.31 79.96 C 64.83 79.67 63.88 79.10 63.40 78.81 Z" />
<path fill="#1d7987" opacity="1.00" d=" M 91.00 73.78 C 92.46 74.64 92.10 76.57 92.32 77.98 C 92.47 82.73 92.59 87.52 91.87 92.23 C 91.08 91.30 90.69 90.23 90.70 89.02 C 90.43 83.94 90.46 78.84 91.00 73.78 Z" />
</g>
<g id="#359bb1ff">
<path fill="#359bb1" opacity="1.00" d=" M 92.37 38.84 C 101.93 48.09 111.00 57.84 120.72 66.91 C 120.79 66.23 120.94 64.86 121.01 64.18 C 122.70 64.16 124.39 64.14 126.09 64.12 C 126.05 66.07 126.03 68.01 126.04 69.96 C 124.43 69.35 122.83 68.75 121.22 68.15 C 119.59 75.22 118.70 82.61 115.10 89.05 C 106.44 107.88 86.45 119.76 66.09 121.02 L 65.17 121.01 C 55.88 110.63 45.42 101.37 35.95 91.17 C 39.70 91.41 43.46 91.28 47.22 91.41 C 48.11 91.74 48.98 92.11 49.86 92.49 C 49.94 81.85 49.16 71.16 50.40 60.56 C 52.87 64.41 55.53 68.14 57.94 72.03 C 59.55 74.43 60.96 77.12 63.40 78.81 C 63.88 79.10 64.83 79.67 65.31 79.96 C 70.53 75.20 72.70 68.01 78.35 63.63 C 78.42 72.76 78.35 81.89 78.37 91.02 C 82.25 91.57 86.18 91.54 90.07 91.21 C 90.41 85.18 90.12 79.14 90.22 73.10 C 94.53 72.98 98.84 72.95 103.15 72.90 C 103.16 71.21 103.17 69.51 103.17 67.82 C 98.84 67.65 94.50 67.68 90.16 67.68 C 90.14 65.87 90.13 64.06 90.13 62.25 C 94.47 62.14 98.82 62.16 103.17 62.04 C 103.17 60.38 103.17 58.72 103.18 57.05 C 99.54 56.96 95.89 57.00 92.25 56.94 C 92.43 50.91 92.37 44.87 92.37 38.84 M 91.00 73.78 C 90.46 78.84 90.43 83.94 90.70 89.02 C 90.69 90.23 91.08 91.30 91.87 92.23 C 92.59 87.52 92.47 82.73 92.32 77.98 C 92.10 76.57 92.46 74.64 91.00 73.78 Z" />
<path fill="#359bb1" opacity="1.00" d=" M 22.66 73.16 C 27.01 72.87 31.39 72.84 35.74 73.12 C 35.75 73.58 35.77 74.50 35.78 74.96 C 31.38 74.79 26.70 75.32 22.66 73.16 Z" />
</g>
<g id="#4f97a5ff">
<path fill="#4f97a5" opacity="1.00" d=" M 29.99 116.01 C 10.97 103.74 -0.18 80.40 2.52 57.89 C 2.53 59.92 2.67 61.95 2.81 63.98 C 4.30 64.02 5.80 64.06 7.30 64.09 C 7.67 76.27 11.38 88.42 18.77 98.20 C 29.35 112.76 47.28 121.11 65.17 121.01 L 66.09 121.02 C 67.47 122.67 68.86 124.31 70.25 125.95 C 56.19 127.16 41.73 123.98 29.99 116.01 Z" />
</g>
<g id="#388395ff">
<path fill="#388395" opacity="1.00" d=" M 121.22 68.15 C 122.83 68.75 124.43 69.35 126.04 69.96 C 124.93 83.57 119.05 96.72 109.63 106.61 C 99.44 117.54 85.17 124.68 70.25 125.95 C 68.86 124.31 67.47 122.67 66.09 121.02 C 86.45 119.76 106.44 107.88 115.10 89.05 C 118.70 82.61 119.59 75.22 121.22 68.15 Z" />
</g>
</svg>
