<?xml version="1.0" encoding="UTF-8" ?>
<!DOCTYPE svg PUBLIC "-//W3C//DTD SVG 1.1//EN" "http://www.w3.org/Graphics/SVG/1.1/DTD/svg11.dtd">
<svg width="256pt" height="256pt" viewBox="0 0 256 256" version="1.1" xmlns="http://www.w3.org/2000/svg">
<g id="#eeeeeeff">
<path fill="#eeeeee" opacity="1.00" d=" M 0.00 0.00 L 256.00 0.00 L 256.00 256.00 L 0.00 256.00 L 0.00 0.00 M 117.09 43.09 C 91.60 68.60 66.10 94.10 40.63 119.63 C 37.79 122.43 34.90 125.19 32.32 128.23 C 32.72 128.41 33.53 128.78 33.93 128.97 C 36.75 133.10 40.66 136.30 44.11 139.89 C 72.01 167.90 100.10 195.71 127.88 223.83 C 128.96 222.65 130.03 221.46 131.11 220.29 C 146.63 205.09 161.81 189.54 177.23 174.23 C 192.10 159.07 207.46 144.38 222.05 128.96 L 223.04 128.66 C 221.72 125.60 218.90 123.66 216.68 121.32 C 189.59 94.08 162.37 66.97 135.36 39.65 C 134.34 38.66 133.30 37.66 132.11 36.89 C 130.88 35.27 129.50 33.78 128.01 32.40 C 124.17 35.75 120.72 39.51 117.09 43.09 Z" />
</g>
<g id="#ffb74dff">
<path fill="#ffb74d" opacity="1.00" d=" M 117.09 43.09 C 120.72 39.51 124.17 35.75 128.01 32.40 C 129.50 33.78 130.88 35.27 132.11 36.89 C 130.76 36.33 129.39 35.83 128.03 35.33 C 127.88 43.44 128.00 51.54 128.01 59.64 C 127.81 59.87 127.40 60.32 127.20 60.54 C 106.97 80.20 87.39 100.51 67.33 120.34 C 64.82 122.81 62.32 125.31 59.96 127.94 C 61.34 127.98 62.71 128.02 64.09 128.04 C 62.66 128.87 58.89 129.32 60.34 131.62 C 62.19 134.37 66.08 133.81 68.97 134.05 C 77.98 133.83 86.99 134.16 96.00 133.93 C 101.83 134.05 105.57 129.01 109.40 125.40 C 115.15 119.90 119.89 113.20 126.77 109.01 C 128.56 116.21 127.93 123.66 127.97 131.00 C 127.95 138.00 128.06 145.00 127.89 152.00 C 127.75 155.23 128.18 158.45 129.00 161.58 C 128.71 161.67 128.14 161.87 127.85 161.97 C 99.63 151.89 71.33 142.03 43.12 131.90 C 40.08 130.85 36.95 130.06 33.93 128.97 C 33.53 128.78 32.72 128.41 32.32 128.23 C 34.90 125.19 37.79 122.43 40.63 119.63 C 66.10 94.10 91.60 68.60 117.09 43.09 Z" />
</g>
<g id="#f7b14aff">
<path fill="#f7b14a" opacity="1.00" d=" M 128.03 35.33 C 129.39 35.83 130.76 36.33 132.11 36.89 C 133.30 37.66 134.34 38.66 135.36 39.65 C 162.37 66.97 189.59 94.08 216.68 121.32 C 218.90 123.66 221.72 125.60 223.04 128.66 L 222.05 128.96 C 211.19 132.09 200.67 136.28 189.99 139.97 C 169.63 147.08 149.33 154.39 129.00 161.58 C 128.18 158.45 127.75 155.23 127.89 152.00 C 128.06 145.00 127.95 138.00 127.97 131.00 C 127.93 123.66 128.56 116.21 126.77 109.01 C 119.89 113.20 115.15 119.90 109.40 125.40 C 105.57 129.01 101.83 134.05 96.00 133.93 C 86.99 134.16 77.98 133.83 68.97 134.05 C 66.08 133.81 62.19 134.37 60.34 131.62 C 58.89 129.32 62.66 128.87 64.09 128.04 C 74.06 128.10 84.03 127.97 94.00 128.10 C 96.20 128.06 98.46 128.18 100.60 127.59 C 102.22 126.60 103.53 125.20 104.87 123.87 C 112.35 116.11 120.13 108.64 127.61 100.88 C 135.32 107.65 142.24 115.25 149.54 122.45 C 152.00 124.69 154.16 128.26 157.94 127.99 C 170.42 127.90 182.93 128.17 195.41 127.82 C 194.32 126.50 193.23 125.19 192.07 123.95 C 170.74 102.49 149.17 81.26 128.01 59.64 C 128.00 51.54 127.88 43.44 128.03 35.33 Z" />
</g>
<g id="#f4f4f4ff">
<path fill="#f4f4f4" opacity="1.00" d=" M 127.20 60.54 C 127.40 60.32 127.81 59.87 128.01 59.64 C 149.17 81.26 170.74 102.49 192.07 123.95 C 193.23 125.19 194.32 126.50 195.41 127.82 C 182.93 128.17 170.42 127.90 157.94 127.99 C 154.16 128.26 152.00 124.69 149.54 122.45 C 142.24 115.25 135.32 107.65 127.61 100.88 C 128.38 91.27 127.75 81.63 128.05 72.00 C 128.21 68.16 127.82 64.33 127.20 60.54 Z" />
</g>
<g id="#fcfcfcff">
<path fill="#fcfcfc" opacity="1.00" d=" M 67.33 120.34 C 87.39 100.51 106.97 80.20 127.20 60.54 C 127.82 64.33 128.21 68.16 128.05 72.00 C 127.75 81.63 128.38 91.27 127.61 100.88 C 120.13 108.64 112.35 116.11 104.87 123.87 C 103.53 125.20 102.22 126.60 100.60 127.59 C 98.46 128.18 96.20 128.06 94.00 128.10 C 84.03 127.97 74.06 128.10 64.09 128.04 C 62.71 128.02 61.34 127.98 59.96 127.94 C 62.32 125.31 64.82 122.81 67.33 120.34 Z" />
</g>
<g id="#ffcc80ff">
<path fill="#ffcc80" opacity="1.00" d=" M 33.93 128.97 C 36.95 130.06 40.08 130.85 43.12 131.90 C 71.33 142.03 99.63 151.89 127.85 161.97 C 128.20 181.49 127.81 201.02 128.03 220.55 C 129.06 220.46 130.08 220.38 131.11 220.29 C 130.03 221.46 128.96 222.65 127.88 223.83 C 100.10 195.71 72.01 167.90 44.11 139.89 C 40.66 136.30 36.75 133.10 33.93 128.97 Z" />
</g>
<g id="#f7c57bff">
<path fill="#f7c57b" opacity="1.00" d=" M 189.99 139.97 C 200.67 136.28 211.19 132.09 222.05 128.96 C 207.46 144.38 192.10 159.07 177.23 174.23 C 161.81 189.54 146.63 205.09 131.11 220.29 C 130.08 220.38 129.06 220.46 128.03 220.55 C 127.81 201.02 128.20 181.49 127.85 161.97 C 128.14 161.87 128.71 161.67 129.00 161.58 C 149.33 154.39 169.63 147.08 189.99 139.97 Z" />
</g>
</svg>
