<?xml version="1.0" encoding="UTF-8" ?>
<!DOCTYPE svg PUBLIC "-//W3C//DTD SVG 1.1//EN" "http://www.w3.org/Graphics/SVG/1.1/DTD/svg11.dtd">
<svg width="256pt" height="256pt" viewBox="0 0 256 256" version="1.1" xmlns="http://www.w3.org/2000/svg">
<g id="#6cb0fdff">
<path fill="#6cb0fd" opacity="1.00" d=" M 75.83 11.66 C 89.84 7.28 104.48 5.43 118.99 3.61 C 130.33 3.25 141.72 2.94 153.05 3.67 C 165.64 6.18 178.68 8.57 189.78 15.38 C 198.80 19.85 206.90 25.98 214.23 32.83 C 222.05 39.36 228.20 47.56 234.61 55.41 C 236.48 57.99 238.09 60.73 239.77 63.43 C 233.49 58.91 227.52 53.98 220.74 50.19 C 214.29 45.30 206.68 42.41 199.72 38.38 C 191.90 34.61 183.47 32.32 175.27 29.54 C 156.25 24.65 135.97 24.48 116.95 29.45 C 108.87 32.36 100.47 34.61 92.88 38.71 C 86.87 42.48 80.14 45.10 74.71 49.75 C 56.63 61.37 40.97 78.76 36.23 100.21 C 33.72 107.21 34.20 114.70 34.21 121.99 C 34.28 126.03 34.35 130.13 35.55 134.03 C 37.17 139.68 37.92 145.56 39.90 151.11 C 41.53 155.72 43.68 160.12 45.25 164.75 C 46.54 168.57 49.02 171.82 50.57 175.53 C 53.19 181.48 57.27 186.61 59.85 192.58 C 46.55 188.78 33.46 182.31 24.41 171.56 C 16.29 163.09 11.69 152.07 7.92 141.12 C 5.80 134.25 5.21 127.04 3.66 120.04 C 3.04 111.70 3.03 103.29 3.60 94.94 C 5.36 86.65 6.57 78.05 10.73 70.53 C 15.69 58.50 24.08 48.31 33.19 39.19 C 41.50 31.70 49.71 23.79 59.79 18.68 C 65.12 16.31 70.37 13.72 75.83 11.66 Z" />
<path fill="#6cb0fd" opacity="1.00" d=" M 78.53 79.52 C 82.99 77.14 87.81 74.86 93.01 75.26 C 122.91 75.32 152.82 75.10 182.73 75.37 C 181.68 84.16 177.43 93.25 169.11 97.23 C 159.41 102.52 148.06 100.03 137.54 100.58 C 137.40 119.73 137.55 138.88 137.47 158.03 C 137.08 163.43 135.18 168.73 132.39 173.36 C 129.48 176.79 126.35 180.19 122.43 182.51 C 117.59 185.51 111.84 186.61 106.22 186.85 C 107.24 158.06 109.91 129.35 110.74 100.55 C 95.90 100.56 81.05 100.74 66.21 100.45 C 67.53 92.31 71.22 83.95 78.53 79.52 Z" />
</g>
<g id="#2b2e7cff">
<path fill="#2b2e7c" opacity="1.00" d=" M 196.06 58.87 C 210.85 66.16 224.03 76.76 234.46 89.53 C 242.58 100.10 248.93 112.29 251.34 125.49 C 254.52 136.26 253.91 147.65 253.28 158.73 C 251.29 167.75 249.67 177.07 245.20 185.28 C 239.01 199.08 228.66 210.50 217.47 220.46 C 207.74 228.43 197.63 236.24 185.96 241.18 C 177.68 245.74 168.42 247.98 159.28 250.09 C 143.34 254.16 126.60 254.30 110.36 252.19 C 97.59 249.88 84.67 247.88 72.29 243.90 C 65.10 240.64 57.63 237.59 51.45 232.56 C 35.16 220.55 23.54 203.41 14.31 185.64 C 16.81 187.08 19.02 188.91 21.18 190.80 C 33.44 199.87 46.06 208.68 60.08 214.87 C 70.79 220.75 82.80 223.53 94.53 226.59 C 110.63 229.52 127.63 229.38 143.27 224.22 C 163.52 218.72 181.64 207.08 197.09 193.10 C 210.89 180.15 222.58 163.55 225.19 144.41 C 226.37 132.86 225.99 121.04 222.95 109.78 C 217.48 91.19 207.25 74.52 196.06 58.87 Z" />
</g>
</svg>
