<?xml version="1.0" encoding="UTF-8" ?>
<!DOCTYPE svg PUBLIC "-//W3C//DTD SVG 1.1//EN" "http://www.w3.org/Graphics/SVG/1.1/DTD/svg11.dtd">
<svg width="128pt" height="128pt" viewBox="0 0 128 128" version="1.1" xmlns="http://www.w3.org/2000/svg">
<g id="#ece638ff">
<path fill="#ece638" opacity="1.00" d=" M 43.46 11.24 C 48.62 6.84 55.05 3.31 62.02 3.61 C 67.99 3.59 73.38 6.59 78.17 9.86 C 88.45 16.78 101.15 17.70 112.98 19.95 C 117.86 20.87 122.36 24.14 124.01 28.93 C 126.58 36.24 125.06 44.27 122.42 51.33 C 113.01 38.08 100.31 25.70 84.04 21.86 C 82.79 21.47 81.53 21.08 80.28 20.68 C 75.60 18.39 70.75 16.40 65.64 15.29 C 58.35 13.35 50.69 13.44 43.46 11.24 Z" />
</g>
<g id="#79b553ff">
<path fill="#79b553" opacity="1.00" d=" M 41.97 12.27 C 42.34 12.01 43.09 11.49 43.46 11.24 C 50.69 13.44 58.35 13.35 65.64 15.29 C 70.75 16.40 75.60 18.39 80.28 20.68 C 66.91 19.67 53.07 22.26 41.76 29.70 C 29.10 37.63 20.18 51.14 17.97 65.93 C 16.37 75.05 17.80 84.31 19.84 93.23 C 13.22 84.17 13.05 72.23 14.61 61.56 C 17.70 42.52 28.84 25.94 41.97 12.27 Z" />
</g>
<g id="#bad047ff">
<path fill="#bad047" opacity="1.00" d=" M 17.55 21.56 C 22.64 13.42 33.15 11.86 41.97 12.27 C 28.84 25.94 17.70 42.52 14.61 61.56 C 13.05 72.23 13.22 84.17 19.84 93.23 C 22.56 98.77 25.34 104.31 29.03 109.28 C 20.52 107.71 11.48 105.19 5.44 98.58 C 2.07 95.07 0.64 90.24 0.00 85.53 L 0.00 82.48 C 0.52 71.47 6.84 62.07 9.30 51.55 C 12.16 41.60 12.14 30.64 17.55 21.56 Z" />
</g>
<g id="#075229ff">
<path fill="#075229" opacity="1.00" d=" M 41.76 29.70 C 53.07 22.26 66.91 19.67 80.28 20.68 C 81.53 21.08 82.79 21.47 84.04 21.86 C 90.74 26.81 97.40 32.45 100.84 40.25 C 105.84 51.19 106.14 64.03 102.45 75.41 C 100.28 82.29 95.98 88.20 91.86 94.03 C 81.97 102.98 69.41 109.20 56.01 110.28 C 47.02 111.00 37.96 110.41 29.03 109.28 C 25.34 104.31 22.56 98.77 19.84 93.23 C 17.80 84.31 16.37 75.05 17.97 65.93 C 20.18 51.14 29.10 37.63 41.76 29.70 M 59.42 29.61 C 42.30 31.69 27.76 47.59 28.29 65.02 C 28.24 77.23 36.08 88.80 47.00 94.00 C 59.69 100.26 76.31 97.40 85.85 86.84 C 93.00 79.31 95.08 68.22 93.44 58.21 C 92.00 49.91 88.75 41.37 82.05 35.89 C 75.87 30.60 67.39 28.63 59.42 29.61 Z" />
</g>
<g id="#2e8260ff">
<path fill="#2e8260" opacity="1.00" d=" M 84.04 21.86 C 100.31 25.70 113.01 38.08 122.42 51.33 C 122.55 51.66 122.83 52.32 122.96 52.64 C 119.26 58.24 116.88 64.59 113.14 70.16 C 107.18 79.02 100.54 87.65 91.86 94.03 C 95.98 88.20 100.28 82.29 102.45 75.41 C 106.14 64.03 105.84 51.19 100.84 40.25 C 97.40 32.45 90.74 26.81 84.04 21.86 Z" />
</g>
<g id="#0193d6ff">
<path fill="#0193d6" opacity="1.00" d=" M 113.14 70.16 C 116.88 64.59 119.26 58.24 122.96 52.64 C 125.26 57.01 127.20 61.61 128.00 66.50 L 128.00 73.59 C 127.02 78.07 124.88 82.34 121.46 85.46 C 116.29 90.51 109.06 92.29 103.04 96.03 C 93.69 101.34 86.07 109.01 78.06 116.05 C 72.54 120.90 65.60 124.95 57.99 124.35 C 46.84 123.36 36.46 117.54 29.03 109.28 C 37.96 110.41 47.02 111.00 56.01 110.28 C 69.41 109.20 81.97 102.98 91.86 94.03 C 100.54 87.65 107.18 79.02 113.14 70.16 Z" />
</g>
</svg>
