<?xml version="1.0" encoding="UTF-8" ?>
<!DOCTYPE svg PUBLIC "-//W3C//DTD SVG 1.1//EN" "http://www.w3.org/Graphics/SVG/1.1/DTD/svg11.dtd">
<svg width="300pt" height="300pt" viewBox="0 0 300 300" version="1.1" xmlns="http://www.w3.org/2000/svg">
<g id="#133b55ff">
<path fill="#133b55" opacity="1.00" d=" M 0.00 0.00 L 300.00 0.00 L 300.00 300.00 L 0.00 300.00 L 0.00 0.00 M 70.75 27.08 C 70.44 33.77 70.47 40.48 70.75 47.17 C 102.50 47.42 134.25 47.20 166.00 47.28 C 173.02 47.38 180.24 46.72 187.03 48.91 C 199.54 52.47 210.18 61.91 215.15 73.93 C 219.88 84.68 219.53 97.14 215.59 108.08 C 213.12 112.91 210.51 117.77 206.64 121.63 C 198.59 130.34 186.85 135.48 174.98 135.40 C 156.95 135.43 138.92 135.37 120.89 135.42 C 122.32 139.00 124.49 142.19 126.50 145.45 C 151.08 186.20 175.55 227.02 200.25 267.69 C 205.81 264.35 211.43 261.09 216.92 257.63 C 216.54 256.54 216.18 255.43 215.62 254.42 C 196.64 223.05 177.86 191.55 158.87 160.18 C 158.06 158.75 157.35 157.27 156.65 155.79 C 167.70 155.08 178.98 156.68 189.83 153.85 C 211.65 148.70 230.79 131.14 236.01 109.12 C 237.19 107.24 237.29 104.90 237.78 102.78 C 239.58 90.29 238.71 77.16 233.50 65.54 C 226.34 48.73 211.56 35.39 194.12 29.97 C 182.82 26.20 170.73 27.00 159.00 26.87 C 129.59 27.01 100.16 26.60 70.75 27.08 Z" />
</g>
<g id="#71f3d0ff">
<path fill="#71f3d0" opacity="1.00" d=" M 70.75 27.08 C 100.16 26.60 129.59 27.01 159.00 26.87 C 170.73 27.00 182.82 26.20 194.12 29.97 C 211.56 35.39 226.34 48.73 233.50 65.54 C 238.71 77.16 239.58 90.29 237.78 102.78 C 237.29 104.90 237.19 107.24 236.01 109.12 C 233.48 110.31 230.67 111.14 227.91 110.21 C 224.22 108.95 220.55 110.51 217.08 111.68 C 216.58 110.48 216.08 109.28 215.59 108.08 C 219.53 97.14 219.88 84.68 215.15 73.93 C 210.18 61.91 199.54 52.47 187.03 48.91 C 180.24 46.72 173.02 47.38 166.00 47.28 C 134.25 47.20 102.50 47.42 70.75 47.17 C 70.47 40.48 70.44 33.77 70.75 27.08 Z" />
</g>
<g id="#65b7e6ff">
<path fill="#65b7e6" opacity="1.00" d=" M 206.64 121.63 C 210.51 117.77 213.12 112.91 215.59 108.08 C 216.08 109.28 216.58 110.48 217.08 111.68 C 220.55 110.51 224.22 108.95 227.91 110.21 C 230.67 111.14 233.48 110.31 236.01 109.12 C 230.79 131.14 211.65 148.70 189.83 153.85 C 178.98 156.68 167.70 155.08 156.65 155.79 C 157.35 157.27 158.06 158.75 158.87 160.18 C 177.86 191.55 196.64 223.05 215.62 254.42 C 216.18 255.43 216.54 256.54 216.92 257.63 C 211.43 261.09 205.81 264.35 200.25 267.69 C 175.55 227.02 151.08 186.20 126.50 145.45 C 124.49 142.19 122.32 139.00 120.89 135.42 C 138.92 135.37 156.95 135.43 174.98 135.40 C 186.85 135.48 198.59 130.34 206.64 121.63 Z" />
</g>
</svg>
