<?xml version="1.0" encoding="UTF-8" ?>
<!DOCTYPE svg PUBLIC "-//W3C//DTD SVG 1.1//EN" "http://www.w3.org/Graphics/SVG/1.1/DTD/svg11.dtd">
<svg width="128pt" height="128pt" viewBox="0 0 128 128" version="1.1" xmlns="http://www.w3.org/2000/svg">
<g id="#49619cff">
<path fill="#49619c" opacity="1.00" d=" M 67.25 27.67 C 70.26 25.71 73.95 25.31 77.44 25.04 C 81.55 35.55 87.61 45.23 91.21 55.96 C 84.74 54.44 78.57 51.93 72.41 49.49 C 69.66 48.27 66.27 46.33 66.21 42.92 C 66.35 37.82 67.72 32.80 67.25 27.67 Z" />
</g>
<g id="#415285ff">
<path fill="#415285" opacity="1.00" d=" M 77.44 25.04 C 78.02 25.26 79.18 25.71 79.76 25.94 C 83.62 32.26 87.91 38.48 93.61 43.29 C 93.51 39.65 93.34 36.02 93.20 32.38 C 96.40 32.73 99.63 33.36 102.86 33.01 C 107.11 31.74 110.31 28.44 113.88 25.97 C 114.44 26.38 115.55 27.19 116.11 27.60 C 113.39 31.00 110.84 34.58 109.05 38.57 C 112.75 39.32 117.05 39.67 120.26 37.28 C 123.41 34.69 126.41 31.69 128.00 27.86 L 128.00 32.52 C 126.25 35.22 124.55 38.03 122.17 40.24 C 119.66 41.89 116.54 42.17 113.77 43.23 C 112.47 43.70 111.18 44.16 109.88 44.62 C 110.97 46.99 112.89 49.41 112.25 52.18 C 111.27 57.48 109.96 62.79 107.53 67.64 C 102.55 64.45 97.32 61.56 92.92 57.56 C 91.95 62.91 88.79 67.41 85.73 71.77 C 84.07 74.38 80.92 75.14 78.26 76.31 C 74.56 77.69 71.30 79.95 67.97 82.03 C 68.61 78.84 69.30 75.66 70.04 72.49 C 72.30 72.39 74.57 72.25 76.84 72.06 C 77.61 68.77 78.41 65.48 79.12 62.18 C 74.28 64.27 69.69 66.99 64.66 68.63 C 60.38 68.63 56.19 67.51 52.01 66.74 C 50.77 66.47 49.55 66.19 48.32 65.90 C 46.42 61.21 44.27 56.62 41.53 52.35 C 40.11 58.64 40.20 65.18 41.77 71.42 C 39.78 73.94 38.49 76.96 36.29 79.32 C 32.61 81.56 28.13 82.09 24.54 84.50 C 22.40 87.97 20.76 91.74 18.92 95.38 C 18.46 92.74 17.76 90.15 17.01 87.59 C 18.01 83.89 19.56 80.37 20.78 76.75 C 21.97 73.35 21.48 69.69 21.57 66.17 C 18.70 65.56 15.82 64.97 12.93 64.42 C 11.19 66.83 9.58 69.36 7.53 71.51 C 5.09 72.20 2.50 71.65 0.00 71.72 L 0.00 70.76 C 2.29 70.12 4.71 69.81 6.88 68.80 C 8.96 66.14 10.29 62.98 11.97 60.06 C 15.24 60.14 18.50 60.02 21.76 59.95 C 23.46 57.95 25.00 55.69 27.29 54.31 C 32.36 51.87 38.42 51.57 42.91 47.92 C 51.07 41.22 59.17 34.46 67.25 27.67 C 67.72 32.80 66.35 37.82 66.21 42.92 C 66.27 46.33 69.66 48.27 72.41 49.49 C 78.57 51.93 84.74 54.44 91.21 55.96 C 87.61 45.23 81.55 35.55 77.44 25.04 Z" />
</g>
<g id="#616d95f5">
<path fill="#616d95" opacity="0.96" d=" M 113.88 25.97 C 116.92 24.46 120.37 24.85 123.64 25.05 C 121.18 26.04 118.66 26.88 116.11 27.60 C 115.55 27.19 114.44 26.38 113.88 25.97 Z" />
</g>
<g id="#2d3d5bff">
<path fill="#2d3d5b" opacity="1.00" d=" M 79.76 25.94 C 84.37 27.82 88.68 30.33 93.20 32.38 C 93.34 36.02 93.51 39.65 93.61 43.29 C 87.91 38.48 83.62 32.26 79.76 25.94 Z" />
<path fill="#2d3d5b" opacity="1.00" d=" M 109.88 44.62 C 111.18 44.16 112.47 43.70 113.77 43.23 C 115.43 50.30 115.69 57.58 115.64 64.81 C 113.02 65.97 110.42 67.35 107.53 67.64 C 109.96 62.79 111.27 57.48 112.25 52.18 C 112.89 49.41 110.97 46.99 109.88 44.62 Z" />
<path fill="#2d3d5b" opacity="1.00" d=" M 41.77 71.42 C 40.20 65.18 40.11 58.64 41.53 52.35 C 44.27 56.62 46.42 61.21 48.32 65.90 C 49.55 66.19 50.77 66.47 52.01 66.74 C 47.96 66.29 44.77 69.17 41.77 71.42 Z" />
<path fill="#2d3d5b" opacity="1.00" d=" M 17.01 87.59 C 17.76 90.15 18.46 92.74 18.92 95.38 C 18.88 97.47 18.90 99.55 18.91 101.64 C 16.53 102.09 14.17 102.57 11.80 103.04 C 14.48 98.24 15.77 92.90 17.01 87.59 Z" />
</g>
</svg>
