<?xml version="1.0" encoding="UTF-8" ?>
<!DOCTYPE svg PUBLIC "-//W3C//DTD SVG 1.1//EN" "http://www.w3.org/Graphics/SVG/1.1/DTD/svg11.dtd">
<svg width="300pt" height="300pt" viewBox="0 0 300 300" version="1.1" xmlns="http://www.w3.org/2000/svg">
<g id="#536978fe">
<path fill="#536978" opacity="1.00" d=" M 53.25 54.97 C 52.88 51.93 56.22 50.69 57.88 48.72 C 56.58 51.99 55.44 55.40 55.51 58.96 C 55.66 98.66 55.55 138.37 55.56 178.07 C 55.45 180.53 56.32 183.30 58.99 183.97 C 61.41 183.62 62.75 181.42 62.47 179.07 C 62.44 140.50 62.41 101.93 62.47 63.36 C 63.25 63.04 64.04 62.73 64.82 62.41 C 69.02 66.20 73.40 69.77 78.05 72.99 C 93.40 84.63 108.90 96.08 124.22 107.77 C 127.25 110.21 131.05 112.08 132.82 115.73 C 111.56 98.70 89.32 82.92 67.74 66.30 C 66.53 65.43 65.30 63.95 63.62 64.52 C 63.34 103.32 63.66 142.14 63.46 180.95 C 63.21 186.19 55.40 185.10 53.44 181.55 C 53.04 178.72 53.27 175.85 53.24 173.00 C 53.26 133.65 53.24 94.31 53.25 54.97 Z" />
<path fill="#536978" opacity="1.00" d=" M 232.49 53.64 C 235.12 51.88 237.17 48.25 240.84 49.23 C 243.81 49.13 244.06 52.80 244.33 54.98 C 244.35 96.63 244.37 138.29 244.32 179.94 C 244.46 183.42 240.00 185.95 237.13 183.84 C 235.43 182.89 234.59 180.90 234.67 179.00 C 234.62 141.00 234.78 102.98 234.60 64.98 C 231.38 65.30 229.19 67.82 226.72 69.60 C 207.06 84.28 187.25 98.77 167.92 113.87 C 166.04 114.90 166.39 117.16 166.31 118.96 C 166.39 138.33 166.28 157.70 166.37 177.07 C 166.49 179.19 165.89 181.24 165.30 183.25 C 163.47 183.90 161.57 184.98 159.57 184.35 C 158.14 183.30 156.50 181.90 156.70 179.94 C 156.64 158.27 156.74 136.60 156.65 114.93 C 155.87 109.55 161.58 107.00 165.00 104.07 C 187.48 87.24 209.91 70.33 232.49 53.64 Z" />
<path fill="#536978" opacity="1.00" d=" M 187.68 208.33 C 195.32 208.38 202.97 208.13 210.61 208.48 C 210.60 209.03 210.58 210.13 210.58 210.68 C 203.73 212.34 196.61 210.92 189.65 211.58 C 189.69 215.56 189.38 219.56 189.73 223.53 C 189.85 224.70 191.07 225.49 192.20 225.37 C 196.52 225.51 200.86 225.17 205.17 225.65 C 204.82 226.29 204.13 227.57 203.78 228.22 C 199.72 229.02 195.51 228.13 191.40 228.60 C 190.16 228.71 189.60 230.10 189.66 231.21 C 189.53 234.99 189.33 238.84 190.14 242.57 C 195.78 242.58 201.41 242.44 207.05 242.56 C 208.79 242.44 209.77 244.24 211.00 245.15 C 203.06 246.76 194.79 245.64 186.71 245.80 C 186.18 236.88 186.63 227.93 186.46 219.00 C 186.56 215.42 185.87 211.61 187.68 208.33 Z" />
<path fill="#536978" opacity="1.00" d=" M 53.25 208.61 C 54.65 208.73 56.29 208.37 57.27 209.67 C 62.25 216.22 66.38 223.35 70.43 230.49 C 71.14 231.99 72.40 233.05 73.74 233.97 C 75.24 230.86 76.84 227.77 78.90 224.99 C 82.94 219.50 85.22 212.80 90.19 208.00 C 92.33 210.53 91.38 213.99 91.61 217.01 C 91.41 226.58 92.07 236.21 91.29 245.75 C 90.64 245.80 89.35 245.91 88.71 245.96 C 88.06 236.49 89.10 226.96 88.19 217.53 C 82.60 223.75 79.69 231.90 74.30 238.31 C 73.41 239.16 71.78 238.91 71.18 237.86 C 66.80 231.67 63.69 224.63 58.89 218.73 C 58.58 219.28 57.97 220.37 57.66 220.92 C 57.27 229.14 57.64 237.39 57.52 245.62 C 56.11 245.65 54.70 245.70 53.29 245.76 C 53.18 233.37 53.23 220.99 53.25 208.61 Z" />
<path fill="#536978" opacity="1.00" d=" M 117.84 211.94 C 118.42 210.30 119.65 209.10 121.00 208.06 C 125.68 217.07 128.99 226.69 133.08 235.96 C 134.47 239.22 136.27 242.44 136.38 246.07 C 131.60 246.08 132.57 239.77 129.59 237.51 C 123.54 237.18 117.44 237.28 111.38 237.44 C 108.41 239.73 109.14 245.85 104.64 246.03 C 104.63 242.15 106.69 238.78 108.12 235.31 C 111.40 227.53 114.58 219.72 117.84 211.94 M 117.33 221.22 C 115.78 225.31 113.59 229.23 113.02 233.63 C 118.00 233.67 122.98 233.67 127.97 233.60 C 126.46 227.10 123.46 221.06 120.82 214.96 C 119.34 216.85 118.18 218.97 117.33 221.22 Z" />
<path fill="#536978" opacity="1.00" d=" M 153.38 227.40 C 159.30 220.65 165.61 214.24 172.12 208.06 C 172.51 208.55 173.28 209.53 173.66 210.02 C 169.82 215.93 163.98 220.14 159.53 225.54 C 159.17 226.65 159.12 228.11 160.07 228.97 C 164.40 233.78 169.37 238.02 173.53 242.98 C 173.50 243.82 173.43 245.49 173.39 246.33 C 170.28 245.07 168.47 242.11 166.16 239.85 C 162.71 236.39 159.64 232.55 155.99 229.30 C 154.46 230.63 152.75 231.85 151.69 233.62 C 150.95 237.53 152.40 241.86 149.94 245.37 C 149.54 244.81 148.75 243.69 148.36 243.13 C 148.33 231.78 148.11 220.41 148.50 209.07 C 151.68 208.47 150.37 212.32 150.73 214.05 C 150.70 218.56 150.72 223.08 150.62 227.59 C 151.54 227.53 152.46 227.47 153.38 227.40 Z" />
<path fill="#536978" opacity="1.00" d=" M 223.36 214.01 C 223.52 212.08 222.67 209.53 224.90 208.50 C 229.91 208.24 234.97 208.16 239.98 208.59 C 243.85 209.86 246.51 213.30 248.39 216.75 C 249.14 218.64 248.68 220.82 247.21 222.23 C 245.14 225.14 242.14 227.14 239.19 229.06 C 241.47 234.70 245.46 239.60 246.83 245.61 C 246.14 245.67 244.76 245.79 244.06 245.85 C 240.93 241.07 238.87 235.73 236.27 230.66 C 234.65 226.87 229.78 228.98 226.61 228.62 C 225.87 234.15 228.04 240.39 224.99 245.36 C 224.62 244.79 223.89 243.66 223.53 243.09 C 223.16 233.41 223.55 223.70 223.36 214.01 M 227.04 211.42 C 226.05 215.69 226.65 220.11 226.54 224.45 C 230.53 225.65 234.89 225.83 238.96 224.94 C 243.32 223.93 246.43 218.35 243.43 214.52 C 239.37 209.69 232.49 211.94 227.04 211.42 Z" />
</g>
<g id="#1abc9cff">
<path fill="#1abc9c" opacity="1.00" d=" M 57.88 48.72 C 60.60 49.42 62.55 51.49 64.75 53.09 C 88.92 70.91 112.85 89.04 136.93 106.97 C 139.03 108.80 142.09 110.70 141.59 113.94 C 141.53 135.97 141.65 158.00 141.53 180.02 C 141.98 184.15 135.57 185.17 133.79 182.18 C 132.08 178.34 132.72 174.06 132.62 170.00 C 132.75 151.91 132.39 133.81 132.82 115.73 C 131.05 112.08 127.25 110.21 124.22 107.77 C 108.90 96.08 93.40 84.63 78.05 72.99 C 73.40 69.77 69.02 66.20 64.82 62.41 C 64.04 62.73 63.25 63.04 62.47 63.36 C 62.41 101.93 62.44 140.50 62.47 179.07 C 62.75 181.42 61.41 183.62 58.99 183.97 C 56.32 183.30 55.45 180.53 55.56 178.07 C 55.55 138.37 55.66 98.66 55.51 58.96 C 55.44 55.40 56.58 51.99 57.88 48.72 Z" />
</g>
</svg>
