<?xml version="1.0" encoding="UTF-8" ?>
<!DOCTYPE svg PUBLIC "-//W3C//DTD SVG 1.1//EN" "http://www.w3.org/Graphics/SVG/1.1/DTD/svg11.dtd">
<svg width="181pt" height="181pt" viewBox="0 0 181 181" version="1.1" xmlns="http://www.w3.org/2000/svg">
<g id="#2775caff">
<path fill="#2775ca" opacity="1.00" d=" M 72.05 2.02 C 103.83 -5.01 138.73 7.59 159.33 32.66 C 172.82 48.82 180.69 69.87 180.03 91.00 C 180.75 123.65 161.08 155.27 132.29 170.29 C 114.00 179.89 92.31 183.51 72.04 178.98 C 52.08 175.03 33.66 163.98 20.67 148.34 C 9.02 134.56 2.03 117.20 0.00 99.34 L 0.00 81.68 C 1.87 65.46 7.72 49.64 17.58 36.57 C 30.69 18.89 50.44 6.27 72.05 2.02 M 68.35 27.23 C 42.58 35.63 23.30 60.77 22.39 87.94 C 21.52 103.17 26.02 118.65 34.99 131.00 C 43.19 142.42 55.05 151.19 68.38 155.65 C 70.11 156.41 72.98 156.41 73.04 153.91 C 73.13 150.52 74.26 145.30 70.00 144.03 C 57.37 139.15 46.57 129.72 40.30 117.70 C 33.36 104.82 31.80 89.16 36.15 75.18 C 40.92 59.29 53.08 45.79 68.46 39.52 C 69.93 38.71 71.93 38.30 72.76 36.71 C 73.39 33.93 73.31 31.00 72.91 28.19 C 71.96 26.38 69.96 26.47 68.35 27.23 M 106.95 29.07 C 106.85 31.81 106.36 34.85 107.62 37.38 C 109.40 38.77 111.59 39.47 113.61 40.45 C 127.54 46.76 138.51 59.15 143.35 73.63 C 147.09 84.60 147.25 96.75 143.81 107.82 C 139.05 123.42 127.25 136.82 112.13 143.07 C 110.01 144.12 106.56 144.94 106.88 147.97 C 106.92 150.71 106.17 153.96 108.19 156.21 C 113.43 155.75 118.12 153.09 122.72 150.75 C 143.51 139.52 157.50 116.70 157.66 93.02 C 158.16 78.21 153.44 63.32 144.65 51.39 C 136.25 40.04 124.32 31.23 110.82 26.99 C 109.25 26.05 106.96 27.22 106.95 29.07 M 84.60 47.61 C 84.13 50.96 84.55 54.36 84.07 57.72 C 78.22 59.02 72.10 61.44 68.75 66.72 C 63.94 74.01 64.84 85.50 72.42 90.61 C 77.93 94.33 84.69 95.06 91.08 96.14 C 94.91 96.94 99.39 97.72 101.79 101.16 C 104.21 105.59 102.46 111.64 97.98 114.03 C 93.12 116.68 86.87 116.44 81.91 114.17 C 77.71 112.32 77.07 107.39 74.96 103.83 C 71.50 104.06 66.81 102.26 64.34 105.46 C 64.34 111.16 67.45 116.66 71.88 120.14 C 75.40 122.96 79.89 123.99 84.16 125.06 C 84.47 128.49 84.13 131.95 84.63 135.35 C 84.90 135.58 85.43 136.05 85.70 136.28 C 88.80 136.63 92.84 137.59 95.37 135.35 C 95.88 131.98 95.57 128.56 95.70 125.16 C 100.57 123.68 105.71 122.15 109.29 118.29 C 117.09 110.83 117.08 95.48 107.29 89.70 C 99.52 84.79 89.77 86.15 81.59 82.46 C 76.40 80.08 76.33 71.97 80.98 68.98 C 85.31 66.17 91.11 66.26 95.79 68.14 C 99.32 69.62 100.44 73.59 102.35 76.57 C 105.57 76.59 109.18 77.49 112.12 75.80 C 113.21 72.78 111.33 69.67 109.97 67.03 C 107.07 61.85 101.39 59.34 95.90 57.89 C 95.43 54.48 95.89 51.02 95.41 47.62 C 95.15 47.37 94.64 46.87 94.38 46.62 C 91.25 46.36 87.07 45.24 84.60 47.61 Z" />
</g>
<g id="#ffffffff">
<path fill="#ffffff" opacity="1.00" d=" M 68.35 27.23 C 69.96 26.47 71.96 26.38 72.91 28.19 C 73.31 31.00 73.39 33.93 72.76 36.71 C 71.93 38.30 69.93 38.71 68.46 39.52 C 53.08 45.79 40.92 59.29 36.15 75.18 C 31.80 89.16 33.36 104.82 40.30 117.70 C 46.57 129.72 57.37 139.15 70.00 144.03 C 74.26 145.30 73.13 150.52 73.04 153.91 C 72.98 156.41 70.11 156.41 68.38 155.65 C 55.05 151.19 43.19 142.42 34.99 131.00 C 26.02 118.65 21.52 103.17 22.39 87.94 C 23.30 60.77 42.58 35.63 68.35 27.23 Z" />
<path fill="#ffffff" opacity="1.00" d=" M 106.95 29.07 C 106.96 27.22 109.25 26.05 110.82 26.99 C 124.32 31.23 136.25 40.04 144.65 51.39 C 153.44 63.32 158.16 78.21 157.66 93.02 C 157.50 116.70 143.51 139.52 122.72 150.75 C 118.12 153.09 113.43 155.75 108.19 156.21 C 106.17 153.96 106.92 150.71 106.88 147.97 C 106.56 144.94 110.01 144.12 112.13 143.07 C 127.25 136.82 139.05 123.42 143.81 107.82 C 147.25 96.75 147.09 84.60 143.35 73.63 C 138.51 59.15 127.54 46.76 113.61 40.45 C 111.59 39.47 109.40 38.77 107.62 37.38 C 106.36 34.85 106.85 31.81 106.95 29.07 Z" />
<path fill="#ffffff" opacity="1.00" d=" M 84.60 47.61 C 87.07 45.24 91.25 46.36 94.38 46.62 C 94.64 46.87 95.15 47.37 95.41 47.62 C 95.89 51.02 95.43 54.48 95.90 57.89 C 101.39 59.34 107.07 61.85 109.97 67.03 C 111.33 69.67 113.21 72.78 112.12 75.80 C 109.18 77.49 105.57 76.59 102.35 76.57 C 100.44 73.59 99.32 69.62 95.79 68.14 C 91.11 66.26 85.31 66.17 80.98 68.98 C 76.33 71.97 76.40 80.08 81.59 82.46 C 89.77 86.15 99.52 84.79 107.29 89.70 C 117.08 95.48 117.09 110.83 109.29 118.29 C 105.71 122.15 100.57 123.68 95.70 125.16 C 95.57 128.56 95.88 131.98 95.37 135.35 C 92.84 137.59 88.80 136.63 85.70 136.28 C 85.43 136.05 84.90 135.58 84.63 135.35 C 84.13 131.95 84.47 128.49 84.16 125.06 C 79.89 123.99 75.40 122.96 71.88 120.14 C 67.45 116.66 64.34 111.16 64.34 105.46 C 66.81 102.26 71.50 104.06 74.96 103.83 C 77.07 107.39 77.71 112.32 81.91 114.17 C 86.87 116.44 93.12 116.68 97.98 114.03 C 102.46 111.64 104.21 105.59 101.79 101.16 C 99.39 97.72 94.91 96.94 91.08 96.14 C 84.69 95.06 77.93 94.33 72.42 90.61 C 64.84 85.50 63.94 74.01 68.75 66.72 C 72.10 61.44 78.22 59.02 84.07 57.72 C 84.55 54.36 84.13 50.96 84.60 47.61 Z" />
</g>
</svg>
