<?xml version="1.0" encoding="UTF-8" ?>
<!DOCTYPE svg PUBLIC "-//W3C//DTD SVG 1.1//EN" "http://www.w3.org/Graphics/SVG/1.1/DTD/svg11.dtd">
<svg width="200pt" height="200pt" viewBox="0 0 200 200" version="1.1" xmlns="http://www.w3.org/2000/svg">
<g id="#1e1e1eff">
<path fill="#1e1e1e" opacity="1.00" d=" M 94.56 0.00 L 106.44 0.00 C 112.53 1.14 118.73 1.71 124.74 3.26 C 145.00 8.36 163.50 20.06 176.84 36.13 C 186.82 48.04 193.83 62.37 197.40 77.47 C 198.75 82.75 199.06 88.21 200.00 93.56 L 200.00 106.44 C 199.02 112.85 198.36 119.33 196.64 125.60 C 188.72 156.59 164.82 182.84 134.78 193.75 C 125.70 197.28 116.03 198.73 106.44 200.00 L 93.56 200.00 C 88.01 199.08 82.38 198.59 76.90 197.22 C 52.48 191.54 30.53 176.16 16.75 155.23 C 10.14 145.15 5.23 133.92 2.65 122.14 C 1.44 116.96 1.00 111.66 0.00 106.44 L 0.00 94.56 C 0.89 90.14 1.37 85.67 2.04 81.22 C 7.86 48.17 32.03 19.30 63.25 7.18 C 73.20 3.02 83.93 1.36 94.56 0.00 M 46.46 53.98 C 59.81 67.60 73.24 81.18 86.97 94.42 C 89.61 92.09 92.11 89.62 94.42 86.97 C 81.18 73.24 67.60 59.81 53.98 46.46 C 51.26 48.74 48.74 51.26 46.46 53.98 M 105.75 87.09 C 107.80 89.98 110.50 92.29 113.07 94.71 C 116.52 91.97 119.40 88.62 122.58 85.58 C 132.97 75.09 143.53 64.76 153.85 54.21 C 151.33 51.66 148.97 48.93 146.07 46.79 C 132.53 60.12 119.10 73.57 105.75 87.09 M 92.56 100.01 C 94.84 102.72 97.37 105.21 100.03 107.55 C 102.73 105.24 105.24 102.73 107.54 100.02 C 105.20 97.37 102.72 94.84 100.01 92.57 C 97.38 94.90 94.89 97.38 92.56 100.01 M 46.79 146.07 C 48.93 148.96 51.66 151.32 54.21 153.84 C 66.60 141.70 78.74 129.29 91.09 117.10 C 92.38 115.83 93.56 114.47 94.70 113.07 C 92.29 110.50 89.97 107.80 87.09 105.74 C 73.59 119.12 60.11 132.51 46.79 146.07 M 105.58 113.02 C 109.05 117.01 112.96 120.58 116.64 124.36 C 126.48 134.05 136.04 144.02 146.03 153.55 C 148.76 151.28 151.28 148.76 153.56 146.03 C 140.20 132.41 126.76 118.82 113.03 105.58 C 110.39 107.91 107.90 110.38 105.58 113.02 Z" />
</g>
<g id="#f7d50bff">
<path fill="#f7d50b" opacity="1.00" d=" M 46.46 53.98 C 48.74 51.26 51.26 48.74 53.98 46.46 C 67.60 59.81 81.18 73.24 94.42 86.97 C 92.11 89.62 89.61 92.09 86.97 94.42 C 73.24 81.18 59.81 67.60 46.46 53.98 Z" />
<path fill="#f7d50b" opacity="1.00" d=" M 105.75 87.09 C 119.10 73.57 132.53 60.12 146.07 46.79 C 148.97 48.93 151.33 51.66 153.85 54.21 C 143.53 64.76 132.97 75.09 122.58 85.58 C 119.40 88.62 116.52 91.97 113.07 94.71 C 110.50 92.29 107.80 89.98 105.75 87.09 Z" />
<path fill="#f7d50b" opacity="1.00" d=" M 92.56 100.01 C 94.89 97.38 97.38 94.90 100.01 92.57 C 102.72 94.84 105.20 97.37 107.54 100.02 C 105.24 102.73 102.73 105.24 100.03 107.55 C 97.37 105.21 94.84 102.72 92.56 100.01 Z" />
<path fill="#f7d50b" opacity="1.00" d=" M 46.79 146.07 C 60.11 132.51 73.59 119.12 87.09 105.74 C 89.97 107.80 92.29 110.50 94.70 113.07 C 93.56 114.47 92.38 115.83 91.09 117.10 C 78.74 129.29 66.60 141.70 54.21 153.84 C 51.66 151.32 48.93 148.96 46.79 146.07 Z" />
<path fill="#f7d50b" opacity="1.00" d=" M 105.58 113.02 C 107.90 110.38 110.39 107.91 113.03 105.58 C 126.76 118.82 140.20 132.41 153.56 146.03 C 151.28 148.76 148.76 151.28 146.03 153.55 C 136.04 144.02 126.48 134.05 116.64 124.36 C 112.96 120.58 109.05 117.01 105.58 113.02 Z" />
</g>
</svg>
