<?xml version="1.0" encoding="UTF-8" ?>
<!DOCTYPE svg PUBLIC "-//W3C//DTD SVG 1.1//EN" "http://www.w3.org/Graphics/SVG/1.1/DTD/svg11.dtd">
<svg width="80pt" height="80pt" viewBox="0 0 80 80" version="1.1" xmlns="http://www.w3.org/2000/svg">
<g id="#ffffffff">
<path fill="#ffffff" opacity="1.00" d=" M 0.00 0.00 L 80.00 0.00 L 80.00 80.00 L 0.00 80.00 L 0.00 0.00 M 24.37 24.40 C 24.34 31.59 24.42 38.78 24.18 45.97 C 24.30 47.23 23.45 49.00 24.71 49.91 L 24.69 50.62 C 24.55 52.23 24.44 53.85 24.49 55.47 C 34.85 56.15 45.29 55.75 55.67 55.65 C 55.96 53.23 55.94 50.78 55.63 48.37 C 51.77 48.03 47.83 48.24 44.03 49.04 C 41.96 47.73 39.30 48.35 36.99 48.05 C 36.92 47.59 36.80 46.67 36.74 46.21 C 41.70 45.48 46.70 45.71 51.70 45.66 C 51.52 43.21 53.04 39.07 50.26 37.89 C 47.36 37.80 44.44 37.87 41.57 38.34 C 40.52 37.72 39.29 37.49 38.19 36.98 L 37.97 36.02 C 38.42 35.81 39.33 35.40 39.79 35.19 C 42.44 35.17 45.09 35.29 47.73 35.05 C 49.08 35.22 50.44 35.10 51.77 34.85 C 52.47 32.38 51.78 29.94 51.52 27.48 C 50.56 27.60 48.65 27.84 47.69 27.96 C 46.42 27.90 45.16 28.02 43.92 28.33 L 43.42 27.73 C 41.53 27.62 39.62 27.76 37.74 27.52 C 37.49 26.73 36.99 25.16 36.75 24.38 C 32.62 24.46 28.49 23.91 24.37 24.40 Z" />
</g>
<g id="#a6d2ddff">
<path fill="#a6d2dd" opacity="1.00" d=" M 24.37 24.40 C 28.49 23.91 32.62 24.46 36.75 24.38 C 36.36 24.61 35.60 25.08 35.21 25.31 C 35.99 28.83 38.25 31.72 40.28 34.61 L 39.79 35.19 C 39.33 35.40 38.42 35.81 37.97 36.02 C 36.19 33.99 34.57 31.82 33.03 29.61 C 32.74 28.12 32.77 26.57 32.42 25.09 C 31.90 25.01 30.87 24.85 30.35 24.77 C 28.50 24.70 26.64 24.79 24.81 25.08 C 24.07 30.31 28.08 34.35 30.29 38.67 C 33.75 44.04 36.06 50.19 40.16 55.11 C 40.82 55.19 42.16 55.35 42.82 55.43 C 44.90 55.60 46.98 55.31 49.04 55.06 C 47.04 53.29 46.36 50.48 44.03 49.04 C 47.83 48.24 51.77 48.03 55.63 48.37 C 55.94 50.78 55.96 53.23 55.67 55.65 C 45.29 55.75 34.85 56.15 24.49 55.47 C 24.44 53.85 24.55 52.23 24.69 50.62 C 26.27 52.70 27.59 55.95 30.79 55.35 C 32.53 55.33 34.26 55.26 35.98 55.13 C 33.64 52.45 32.69 49.04 32.05 45.62 C 30.77 43.53 28.28 42.49 26.93 40.43 C 26.66 38.73 26.97 36.99 26.68 35.30 C 26.27 34.91 25.45 34.14 25.04 33.76 C 24.81 37.39 24.61 41.02 24.82 44.66 C 24.92 46.40 25.02 48.18 24.71 49.91 C 23.45 49.00 24.30 47.23 24.18 45.97 C 24.42 38.78 24.34 31.59 24.37 24.40 M 48.21 48.83 C 49.13 51.22 50.29 53.55 52.07 55.43 C 52.74 55.33 54.10 55.12 54.77 55.01 C 55.02 53.00 55.18 50.96 55.03 48.93 C 52.76 48.67 50.48 48.65 48.21 48.83 Z" />
<path fill="#a6d2dd" opacity="1.00" d=" M 43.92 28.33 C 45.16 28.02 46.42 27.90 47.69 27.96 C 48.89 29.39 49.95 30.93 51.06 32.43 C 51.29 30.79 51.45 29.14 51.52 27.48 C 51.78 29.94 52.47 32.38 51.77 34.85 C 50.44 35.10 49.08 35.22 47.73 35.05 C 46.67 32.68 45.91 30.15 43.92 28.33 Z" />
<path fill="#a6d2dd" opacity="1.00" d=" M 38.19 36.98 C 39.29 37.49 40.52 37.72 41.57 38.34 C 41.84 38.69 42.37 39.37 42.63 39.71 C 43.90 41.73 44.82 44.23 47.11 45.35 C 48.49 45.30 49.88 45.20 51.25 45.04 C 51.09 42.64 50.77 40.25 50.26 37.89 C 53.04 39.07 51.52 43.21 51.70 45.66 C 46.70 45.71 41.70 45.48 36.74 46.21 L 36.77 45.27 C 38.86 45.15 40.96 45.07 43.05 44.92 C 40.87 42.69 38.48 40.27 38.19 36.98 Z" />
</g>
<g id="#3a8ba4ff">
<path fill="#3a8ba4" opacity="1.00" d=" M 24.81 25.08 C 26.64 24.79 28.50 24.70 30.35 24.77 C 30.32 27.68 30.38 30.61 30.89 33.48 C 32.53 35.06 34.63 36.05 36.36 37.52 C 37.13 39.97 36.66 42.70 36.77 45.27 L 36.74 46.21 C 36.80 46.67 36.92 47.59 36.99 48.05 C 38.80 48.59 40.59 49.15 42.47 49.46 C 42.89 51.42 42.80 53.44 42.82 55.43 C 42.16 55.35 40.82 55.19 40.16 55.11 C 36.06 50.19 33.75 44.04 30.29 38.67 C 28.08 34.35 24.07 30.31 24.81 25.08 Z" />
<path fill="#3a8ba4" opacity="1.00" d=" M 35.21 25.31 C 35.60 25.08 36.36 24.61 36.75 24.38 C 36.99 25.16 37.49 26.73 37.74 27.52 C 39.62 27.76 41.53 27.62 43.42 27.73 C 42.80 30.19 42.17 32.78 40.28 34.61 C 38.25 31.72 35.99 28.83 35.21 25.31 Z" />
<path fill="#3a8ba4" opacity="1.00" d=" M 47.69 27.96 C 48.65 27.84 50.56 27.60 51.52 27.48 C 51.45 29.14 51.29 30.79 51.06 32.43 C 49.95 30.93 48.89 29.39 47.69 27.96 Z" />
<path fill="#3a8ba4" opacity="1.00" d=" M 42.63 39.71 C 44.68 39.36 46.69 38.69 48.78 38.61 C 48.43 40.90 47.78 43.13 47.11 45.35 C 44.82 44.23 43.90 41.73 42.63 39.71 Z" />
<path fill="#3a8ba4" opacity="1.00" d=" M 24.82 44.66 C 26.70 45.55 28.79 46.22 30.33 47.65 C 31.05 50.15 30.86 52.78 30.79 55.35 C 27.59 55.95 26.27 52.70 24.69 50.62 L 24.71 49.91 C 25.02 48.18 24.92 46.40 24.82 44.66 Z" />
<path fill="#3a8ba4" opacity="1.00" d=" M 48.21 48.83 C 50.48 48.65 52.76 48.67 55.03 48.93 C 55.18 50.96 55.02 53.00 54.77 55.01 C 54.10 55.12 52.74 55.33 52.07 55.43 C 50.29 53.55 49.13 51.22 48.21 48.83 Z" />
</g>
<g id="#7ac0d2ff">
<path fill="#7ac0d2" opacity="1.00" d=" M 30.35 24.77 C 30.87 24.85 31.90 25.01 32.42 25.09 C 32.77 26.57 32.74 28.12 33.03 29.61 C 34.57 31.82 36.19 33.99 37.97 36.02 L 38.19 36.98 C 38.48 40.27 40.87 42.69 43.05 44.92 C 40.96 45.07 38.86 45.15 36.77 45.27 C 36.66 42.70 37.13 39.97 36.36 37.52 C 34.63 36.05 32.53 35.06 30.89 33.48 C 30.38 30.61 30.32 27.68 30.35 24.77 Z" />
<path fill="#7ac0d2" opacity="1.00" d=" M 43.42 27.73 L 43.92 28.33 C 45.91 30.15 46.67 32.68 47.73 35.05 C 45.09 35.29 42.44 35.17 39.79 35.19 L 40.28 34.61 C 42.17 32.78 42.80 30.19 43.42 27.73 Z" />
<path fill="#7ac0d2" opacity="1.00" d=" M 25.04 33.76 C 25.45 34.14 26.27 34.91 26.68 35.30 C 26.97 36.99 26.66 38.73 26.93 40.43 C 28.28 42.49 30.77 43.53 32.05 45.62 C 32.69 49.04 33.64 52.45 35.98 55.13 C 34.26 55.26 32.53 55.33 30.79 55.35 C 30.86 52.78 31.05 50.15 30.33 47.65 C 28.79 46.22 26.70 45.55 24.82 44.66 C 24.61 41.02 24.81 37.39 25.04 33.76 Z" />
<path fill="#7ac0d2" opacity="1.00" d=" M 41.57 38.34 C 44.44 37.87 47.36 37.80 50.26 37.89 C 50.77 40.25 51.09 42.64 51.25 45.04 C 49.88 45.20 48.49 45.30 47.11 45.35 C 47.78 43.13 48.43 40.90 48.78 38.61 C 46.69 38.69 44.68 39.36 42.63 39.71 C 42.37 39.37 41.84 38.69 41.57 38.34 Z" />
<path fill="#7ac0d2" opacity="1.00" d=" M 36.99 48.05 C 39.30 48.35 41.96 47.73 44.03 49.04 C 46.36 50.48 47.04 53.29 49.04 55.06 C 46.98 55.31 44.90 55.60 42.82 55.43 C 42.80 53.44 42.89 51.42 42.47 49.46 C 40.59 49.15 38.80 48.59 36.99 48.05 Z" />
</g>
</svg>
