<?xml version="1.0" encoding="UTF-8" ?>
<!DOCTYPE svg PUBLIC "-//W3C//DTD SVG 1.1//EN" "http://www.w3.org/Graphics/SVG/1.1/DTD/svg11.dtd">
<svg width="300pt" height="300pt" viewBox="0 0 300 300" version="1.1" xmlns="http://www.w3.org/2000/svg">
<g id="#23dc7aff">
<path fill="#23dc7a" opacity="1.00" d=" M 148.16 40.34 C 153.63 38.60 158.72 35.86 164.25 34.33 C 164.62 51.88 164.37 69.47 164.50 87.04 C 164.52 88.55 164.65 90.14 165.61 91.39 C 167.28 92.19 169.14 92.48 170.98 92.47 C 188.92 92.50 206.85 92.40 224.79 92.39 C 226.71 92.14 227.38 94.43 227.33 95.94 C 227.26 106.98 227.47 118.01 227.36 129.04 C 227.65 131.03 226.06 133.15 223.95 132.97 C 205.30 133.14 186.64 132.85 168.00 133.09 C 165.03 133.01 164.42 136.69 164.47 138.98 C 164.59 160.67 164.39 182.35 164.53 204.04 C 164.41 208.36 166.28 212.38 167.91 216.28 C 171.99 223.33 179.94 227.43 187.95 227.83 C 194.76 228.25 201.64 227.30 208.08 225.08 C 209.46 224.63 210.97 223.66 212.40 224.55 C 214.19 226.80 214.59 229.75 215.46 232.42 C 218.43 241.30 221.05 250.29 224.14 259.13 C 225.05 260.87 222.98 262.07 221.86 262.99 C 213.61 267.91 204.00 269.49 194.76 271.53 C 185.42 271.59 175.79 272.69 166.76 269.68 C 156.23 267.98 146.34 263.35 137.62 257.30 C 128.86 250.21 122.95 240.07 119.33 229.52 C 117.42 225.36 117.46 220.70 116.34 216.33 C 113.83 206.76 114.76 196.78 114.53 187.00 C 114.71 146.33 114.61 105.67 114.59 65.00 C 114.68 61.49 114.10 57.90 115.16 54.48 C 126.45 50.48 137.04 44.76 148.16 40.34 Z" />
<path fill="#23dc7a" opacity="1.00" d=" M 61.44 89.67 C 68.75 88.31 76.99 88.27 83.39 92.59 C 95.87 100.51 97.42 120.60 86.47 130.44 C 81.83 134.16 76.20 137.33 70.05 136.98 C 63.52 137.66 57.23 134.83 52.37 130.65 C 44.73 123.59 42.77 111.46 47.19 102.14 C 49.68 96.03 55.11 91.41 61.44 89.67 Z" />
</g>
</svg>
