<?xml version="1.0" encoding="UTF-8" ?>
<!DOCTYPE svg PUBLIC "-//W3C//DTD SVG 1.1//EN" "http://www.w3.org/Graphics/SVG/1.1/DTD/svg11.dtd">
<svg width="256pt" height="256pt" viewBox="0 0 256 256" version="1.1" xmlns="http://www.w3.org/2000/svg">
<g id="#fffefeff">
<path fill="#fffefe" opacity="1.00" d=" M 40.94 77.25 C 70.36 60.50 99.71 43.64 129.12 26.88 C 131.75 27.61 133.96 29.34 136.36 30.59 C 163.69 46.11 190.98 61.70 218.35 77.14 C 218.51 110.44 218.35 143.74 218.43 177.04 C 218.82 178.68 216.97 179.23 215.94 179.94 C 187.20 196.24 158.52 212.63 129.75 228.88 C 128.56 228.81 127.61 227.96 126.57 227.47 C 98.37 211.31 70.13 195.22 41.95 179.03 C 40.31 178.38 40.98 176.38 40.83 175.06 C 40.94 142.45 40.74 109.85 40.94 77.25 M 128.56 35.57 C 101.76 50.79 74.99 66.07 48.18 81.29 C 47.98 112.15 48.20 143.02 48.10 173.89 C 74.58 189.11 101.18 204.13 127.71 219.28 C 128.79 220.16 130.19 220.08 131.27 219.24 C 157.65 204.11 184.13 189.15 210.47 173.97 C 210.50 143.03 210.67 112.07 210.39 81.14 C 184.08 66.31 157.88 51.29 131.67 36.29 C 130.72 35.91 129.61 34.79 128.56 35.57 Z" />
<path fill="#fffefe" opacity="1.00" d=" M 94.26 70.44 C 117.62 70.56 140.98 70.43 164.34 70.51 C 167.10 82.20 169.92 93.89 172.74 105.57 C 143.88 105.57 115.03 105.53 86.18 105.53 C 88.94 93.85 91.51 82.12 94.26 70.44 Z" />
<path fill="#fffefe" opacity="1.00" d=" M 106.83 111.09 C 121.91 111.10 136.99 111.04 152.07 111.11 C 149.89 117.21 147.42 123.21 145.21 129.30 C 144.43 131.14 144.94 133.14 145.06 135.04 C 145.58 140.90 146.39 146.72 146.78 152.58 C 135.21 152.43 123.64 152.53 112.07 152.58 C 112.76 145.38 113.60 138.19 114.32 131.00 C 112.17 124.25 109.16 117.79 106.83 111.09 Z" />
<path fill="#fffefe" opacity="1.00" d=" M 62.42 135.00 C 70.21 129.18 78.04 123.40 85.94 117.72 C 92.79 122.00 99.60 126.36 106.48 130.59 C 106.61 138.37 106.44 146.15 106.56 153.93 C 111.64 159.17 117.29 163.82 122.25 169.16 C 122.70 171.38 122.42 173.67 122.41 175.93 C 117.16 180.51 112.35 185.65 106.85 189.91 C 102.73 190.11 98.47 190.50 94.42 189.64 C 83.56 171.55 73.22 153.13 62.42 135.00 Z" />
<path fill="#fffefe" opacity="1.00" d=" M 155.56 128.54 C 161.38 124.96 167.00 121.05 172.86 117.53 C 180.56 123.43 188.43 129.08 196.14 134.96 C 185.59 153.17 174.96 171.34 164.50 189.60 C 160.17 189.60 155.80 190.01 151.50 189.43 C 146.46 185.00 141.55 180.42 136.57 175.91 C 136.50 173.64 136.48 171.36 136.52 169.08 C 141.59 163.91 147.33 159.37 152.05 153.89 C 152.37 146.33 151.99 138.74 152.15 131.18 C 152.99 129.98 154.40 129.37 155.56 128.54 Z" />
</g>
<g id="#012453ff">
<path fill="#012453" opacity="1.00" d=" M 128.56 35.57 C 129.61 34.79 130.72 35.91 131.67 36.29 C 157.88 51.29 184.08 66.31 210.39 81.14 C 210.67 112.07 210.50 143.03 210.47 173.97 C 184.13 189.15 157.65 204.11 131.27 219.24 C 130.19 220.08 128.79 220.16 127.71 219.28 C 101.18 204.13 74.58 189.11 48.10 173.89 C 48.20 143.02 47.98 112.15 48.18 81.29 C 74.99 66.07 101.76 50.79 128.56 35.57 M 94.26 70.44 C 91.51 82.12 88.94 93.85 86.18 105.53 C 115.03 105.53 143.88 105.57 172.74 105.57 C 169.92 93.89 167.10 82.20 164.34 70.51 C 140.98 70.43 117.62 70.56 94.26 70.44 M 106.83 111.09 C 109.16 117.79 112.17 124.25 114.32 131.00 C 113.60 138.19 112.76 145.38 112.07 152.58 C 123.64 152.53 135.21 152.43 146.78 152.58 C 146.39 146.72 145.58 140.90 145.06 135.04 C 144.94 133.14 144.43 131.14 145.21 129.30 C 147.42 123.21 149.89 117.21 152.07 111.11 C 136.99 111.04 121.91 111.10 106.83 111.09 M 62.42 135.00 C 73.22 153.13 83.56 171.55 94.42 189.64 C 98.47 190.50 102.73 190.11 106.85 189.91 C 112.35 185.65 117.16 180.51 122.41 175.93 C 122.42 173.67 122.70 171.38 122.25 169.16 C 117.29 163.82 111.64 159.17 106.56 153.93 C 106.44 146.15 106.61 138.37 106.48 130.59 C 99.60 126.36 92.79 122.00 85.94 117.72 C 78.04 123.40 70.21 129.18 62.42 135.00 M 155.56 128.54 C 154.40 129.37 152.99 129.98 152.15 131.18 C 151.99 138.74 152.37 146.33 152.05 153.89 C 147.33 159.37 141.59 163.91 136.52 169.08 C 136.48 171.36 136.50 173.64 136.57 175.91 C 141.55 180.42 146.46 185.00 151.50 189.43 C 155.80 190.01 160.17 189.60 164.50 189.60 C 174.96 171.34 185.59 153.17 196.14 134.96 C 188.43 129.08 180.56 123.43 172.86 117.53 C 167.00 121.05 161.38 124.96 155.56 128.54 Z" />
</g>
</svg>
