<?xml version="1.0" encoding="UTF-8" ?>
<!DOCTYPE svg PUBLIC "-//W3C//DTD SVG 1.1//EN" "http://www.w3.org/Graphics/SVG/1.1/DTD/svg11.dtd">
<svg width="256pt" height="256pt" viewBox="0 0 256 256" version="1.1" xmlns="http://www.w3.org/2000/svg">
<g id="#af7ed9ff">
<path fill="#af7ed9" opacity="1.00" d=" M 0.00 0.00 L 256.00 0.00 L 256.00 120.62 C 253.61 111.19 253.13 101.34 249.95 92.10 C 248.04 85.48 245.28 79.12 241.41 73.40 C 236.48 64.60 231.58 55.68 225.01 47.97 C 223.55 46.27 221.62 45.08 219.57 44.25 C 219.39 39.50 215.03 36.96 211.90 34.09 C 196.67 20.09 178.21 9.05 157.82 4.73 C 138.46 -0.87 117.59 -0.47 98.08 4.21 C 67.66 11.74 40.58 31.19 23.23 57.22 C 12.16 73.50 4.88 92.29 1.77 111.71 C 1.19 115.39 0.56 119.06 0.00 122.74 L 0.00 0.00 Z" />
<path fill="#af7ed9" opacity="1.00" d=" M 106.01 17.64 C 116.18 15.35 126.69 15.23 137.06 15.83 C 140.82 16.24 144.72 16.35 148.30 17.72 C 150.12 19.27 151.30 21.41 152.59 23.39 C 156.87 30.44 161.24 37.47 164.47 45.08 C 152.03 47.61 139.70 50.65 127.62 54.57 C 117.31 48.58 105.15 47.69 93.97 44.14 C 97.66 34.99 103.82 27.16 107.92 18.23 C 107.44 18.08 106.48 17.79 106.01 17.64 Z" />
<path fill="#af7ed9" opacity="1.00" d=" M 69.27 32.28 C 75.28 28.63 81.46 25.02 88.29 23.14 C 84.96 29.37 81.81 35.69 78.73 42.04 C 71.68 42.65 64.63 42.06 57.62 41.28 C 60.92 37.59 65.11 34.89 69.27 32.28 Z" />
<path fill="#af7ed9" opacity="1.00" d=" M 170.49 25.24 C 179.72 27.61 187.70 33.14 195.20 38.82 C 197.37 40.44 199.67 41.89 202.12 43.07 C 194.69 42.63 187.25 43.31 179.81 43.49 C 176.53 37.49 173.78 31.22 170.49 25.24 Z" />
<path fill="#af7ed9" opacity="1.00" d=" M 38.48 60.49 C 39.50 59.27 40.36 57.78 41.83 57.04 C 51.89 57.17 62.02 56.01 72.01 57.63 C 70.39 63.38 68.54 69.07 66.83 74.79 C 65.22 80.60 63.07 86.55 64.05 92.67 C 54.17 101.46 45.27 111.25 36.86 121.43 C 31.66 114.50 28.13 106.54 24.17 98.89 C 23.06 96.20 20.86 93.32 22.17 90.30 C 25.92 79.55 31.78 69.65 38.48 60.49 Z" />
<path fill="#af7ed9" opacity="1.00" d=" M 185.79 57.85 C 193.85 57.43 201.96 57.37 210.00 58.16 C 212.26 58.47 214.95 58.49 216.51 60.45 C 219.68 64.09 222.01 68.36 224.54 72.44 C 228.31 78.55 230.48 85.51 234.49 91.48 C 231.93 97.72 228.56 103.58 225.77 109.71 C 224.14 113.38 221.71 116.60 219.09 119.61 C 211.42 111.93 206.16 101.25 195.81 96.70 C 193.58 83.48 189.58 70.68 185.79 57.85 Z" />
<path fill="#af7ed9" opacity="1.00" d=" M 88.08 58.89 C 94.86 59.99 101.59 61.45 108.14 63.54 C 103.71 64.38 99.43 61.81 95.03 62.77 C 90.47 63.83 86.12 67.11 84.92 71.80 C 83.98 73.96 84.31 77.25 81.63 78.12 C 82.41 71.31 84.72 64.84 88.08 58.89 Z" />
<path fill="#af7ed9" opacity="1.00" d=" M 148.95 63.67 C 156.09 61.57 163.46 60.47 170.79 59.25 C 173.33 65.75 175.62 72.35 177.23 79.14 C 167.56 74.41 159.51 66.56 148.95 63.67 Z" />
<path fill="#af7ed9" opacity="1.00" d=" M 112.60 77.58 C 118.07 73.97 124.47 72.04 130.49 69.51 C 136.55 73.78 143.55 76.36 149.96 80.02 C 156.65 83.87 163.33 87.80 169.48 92.48 C 173.35 95.55 177.42 98.39 181.90 100.52 C 182.82 106.83 184.37 113.25 183.72 119.64 C 179.07 123.78 174.34 129.23 175.71 136.00 C 176.06 141.37 180.77 144.39 183.87 148.15 C 184.03 155.52 182.68 162.84 181.52 170.09 C 180.89 169.07 180.26 168.05 179.63 167.03 C 172.30 172.62 165.32 178.70 157.39 183.44 C 153.60 185.72 149.69 187.79 145.81 189.90 C 140.54 192.87 134.61 194.75 129.98 198.76 C 123.83 196.64 118.00 193.73 112.19 190.82 C 111.30 186.13 110.14 180.93 105.99 178.00 C 101.44 174.11 94.85 174.86 89.77 177.21 C 84.43 173.64 78.92 170.03 74.61 165.26 C 74.34 155.83 73.27 146.45 73.02 137.03 C 72.68 125.84 74.66 114.74 74.42 103.55 C 77.30 99.72 81.59 97.27 85.23 94.25 C 87.63 92.69 90.01 89.82 93.18 90.80 C 97.70 91.86 102.87 91.79 106.49 88.49 C 110.06 85.87 110.72 81.28 112.60 77.58 Z" />
<path fill="#af7ed9" opacity="1.00" d=" M 15.60 114.66 C 20.19 120.74 23.45 127.68 27.57 134.07 C 23.66 140.56 20.26 147.42 15.63 153.44 C 13.72 140.62 13.71 127.49 15.60 114.66 Z" />
<path fill="#af7ed9" opacity="1.00" d=" M 45.38 134.11 C 49.62 128.48 54.09 123.02 58.90 117.86 C 59.34 128.60 58.99 139.34 59.13 150.08 C 53.68 145.57 49.48 139.81 45.38 134.11 Z" />
<path fill="#af7ed9" opacity="1.00" d=" M 252.02 165.08 C 253.18 157.82 253.91 150.48 256.00 143.41 L 256.00 256.00 L 0.00 256.00 L 0.00 145.28 C 1.62 153.56 2.61 161.97 4.86 170.12 C 9.45 187.56 18.01 203.79 28.83 218.15 C 30.94 220.96 33.50 223.41 36.23 225.61 C 40.47 232.93 47.56 237.82 54.12 242.89 C 59.59 246.77 65.46 251.73 72.67 250.65 C 84.46 249.29 96.32 250.58 108.13 249.78 C 103.93 242.31 98.60 235.38 95.71 227.24 C 95.02 225.76 95.02 223.41 97.10 223.19 C 105.47 220.60 114.21 219.29 122.48 216.32 C 124.16 215.78 125.05 214.17 126.09 212.88 C 138.26 217.55 150.97 220.54 163.70 223.19 C 160.44 232.94 153.95 241.08 149.09 250.02 C 155.12 248.72 161.23 247.39 166.89 244.86 C 169.95 243.63 171.41 240.50 172.84 237.77 C 174.94 233.54 177.09 229.35 179.27 225.16 C 190.85 225.59 202.45 225.50 214.04 225.43 C 216.83 225.36 220.07 225.36 222.00 222.99 C 233.18 210.59 241.34 195.70 247.19 180.14 C 248.34 177.17 249.03 173.94 248.35 170.79 C 250.28 169.42 251.82 167.53 252.02 165.08 Z" />
<path fill="#af7ed9" opacity="1.00" d=" M 24.25 169.27 C 28.11 161.66 31.86 153.94 36.77 146.93 C 45.17 156.99 53.90 166.81 63.77 175.46 C 63.33 179.45 63.43 183.51 64.62 187.37 C 67.02 195.59 69.40 203.86 72.90 211.70 C 63.26 211.30 53.56 212.18 43.96 211.05 C 40.78 210.88 39.09 207.88 37.36 205.64 C 31.63 197.34 26.41 188.59 22.80 179.15 C 21.22 175.83 22.76 172.30 24.25 169.27 Z" />
<path fill="#af7ed9" opacity="1.00" d=" M 211.94 154.95 C 214.30 152.32 216.43 149.09 219.92 147.88 C 226.23 152.51 226.65 161.49 231.94 166.98 C 233.32 167.45 234.80 167.59 236.24 167.82 C 232.10 182.06 225.39 195.58 216.42 207.41 C 215.08 209.49 212.65 210.21 210.30 210.31 C 201.95 210.93 193.56 210.72 185.19 210.62 C 190.34 195.72 194.47 180.43 196.67 164.80 C 197.01 166.34 197.42 167.86 197.82 169.39 C 202.81 164.87 207.68 160.18 211.94 154.95 Z" />
<path fill="#af7ed9" opacity="1.00" d=" M 150.54 205.25 C 159.41 199.87 168.31 194.55 176.92 188.78 C 175.76 195.77 172.82 202.26 170.60 208.95 C 163.82 208.32 157.10 207.08 150.54 205.25 Z" />
<path fill="#af7ed9" opacity="1.00" d=" M 78.54 224.54 C 81.41 230.84 85.01 236.77 88.30 242.85 C 87.44 243.54 86.59 244.23 85.75 244.94 C 82.65 243.17 79.55 241.41 76.51 239.54 C 70.36 235.56 63.27 232.65 58.68 226.67 C 65.32 226.48 72.27 227.24 78.54 224.54 Z" />
</g>
<g id="#fefefdff">
<path fill="#fefefd" opacity="1.00" d=" M 98.08 4.21 C 117.59 -0.47 138.46 -0.87 157.82 4.73 C 161.40 11.95 166.46 18.28 170.49 25.24 C 173.78 31.22 176.53 37.49 179.81 43.49 C 187.25 43.31 194.69 42.63 202.12 43.07 C 207.94 43.49 213.77 43.64 219.57 44.25 C 221.62 45.08 223.55 46.27 225.01 47.97 C 231.58 55.68 236.48 64.60 241.41 73.40 C 241.19 73.94 240.74 75.04 240.52 75.59 C 238.41 80.84 236.68 86.25 234.49 91.48 C 230.48 85.51 228.31 78.55 224.54 72.44 C 222.01 68.36 219.68 64.09 216.51 60.45 C 214.95 58.49 212.26 58.47 210.00 58.16 C 201.96 57.37 193.85 57.43 185.79 57.85 C 189.58 70.68 193.58 83.48 195.81 96.70 C 196.94 103.76 197.47 110.90 198.15 118.02 C 198.66 123.80 204.01 128.02 203.68 134.00 C 203.75 139.61 198.94 143.65 198.27 149.08 C 197.56 154.30 197.32 159.57 196.67 164.80 C 194.47 180.43 190.34 195.72 185.19 210.62 C 193.56 210.72 201.95 210.93 210.30 210.31 C 212.65 210.21 215.08 209.49 216.42 207.41 C 225.39 195.58 232.10 182.06 236.24 167.82 C 237.40 163.76 238.18 159.62 238.91 155.47 C 239.15 154.98 239.63 154.00 239.87 153.51 C 243.10 159.06 245.65 164.97 248.35 170.79 C 249.03 173.94 248.34 177.17 247.19 180.14 C 241.34 195.70 233.18 210.59 222.00 222.99 C 220.07 225.36 216.83 225.36 214.04 225.43 C 202.45 225.50 190.85 225.59 179.27 225.16 C 177.09 229.35 174.94 233.54 172.84 237.77 C 171.41 240.50 169.95 243.63 166.89 244.86 C 161.23 247.39 155.12 248.72 149.09 250.02 C 153.95 241.08 160.44 232.94 163.70 223.19 C 150.97 220.54 138.26 217.55 126.09 212.88 C 121.11 210.96 116.15 208.95 111.35 206.58 C 108.32 205.17 105.16 203.32 101.68 203.88 C 97.72 204.35 93.32 204.73 89.98 202.07 C 84.64 198.94 84.93 191.51 79.93 188.10 C 74.41 184.07 68.98 179.91 63.77 175.46 C 53.90 166.81 45.17 156.99 36.77 146.93 C 31.86 153.94 28.11 161.66 24.25 169.27 C 22.76 172.30 21.22 175.83 22.80 179.15 C 26.41 188.59 31.63 197.34 37.36 205.64 C 39.09 207.88 40.78 210.88 43.96 211.05 C 53.56 212.18 63.26 211.30 72.90 211.70 C 74.72 216.00 76.55 220.30 78.54 224.54 C 72.27 227.24 65.32 226.48 58.68 226.67 C 51.18 226.57 43.73 225.39 36.23 225.61 C 33.50 223.41 30.94 220.96 28.83 218.15 C 18.01 203.79 9.45 187.56 4.86 170.12 C 2.61 161.97 1.62 153.56 0.00 145.28 L 0.00 122.74 C 0.56 119.06 1.19 115.39 1.77 111.71 C 4.88 92.29 12.16 73.50 23.23 57.22 C 40.58 31.19 67.66 11.74 98.08 4.21 M 106.01 17.64 C 99.94 18.71 93.76 20.25 88.29 23.14 C 81.46 25.02 75.28 28.63 69.27 32.28 C 65.11 34.89 60.92 37.59 57.62 41.28 C 55.86 41.66 54.61 43.16 53.26 44.24 C 49.10 48.17 44.74 52.05 41.83 57.04 C 40.36 57.78 39.50 59.27 38.48 60.49 C 31.78 69.65 25.92 79.55 22.17 90.30 C 20.86 93.32 23.06 96.20 24.17 98.89 C 28.13 106.54 31.66 114.50 36.86 121.43 C 45.27 111.25 54.17 101.46 64.05 92.67 C 68.66 89.08 73.05 85.20 77.88 81.90 C 79.20 80.76 81.05 79.87 81.63 78.12 C 84.31 77.25 83.98 73.96 84.92 71.80 C 86.12 67.11 90.47 63.83 95.03 62.77 C 99.43 61.81 103.71 64.38 108.14 63.54 C 114.36 59.98 121.21 57.74 127.62 54.57 C 139.70 50.65 152.03 47.61 164.47 45.08 C 161.24 37.47 156.87 30.44 152.59 23.39 C 151.30 21.41 150.12 19.27 148.30 17.72 C 144.72 16.35 140.82 16.24 137.06 15.83 C 126.69 15.23 116.18 15.35 106.01 17.64 M 148.95 63.67 C 142.64 65.03 136.53 67.25 130.49 69.51 C 124.47 72.04 118.07 73.97 112.60 77.58 C 110.72 81.28 110.06 85.87 106.49 88.49 C 102.87 91.79 97.70 91.86 93.18 90.80 C 90.01 89.82 87.63 92.69 85.23 94.25 C 81.59 97.27 77.30 99.72 74.42 103.55 C 68.54 107.49 63.79 112.81 58.90 117.86 C 54.09 123.02 49.62 128.48 45.38 134.11 C 49.48 139.81 53.68 145.57 59.13 150.08 C 59.25 151.30 60.33 152.07 61.04 152.96 C 65.36 157.27 69.58 161.74 74.61 165.26 C 78.92 170.03 84.43 173.64 89.77 177.21 C 94.85 174.86 101.44 174.11 105.99 178.00 C 110.14 180.93 111.30 186.13 112.19 190.82 C 118.00 193.73 123.83 196.64 129.98 198.76 C 136.58 201.66 143.55 203.56 150.54 205.25 C 157.10 207.08 163.82 208.32 170.60 208.95 C 172.82 202.26 175.76 195.77 176.92 188.78 C 179.48 182.88 180.04 176.32 181.52 170.09 C 182.68 162.84 184.03 155.52 183.87 148.15 C 180.77 144.39 176.06 141.37 175.71 136.00 C 174.34 129.23 179.07 123.78 183.72 119.64 C 184.37 113.25 182.82 106.83 181.90 100.52 C 180.95 93.27 179.36 86.12 177.23 79.14 C 175.62 72.35 173.33 65.75 170.79 59.25 C 163.46 60.47 156.09 61.57 148.95 63.67 M 15.60 114.66 C 13.71 127.49 13.72 140.62 15.63 153.44 C 20.26 147.42 23.66 140.56 27.57 134.07 C 23.45 127.68 20.19 120.74 15.60 114.66 Z" />
</g>
<g id="#956fb8ff">
<path fill="#956fb8" opacity="1.00" d=" M 157.82 4.73 C 178.21 9.05 196.67 20.09 211.90 34.09 C 215.03 36.96 219.39 39.50 219.57 44.25 C 213.77 43.64 207.94 43.49 202.12 43.07 C 199.67 41.89 197.37 40.44 195.20 38.82 C 187.70 33.14 179.72 27.61 170.49 25.24 C 166.46 18.28 161.40 11.95 157.82 4.73 Z" />
<path fill="#956fb8" opacity="1.00" d=" M 88.29 23.14 C 93.76 20.25 99.94 18.71 106.01 17.64 C 106.48 17.79 107.44 18.08 107.92 18.23 C 103.82 27.16 97.66 34.99 93.97 44.14 C 105.15 47.69 117.31 48.58 127.62 54.57 C 121.21 57.74 114.36 59.98 108.14 63.54 C 101.59 61.45 94.86 59.99 88.08 58.89 C 84.72 64.84 82.41 71.31 81.63 78.12 C 81.05 79.87 79.20 80.76 77.88 81.90 C 73.05 85.20 68.66 89.08 64.05 92.67 C 63.07 86.55 65.22 80.60 66.83 74.79 C 68.54 69.07 70.39 63.38 72.01 57.63 C 62.02 56.01 51.89 57.17 41.83 57.04 C 44.74 52.05 49.10 48.17 53.26 44.24 C 54.61 43.16 55.86 41.66 57.62 41.28 C 64.63 42.06 71.68 42.65 78.73 42.04 C 81.81 35.69 84.96 29.37 88.29 23.14 Z" />
<path fill="#956fb8" opacity="1.00" d=" M 130.49 69.51 C 136.53 67.25 142.64 65.03 148.95 63.67 C 159.51 66.56 167.56 74.41 177.23 79.14 C 179.36 86.12 180.95 93.27 181.90 100.52 C 177.42 98.39 173.35 95.55 169.48 92.48 C 163.33 87.80 156.65 83.87 149.96 80.02 C 143.55 76.36 136.55 73.78 130.49 69.51 Z" />
<path fill="#956fb8" opacity="1.00" d=" M 58.90 117.86 C 63.79 112.81 68.54 107.49 74.42 103.55 C 74.66 114.74 72.68 125.84 73.02 137.03 C 73.27 146.45 74.34 155.83 74.61 165.26 C 69.58 161.74 65.36 157.27 61.04 152.96 C 60.33 152.07 59.25 151.30 59.13 150.08 C 58.99 139.34 59.34 128.60 58.90 117.86 Z" />
</g>
<g id="#a87ad3ff">
<path fill="#a87ad3" opacity="1.00" d=" M 241.41 73.40 C 245.28 79.12 248.04 85.48 249.95 92.10 C 253.13 101.34 253.61 111.19 256.00 120.62 L 256.00 143.41 C 253.91 150.48 253.18 157.82 252.02 165.08 C 251.82 167.53 250.28 169.42 248.35 170.79 C 245.65 164.97 243.10 159.06 239.87 153.51 C 239.63 154.00 239.15 154.98 238.91 155.47 C 236.67 150.37 234.50 145.21 231.50 140.50 C 229.93 137.80 227.64 134.59 229.39 131.41 C 231.87 126.05 235.53 121.34 238.46 116.21 C 240.02 119.24 241.27 122.43 242.10 125.74 C 245.64 123.59 250.39 122.34 252.36 118.39 C 253.78 112.11 251.55 105.75 250.30 99.62 C 248.04 91.29 246.04 82.46 240.52 75.59 C 240.74 75.04 241.19 73.94 241.41 73.40 Z" />
</g>
<g id="#a376cbff">
<path fill="#a376cb" opacity="1.00" d=" M 240.52 75.59 C 246.04 82.46 248.04 91.29 250.30 99.62 C 251.55 105.75 253.78 112.11 252.36 118.39 C 250.39 122.34 245.64 123.59 242.10 125.74 C 241.27 122.43 240.02 119.24 238.46 116.21 C 235.53 121.34 231.87 126.05 229.39 131.41 C 227.64 134.59 229.93 137.80 231.50 140.50 C 234.50 145.21 236.67 150.37 238.91 155.47 C 238.18 159.62 237.40 163.76 236.24 167.82 C 234.80 167.59 233.32 167.45 231.94 166.98 C 226.65 161.49 226.23 152.51 219.92 147.88 C 216.43 149.09 214.30 152.32 211.94 154.95 C 207.68 160.18 202.81 164.87 197.82 169.39 C 197.42 167.86 197.01 166.34 196.67 164.80 C 197.32 159.57 197.56 154.30 198.27 149.08 C 198.94 143.65 203.75 139.61 203.68 134.00 C 204.01 128.02 198.66 123.80 198.15 118.02 C 197.47 110.90 196.94 103.76 195.81 96.70 C 206.16 101.25 211.42 111.93 219.09 119.61 C 221.71 116.60 224.14 113.38 225.77 109.71 C 228.56 103.58 231.93 97.72 234.49 91.48 C 236.68 86.25 238.41 80.84 240.52 75.59 Z" />
<path fill="#a376cb" opacity="1.00" d=" M 157.39 183.44 C 165.32 178.70 172.30 172.62 179.63 167.03 C 180.26 168.05 180.89 169.07 181.52 170.09 C 180.04 176.32 179.48 182.88 176.92 188.78 C 168.31 194.55 159.41 199.87 150.54 205.25 C 143.55 203.56 136.58 201.66 129.98 198.76 C 134.61 194.75 140.54 192.87 145.81 189.90 C 149.69 187.79 153.60 185.72 157.39 183.44 Z" />
<path fill="#a376cb" opacity="1.00" d=" M 64.62 187.37 C 63.43 183.51 63.33 179.45 63.77 175.46 C 68.98 179.91 74.41 184.07 79.93 188.10 C 84.93 191.51 84.64 198.94 89.98 202.07 C 93.32 204.73 97.72 204.35 101.68 203.88 C 105.16 203.32 108.32 205.17 111.35 206.58 C 116.15 208.95 121.11 210.96 126.09 212.88 C 125.05 214.17 124.16 215.78 122.48 216.32 C 114.21 219.29 105.47 220.60 97.10 223.19 C 95.02 223.41 95.02 225.76 95.71 227.24 C 98.60 235.38 103.93 242.31 108.13 249.78 C 96.32 250.58 84.46 249.29 72.67 250.65 C 65.46 251.73 59.59 246.77 54.12 242.89 C 47.56 237.82 40.47 232.93 36.23 225.61 C 43.73 225.39 51.18 226.57 58.68 226.67 C 63.27 232.65 70.36 235.56 76.51 239.54 C 79.55 241.41 82.65 243.17 85.75 244.94 C 86.59 244.23 87.44 243.54 88.30 242.85 C 85.01 236.77 81.41 230.84 78.54 224.54 C 76.55 220.30 74.72 216.00 72.90 211.70 C 69.40 203.86 67.02 195.59 64.62 187.37 Z" />
</g>
</svg>
