<?xml version="1.0" encoding="UTF-8" ?>
<!DOCTYPE svg PUBLIC "-//W3C//DTD SVG 1.1//EN" "http://www.w3.org/Graphics/SVG/1.1/DTD/svg11.dtd">
<svg width="300pt" height="300pt" viewBox="0 0 300 300" version="1.1" xmlns="http://www.w3.org/2000/svg">
<g id="#171922ff">
<path fill="#171922" opacity="1.00" d=" M 0.00 0.00 L 300.00 0.00 L 300.00 300.00 L 0.00 300.00 L 0.00 0.00 M 91.33 59.35 C 74.53 77.23 57.85 95.23 41.53 113.55 C 39.65 115.95 39.83 119.85 41.87 122.12 C 49.74 131.55 58.33 140.35 66.57 149.46 C 77.63 161.10 88.16 173.24 99.24 184.85 C 99.59 185.09 100.29 185.57 100.64 185.81 C 111.90 173.67 122.84 161.25 134.36 149.36 C 138.53 144.31 143.59 140.02 147.43 134.70 C 148.55 135.14 149.74 135.54 150.55 136.49 C 155.34 141.17 159.64 146.34 164.58 150.88 C 175.54 162.67 186.74 174.25 197.92 185.82 C 216.13 166.37 234.22 146.83 252.08 127.07 C 254.39 124.57 257.01 122.24 258.42 119.07 C 258.20 116.13 256.97 113.21 254.84 111.13 C 250.46 106.51 246.18 101.78 241.95 97.02 C 227.04 81.48 213.03 65.09 197.99 49.66 C 193.54 53.98 189.44 58.65 185.15 63.14 C 172.97 76.71 160.26 89.82 148.04 103.33 C 142.20 97.58 137.27 90.95 131.35 85.27 C 122.94 75.80 114.73 66.16 106.21 56.78 C 104.17 54.60 102.47 51.99 100.00 50.29 C 96.58 52.62 94.26 56.41 91.33 59.35 M 71.13 207.37 C 71.33 208.50 71.05 210.81 72.94 210.38 C 78.20 210.52 83.48 210.15 88.73 210.47 L 89.33 211.07 C 89.51 224.05 89.39 237.05 89.36 250.03 C 90.47 250.10 91.57 250.12 92.67 250.10 C 92.66 237.09 92.61 224.08 92.67 211.07 L 93.26 210.47 C 99.04 209.92 104.93 211.06 110.65 209.90 C 110.64 209.29 110.64 208.06 110.64 207.44 C 97.47 207.23 84.30 207.36 71.13 207.37 M 186.89 207.26 C 192.05 214.78 198.57 221.31 203.64 228.90 C 198.17 236.06 191.85 242.62 186.89 250.12 C 188.40 250.22 190.18 250.64 191.21 249.18 C 196.45 243.55 200.52 236.91 205.89 231.39 C 210.88 237.04 215.38 243.11 220.05 249.02 C 221.29 250.96 223.67 250.10 225.56 250.07 C 220.47 244.59 215.97 238.60 211.20 232.85 C 210.24 231.31 208.45 230.04 208.29 228.16 C 211.97 223.27 216.01 218.63 219.76 213.79 C 221.27 211.68 223.61 209.96 224.01 207.25 C 222.80 207.27 221.60 207.32 220.40 207.41 C 216.93 211.94 213.59 216.56 209.98 220.98 C 208.49 222.68 207.40 224.85 205.32 225.93 C 200.81 220.01 196.40 214.02 191.71 208.25 C 190.61 206.73 188.45 207.50 186.89 207.26 M 113.65 228.69 C 111.73 233.83 112.97 239.62 115.95 244.08 C 121.81 251.41 133.41 251.92 140.86 246.80 C 142.39 246.10 140.84 243.54 139.50 244.59 C 134.96 247.46 129.30 247.78 124.16 246.70 C 118.94 244.86 116.12 238.93 116.46 233.64 C 125.17 233.47 133.88 233.58 142.58 233.57 C 142.91 229.14 142.48 224.22 138.89 221.11 C 130.88 213.89 116.29 218.18 113.65 228.69 M 151.39 217.28 C 151.57 228.10 151.58 238.93 151.41 249.76 C 152.67 249.80 154.84 250.94 155.33 249.06 C 155.59 241.52 155.00 233.95 155.55 226.44 C 157.74 222.41 162.40 219.73 167.02 220.29 C 170.91 219.87 175.09 222.54 175.73 226.52 C 175.01 234.30 175.51 242.14 175.35 249.94 C 177.10 250.35 178.89 250.36 180.65 249.96 C 180.63 243.28 180.67 236.60 180.61 229.92 C 180.71 228.38 180.11 226.98 179.26 225.74 C 178.53 223.02 177.10 220.03 174.22 219.07 C 170.64 217.83 166.72 216.49 163.05 218.26 C 159.71 218.59 157.89 222.15 154.71 222.52 C 154.63 220.77 154.60 219.03 154.53 217.28 C 153.48 217.26 152.44 217.26 151.39 217.28 Z" />
<path fill="#171922" opacity="1.00" d=" M 69.52 114.53 C 79.78 103.39 89.79 91.96 100.66 81.40 C 107.42 88.26 113.93 95.37 120.39 102.51 C 123.66 106.26 127.07 109.89 130.67 113.34 C 132.23 114.79 133.51 116.53 134.29 118.53 C 122.72 129.98 111.93 142.18 100.77 154.01 C 90.82 144.36 81.69 133.88 72.05 123.92 C 69.78 121.51 66.39 117.66 69.52 114.53 Z" />
<path fill="#171922" opacity="1.00" d=" M 162.82 118.19 C 174.90 106.28 185.87 93.29 197.81 81.25 C 204.47 88.89 211.98 95.72 218.67 103.34 C 221.95 107.19 226.08 110.46 228.39 115.04 C 229.88 121.01 224.77 125.31 221.33 129.36 C 213.60 137.56 206.23 146.11 198.01 153.82 C 190.51 146.56 183.15 139.16 175.90 131.66 C 171.71 127.00 166.82 123.02 162.82 118.19 Z" />
<path fill="#171922" opacity="1.00" d=" M 117.35 231.47 C 116.18 221.64 130.34 216.28 136.61 223.33 C 138.43 225.38 140.92 229.32 138.14 231.51 C 131.21 231.50 124.28 231.50 117.35 231.47 Z" />
</g>
<g id="#ffffffff">
<path fill="#ffffff" opacity="1.00" d=" M 91.33 59.35 C 94.26 56.41 96.58 52.62 100.00 50.29 C 102.47 51.99 104.17 54.60 106.21 56.78 C 114.73 66.16 122.94 75.80 131.35 85.27 C 128.92 86.77 126.22 88.14 124.64 90.62 C 122.06 94.11 122.05 98.63 120.39 102.51 C 113.93 95.37 107.42 88.26 100.66 81.40 C 89.79 91.96 79.78 103.39 69.52 114.53 C 66.39 117.66 69.78 121.51 72.05 123.92 C 81.69 133.88 90.82 144.36 100.77 154.01 C 111.93 142.18 122.72 129.98 134.29 118.53 C 139.31 113.89 144.38 109.17 148.04 103.33 C 160.26 89.82 172.97 76.71 185.15 63.14 C 189.44 58.65 193.54 53.98 197.99 49.66 C 213.03 65.09 227.04 81.48 241.95 97.02 C 246.18 101.78 250.46 106.51 254.84 111.13 C 256.97 113.21 258.20 116.13 258.42 119.07 C 257.01 122.24 254.39 124.57 252.08 127.07 C 234.22 146.83 216.13 166.37 197.92 185.82 C 186.74 174.25 175.54 162.67 164.58 150.88 C 166.77 150.72 169.11 151.02 171.19 150.17 C 174.20 147.09 176.35 143.07 177.47 138.91 C 177.27 136.49 175.56 134.47 174.67 132.24 C 174.98 132.10 175.59 131.80 175.90 131.66 C 183.15 139.16 190.51 146.56 198.01 153.82 C 206.23 146.11 213.60 137.56 221.33 129.36 C 224.77 125.31 229.88 121.01 228.39 115.04 C 226.08 110.46 221.95 107.19 218.67 103.34 C 211.98 95.72 204.47 88.89 197.81 81.25 C 185.87 93.29 174.90 106.28 162.82 118.19 C 157.42 123.42 151.95 128.67 147.43 134.70 C 143.59 140.02 138.53 144.31 134.36 149.36 C 122.84 161.25 111.90 173.67 100.64 185.81 C 100.29 185.57 99.59 185.09 99.24 184.85 C 88.16 173.24 77.63 161.10 66.57 149.46 C 58.33 140.35 49.74 131.55 41.87 122.12 C 39.83 119.85 39.65 115.95 41.53 113.55 C 57.85 95.23 74.53 77.23 91.33 59.35 Z" />
<path fill="#ffffff" opacity="1.00" d=" M 71.13 207.37 C 84.30 207.36 97.47 207.23 110.64 207.44 C 110.64 208.06 110.64 209.29 110.65 209.90 C 104.93 211.06 99.04 209.92 93.26 210.47 L 92.67 211.07 C 92.61 224.08 92.66 237.09 92.67 250.10 C 91.57 250.12 90.47 250.10 89.36 250.03 C 89.39 237.05 89.51 224.05 89.33 211.07 L 88.73 210.47 C 83.48 210.15 78.20 210.52 72.94 210.38 C 71.05 210.81 71.33 208.50 71.13 207.37 Z" />
<path fill="#ffffff" opacity="1.00" d=" M 186.89 207.26 C 188.45 207.50 190.61 206.73 191.71 208.25 C 196.40 214.02 200.81 220.01 205.32 225.93 C 207.40 224.85 208.49 222.68 209.98 220.98 C 213.59 216.56 216.93 211.94 220.40 207.41 C 221.60 207.32 222.80 207.27 224.01 207.25 C 223.61 209.96 221.27 211.68 219.76 213.79 C 216.01 218.63 211.97 223.27 208.29 228.16 C 208.45 230.04 210.24 231.31 211.20 232.85 C 215.97 238.60 220.47 244.59 225.56 250.07 C 223.67 250.10 221.29 250.96 220.05 249.02 C 215.38 243.11 210.88 237.04 205.89 231.39 C 200.52 236.91 196.45 243.55 191.21 249.18 C 190.18 250.64 188.40 250.22 186.89 250.12 C 191.85 242.62 198.17 236.06 203.64 228.90 C 198.57 221.31 192.05 214.78 186.89 207.26 Z" />
<path fill="#ffffff" opacity="1.00" d=" M 113.65 228.69 C 116.29 218.18 130.88 213.89 138.89 221.11 C 142.48 224.22 142.91 229.14 142.58 233.57 C 133.88 233.58 125.17 233.47 116.46 233.64 C 116.12 238.93 118.94 244.86 124.16 246.70 C 129.30 247.78 134.96 247.46 139.50 244.59 C 140.84 243.54 142.39 246.10 140.86 246.80 C 133.41 251.92 121.81 251.41 115.95 244.08 C 112.97 239.62 111.73 233.83 113.65 228.69 M 117.35 231.47 C 124.28 231.50 131.21 231.50 138.14 231.51 C 140.92 229.32 138.43 225.38 136.61 223.33 C 130.34 216.28 116.18 221.64 117.35 231.47 Z" />
<path fill="#ffffff" opacity="1.00" d=" M 151.39 217.28 C 152.44 217.26 153.48 217.26 154.53 217.28 C 154.60 219.03 154.63 220.77 154.71 222.52 C 157.89 222.15 159.71 218.59 163.05 218.26 C 166.72 216.49 170.64 217.83 174.22 219.07 C 177.10 220.03 178.53 223.02 179.26 225.74 C 179.40 233.66 179.56 241.58 179.33 249.50 C 178.63 249.50 177.24 249.51 176.55 249.51 C 175.92 241.86 177.34 234.07 175.73 226.52 C 175.09 222.54 170.91 219.87 167.02 220.29 C 162.40 219.73 157.74 222.41 155.55 226.44 C 155.00 233.95 155.59 241.52 155.33 249.06 C 154.84 250.94 152.67 249.80 151.41 249.76 C 151.58 238.93 151.57 228.10 151.39 217.28 Z" />
</g>
<g id="#cecfd1ff">
<path fill="#cecfd1" opacity="1.00" d=" M 131.35 85.27 C 137.27 90.95 142.20 97.58 148.04 103.33 C 144.38 109.17 139.31 113.89 134.29 118.53 C 133.51 116.53 132.23 114.79 130.67 113.34 C 127.07 109.89 123.66 106.26 120.39 102.51 C 122.05 98.63 122.06 94.11 124.64 90.62 C 126.22 88.14 128.92 86.77 131.35 85.27 Z" />
<path fill="#cecfd1" opacity="1.00" d=" M 147.43 134.70 C 151.95 128.67 157.42 123.42 162.82 118.19 C 166.82 123.02 171.71 127.00 175.90 131.66 C 175.59 131.80 174.98 132.10 174.67 132.24 C 175.56 134.47 177.27 136.49 177.47 138.91 C 176.35 143.07 174.20 147.09 171.19 150.17 C 169.11 151.02 166.77 150.72 164.58 150.88 C 159.64 146.34 155.34 141.17 150.55 136.49 C 149.74 135.54 148.55 135.14 147.43 134.70 Z" />
</g>
<g id="#79787cff">
<path fill="#79787c" opacity="1.00" d=" M 179.26 225.74 C 180.11 226.98 180.71 228.38 180.61 229.92 C 180.67 236.60 180.63 243.28 180.65 249.96 C 178.89 250.36 177.10 250.35 175.35 249.94 C 175.51 242.14 175.01 234.30 175.73 226.52 C 177.34 234.07 175.92 241.86 176.55 249.51 C 177.24 249.51 178.63 249.50 179.33 249.50 C 179.56 241.58 179.40 233.66 179.26 225.74 Z" />
</g>
</svg>
