<?xml version="1.0" encoding="UTF-8" ?>
<!DOCTYPE svg PUBLIC "-//W3C//DTD SVG 1.1//EN" "http://www.w3.org/Graphics/SVG/1.1/DTD/svg11.dtd">
<svg width="300pt" height="300pt" viewBox="0 0 300 300" version="1.1" xmlns="http://www.w3.org/2000/svg">
<g id="#000000ff">
<path fill="#000000" opacity="1.00" d=" M 0.00 0.00 L 300.00 0.00 L 300.00 300.00 L 0.00 300.00 L 0.00 0.00 M 106.74 58.74 C 105.49 59.46 104.39 60.40 103.34 61.37 C 100.80 61.68 98.73 63.34 96.55 64.54 C 80.86 73.86 64.88 82.70 49.24 92.10 C 49.34 130.67 49.29 169.25 49.27 207.82 C 59.88 214.23 70.76 220.19 81.42 226.53 C 84.27 228.22 87.12 229.91 90.14 231.29 C 109.93 243.15 130.09 254.43 150.01 266.09 C 183.36 246.56 216.97 227.48 250.35 208.01 C 250.47 169.30 250.37 130.59 250.40 91.88 C 216.95 72.49 183.47 53.14 149.96 33.87 C 135.46 42.01 121.23 50.61 106.74 58.74 Z" />
<path fill="#000000" opacity="1.00" d=" M 108.71 68.57 C 120.87 61.50 133.07 54.51 145.28 47.52 C 145.47 61.70 145.30 75.89 145.38 90.07 C 145.66 93.17 143.78 95.77 142.35 98.35 C 136.24 108.75 130.34 119.26 124.17 129.62 C 113.19 123.15 102.04 116.96 91.07 110.47 C 82.02 105.14 72.90 99.94 63.80 94.70 C 78.61 85.73 93.84 77.45 108.71 68.57 Z" />
<path fill="#000000" opacity="1.00" d=" M 154.71 47.71 C 181.96 63.18 209.09 78.90 236.15 94.73 C 215.95 106.24 195.82 117.86 175.75 129.60 C 169.24 118.92 163.28 107.91 156.83 97.19 C 155.77 95.29 154.42 93.34 154.62 91.05 C 154.69 76.60 154.54 62.15 154.71 47.71 Z" />
<path fill="#000000" opacity="1.00" d=" M 59.15 103.02 C 68.17 108.11 77.04 113.47 86.08 118.51 C 97.23 124.97 108.46 131.28 119.51 137.91 C 113.05 149.01 106.68 160.15 100.25 171.27 C 97.89 175.62 92.94 177.24 88.97 179.71 C 78.90 185.27 69.05 191.20 59.06 196.90 C 59.15 165.61 59.08 134.31 59.15 103.02 Z" />
<path fill="#000000" opacity="1.00" d=" M 180.40 137.89 C 200.37 126.13 220.60 114.81 240.55 103.01 C 240.79 104.65 240.88 106.32 240.90 107.99 C 240.84 137.65 240.93 167.30 240.85 196.96 C 230.18 190.73 219.47 184.56 208.76 178.39 C 206.07 176.76 202.94 175.59 200.82 173.19 C 193.90 161.50 187.29 149.61 180.40 137.89 Z" />
<path fill="#000000" opacity="1.00" d=" M 132.51 134.23 C 136.86 126.85 141.05 119.37 145.41 112.00 C 145.33 121.94 145.36 131.88 145.39 141.83 C 140.98 139.49 136.74 136.85 132.51 134.23 Z" />
<path fill="#000000" opacity="1.00" d=" M 154.84 113.25 C 157.25 116.26 158.89 119.77 160.85 123.07 C 163.02 126.83 165.46 130.47 167.09 134.51 C 163.02 136.95 158.91 139.31 154.73 141.55 C 154.64 132.12 154.44 122.67 154.84 113.25 Z" />
<path fill="#000000" opacity="1.00" d=" M 115.50 164.11 C 119.31 156.75 123.58 149.62 127.90 142.56 C 131.75 145.01 135.76 147.19 139.76 149.38 C 139.69 149.66 139.56 150.23 139.49 150.51 C 131.48 155.01 123.66 159.88 115.50 164.11 Z" />
<path fill="#000000" opacity="1.00" d=" M 160.30 149.37 C 164.16 147.03 168.15 144.90 172.08 142.68 C 176.28 149.75 180.49 156.82 184.41 164.05 C 176.20 159.93 168.44 154.97 160.40 150.54 C 160.38 150.25 160.32 149.66 160.30 149.37 Z" />
<path fill="#000000" opacity="1.00" d=" M 111.76 177.72 C 122.63 170.73 134.07 164.63 145.28 158.21 C 145.43 171.11 145.40 184.01 145.30 196.91 C 133.95 190.82 122.95 184.09 111.76 177.72 Z" />
<path fill="#000000" opacity="1.00" d=" M 154.71 158.27 C 165.91 164.67 177.23 170.90 188.18 177.72 C 176.95 183.97 165.97 190.66 154.73 196.89 C 154.56 184.02 154.60 171.14 154.71 158.27 Z" />
<path fill="#000000" opacity="1.00" d=" M 88.88 190.58 C 93.26 188.05 97.62 185.46 102.09 183.08 C 116.52 191.34 130.87 199.75 145.31 208.01 C 145.39 222.76 145.42 237.51 145.29 252.26 C 126.76 241.87 108.45 231.09 90.02 220.52 C 81.38 215.23 72.38 210.54 63.78 205.16 C 72.13 200.27 80.59 195.58 88.88 190.58 Z" />
<path fill="#000000" opacity="1.00" d=" M 154.70 208.00 C 169.07 199.67 183.46 191.36 197.84 183.04 C 210.62 190.38 223.29 197.92 236.16 205.10 C 209.15 221.06 181.85 236.52 154.72 252.27 C 154.58 237.52 154.60 222.76 154.70 208.00 Z" />
</g>
<g id="#38fdf2ff">
<path fill="#38fdf2" opacity="1.00" d=" M 106.74 58.74 C 121.23 50.61 135.46 42.01 149.96 33.87 C 183.47 53.14 216.95 72.49 250.40 91.88 C 250.37 130.59 250.47 169.30 250.35 208.01 C 216.97 227.48 183.36 246.56 150.01 266.09 C 130.09 254.43 109.93 243.15 90.14 231.29 C 89.51 229.45 88.77 227.64 87.93 225.89 C 88.84 225.28 89.76 224.67 90.68 224.06 C 90.46 222.88 90.24 221.70 90.02 220.52 C 108.45 231.09 126.76 241.87 145.29 252.26 C 145.42 237.51 145.39 222.76 145.31 208.01 C 130.87 199.75 116.52 191.34 102.09 183.08 C 97.62 185.46 93.26 188.05 88.88 190.58 C 89.21 186.97 89.51 183.32 88.97 179.71 C 92.94 177.24 97.89 175.62 100.25 171.27 C 106.68 160.15 113.05 149.01 119.51 137.91 C 108.46 131.28 97.23 124.97 86.08 118.51 C 86.50 116.84 86.87 115.16 87.20 113.48 C 88.48 112.46 89.77 111.46 91.07 110.47 C 102.04 116.96 113.19 123.15 124.17 129.62 C 130.34 119.26 136.24 108.75 142.35 98.35 C 143.78 95.77 145.66 93.17 145.38 90.07 C 145.30 75.89 145.47 61.70 145.28 47.52 C 133.07 54.51 120.87 61.50 108.71 68.57 C 108.64 65.49 108.94 62.42 109.69 59.43 C 107.73 60.50 105.58 61.19 103.34 61.37 C 104.39 60.40 105.49 59.46 106.74 58.74 M 154.71 47.71 C 154.54 62.15 154.69 76.60 154.62 91.05 C 154.42 93.34 155.77 95.29 156.83 97.19 C 163.28 107.91 169.24 118.92 175.75 129.60 C 195.82 117.86 215.95 106.24 236.15 94.73 C 209.09 78.90 181.96 63.18 154.71 47.71 M 180.40 137.89 C 187.29 149.61 193.90 161.50 200.82 173.19 C 202.94 175.59 206.07 176.76 208.76 178.39 C 219.47 184.56 230.18 190.73 240.85 196.96 C 240.93 167.30 240.84 137.65 240.90 107.99 C 240.88 106.32 240.79 104.65 240.55 103.01 C 220.60 114.81 200.37 126.13 180.40 137.89 M 132.51 134.23 C 136.74 136.85 140.98 139.49 145.39 141.83 C 145.36 131.88 145.33 121.94 145.41 112.00 C 141.05 119.37 136.86 126.85 132.51 134.23 M 154.84 113.25 C 154.44 122.67 154.64 132.12 154.73 141.55 C 158.91 139.31 163.02 136.95 167.09 134.51 C 165.46 130.47 163.02 126.83 160.85 123.07 C 158.89 119.77 157.25 116.26 154.84 113.25 M 115.50 164.11 C 123.66 159.88 131.48 155.01 139.49 150.51 C 139.56 150.23 139.69 149.66 139.76 149.38 C 135.76 147.19 131.75 145.01 127.90 142.56 C 123.58 149.62 119.31 156.75 115.50 164.11 M 160.30 149.37 C 160.32 149.66 160.38 150.25 160.40 150.54 C 168.44 154.97 176.20 159.93 184.41 164.05 C 180.49 156.82 176.28 149.75 172.08 142.68 C 168.15 144.90 164.16 147.03 160.30 149.37 M 111.76 177.72 C 122.95 184.09 133.95 190.82 145.30 196.91 C 145.40 184.01 145.43 171.11 145.28 158.21 C 134.07 164.63 122.63 170.73 111.76 177.72 M 154.71 158.27 C 154.60 171.14 154.56 184.02 154.73 196.89 C 165.97 190.66 176.95 183.97 188.18 177.72 C 177.23 170.90 165.91 164.67 154.71 158.27 M 154.70 208.00 C 154.60 222.76 154.58 237.52 154.72 252.27 C 181.85 236.52 209.15 221.06 236.16 205.10 C 223.29 197.92 210.62 190.38 197.84 183.04 C 183.46 191.36 169.07 199.67 154.70 208.00 Z" />
</g>
<g id="#18f8aaff">
<path fill="#18f8aa" opacity="1.00" d=" M 103.34 61.37 C 105.58 61.19 107.73 60.50 109.69 59.43 C 108.94 62.42 108.64 65.49 108.71 68.57 C 93.84 77.45 78.61 85.73 63.80 94.70 C 72.90 99.94 82.02 105.14 91.07 110.47 C 89.77 111.46 88.48 112.46 87.20 113.48 C 86.87 115.16 86.50 116.84 86.08 118.51 C 77.04 113.47 68.17 108.11 59.15 103.02 C 59.08 134.31 59.15 165.61 59.06 196.90 C 69.05 191.20 78.90 185.27 88.97 179.71 C 89.51 183.32 89.21 186.97 88.88 190.58 C 80.59 195.58 72.13 200.27 63.78 205.16 C 72.38 210.54 81.38 215.23 90.02 220.52 C 90.24 221.70 90.46 222.88 90.68 224.06 C 89.76 224.67 88.84 225.28 87.93 225.89 C 88.77 227.64 89.51 229.45 90.14 231.29 C 87.12 229.91 84.27 228.22 81.42 226.53 C 70.76 220.19 59.88 214.23 49.27 207.82 C 49.29 169.25 49.34 130.67 49.24 92.10 C 64.88 82.70 80.86 73.86 96.55 64.54 C 98.73 63.34 100.80 61.68 103.34 61.37 Z" />
</g>
</svg>
