<?xml version="1.0" encoding="UTF-8" ?>
<!DOCTYPE svg PUBLIC "-//W3C//DTD SVG 1.1//EN" "http://www.w3.org/Graphics/SVG/1.1/DTD/svg11.dtd">
<svg width="128pt" height="128pt" viewBox="0 0 128 128" version="1.1" xmlns="http://www.w3.org/2000/svg">
<g id="#fcfdfefe">
<path fill="#fcfdfe" opacity="1.00" d=" M 51.37 1.49 C 66.98 -1.76 83.78 1.24 97.35 9.62 C 111.36 18.18 121.87 32.33 125.82 48.29 C 129.39 62.12 128.07 77.14 122.16 90.15 C 115.85 104.24 104.23 115.85 90.15 122.15 C 78.10 127.61 64.32 129.21 51.37 126.51 C 35.15 123.36 20.45 113.47 11.21 99.81 C 1.18 85.17 -2.27 66.23 2.00 49.00 C 7.42 25.38 27.54 5.99 51.37 1.49 M 55.33 5.21 C 33.98 8.10 15.14 23.72 8.00 43.99 C 2.45 59.18 3.59 76.64 11.00 91.00 C 17.80 104.39 29.82 115.02 43.98 120.04 C 56.78 124.68 71.22 124.67 84.02 120.04 C 98.41 114.94 110.60 104.03 117.33 90.34 C 124.33 76.33 125.44 59.49 120.25 44.71 C 115.63 31.20 105.91 19.57 93.56 12.45 C 82.11 5.83 68.40 3.26 55.33 5.21 Z" />
</g>
<g id="#307dfbff">
<path fill="#307dfb" opacity="1.00" d=" M 55.33 5.21 C 68.40 3.26 82.11 5.83 93.56 12.45 C 105.91 19.57 115.63 31.20 120.25 44.71 C 125.44 59.49 124.33 76.33 117.33 90.34 C 110.60 104.03 98.41 114.94 84.02 120.04 C 71.22 124.67 56.78 124.68 43.98 120.04 C 29.82 115.02 17.80 104.39 11.00 91.00 C 3.59 76.64 2.45 59.18 8.00 43.99 C 15.14 23.72 33.98 8.10 55.33 5.21 M 63.46 14.75 C 54.14 30.25 44.11 45.31 34.81 60.80 C 44.59 68.42 54.11 76.37 63.91 83.96 C 73.63 76.20 83.35 68.45 93.16 60.80 C 84.36 46.37 75.02 32.27 66.11 17.90 C 65.41 16.71 64.51 15.65 63.46 14.75 M 43.23 91.16 C 43.22 97.54 43.33 103.92 43.16 110.31 C 45.84 110.47 48.52 110.47 51.21 110.41 C 51.19 109.74 51.17 108.38 51.15 107.71 C 49.47 107.68 47.78 107.66 46.09 107.65 C 46.07 102.13 46.24 96.61 45.93 91.11 C 45.25 91.12 43.90 91.14 43.23 91.16 M 56.76 91.09 C 56.66 97.56 56.68 104.03 56.74 110.51 C 57.30 110.48 58.43 110.44 58.99 110.41 C 60.08 108.08 59.28 105.30 59.71 102.80 C 64.25 103.19 60.80 112.09 66.39 110.39 C 65.80 107.92 65.05 105.49 64.60 103.00 C 65.48 99.73 66.81 96.04 65.14 92.81 C 63.21 90.18 59.51 91.44 56.76 91.09 M 72.18 95.02 C 72.03 98.96 71.99 102.92 72.21 106.86 C 72.44 110.58 77.87 112.06 80.08 109.14 C 81.70 107.59 81.35 105.23 81.07 103.25 C 80.43 103.27 79.15 103.32 78.50 103.35 C 78.33 104.79 78.15 106.24 77.90 107.67 C 77.23 107.68 75.88 107.69 75.21 107.70 C 74.68 103.10 74.81 98.47 75.09 93.86 C 75.84 93.87 77.32 93.88 78.07 93.89 C 78.21 95.15 78.35 96.41 78.48 97.67 C 79.13 97.69 80.42 97.71 81.06 97.73 C 81.70 95.34 81.11 92.28 78.57 91.28 C 75.95 89.84 72.17 92.00 72.18 95.02 Z" />
<path fill="#307dfb" opacity="1.00" d=" M 40.57 59.47 C 47.77 47.89 54.35 35.89 61.95 24.58 C 62.43 42.18 61.70 59.78 61.87 77.39 C 55.00 72.58 48.64 67.09 41.94 62.04 C 41.29 61.38 39.59 60.60 40.57 59.47 Z" />
<path fill="#307dfb" opacity="1.00" d=" M 66.05 24.61 C 73.85 36.16 80.38 48.54 87.99 60.22 C 80.92 66.20 73.58 71.87 66.15 77.39 C 65.80 59.80 65.76 42.19 66.05 24.61 Z" />
<path fill="#307dfb" opacity="1.00" d=" M 59.66 93.89 C 60.49 93.98 62.16 94.17 62.99 94.27 C 63.14 96.14 63.14 98.02 63.02 99.89 C 62.17 100.01 60.47 100.24 59.62 100.36 C 59.62 98.20 59.64 96.04 59.66 93.89 Z" />
</g>
</svg>
