<?xml version="1.0" encoding="UTF-8" ?>
<!DOCTYPE svg PUBLIC "-//W3C//DTD SVG 1.1//EN" "http://www.w3.org/Graphics/SVG/1.1/DTD/svg11.dtd">
<svg width="259pt" height="259pt" viewBox="0 0 259 259" version="1.1" xmlns="http://www.w3.org/2000/svg">
<g id="#fefefeff">
<path fill="#fefefe" opacity="1.00" d=" M 0.00 0.00 L 259.00 0.00 L 259.00 259.00 L 0.00 259.00 L 0.00 0.00 M 131.36 46.53 C 124.37 47.86 118.78 53.96 117.83 60.98 C 116.27 70.25 123.62 79.71 132.98 80.52 C 142.98 81.96 152.65 73.08 152.13 63.00 C 152.24 52.60 141.48 44.04 131.36 46.53 M 63.41 64.51 C 53.97 67.50 46.55 76.17 45.40 86.05 C 44.20 94.73 47.81 103.87 54.61 109.39 C 60.87 114.67 69.71 116.65 77.62 114.56 C 83.79 113.07 88.57 108.45 94.62 106.64 C 101.42 104.39 109.87 104.42 115.35 109.64 C 119.41 112.97 121.12 118.51 125.63 121.32 C 131.80 124.86 140.63 120.16 140.81 112.99 C 141.91 106.24 134.65 99.78 128.10 101.91 C 121.66 104.22 114.08 104.36 107.96 101.06 C 100.53 95.38 97.90 85.89 94.38 77.65 C 89.13 66.40 75.13 60.68 63.41 64.51 M 171.42 95.66 C 157.46 98.97 146.39 111.68 145.11 125.98 C 143.29 140.60 151.92 155.65 165.35 161.63 C 175.62 166.36 188.25 165.79 197.94 159.89 C 206.23 154.99 212.30 146.55 214.29 137.13 C 215.92 128.32 214.76 118.80 209.83 111.18 C 202.15 98.41 185.83 91.73 171.42 95.66 M 125.44 136.38 C 120.68 138.71 119.92 144.74 115.87 147.86 C 112.21 150.83 108.02 154.30 102.99 153.77 C 95.85 153.23 89.22 150.20 82.85 147.15 C 75.86 143.75 67.31 143.74 60.36 147.26 C 52.96 150.83 47.48 158.05 46.14 166.17 C 43.58 178.49 51.75 191.74 63.70 195.40 C 73.70 198.72 85.45 195.28 91.99 187.00 C 97.50 180.67 97.12 171.57 101.79 164.78 C 105.10 159.96 109.85 155.30 115.96 154.71 C 121.03 153.96 125.93 155.99 130.94 156.20 C 137.98 155.96 142.92 147.55 139.64 141.32 C 137.36 136.02 130.50 133.87 125.44 136.38 M 129.35 180.29 C 121.37 182.85 116.19 191.75 117.98 199.95 C 119.56 208.88 128.88 215.35 137.80 213.60 C 147.37 212.24 154.24 201.81 151.62 192.48 C 149.62 182.91 138.48 176.89 129.35 180.29 Z" />
</g>
<g id="#2b5ebaff">
<path fill="#2b5eba" opacity="1.00" d=" M 131.36 46.53 C 141.48 44.04 152.24 52.60 152.13 63.00 C 152.65 73.08 142.98 81.96 132.98 80.52 C 123.62 79.71 116.27 70.25 117.83 60.98 C 118.78 53.96 124.37 47.86 131.36 46.53 Z" />
<path fill="#2b5eba" opacity="1.00" d=" M 63.41 64.51 C 75.13 60.68 89.13 66.40 94.38 77.65 C 97.90 85.89 100.53 95.38 107.96 101.06 C 114.08 104.36 121.66 104.22 128.10 101.91 C 134.65 99.78 141.91 106.24 140.81 112.99 C 140.63 120.16 131.80 124.86 125.63 121.32 C 121.12 118.51 119.41 112.97 115.35 109.64 C 109.87 104.42 101.42 104.39 94.62 106.64 C 88.57 108.45 83.79 113.07 77.62 114.56 C 69.71 116.65 60.87 114.67 54.61 109.39 C 47.81 103.87 44.20 94.73 45.40 86.05 C 46.55 76.17 53.97 67.50 63.41 64.51 Z" />
<path fill="#2b5eba" opacity="1.00" d=" M 171.42 95.66 C 185.83 91.73 202.15 98.41 209.83 111.18 C 214.76 118.80 215.92 128.32 214.29 137.13 C 212.30 146.55 206.23 154.99 197.94 159.89 C 188.25 165.79 175.62 166.36 165.35 161.63 C 151.92 155.65 143.29 140.60 145.11 125.98 C 146.39 111.68 157.46 98.97 171.42 95.66 Z" />
<path fill="#2b5eba" opacity="1.00" d=" M 125.44 136.38 C 130.50 133.87 137.36 136.02 139.64 141.32 C 142.92 147.55 137.98 155.96 130.94 156.20 C 125.93 155.99 121.03 153.96 115.96 154.71 C 109.85 155.30 105.10 159.96 101.79 164.78 C 97.12 171.57 97.50 180.67 91.99 187.00 C 85.45 195.28 73.70 198.72 63.70 195.40 C 51.75 191.74 43.58 178.49 46.14 166.17 C 47.48 158.05 52.96 150.83 60.36 147.26 C 67.31 143.74 75.86 143.75 82.85 147.15 C 89.22 150.20 95.85 153.23 102.99 153.77 C 108.02 154.30 112.21 150.83 115.87 147.86 C 119.92 144.74 120.68 138.71 125.44 136.38 Z" />
<path fill="#2b5eba" opacity="1.00" d=" M 129.35 180.29 C 138.48 176.89 149.62 182.91 151.62 192.48 C 154.24 201.81 147.37 212.24 137.80 213.60 C 128.88 215.35 119.56 208.88 117.98 199.95 C 116.19 191.75 121.37 182.85 129.35 180.29 Z" />
</g>
</svg>
