<?xml version="1.0" encoding="UTF-8" ?>
<!DOCTYPE svg PUBLIC "-//W3C//DTD SVG 1.1//EN" "http://www.w3.org/Graphics/SVG/1.1/DTD/svg11.dtd">
<svg width="300pt" height="300pt" viewBox="0 0 300 300" version="1.1" xmlns="http://www.w3.org/2000/svg">
<g id="#ffffffff">
<path fill="#ffffff" opacity="1.00" d=" M 0.00 0.00 L 300.00 0.00 L 300.00 300.00 L 0.00 300.00 L 0.00 0.00 M 147.09 20.13 C 121.45 62.51 95.98 104.99 70.35 147.38 C 69.45 148.93 68.72 150.56 68.04 152.21 C 66.58 152.37 67.57 154.27 68.55 154.43 C 96.37 170.66 123.91 187.38 151.81 203.44 L 151.69 202.66 C 155.25 201.01 158.53 198.85 161.92 196.90 C 182.01 185.01 202.10 173.11 222.22 161.26 C 226.67 158.49 231.40 156.14 235.63 153.01 C 235.27 152.76 234.54 152.26 234.18 152.00 C 233.31 149.09 231.50 146.62 229.97 144.03 C 205.88 104.11 181.83 64.16 157.75 24.23 C 155.71 20.93 153.91 17.48 151.51 14.43 L 151.57 13.53 C 149.76 15.50 148.39 17.81 147.09 20.13 M 67.07 165.13 C 92.88 201.85 119.08 238.33 144.94 275.03 C 147.03 278.00 149.00 281.09 151.63 283.64 L 151.54 282.70 C 154.92 278.94 157.55 274.61 160.55 270.56 C 174.52 250.85 188.52 231.17 202.50 211.47 C 213.30 195.99 224.57 180.82 235.13 165.18 C 230.97 167.23 227.09 169.79 223.08 172.13 C 199.24 186.18 175.45 200.33 151.57 214.31 C 147.72 212.71 144.14 210.58 140.63 208.36 C 118.64 195.34 96.61 182.39 74.63 169.37 C 72.21 167.79 69.77 166.19 67.07 165.13 Z" />
</g>
<g id="#8c8c8cff">
<path fill="#8c8c8c" opacity="1.00" d=" M 147.09 20.13 C 148.39 17.81 149.76 15.50 151.57 13.53 L 151.51 14.43 C 150.79 21.60 151.31 28.81 151.10 36.00 C 151.08 62.28 151.07 88.56 151.11 114.84 C 126.90 126.18 102.42 136.94 78.16 148.16 C 74.88 149.73 71.48 151.05 68.04 152.21 C 68.72 150.56 69.45 148.93 70.35 147.38 C 95.98 104.99 121.45 62.51 147.09 20.13 Z" />
<path fill="#8c8c8c" opacity="1.00" d=" M 67.07 165.13 C 69.77 166.19 72.21 167.79 74.63 169.37 C 96.61 182.39 118.64 195.34 140.63 208.36 C 144.14 210.58 147.72 212.71 151.57 214.31 C 150.94 218.85 150.98 223.43 151.08 228.00 C 151.12 240.67 151.03 253.33 151.13 266.00 C 151.16 271.57 150.85 277.16 151.54 282.70 L 151.63 283.64 C 149.00 281.09 147.03 278.00 144.94 275.03 C 119.08 238.33 92.88 201.85 67.07 165.13 Z" />
</g>
<g id="#333333ff">
<path fill="#333333" opacity="1.00" d=" M 151.10 36.00 C 151.31 28.81 150.79 21.60 151.51 14.43 C 153.91 17.48 155.71 20.93 157.75 24.23 C 181.83 64.16 205.88 104.11 229.97 144.03 C 231.50 146.62 233.31 149.09 234.18 152.00 C 224.41 149.02 215.53 143.82 206.14 139.88 C 196.56 135.96 187.47 130.95 177.86 127.11 C 168.89 123.43 160.54 118.15 151.11 115.70 L 151.11 114.84 C 151.07 88.56 151.08 62.28 151.10 36.00 Z" />
<path fill="#333333" opacity="1.00" d=" M 223.08 172.13 C 227.09 169.79 230.97 167.23 235.13 165.18 C 224.57 180.82 213.30 195.99 202.50 211.47 C 188.52 231.17 174.52 250.85 160.55 270.56 C 157.55 274.61 154.92 278.94 151.54 282.70 C 150.85 277.16 151.16 271.57 151.13 266.00 C 151.03 253.33 151.12 240.67 151.08 228.00 C 150.98 223.43 150.94 218.85 151.57 214.31 C 175.45 200.33 199.24 186.18 223.08 172.13 Z" />
</g>
<g id="#383838ff">
<path fill="#383838" opacity="1.00" d=" M 78.16 148.16 C 102.42 136.94 126.90 126.18 151.11 114.84 L 151.11 115.70 C 150.99 140.13 151.09 164.57 151.06 189.00 C 150.95 193.56 150.86 198.15 151.69 202.66 L 151.81 203.44 C 123.91 187.38 96.37 170.66 68.55 154.43 C 67.57 154.27 66.58 152.37 68.04 152.21 C 71.48 151.05 74.88 149.73 78.16 148.16 Z" />
</g>
<g id="#141414ff">
<path fill="#141414" opacity="1.00" d=" M 151.11 115.70 C 160.54 118.15 168.89 123.43 177.86 127.11 C 187.47 130.95 196.56 135.96 206.14 139.88 C 215.53 143.82 224.41 149.02 234.18 152.00 C 234.54 152.26 235.27 152.76 235.63 153.01 C 231.40 156.14 226.67 158.49 222.22 161.26 C 202.10 173.11 182.01 185.01 161.92 196.90 C 158.53 198.85 155.25 201.01 151.69 202.66 C 150.86 198.15 150.95 193.56 151.06 189.00 C 151.09 164.57 150.99 140.13 151.11 115.70 Z" />
</g>
</svg>
