<?xml version="1.0" encoding="UTF-8" ?>
<!DOCTYPE svg PUBLIC "-//W3C//DTD SVG 1.1//EN" "http://www.w3.org/Graphics/SVG/1.1/DTD/svg11.dtd">
<svg width="128pt" height="128pt" viewBox="0 0 128 128" version="1.1" xmlns="http://www.w3.org/2000/svg">
<g id="#191a4cff">
<path fill="#191a4c" opacity="1.00" d=" M 59.55 0.00 L 68.46 0.00 C 86.25 1.60 103.49 10.30 114.39 24.59 C 122.33 34.55 126.72 46.94 128.00 59.54 L 128.00 68.45 C 126.39 86.48 117.46 103.94 102.84 114.82 C 93.00 122.52 80.81 126.72 68.46 128.00 L 59.54 128.00 C 41.52 126.38 24.06 117.46 13.18 102.85 C 5.49 92.99 1.27 80.82 0.00 68.46 L 0.00 59.55 C 1.28 46.94 5.67 34.55 13.61 24.59 C 24.52 10.30 41.76 1.60 59.55 0.00 M 48.58 28.61 C 36.00 33.16 26.18 44.84 24.45 58.18 C 23.96 63.46 24.08 68.92 25.87 73.97 C 29.49 85.55 39.25 94.80 50.82 98.25 C 60.80 101.33 71.95 100.29 81.18 95.38 C 83.26 97.44 85.27 99.56 87.27 101.70 C 91.21 101.69 95.15 101.72 99.10 101.70 C 90.97 92.26 82.39 83.23 73.98 74.04 C 73.03 73.23 72.33 71.88 70.99 71.70 C 67.17 71.45 63.34 71.58 59.52 71.78 C 64.01 77.47 69.55 82.24 74.08 87.91 C 68.19 90.02 61.72 91.02 55.59 89.31 C 46.73 87.24 39.02 80.57 35.97 71.96 C 32.48 62.76 34.89 51.78 41.78 44.79 C 50.19 35.63 64.83 33.43 75.75 39.18 C 84.86 43.72 91.18 53.70 90.56 63.98 C 90.59 69.87 87.94 75.31 84.64 80.03 C 86.83 82.58 89.02 85.17 91.61 87.34 C 97.02 80.81 100.80 72.66 100.80 64.06 C 101.24 54.76 97.58 45.50 91.35 38.65 C 80.90 26.97 63.13 22.99 48.58 28.61 Z" />
</g>
<g id="#fefefeff">
<path fill="#fefefe" opacity="1.00" d=" M 48.58 28.61 C 63.13 22.99 80.90 26.97 91.35 38.65 C 97.58 45.50 101.24 54.76 100.80 64.06 C 100.80 72.66 97.02 80.81 91.61 87.34 C 89.02 85.17 86.83 82.58 84.64 80.03 C 87.94 75.31 90.59 69.87 90.56 63.98 C 91.18 53.70 84.86 43.72 75.75 39.18 C 64.83 33.43 50.19 35.63 41.78 44.79 C 34.89 51.78 32.48 62.76 35.97 71.96 C 39.02 80.57 46.73 87.24 55.59 89.31 C 61.72 91.02 68.19 90.02 74.08 87.91 C 69.55 82.24 64.01 77.47 59.52 71.78 C 63.34 71.58 67.17 71.45 70.99 71.70 C 72.33 71.88 73.03 73.23 73.98 74.04 C 82.39 83.23 90.97 92.26 99.10 101.70 C 95.15 101.72 91.21 101.69 87.27 101.70 C 85.27 99.56 83.26 97.44 81.18 95.38 C 71.95 100.29 60.80 101.33 50.82 98.25 C 39.25 94.80 29.49 85.55 25.87 73.97 C 24.08 68.92 23.96 63.46 24.45 58.18 C 26.18 44.84 36.00 33.16 48.58 28.61 Z" />
</g>
</svg>
