<?xml version="1.0" encoding="UTF-8" ?>
<!DOCTYPE svg PUBLIC "-//W3C//DTD SVG 1.1//EN" "http://www.w3.org/Graphics/SVG/1.1/DTD/svg11.dtd">
<svg width="128pt" height="128pt" viewBox="0 0 128 128" version="1.1" xmlns="http://www.w3.org/2000/svg">
<g id="#1ca3c2ff">
<path fill="#1ca3c2" opacity="1.00" d=" M 27.81 12.77 C 30.00 8.80 34.48 6.54 38.96 6.74 C 55.98 6.76 73.02 6.69 90.04 6.77 C 94.52 6.67 98.64 9.38 100.71 13.28 C 108.86 27.45 116.95 41.66 125.15 55.80 C 126.34 57.86 127.35 60.04 128.00 62.34 L 128.00 67.33 C 118.83 83.08 109.84 98.93 100.75 114.73 C 98.68 118.65 94.54 121.40 90.04 121.29 C 73.02 121.36 55.99 121.30 38.97 121.32 C 34.46 121.55 29.96 119.26 27.78 115.24 C 19.58 101.09 11.55 86.83 3.31 72.69 C 1.80 70.01 0.11 67.18 0.20 64.00 C 0.12 61.07 1.59 58.44 2.98 55.97 C 11.31 41.60 19.51 27.15 27.81 12.77 M 39.35 19.32 C 35.46 20.82 35.88 25.24 35.43 28.56 C 31.14 36.48 26.46 44.19 22.07 52.06 C 20.83 54.11 19.93 56.69 17.42 57.49 C 13.82 58.67 12.01 62.98 13.69 66.38 C 14.86 69.18 18.62 69.35 19.90 72.06 C 24.86 80.77 29.85 89.46 34.87 98.13 C 36.29 100.13 35.51 102.65 35.94 104.90 C 36.78 107.46 39.30 109.38 42.01 109.40 C 45.00 109.54 46.92 106.26 49.95 106.62 C 59.64 106.64 69.34 106.61 79.03 106.64 C 81.72 106.41 83.39 109.23 85.99 109.36 C 88.89 109.65 91.83 107.60 92.67 104.85 C 93.02 102.44 92.14 99.80 93.76 97.70 C 99.08 88.69 104.02 79.42 109.54 70.54 C 112.65 68.89 116.17 66.13 114.99 62.10 C 114.51 58.79 111.00 57.99 108.83 56.18 C 103.61 47.65 98.88 38.83 93.78 30.22 C 92.66 28.67 92.69 26.79 92.76 24.96 C 93.16 21.34 89.41 18.42 86.00 18.69 C 83.44 18.89 81.70 21.54 79.04 21.26 C 68.72 21.17 58.38 21.45 48.06 21.12 C 45.37 19.85 42.40 17.49 39.35 19.32 Z" />
<path fill="#1ca3c2" opacity="1.00" d=" M 40.03 31.79 C 43.94 32.26 47.08 29.96 48.95 26.70 C 59.25 26.81 69.55 26.55 79.84 26.83 C 81.32 29.03 83.07 31.64 86.06 31.58 C 88.41 31.36 89.52 33.23 90.37 35.08 C 77.72 42.63 64.72 49.58 51.98 56.96 C 49.26 58.89 46.09 55.29 43.26 57.20 C 37.68 59.36 38.61 68.34 44.43 69.47 C 48.87 70.72 51.87 66.58 52.91 62.84 C 66.10 54.94 79.68 47.63 93.04 39.98 C 96.68 46.21 100.66 52.38 103.67 58.90 C 101.76 62.11 102.11 65.77 104.04 68.88 C 98.81 78.02 93.66 87.19 88.31 96.25 C 84.69 96.06 81.52 97.90 79.85 101.10 C 69.55 101.31 59.26 101.12 48.96 101.20 C 47.01 98.04 43.90 95.83 40.04 96.25 C 39.76 95.72 39.21 94.65 38.93 94.12 C 52.02 86.48 65.15 78.88 78.22 71.22 C 80.74 69.16 83.89 71.86 86.65 70.62 C 90.30 69.27 91.92 64.46 89.81 61.19 C 87.85 57.80 82.61 57.01 79.87 59.86 C 77.69 61.66 78.50 65.47 75.56 66.52 C 62.37 74.04 49.43 82.02 36.10 89.30 C 32.04 82.52 28.24 75.58 24.21 68.78 C 26.01 65.71 26.53 62.02 24.48 58.90 C 29.49 49.77 34.70 40.74 40.03 31.79 Z" />
</g>
</svg>
