<?xml version="1.0" encoding="UTF-8" ?>
<!DOCTYPE svg PUBLIC "-//W3C//DTD SVG 1.1//EN" "http://www.w3.org/Graphics/SVG/1.1/DTD/svg11.dtd">
<svg width="250pt" height="250pt" viewBox="0 0 250 250" version="1.1" xmlns="http://www.w3.org/2000/svg">
<g id="#ffffffff">
<path fill="#ffffff" opacity="1.00" d=" M 94.11 124.13 C 104.47 109.54 114.37 94.62 124.91 80.15 C 135.52 94.91 145.65 110.00 156.15 124.83 C 156.90 126.00 158.31 127.38 157.20 128.82 C 150.33 142.43 143.37 155.99 136.56 169.62 C 128.81 169.81 121.06 169.73 113.31 169.66 C 106.46 156.19 99.57 142.74 92.75 129.26 C 91.35 127.39 93.09 125.64 94.11 124.13 Z" />
<path fill="#ffffff" opacity="1.00" d=" M 52.50 127.00 C 61.93 112.47 71.21 97.82 80.94 83.50 C 86.89 89.48 92.88 95.45 98.37 101.85 C 92.88 109.85 87.34 117.83 81.84 125.83 C 80.41 127.26 81.65 129.13 82.33 130.58 C 87.36 140.31 92.42 150.01 97.38 159.77 C 99.02 163.06 101.02 166.20 102.14 169.74 C 100.54 169.73 98.94 169.80 97.35 169.61 C 95.77 168.57 94.47 167.18 93.10 165.89 C 79.67 152.82 65.87 140.13 52.50 127.00 Z" />
<path fill="#ffffff" opacity="1.00" d=" M 151.28 101.92 C 156.83 95.52 162.67 89.29 168.88 83.51 C 178.33 97.98 187.89 112.39 197.10 127.00 C 183.02 140.96 168.42 154.38 154.15 168.15 C 152.51 170.38 149.57 169.59 147.19 169.78 C 154.06 156.07 161.27 142.52 168.18 128.83 C 169.31 127.38 167.93 125.99 167.17 124.81 C 161.80 117.23 156.68 109.48 151.28 101.92 Z" />
</g>
<g id="#191f32ff">
<path fill="#191f32" opacity="1.00" d=" M 116.60 0.00 L 130.48 0.00 C 158.28 1.38 185.57 12.09 206.53 30.47 C 224.50 46.00 237.98 66.73 244.59 89.56 C 247.16 97.74 248.15 106.28 250.00 114.62 L 250.00 135.38 C 249.21 139.20 248.31 143.00 247.70 146.86 C 242.69 176.03 226.57 203.00 203.63 221.64 C 190.46 232.40 175.08 240.45 158.69 245.01 C 151.05 247.28 143.10 248.16 135.36 250.00 L 114.61 250.00 C 110.45 249.20 106.32 248.25 102.13 247.59 C 70.71 241.97 41.95 223.53 23.42 197.59 C 9.27 178.13 1.24 154.47 0.00 130.47 L 0.00 116.57 C 0.65 111.37 1.29 106.16 2.26 101.01 C 8.28 69.25 27.36 40.28 54.02 22.04 C 72.38 9.12 94.34 2.02 116.60 0.00 M 94.11 124.13 C 93.09 125.64 91.35 127.39 92.75 129.26 C 99.57 142.74 106.46 156.19 113.31 169.66 C 121.06 169.73 128.81 169.81 136.56 169.62 C 143.37 155.99 150.33 142.43 157.20 128.82 C 158.31 127.38 156.90 126.00 156.15 124.83 C 145.65 110.00 135.52 94.91 124.91 80.15 C 114.37 94.62 104.47 109.54 94.11 124.13 M 52.50 127.00 C 65.87 140.13 79.67 152.82 93.10 165.89 C 94.47 167.18 95.77 168.57 97.35 169.61 C 98.94 169.80 100.54 169.73 102.14 169.74 C 101.02 166.20 99.02 163.06 97.38 159.77 C 92.42 150.01 87.36 140.31 82.33 130.58 C 81.65 129.13 80.41 127.26 81.84 125.83 C 87.34 117.83 92.88 109.85 98.37 101.85 C 92.88 95.45 86.89 89.48 80.94 83.50 C 71.21 97.82 61.93 112.47 52.50 127.00 M 151.28 101.92 C 156.68 109.48 161.80 117.23 167.17 124.81 C 167.93 125.99 169.31 127.38 168.18 128.83 C 161.27 142.52 154.06 156.07 147.19 169.78 C 149.57 169.59 152.51 170.38 154.15 168.15 C 168.42 154.38 183.02 140.96 197.10 127.00 C 187.89 112.39 178.33 97.98 168.88 83.51 C 162.67 89.29 156.83 95.52 151.28 101.92 Z" />
</g>
</svg>
