<?xml version="1.0" encoding="UTF-8" ?>
<!DOCTYPE svg PUBLIC "-//W3C//DTD SVG 1.1//EN" "http://www.w3.org/Graphics/SVG/1.1/DTD/svg11.dtd">
<svg width="300pt" height="300pt" viewBox="0 0 300 300" version="1.1" xmlns="http://www.w3.org/2000/svg">
<g id="#fffffeff">
<path fill="#fffffe" opacity="1.00" d=" M 0.00 0.00 L 300.00 0.00 L 300.00 300.00 L 0.00 300.00 L 0.00 0.00 M 51.52 50.52 C 27.98 73.51 13.19 105.15 10.47 137.93 C 6.77 178.02 21.55 219.47 50.02 247.98 C 65.67 264.19 85.44 276.29 106.83 283.26 C 109.79 284.30 112.84 285.07 115.94 285.58 C 122.54 248.95 129.76 212.42 136.17 175.76 C 110.83 175.46 85.47 175.61 60.12 175.69 C 98.69 121.32 137.54 67.16 176.10 12.79 C 131.75 3.58 83.41 18.41 51.52 50.52 M 184.02 14.55 C 177.59 49.92 170.86 85.23 164.36 120.59 C 164.18 121.89 164.05 123.19 163.95 124.50 C 189.09 124.47 214.24 124.20 239.37 124.64 C 236.96 129.01 233.80 132.89 230.96 136.98 C 196.01 186.04 161.06 235.10 126.10 284.16 C 125.35 285.28 124.65 286.42 123.95 287.58 C 145.30 291.17 167.53 290.40 188.36 284.33 C 212.88 277.32 235.41 263.44 252.59 244.58 C 272.30 223.38 285.08 195.85 288.51 167.10 C 292.64 134.55 284.91 100.60 266.77 73.22 C 249.91 47.19 224.02 27.24 194.66 17.33 C 191.18 16.15 187.69 14.93 184.02 14.55 Z" />
</g>
<g id="#6b38dfff">
<path fill="#6b38df" opacity="1.00" d=" M 51.52 50.52 C 83.41 18.41 131.75 3.58 176.10 12.79 C 137.54 67.16 98.69 121.32 60.12 175.69 C 85.47 175.61 110.83 175.46 136.17 175.76 C 129.76 212.42 122.54 248.95 115.94 285.58 C 112.84 285.07 109.79 284.30 106.83 283.26 C 85.44 276.29 65.67 264.19 50.02 247.98 C 21.55 219.47 6.77 178.02 10.47 137.93 C 13.19 105.15 27.98 73.51 51.52 50.52 Z" />
<path fill="#6b38df" opacity="1.00" d=" M 184.02 14.55 C 187.69 14.93 191.18 16.15 194.66 17.33 C 224.02 27.24 249.91 47.19 266.77 73.22 C 284.91 100.60 292.64 134.55 288.51 167.10 C 285.08 195.85 272.30 223.38 252.59 244.58 C 235.41 263.44 212.88 277.32 188.36 284.33 C 167.53 290.40 145.30 291.17 123.95 287.58 C 124.65 286.42 125.35 285.28 126.10 284.16 C 161.06 235.10 196.01 186.04 230.96 136.98 C 233.80 132.89 236.96 129.01 239.37 124.64 C 214.24 124.20 189.09 124.47 163.95 124.50 C 164.05 123.19 164.18 121.89 164.36 120.59 C 170.86 85.23 177.59 49.92 184.02 14.55 Z" />
</g>
</svg>
