<?xml version="1.0" encoding="UTF-8" ?>
<!DOCTYPE svg PUBLIC "-//W3C//DTD SVG 1.1//EN" "http://www.w3.org/Graphics/SVG/1.1/DTD/svg11.dtd">
<svg width="128pt" height="128pt" viewBox="0 0 128 128" version="1.1" xmlns="http://www.w3.org/2000/svg">
<g id="#1a53f0ff">
<path fill="#1a53f0" opacity="1.00" d=" M 57.71 0.00 L 70.26 0.00 C 80.97 1.78 91.62 5.07 100.52 11.49 C 110.58 18.52 118.62 28.44 123.22 39.83 C 125.68 45.53 126.73 51.67 128.00 57.71 L 128.00 70.27 C 126.19 81.22 122.76 92.09 116.09 101.11 C 108.94 111.10 98.91 119.05 87.45 123.51 C 81.97 125.80 76.08 126.76 70.31 128.00 L 57.74 128.00 C 46.79 126.19 35.91 122.75 26.89 116.10 C 16.90 108.94 8.96 98.91 4.49 87.45 C 2.20 81.97 1.24 76.08 0.00 70.31 L 0.00 57.74 C 1.23 51.95 2.20 46.04 4.50 40.54 C 8.96 29.08 16.90 19.06 26.89 11.90 C 35.90 5.25 46.77 1.82 57.71 0.00 M 24.86 38.69 C 22.50 46.40 25.34 55.35 31.71 60.29 C 36.92 64.52 44.30 65.86 50.66 63.68 C 58.92 61.08 64.91 52.67 64.57 43.99 C 64.61 38.86 62.24 34.12 59.08 30.21 C 60.96 30.11 62.83 30.03 64.71 29.94 C 64.64 27.99 64.64 26.04 64.73 24.09 C 57.46 23.98 50.19 23.87 42.93 24.11 C 34.63 24.55 27.09 30.70 24.86 38.69 M 83.37 24.51 C 74.78 26.30 67.94 34.20 67.52 42.98 C 66.88 50.43 70.85 57.95 77.26 61.77 C 83.42 65.60 91.68 65.54 97.92 61.89 C 103.53 58.63 107.40 52.54 107.87 46.05 C 108.60 38.49 104.62 30.71 98.04 26.91 C 93.69 24.27 88.33 23.44 83.37 24.51 M 39.30 68.13 C 31.18 70.13 24.78 77.59 24.17 85.95 C 23.31 93.99 27.85 102.22 35.06 105.85 C 42.31 109.72 51.87 108.46 57.89 102.87 C 63.99 97.48 66.19 88.25 63.29 80.65 C 59.95 71.18 48.99 65.45 39.30 68.13 Z" />
<path fill="#1a53f0" opacity="1.00" d=" M 41.37 30.51 C 49.65 28.46 58.55 35.47 58.43 44.00 C 58.84 51.78 51.82 58.97 43.99 58.51 C 36.43 58.56 29.82 51.56 30.22 44.03 C 30.20 37.65 35.16 31.75 41.37 30.51 Z" />
<path fill="#1a53f0" opacity="1.00" d=" M 84.41 30.58 C 92.44 28.40 101.28 34.79 101.75 43.09 C 102.69 50.92 95.93 58.59 88.01 58.51 C 80.55 58.94 73.77 52.44 73.61 45.02 C 73.11 38.42 78.00 32.04 84.41 30.58 Z" />
<path fill="#1a53f0" opacity="1.00" d=" M 40.28 74.26 C 48.27 71.54 57.52 77.63 58.31 85.98 C 59.53 93.52 53.54 101.18 45.96 101.89 C 38.61 102.92 31.20 97.17 30.35 89.80 C 29.27 83.10 33.72 76.06 40.28 74.26 Z" />
</g>
<g id="#ffffffff">
<path fill="#ffffff" opacity="1.00" d=" M 24.86 38.69 C 27.09 30.70 34.63 24.55 42.93 24.11 C 50.19 23.87 57.46 23.98 64.73 24.09 C 64.64 26.04 64.64 27.99 64.71 29.94 C 62.83 30.03 60.96 30.11 59.08 30.21 C 62.24 34.12 64.61 38.86 64.57 43.99 C 64.91 52.67 58.92 61.08 50.66 63.68 C 44.30 65.86 36.92 64.52 31.71 60.29 C 25.34 55.35 22.50 46.40 24.86 38.69 M 41.37 30.51 C 35.16 31.75 30.20 37.65 30.22 44.03 C 29.82 51.56 36.43 58.56 43.99 58.51 C 51.82 58.97 58.84 51.78 58.43 44.00 C 58.55 35.47 49.65 28.46 41.37 30.51 Z" />
<path fill="#ffffff" opacity="1.00" d=" M 83.37 24.51 C 88.33 23.44 93.69 24.27 98.04 26.91 C 104.62 30.71 108.60 38.49 107.87 46.05 C 107.40 52.54 103.53 58.63 97.92 61.89 C 91.68 65.54 83.42 65.60 77.26 61.77 C 70.85 57.95 66.88 50.43 67.52 42.98 C 67.94 34.20 74.78 26.30 83.37 24.51 M 84.41 30.58 C 78.00 32.04 73.11 38.42 73.61 45.02 C 73.77 52.44 80.55 58.94 88.01 58.51 C 95.93 58.59 102.69 50.92 101.75 43.09 C 101.28 34.79 92.44 28.40 84.41 30.58 Z" />
<path fill="#ffffff" opacity="1.00" d=" M 39.30 68.13 C 48.99 65.45 59.95 71.18 63.29 80.65 C 66.19 88.25 63.99 97.48 57.89 102.87 C 51.87 108.46 42.31 109.72 35.06 105.85 C 27.85 102.22 23.31 93.99 24.17 85.95 C 24.78 77.59 31.18 70.13 39.30 68.13 M 40.28 74.26 C 33.72 76.06 29.27 83.10 30.35 89.80 C 31.20 97.17 38.61 102.92 45.96 101.89 C 53.54 101.18 59.53 93.52 58.31 85.98 C 57.52 77.63 48.27 71.54 40.28 74.26 Z" />
</g>
</svg>
