<?xml version="1.0" encoding="UTF-8" ?>
<!DOCTYPE svg PUBLIC "-//W3C//DTD SVG 1.1//EN" "http://www.w3.org/Graphics/SVG/1.1/DTD/svg11.dtd">
<svg width="300pt" height="300pt" viewBox="0 0 300 300" version="1.1" xmlns="http://www.w3.org/2000/svg">
<g id="#151c28ff">
<path fill="#151c28" opacity="1.00" d=" M 0.00 0.00 L 300.00 0.00 L 300.00 300.00 L 0.00 300.00 L 0.00 0.00 M 154.29 31.14 C 153.22 31.83 151.94 31.32 150.80 31.20 C 139.96 29.20 129.08 27.42 118.25 25.38 C 114.94 28.11 111.31 30.38 107.78 32.80 C 95.00 41.28 82.46 50.12 69.68 58.60 C 67.96 71.29 67.39 84.10 65.60 96.78 C 58.81 99.57 52.03 102.39 45.26 105.21 C 46.26 116.99 46.67 128.81 47.81 140.59 C 43.07 144.41 38.24 148.13 33.52 151.98 C 37.92 164.69 42.31 177.40 46.95 190.03 C 53.92 205.85 58.96 222.44 65.44 238.46 C 74.24 241.40 82.91 244.70 91.75 247.50 C 93.80 248.20 95.98 248.85 97.56 250.42 C 104.86 257.47 111.78 264.95 119.25 271.81 C 128.06 275.27 137.10 278.24 146.09 281.24 C 150.86 280.38 155.33 278.31 160.15 277.66 C 164.09 277.27 168.01 276.63 171.97 276.41 C 178.48 275.98 184.57 273.50 190.82 271.87 C 195.68 270.35 200.72 269.33 205.49 267.51 C 219.59 260.00 233.43 252.00 247.43 244.30 C 243.34 229.96 240.09 215.39 236.02 201.04 C 228.72 198.08 221.33 195.36 214.04 192.38 C 210.84 196.07 207.56 199.68 204.23 203.25 C 203.08 204.66 201.21 204.95 199.56 205.42 C 192.89 207.01 186.19 208.44 179.54 210.13 C 177.39 210.57 175.21 211.39 172.99 210.89 C 161.62 209.32 150.30 207.42 138.94 205.78 C 136.49 205.31 133.56 205.31 131.88 203.17 C 127.89 198.96 124.33 194.37 120.40 190.11 C 121.76 185.38 123.68 180.80 124.64 175.97 C 125.08 174.43 123.69 173.21 123.08 171.94 C 117.01 162.82 111.19 153.53 105.32 144.28 C 110.71 137.81 116.08 131.33 121.45 124.86 C 122.13 119.28 122.59 113.66 122.62 108.03 C 122.59 102.21 123.74 96.46 123.59 90.64 C 133.98 84.95 143.81 78.04 155.07 74.12 C 158.54 72.91 161.99 70.73 165.81 71.54 C 171.99 72.54 178.11 73.91 184.32 74.71 C 186.99 80.90 189.49 87.15 192.02 93.39 C 203.73 90.39 215.63 88.20 227.36 85.32 C 228.61 85.09 229.28 83.93 229.98 82.99 C 234.68 76.21 238.68 68.98 243.01 61.96 C 239.20 55.49 235.04 49.23 231.23 42.76 C 230.14 40.93 228.94 39.07 227.07 37.95 C 221.87 34.47 216.75 30.87 211.50 27.48 C 199.73 24.52 187.76 22.35 175.92 19.64 C 168.35 22.70 161.61 27.53 154.29 31.14 Z" />
<path fill="#151c28" opacity="1.00" d=" M 174.00 23.06 C 175.89 21.84 178.17 22.68 180.18 23.08 C 187.24 24.75 194.36 26.11 201.43 27.72 C 190.82 29.17 180.07 29.32 169.42 30.52 C 166.24 30.85 163.04 30.79 159.84 30.85 C 164.62 28.36 169.26 25.61 174.00 23.06 Z" />
<path fill="#151c28" opacity="1.00" d=" M 121.84 29.00 C 130.71 29.85 139.40 31.95 148.20 33.34 C 141.58 34.96 135.01 36.78 128.47 38.71 C 126.23 35.49 124.00 32.27 121.84 29.00 Z" />
<path fill="#151c28" opacity="1.00" d=" M 156.68 33.92 C 174.32 32.95 191.90 30.88 209.54 30.13 C 208.80 33.78 208.36 37.49 208.32 41.22 C 194.28 41.40 180.34 43.40 166.31 43.84 C 163.11 40.52 159.75 37.36 156.68 33.92 Z" />
<path fill="#151c28" opacity="1.00" d=" M 75.15 57.65 C 88.91 49.21 101.87 39.51 115.41 30.72 C 112.26 38.70 108.18 46.27 105.05 54.25 C 95.06 55.08 85.10 56.33 75.15 57.65 Z" />
<path fill="#151c28" opacity="1.00" d=" M 211.69 31.56 C 213.35 33.31 214.95 35.12 216.53 36.94 C 214.75 37.89 212.98 38.85 211.24 39.85 C 211.41 37.09 211.53 34.32 211.69 31.56 Z" />
<path fill="#151c28" opacity="1.00" d=" M 112.09 60.17 C 114.30 51.08 116.36 41.95 118.69 32.89 C 119.44 39.46 121.40 45.85 121.72 52.47 C 118.45 54.96 115.39 57.72 112.09 60.17 Z" />
<path fill="#151c28" opacity="1.00" d=" M 121.23 32.82 C 122.85 35.20 124.63 37.52 125.81 40.15 C 125.79 42.89 124.60 45.44 123.92 48.06 C 123.56 42.89 122.16 37.90 121.23 32.82 Z" />
<path fill="#151c28" opacity="1.00" d=" M 128.74 41.64 C 136.38 39.16 144.19 37.23 151.85 34.83 C 150.57 38.70 149.37 42.59 148.27 46.51 C 140.93 48.42 133.35 49.08 125.96 50.75 C 126.85 47.70 127.88 44.69 128.74 41.64 Z" />
<path fill="#151c28" opacity="1.00" d=" M 154.29 35.25 C 157.65 38.84 161.20 42.26 164.61 45.81 C 163.70 52.61 162.69 59.40 162.06 66.23 C 158.79 60.16 154.60 54.64 151.32 48.59 C 150.93 43.95 153.42 39.71 154.29 35.25 Z" />
<path fill="#151c28" opacity="1.00" d=" M 220.21 39.18 C 222.15 39.76 224.08 40.34 226.04 40.83 C 225.01 46.19 222.73 51.19 220.85 56.29 C 220.34 50.60 220.23 44.89 220.21 39.18 Z" />
<path fill="#151c28" opacity="1.00" d=" M 209.33 45.17 C 210.53 42.44 213.58 41.53 215.95 40.12 C 208.72 54.30 202.51 68.98 195.27 83.16 C 196.24 78.61 197.05 74.03 197.70 69.43 C 198.34 65.41 200.55 61.93 202.42 58.40 C 204.84 54.05 207.01 49.57 209.33 45.17 Z" />
<path fill="#151c28" opacity="1.00" d=" M 109.04 51.85 C 110.67 48.16 112.08 44.36 113.91 40.77 C 112.36 47.12 110.94 53.52 108.94 59.75 C 108.37 57.17 107.78 54.33 109.04 51.85 Z" />
<path fill="#151c28" opacity="1.00" d=" M 197.81 84.35 C 204.41 70.46 211.15 56.62 217.61 42.66 C 217.78 49.41 217.71 56.16 217.67 62.90 C 217.84 64.75 216.06 65.77 215.02 67.02 C 209.15 72.66 203.88 78.91 197.81 84.35 Z" />
<path fill="#151c28" opacity="1.00" d=" M 188.06 45.17 C 194.34 44.02 200.79 44.84 207.04 43.50 C 203.65 50.38 199.93 57.11 196.52 63.99 C 187.58 58.09 178.70 52.08 169.63 46.36 C 175.80 46.27 181.89 45.13 188.06 45.17 Z" />
<path fill="#151c28" opacity="1.00" d=" M 221.76 62.48 C 224.02 56.15 226.01 49.72 228.60 43.51 C 232.40 49.25 235.75 55.27 239.69 60.91 C 233.71 61.37 227.71 61.73 221.76 62.48 Z" />
<path fill="#151c28" opacity="1.00" d=" M 167.06 47.84 C 176.34 53.66 185.39 59.84 194.50 65.92 C 191.24 68.00 188.22 70.49 184.77 72.27 C 177.90 71.15 171.02 69.99 164.20 68.60 C 165.48 61.72 165.95 54.74 167.06 47.84 Z" />
<path fill="#151c28" opacity="1.00" d=" M 125.98 53.54 C 133.50 52.10 141.07 50.96 148.57 49.45 C 152.39 55.58 156.16 61.74 160.14 67.77 C 149.92 67.42 139.78 65.84 129.67 64.44 C 128.36 60.84 126.98 57.25 125.98 53.54 Z" />
<path fill="#151c28" opacity="1.00" d=" M 111.25 64.61 C 115.35 61.56 119.15 58.12 123.14 54.93 C 124.13 59.33 128.62 64.20 125.47 68.56 C 122.63 72.94 119.91 77.39 116.88 81.65 C 114.91 76.00 113.04 70.32 111.25 64.61 Z" />
<path fill="#151c28" opacity="1.00" d=" M 74.00 60.53 C 82.34 59.15 90.85 59.12 99.12 57.34 C 93.50 60.64 87.66 63.53 81.99 66.74 C 79.42 64.56 76.76 62.47 74.00 60.53 Z" />
<path fill="#151c28" opacity="1.00" d=" M 81.93 74.88 C 89.90 69.24 97.68 63.35 105.45 57.44 C 106.18 59.58 106.97 61.69 107.81 63.79 C 99.12 67.33 90.50 71.05 81.93 74.88 Z" />
<path fill="#151c28" opacity="1.00" d=" M 72.38 62.27 C 74.85 64.49 77.50 66.51 80.00 68.70 C 77.69 71.29 75.58 74.06 73.60 76.92 C 73.28 72.03 72.47 67.18 72.38 62.27 Z" />
<path fill="#151c28" opacity="1.00" d=" M 223.01 65.06 C 228.41 64.40 233.84 64.06 239.25 63.44 C 237.22 66.80 235.16 70.13 233.06 73.44 C 229.69 70.67 226.31 67.91 223.01 65.06 Z" />
<path fill="#151c28" opacity="1.00" d=" M 92.86 73.02 C 98.33 71.13 103.57 68.66 108.83 66.26 C 110.28 71.84 112.39 77.21 114.17 82.68 C 107.16 79.27 100.04 76.06 92.86 73.02 Z" />
<path fill="#151c28" opacity="1.00" d=" M 196.77 89.69 C 204.00 81.70 211.80 74.25 219.23 66.44 C 221.60 71.94 224.07 77.42 226.02 83.09 C 216.30 85.42 206.50 87.42 196.77 89.69 Z" />
<path fill="#151c28" opacity="1.00" d=" M 129.20 67.98 C 133.95 70.43 138.52 73.21 143.18 75.82 C 135.30 77.98 127.48 80.34 119.67 82.75 C 122.92 77.87 126.04 72.92 129.20 67.98 Z" />
<path fill="#151c28" opacity="1.00" d=" M 134.80 68.08 C 142.26 68.91 149.74 69.56 157.18 70.57 C 153.57 71.87 150.12 73.80 146.34 74.50 C 142.41 72.52 138.67 70.17 134.80 68.08 Z" />
<path fill="#151c28" opacity="1.00" d=" M 222.87 68.19 C 225.82 70.78 228.85 73.29 231.85 75.83 C 230.58 77.61 229.35 79.42 228.08 81.20 C 226.48 76.81 224.55 72.55 222.87 68.19 Z" />
<path fill="#151c28" opacity="1.00" d=" M 186.96 74.19 C 189.67 72.45 192.31 70.60 194.98 68.80 C 194.16 74.95 193.13 81.07 192.19 87.20 C 190.47 82.85 188.70 78.53 186.96 74.19 Z" />
<path fill="#151c28" opacity="1.00" d=" M 91.30 75.19 C 98.17 78.88 105.49 81.61 112.52 84.97 C 105.51 87.16 98.45 89.20 91.57 91.78 C 91.58 86.25 91.50 80.72 91.30 75.19 Z" />
<path fill="#151c28" opacity="1.00" d=" M 74.82 80.93 C 78.42 79.03 82.29 77.71 85.98 76.01 C 82.81 80.87 79.81 85.84 76.57 90.65 C 74.93 93.23 71.77 93.95 69.19 95.25 C 70.41 91.62 71.47 87.95 72.62 84.30 C 73.11 83.04 73.37 81.44 74.82 80.93 Z" />
<path fill="#151c28" opacity="1.00" d=" M 78.99 91.74 C 82.41 87.01 85.59 82.11 88.47 77.04 C 88.39 81.94 88.38 86.84 88.62 91.74 C 85.41 91.64 82.20 91.65 78.99 91.74 Z" />
<path fill="#151c28" opacity="1.00" d=" M 119.28 85.84 C 124.51 83.98 129.84 82.38 135.21 80.93 C 131.44 83.32 127.57 85.57 123.52 87.44 C 121.87 88.45 120.62 86.51 119.28 85.84 Z" />
<path fill="#151c28" opacity="1.00" d=" M 117.40 87.20 C 118.47 88.23 119.55 89.26 120.63 90.28 C 120.42 95.68 120.80 101.12 120.15 106.50 C 119.36 111.29 119.62 116.17 119.66 121.00 C 117.29 117.63 114.90 114.29 112.44 110.99 C 114.27 103.10 115.76 95.13 117.40 87.20 Z" />
<path fill="#151c28" opacity="1.00" d=" M 91.63 94.71 C 98.71 92.54 105.71 90.12 112.77 87.90 C 109.14 91.95 105.94 96.35 102.61 100.64 C 96.45 108.86 89.93 116.81 83.92 125.15 C 86.58 115.02 89.04 104.85 91.63 94.71 Z" />
<path fill="#151c28" opacity="1.00" d=" M 83.82 129.89 C 93.89 116.84 103.79 103.66 113.92 90.66 C 112.75 96.57 111.51 102.47 110.30 108.38 C 109.97 111.47 107.03 113.05 104.99 114.99 C 97.42 121.20 90.09 127.68 82.60 133.97 C 82.62 132.51 82.76 131.01 83.82 129.89 Z" />
<path fill="#151c28" opacity="1.00" d=" M 69.00 98.35 C 71.06 97.38 73.13 96.44 75.17 95.42 C 75.89 105.37 77.59 115.21 78.85 125.10 C 75.85 116.08 72.15 107.32 69.00 98.35 Z" />
<path fill="#151c28" opacity="1.00" d=" M 78.26 95.34 C 81.70 95.43 85.15 95.43 88.59 95.38 C 85.65 104.83 83.47 114.54 81.53 124.25 C 81.05 114.55 78.57 105.05 78.26 95.34 Z" />
<path fill="#151c28" opacity="1.00" d=" M 51.61 105.32 C 56.50 103.30 61.42 101.35 66.31 99.31 C 67.40 102.51 68.60 105.67 69.84 108.82 C 63.78 107.54 57.59 106.89 51.61 105.32 Z" />
<path fill="#151c28" opacity="1.00" d=" M 48.77 108.32 C 54.05 110.99 59.35 113.61 64.71 116.09 C 62.04 122.32 59.26 128.52 56.92 134.88 C 54.86 125.84 51.45 117.18 48.77 108.32 Z" />
<path fill="#151c28" opacity="1.00" d=" M 56.81 109.19 C 60.90 109.82 64.92 110.83 68.99 111.61 C 68.04 112.36 67.08 113.11 66.13 113.85 C 63.00 112.34 59.81 110.95 56.81 109.19 Z" />
<path fill="#151c28" opacity="1.00" d=" M 59.08 136.62 C 63.54 129.23 67.57 121.59 71.78 114.04 C 74.21 121.31 77.19 128.38 79.97 135.52 C 72.95 134.99 66.08 136.66 59.08 136.62 Z" />
<path fill="#151c28" opacity="1.00" d=" M 111.64 114.15 C 113.68 117.23 115.98 120.14 118.07 123.19 C 115.13 123.34 112.19 123.44 109.25 123.49 C 110.19 120.42 110.96 117.29 111.64 114.15 Z" />
<path fill="#151c28" opacity="1.00" d=" M 90.72 131.03 C 96.57 125.49 102.97 120.56 108.89 115.09 C 107.37 118.62 108.01 124.25 103.39 125.33 C 99.11 127.10 94.95 129.14 90.72 131.03 Z" />
<path fill="#151c28" opacity="1.00" d=" M 49.23 118.46 C 51.30 124.74 53.29 131.07 54.95 137.47 C 53.37 138.19 51.79 138.92 50.23 139.69 C 49.99 132.61 48.93 125.56 49.23 118.46 Z" />
<path fill="#151c28" opacity="1.00" d=" M 108.71 126.47 C 111.72 125.86 114.78 125.48 117.86 125.40 C 113.92 129.95 110.06 134.57 106.17 139.16 C 106.84 134.90 107.89 130.71 108.71 126.47 Z" />
<path fill="#151c28" opacity="1.00" d=" M 85.18 136.36 C 92.19 133.63 98.91 130.21 105.80 127.18 C 104.74 132.12 103.85 137.09 102.72 142.01 C 96.73 140.57 91.06 138.14 85.18 136.36 Z" />
<path fill="#151c28" opacity="1.00" d=" M 59.98 139.49 C 67.55 138.92 75.17 138.01 82.76 138.51 C 89.11 140.46 95.26 143.05 101.69 144.75 C 97.04 150.41 92.69 156.30 88.19 162.07 C 76.20 155.03 63.94 148.46 52.02 141.30 C 54.63 140.52 57.24 139.61 59.98 139.49 Z" />
<path fill="#151c28" opacity="1.00" d=" M 36.28 152.79 C 40.48 149.48 44.62 146.08 49.01 143.03 C 55.48 149.01 62.04 154.89 68.38 161.00 C 62.07 170.45 55.86 179.97 49.30 189.25 C 44.89 177.12 40.55 164.97 36.28 152.79 Z" />
<path fill="#151c28" opacity="1.00" d=" M 58.04 147.95 C 65.77 152.20 73.14 157.10 81.09 160.95 C 76.64 160.26 71.34 160.58 68.01 157.00 C 64.84 153.82 61.46 150.86 58.04 147.95 Z" />
<path fill="#151c28" opacity="1.00" d=" M 91.78 161.81 C 95.47 157.22 98.94 152.45 102.55 147.80 C 102.46 152.46 102.60 157.14 103.56 161.72 C 99.63 161.72 95.70 161.72 91.78 161.81 Z" />
<path fill="#151c28" opacity="1.00" d=" M 105.42 148.97 C 109.72 156.48 114.80 163.51 119.30 170.90 C 114.81 168.05 110.24 165.26 105.97 162.08 C 105.41 157.74 105.74 153.33 105.42 148.97 Z" />
<path fill="#151c28" opacity="1.00" d=" M 71.56 162.21 C 76.36 163.22 81.18 164.09 86.04 164.72 C 80.26 170.77 74.63 176.96 69.02 183.17 C 69.39 176.13 70.57 169.18 71.56 162.21 Z" />
<path fill="#151c28" opacity="1.00" d=" M 88.83 165.87 C 93.52 164.39 98.66 164.66 103.55 164.28 C 103.43 170.71 103.41 177.14 103.57 183.57 C 92.41 184.53 81.28 185.57 70.08 185.80 C 76.68 179.49 82.14 172.08 88.83 165.87 Z" />
<path fill="#151c28" opacity="1.00" d=" M 52.11 189.98 C 57.38 182.27 62.52 174.47 67.80 166.77 C 67.63 173.44 65.96 179.96 65.51 186.62 C 61.07 187.84 56.61 189.00 52.11 189.98 Z" />
<path fill="#151c28" opacity="1.00" d=" M 108.17 166.73 C 112.70 169.76 117.21 172.85 121.90 175.64 C 121.22 179.51 119.89 183.23 118.76 186.99 C 114.97 180.37 111.71 173.47 108.17 166.73 Z" />
<path fill="#151c28" opacity="1.00" d=" M 106.25 168.74 C 109.34 175.24 112.88 181.52 116.09 187.96 C 112.93 186.71 109.71 185.62 106.59 184.27 C 105.91 179.14 106.45 173.91 106.25 168.74 Z" />
<path fill="#151c28" opacity="1.00" d=" M 75.54 188.59 C 84.61 187.92 93.73 187.61 102.74 186.34 C 102.62 189.59 102.08 192.79 101.46 195.98 C 92.87 193.35 84.05 191.47 75.54 188.59 Z" />
<path fill="#151c28" opacity="1.00" d=" M 105.85 186.94 C 108.97 188.15 112.09 189.35 115.20 190.56 C 111.61 192.20 107.98 193.74 104.36 195.32 C 104.92 192.54 105.45 189.75 105.85 186.94 Z" />
<path fill="#151c28" opacity="1.00" d=" M 53.89 196.22 C 58.35 194.14 62.38 191.03 67.02 189.43 C 78.24 192.26 89.30 195.79 100.55 198.53 C 97.09 203.65 93.95 208.98 90.71 214.24 C 78.23 208.68 66.12 202.31 53.89 196.22 Z" />
<path fill="#151c28" opacity="1.00" d=" M 106.76 197.47 C 110.69 195.67 114.63 193.89 118.61 192.20 C 121.86 195.87 125.21 199.47 128.28 203.31 C 121.03 201.63 113.95 199.35 106.76 197.47 Z" />
<path fill="#151c28" opacity="1.00" d=" M 215.47 195.86 C 218.41 196.74 221.33 197.72 224.15 198.95 C 220.76 198.80 217.41 198.25 214.05 197.76 C 214.41 197.29 215.12 196.34 215.47 195.86 Z" />
<path fill="#151c28" opacity="1.00" d=" M 53.55 199.75 C 63.03 206.98 72.66 214.01 82.15 221.21 C 77.22 226.09 71.93 230.58 66.77 235.21 C 62.09 223.49 58.36 211.41 53.55 199.75 Z" />
<path fill="#151c28" opacity="1.00" d=" M 214.27 200.16 C 220.45 201.41 226.77 201.79 232.96 202.98 C 234.48 203.03 234.53 204.84 234.92 205.91 C 237.81 217.43 240.88 228.91 243.70 240.45 C 234.15 233.31 225.11 225.51 215.49 218.46 C 215.40 212.33 214.15 206.30 214.27 200.16 Z" />
<path fill="#151c28" opacity="1.00" d=" M 104.20 201.09 C 110.06 207.07 116.53 212.42 122.51 218.27 C 117.84 224.47 113.19 230.68 108.64 236.97 C 107.11 225.02 106.04 213.00 104.20 201.09 Z" />
<path fill="#151c28" opacity="1.00" d=" M 108.02 200.87 C 115.50 202.54 122.82 204.85 130.25 206.75 C 128.42 210.00 126.21 213.01 124.07 216.07 C 118.92 210.78 113.12 206.19 108.02 200.87 Z" />
<path fill="#151c28" opacity="1.00" d=" M 93.43 215.41 C 95.81 210.75 98.93 206.50 101.43 201.90 C 102.94 212.97 104.14 224.09 105.56 235.18 C 101.53 229.02 97.14 223.08 93.31 216.81 C 93.34 216.46 93.40 215.76 93.43 215.41 Z" />
<path fill="#151c28" opacity="1.00" d=" M 205.04 207.01 C 206.64 204.46 209.66 203.16 212.07 201.45 C 212.36 207.02 212.24 212.60 212.49 218.16 C 208.32 220.72 204.06 223.15 199.90 225.72 C 201.71 219.51 203.13 213.18 205.04 207.01 Z" />
<path fill="#151c28" opacity="1.00" d=" M 64.73 204.87 C 72.91 208.43 80.67 212.93 88.83 216.57 C 87.33 217.56 85.88 218.63 84.28 219.46 C 77.77 214.58 71.20 209.78 64.73 204.87 Z" />
<path fill="#151c28" opacity="1.00" d=" M 126.27 217.42 C 128.55 214.30 130.64 211.06 132.89 207.92 C 141.52 214.63 149.87 221.71 158.41 228.55 C 147.73 224.72 136.98 221.14 126.27 217.42 Z" />
<path fill="#151c28" opacity="1.00" d=" M 136.93 208.11 C 148.98 209.68 160.99 211.58 172.97 213.63 C 170.12 219.09 167.30 224.57 164.60 230.11 C 155.28 222.90 146.41 215.11 136.93 208.11 Z" />
<path fill="#151c28" opacity="1.00" d=" M 175.78 213.69 C 182.69 212.12 189.50 210.06 196.51 208.97 C 187.37 215.45 177.98 221.60 168.70 227.88 C 170.99 223.12 173.48 218.45 175.78 213.69 Z" />
<path fill="#151c28" opacity="1.00" d=" M 170.64 229.93 C 181.08 222.85 191.43 215.64 201.88 208.58 C 200.07 214.81 198.38 221.08 196.63 227.34 C 187.96 228.15 179.31 229.07 170.64 229.93 Z" />
<path fill="#151c28" opacity="1.00" d=" M 86.18 221.44 C 87.49 220.57 88.79 219.70 90.10 218.85 C 91.10 225.59 92.92 232.19 93.77 238.97 C 91.59 232.98 88.75 227.26 86.18 221.44 Z" />
<path fill="#151c28" opacity="1.00" d=" M 123.49 221.44 C 124.40 219.51 126.71 220.33 128.27 220.81 C 139.47 224.76 150.61 228.88 161.95 232.41 C 153.60 237.54 145.44 242.97 137.09 248.08 C 135.23 249.35 132.86 248.70 130.94 247.95 C 123.98 245.14 116.92 242.60 109.92 239.90 C 114.24 233.60 118.96 227.59 123.49 221.44 Z" />
<path fill="#151c28" opacity="1.00" d=" M 200.88 228.10 C 205.40 225.83 209.65 223.07 213.92 220.37 C 222.51 227.32 231.35 233.96 240.02 240.83 C 227.01 236.46 214.00 232.12 200.88 228.10 Z" />
<path fill="#151c28" opacity="1.00" d=" M 93.26 221.88 C 97.30 228.05 101.43 234.17 105.80 240.12 C 103.19 242.07 100.57 243.99 97.89 245.85 C 96.31 237.87 95.30 229.77 93.26 221.88 Z" />
<path fill="#151c28" opacity="1.00" d=" M 68.68 236.92 C 73.67 232.31 78.83 227.87 84.06 223.53 C 87.48 231.06 90.99 238.54 94.64 245.96 C 86.05 242.76 77.29 240.05 68.68 236.92 Z" />
<path fill="#151c28" opacity="1.00" d=" M 170.72 232.53 C 179.67 232.53 188.46 230.52 197.40 230.34 C 199.74 234.65 202.23 238.87 204.84 243.02 C 193.42 239.69 182.11 235.99 170.72 232.53 Z" />
<path fill="#151c28" opacity="1.00" d=" M 200.94 231.07 C 213.10 234.95 225.44 238.35 237.36 242.89 C 227.68 243.91 217.92 243.18 208.21 243.74 C 205.81 239.50 203.26 235.36 200.94 231.07 Z" />
<path fill="#151c28" opacity="1.00" d=" M 165.51 234.01 C 178.20 237.23 190.53 241.79 203.11 245.42 C 187.67 250.55 172.35 256.00 156.85 260.92 C 159.68 251.93 162.74 243.02 165.51 234.01 Z" />
<path fill="#151c28" opacity="1.00" d=" M 137.71 250.90 C 145.99 245.83 154.21 240.67 162.23 235.20 C 159.24 243.77 156.88 252.58 153.48 261.01 C 148.34 257.45 142.90 254.36 137.71 250.90 Z" />
<path fill="#151c28" opacity="1.00" d=" M 99.03 248.29 C 101.92 246.18 104.82 244.08 107.87 242.20 C 113.64 247.46 120.02 252.05 125.67 257.44 C 125.42 261.66 121.52 265.06 119.69 268.87 C 112.81 262.01 105.93 255.14 99.03 248.29 Z" />
<path fill="#151c28" opacity="1.00" d=" M 114.55 244.44 C 120.63 246.88 126.74 249.25 132.96 251.32 C 131.34 252.86 129.72 254.39 128.09 255.93 C 123.72 251.93 118.95 248.40 114.55 244.44 Z" />
<path fill="#151c28" opacity="1.00" d=" M 208.76 246.54 C 219.32 247.03 229.75 244.95 240.30 245.58 C 228.90 251.65 217.71 258.13 206.32 264.23 C 207.08 258.33 208.20 252.47 208.76 246.54 Z" />
<path fill="#151c28" opacity="1.00" d=" M 161.95 262.23 C 175.49 257.98 188.72 252.78 202.32 248.74 C 198.00 253.14 194.47 258.55 189.39 262.05 C 180.26 262.46 171.09 262.03 161.95 262.23 Z" />
<path fill="#151c28" opacity="1.00" d=" M 193.51 262.36 C 197.74 258.05 201.79 253.58 205.82 249.08 C 205.04 254.40 204.32 259.72 203.57 265.04 C 200.19 264.23 196.83 263.36 193.51 262.36 Z" />
<path fill="#151c28" opacity="1.00" d=" M 130.19 257.33 C 132.08 255.98 133.49 253.62 135.88 253.19 C 141.00 255.93 145.67 259.45 150.67 262.41 C 154.95 264.48 154.67 269.88 156.00 273.81 C 147.50 268.15 138.83 262.76 130.19 257.33 Z" />
<path fill="#151c28" opacity="1.00" d=" M 128.38 259.80 C 131.57 262.46 134.70 265.21 137.92 267.84 C 132.88 268.58 127.79 268.89 122.70 268.87 C 124.61 265.86 126.48 262.82 128.38 259.80 Z" />
<path fill="#151c28" opacity="1.00" d=" M 159.84 264.49 C 168.96 264.61 178.09 264.45 187.21 264.57 C 183.70 267.32 180.21 270.09 176.81 272.97 C 171.11 270.23 165.55 267.21 159.84 264.49 Z" />
<path fill="#151c28" opacity="1.00" d=" M 191.19 264.67 C 194.12 265.46 197.10 266.05 200.08 266.66 C 194.56 268.11 189.13 269.89 183.57 271.14 C 185.90 268.75 188.56 266.71 191.19 264.67 Z" />
<path fill="#151c28" opacity="1.00" d=" M 156.94 266.01 C 162.06 268.51 167.17 271.05 172.25 273.64 C 167.87 274.60 163.39 274.63 158.94 274.78 C 158.27 271.85 157.51 268.95 156.94 266.01 Z" />
<path fill="#151c28" opacity="1.00" d=" M 126.52 271.64 C 131.04 271.21 135.57 270.94 140.05 270.22 C 141.20 272.65 142.36 275.08 143.38 277.58 C 137.75 275.65 131.99 274.02 126.52 271.64 Z" />
<path fill="#151c28" opacity="1.00" d=" M 143.91 271.83 C 147.38 273.21 150.78 274.77 154.16 276.37 C 151.73 277.09 149.28 277.77 146.88 278.58 C 145.86 276.34 144.86 274.09 143.91 271.83 Z" />
</g>
<g id="#d9f3f4ff">
<path fill="#d9f3f4" opacity="1.00" d=" M 154.29 31.14 C 161.61 27.53 168.35 22.70 175.92 19.64 C 187.76 22.35 199.73 24.52 211.50 27.48 C 216.75 30.87 221.87 34.47 227.07 37.95 C 228.94 39.07 230.14 40.93 231.23 42.76 C 235.04 49.23 239.20 55.49 243.01 61.96 C 238.68 68.98 234.68 76.21 229.98 82.99 C 229.28 83.93 228.61 85.09 227.36 85.32 C 215.63 88.20 203.73 90.39 192.02 93.39 C 189.49 87.15 186.99 80.90 184.32 74.71 C 178.11 73.91 171.99 72.54 165.81 71.54 C 161.99 70.73 158.54 72.91 155.07 74.12 C 143.81 78.04 133.98 84.95 123.59 90.64 C 123.74 96.46 122.59 102.21 122.62 108.03 C 122.59 113.66 122.13 119.28 121.45 124.86 C 116.08 131.33 110.71 137.81 105.32 144.28 C 111.19 153.53 117.01 162.82 123.08 171.94 C 123.69 173.21 125.08 174.43 124.64 175.97 C 123.68 180.80 121.76 185.38 120.40 190.11 C 124.33 194.37 127.89 198.96 131.88 203.17 C 133.56 205.31 136.49 205.31 138.94 205.78 C 150.30 207.42 161.62 209.32 172.99 210.89 C 175.21 211.39 177.39 210.57 179.54 210.13 C 186.19 208.44 192.89 207.01 199.56 205.42 C 201.21 204.95 203.08 204.66 204.23 203.25 C 207.56 199.68 210.84 196.07 214.04 192.38 C 221.33 195.36 228.72 198.08 236.02 201.04 C 240.09 215.39 243.34 229.96 247.43 244.30 C 233.43 252.00 219.59 260.00 205.49 267.51 C 200.72 269.33 195.68 270.35 190.82 271.87 C 184.57 273.50 178.48 275.98 171.97 276.41 C 168.01 276.63 164.09 277.27 160.15 277.66 C 155.33 278.31 150.86 280.38 146.09 281.24 C 137.10 278.24 128.06 275.27 119.25 271.81 C 111.78 264.95 104.86 257.47 97.56 250.42 C 95.98 248.85 93.80 248.20 91.75 247.50 C 82.91 244.70 74.24 241.40 65.44 238.46 C 58.96 222.44 53.92 205.85 46.95 190.03 C 42.31 177.40 37.92 164.69 33.52 151.98 C 38.24 148.13 43.07 144.41 47.81 140.59 C 46.67 128.81 46.26 116.99 45.26 105.21 C 52.03 102.39 58.81 99.57 65.60 96.78 C 67.39 84.10 67.96 71.29 69.68 58.60 C 82.46 50.12 95.00 41.28 107.78 32.80 C 111.31 30.38 114.94 28.11 118.25 25.38 C 129.08 27.42 139.96 29.20 150.80 31.20 C 151.94 31.32 153.22 31.83 154.29 31.14 M 174.00 23.06 C 169.26 25.61 164.62 28.36 159.84 30.85 C 163.04 30.79 166.24 30.85 169.42 30.52 C 180.07 29.32 190.82 29.17 201.43 27.72 C 194.36 26.11 187.24 24.75 180.18 23.08 C 178.17 22.68 175.89 21.84 174.00 23.06 M 121.84 29.00 C 124.00 32.27 126.23 35.49 128.47 38.71 C 135.01 36.78 141.58 34.96 148.20 33.34 C 139.40 31.95 130.71 29.85 121.84 29.00 M 156.68 33.92 C 159.75 37.36 163.11 40.52 166.31 43.84 C 180.34 43.40 194.28 41.40 208.32 41.22 C 208.36 37.49 208.80 33.78 209.54 30.13 C 191.90 30.88 174.32 32.95 156.68 33.92 M 75.15 57.65 C 85.10 56.33 95.06 55.08 105.05 54.25 C 108.18 46.27 112.26 38.70 115.41 30.72 C 101.87 39.51 88.91 49.21 75.15 57.65 M 211.69 31.56 C 211.53 34.32 211.41 37.09 211.24 39.85 C 212.98 38.85 214.75 37.89 216.53 36.94 C 214.95 35.12 213.35 33.31 211.69 31.56 M 112.09 60.17 C 115.39 57.72 118.45 54.96 121.72 52.47 C 121.40 45.85 119.44 39.46 118.69 32.89 C 116.36 41.95 114.30 51.08 112.09 60.17 M 121.23 32.82 C 122.16 37.90 123.56 42.89 123.92 48.06 C 124.60 45.44 125.79 42.89 125.81 40.15 C 124.63 37.52 122.85 35.20 121.23 32.82 M 128.74 41.64 C 127.88 44.69 126.85 47.70 125.96 50.75 C 133.35 49.08 140.93 48.42 148.27 46.51 C 149.37 42.59 150.57 38.70 151.85 34.83 C 144.19 37.23 136.38 39.16 128.74 41.64 M 154.29 35.25 C 153.42 39.71 150.93 43.95 151.32 48.59 C 154.60 54.64 158.79 60.16 162.06 66.23 C 162.69 59.40 163.70 52.61 164.61 45.81 C 161.20 42.26 157.65 38.84 154.29 35.25 M 220.21 39.18 C 220.23 44.89 220.34 50.60 220.85 56.29 C 222.73 51.19 225.01 46.19 226.04 40.83 C 224.08 40.34 222.15 39.76 220.21 39.18 M 209.33 45.17 C 207.01 49.57 204.84 54.05 202.42 58.40 C 200.55 61.93 198.34 65.41 197.70 69.43 C 197.05 74.03 196.24 78.61 195.27 83.16 C 202.51 68.98 208.72 54.30 215.95 40.12 C 213.58 41.53 210.53 42.44 209.33 45.17 M 109.04 51.85 C 107.78 54.33 108.37 57.17 108.94 59.75 C 110.94 53.52 112.36 47.12 113.91 40.77 C 112.08 44.36 110.67 48.16 109.04 51.85 M 197.81 84.35 C 203.88 78.91 209.15 72.66 215.02 67.02 C 216.06 65.77 217.84 64.75 217.67 62.90 C 217.71 56.16 217.78 49.41 217.61 42.66 C 211.15 56.62 204.41 70.46 197.81 84.35 M 188.06 45.17 C 181.89 45.13 175.80 46.27 169.63 46.36 C 178.70 52.08 187.58 58.09 196.52 63.99 C 199.93 57.11 203.65 50.38 207.04 43.50 C 200.79 44.84 194.34 44.02 188.06 45.17 M 221.76 62.48 C 227.71 61.73 233.71 61.37 239.69 60.91 C 235.75 55.27 232.40 49.25 228.60 43.51 C 226.01 49.72 224.02 56.15 221.76 62.48 M 167.06 47.84 C 165.95 54.74 165.48 61.72 164.20 68.60 C 171.02 69.99 177.90 71.15 184.77 72.27 C 188.22 70.49 191.24 68.00 194.50 65.92 C 185.39 59.84 176.34 53.66 167.06 47.84 M 125.98 53.54 C 126.98 57.25 128.36 60.84 129.67 64.44 C 139.78 65.84 149.92 67.42 160.14 67.77 C 156.16 61.74 152.39 55.58 148.57 49.45 C 141.07 50.96 133.50 52.10 125.98 53.54 M 111.25 64.61 C 113.04 70.32 114.91 76.00 116.88 81.65 C 119.91 77.39 122.63 72.94 125.47 68.56 C 128.62 64.20 124.13 59.33 123.14 54.93 C 119.15 58.12 115.35 61.56 111.25 64.61 M 74.00 60.53 C 76.76 62.47 79.42 64.56 81.99 66.74 C 87.66 63.53 93.50 60.64 99.12 57.34 C 90.85 59.12 82.34 59.15 74.00 60.53 M 81.93 74.88 C 90.50 71.05 99.12 67.33 107.81 63.79 C 106.97 61.69 106.18 59.58 105.45 57.44 C 97.68 63.35 89.90 69.24 81.93 74.88 M 72.38 62.27 C 72.47 67.18 73.28 72.03 73.60 76.92 C 75.58 74.06 77.69 71.29 80.00 68.70 C 77.50 66.51 74.85 64.49 72.38 62.27 M 223.01 65.06 C 226.31 67.91 229.69 70.67 233.06 73.44 C 235.16 70.13 237.22 66.80 239.25 63.44 C 233.84 64.06 228.41 64.40 223.01 65.06 M 92.86 73.02 C 100.04 76.06 107.16 79.27 114.17 82.68 C 112.39 77.21 110.28 71.84 108.83 66.26 C 103.57 68.66 98.33 71.13 92.86 73.02 M 196.77 89.69 C 206.50 87.42 216.30 85.42 226.02 83.09 C 224.07 77.42 221.60 71.94 219.23 66.44 C 211.80 74.25 204.00 81.70 196.77 89.69 M 129.20 67.98 C 126.04 72.92 122.92 77.87 119.67 82.75 C 127.48 80.34 135.30 77.98 143.18 75.82 C 138.52 73.21 133.95 70.43 129.20 67.98 M 134.80 68.08 C 138.67 70.17 142.41 72.52 146.34 74.50 C 150.12 73.80 153.57 71.87 157.18 70.57 C 149.74 69.56 142.26 68.91 134.80 68.08 M 222.87 68.19 C 224.55 72.55 226.48 76.81 228.08 81.20 C 229.35 79.42 230.58 77.61 231.85 75.83 C 228.85 73.29 225.82 70.78 222.87 68.19 M 186.96 74.19 C 188.70 78.53 190.47 82.85 192.19 87.20 C 193.13 81.07 194.16 74.95 194.98 68.80 C 192.31 70.60 189.67 72.45 186.96 74.19 M 91.30 75.19 C 91.50 80.72 91.58 86.25 91.57 91.78 C 98.45 89.20 105.51 87.16 112.52 84.97 C 105.49 81.61 98.17 78.88 91.30 75.19 M 74.82 80.93 C 73.37 81.44 73.11 83.04 72.62 84.30 C 71.47 87.95 70.41 91.62 69.19 95.25 C 71.77 93.95 74.93 93.23 76.57 90.65 C 79.81 85.84 82.81 80.87 85.98 76.01 C 82.29 77.71 78.42 79.03 74.82 80.93 M 78.99 91.74 C 82.20 91.65 85.41 91.64 88.62 91.74 C 88.38 86.84 88.39 81.94 88.47 77.04 C 85.59 82.11 82.41 87.01 78.99 91.74 M 119.28 85.84 C 120.62 86.51 121.87 88.45 123.52 87.44 C 127.57 85.57 131.44 83.32 135.21 80.93 C 129.84 82.38 124.51 83.98 119.28 85.84 M 117.40 87.20 C 115.76 95.13 114.27 103.10 112.44 110.99 C 114.90 114.29 117.29 117.63 119.66 121.00 C 119.62 116.17 119.36 111.29 120.15 106.50 C 120.80 101.12 120.42 95.68 120.63 90.28 C 119.55 89.26 118.47 88.23 117.40 87.20 M 91.63 94.71 C 89.04 104.85 86.58 115.02 83.92 125.15 C 89.93 116.81 96.45 108.86 102.61 100.64 C 105.94 96.35 109.14 91.95 112.77 87.90 C 105.71 90.12 98.71 92.54 91.63 94.71 M 83.82 129.89 C 82.76 131.01 82.62 132.51 82.60 133.97 C 90.09 127.68 97.42 121.20 104.99 114.99 C 107.03 113.05 109.97 111.47 110.30 108.38 C 111.51 102.47 112.75 96.57 113.92 90.66 C 103.79 103.66 93.89 116.84 83.82 129.89 M 69.00 98.35 C 72.15 107.32 75.85 116.08 78.85 125.10 C 77.59 115.21 75.89 105.37 75.17 95.42 C 73.13 96.44 71.06 97.38 69.00 98.35 M 78.26 95.34 C 78.57 105.05 81.05 114.55 81.53 124.25 C 83.47 114.54 85.65 104.83 88.59 95.38 C 85.15 95.43 81.70 95.43 78.26 95.34 M 51.61 105.32 C 57.59 106.89 63.78 107.54 69.84 108.82 C 68.60 105.67 67.40 102.51 66.31 99.31 C 61.42 101.35 56.50 103.30 51.61 105.32 M 48.77 108.32 C 51.45 117.18 54.86 125.84 56.92 134.88 C 59.26 128.52 62.04 122.32 64.71 116.09 C 59.35 113.61 54.05 110.99 48.77 108.32 M 56.81 109.19 C 59.81 110.95 63.00 112.34 66.13 113.85 C 67.08 113.11 68.04 112.36 68.99 111.61 C 64.92 110.83 60.90 109.82 56.81 109.19 M 59.08 136.62 C 66.08 136.66 72.95 134.99 79.97 135.52 C 77.19 128.38 74.21 121.31 71.78 114.04 C 67.57 121.59 63.54 129.23 59.08 136.62 M 111.64 114.15 C 110.96 117.29 110.19 120.42 109.25 123.49 C 112.19 123.44 115.13 123.34 118.07 123.19 C 115.98 120.14 113.68 117.23 111.64 114.15 M 90.72 131.03 C 94.95 129.14 99.11 127.10 103.39 125.33 C 108.01 124.25 107.37 118.62 108.89 115.09 C 102.97 120.56 96.57 125.49 90.72 131.03 M 49.23 118.46 C 48.93 125.56 49.99 132.61 50.23 139.69 C 51.79 138.92 53.37 138.19 54.95 137.47 C 53.29 131.07 51.30 124.74 49.23 118.46 M 108.71 126.47 C 107.89 130.71 106.84 134.90 106.17 139.16 C 110.06 134.57 113.92 129.95 117.86 125.40 C 114.78 125.48 111.72 125.86 108.71 126.47 M 85.18 136.36 C 91.06 138.14 96.73 140.57 102.72 142.01 C 103.85 137.09 104.74 132.12 105.80 127.18 C 98.91 130.21 92.19 133.63 85.18 136.36 M 59.98 139.49 C 57.24 139.61 54.63 140.52 52.02 141.30 C 63.94 148.46 76.20 155.03 88.19 162.07 C 92.69 156.30 97.04 150.41 101.69 144.75 C 95.26 143.05 89.11 140.46 82.76 138.51 C 75.17 138.01 67.55 138.92 59.98 139.49 M 36.28 152.79 C 40.55 164.97 44.89 177.12 49.30 189.25 C 55.86 179.97 62.07 170.45 68.38 161.00 C 62.04 154.89 55.48 149.01 49.01 143.03 C 44.62 146.08 40.48 149.48 36.28 152.79 M 58.04 147.95 C 61.46 150.86 64.84 153.82 68.01 157.00 C 71.34 160.58 76.64 160.26 81.09 160.95 C 73.14 157.10 65.77 152.20 58.04 147.95 M 91.78 161.81 C 95.70 161.72 99.63 161.72 103.56 161.72 C 102.60 157.14 102.46 152.46 102.55 147.80 C 98.94 152.45 95.47 157.22 91.78 161.81 M 105.42 148.97 C 105.74 153.33 105.41 157.74 105.97 162.08 C 110.24 165.26 114.81 168.05 119.30 170.90 C 114.80 163.51 109.72 156.48 105.42 148.97 M 71.56 162.21 C 70.57 169.18 69.39 176.13 69.02 183.17 C 74.63 176.96 80.26 170.77 86.04 164.72 C 81.18 164.09 76.36 163.22 71.56 162.21 M 88.83 165.87 C 82.14 172.08 76.68 179.49 70.08 185.80 C 81.28 185.57 92.41 184.53 103.57 183.57 C 103.41 177.14 103.43 170.71 103.55 164.28 C 98.66 164.66 93.52 164.39 88.83 165.87 M 52.11 189.98 C 56.61 189.00 61.07 187.84 65.51 186.62 C 65.96 179.96 67.63 173.44 67.80 166.77 C 62.52 174.47 57.38 182.27 52.11 189.98 M 108.17 166.73 C 111.71 173.47 114.97 180.37 118.76 186.99 C 119.89 183.23 121.22 179.51 121.90 175.64 C 117.21 172.85 112.70 169.76 108.17 166.73 M 106.25 168.74 C 106.45 173.91 105.91 179.14 106.59 184.27 C 109.71 185.62 112.93 186.71 116.09 187.96 C 112.88 181.52 109.34 175.24 106.25 168.74 M 75.54 188.59 C 84.05 191.47 92.87 193.35 101.46 195.98 C 102.08 192.79 102.62 189.59 102.74 186.34 C 93.73 187.61 84.61 187.92 75.54 188.59 M 105.85 186.94 C 105.45 189.75 104.92 192.54 104.36 195.32 C 107.98 193.74 111.61 192.20 115.20 190.56 C 112.09 189.35 108.97 188.15 105.85 186.94 M 53.89 196.22 C 66.12 202.31 78.23 208.68 90.71 214.24 C 93.95 208.98 97.09 203.65 100.55 198.53 C 89.30 195.79 78.24 192.26 67.02 189.43 C 62.38 191.03 58.35 194.14 53.89 196.22 M 106.76 197.47 C 113.95 199.35 121.03 201.63 128.28 203.31 C 125.21 199.47 121.86 195.87 118.61 192.20 C 114.63 193.89 110.69 195.67 106.76 197.47 M 215.47 195.86 C 215.12 196.34 214.41 197.29 214.05 197.76 C 217.41 198.25 220.76 198.80 224.15 198.95 C 221.33 197.72 218.41 196.74 215.47 195.86 M 53.55 199.75 C 58.36 211.41 62.09 223.49 66.77 235.21 C 71.93 230.58 77.22 226.09 82.15 221.21 C 72.66 214.01 63.03 206.98 53.55 199.75 M 214.27 200.16 C 214.15 206.30 215.40 212.33 215.49 218.46 C 225.11 225.51 234.15 233.31 243.70 240.45 C 240.88 228.91 237.81 217.43 234.92 205.91 C 234.53 204.84 234.48 203.03 232.96 202.98 C 226.77 201.79 220.45 201.41 214.27 200.16 M 104.20 201.09 C 106.04 213.00 107.11 225.02 108.64 236.97 C 113.19 230.68 117.84 224.47 122.51 218.27 C 116.53 212.42 110.06 207.07 104.20 201.09 M 108.02 200.87 C 113.12 206.19 118.92 210.78 124.07 216.07 C 126.21 213.01 128.42 210.00 130.25 206.75 C 122.82 204.85 115.50 202.54 108.02 200.87 M 93.43 215.41 C 93.40 215.76 93.34 216.46 93.31 216.81 C 97.14 223.08 101.53 229.02 105.56 235.18 C 104.14 224.09 102.94 212.97 101.43 201.90 C 98.93 206.50 95.81 210.75 93.43 215.41 M 205.04 207.01 C 203.13 213.18 201.71 219.51 199.90 225.72 C 204.06 223.15 208.32 220.72 212.49 218.16 C 212.24 212.60 212.36 207.02 212.07 201.45 C 209.66 203.16 206.64 204.46 205.04 207.01 M 64.73 204.87 C 71.20 209.78 77.77 214.58 84.28 219.46 C 85.88 218.63 87.33 217.56 88.83 216.57 C 80.67 212.93 72.91 208.43 64.73 204.87 M 126.27 217.42 C 136.98 221.14 147.73 224.72 158.41 228.55 C 149.87 221.71 141.52 214.63 132.89 207.92 C 130.64 211.06 128.55 214.30 126.27 217.42 M 136.93 208.11 C 146.41 215.11 155.28 222.90 164.60 230.11 C 167.30 224.57 170.12 219.09 172.97 213.63 C 160.99 211.58 148.98 209.68 136.93 208.11 M 175.78 213.69 C 173.48 218.45 170.99 223.12 168.70 227.88 C 177.98 221.60 187.37 215.45 196.51 208.97 C 189.50 210.06 182.69 212.12 175.78 213.69 M 170.64 229.93 C 179.31 229.07 187.96 228.15 196.63 227.34 C 198.38 221.08 200.07 214.81 201.88 208.58 C 191.43 215.64 181.08 222.85 170.64 229.93 M 86.18 221.44 C 88.75 227.26 91.59 232.98 93.77 238.97 C 92.92 232.19 91.10 225.59 90.10 218.85 C 88.79 219.70 87.49 220.57 86.18 221.44 M 123.49 221.44 C 118.96 227.59 114.24 233.60 109.92 239.90 C 116.92 242.60 123.98 245.14 130.94 247.95 C 132.86 248.70 135.23 249.35 137.09 248.08 C 145.44 242.97 153.60 237.54 161.95 232.41 C 150.61 228.88 139.47 224.76 128.27 220.81 C 126.71 220.33 124.40 219.51 123.49 221.44 M 200.88 228.10 C 214.00 232.12 227.01 236.46 240.02 240.83 C 231.35 233.96 222.51 227.32 213.92 220.37 C 209.65 223.07 205.40 225.83 200.88 228.10 M 93.26 221.88 C 95.30 229.77 96.31 237.87 97.89 245.85 C 100.57 243.99 103.19 242.07 105.80 240.12 C 101.43 234.17 97.30 228.05 93.26 221.88 M 68.68 236.92 C 77.29 240.05 86.05 242.76 94.64 245.96 C 90.99 238.54 87.48 231.06 84.06 223.53 C 78.83 227.87 73.67 232.31 68.68 236.92 M 170.72 232.53 C 182.11 235.99 193.42 239.69 204.84 243.02 C 202.23 238.87 199.74 234.65 197.40 230.34 C 188.46 230.52 179.67 232.53 170.72 232.53 M 200.94 231.07 C 203.26 235.36 205.81 239.50 208.21 243.74 C 217.92 243.18 227.68 243.91 237.36 242.89 C 225.44 238.35 213.10 234.95 200.94 231.07 M 165.51 234.01 C 162.74 243.02 159.68 251.93 156.85 260.92 C 172.35 256.00 187.67 250.55 203.11 245.42 C 190.53 241.79 178.20 237.23 165.51 234.01 M 137.71 250.90 C 142.90 254.36 148.34 257.45 153.48 261.01 C 156.88 252.58 159.24 243.77 162.23 235.20 C 154.21 240.67 145.99 245.83 137.71 250.90 M 99.03 248.29 C 105.93 255.14 112.81 262.01 119.69 268.87 C 121.52 265.06 125.42 261.66 125.67 257.44 C 120.02 252.05 113.64 247.46 107.87 242.20 C 104.82 244.08 101.92 246.18 99.03 248.29 M 114.55 244.44 C 118.95 248.40 123.72 251.93 128.09 255.93 C 129.72 254.39 131.34 252.86 132.96 251.32 C 126.74 249.25 120.63 246.88 114.55 244.44 M 208.76 246.54 C 208.20 252.47 207.08 258.33 206.32 264.23 C 217.71 258.13 228.90 251.65 240.30 245.58 C 229.75 244.95 219.32 247.03 208.76 246.54 M 161.95 262.23 C 171.09 262.03 180.26 262.46 189.39 262.05 C 194.47 258.55 198.00 253.14 202.32 248.74 C 188.72 252.78 175.49 257.98 161.95 262.23 M 193.51 262.36 C 196.83 263.36 200.19 264.23 203.57 265.04 C 204.32 259.72 205.04 254.40 205.82 249.08 C 201.79 253.58 197.74 258.05 193.51 262.36 M 130.19 257.33 C 138.83 262.76 147.50 268.15 156.00 273.81 C 154.67 269.88 154.95 264.48 150.67 262.41 C 145.67 259.45 141.00 255.93 135.88 253.19 C 133.49 253.62 132.08 255.98 130.19 257.33 M 128.38 259.80 C 126.48 262.82 124.61 265.86 122.70 268.87 C 127.79 268.89 132.88 268.58 137.92 267.84 C 134.70 265.21 131.57 262.46 128.38 259.80 M 159.84 264.49 C 165.55 267.21 171.11 270.23 176.81 272.97 C 180.21 270.09 183.70 267.32 187.21 264.57 C 178.09 264.45 168.96 264.61 159.84 264.49 M 191.19 264.67 C 188.56 266.71 185.90 268.75 183.57 271.14 C 189.13 269.89 194.56 268.11 200.08 266.66 C 197.10 266.05 194.12 265.46 191.19 264.67 M 156.94 266.01 C 157.51 268.95 158.27 271.85 158.94 274.78 C 163.39 274.63 167.87 274.60 172.25 273.64 C 167.17 271.05 162.06 268.51 156.94 266.01 M 126.52 271.64 C 131.99 274.02 137.75 275.65 143.38 277.58 C 142.36 275.08 141.20 272.65 140.05 270.22 C 135.57 270.94 131.04 271.21 126.52 271.64 M 143.91 271.83 C 144.86 274.09 145.86 276.34 146.88 278.58 C 149.28 277.77 151.73 277.09 154.16 276.37 C 150.78 274.77 147.38 273.21 143.91 271.83 Z" />
</g>
</svg>
