<?xml version="1.0" encoding="UTF-8" ?>
<!DOCTYPE svg PUBLIC "-//W3C//DTD SVG 1.1//EN" "http://www.w3.org/Graphics/SVG/1.1/DTD/svg11.dtd">
<svg width="300pt" height="300pt" viewBox="0 0 300 300" version="1.1" xmlns="http://www.w3.org/2000/svg">
<g id="#26a17bff">
<path fill="#26a17b" opacity="1.00" d=" M 131.11 0.00 L 168.05 0.00 C 171.97 1.77 176.31 2.02 180.46 2.89 C 191.89 5.02 202.78 9.28 213.45 13.77 C 217.53 15.28 221.17 17.69 224.87 19.94 C 261.46 40.64 288.38 77.59 296.95 118.75 C 297.75 123.23 298.01 127.89 300.00 132.07 L 300.00 167.80 C 297.93 172.26 297.76 177.21 296.80 181.95 C 293.39 195.49 289.27 209.04 282.10 221.11 C 275.18 234.22 266.03 246.11 255.66 256.66 C 243.83 268.02 230.61 278.19 215.44 284.67 C 204.36 291.08 191.89 294.43 179.47 297.17 C 175.34 298.02 171.00 298.16 167.13 300.00 L 142.65 300.00 C 123.41 298.73 104.11 294.58 86.72 286.04 C 68.26 277.49 51.52 265.25 38.06 249.98 C 29.39 240.37 22.27 229.44 16.03 218.13 C 10.99 207.91 6.96 197.18 4.16 186.13 C 2.61 180.44 2.40 174.39 0.00 168.94 L 0.00 131.20 C 1.09 128.54 1.83 125.74 2.33 122.91 C 4.23 111.08 8.12 99.66 12.84 88.69 C 16.56 79.11 22.62 70.71 28.17 62.14 C 42.61 42.28 61.92 26.07 83.81 14.99 C 96.83 9.17 110.37 4.24 124.50 2.01 C 126.78 1.63 129.02 0.99 131.11 0.00 M 80.91 76.25 C 80.43 87.58 80.75 98.95 80.75 110.29 C 97.72 110.54 114.69 110.43 131.65 110.34 C 131.59 117.72 131.75 125.11 131.52 132.49 C 120.48 132.58 109.51 134.17 98.56 135.41 C 87.35 137.48 75.85 139.36 65.63 144.67 C 62.90 146.39 59.29 148.44 59.17 152.08 C 58.87 155.76 62.27 158.21 65.08 159.86 C 74.01 164.62 84.06 166.59 93.92 168.41 C 106.30 171.09 119.01 171.20 131.56 172.54 C 131.72 192.03 131.60 211.51 131.65 231.00 C 131.69 235.24 131.41 239.49 131.91 243.72 C 144.15 243.40 156.40 243.56 168.64 243.63 C 168.54 219.99 168.45 196.34 168.68 172.69 C 189.85 170.64 211.66 169.70 231.58 161.51 C 235.08 159.75 239.40 157.79 240.65 153.76 C 241.66 149.45 237.58 146.55 234.34 144.71 C 226.74 140.84 218.40 138.65 210.07 137.03 C 196.43 134.30 182.56 133.00 168.69 132.29 C 168.12 125.00 168.76 117.67 168.38 110.36 C 185.36 110.41 202.35 110.54 219.33 110.30 C 219.61 100.19 219.34 90.07 219.48 79.95 C 219.34 78.71 219.99 76.05 217.86 76.38 C 172.21 76.30 126.56 76.56 80.91 76.25 Z" />
<path fill="#26a17b" opacity="1.00" d=" M 77.39 143.27 C 94.79 137.28 113.40 136.29 131.62 135.19 C 131.86 143.64 131.08 152.15 132.05 160.56 C 144.18 160.44 156.32 160.71 168.45 160.43 C 168.67 152.15 168.57 143.87 168.49 135.60 C 176.00 134.69 183.49 136.46 190.97 136.97 C 202.47 138.15 214.05 139.98 224.88 144.14 C 227.80 145.46 231.88 147.11 231.87 150.91 C 230.93 155.00 226.32 156.43 222.92 157.94 C 204.61 164.12 185.12 165.01 166.01 166.36 C 152.64 166.30 139.22 167.05 125.91 165.62 C 109.65 164.96 93.24 163.20 77.68 158.23 C 73.88 156.73 69.42 155.02 67.78 150.93 C 68.51 146.35 73.62 144.69 77.39 143.27 Z" />
</g>
<g id="#ffffffff">
<path fill="#ffffff" opacity="1.00" d=" M 80.91 76.25 C 126.56 76.56 172.21 76.30 217.86 76.38 C 219.99 76.05 219.34 78.71 219.48 79.95 C 219.34 90.07 219.61 100.19 219.33 110.30 C 202.35 110.54 185.36 110.41 168.38 110.36 C 168.76 117.67 168.12 125.00 168.69 132.29 C 182.56 133.00 196.43 134.30 210.07 137.03 C 218.40 138.65 226.74 140.84 234.34 144.71 C 237.58 146.55 241.66 149.45 240.65 153.76 C 239.40 157.79 235.08 159.75 231.58 161.51 C 211.66 169.70 189.85 170.64 168.68 172.69 C 168.45 196.34 168.54 219.99 168.64 243.63 C 156.40 243.56 144.15 243.40 131.91 243.72 C 131.41 239.49 131.69 235.24 131.65 231.00 C 131.60 211.51 131.72 192.03 131.56 172.54 C 119.01 171.20 106.30 171.09 93.92 168.41 C 84.06 166.59 74.01 164.62 65.08 159.86 C 62.27 158.21 58.87 155.76 59.17 152.08 C 59.29 148.44 62.90 146.39 65.63 144.67 C 75.85 139.36 87.35 137.48 98.56 135.41 C 109.51 134.17 120.48 132.58 131.52 132.49 C 131.75 125.11 131.59 117.72 131.65 110.34 C 114.69 110.43 97.72 110.54 80.75 110.29 C 80.75 98.95 80.43 87.58 80.91 76.25 M 77.39 143.27 C 73.62 144.69 68.51 146.35 67.78 150.93 C 69.42 155.02 73.88 156.73 77.68 158.23 C 93.24 163.20 109.65 164.96 125.91 165.62 C 139.22 167.05 152.64 166.30 166.01 166.36 C 185.12 165.01 204.61 164.12 222.92 157.94 C 226.32 156.43 230.93 155.00 231.87 150.91 C 231.88 147.11 227.80 145.46 224.88 144.14 C 214.05 139.98 202.47 138.15 190.97 136.97 C 183.49 136.46 176.00 134.69 168.49 135.60 C 168.57 143.87 168.67 152.15 168.45 160.43 C 156.32 160.71 144.18 160.44 132.05 160.56 C 131.08 152.15 131.86 143.64 131.62 135.19 C 113.40 136.29 94.79 137.28 77.39 143.27 Z" />
</g>
</svg>
