<?xml version="1.0" encoding="UTF-8" ?>
<!DOCTYPE svg PUBLIC "-//W3C//DTD SVG 1.1//EN" "http://www.w3.org/Graphics/SVG/1.1/DTD/svg11.dtd">
<svg width="128pt" height="128pt" viewBox="0 0 128 128" version="1.1" xmlns="http://www.w3.org/2000/svg">
<g id="#345972ff">
<path fill="#345972" opacity="1.00" d=" M 57.68 0.00 L 70.29 0.00 C 77.11 1.28 83.97 2.77 90.31 5.71 C 105.98 12.77 118.58 26.41 124.27 42.64 C 126.01 47.52 127.01 52.61 128.00 57.68 L 128.00 70.29 C 126.72 77.11 125.23 83.98 122.29 90.31 C 115.32 105.73 102.02 118.21 86.10 124.01 C 81.00 125.90 75.65 126.96 70.32 128.00 L 57.71 128.00 C 50.88 126.72 44.02 125.23 37.69 122.29 C 22.02 115.23 9.42 101.59 3.73 85.36 C 1.99 80.48 0.99 75.39 0.00 70.32 L 0.00 57.71 C 0.99 52.63 1.99 47.53 3.73 42.64 C 9.42 26.41 22.02 12.77 37.69 5.71 C 44.01 2.78 50.86 1.29 57.68 0.00 M 56.37 3.41 C 40.41 5.32 25.49 13.96 15.68 26.67 C 5.20 40.15 0.67 58.19 3.94 74.99 C 6.60 90.18 15.43 104.06 27.83 113.19 C 41.16 123.05 58.67 127.24 74.99 124.06 C 89.94 121.44 103.63 112.84 112.76 100.75 C 122.93 87.34 127.28 69.57 124.06 53.01 C 121.40 37.83 112.57 23.93 100.17 14.81 C 87.75 5.64 71.70 1.33 56.37 3.41 Z" />
<path fill="#345972" opacity="1.00" d=" M 56.39 6.49 C 68.29 5.08 80.65 7.01 91.22 12.77 C 105.76 20.43 116.72 34.54 120.44 50.56 C 123.78 65.09 121.61 80.95 113.81 93.73 C 105.51 107.78 91.02 117.96 74.99 120.97 C 63.31 123.04 50.95 121.87 40.13 116.88 C 24.73 110.00 12.69 96.08 8.18 79.82 C 3.89 64.43 6.05 47.22 14.57 33.64 C 23.51 18.92 39.31 8.63 56.39 6.49 M 35.52 38.52 C 34.53 43.34 34.86 48.30 35.01 53.18 C 39.80 53.34 44.60 53.32 49.39 53.20 C 49.46 49.57 49.52 45.93 49.45 42.29 C 64.00 42.06 78.55 42.42 93.09 42.13 C 92.95 34.62 86.65 27.90 79.05 27.75 C 69.37 27.59 59.67 27.69 49.98 27.70 C 43.45 27.53 37.03 32.08 35.52 38.52 M 34.95 56.84 C 35.14 61.75 37.57 66.68 41.95 69.12 C 45.83 71.60 50.60 71.30 55.00 71.29 C 67.68 71.17 80.37 71.46 93.05 71.15 C 93.08 63.59 86.62 56.87 79.03 56.80 C 64.34 56.69 49.64 56.62 34.95 56.84 M 78.48 75.02 C 78.58 78.61 78.57 82.21 78.35 85.80 C 63.87 85.82 49.38 85.64 34.90 85.87 C 35.05 93.38 41.35 100.10 48.95 100.25 C 58.63 100.41 68.33 100.30 78.02 100.30 C 84.55 100.46 90.97 95.92 92.48 89.48 C 93.47 84.66 93.14 79.70 93.00 74.82 C 88.16 74.72 83.30 74.49 78.48 75.02 Z" />
</g>
<g id="#ffffffff">
<path fill="#ffffff" opacity="1.00" d=" M 35.52 38.52 C 37.03 32.08 43.45 27.53 49.98 27.70 C 59.67 27.69 69.37 27.59 79.05 27.75 C 86.65 27.90 92.95 34.62 93.09 42.13 C 78.55 42.42 64.00 42.06 49.45 42.29 C 49.52 45.93 49.46 49.57 49.39 53.20 C 44.60 53.32 39.80 53.34 35.01 53.18 C 34.86 48.30 34.53 43.34 35.52 38.52 Z" />
<path fill="#ffffff" opacity="1.00" d=" M 34.95 56.84 C 49.64 56.62 64.34 56.69 79.03 56.80 C 86.62 56.87 93.08 63.59 93.05 71.15 C 80.37 71.46 67.68 71.17 55.00 71.29 C 50.60 71.30 45.83 71.60 41.95 69.12 C 37.57 66.68 35.14 61.75 34.95 56.84 Z" />
<path fill="#ffffff" opacity="1.00" d=" M 78.48 75.02 C 83.30 74.49 88.16 74.72 93.00 74.82 C 93.14 79.70 93.47 84.66 92.48 89.48 C 90.97 95.92 84.55 100.46 78.02 100.30 C 68.33 100.30 58.63 100.41 48.95 100.25 C 41.35 100.10 35.05 93.38 34.90 85.87 C 49.38 85.64 63.87 85.82 78.35 85.80 C 78.57 82.21 78.58 78.61 78.48 75.02 Z" />
</g>
</svg>
