<?xml version="1.0" encoding="UTF-8" ?>
<!DOCTYPE svg PUBLIC "-//W3C//DTD SVG 1.1//EN" "http://www.w3.org/Graphics/SVG/1.1/DTD/svg11.dtd">
<svg width="514pt" height="514pt" viewBox="0 0 514 514" version="1.1" xmlns="http://www.w3.org/2000/svg">
<g id="#00b693ff">
<path fill="#00b693" opacity="1.00" d=" M 269.73 82.73 C 270.44 77.44 277.53 75.12 281.44 78.59 C 310.95 101.08 340.45 123.59 369.94 146.11 C 374.25 148.83 374.16 156.11 369.52 158.46 C 334.61 178.59 299.63 198.62 264.69 218.71 C 255.52 223.87 246.55 229.37 237.26 234.29 C 248.00 183.75 258.88 133.24 269.73 82.73 Z" />
<path fill="#00b693" opacity="1.00" d=" M 234.48 85.52 C 239.58 82.54 246.44 88.05 244.56 93.71 C 233.46 145.84 222.18 197.94 211.00 250.06 C 210.47 252.93 209.26 255.85 210.02 258.79 C 221.55 312.57 233.21 366.33 244.63 420.13 C 246.26 426.13 238.43 431.14 233.58 427.42 C 203.62 404.75 173.83 381.82 143.89 359.11 C 139.09 355.70 135.99 350.02 136.01 344.09 C 135.98 286.04 136.01 227.98 136.00 169.93 C 135.86 163.97 138.84 158.17 143.63 154.66 C 173.12 132.14 202.62 109.64 232.08 87.09 C 232.84 86.51 233.64 85.98 234.48 85.52 Z" />
<path fill="#00b693" opacity="1.00" d=" M 376.30 180.37 C 378.53 179.03 381.23 177.85 383.82 178.97 C 387.22 180.00 388.98 183.58 388.75 186.96 C 388.76 233.33 388.75 279.71 388.75 326.08 C 388.95 329.35 387.51 332.97 384.21 334.13 C 381.53 335.42 378.60 334.27 376.26 332.84 C 332.07 307.40 287.75 282.17 243.58 256.68 C 287.74 231.11 332.10 205.88 376.30 180.37 Z" />
<path fill="#00b693" opacity="1.00" d=" M 237.33 279.02 C 279.74 303.11 321.94 327.57 364.29 351.77 C 366.73 353.27 369.45 354.40 371.54 356.40 C 374.37 359.49 373.57 364.79 370.11 367.08 C 342.13 388.45 314.14 409.81 286.15 431.18 C 283.52 433.01 281.21 435.63 277.96 436.33 C 274.03 437.10 270.05 434.09 269.69 430.11 C 258.97 379.73 247.86 329.43 237.33 279.02 Z" />
</g>
</svg>
