<?xml version="1.0" encoding="UTF-8" ?>
<!DOCTYPE svg PUBLIC "-//W3C//DTD SVG 1.1//EN" "http://www.w3.org/Graphics/SVG/1.1/DTD/svg11.dtd">
<svg width="300pt" height="300pt" viewBox="0 0 300 300" version="1.1" xmlns="http://www.w3.org/2000/svg">
<g id="#ffffffff">
<path fill="#ffffff" opacity="1.00" d=" M 0.00 0.00 L 140.62 0.00 C 126.46 1.39 112.34 3.95 98.97 8.94 C 74.24 17.96 51.76 33.49 35.10 53.90 C 44.11 66.20 53.13 78.48 62.45 90.55 C 64.50 93.16 66.32 95.99 68.82 98.22 C 78.51 83.32 92.17 70.90 108.32 63.37 C 109.56 62.57 110.47 64.01 111.31 64.68 C 118.74 71.70 126.07 78.84 133.24 86.14 C 136.27 84.68 138.83 82.48 141.57 80.56 C 166.02 63.02 190.47 45.48 214.92 27.94 C 218.34 25.37 222.06 23.18 225.19 20.24 C 204.93 8.32 181.82 1.71 158.43 0.00 L 300.00 0.00 L 300.00 140.61 C 299.09 134.28 298.70 127.86 297.35 121.60 C 290.86 88.02 272.55 56.73 246.07 35.04 C 234.14 43.75 222.23 52.50 210.55 61.54 C 207.57 63.91 204.30 65.95 201.73 68.79 C 217.03 78.78 230.01 92.89 237.19 109.79 C 229.64 118.60 220.94 126.32 213.32 135.06 C 235.39 164.84 258.11 194.16 280.28 223.87 C 292.05 204.44 297.96 181.91 300.00 159.41 L 300.00 300.00 L 159.39 300.00 C 165.73 299.09 172.14 298.72 178.41 297.35 C 211.98 290.86 243.29 272.57 264.96 246.07 C 256.13 233.93 247.22 221.85 238.04 209.97 C 235.83 207.19 233.91 204.13 231.21 201.78 C 221.80 216.32 208.57 228.36 193.04 236.07 C 192.04 236.45 190.67 237.46 189.79 236.29 C 181.62 228.16 173.08 220.40 165.01 212.15 C 137.17 232.92 109.38 253.76 81.54 274.52 C 79.23 276.17 76.96 277.88 74.89 279.83 C 89.36 288.20 105.18 294.20 121.60 297.34 C 127.86 298.71 134.27 299.07 140.59 300.00 L 0.00 300.00 L 0.00 159.38 C 1.72 178.37 6.17 197.23 14.59 214.41 C 23.78 233.85 37.28 251.31 53.91 264.93 C 68.12 254.52 82.30 244.05 96.20 233.22 C 96.92 232.57 97.59 231.89 98.23 231.17 C 83.66 221.80 71.64 208.54 63.94 193.03 C 63.55 192.03 62.53 190.67 63.71 189.79 C 71.84 181.52 79.70 172.99 87.99 164.87 C 65.99 135.60 43.55 106.65 21.48 77.43 C 21.02 76.58 20.32 76.19 19.37 76.25 C 8.04 96.20 1.67 118.73 0.00 141.57 L 0.00 0.00 Z" />
</g>
<g id="#1d2226ff">
<path fill="#1d2226" opacity="1.00" d=" M 140.62 0.00 L 158.43 0.00 C 181.82 1.71 204.93 8.32 225.19 20.24 C 222.06 23.18 218.34 25.37 214.92 27.94 C 190.47 45.48 166.02 63.02 141.57 80.56 C 138.83 82.48 136.27 84.68 133.24 86.14 C 126.07 78.84 118.74 71.70 111.31 64.68 C 110.47 64.01 109.56 62.57 108.32 63.37 C 92.17 70.90 78.51 83.32 68.82 98.22 C 66.32 95.99 64.50 93.16 62.45 90.55 C 53.13 78.48 44.11 66.20 35.10 53.90 C 51.76 33.49 74.24 17.96 98.97 8.94 C 112.34 3.95 126.46 1.39 140.62 0.00 Z" />
<path fill="#1d2226" opacity="1.00" d=" M 210.55 61.54 C 222.23 52.50 234.14 43.75 246.07 35.04 C 272.55 56.73 290.86 88.02 297.35 121.60 C 298.70 127.86 299.09 134.28 300.00 140.61 L 300.00 159.41 C 297.96 181.91 292.05 204.44 280.28 223.87 C 258.11 194.16 235.39 164.84 213.32 135.06 C 220.94 126.32 229.64 118.60 237.19 109.79 C 230.01 92.89 217.03 78.78 201.73 68.79 C 204.30 65.95 207.57 63.91 210.55 61.54 Z" />
<path fill="#1d2226" opacity="1.00" d=" M 19.37 76.25 C 20.32 76.19 21.02 76.58 21.48 77.43 C 43.55 106.65 65.99 135.60 87.99 164.87 C 79.70 172.99 71.84 181.52 63.71 189.79 C 62.53 190.67 63.55 192.03 63.94 193.03 C 71.64 208.54 83.66 221.80 98.23 231.17 C 97.59 231.89 96.92 232.57 96.20 233.22 C 82.30 244.05 68.12 254.52 53.91 264.93 C 37.28 251.31 23.78 233.85 14.59 214.41 C 6.17 197.23 1.72 178.37 0.00 159.38 L 0.00 141.57 C 1.67 118.73 8.04 96.20 19.37 76.25 Z" />
<path fill="#1d2226" opacity="1.00" d=" M 231.21 201.78 C 233.91 204.13 235.83 207.19 238.04 209.97 C 247.22 221.85 256.13 233.93 264.96 246.07 C 243.29 272.57 211.98 290.86 178.41 297.35 C 172.14 298.72 165.73 299.09 159.39 300.00 L 140.59 300.00 C 134.27 299.07 127.86 298.71 121.60 297.34 C 105.18 294.20 89.36 288.20 74.89 279.83 C 76.96 277.88 79.23 276.17 81.54 274.52 C 109.38 253.76 137.17 232.92 165.01 212.15 C 173.08 220.40 181.62 228.16 189.79 236.29 C 190.67 237.46 192.04 236.45 193.04 236.07 C 208.57 228.36 221.80 216.32 231.21 201.78 Z" />
</g>
</svg>
