<?xml version="1.0" encoding="UTF-8" ?>
<!DOCTYPE svg PUBLIC "-//W3C//DTD SVG 1.1//EN" "http://www.w3.org/Graphics/SVG/1.1/DTD/svg11.dtd">
<svg width="128pt" height="128pt" viewBox="0 0 128 128" version="1.1" xmlns="http://www.w3.org/2000/svg">
<g id="#2c91ccff">
<path fill="#2c91cc" opacity="1.00" d=" M 58.61 0.00 L 69.38 0.00 C 84.24 1.64 98.74 7.98 109.22 18.78 C 120.22 29.48 126.62 44.36 128.00 59.55 L 128.00 69.33 C 126.16 84.63 119.57 99.60 108.12 110.13 C 100.32 117.79 90.35 123.22 79.73 125.81 C 77.13 126.45 74.55 127.15 72.02 128.00 L 56.08 128.00 C 51.45 126.45 46.62 125.64 42.04 123.95 C 25.08 117.88 11.05 104.19 4.53 87.41 C 2.15 81.64 0.96 75.49 0.00 69.35 L 0.00 59.55 C 1.38 44.36 7.78 29.49 18.77 18.77 C 29.25 7.98 43.75 1.64 58.61 0.00 M 22.59 34.57 C 21.44 39.64 22.19 44.86 22.21 50.00 C 22.33 62.67 22.34 75.35 22.38 88.02 C 22.57 90.52 22.04 94.00 24.83 95.29 C 27.26 96.94 29.49 94.25 30.78 92.43 C 37.35 84.66 43.16 76.27 49.90 68.65 C 53.54 73.16 56.83 77.96 60.66 82.32 C 62.06 84.26 65.18 84.69 66.81 82.79 C 70.93 78.39 74.26 73.32 78.09 68.66 C 84.76 76.37 90.56 84.77 97.15 92.54 C 98.70 96.03 105.45 96.34 105.41 91.76 C 105.99 76.19 105.41 60.58 105.93 45.00 C 106.12 41.53 106.19 37.98 105.41 34.57 C 104.53 32.96 102.50 32.60 101.03 31.70 C 97.24 34.70 94.60 38.81 91.58 42.53 C 87.26 48.06 82.73 53.45 78.75 59.23 C 74.11 55.12 71.25 49.46 66.84 45.15 C 65.58 43.70 63.21 43.25 61.74 44.65 C 56.91 48.92 54.10 55.00 49.23 59.25 C 43.91 51.80 38.02 44.78 32.45 37.51 C 30.87 35.35 29.02 33.41 26.97 31.69 C 25.50 32.59 23.48 32.96 22.59 34.57 Z" />
<path fill="#2c91cc" opacity="1.00" d=" M 29.92 83.53 C 30.39 70.45 29.25 57.32 30.54 44.28 C 36.09 50.71 41.07 57.62 46.38 64.25 C 40.28 70.16 36.55 78.16 29.92 83.53 Z" />
<path fill="#2c91cc" opacity="1.00" d=" M 81.61 64.24 C 86.94 57.62 91.90 50.71 97.46 44.28 C 98.75 57.32 97.60 70.45 98.08 83.53 C 91.46 78.14 87.71 70.16 81.61 64.24 Z" />
<path fill="#2c91cc" opacity="1.00" d=" M 61.11 54.08 C 62.12 53.13 63.11 51.53 64.72 52.15 C 68.82 55.57 71.78 60.16 74.40 64.76 C 71.00 68.40 68.40 72.73 64.80 76.18 C 64.39 76.19 63.57 76.21 63.16 76.22 C 59.51 72.77 56.88 68.42 53.47 64.74 C 55.55 60.88 58.17 57.32 61.11 54.08 Z" />
</g>
<g id="#fefffeff">
<path fill="#fefffe" opacity="1.00" d=" M 22.59 34.57 C 23.48 32.96 25.50 32.59 26.97 31.69 C 29.02 33.41 30.87 35.35 32.45 37.51 C 38.02 44.78 43.91 51.80 49.23 59.25 C 50.57 61.14 51.97 62.98 53.47 64.74 C 56.88 68.42 59.51 72.77 63.16 76.22 C 63.57 76.21 64.39 76.19 64.80 76.18 C 68.40 72.73 71.00 68.40 74.40 64.76 C 75.92 62.98 77.39 61.15 78.75 59.23 C 82.73 53.45 87.26 48.06 91.58 42.53 C 94.60 38.81 97.24 34.70 101.03 31.70 C 102.50 32.60 104.53 32.96 105.41 34.57 C 106.19 37.98 106.12 41.53 105.93 45.00 C 105.41 60.58 105.99 76.19 105.41 91.76 C 105.45 96.34 98.70 96.03 97.15 92.54 C 97.87 89.59 98.26 86.57 98.08 83.53 C 97.60 70.45 98.75 57.32 97.46 44.28 C 91.90 50.71 86.94 57.62 81.61 64.24 C 80.43 65.71 79.25 67.18 78.09 68.66 C 74.26 73.32 70.93 78.39 66.81 82.79 C 65.18 84.69 62.06 84.26 60.66 82.32 C 56.83 77.96 53.54 73.16 49.90 68.65 C 48.73 67.17 47.56 65.71 46.38 64.25 C 41.07 57.62 36.09 50.71 30.54 44.28 C 29.25 57.32 30.39 70.45 29.92 83.53 C 29.76 86.52 30.12 89.51 30.78 92.43 C 29.49 94.25 27.26 96.94 24.83 95.29 C 22.04 94.00 22.57 90.52 22.38 88.02 C 22.34 75.35 22.33 62.67 22.21 50.00 C 22.19 44.86 21.44 39.64 22.59 34.57 Z" />
</g>
<g id="#d4e4f1ff">
<path fill="#d4e4f1" opacity="1.00" d=" M 61.74 44.65 C 63.21 43.25 65.58 43.70 66.84 45.15 C 71.25 49.46 74.11 55.12 78.75 59.23 C 77.39 61.15 75.92 62.98 74.40 64.76 C 71.78 60.16 68.82 55.57 64.72 52.15 C 63.11 51.53 62.12 53.13 61.11 54.08 C 58.17 57.32 55.55 60.88 53.47 64.74 C 51.97 62.98 50.57 61.14 49.23 59.25 C 54.10 55.00 56.91 48.92 61.74 44.65 Z" />
<path fill="#d4e4f1" opacity="1.00" d=" M 29.92 83.53 C 36.55 78.16 40.28 70.16 46.38 64.25 C 47.56 65.71 48.73 67.17 49.90 68.65 C 43.16 76.27 37.35 84.66 30.78 92.43 C 30.12 89.51 29.76 86.52 29.92 83.53 Z" />
<path fill="#d4e4f1" opacity="1.00" d=" M 78.09 68.66 C 79.25 67.18 80.43 65.71 81.61 64.24 C 87.71 70.16 91.46 78.14 98.08 83.53 C 98.26 86.57 97.87 89.59 97.15 92.54 C 90.56 84.77 84.76 76.37 78.09 68.66 Z" />
</g>
</svg>
