<?xml version="1.0" encoding="UTF-8" ?>
<!DOCTYPE svg PUBLIC "-//W3C//DTD SVG 1.1//EN" "http://www.w3.org/Graphics/SVG/1.1/DTD/svg11.dtd">
<svg width="256pt" height="256pt" viewBox="0 0 256 256" version="1.1" xmlns="http://www.w3.org/2000/svg">
<g id="#000000ff">
<path fill="#000000" opacity="1.00" d=" M 117.80 1.21 C 124.59 0.86 131.41 0.87 138.20 1.21 C 141.28 2.14 144.55 1.93 147.68 2.64 C 148.90 2.87 150.12 3.10 151.34 3.33 C 153.73 3.88 156.18 4.11 158.58 4.61 C 159.04 4.79 159.97 5.13 160.44 5.30 C 162.14 5.79 163.86 6.21 165.57 6.71 C 166.03 6.85 166.96 7.14 167.43 7.28 C 168.47 7.61 169.52 7.93 170.58 8.24 C 171.57 8.79 172.55 9.34 173.54 9.90 C 174.03 9.94 175.01 10.03 175.50 10.08 C 176.50 10.69 177.50 11.31 178.50 11.92 C 178.99 11.97 179.97 12.05 180.46 12.09 C 180.98 12.40 182.02 13.01 182.53 13.31 C 183.89 13.96 185.24 14.60 186.61 15.23 C 188.27 16.21 189.90 17.25 191.56 18.23 C 202.40 24.75 212.63 32.42 221.23 41.73 C 227.43 48.76 232.95 56.39 237.78 64.43 C 238.98 66.45 240.22 68.45 241.30 70.54 C 242.13 72.23 242.98 73.91 243.86 75.57 C 243.92 76.06 244.03 77.02 244.09 77.50 C 244.70 78.50 245.31 79.50 245.92 80.51 C 245.97 81.00 246.05 81.98 246.10 82.47 C 246.65 83.45 247.21 84.43 247.76 85.42 C 248.06 86.47 248.38 87.52 248.71 88.57 C 248.87 89.03 249.17 89.95 249.32 90.42 C 249.69 91.74 250.01 93.08 250.34 94.43 C 250.71 95.75 251.05 97.09 251.39 98.42 C 251.76 100.06 252.04 101.71 252.33 103.37 C 252.75 105.02 253.07 106.69 253.43 108.35 C 254.20 111.80 253.68 115.42 254.79 118.81 C 255.13 124.93 255.13 131.08 254.79 137.20 C 253.85 140.29 254.07 143.57 253.37 146.70 C 253.06 148.68 252.81 150.68 252.37 152.64 C 252.06 154.29 251.77 155.94 251.38 157.58 C 251.04 158.91 250.70 160.25 250.32 161.57 C 250.03 162.89 249.74 164.20 249.41 165.51 C 249.01 166.55 248.60 167.57 248.18 168.60 C 248.11 169.08 247.97 170.04 247.90 170.52 C 247.29 171.51 246.68 172.51 246.07 173.51 C 246.04 174.01 245.97 175.00 245.93 175.49 C 245.31 176.49 244.69 177.50 244.07 178.50 C 244.04 179.00 243.97 179.99 243.93 180.49 C 242.74 182.58 241.56 184.70 240.14 186.66 C 240.07 187.08 239.93 187.93 239.87 188.35 C 238.93 189.68 238.05 191.04 237.23 192.45 C 230.19 203.97 221.87 214.85 211.54 223.61 C 205.20 228.79 198.61 233.68 191.50 237.74 C 190.44 238.43 189.41 239.15 188.39 239.89 C 187.95 239.95 187.09 240.07 186.66 240.14 C 184.70 241.56 182.59 242.74 180.49 243.93 C 179.99 243.97 179.00 244.04 178.50 244.07 C 177.50 244.69 176.50 245.30 175.50 245.92 C 175.01 245.97 174.03 246.05 173.54 246.10 C 172.55 246.65 171.57 247.21 170.58 247.76 C 169.53 248.06 168.47 248.38 167.43 248.72 C 166.97 248.87 166.04 249.17 165.58 249.32 C 164.25 249.69 162.91 250.02 161.57 250.35 C 160.24 250.71 158.91 251.04 157.58 251.39 C 155.94 251.76 154.28 252.05 152.63 252.35 C 150.18 252.89 147.68 253.12 145.25 253.76 C 143.10 253.94 140.93 254.06 138.78 254.26 C 135.31 255.38 131.63 254.94 128.05 255.03 C 124.43 254.93 120.70 255.40 117.19 254.25 C 114.23 254.01 111.21 254.09 108.30 253.35 C 107.09 253.13 105.87 252.92 104.66 252.72 C 102.57 252.18 100.45 251.82 98.37 251.29 C 97.44 251.10 96.52 250.92 95.59 250.74 C 93.88 250.22 92.15 249.79 90.44 249.28 C 89.97 249.14 89.04 248.86 88.57 248.72 C 87.53 248.38 86.47 248.06 85.42 247.76 C 84.43 247.21 83.44 246.65 82.46 246.10 C 81.97 246.05 80.99 245.97 80.50 245.92 C 79.50 245.31 78.50 244.70 77.51 244.09 C 77.02 244.03 76.05 243.92 75.56 243.87 C 75.02 243.60 73.92 243.07 73.38 242.81 C 72.01 241.95 70.68 241.06 69.37 240.12 C 68.94 240.05 68.08 239.93 67.65 239.87 C 66.32 238.93 64.96 238.05 63.56 237.24 C 53.25 230.94 43.47 223.62 35.23 214.75 C 29.01 207.89 23.62 200.32 18.73 192.47 C 17.40 190.12 15.93 187.86 14.70 185.46 C 13.87 183.77 13.02 182.09 12.13 180.43 C 12.08 179.94 11.97 178.98 11.91 178.50 C 11.30 177.49 10.69 176.49 10.08 175.50 C 10.03 175.01 9.94 174.03 9.90 173.54 C 9.34 172.55 8.79 171.57 8.24 170.58 C 7.93 169.52 7.61 168.47 7.28 167.43 C 7.14 166.96 6.85 166.03 6.71 165.56 C 6.21 163.86 5.79 162.14 5.30 160.44 C 5.13 159.98 4.78 159.05 4.61 158.58 C 4.11 156.18 3.88 153.73 3.33 151.33 C 3.10 150.11 2.87 148.90 2.64 147.69 C 1.92 144.78 1.99 141.77 1.75 138.81 C 0.23 131.95 1.15 124.77 1.21 117.80 C 2.15 114.71 1.93 111.44 2.64 108.32 C 2.87 107.10 3.09 105.88 3.33 104.66 C 3.88 102.27 4.11 99.82 4.61 97.42 C 4.79 96.96 5.14 96.03 5.32 95.57 C 5.79 93.87 6.18 92.16 6.63 90.47 C 7.01 89.44 7.41 88.42 7.81 87.40 C 7.88 86.92 8.03 85.96 8.10 85.48 C 8.71 84.48 9.32 83.48 9.93 82.49 C 9.96 81.99 10.03 81.00 10.07 80.51 C 10.69 79.50 11.31 78.50 11.93 77.50 C 11.97 77.01 12.05 76.03 12.09 75.54 C 12.66 74.55 13.22 73.57 13.78 72.59 C 14.00 72.07 14.44 71.05 14.66 70.53 C 15.93 68.17 17.38 65.92 18.69 63.58 C 22.57 56.76 27.53 50.61 32.39 44.46 C 40.83 34.39 51.46 26.49 62.36 19.26 C 65.47 17.76 68.33 15.79 71.43 14.25 C 72.82 13.57 74.20 12.86 75.58 12.14 C 76.06 12.08 77.02 11.97 77.50 11.91 C 78.50 11.30 79.50 10.69 80.50 10.08 C 80.99 10.04 81.97 9.95 82.46 9.90 C 83.44 9.34 84.43 8.79 85.42 8.24 C 86.47 7.93 87.53 7.61 88.57 7.28 C 89.04 7.14 89.97 6.85 90.44 6.71 C 92.13 6.21 93.86 5.79 95.56 5.30 C 96.02 5.13 96.95 4.79 97.42 4.61 C 99.82 4.11 102.27 3.88 104.66 3.33 C 105.88 3.09 107.10 2.87 108.32 2.64 C 111.44 1.93 114.71 2.15 117.80 1.21 M 122.80 6.20 C 118.77 7.65 114.38 6.46 110.29 7.62 C 108.31 7.94 106.32 8.19 104.36 8.63 C 102.71 8.94 101.06 9.23 99.42 9.61 C 98.08 9.96 96.74 10.31 95.41 10.71 C 94.94 10.84 94.01 11.11 93.55 11.24 C 92.20 11.74 90.84 12.20 89.49 12.69 C 88.46 13.04 87.43 13.41 86.40 13.79 C 85.92 13.87 84.96 14.03 84.48 14.11 C 83.48 14.71 82.49 15.31 81.49 15.92 C 81.00 15.96 80.02 16.05 79.53 16.10 C 79.02 16.40 77.98 17.00 77.46 17.30 C 76.12 17.95 74.78 18.61 73.43 19.25 C 69.20 21.17 65.35 23.76 61.43 26.23 C 47.41 35.32 35.32 47.41 26.23 61.43 C 23.77 65.35 21.16 69.19 19.27 73.44 C 18.26 75.50 17.23 77.54 16.14 79.56 C 16.08 80.04 15.95 81.00 15.89 81.47 C 15.33 82.46 14.78 83.44 14.23 84.42 C 13.95 85.46 13.65 86.49 13.35 87.52 C 13.02 88.52 12.68 89.53 12.33 90.53 C 11.98 91.54 11.62 92.55 11.25 93.56 C 11.11 94.03 10.84 94.95 10.71 95.41 C 10.31 96.74 9.96 98.08 9.60 99.42 C 9.23 101.06 8.95 102.72 8.65 104.37 C 8.11 106.83 7.88 109.34 7.20 111.77 C 7.00 114.91 7.01 118.06 6.79 121.20 C 5.54 125.58 5.55 130.41 6.78 134.80 C 6.98 137.60 7.02 140.41 7.22 143.22 C 8.00 145.97 8.04 148.84 8.62 151.63 C 8.94 153.28 9.23 154.94 9.63 156.58 C 9.95 157.89 10.27 159.21 10.63 160.53 C 10.97 161.53 11.32 162.52 11.67 163.52 C 12.02 164.54 12.38 165.56 12.76 166.57 C 12.89 167.03 13.14 167.96 13.27 168.43 C 13.61 169.47 13.93 170.52 14.24 171.58 C 14.79 172.56 15.34 173.55 15.89 174.53 C 15.95 175.02 16.05 175.98 16.11 176.47 C 16.40 176.99 16.99 178.03 17.29 178.55 C 18.10 180.18 18.91 181.81 19.74 183.44 C 19.97 183.95 20.43 184.97 20.65 185.47 C 22.31 188.63 24.41 191.51 26.22 194.57 C 35.32 208.59 47.41 220.68 61.43 229.77 C 65.93 232.72 70.53 235.50 75.44 237.73 C 75.95 237.97 76.96 238.45 77.46 238.69 C 77.98 239.00 79.01 239.60 79.53 239.90 C 80.02 239.95 80.99 240.05 81.47 240.10 C 82.45 240.66 83.43 241.22 84.42 241.78 C 85.46 242.05 86.49 242.33 87.52 242.63 C 88.54 243.00 89.56 243.38 90.57 243.77 C 91.04 243.90 91.97 244.15 92.43 244.28 C 94.13 244.78 95.86 245.21 97.56 245.71 C 98.03 245.87 98.95 246.17 99.41 246.33 C 101.50 246.84 103.62 247.19 105.70 247.73 C 108.09 247.96 110.51 248.05 112.81 248.80 C 116.46 249.13 120.26 248.57 123.79 249.80 C 127.12 250.04 130.60 250.40 133.81 249.21 C 136.94 248.99 140.08 249.00 143.22 248.79 C 145.96 247.99 148.84 247.96 151.63 247.39 C 153.29 247.06 154.95 246.76 156.59 246.36 C 157.05 246.20 157.98 245.87 158.44 245.71 C 160.14 245.20 161.87 244.78 163.57 244.28 C 164.04 244.15 164.97 243.90 165.43 243.77 C 166.44 243.38 167.45 243.00 168.47 242.63 C 169.50 242.33 170.54 242.05 171.58 241.78 C 172.56 241.22 173.54 240.66 174.53 240.10 C 175.01 240.05 175.98 239.95 176.47 239.90 C 176.98 239.60 178.02 239.00 178.54 238.70 C 180.18 237.90 181.82 237.11 183.47 236.32 C 185.55 235.22 187.55 233.98 189.56 232.75 C 191.25 231.79 192.90 230.75 194.59 229.80 C 201.08 225.72 206.87 220.70 212.44 215.48 C 213.41 214.42 214.42 213.41 215.48 212.44 C 220.70 206.87 225.73 201.08 229.80 194.59 C 230.76 192.90 231.79 191.25 232.75 189.56 C 233.98 187.54 235.23 185.54 236.34 183.46 C 236.57 182.96 237.04 181.95 237.27 181.44 C 237.52 180.93 238.00 179.92 238.24 179.41 C 238.79 178.43 239.34 177.44 239.90 176.46 C 239.95 175.97 240.04 174.99 240.08 174.50 C 240.69 173.51 241.29 172.51 241.90 171.51 C 241.97 171.03 242.10 170.06 242.17 169.57 C 242.72 168.20 243.24 166.82 243.80 165.46 C 243.92 164.99 244.15 164.05 244.27 163.58 C 244.78 161.87 245.21 160.14 245.71 158.44 C 245.87 157.97 246.18 157.05 246.33 156.58 C 246.84 154.50 247.19 152.37 247.73 150.30 C 247.96 147.91 248.05 145.48 248.80 143.19 C 249.13 139.53 248.56 135.73 249.81 132.20 C 250.03 129.40 250.03 126.60 249.81 123.81 C 248.55 120.27 249.13 116.46 248.80 112.80 C 247.99 110.05 247.96 107.16 247.39 104.37 C 247.06 102.71 246.76 101.05 246.36 99.41 C 246.20 98.95 245.87 98.02 245.71 97.56 C 245.21 95.86 244.78 94.13 244.28 92.43 C 244.15 91.97 243.90 91.04 243.77 90.57 C 243.38 89.56 243.00 88.55 242.63 87.53 C 242.33 86.50 242.05 85.46 241.78 84.42 C 241.22 83.44 240.66 82.45 240.10 81.47 C 240.05 80.99 239.95 80.02 239.90 79.53 C 239.34 78.55 238.79 77.57 238.24 76.59 C 237.42 74.86 236.58 73.14 235.77 71.41 C 234.06 67.92 231.78 64.75 229.77 61.43 C 220.68 47.41 208.59 35.32 194.57 26.23 C 190.65 23.76 186.80 21.17 182.57 19.24 C 181.51 18.75 180.46 18.26 179.41 17.77 C 178.43 17.22 177.45 16.66 176.47 16.10 C 175.99 16.05 175.02 15.95 174.53 15.89 C 173.55 15.34 172.57 14.79 171.58 14.24 C 170.52 13.93 169.47 13.61 168.42 13.27 C 167.96 13.14 167.03 12.89 166.57 12.76 C 165.55 12.38 164.54 12.02 163.52 11.67 C 162.53 11.32 161.53 10.97 160.53 10.63 C 159.22 10.27 157.90 9.95 156.58 9.62 C 154.94 9.23 153.29 8.94 151.64 8.63 C 149.68 8.19 147.69 7.94 145.71 7.63 C 141.62 6.46 137.23 7.65 133.20 6.20 C 129.74 5.91 126.26 5.91 122.80 6.20 Z" />
<path fill="#000000" opacity="1.00" d=" M 123.19 14.79 C 125.74 13.77 128.52 13.96 131.20 14.17 C 134.72 15.47 138.54 14.85 142.20 15.20 C 144.93 16.00 147.79 16.04 150.56 16.57 C 151.90 16.93 153.24 17.28 154.57 17.66 C 155.91 17.99 157.25 18.31 158.58 18.68 C 159.05 18.83 159.97 19.13 160.44 19.28 C 162.15 19.79 163.88 20.22 165.59 20.74 C 166.06 20.84 167.01 21.05 167.49 21.15 C 169.17 22.07 170.86 22.96 172.54 23.88 C 173.03 23.94 173.99 24.05 174.47 24.11 C 174.99 24.40 176.02 25.00 176.54 25.30 C 178.18 26.10 179.82 26.89 181.47 27.68 C 196.35 36.03 209.86 47.13 219.76 61.13 C 223.50 66.79 227.60 72.28 230.26 78.59 C 230.80 79.57 231.34 80.55 231.90 81.54 C 231.94 82.03 232.03 83.01 232.08 83.50 C 232.69 84.50 233.31 85.50 233.92 86.50 C 233.97 87.00 234.05 87.98 234.09 88.47 C 234.65 89.45 235.21 90.43 235.77 91.41 C 236.03 92.81 236.30 94.20 236.63 95.58 C 236.80 96.04 237.16 96.96 237.34 97.42 C 237.69 98.75 238.01 100.09 238.33 101.43 C 238.72 102.76 239.07 104.09 239.44 105.43 C 239.88 107.68 240.05 109.97 240.32 112.25 C 241.48 116.46 240.80 120.87 241.17 125.17 C 242.10 127.00 242.12 129.00 241.18 130.82 C 240.94 134.61 241.07 138.42 240.80 142.21 C 239.99 144.93 239.96 147.79 239.43 150.57 C 239.07 151.90 238.72 153.24 238.33 154.57 C 238.01 155.91 237.69 157.25 237.34 158.58 C 237.16 159.04 236.80 159.96 236.63 160.42 C 236.29 161.80 236.03 163.19 235.77 164.59 C 235.21 165.57 234.65 166.55 234.09 167.54 C 234.05 168.03 233.97 169.01 233.92 169.50 C 233.31 170.49 232.70 171.49 232.09 172.49 C 232.03 172.98 231.93 173.95 231.87 174.43 C 231.13 175.79 230.42 177.17 229.72 178.56 C 218.76 200.53 200.50 218.72 178.57 229.75 C 178.06 229.98 177.04 230.45 176.53 230.69 C 176.02 230.99 174.98 231.60 174.46 231.91 C 173.97 231.95 172.99 232.03 172.50 232.08 C 171.50 232.69 170.50 233.31 169.50 233.93 C 169.01 233.97 168.02 234.05 167.53 234.09 C 166.55 234.65 165.57 235.21 164.59 235.77 C 163.19 236.03 161.79 236.30 160.41 236.64 C 159.95 236.80 159.02 237.13 158.56 237.30 C 156.85 237.79 155.12 238.21 153.41 238.72 C 152.48 238.93 151.56 239.14 150.63 239.36 C 147.85 239.96 144.96 240.00 142.21 240.80 C 138.42 241.07 134.61 240.94 130.82 241.18 C 129.00 242.10 126.99 242.13 125.17 241.17 C 120.87 240.80 116.46 241.48 112.25 240.32 C 109.97 240.05 107.68 239.88 105.43 239.44 C 104.09 239.07 102.76 238.72 101.43 238.33 C 100.09 238.01 98.75 237.69 97.42 237.34 C 96.96 237.16 96.04 236.81 95.58 236.63 C 94.20 236.30 92.80 236.03 91.41 235.77 C 90.43 235.21 89.44 234.65 88.47 234.09 C 87.98 234.05 87.00 233.97 86.51 233.92 C 85.50 233.31 84.50 232.70 83.50 232.09 C 83.02 232.03 82.05 231.92 81.57 231.87 C 69.18 225.82 57.34 218.21 47.73 208.25 C 39.37 200.30 32.88 190.58 27.23 180.58 C 26.60 179.23 25.95 177.88 25.31 176.54 C 25.01 176.02 24.40 174.99 24.10 174.47 C 24.05 173.99 23.94 173.02 23.89 172.53 C 23.34 171.55 22.79 170.56 22.25 169.56 C 21.98 169.04 21.43 168.00 21.16 167.48 C 21.05 167.00 20.84 166.06 20.74 165.58 C 20.22 163.88 19.79 162.15 19.28 160.44 C 19.13 159.97 18.83 159.05 18.68 158.59 C 18.31 157.25 17.99 155.91 17.66 154.57 C 17.28 153.24 16.93 151.90 16.57 150.57 C 16.04 147.79 16.01 144.93 15.20 142.20 C 14.77 138.20 15.59 134.01 14.15 130.16 C 14.09 128.38 14.09 126.61 14.16 124.84 C 15.48 121.31 14.85 117.48 15.20 113.80 C 16.01 111.08 16.04 108.21 16.56 105.44 C 16.94 104.08 17.32 102.72 17.75 101.38 C 17.92 100.45 18.09 99.53 18.26 98.60 C 18.77 96.90 19.18 95.17 19.65 93.46 C 20.02 92.44 20.40 91.42 20.80 90.41 C 20.88 89.93 21.05 88.99 21.14 88.52 C 22.06 86.84 22.95 85.14 23.88 83.46 C 23.94 82.99 24.08 82.04 24.14 81.56 C 25.39 79.25 26.56 76.90 27.70 74.54 C 28.94 72.14 30.40 69.88 31.71 67.53 C 33.66 64.28 36.01 61.32 38.26 58.28 C 42.48 52.26 48.18 47.52 53.26 42.26 C 58.08 38.29 63.05 34.42 68.43 31.21 C 70.73 29.83 73.03 28.46 75.42 27.23 C 76.77 26.60 78.11 25.96 79.46 25.31 C 79.98 25.01 81.01 24.40 81.53 24.10 C 82.01 24.05 82.98 23.94 83.46 23.89 C 83.98 23.60 85.04 23.02 85.56 22.74 C 86.55 22.21 87.54 21.67 88.52 21.13 C 89.00 21.05 89.94 20.89 90.41 20.81 C 91.43 20.40 92.45 19.99 93.47 19.60 C 94.78 19.26 96.10 18.96 97.42 18.66 C 98.75 18.30 100.09 17.98 101.43 17.67 C 102.76 17.28 104.10 16.93 105.43 16.57 C 108.21 16.04 111.06 16.00 113.79 15.21 C 116.92 14.99 120.06 15.01 123.19 14.79 M 66.00 83.00 C 66.00 83.71 66.00 85.13 66.00 85.83 C 66.58 85.96 67.75 86.22 68.33 86.34 C 70.05 86.74 71.81 86.98 73.56 87.21 C 76.44 88.72 79.39 90.23 81.86 92.38 C 82.09 114.66 82.11 136.97 81.84 159.26 C 81.20 161.36 80.83 163.52 80.25 165.64 C 80.18 166.14 80.03 167.14 79.95 167.64 C 77.48 171.75 73.81 174.97 69.45 176.96 C 68.30 176.98 67.15 177.00 66.00 177.03 C 66.00 178.35 66.00 179.67 66.00 181.00 C 77.67 181.00 89.33 181.00 101.00 181.00 C 101.00 179.79 101.00 178.58 101.00 177.38 C 100.36 177.07 99.07 176.44 98.42 176.13 C 97.93 176.08 96.95 175.99 96.46 175.94 C 92.37 173.88 89.12 170.69 87.11 166.57 C 87.00 166.08 86.78 165.11 86.68 164.63 C 86.12 162.17 85.88 159.66 85.19 157.23 C 84.75 137.49 85.12 117.72 85.00 97.97 L 85.63 98.01 C 85.93 98.65 86.55 99.93 86.85 100.56 C 86.92 101.04 87.05 102.00 87.12 102.47 C 87.41 102.99 88.00 104.03 88.29 104.55 C 88.77 105.52 89.25 106.49 89.73 107.46 C 90.06 108.51 90.40 109.55 90.77 110.59 C 90.86 111.07 91.05 112.01 91.15 112.48 C 91.68 113.47 92.21 114.45 92.74 115.44 C 93.03 115.97 93.60 117.02 93.89 117.54 C 93.94 118.03 94.03 119.01 94.08 119.50 C 94.69 120.50 95.31 121.50 95.93 122.51 C 95.97 123.00 96.03 123.99 96.07 124.49 C 96.69 125.49 97.30 126.49 97.92 127.50 C 97.97 127.99 98.06 128.97 98.10 129.45 C 98.65 130.45 99.20 131.44 99.74 132.44 C 100.03 132.96 100.60 134.02 100.89 134.55 C 100.94 135.03 101.03 136.01 101.08 136.50 C 101.69 137.50 102.31 138.50 102.92 139.50 C 102.97 139.99 103.06 140.97 103.11 141.45 C 104.05 143.14 104.95 144.86 105.89 146.55 C 105.94 147.04 106.03 148.01 106.08 148.50 C 106.69 149.50 107.31 150.50 107.93 151.51 C 107.97 152.00 108.03 153.00 108.07 153.49 C 108.69 154.49 109.30 155.49 109.92 156.50 C 109.97 156.99 110.06 157.97 110.10 158.46 C 110.65 159.44 111.20 160.44 111.75 161.43 C 112.02 161.96 112.57 163.00 112.85 163.53 C 112.94 164.00 113.14 164.94 113.23 165.41 C 113.59 166.45 113.94 167.49 114.27 168.54 C 114.75 169.51 115.23 170.48 115.71 171.46 C 116.01 171.98 116.61 173.02 116.90 173.54 C 116.95 174.03 117.03 175.01 117.07 175.50 C 117.70 176.51 118.32 177.51 118.95 178.52 C 118.97 179.14 119.01 180.38 119.03 181.00 C 120.56 181.00 122.09 181.00 123.63 181.00 C 124.30 179.49 124.99 178.00 125.70 176.51 C 126.04 175.47 126.41 174.43 126.78 173.40 C 126.87 172.93 127.04 171.98 127.13 171.51 C 127.68 170.53 128.22 169.56 128.76 168.58 C 129.00 168.06 129.47 167.03 129.71 166.51 C 130.05 165.47 130.40 164.44 130.77 163.41 C 130.87 162.94 131.05 161.99 131.14 161.52 C 132.06 159.85 132.94 158.16 133.85 156.48 C 133.95 156.01 134.14 155.07 134.23 154.59 C 134.59 153.55 134.94 152.51 135.27 151.46 C 135.75 150.49 136.23 149.51 136.71 148.54 C 137.01 148.02 137.60 146.98 137.90 146.46 C 137.95 145.97 138.03 144.99 138.08 144.50 C 138.69 143.50 139.31 142.50 139.93 141.50 C 139.96 141.00 140.03 140.00 140.07 139.51 C 140.69 138.50 141.31 137.50 141.93 136.49 C 141.97 136.00 142.03 135.00 142.07 134.51 C 142.69 133.50 143.31 132.50 143.93 131.49 C 143.97 131.00 144.03 130.00 144.07 129.51 C 144.69 128.50 145.31 127.49 145.93 126.49 C 145.97 125.99 146.03 125.00 146.07 124.51 C 146.69 123.50 147.31 122.50 147.93 121.49 C 147.97 121.00 148.03 120.00 148.07 119.51 C 148.69 118.50 149.31 117.50 149.93 116.49 C 149.97 116.00 150.03 115.00 150.07 114.51 C 150.69 113.50 151.31 112.50 151.93 111.49 C 151.97 111.00 152.03 110.00 152.07 109.51 C 152.69 108.50 153.31 107.50 153.93 106.49 C 153.97 106.00 154.03 105.01 154.07 104.51 C 154.68 103.51 155.30 102.51 155.91 101.51 C 155.97 101.03 156.08 100.06 156.14 99.58 C 156.45 98.94 157.06 97.65 157.37 97.01 L 158.00 96.97 C 158.03 121.88 157.95 146.79 158.04 171.70 C 156.86 173.36 155.42 174.82 153.72 175.96 C 153.21 176.07 152.19 176.27 151.68 176.37 C 149.49 176.89 147.24 177.02 145.00 177.17 C 145.00 178.44 145.00 179.72 145.00 181.00 C 159.67 181.00 174.33 181.00 189.00 181.00 C 189.00 179.72 189.00 178.44 189.00 177.17 C 186.75 177.02 184.50 176.89 182.30 176.37 C 181.79 176.26 180.76 176.04 180.25 175.93 C 178.73 174.24 177.29 172.48 175.99 170.62 C 176.00 144.53 176.02 118.45 175.98 92.37 C 177.33 90.18 179.15 88.35 181.35 87.00 C 183.46 87.01 185.59 87.11 187.70 86.89 C 188.74 85.87 188.99 84.39 189.47 83.08 C 179.45 82.90 169.43 83.05 159.41 83.00 C 158.69 84.54 157.94 86.07 157.16 87.58 C 157.09 88.05 156.93 88.98 156.85 89.45 C 155.96 91.11 155.11 92.78 154.26 94.45 C 153.93 95.50 153.59 96.55 153.24 97.60 C 153.14 98.07 152.95 99.01 152.86 99.49 C 151.93 101.17 151.04 102.87 150.11 104.55 C 150.06 105.04 149.97 106.02 149.92 106.50 C 149.30 107.51 148.68 108.51 148.07 109.51 C 148.03 110.01 147.97 111.00 147.93 111.50 C 147.31 112.50 146.69 113.50 146.07 114.51 C 146.03 115.00 145.97 116.00 145.93 116.49 C 145.31 117.49 144.69 118.49 144.08 119.50 C 144.03 119.98 143.94 120.96 143.89 121.45 C 143.60 121.98 143.03 123.03 142.74 123.56 C 142.20 124.56 141.65 125.55 141.10 126.55 C 141.06 127.03 140.97 128.01 140.92 128.50 C 140.30 129.50 139.69 130.50 139.07 131.51 C 139.03 132.00 138.97 133.00 138.93 133.49 C 138.31 134.49 137.69 135.50 137.08 136.50 C 137.03 136.99 136.94 137.97 136.90 138.46 C 136.34 139.45 135.80 140.44 135.26 141.44 C 134.97 141.97 134.40 143.02 134.11 143.55 C 134.06 144.04 133.97 145.01 133.92 145.50 C 133.30 146.50 132.68 147.50 132.07 148.51 C 132.04 149.00 131.97 150.00 131.94 150.49 C 131.31 151.50 130.68 152.50 130.05 153.51 C 130.03 154.14 129.98 155.38 129.96 156.01 C 129.57 156.01 128.80 156.00 128.42 156.00 C 127.69 154.45 126.93 152.92 126.15 151.41 C 126.09 150.93 125.97 149.97 125.91 149.49 C 125.30 148.49 124.68 147.49 124.07 146.49 C 124.04 146.00 123.97 145.01 123.93 144.51 C 123.31 143.51 122.70 142.50 122.08 141.50 C 122.03 141.01 121.94 140.03 121.89 139.54 C 120.95 137.85 120.05 136.14 119.11 134.45 C 119.06 133.96 118.97 132.99 118.92 132.50 C 118.31 131.50 117.69 130.50 117.08 129.50 C 117.03 129.01 116.94 128.04 116.89 127.55 C 115.95 125.86 115.05 124.15 114.12 122.46 C 114.06 121.98 113.94 121.02 113.88 120.54 C 112.95 118.86 112.06 117.16 111.14 115.48 C 111.05 115.01 110.86 114.07 110.77 113.59 C 110.41 112.55 110.06 111.51 109.72 110.46 C 108.91 108.83 108.10 107.18 107.29 105.54 C 106.99 105.02 106.40 103.98 106.10 103.46 C 106.05 102.97 105.97 101.99 105.92 101.50 C 105.30 100.49 104.69 99.49 104.07 98.49 C 104.03 98.00 103.97 97.00 103.93 96.51 C 103.31 95.50 102.69 94.50 102.07 93.50 C 102.03 93.01 101.95 92.02 101.91 91.53 C 101.60 91.01 100.98 89.98 100.67 89.46 C 100.25 88.48 99.83 87.50 99.42 86.52 C 98.94 85.34 98.56 84.09 97.72 83.11 C 87.15 82.81 76.57 83.10 66.00 83.00 Z" />
<path fill="#000000" opacity="1.00" d=" M 76.97 85.70 C 78.55 86.01 80.14 86.32 81.70 86.75 C 82.69 86.85 83.68 86.95 84.68 87.05 C 88.09 88.87 89.97 92.31 91.94 95.47 C 91.98 95.97 92.06 96.96 92.10 97.45 C 93.05 99.14 93.95 100.85 94.89 102.55 C 94.94 103.03 95.03 104.01 95.08 104.50 C 95.69 105.50 96.31 106.51 96.93 107.51 C 96.97 108.01 97.03 109.00 97.07 109.49 C 97.69 110.49 98.30 111.50 98.92 112.50 C 98.97 112.99 99.06 113.97 99.10 114.45 C 99.65 115.45 100.20 116.44 100.74 117.44 C 101.03 117.97 101.60 119.02 101.89 119.55 C 101.94 120.04 102.03 121.01 102.08 121.50 C 102.70 122.50 103.31 123.51 103.93 124.51 C 103.97 125.00 104.03 126.00 104.07 126.49 C 104.69 127.49 105.30 128.50 105.92 129.50 C 105.97 129.99 106.06 130.97 106.11 131.45 C 107.05 133.14 107.95 134.85 108.89 136.55 C 108.94 137.03 109.03 138.01 109.08 138.50 C 109.69 139.50 110.30 140.50 110.92 141.50 C 110.97 141.99 111.06 142.97 111.11 143.45 C 111.40 143.98 111.97 145.03 112.26 145.56 C 112.80 146.56 113.34 147.55 113.90 148.54 C 113.94 149.03 114.03 150.01 114.08 150.50 C 114.69 151.50 115.31 152.50 115.93 153.51 C 115.97 154.00 116.04 155.00 116.07 155.49 C 116.69 156.49 117.30 157.50 117.92 158.50 C 117.97 158.99 118.06 159.97 118.10 160.46 C 118.40 160.98 118.98 162.03 119.27 162.55 C 119.78 163.54 120.29 164.52 120.81 165.51 C 120.96 165.97 121.28 166.91 121.44 167.37 C 122.08 170.21 122.03 173.12 122.06 176.01 C 121.64 176.01 120.79 176.00 120.37 176.00 C 120.06 175.36 119.46 174.07 119.15 173.43 C 119.08 172.96 118.94 172.01 118.88 171.53 C 117.94 169.84 117.04 168.14 116.11 166.45 C 116.06 165.97 115.97 164.99 115.92 164.50 C 115.30 163.50 114.69 162.50 114.08 161.50 C 114.03 161.01 113.94 160.03 113.90 159.54 C 113.34 158.55 112.80 157.56 112.26 156.56 C 111.97 156.04 111.40 154.99 111.12 154.46 C 111.06 153.98 110.94 153.01 110.88 152.53 C 109.94 150.84 109.04 149.14 108.11 147.45 C 108.06 146.96 107.97 145.99 107.92 145.50 C 107.30 144.50 106.69 143.50 106.08 142.50 C 106.03 142.01 105.94 141.04 105.89 140.55 C 104.95 138.86 104.05 137.15 103.12 135.47 C 103.06 134.99 102.94 134.02 102.88 133.54 C 102.60 133.02 102.03 131.96 101.74 131.43 C 101.20 130.44 100.65 129.44 100.10 128.45 C 100.06 127.97 99.97 126.99 99.92 126.50 C 99.31 125.50 98.69 124.50 98.08 123.50 C 98.03 123.01 97.94 122.03 97.89 121.55 C 96.95 119.86 96.05 118.15 95.12 116.46 C 95.06 115.98 94.94 115.02 94.88 114.54 C 93.95 112.85 93.05 111.14 92.11 109.45 C 92.06 108.97 91.97 107.99 91.92 107.50 C 91.31 106.50 90.69 105.50 90.08 104.50 C 90.03 104.01 89.94 103.03 89.90 102.55 C 89.34 101.55 88.80 100.56 88.26 99.56 C 87.97 99.03 87.39 97.98 87.11 97.45 C 87.06 96.98 86.98 96.03 86.94 95.56 C 84.37 91.83 81.49 88.02 77.00 86.51 L 76.97 85.70 Z" />
<path fill="#000000" opacity="1.00" d=" M 160.97 90.35 C 162.18 88.29 163.80 86.55 166.40 86.59 C 166.01 87.98 165.59 89.37 165.13 90.74 C 164.82 118.01 165.09 145.28 165.00 172.56 C 163.95 174.07 162.87 175.57 161.76 177.04 C 160.03 177.02 158.30 177.00 156.58 176.99 C 157.68 175.85 158.79 174.71 159.91 173.58 C 160.04 172.63 160.17 171.68 160.32 170.73 C 160.86 168.86 161.03 166.91 161.03 164.98 C 160.95 140.10 161.05 115.23 160.97 90.35 Z" />
<path fill="#000000" opacity="1.00" d=" M 74.42 177.00 C 77.89 174.83 80.43 171.67 82.85 168.44 C 82.91 169.18 83.03 170.66 83.09 171.40 C 84.35 172.86 85.56 174.36 86.64 175.96 C 86.98 175.99 87.66 176.04 88.00 176.06 L 88.01 177.00 C 83.48 176.99 78.95 177.02 74.42 177.00 Z" />
</g>
</svg>
