<?xml version="1.0" encoding="UTF-8" ?>
<!DOCTYPE svg PUBLIC "-//W3C//DTD SVG 1.1//EN" "http://www.w3.org/Graphics/SVG/1.1/DTD/svg11.dtd">
<svg width="300pt" height="300pt" viewBox="0 0 300 300" version="1.1" xmlns="http://www.w3.org/2000/svg">
<g id="#2f2f2fff">
<path fill="#2f2f2f" opacity="1.00" d=" M 0.00 0.00 L 300.00 0.00 L 300.00 300.00 L 0.00 300.00 L 0.00 0.00 M 70.42 68.45 C 69.20 69.17 67.96 69.88 66.89 70.81 C 66.34 72.11 66.55 73.57 66.48 74.94 C 66.53 105.19 66.36 135.45 66.41 165.70 C 94.15 181.64 121.92 197.52 149.84 213.13 C 176.96 197.49 204.12 181.92 231.21 166.24 C 232.60 165.73 232.84 164.28 232.77 162.98 C 232.82 140.99 232.85 119.00 232.90 97.00 C 233.12 88.03 233.26 79.04 232.96 70.07 C 205.41 53.85 177.51 38.21 149.86 22.15 C 123.28 37.41 96.96 53.11 70.42 68.45 M 126.33 230.09 C 123.04 231.86 126.10 237.54 129.42 235.50 C 133.10 233.64 129.76 227.71 126.33 230.09 M 70.62 239.75 C 67.57 240.52 64.93 243.63 65.65 246.87 C 66.30 249.24 68.70 250.15 70.74 251.02 C 68.25 252.17 65.31 253.50 64.66 256.47 C 63.18 260.27 65.99 264.38 69.83 265.14 C 76.06 266.69 84.05 266.30 88.37 260.89 C 89.51 258.93 87.61 257.48 85.92 256.97 C 84.83 258.91 84.36 261.24 82.86 262.91 C 79.53 264.63 75.24 264.83 71.92 263.00 C 68.84 261.23 68.42 256.29 70.98 253.93 C 74.16 251.90 78.33 252.54 81.51 250.43 C 78.35 249.93 74.85 250.70 71.98 249.00 C 68.63 246.13 71.67 239.94 76.02 240.63 C 79.92 239.83 81.63 243.63 83.20 246.38 C 84.03 245.65 86.20 245.45 85.81 243.97 C 85.84 241.82 83.56 240.82 81.88 240.10 C 78.30 238.85 74.29 238.83 70.62 239.75 M 209.48 245.08 C 210.25 246.52 211.34 246.88 212.73 246.13 C 213.73 244.55 214.31 242.73 215.44 241.24 C 217.33 240.17 219.75 240.50 221.81 240.87 C 224.80 241.99 224.47 245.47 224.67 248.06 C 219.83 250.20 214.57 251.92 210.65 255.62 C 208.15 258.01 208.20 262.73 211.52 264.38 C 215.93 266.50 220.51 263.64 224.17 261.29 C 225.46 263.68 227.81 266.08 230.80 264.97 C 233.42 264.73 233.91 261.89 234.49 259.85 C 232.99 261.11 231.54 262.43 229.96 263.59 C 227.39 257.18 229.70 250.09 228.41 243.46 C 226.80 239.90 222.56 238.86 218.99 239.14 C 215.03 238.93 210.44 240.86 209.48 245.08 M 88.73 241.69 C 90.21 242.48 91.76 243.11 93.29 243.78 C 93.70 249.44 93.67 255.13 93.47 260.80 C 93.77 263.46 90.61 263.82 88.99 265.08 C 93.48 265.52 98.01 265.48 102.50 265.11 C 100.97 263.76 97.82 263.48 97.89 260.96 C 97.75 256.37 97.60 251.74 97.95 247.16 C 99.39 244.47 102.09 242.45 105.08 241.83 C 107.64 241.32 110.86 243.21 110.76 246.03 C 110.97 251.56 110.80 257.11 110.81 262.65 C 109.28 263.43 107.74 264.18 106.25 265.02 C 110.71 265.56 115.23 265.48 119.71 265.11 C 118.34 264.18 116.84 263.46 115.58 262.40 C 114.99 256.63 116.01 250.77 114.95 245.06 C 114.52 242.09 111.60 240.34 108.83 240.01 C 104.70 239.31 101.05 241.89 97.99 244.31 C 97.70 242.83 97.43 241.36 97.15 239.89 C 94.33 240.45 91.51 240.96 88.73 241.69 M 121.47 242.05 C 123.13 242.66 124.82 243.18 126.51 243.69 C 126.95 250.13 126.97 256.62 126.53 263.06 C 124.85 263.62 123.18 264.23 121.57 264.97 C 126.26 265.49 131.01 265.42 135.71 264.99 C 134.27 264.14 132.79 263.37 131.33 262.57 C 131.21 255.03 131.26 247.50 131.25 239.96 C 127.99 240.63 124.67 241.10 121.47 242.05 M 138.39 248.00 C 137.96 252.19 141.36 255.54 144.18 258.09 C 148.75 257.84 154.60 257.79 157.15 253.22 C 159.21 250.06 158.23 246.30 157.12 243.01 C 157.60 242.69 158.55 242.04 159.03 241.72 C 160.40 242.71 161.78 243.71 163.18 244.67 C 163.60 243.43 164.01 242.20 164.41 240.96 C 161.57 238.83 158.58 240.36 156.03 242.11 C 153.53 240.80 150.92 239.30 148.00 239.48 C 143.41 239.54 138.34 243.05 138.39 248.00 M 165.28 241.53 C 166.43 242.47 167.79 243.19 168.79 244.33 C 169.10 250.41 168.86 256.51 168.86 262.60 C 167.64 263.43 166.41 264.25 165.22 265.13 C 168.98 265.47 172.76 265.42 176.53 265.20 C 175.46 264.28 174.33 263.45 173.32 262.48 C 172.42 258.04 172.95 253.45 172.89 248.95 C 172.60 245.92 175.29 243.88 177.64 242.56 C 180.32 241.12 184.06 242.86 184.22 246.03 C 184.47 251.00 184.39 256.00 184.29 260.99 C 184.39 263.23 181.71 263.82 180.41 265.16 C 184.10 265.44 187.81 265.41 191.51 265.23 C 190.36 263.86 188.05 263.02 188.27 260.93 C 188.18 256.39 188.04 251.83 188.33 247.31 C 189.82 244.64 192.53 241.81 195.85 242.14 C 197.92 242.21 199.43 244.24 199.44 246.21 C 199.71 251.61 199.49 257.03 199.47 262.44 C 198.18 263.33 196.89 264.21 195.63 265.14 C 199.58 265.46 203.57 265.48 207.52 265.09 C 206.19 264.20 204.82 263.38 203.46 262.54 C 203.39 257.02 203.58 251.49 203.35 245.97 C 203.42 241.67 198.30 238.85 194.52 240.28 C 191.98 241.01 190.12 242.98 188.27 244.75 C 186.81 242.80 185.37 240.38 182.70 240.08 C 178.94 239.15 175.79 241.97 173.09 244.15 C 172.77 242.78 172.47 241.40 172.16 240.03 C 169.86 240.54 167.56 240.99 165.28 241.53 M 138.50 262.00 C 138.55 265.64 142.89 266.23 145.68 266.54 C 149.49 267.24 153.93 266.36 157.21 268.81 C 160.45 271.89 157.79 277.16 153.84 277.92 C 149.63 278.73 144.44 279.03 141.04 275.94 C 138.47 273.71 140.39 270.34 140.79 267.62 C 136.05 268.51 135.96 275.08 139.76 277.24 C 145.00 280.62 152.27 280.70 157.73 277.77 C 162.58 275.28 162.96 267.45 158.28 264.60 C 152.94 261.69 146.50 263.48 140.92 261.38 C 141.29 259.96 141.65 258.53 141.99 257.10 C 140.56 258.48 138.15 259.64 138.50 262.00 Z" />
<path fill="#2f2f2f" opacity="1.00" d=" M 70.64 71.34 C 97.05 55.94 123.37 40.38 149.85 25.10 C 176.20 40.39 202.75 55.34 229.05 70.72 C 216.49 77.94 203.95 85.18 191.41 92.42 C 190.39 93.19 189.27 92.07 188.33 91.71 C 175.53 84.24 162.72 76.77 149.88 69.34 C 136.26 76.74 123.04 84.88 109.52 92.46 C 108.15 93.39 106.83 91.95 105.63 91.45 C 94.05 84.60 82.04 78.47 70.64 71.34 M 147.48 32.59 C 147.40 33.78 147.32 34.97 147.24 36.17 C 148.78 36.45 150.20 35.83 151.59 35.24 C 151.30 34.53 150.73 33.10 150.45 32.39 C 149.46 32.46 148.47 32.52 147.48 32.59 M 147.26 45.78 C 147.26 46.64 147.25 48.37 147.25 49.23 C 148.93 49.62 150.47 49.12 151.83 48.09 C 150.87 46.19 149.42 45.09 147.26 45.78 M 147.29 62.30 C 147.90 62.43 149.11 62.67 149.71 62.80 C 150.20 62.29 151.18 61.27 151.67 60.76 C 150.68 60.03 149.64 57.70 148.16 58.86 C 146.63 59.24 147.59 61.20 147.29 62.30 Z" />
<path fill="#2f2f2f" opacity="1.00" d=" M 111.36 94.63 C 123.96 86.82 136.97 79.69 149.77 72.22 C 162.41 79.60 175.09 86.93 187.73 94.30 C 175.32 102.01 162.44 108.96 149.86 116.39 C 137.00 109.18 124.17 101.92 111.36 94.63 Z" />
<path fill="#2f2f2f" opacity="1.00" d=" M 69.13 73.81 C 80.74 80.13 92.15 86.81 103.69 93.24 C 105.08 94.24 107.50 94.83 107.26 96.99 C 107.50 111.33 107.35 125.67 107.80 140.00 C 107.62 142.07 109.75 142.92 111.17 143.86 C 123.60 150.92 135.94 158.12 148.38 165.16 C 148.48 179.91 148.45 194.66 148.36 209.41 C 122.40 194.83 96.61 179.96 70.67 165.34 C 68.40 164.59 68.90 161.92 68.81 160.06 C 69.01 135.71 68.56 111.35 69.14 87.01 C 69.01 82.61 68.64 78.20 69.13 73.81 M 97.06 147.23 C 97.21 147.76 97.53 148.82 97.69 149.35 C 98.18 149.46 99.16 149.68 99.65 149.79 C 100.16 149.30 101.17 148.34 101.68 147.86 C 100.83 146.97 99.98 146.09 99.11 145.22 C 98.60 145.72 97.57 146.73 97.06 147.23 M 86.30 152.79 C 86.44 153.96 86.55 155.15 86.95 156.28 C 87.70 156.22 89.21 156.12 89.96 156.07 C 89.74 154.73 89.49 153.40 89.19 152.08 C 88.47 152.26 87.02 152.61 86.30 152.79 M 76.24 159.18 C 73.03 160.74 77.63 165.07 78.79 161.73 C 79.99 159.99 77.86 158.52 76.24 159.18 Z" />
<path fill="#2f2f2f" opacity="1.00" d=" M 191.63 95.18 C 204.60 87.92 217.32 80.22 230.33 73.03 C 230.40 103.32 230.33 133.61 230.26 163.89 C 203.77 179.00 177.49 194.48 150.92 209.42 C 150.68 194.68 150.96 179.95 151.19 165.21 C 164.61 157.34 178.28 149.88 191.62 141.86 C 191.48 126.30 191.45 110.74 191.63 95.18 M 196.39 146.26 C 196.44 147.37 196.50 148.48 196.58 149.59 C 197.77 149.49 198.96 149.38 200.15 149.26 C 200.02 148.39 199.76 146.64 199.63 145.77 C 198.55 145.92 197.47 146.08 196.39 146.26 M 207.79 152.77 C 207.59 153.31 207.19 154.41 206.98 154.96 C 208.11 155.85 209.33 157.14 210.65 155.72 C 211.63 154.44 210.61 153.18 210.02 152.04 C 209.46 152.22 208.35 152.58 207.79 152.77 M 218.67 159.63 C 218.50 160.61 218.38 161.61 218.31 162.61 C 219.46 162.66 220.62 162.66 221.78 162.61 C 222.05 161.45 222.15 160.28 222.08 159.09 C 220.91 159.12 219.77 159.30 218.67 159.63 Z" />
<path fill="#2f2f2f" opacity="1.00" d=" M 109.71 96.80 C 122.73 103.95 135.67 111.28 148.52 118.73 C 148.37 133.17 148.57 147.62 148.38 162.07 C 135.59 155.12 123.11 147.61 110.42 140.48 C 110.24 125.92 109.67 111.36 109.71 96.80 Z" />
<path fill="#2f2f2f" opacity="1.00" d=" M 151.25 118.43 C 163.99 111.33 176.49 103.81 189.23 96.72 C 189.32 110.82 189.25 124.94 189.27 139.04 C 189.57 140.61 187.70 141.11 186.75 141.87 C 174.86 148.59 163.09 155.52 151.18 162.19 C 151.18 147.60 151.10 133.01 151.25 118.43 Z" />
<path fill="#2f2f2f" opacity="1.00" d=" M 146.33 241.25 C 149.31 239.97 153.04 242.23 153.49 245.40 C 153.97 248.37 154.07 251.70 152.45 254.36 C 150.19 257.75 144.22 256.77 143.26 252.77 C 142.09 249.00 142.19 243.11 146.33 241.25 Z" />
<path fill="#2f2f2f" opacity="1.00" d=" M 214.65 255.68 C 216.93 252.39 220.96 251.12 224.53 249.75 C 224.55 253.00 224.56 256.26 224.52 259.52 C 221.99 260.98 219.44 263.21 216.31 262.84 C 213.37 261.95 213.08 257.91 214.65 255.68 Z" />
</g>
<g id="#fbfbfbff">
<path fill="#fbfbfb" opacity="1.00" d=" M 70.42 68.45 C 96.96 53.11 123.28 37.41 149.86 22.15 C 177.51 38.21 205.41 53.85 232.96 70.07 C 233.26 79.04 233.12 88.03 232.90 97.00 C 232.85 119.00 232.82 140.99 232.77 162.98 C 232.84 164.28 232.60 165.73 231.21 166.24 C 204.12 181.92 176.96 197.49 149.84 213.13 C 121.92 197.52 94.15 181.64 66.41 165.70 C 66.36 135.45 66.53 105.19 66.48 74.94 C 66.55 73.57 66.34 72.11 66.89 70.81 C 67.96 69.88 69.20 69.17 70.42 68.45 M 70.64 71.34 C 82.04 78.47 94.05 84.60 105.63 91.45 C 106.83 91.95 108.15 93.39 109.52 92.46 C 123.04 84.88 136.26 76.74 149.88 69.34 C 162.72 76.77 175.53 84.24 188.33 91.71 C 189.27 92.07 190.39 93.19 191.41 92.42 C 203.95 85.18 216.49 77.94 229.05 70.72 C 202.75 55.34 176.20 40.39 149.85 25.10 C 123.37 40.38 97.05 55.94 70.64 71.34 M 111.36 94.63 C 124.17 101.92 137.00 109.18 149.86 116.39 C 162.44 108.96 175.32 102.01 187.73 94.30 C 175.09 86.93 162.41 79.60 149.77 72.22 C 136.97 79.69 123.96 86.82 111.36 94.63 M 69.13 73.81 C 68.64 78.20 69.01 82.61 69.14 87.01 C 68.56 111.35 69.01 135.71 68.81 160.06 C 68.90 161.92 68.40 164.59 70.67 165.34 C 96.61 179.96 122.40 194.83 148.36 209.41 C 148.45 194.66 148.48 179.91 148.38 165.16 C 135.94 158.12 123.60 150.92 111.17 143.86 C 109.75 142.92 107.62 142.07 107.80 140.00 C 107.35 125.67 107.50 111.33 107.26 96.99 C 107.50 94.83 105.08 94.24 103.69 93.24 C 92.15 86.81 80.74 80.13 69.13 73.81 M 191.63 95.18 C 191.45 110.74 191.48 126.30 191.62 141.86 C 178.28 149.88 164.61 157.34 151.19 165.21 C 150.96 179.95 150.68 194.68 150.92 209.42 C 177.49 194.48 203.77 179.00 230.26 163.89 C 230.33 133.61 230.40 103.32 230.33 73.03 C 217.32 80.22 204.60 87.92 191.63 95.18 M 109.71 96.80 C 109.67 111.36 110.24 125.92 110.42 140.48 C 123.11 147.61 135.59 155.12 148.38 162.07 C 148.57 147.62 148.37 133.17 148.52 118.73 C 135.67 111.28 122.73 103.95 109.71 96.80 M 151.25 118.43 C 151.10 133.01 151.18 147.60 151.18 162.19 C 163.09 155.52 174.86 148.59 186.75 141.87 C 187.70 141.11 189.57 140.61 189.27 139.04 C 189.25 124.94 189.32 110.82 189.23 96.72 C 176.49 103.81 163.99 111.33 151.25 118.43 Z" />
<path fill="#fbfbfb" opacity="1.00" d=" M 147.48 32.59 C 148.47 32.52 149.46 32.46 150.45 32.39 C 150.73 33.10 151.30 34.53 151.59 35.24 C 150.20 35.83 148.78 36.45 147.24 36.17 C 147.32 34.97 147.40 33.78 147.48 32.59 Z" />
<path fill="#fbfbfb" opacity="1.00" d=" M 147.26 45.78 C 149.42 45.09 150.87 46.19 151.83 48.09 C 150.47 49.12 148.93 49.62 147.25 49.23 C 147.25 48.37 147.26 46.64 147.26 45.78 Z" />
<path fill="#fbfbfb" opacity="1.00" d=" M 147.29 62.30 C 147.59 61.20 146.63 59.24 148.16 58.86 C 149.64 57.70 150.68 60.03 151.67 60.76 C 151.18 61.27 150.20 62.29 149.71 62.80 C 149.11 62.67 147.90 62.43 147.29 62.30 Z" />
<path fill="#fbfbfb" opacity="1.00" d=" M 97.06 147.23 C 97.57 146.73 98.60 145.72 99.11 145.22 C 99.98 146.09 100.83 146.97 101.68 147.86 C 101.17 148.34 100.16 149.30 99.65 149.79 C 99.16 149.68 98.18 149.46 97.69 149.35 C 97.53 148.82 97.21 147.76 97.06 147.23 Z" />
<path fill="#fbfbfb" opacity="1.00" d=" M 196.39 146.26 C 197.47 146.08 198.55 145.92 199.63 145.77 C 199.76 146.64 200.02 148.39 200.15 149.26 C 198.96 149.38 197.77 149.49 196.58 149.59 C 196.50 148.48 196.44 147.37 196.39 146.26 Z" />
<path fill="#fbfbfb" opacity="1.00" d=" M 86.30 152.79 C 87.02 152.61 88.47 152.26 89.19 152.08 C 89.49 153.40 89.74 154.73 89.96 156.07 C 89.21 156.12 87.70 156.22 86.95 156.28 C 86.55 155.15 86.44 153.96 86.30 152.79 Z" />
<path fill="#fbfbfb" opacity="1.00" d=" M 207.79 152.77 C 208.35 152.58 209.46 152.22 210.02 152.04 C 210.61 153.18 211.63 154.44 210.65 155.72 C 209.33 157.14 208.11 155.85 206.98 154.96 C 207.19 154.41 207.59 153.31 207.79 152.77 Z" />
<path fill="#fbfbfb" opacity="1.00" d=" M 76.24 159.18 C 77.86 158.52 79.99 159.99 78.79 161.73 C 77.63 165.07 73.03 160.74 76.24 159.18 Z" />
<path fill="#fbfbfb" opacity="1.00" d=" M 218.67 159.63 C 219.77 159.30 220.91 159.12 222.08 159.09 C 222.15 160.28 222.05 161.45 221.78 162.61 C 220.62 162.66 219.46 162.66 218.31 162.61 C 218.38 161.61 218.50 160.61 218.67 159.63 Z" />
<path fill="#fbfbfb" opacity="1.00" d=" M 126.33 230.09 C 129.76 227.71 133.10 233.64 129.42 235.50 C 126.10 237.54 123.04 231.86 126.33 230.09 Z" />
<path fill="#fbfbfb" opacity="1.00" d=" M 70.62 239.75 C 74.29 238.83 78.30 238.85 81.88 240.10 C 83.56 240.82 85.84 241.82 85.81 243.97 C 86.20 245.45 84.03 245.65 83.20 246.38 C 81.63 243.63 79.92 239.83 76.02 240.63 C 71.67 239.94 68.63 246.13 71.98 249.00 C 74.85 250.70 78.35 249.93 81.51 250.43 C 78.33 252.54 74.16 251.90 70.98 253.93 C 68.42 256.29 68.84 261.23 71.92 263.00 C 75.24 264.83 79.53 264.63 82.86 262.91 C 84.36 261.24 84.83 258.91 85.92 256.97 C 87.61 257.48 89.51 258.93 88.37 260.89 C 84.05 266.30 76.06 266.69 69.83 265.14 C 65.99 264.38 63.18 260.27 64.66 256.47 C 65.31 253.50 68.25 252.17 70.74 251.02 C 68.70 250.15 66.30 249.24 65.65 246.87 C 64.93 243.63 67.57 240.52 70.62 239.75 Z" />
<path fill="#fbfbfb" opacity="1.00" d=" M 209.48 245.08 C 210.44 240.86 215.03 238.93 218.99 239.14 C 222.56 238.86 226.80 239.90 228.41 243.46 C 229.70 250.09 227.39 257.18 229.96 263.59 C 231.54 262.43 232.99 261.11 234.49 259.85 C 233.91 261.89 233.42 264.73 230.80 264.97 C 227.81 266.08 225.46 263.68 224.17 261.29 C 220.51 263.64 215.93 266.50 211.52 264.38 C 208.20 262.73 208.15 258.01 210.65 255.62 C 214.57 251.92 219.83 250.20 224.67 248.06 C 224.47 245.47 224.80 241.99 221.81 240.87 C 219.75 240.50 217.33 240.17 215.44 241.24 C 214.31 242.73 213.73 244.55 212.73 246.13 C 211.34 246.88 210.25 246.52 209.48 245.08 M 214.65 255.68 C 213.08 257.91 213.37 261.95 216.31 262.84 C 219.44 263.21 221.99 260.98 224.52 259.52 C 224.56 256.26 224.55 253.00 224.53 249.75 C 220.96 251.12 216.93 252.39 214.65 255.68 Z" />
<path fill="#fbfbfb" opacity="1.00" d=" M 88.73 241.69 C 91.51 240.96 94.33 240.45 97.15 239.89 C 97.43 241.36 97.70 242.83 97.99 244.31 C 101.05 241.89 104.70 239.31 108.83 240.01 C 111.60 240.34 114.52 242.09 114.95 245.06 C 116.01 250.77 114.99 256.63 115.58 262.40 C 116.84 263.46 118.34 264.18 119.71 265.11 C 115.23 265.48 110.71 265.56 106.25 265.02 C 107.74 264.18 109.28 263.43 110.81 262.65 C 110.80 257.11 110.97 251.56 110.76 246.03 C 110.86 243.21 107.64 241.32 105.08 241.83 C 102.09 242.45 99.39 244.47 97.95 247.16 C 97.60 251.74 97.75 256.37 97.89 260.96 C 97.82 263.48 100.97 263.76 102.50 265.11 C 98.01 265.48 93.48 265.52 88.99 265.08 C 90.61 263.82 93.77 263.46 93.47 260.80 C 93.67 255.13 93.70 249.44 93.29 243.78 C 91.76 243.11 90.21 242.48 88.73 241.69 Z" />
<path fill="#fbfbfb" opacity="1.00" d=" M 121.47 242.05 C 124.67 241.10 127.99 240.63 131.25 239.96 C 131.26 247.50 131.21 255.03 131.33 262.57 C 132.79 263.37 134.27 264.14 135.71 264.99 C 131.01 265.42 126.26 265.49 121.57 264.97 C 123.18 264.23 124.85 263.62 126.53 263.06 C 126.97 256.62 126.95 250.13 126.51 243.69 C 124.82 243.18 123.13 242.66 121.47 242.05 Z" />
<path fill="#fbfbfb" opacity="1.00" d=" M 138.39 248.00 C 138.34 243.05 143.41 239.54 148.00 239.48 C 150.92 239.30 153.53 240.80 156.03 242.11 C 158.58 240.36 161.57 238.83 164.41 240.96 C 164.01 242.20 163.60 243.43 163.18 244.67 C 161.78 243.71 160.40 242.71 159.03 241.72 C 158.55 242.04 157.60 242.69 157.12 243.01 C 158.23 246.30 159.21 250.06 157.15 253.22 C 154.60 257.79 148.75 257.84 144.18 258.09 C 141.36 255.54 137.96 252.19 138.39 248.00 M 146.33 241.25 C 142.19 243.11 142.09 249.00 143.26 252.77 C 144.22 256.77 150.19 257.75 152.45 254.36 C 154.07 251.70 153.97 248.37 153.49 245.40 C 153.04 242.23 149.31 239.97 146.33 241.25 Z" />
<path fill="#fbfbfb" opacity="1.00" d=" M 165.28 241.53 C 167.56 240.99 169.86 240.54 172.16 240.03 C 172.47 241.40 172.77 242.78 173.09 244.15 C 175.79 241.97 178.94 239.15 182.70 240.08 C 185.37 240.38 186.81 242.80 188.27 244.75 C 190.12 242.98 191.98 241.01 194.52 240.28 C 198.30 238.85 203.42 241.67 203.35 245.97 C 203.58 251.49 203.39 257.02 203.46 262.54 C 204.82 263.38 206.19 264.20 207.52 265.09 C 203.57 265.48 199.58 265.46 195.63 265.14 C 196.89 264.21 198.18 263.33 199.47 262.44 C 199.49 257.03 199.71 251.61 199.44 246.21 C 199.43 244.24 197.92 242.21 195.85 242.14 C 192.53 241.81 189.82 244.64 188.33 247.31 C 188.04 251.83 188.18 256.39 188.27 260.93 C 188.05 263.02 190.36 263.86 191.51 265.23 C 187.81 265.41 184.10 265.44 180.41 265.16 C 181.71 263.82 184.39 263.23 184.29 260.99 C 184.39 256.00 184.47 251.00 184.22 246.03 C 184.06 242.86 180.32 241.12 177.64 242.56 C 175.29 243.88 172.60 245.92 172.89 248.95 C 172.95 253.45 172.42 258.04 173.32 262.48 C 174.33 263.45 175.46 264.28 176.53 265.20 C 172.76 265.42 168.98 265.47 165.22 265.13 C 166.41 264.25 167.64 263.43 168.86 262.60 C 168.86 256.51 169.10 250.41 168.79 244.33 C 167.79 243.19 166.43 242.47 165.28 241.53 Z" />
<path fill="#fbfbfb" opacity="1.00" d=" M 138.50 262.00 C 138.15 259.64 140.56 258.48 141.99 257.10 C 141.65 258.53 141.29 259.96 140.92 261.38 C 146.50 263.48 152.94 261.69 158.28 264.60 C 162.96 267.45 162.58 275.28 157.73 277.77 C 152.27 280.70 145.00 280.62 139.76 277.24 C 135.96 275.08 136.05 268.51 140.79 267.62 C 140.39 270.34 138.47 273.71 141.04 275.94 C 144.44 279.03 149.63 278.73 153.84 277.92 C 157.79 277.16 160.45 271.89 157.21 268.81 C 153.93 266.36 149.49 267.24 145.68 266.54 C 142.89 266.23 138.55 265.64 138.50 262.00 Z" />
</g>
</svg>
