<?xml version="1.0" encoding="UTF-8" ?>
<!DOCTYPE svg PUBLIC "-//W3C//DTD SVG 1.1//EN" "http://www.w3.org/Graphics/SVG/1.1/DTD/svg11.dtd">
<svg width="300pt" height="300pt" viewBox="0 0 300 300" version="1.1" xmlns="http://www.w3.org/2000/svg">
<g id="#ffffffff">
<path fill="#ffffff" opacity="1.00" d=" M 0.00 0.00 L 300.00 0.00 L 300.00 300.00 L 0.00 300.00 L 0.00 0.00 M 73.36 76.09 C 73.28 124.79 73.39 173.50 73.30 222.20 C 78.89 222.61 84.50 222.33 90.09 222.36 C 90.13 173.62 90.15 124.88 90.09 76.14 C 84.51 76.07 78.93 76.12 73.36 76.09 M 213.81 76.18 C 213.76 124.88 213.74 173.58 213.82 222.28 C 219.35 222.48 224.89 222.42 230.43 222.33 C 230.54 173.59 230.48 124.85 230.46 76.11 C 224.91 76.13 219.36 76.03 213.81 76.18 M 120.32 102.81 C 120.12 131.30 120.22 159.80 120.23 188.30 C 125.71 188.52 131.21 188.50 136.70 188.31 C 136.68 159.81 136.77 131.30 136.65 102.80 C 131.21 102.59 125.76 102.54 120.32 102.81 M 167.14 121.80 C 167.01 135.81 167.14 149.83 167.07 163.84 C 172.60 163.87 178.13 163.84 183.67 163.87 C 183.67 149.86 183.71 135.85 183.65 121.83 C 178.15 121.72 172.64 121.76 167.14 121.80 Z" />
</g>
<g id="#211f20ff">
<path fill="#211f20" opacity="1.00" d=" M 73.36 76.09 C 78.93 76.12 84.51 76.07 90.09 76.14 C 90.15 124.88 90.13 173.62 90.09 222.36 C 84.50 222.33 78.89 222.61 73.30 222.20 C 73.39 173.50 73.28 124.79 73.36 76.09 Z" />
<path fill="#211f20" opacity="1.00" d=" M 213.81 76.18 C 219.36 76.03 224.91 76.13 230.46 76.11 C 230.48 124.85 230.54 173.59 230.43 222.33 C 224.89 222.42 219.35 222.48 213.82 222.28 C 213.74 173.58 213.76 124.88 213.81 76.18 Z" />
<path fill="#211f20" opacity="1.00" d=" M 120.32 102.81 C 125.76 102.54 131.21 102.59 136.65 102.80 C 136.77 131.30 136.68 159.81 136.70 188.31 C 131.21 188.50 125.71 188.52 120.23 188.30 C 120.22 159.80 120.12 131.30 120.32 102.81 Z" />
<path fill="#211f20" opacity="1.00" d=" M 167.14 121.80 C 172.64 121.76 178.15 121.72 183.65 121.83 C 183.71 135.85 183.67 149.86 183.67 163.87 C 178.13 163.84 172.60 163.87 167.07 163.84 C 167.14 149.83 167.01 135.81 167.14 121.80 Z" />
</g>
</svg>
