<?xml version="1.0" encoding="UTF-8" ?>
<!DOCTYPE svg PUBLIC "-//W3C//DTD SVG 1.1//EN" "http://www.w3.org/Graphics/SVG/1.1/DTD/svg11.dtd">
<svg width="300pt" height="300pt" viewBox="0 0 300 300" version="1.1" xmlns="http://www.w3.org/2000/svg">
<g id="#ffffffff">
<path fill="#ffffff" opacity="1.00" d=" M 0.00 0.00 L 300.00 0.00 L 300.00 300.00 L 0.00 300.00 L 0.00 0.00 M 145.42 34.19 C 110.87 53.77 75.98 72.73 41.55 92.50 C 41.53 132.55 41.60 172.61 41.51 212.67 C 55.85 221.41 70.79 229.16 85.36 237.51 C 106.89 249.40 128.20 261.69 149.84 273.37 C 185.00 253.70 220.16 234.05 255.33 214.40 C 256.17 213.70 257.86 213.25 257.63 211.85 C 257.67 172.02 257.63 132.19 257.65 92.36 C 222.55 72.34 187.11 52.91 151.90 33.07 C 149.75 31.43 147.36 33.11 145.42 34.19 Z" />
<path fill="#ffffff" opacity="1.00" d=" M 148.93 73.12 C 150.50 72.05 152.57 71.85 154.24 72.83 C 178.46 86.29 202.77 99.61 227.02 113.03 C 220.51 117.18 213.70 120.81 206.96 124.56 C 188.47 114.76 170.36 104.23 151.97 94.22 C 139.91 100.66 128.09 107.56 116.08 114.09 C 115.11 114.83 113.42 115.17 113.42 116.65 C 118.38 119.75 123.66 122.31 128.68 125.32 C 131.19 126.61 134.20 129.04 137.01 127.04 C 140.29 125.80 143.01 122.31 146.67 122.62 C 152.80 125.86 158.90 129.23 164.84 132.83 C 161.42 134.71 157.87 136.39 154.55 138.44 C 154.52 138.73 154.44 139.29 154.40 139.58 C 158.18 141.84 161.97 144.18 166.05 145.86 C 169.61 145.07 172.39 141.79 175.92 141.32 C 181.95 144.33 187.74 147.84 193.64 151.09 C 191.99 153.79 188.69 154.44 186.33 156.29 C 185.96 157.95 187.90 158.26 188.93 159.02 C 203.24 166.82 217.35 175.01 231.70 182.73 C 206.04 197.58 179.96 211.73 154.14 226.31 C 152.28 227.33 150.08 226.74 148.40 225.66 C 122.04 210.95 95.49 196.59 69.21 181.76 C 69.38 174.48 69.15 167.19 69.48 159.91 C 70.87 160.36 72.26 160.82 73.56 161.50 C 97.10 174.66 120.74 187.65 144.30 200.75 C 146.84 202.09 149.18 203.89 151.93 204.77 C 165.09 197.70 178.07 190.23 191.11 182.93 C 182.49 177.85 173.69 173.08 164.95 168.23 C 161.60 170.00 158.30 171.85 155.01 173.71 C 148.60 170.27 142.18 166.83 135.93 163.12 C 139.23 161.38 142.45 159.49 145.75 157.76 C 141.70 154.98 137.36 152.67 132.99 150.44 C 130.35 151.82 127.94 154.00 124.97 154.54 C 120.56 152.63 116.64 149.72 112.28 147.68 C 110.45 146.54 107.78 146.00 107.16 143.64 C 109.47 142.43 111.73 141.14 114.05 139.95 C 100.34 131.63 86.02 124.34 72.19 116.22 C 97.62 101.59 123.41 87.60 148.93 73.12 Z" />
</g>
<g id="#242021ff">
<path fill="#242021" opacity="1.00" d=" M 145.42 34.19 C 147.36 33.11 149.75 31.43 151.90 33.07 C 187.11 52.91 222.55 72.34 257.65 92.36 C 257.63 132.19 257.67 172.02 257.63 211.85 C 257.86 213.25 256.17 213.70 255.33 214.40 C 220.16 234.05 185.00 253.70 149.84 273.37 C 128.20 261.69 106.89 249.40 85.36 237.51 C 70.79 229.16 55.85 221.41 41.51 212.67 C 41.60 172.61 41.53 132.55 41.55 92.50 C 75.98 72.73 110.87 53.77 145.42 34.19 M 148.93 73.12 C 123.41 87.60 97.62 101.59 72.19 116.22 C 86.02 124.34 100.34 131.63 114.05 139.95 C 111.73 141.14 109.47 142.43 107.16 143.64 C 107.78 146.00 110.45 146.54 112.28 147.68 C 116.64 149.72 120.56 152.63 124.97 154.54 C 127.94 154.00 130.35 151.82 132.99 150.44 C 137.36 152.67 141.70 154.98 145.75 157.76 C 142.45 159.49 139.23 161.38 135.93 163.12 C 142.18 166.83 148.60 170.27 155.01 173.71 C 158.30 171.85 161.60 170.00 164.95 168.23 C 173.69 173.08 182.49 177.85 191.11 182.93 C 178.07 190.23 165.09 197.70 151.93 204.77 C 149.18 203.89 146.84 202.09 144.30 200.75 C 120.74 187.65 97.10 174.66 73.56 161.50 C 72.26 160.82 70.87 160.36 69.48 159.91 C 69.15 167.19 69.38 174.48 69.21 181.76 C 95.49 196.59 122.04 210.95 148.40 225.66 C 150.08 226.74 152.28 227.33 154.14 226.31 C 179.96 211.73 206.04 197.58 231.70 182.73 C 217.35 175.01 203.24 166.82 188.93 159.02 C 187.90 158.26 185.96 157.95 186.33 156.29 C 188.69 154.44 191.99 153.79 193.64 151.09 C 187.74 147.84 181.95 144.33 175.92 141.32 C 172.39 141.79 169.61 145.07 166.05 145.86 C 161.97 144.18 158.18 141.84 154.40 139.58 C 154.44 139.29 154.52 138.73 154.55 138.44 C 157.87 136.39 161.42 134.71 164.84 132.83 C 158.90 129.23 152.80 125.86 146.67 122.62 C 143.01 122.31 140.29 125.80 137.01 127.04 C 134.20 129.04 131.19 126.61 128.68 125.32 C 123.66 122.31 118.38 119.75 113.42 116.65 C 113.42 115.17 115.11 114.83 116.08 114.09 C 128.09 107.56 139.91 100.66 151.97 94.22 C 170.36 104.23 188.47 114.76 206.96 124.56 C 213.70 120.81 220.51 117.18 227.02 113.03 C 202.77 99.61 178.46 86.29 154.24 72.83 C 152.57 71.85 150.50 72.05 148.93 73.12 Z" />
</g>
</svg>
