<?xml version="1.0" encoding="UTF-8" ?>
<!DOCTYPE svg PUBLIC "-//W3C//DTD SVG 1.1//EN" "http://www.w3.org/Graphics/SVG/1.1/DTD/svg11.dtd">
<svg width="128pt" height="128pt" viewBox="0 0 128 128" version="1.1" xmlns="http://www.w3.org/2000/svg">
<g id="#1e1a31ff">
<path fill="#1e1a31" opacity="1.00" d=" M 35.27 7.26 C 50.86 -0.46 69.71 -1.38 85.88 5.10 C 100.33 10.65 112.44 21.83 119.35 35.65 C 125.79 48.38 127.52 63.36 124.44 77.28 C 121.23 91.99 112.52 105.47 100.33 114.34 C 89.37 122.48 75.67 126.89 62.01 126.57 C 44.24 126.50 26.80 118.17 15.30 104.67 C 5.67 93.64 0.45 79.19 0.00 64.62 L 0.00 62.40 C 0.48 55.73 1.36 49.00 3.72 42.71 C 9.10 27.39 20.67 14.36 35.27 7.26 M 44.15 51.99 C 43.49 59.23 49.41 66.05 56.56 66.83 C 53.34 72.33 49.00 77.09 45.88 82.65 C 43.13 83.95 43.77 88.97 47.11 88.75 C 54.08 88.93 61.07 88.84 68.05 88.78 C 75.34 88.85 81.97 82.34 81.84 75.01 C 82.16 68.04 76.44 61.50 69.49 60.87 C 72.11 55.06 76.70 50.49 79.89 45.02 C 82.72 43.74 82.39 38.92 79.00 38.83 C 71.99 38.61 64.97 38.72 57.97 38.77 C 50.85 38.79 44.39 44.83 44.15 51.99 Z" />
<path fill="#1e1a31" opacity="1.00" d=" M 55.37 45.50 C 60.88 44.29 66.59 45.04 72.19 44.94 C 69.03 50.30 64.96 55.06 61.88 60.47 C 58.68 60.57 54.92 61.07 52.54 58.40 C 48.56 54.69 50.13 47.14 55.37 45.50 Z" />
<path fill="#1e1a31" opacity="1.00" d=" M 64.17 66.91 C 67.64 66.81 71.84 66.77 74.05 69.96 C 77.45 74.01 75.25 80.89 70.19 82.36 C 64.71 82.58 59.21 82.48 53.73 82.22 C 56.91 76.92 60.91 72.17 64.17 66.91 Z" />
</g>
<g id="#fefefeff">
<path fill="#fefefe" opacity="1.00" d=" M 44.15 51.99 C 44.39 44.83 50.85 38.79 57.97 38.77 C 64.97 38.72 71.99 38.61 79.00 38.83 C 82.39 38.92 82.72 43.74 79.89 45.02 C 77.32 45.08 74.76 44.99 72.19 44.94 C 66.59 45.04 60.88 44.29 55.37 45.50 C 50.13 47.14 48.56 54.69 52.54 58.40 C 54.92 61.07 58.68 60.57 61.88 60.47 C 64.42 60.44 66.97 60.53 69.49 60.87 C 76.44 61.50 82.16 68.04 81.84 75.01 C 81.97 82.34 75.34 88.85 68.05 88.78 C 61.07 88.84 54.08 88.93 47.11 88.75 C 43.77 88.97 43.13 83.95 45.88 82.65 C 53.98 82.51 62.13 83.37 70.19 82.36 C 75.25 80.89 77.45 74.01 74.05 69.96 C 71.84 66.77 67.64 66.81 64.17 66.91 C 61.63 66.95 59.09 67.01 56.56 66.83 C 49.41 66.05 43.49 59.23 44.15 51.99 Z" />
</g>
<g id="#8e8c98ff">
<path fill="#8e8c98" opacity="1.00" d=" M 72.19 44.94 C 74.76 44.99 77.32 45.08 79.89 45.02 C 76.70 50.49 72.11 55.06 69.49 60.87 C 66.97 60.53 64.42 60.44 61.88 60.47 C 64.96 55.06 69.03 50.30 72.19 44.94 Z" />
<path fill="#8e8c98" opacity="1.00" d=" M 56.56 66.83 C 59.09 67.01 61.63 66.95 64.17 66.91 C 60.91 72.17 56.91 76.92 53.73 82.22 C 59.21 82.48 64.71 82.58 70.19 82.36 C 62.13 83.37 53.98 82.51 45.88 82.65 C 49.00 77.09 53.34 72.33 56.56 66.83 Z" />
</g>
</svg>
